<?xml version="1.0" standalone="no"?>
<!DOCTYPE svg PUBLIC "-//W3C//DTD SVG 1.1//EN" "http://www.w3.org/Graphics/SVG/1.1/DTD/svg11.dtd" >
<svg xmlns="http://www.w3.org/2000/svg" xmlns:xlink="http://www.w3.org/1999/xlink" version="1.1">
<metadata>
Created by FontForge 20170731 at Fri Jan  1 02:30:17 1904
 By Aleksey,,,
Copyright 2015 (c) The Monotype Corporation. All rights reserved.
</metadata>
<defs>
<font id="GillSansNova-UltraLight" horiz-adv-x="512" >
  <font-face 
    font-family="Gill Sans Nova for JL"
    font-weight="400"
    font-stretch="normal"
    units-per-em="1024"
    panose-1="0 0 0 0 0 0 0 0 0 0"
    ascent="819"
    descent="-205"
    x-height="460"
    cap-height="698"
    bbox="-407 -255 1096 973"
    underline-thickness="17"
    underline-position="-26"
    unicode-range="U+0020-FEFF"
  />
<missing-glyph horiz-adv-x="0" 
 />
    <glyph glyph-name=".notdef" horiz-adv-x="0" 
 />
    <glyph glyph-name="glyph1" horiz-adv-x="0" 
 />
    <glyph glyph-name="nonmarkingreturn" horiz-adv-x="341" 
 />
    <glyph glyph-name="space" unicode=" " horiz-adv-x="285" 
 />
    <glyph glyph-name="exclam" unicode="!" horiz-adv-x="162" 
d="M71 197v501h20v-501h-20zM67 77h4h24v-77h-28v77z" />
    <glyph glyph-name="quotedbl" unicode="&#x22;" horiz-adv-x="233" 
d="M38 700h20v-111q0 -32 -4 -128h-12q0 33 -4 128v111zM175 700h21v-111q0 -32 -5 -128h-12q-1 33 -4 128v111z" />
    <glyph glyph-name="numbersign" unicode="#" horiz-adv-x="652" 
d="M268 715h21q-12 -57 -46 -226h223q12 57 47 226h21q-12 -57 -47 -226h101v-20h-105q-10 -55 -46 -220h151v-21h-155q-11 -54 -45 -221h-20q12 56 45 221h-225q-10 -54 -45 -221h-20q12 56 45 221h-98v21h102q12 55 45 220h-147v20h151q13 57 47 226zM239 469
q-12 -55 -46 -220h224q12 55 45 220h-223z" />
    <glyph glyph-name="dollar" unicode="$" horiz-adv-x="481" 
d="M251 -8v-112h-23v111q-52 1 -100 13q-48 14 -92 38v27q46 -27 94 -42t98 -15v319q-51 17 -89 35q-37 20 -59 38q-21 21 -33 48q-11 28 -11 62q0 36 13 62q14 28 38 50q27 22 61 34q36 14 80 16v47h23v-46q47 0 89 -9q42 -8 79 -25v-26q-41 21 -85 29q-42 9 -83 9v-305
q55 -16 93 -36q38 -18 58 -41q22 -20 33 -48q10 -27 10 -63t-12 -65q-12 -28 -39 -52q-26 -22 -61 -36q-36 -13 -82 -17zM251 324v-311q41 3 71 15q33 12 54 31q24 21 34 46q12 27 11 57q0 32 -9 55q-9 25 -29 41q-18 18 -51 34t-81 32zM228 357v297q-38 -2 -69 -14
q-30 -9 -54 -30q-21 -18 -33 -42t-12 -53t10 -53q9 -22 27 -40q19 -16 52 -33q33 -15 79 -32z" />
    <glyph glyph-name="percent" unicode="%" horiz-adv-x="758" 
d="M206 378q-33 0 -63 12q-28 12 -54 36q-24 26 -36 54q-12 30 -12 63q0 35 12 62q12 29 36 53q26 26 54 37q30 13 63 13q34 0 62 -12q30 -12 54 -37q24 -23 36 -53q14 -28 13 -63q0 -33 -12 -63q-11 -27 -35 -53q-15 -15 -31 -25q-11 -6 -23 -12q-28 -12 -64 -12zM552 -9
q-33 0 -63 12q-28 12 -54 36q-24 24 -36 54t-12 63q0 34 12 62q12 30 36 53q15 15 31 25q12 8 23 12q30 14 63 13q34 0 62 -12q30 -11 54 -37q24 -22 37 -53q12 -29 12 -63q1 -33 -11 -63q-12 -27 -36 -53q-24 -24 -53 -37q-29 -12 -65 -12zM552 10q32 0 56 11q26 11 46 32
q22 24 32 48q10 25 10 55t-10 55q-10 27 -32 47q-20 22 -46 32q-26 12 -57 11q-28 0 -54 -10q-25 -9 -46 -32q-21 -21 -33 -47q-10 -26 -10 -56t10 -55q10 -26 32 -48q21 -21 47 -32q27 -11 55 -11zM206 397q32 1 56 11q26 12 46 32q22 24 32 48q10 27 10 55q0 31 -10 55
q-10 26 -32 47q-20 23 -46 32q-26 11 -57 11q-28 0 -54 -10q-25 -10 -47 -32q-20 -20 -32 -47q-10 -26 -11 -56q1 -28 11 -55q10 -26 31 -48q22 -20 48 -32q27 -10 55 -11zM113 0q129 176 514 698h25q-128 -174 -514 -698h-25z" />
    <glyph glyph-name="ampersand" unicode="&#x26;" horiz-adv-x="612" 
d="M246 370l208 -204q27 42 47 87q21 45 36 95h19q-15 -51 -37 -101q-21 -48 -52 -93q3 -2 5 -5q4 -3 7 -8q5 -3 8 -7l7 -7l6 -6l6 -6q40 -39 118 -115h-29q-34 34 -139 136q-52 -72 -113 -109q-59 -36 -128 -36q-44 0 -78 12q-34 13 -61 35q-26 24 -39 55q-13 33 -13 72
q0 19 3 34q4 16 12 31q9 16 19 30q12 14 29 28q17 15 31 24q14 12 26 19q14 8 30 18q18 12 41 24q-55 53 -85 95t-36 71q0 11 -3 19q-1 9 -1 12q0 32 11 55q11 24 32 44q22 21 49 29q28 10 62 10t63 -11q28 -9 49 -30q24 -20 34 -47t10 -61q0 -26 -8 -50t-26 -46
q-18 -21 -48 -45t-72 -48zM442 150q-52 52 -214 209q-15 -9 -65 -40q-59 -35 -89 -74t-30 -80q0 -27 8 -51t22 -43q15 -18 36 -32q21 -12 47 -21q15 -2 30 -5q15 -2 28 -2q65 1 122 35t105 104zM232 383q42 25 70 46q30 21 45 41q17 21 25 42q8 24 8 47q0 30 -9 54t-27 40
q-18 18 -44 27q-24 8 -57 8q-29 0 -53 -7t-43 -25q-18 -16 -27 -37t-9 -49q1 -14 4 -29q4 -15 12 -32q9 -15 17 -29q9 -14 18 -24q10 -9 20 -21q10 -9 22 -22q12 -11 19 -19t9 -11z" />
    <glyph glyph-name="quoteright" unicode="'" horiz-adv-x="174" 
d="M48 502v17q20 16 29 42q9 25 9 61h-18v76h40v-60q0 -46 -16 -80q-14 -34 -44 -56z" />
    <glyph glyph-name="quoteright" unicode="&#x2019;" horiz-adv-x="174" 
d="M48 502v17q20 16 29 42q9 25 9 61h-18v76h40v-60q0 -46 -16 -80q-14 -34 -44 -56z" />
    <glyph glyph-name="parenleft" unicode="(" horiz-adv-x="308" 
d="M281 708h21q-48 -48 -84 -102t-63 -116q-25 -60 -40 -124q-13 -63 -13 -129q0 -135 50 -254q51 -117 150 -217h-21q-99 99 -148 216q-50 118 -50 255t50 254q49 118 148 217z" />
    <glyph glyph-name="parenright" unicode=")" horiz-adv-x="308" 
d="M28 -234h-22q100 99 150 216q50 118 50 255q0 135 -50 253t-150 218h22q100 -99 148 -217q50 -117 49 -254q1 -137 -49 -255q-48 -117 -148 -216z" />
    <glyph glyph-name="asterisk" unicode="*" horiz-adv-x="455" 
d="M74 640l14 14q34 -32 130 -134q2 0 2 1q0 47 -3 187h21q0 -46 -4 -187q2 1 3 -1q33 34 130 134q3 -2 14 -14q-33 -32 -134 -129q1 0 1 -3q46 2 186 3v-21q-45 2 -187 2v0q33 -32 134 -131l-14 -14q-33 35 -133 134v0q2 -46 4 -187h-21q1 48 3 187q0 1 -2 1
q-32 -33 -130 -135q-4 5 -14 14q34 33 135 131q1 0 -1 3q-46 -1 -188 -5v21q48 0 188 -3q0 2 1 3q-33 33 -135 129z" />
    <glyph glyph-name="plus" unicode="+" 
d="M41 349v21h205v217h20v-217h205v-21h-205v-217h-20v217h-205z" />
    <glyph glyph-name="comma" unicode="," horiz-adv-x="138" 
d="M30 -120v18q20 16 28 41q10 27 10 61h-19v77h40v-61t-15 -80q-14 -34 -44 -56z" />
    <glyph glyph-name="hyphen" unicode="-" horiz-adv-x="321" 
d="M39 247h243v-19h-243v19z" />
    <glyph glyph-name="period" unicode="." horiz-adv-x="135" 
d="M49 77h37v-77h-37v77z" />
    <glyph glyph-name="slash" unicode="/" horiz-adv-x="253" 
d="M230 708h17q-56 -180 -224 -717h-17q56 180 224 717z" />
    <glyph glyph-name="zero" unicode="0" 
d="M256 -9q-51 0 -93 24q-40 24 -70 72q-29 48 -44 114q-14 66 -14 148q0 84 14 148q15 65 43 113q30 50 70 74q42 24 94 24q54 0 95 -24t69 -73q30 -47 43 -113q15 -66 14 -149q1 -81 -14 -147q-13 -64 -43 -114q-28 -48 -69 -73q-41 -24 -95 -24zM454 349q0 79 -13 141
q-12 62 -39 107q-24 45 -62 68q-36 22 -85 22q-45 0 -82 -22q-35 -21 -62 -67q-27 -44 -40 -107q-13 -61 -13 -142q0 -78 13 -141q12 -60 39 -107q26 -43 62 -67q38 -22 84 -23q48 1 83 23q36 22 62 66q27 46 40 108q13 63 13 141z" />
    <glyph glyph-name="one" unicode="1" horiz-adv-x="200" 
d="M177 0h-22v677q-33 -29 -131 -121v31q32 31 131 121h22v-708z" />
    <glyph glyph-name="two" unicode="2" 
d="M240 708q46 0 82 -13t64 -40q28 -25 42 -61q14 -34 13 -80q0 -50 -15 -100q-15 -48 -48 -97q-32 -45 -98 -120q-64 -73 -163 -175h356v-22h-408q15 16 63 65q88 90 145 156q59 66 86 110q30 45 44 90q15 45 14 93q0 40 -12 71q-12 33 -36 55q-23 24 -56 35q-32 12 -72 12
q-45 0 -87 -16q-42 -15 -83 -47v23q40 31 82 46t87 15z" />
    <glyph glyph-name="three" unicode="3" 
d="M437 540q0 -30 -9 -58q-9 -26 -30 -50q-18 -22 -45 -39q-26 -15 -60 -24q38 -9 65 -26q28 -15 48 -41q20 -24 29 -54q10 -28 10 -65q1 -42 -14 -76q-14 -33 -44 -62q-28 -27 -67 -41q-38 -12 -84 -13q-42 1 -83 10q-39 9 -76 28v23q42 -20 81 -30t78 -11q44 0 76 12
q34 13 59 35q25 24 37 56q14 32 13 69q1 42 -13 74t-41 54q-27 24 -66 36q-37 11 -87 11v20q48 0 83 11q36 11 62 32q27 22 40 52q15 31 14 67q0 32 -12 58q-11 26 -35 47q-24 23 -56 32q-30 10 -69 10q-43 1 -83 -11q-39 -12 -75 -35v24q36 21 76 32t85 11q42 0 75 -12
q35 -12 62 -37q28 -24 42 -54q15 -29 14 -65z" />
    <glyph glyph-name="four" unicode="4" 
d="M372 708h10v-407h104v-22h-104v-279h-23v279h-333v19q86 102 346 410zM359 301v358q-75 -88 -303 -358h303z" />
    <glyph glyph-name="five" unicode="5" 
d="M115 698h283v-22h-261v-251q18 3 36 5q20 2 38 1q53 1 95 -14t74 -44q33 -29 48 -69q16 -38 16 -88t-15 -91q-15 -39 -46 -72q-31 -30 -71 -46q-40 -15 -91 -16q-44 1 -86 10q-43 11 -82 31v22q45 -20 87 -32q42 -10 81 -11q45 0 82 14q36 15 63 43q27 30 41 66
q13 38 13 82q0 46 -14 80q-14 36 -44 61q-27 27 -66 40t-87 13q-26 0 -50 -3q-23 -2 -44 -8v299z" />
    <glyph glyph-name="six" unicode="6" 
d="M353 708q3 -4 13 -17q-123 -93 -195 -188q-71 -95 -89 -194q42 36 87 52q47 17 93 17t80 -13q36 -12 64 -39q27 -26 41 -62q15 -34 14 -79q1 -41 -14 -77q-13 -34 -43 -62q-27 -27 -63 -41q-35 -14 -80 -14q-48 1 -87 17q-38 16 -66 49q-27 34 -42 79t-15 102
q1 122 76 238q76 118 226 232zM76 238q0 -52 12 -95q12 -41 37 -71q26 -30 59 -46q34 -15 77 -15q39 0 70 12q32 12 56 36q25 26 37 56q12 33 12 70q0 41 -11 71q-10 32 -36 54q-23 24 -56 36q-32 12 -74 11q-17 1 -38 -2q-19 -3 -40 -9q-20 -4 -38 -15q-18 -9 -34 -25
q-16 -14 -25 -31q-8 -16 -8 -37z" />
    <glyph glyph-name="seven" unicode="7" 
d="M122 1q84 169 334 675h-420v22h457q-1 0 -89 -178q-86 -177 -262 -529z" />
    <glyph glyph-name="eight" unicode="8" 
d="M199 362q-29 10 -51 26t-38 39q-15 23 -24 50q-8 27 -8 55q0 38 12 68q14 32 39 56q27 27 58 39q33 13 69 13q38 0 70 -12q33 -12 57 -39q27 -24 39 -56q12 -31 12 -69q0 -28 -7 -55q-7 -25 -25 -49q-16 -22 -38 -39t-50 -27q32 -9 55 -25q25 -15 43 -40q18 -24 27 -52
q10 -27 10 -60q1 -43 -14 -77q-13 -34 -41 -63q-27 -27 -61 -41q-35 -12 -77 -13q-42 0 -76 14t-62 41q-26 28 -41 63q-14 36 -14 76q1 33 10 60q9 28 26 52q19 26 43 41q26 16 57 24zM102 532q0 -34 11 -64q11 -27 32 -51q23 -22 50 -34q28 -11 61 -11q34 0 61 11t49 33
q22 24 33 52q11 30 11 64t-11 62q-9 28 -32 49q-21 23 -50 33q-27 12 -62 11q-32 1 -59 -11q-26 -10 -50 -32q-20 -21 -32 -49q-12 -27 -12 -63zM88 185q0 -37 12 -70q12 -30 35 -56q24 -22 54 -36q31 -12 67 -12q38 0 68 12q30 13 53 35q25 26 35 57q12 31 12 70
q0 37 -11 67t-35 53q-22 23 -54 35q-30 12 -69 11q-36 1 -66 -11t-54 -35q-23 -23 -35 -53t-12 -67z" />
    <glyph glyph-name="nine" unicode="9" 
d="M159 -9q-3 4 -13 16q66 49 115 97q50 48 83 94q36 46 56 94q22 48 30 97q-40 -33 -86 -51q-44 -16 -94 -17q-44 1 -80 13q-36 14 -64 39q-26 27 -41 62q-14 36 -14 78q0 43 14 77q15 36 41 62q30 28 65 42q36 14 80 14q49 0 87 -17q39 -15 66 -50q30 -33 43 -78
q15 -45 14 -102q0 -123 -76 -241q-75 -118 -226 -229zM76 513q0 -37 12 -70q12 -31 36 -55q24 -22 56 -35q32 -12 71 -12q36 0 66 8q33 9 61 24q30 17 44 38q14 23 14 50q0 54 -12 94q-12 42 -37 72t-59 45q-33 15 -78 15q-36 0 -68 -12q-30 -10 -56 -36q-24 -24 -37 -56
q-13 -31 -13 -70z" />
    <glyph glyph-name="colon" unicode=":" horiz-adv-x="135" 
d="M49 77h37v-77h-37v77zM49 460h37v-77h-37v77z" />
    <glyph glyph-name="semicolon" unicode=";" horiz-adv-x="138" 
d="M30 -120v18q20 16 28 41q10 27 10 61h-19v77h40v-61t-15 -80q-14 -34 -44 -56zM49 460h37v-77h-37v77z" />
    <glyph glyph-name="less" unicode="&#x3c;" 
d="M41 337v16q108 51 430 202v-25q-100 -45 -402 -185q100 -47 402 -188v-25q-106 52 -430 205z" />
    <glyph glyph-name="equal" unicode="=" 
d="M41 472v21h430v-21h-430zM41 224v21h430v-21h-430z" />
    <glyph glyph-name="greater" unicode="&#x3e;" 
d="M41 132v25q102 47 402 185q-99 48 -402 188v25q108 -51 430 -205v-16q-106 -50 -430 -202z" />
    <glyph glyph-name="question" unicode="?" horiz-adv-x="273" 
d="M25 627q4 15 16 58q15 13 33 17q18 6 40 6q26 0 47 -9q21 -8 38 -26q17 -17 25 -44q8 -26 8 -60q0 -33 -15 -74t-50 -92v0q-3 -3 -8 -12q-4 -8 -7 -12q-2 -4 -5 -6q0 -2 -3 -6q-2 -3 -7 -11q-3 -6 -7 -10q-2 -4 -4 -7q0 -2 -3 -6q-2 -3 -5 -10q-2 -7 -5 -11q-1 -4 -3 -9
q0 -3 -3 -7q0 -4 -3 -10q0 -4 -2 -10q0 -4 -2 -10v-9q0 -4 -1 -10q1 -13 4 -27q4 -12 12 -23q-3 -3 -13 -12q-10 17 -16 32q-6 17 -6 35q0 6 1 11t1 11q2 8 2 11q2 6 2 10q3 6 3 10q3 6 5 12q3 8 5 12q3 5 3 8q2 5 5 9q3 6 8 12q4 9 7 13q2 5 4 7q2 3 5 7q3 5 8 13
q7 10 10 14q3 6 4 6q29 45 43 83q15 39 15 68q0 32 -6 53q-6 24 -21 37q-14 17 -31 23q-18 8 -39 7q-16 0 -29 -3q-11 -2 -20 -10q-7 -6 -16 -19q-6 -12 -14 -30h-10zM128 77v-77h-28v77h14h14z" />
    <glyph glyph-name="at" unicode="@" horiz-adv-x="880" 
d="M711 -36q3 -3 10 -13q-57 -45 -135 -68t-174 -23q-78 0 -144 27q-64 27 -117 80q-52 56 -79 131q-26 76 -26 172q0 93 29 171q30 78 88 141t133 95q76 33 166 32q82 1 148 -23q68 -21 119 -69q52 -45 78 -107q27 -62 27 -140q0 -66 -16 -121q-15 -53 -48 -98
q-32 -44 -72 -66q-39 -23 -89 -23q-36 0 -54 17q-18 18 -18 51q1 12 1 23q2 13 4 28q-24 -27 -47 -49q-21 -22 -44 -38q-21 -14 -45 -23q-22 -9 -46 -9q-30 0 -56 13q-24 13 -45 39q-19 27 -29 60q-10 36 -10 78q0 64 18 116q20 52 54 92q36 40 86 61q51 21 114 20
q32 1 65 -5q33 -4 65 -16q-20 -111 -60 -336q-2 -15 -4 -29q0 -12 -1 -24q0 -13 3 -22q2 -9 8 -16q6 -6 17 -9t25 -3q42 1 77 19q36 21 66 60q30 40 45 92q15 54 15 118q0 74 -24 132q-23 58 -74 101q-49 45 -113 66q-63 21 -141 21q-82 0 -154 -29q-69 -29 -127 -89
q-57 -58 -85 -134q-27 -75 -28 -168q1 -90 23 -161q24 -70 72 -124q48 -53 110 -80q64 -27 140 -27q94 0 169 22t130 64zM546 215q14 73 52 291q-21 9 -48 12q-27 4 -60 4q-56 0 -101 -18t-80 -57q-33 -35 -51 -85q-16 -48 -17 -109q0 -37 8 -70q9 -31 24 -55q18 -22 39 -35
q24 -12 49 -12q41 1 86 34q47 33 99 100z" />
    <glyph glyph-name="A" unicode="A" horiz-adv-x="644" 
d="M313 703h18q77 -175 308 -703h-26q-27 63 -108 249h-367q-26 -61 -107 -249h-26q77 177 308 703zM322 668q-44 -99 -175 -399h349q-44 101 -174 399z" />
    <glyph glyph-name="B" unicode="B" horiz-adv-x="518" 
d="M82 698h132q45 0 83 -9q39 -9 70 -32q33 -20 47 -53q16 -33 16 -78q0 -32 -8 -59t-27 -50q-16 -21 -43 -36q-24 -15 -57 -22q45 -1 81 -15q36 -12 60 -37q27 -23 39 -56q12 -32 12 -72q1 -39 -13 -72q-14 -30 -43 -57q-27 -24 -68 -37q-39 -13 -92 -13h-189v698zM104 677
v-310h94q105 0 156 39q52 39 52 115q0 79 -51 117q-51 39 -154 39h-97zM104 22h163q44 0 77 9q36 9 63 28q28 21 42 50q15 31 14 70q1 84 -55 124q-56 41 -166 41h-138v-322z" />
    <glyph glyph-name="C" unicode="C" horiz-adv-x="658" 
d="M402 708q57 0 113 -13q55 -12 109 -39v-29q-51 29 -108 43q-56 15 -118 15q-69 1 -129 -23q-57 -24 -103 -71q-45 -48 -67 -108q-23 -59 -23 -134q0 -74 22 -134q24 -59 68 -107q46 -46 104 -71q58 -24 128 -24q62 0 118 15q57 14 108 44v-30q-54 -24 -109 -38
q-56 -12 -113 -13q-76 1 -140 25q-62 26 -112 75q-50 51 -74 114t-25 138q0 81 24 146t72 116q51 53 113 77q64 26 142 26z" />
    <glyph glyph-name="D" unicode="D" horiz-adv-x="745" 
d="M82 0v698h239q83 0 149 -23q68 -23 119 -71q53 -46 79 -110q26 -62 26 -139q0 -81 -25 -146q-26 -63 -77 -113q-50 -46 -119 -72q-68 -24 -152 -24h-239zM104 23h224q76 1 136 22q63 23 109 68q49 45 73 102q24 58 24 127q0 78 -24 138q-22 62 -73 106q-47 46 -110 67
q-63 23 -139 23h-220v-653z" />
    <glyph glyph-name="E" unicode="E" horiz-adv-x="470" 
d="M82 698h349v-21h-327v-313h319v-23h-319v-319h335v-22h-357v698z" />
    <glyph glyph-name="F" unicode="F" horiz-adv-x="420" 
d="M82 698h328v-21h-306v-300h276v-22h-276v-355h-22v698z" />
    <glyph glyph-name="G" unicode="G" horiz-adv-x="702" 
d="M624 656v-29q-51 29 -108 43q-56 15 -118 15q-70 1 -127 -23q-57 -22 -104 -70q-45 -46 -68 -104t-23 -129q0 -79 22 -143q22 -62 67 -110q45 -45 106 -69q62 -24 138 -24q57 1 107 13q52 14 97 37v225h-159v21h182v-262q-48 -27 -107 -42q-57 -14 -123 -14
q-80 0 -144 24q-63 25 -114 75q-48 52 -72 116q-24 66 -25 145q0 79 24 142q25 64 73 114q50 51 113 76q65 25 141 25q57 0 113 -13q55 -12 109 -39z" />
    <glyph glyph-name="H" unicode="H" horiz-adv-x="707" 
d="M82 698h22v-332h498v332h23v-698h-23v343h-498v-343h-22v698z" />
    <glyph glyph-name="I" unicode="I" horiz-adv-x="186" 
d="M82 698h22v-698h-22v698z" />
    <glyph glyph-name="J" unicode="J" horiz-adv-x="186" 
d="M-56 -202q0 6 -2 22h6q4 0 8 -1q6 1 8 -1h5q29 0 50 9q21 10 35 30q15 21 21 51q7 33 7 75v715h22v-720q0 -90 -33 -136t-102 -46q-3 0 -9 1t-16 1z" />
    <glyph glyph-name="K" unicode="K" horiz-adv-x="489" 
d="M82 698h22v-348q84 87 334 348h30q-82 -86 -333 -347q91 -87 363 -351h-32q-90 88 -362 350v-350h-22v698z" />
    <glyph glyph-name="L" unicode="L" horiz-adv-x="477" 
d="M82 698h22v-675h361v-23h-383v698z" />
    <glyph glyph-name="M" unicode="M" horiz-adv-x="773" 
d="M82 0v698h24l280 -352q70 88 281 352h24v-698h-22v663h-4q-69 -87 -281 -351v0q-68 88 -275 351h-5v-663h-22z" />
    <glyph glyph-name="N" unicode="N" horiz-adv-x="762" 
d="M82 698h21q140 -165 554 -661v661h23v-698h-22q-138 166 -554 662v-662h-22v698z" />
    <glyph glyph-name="O" unicode="O" horiz-adv-x="806" 
d="M400 708q56 0 102 -12q48 -12 89 -39q42 -24 72 -57q31 -33 51 -73q21 -39 31 -82q10 -42 10 -90q1 -79 -25 -145q-24 -64 -76 -117q-50 -51 -113 -76q-63 -26 -140 -26q-75 0 -138 26q-63 27 -112 77q-49 52 -75 114q-24 62 -25 134q0 81 26 147q25 65 76 116
q51 53 112 77q63 26 135 26zM407 685q-72 0 -132 -24q-58 -23 -106 -71q-45 -48 -70 -108q-23 -60 -23 -133q0 -69 23 -130q24 -58 69 -108q48 -49 104 -73q58 -24 126 -25q74 0 134 24t106 74t69 108q23 59 23 128q0 75 -22 134q-22 60 -69 108q-45 48 -104 72
q-57 24 -128 24z" />
    <glyph glyph-name="P" unicode="P" horiz-adv-x="499" 
d="M82 698h167q51 0 91 -11t70 -35q30 -22 43 -56q15 -32 15 -77q0 -43 -15 -76q-13 -33 -43 -57q-30 -22 -71 -35q-42 -12 -96 -12h-139v-339h-22v698zM104 677v-317h143q46 0 82 10q36 9 62 29q27 21 39 50q14 31 13 70q1 40 -13 70q-12 31 -39 49q-26 20 -62 29
q-36 10 -82 10h-143z" />
    <glyph glyph-name="Q" unicode="Q" horiz-adv-x="806" 
d="M757 349q0 -72 -24 -135q-23 -62 -71 -114q-48 -50 -108 -78q-60 -27 -132 -30q54 -48 123 -76q70 -28 156 -40q-4 -6 -16 -20q-49 6 -91 17q-40 13 -76 29q-34 18 -67 40q-31 22 -64 50q-72 3 -132 29q-59 27 -107 77q-46 51 -71 114q-24 63 -24 137q1 77 25 140
q26 64 75 115q51 52 113 78q64 26 141 26t140 -25t111 -77q50 -50 74 -115q26 -63 25 -142zM732 349q0 72 -22 132t-69 108q-45 48 -105 72q-58 24 -130 24t-131 -24t-105 -72q-45 -48 -69 -108q-23 -60 -23 -132q0 -69 23 -130q25 -58 70 -108q48 -49 105 -73
q60 -24 130 -25q70 1 129 25t104 73q48 50 70 108q23 61 23 130z" />
    <glyph glyph-name="R" unicode="R" horiz-adv-x="561" 
d="M82 0v698h165q107 0 161 -43q54 -42 54 -129q0 -36 -11 -66q-11 -28 -33 -51q-22 -21 -52 -35t-71 -19q19 -5 34 -13q17 -8 26 -18q12 -10 24 -26q12 -15 24 -36q56 -86 164 -262h-27q-38 60 -150 241q-18 31 -38 52q-18 21 -38 32q-18 11 -43 17q-23 6 -55 5h-112v-347
h-22zM104 370h92q60 0 104 8q46 10 76 25q32 19 46 49q15 30 15 73q1 45 -13 74q-12 30 -40 45q-26 18 -65 25q-39 9 -90 8h-125v-307z" />
    <glyph glyph-name="S" unicode="S" horiz-adv-x="429" 
d="M227 708q40 0 76 -9t68 -26v-27q-35 21 -71 30q-36 10 -72 10t-66 -10q-30 -9 -53 -31q-22 -21 -36 -47q-12 -27 -12 -60q0 -28 8 -52q9 -24 23 -44q16 -20 47 -38t79 -36q52 -18 85 -39q35 -20 53 -42q21 -21 30 -51q9 -28 9 -66q0 -40 -12 -73q-13 -31 -40 -57
q-25 -24 -61 -37q-34 -12 -78 -12q-45 1 -87 13q-40 14 -78 40v27q41 -29 83 -44t83 -15q37 0 67 11q30 10 53 31q24 22 34 51q12 29 12 65q0 32 -9 58q-8 26 -25 43q-16 21 -49 38q-30 18 -78 36q-48 20 -81 38q-33 20 -53 41q-18 22 -29 50q-9 28 -10 64q1 36 13 67
q14 32 40 54q28 25 62 37t75 12z" />
    <glyph glyph-name="T" unicode="T" horiz-adv-x="571" 
d="M12 698h547v-21h-262v-677h-23v677h-262v21z" />
    <glyph glyph-name="U" unicode="U" horiz-adv-x="700" 
d="M74 698h22v-399q0 -60 17 -111q16 -51 49 -93q34 -41 80 -62t106 -21q63 0 109 21q48 21 81 61q34 42 50 93t16 112v399h23v-400q0 -64 -18 -120q-16 -54 -54 -99q-35 -44 -86 -66q-49 -21 -115 -22q-66 1 -119 22q-51 23 -89 65q-36 44 -54 100t-18 123v397z" />
    <glyph glyph-name="V" unicode="V" horiz-adv-x="596" 
d="M297 -15q-73 179 -292 713h25q68 -164 269 -658q67 166 268 658h24q-72 -177 -294 -713v0z" />
    <glyph glyph-name="W" unicode="W" horiz-adv-x="1049" 
d="M280 -7q-69 177 -276 705h25q63 -160 252 -647q59 163 239 647h7q63 -159 250 -641q61 161 241 641h26q-66 -176 -265 -705h-4q-63 163 -251 652q-60 -163 -244 -652v0z" />
    <glyph glyph-name="X" unicode="X" horiz-adv-x="670" 
d="M20 698h28q72 -81 288 -325q72 81 289 325h28q-75 -84 -304 -341q81 -89 318 -357h-28q-75 87 -303 342q-76 -84 -304 -342h-29q81 90 319 358q-76 86 -302 340z" />
    <glyph glyph-name="Y" unicode="Y" horiz-adv-x="566" 
d="M4 698h27q63 -74 253 -299q64 75 253 299h25q-66 -78 -267 -317v-381h-23v381q-66 80 -268 317z" />
    <glyph glyph-name="Z" unicode="Z" horiz-adv-x="612" 
d="M5 0v9q139 167 551 668h-539v21h573v-14q-136 -166 -547 -662h563v-22h-601z" />
    <glyph glyph-name="bracketleft" unicode="[" horiz-adv-x="281" 
d="M71 698h202v-20h-182v-883h182v-20h-202v923z" />
    <glyph glyph-name="backslash" unicode="\" horiz-adv-x="253" 
d="M6 708h17q57 -180 224 -717h-17q-56 180 -224 717z" />
    <glyph glyph-name="bracketright" unicode="]" horiz-adv-x="281" 
d="M7 698h203v-923h-203v20h182v883h-182v20z" />
    <glyph glyph-name="asciicircum" unicode="^" 
d="M41 439q55 68 215 266q9 -11 36 -45q45 -54 179 -221q-3 -3 -16 -12q-49 63 -199 247q-50 -62 -199 -247q-3 3 -16 12z" />
    <glyph glyph-name="underscore" unicode="_" 
d="M-5 -93h522v-21h-522v21z" />
    <glyph glyph-name="quoteleft" unicode="`" horiz-adv-x="174" 
d="M126 698v-17q-18 -15 -28 -41t-10 -61h18v-77h-39v60q0 48 15 81q16 34 44 55z" />
    <glyph glyph-name="quoteleft" unicode="&#x2018;" horiz-adv-x="174" 
d="M126 698v-17q-18 -15 -28 -41t-10 -61h18v-77h-39v60q0 48 15 81q16 34 44 55z" />
    <glyph glyph-name="a" unicode="a" horiz-adv-x="420" 
d="M205 469q34 1 58 -8q24 -7 39 -25q15 -16 23 -42q7 -26 7 -61v-306q0 -8 2 -12q2 -3 5 -4q9 0 25 12q18 11 44 32v-20q-26 -21 -46 -33q-18 -10 -29 -11q-6 1 -10 1q-3 3 -7 6q-2 6 -3 12q-2 8 -2 18v38q-37 -36 -76 -56q-38 -18 -78 -19q-29 1 -53 7q-22 9 -39 24
q-17 16 -26 36q-8 22 -8 46q0 38 18 66q19 30 55 51q38 24 89 36q52 12 118 14v61q1 30 -5 53q-6 22 -18 36q-12 15 -34 21q-21 8 -51 8q-37 0 -73 -15t-74 -44v24q36 27 72 41q38 14 77 13zM52 104q0 -20 7 -38q7 -16 21 -30q14 -12 34 -19t43 -7q39 0 77 20q39 20 77 58
v165q-57 -1 -103 -11q-45 -9 -83 -30q-36 -20 -54 -47q-19 -27 -19 -61z" />
    <glyph glyph-name="b" unicode="b" horiz-adv-x="502" 
d="M461 243q0 -56 -16 -101q-15 -45 -48 -81q-31 -35 -73 -53q-42 -16 -93 -17q-35 0 -77 8q-40 9 -84 25v674h20v-313q36 42 80 63t95 21q46 0 82 -16q35 -17 62 -50q27 -32 39 -72q14 -40 13 -88zM90 359v-320q36 -13 71 -21q36 -8 70 -8q47 0 85 17q39 17 66 49
q30 34 43 74q15 42 14 93q1 45 -11 82q-10 38 -36 66q-24 30 -56 45t-73 15q-24 1 -48 -5q-21 -4 -42 -16q-19 -10 -40 -28q-21 -16 -43 -43z" />
    <glyph glyph-name="c" unicode="c" horiz-adv-x="403" 
d="M268 469q30 1 57 -5q30 -4 58 -14v-22q-27 12 -57 16q-28 6 -58 6q-44 0 -82 -16q-36 -14 -66 -46q-28 -30 -43 -70q-15 -38 -15 -88q0 -48 15 -88t44 -70q30 -30 66 -46q37 -16 81 -16q30 0 58 6q30 6 57 16v-22q-28 -8 -58 -14q-27 -4 -57 -5q-48 1 -88 16
q-40 16 -74 49q-32 34 -48 77q-16 44 -17 95q1 54 16 98q17 44 47 76q34 34 74 51q40 16 90 16z" />
    <glyph glyph-name="d" unicode="d" horiz-adv-x="502" 
d="M432 0h-165q-48 0 -90 16q-39 16 -73 49q-30 33 -47 75q-15 42 -16 93q0 54 15 96t45 74q31 33 70 50q39 16 86 16q41 0 79 -12q40 -13 76 -37v278h20v-698zM412 19v377q-36 28 -76 41q-38 15 -80 14q-42 0 -78 -15q-34 -14 -62 -46q-26 -30 -40 -69t-14 -88
q0 -47 15 -86q15 -38 43 -68q30 -29 66 -44q38 -15 81 -16h145z" />
    <glyph glyph-name="e" unicode="e" horiz-adv-x="462" 
d="M422 67v-23q-36 -26 -78 -40q-39 -12 -84 -13q-48 1 -88 17q-39 16 -71 49q-30 35 -45 77t-15 94q1 54 13 96q14 44 41 77q28 35 64 51q37 18 79 17q42 1 75 -13t58 -41q24 -27 39 -66q14 -39 17 -92h-364q0 1 0 -3v0q1 -2 1 -3t-1 -4v-5q-1 -3 -1 -6q0 -51 14 -93
q14 -41 41 -71t63 -46t80 -16q46 0 85 15q41 15 77 42zM66 275h338q-10 88 -53 132q-42 45 -114 44q-33 0 -61 -12q-28 -10 -52 -36q-24 -22 -38 -55t-20 -73z" />
    <glyph glyph-name="f" unicode="f" horiz-adv-x="262" 
d="M243 708q19 0 37 -4q18 -2 33 -10v-21q-17 8 -35 11q-18 4 -35 4q-63 0 -95 -39q-30 -37 -31 -117v-72h130v-19h-130v-441h-21v441h-74v19h74v75q0 41 10 73q10 33 28 55q20 24 46 34q27 11 63 11z" />
    <glyph glyph-name="g" unicode="g" horiz-adv-x="414" 
d="M401 460v-18h-127q22 -6 38 -20q16 -12 28 -32q12 -18 18 -39t6 -46q0 -27 -9 -51t-27 -48q-18 -22 -46 -39q-28 -15 -67 -23q-33 -6 -57 -13q-22 -7 -35 -16q-11 -7 -19 -19q-6 -9 -6 -23q0 -9 2 -17t4 -14q4 -4 10 -9q6 -3 15 -7l18 -4q9 0 18 -3q9 1 22 -2q15 0 32 -3
q20 0 35 -3q18 -1 32 -4q60 -9 90 -38q32 -29 31 -77q1 -28 -13 -52q-12 -22 -40 -41q-26 -17 -62 -26q-34 -9 -80 -9q-45 0 -81 8q-34 9 -61 24q-26 18 -39 40t-13 50q0 24 9 43t23 34q16 15 39 26q24 11 52 15q-31 6 -49 22q-16 16 -16 43q0 33 23 52q25 21 70 30
q-27 6 -50 18q-21 13 -39 34q-16 21 -25 46q-8 26 -8 53q0 36 12 64t34 50q25 22 55 33t67 11h186zM69 302q0 -28 9 -53q9 -22 27 -43q21 -18 44 -29q25 -9 55 -10q30 0 54 9q24 10 44 30q21 20 30 44q10 26 10 54q0 30 -9 55t-28 43q-17 21 -43 30q-24 9 -53 9t-55 -9
q-24 -8 -45 -29q-20 -17 -30 -43q-9 -26 -10 -58zM40 -114q0 -24 11 -43q12 -19 33 -33q22 -14 54 -20t74 -7q42 1 72 7q33 8 55 22q23 15 35 35q12 21 11 45q0 51 -42 77q-41 25 -125 25q-88 0 -134 -27q-44 -27 -44 -81z" />
    <glyph glyph-name="h" unicode="h" horiz-adv-x="489" 
d="M263 469q42 0 72 -12q30 -11 50 -38q21 -26 30 -59q10 -33 10 -73v-287h-21v284q0 38 -8 68t-26 52q-16 24 -44 35q-27 11 -63 11q-53 0 -97 -29q-42 -27 -76 -85v-336h-20v698h20v-330q15 24 33 41q20 20 42 32q23 15 47 21q26 8 51 7z" />
    <glyph glyph-name="i" unicode="i" horiz-adv-x="160" 
d="M70 0v460h20v-460h-20zM70 635h20v-86h-20v86z" />
    <glyph glyph-name="j" unicode="j" horiz-adv-x="160" 
d="M-31 -218q27 3 46 15q21 12 31 32q12 21 18 50t6 68v513h20v-514q0 -86 -29 -131q-28 -45 -88 -51q-1 6 -4 18zM70 635h20v-86h-20v86z" />
    <glyph glyph-name="k" unicode="k" horiz-adv-x="380" 
d="M70 0v698h20v-449q62 53 245 211h27q-63 -54 -253 -218q73 -60 291 -242h-29q-69 58 -281 233v-233h-20z" />
    <glyph glyph-name="l" unicode="l" horiz-adv-x="160" 
d="M70 698h20v-698h-20v698z" />
    <glyph glyph-name="m" unicode="m" horiz-adv-x="777" 
d="M260 469q28 1 50 -7q24 -6 40 -23q20 -14 30 -36q12 -21 16 -49q38 58 79 86q44 30 90 29q75 0 111 -46q38 -45 37 -137v-286h-21v279q0 87 -32 128q-32 43 -97 43q-47 0 -87 -30q-40 -28 -75 -88v-332h-20v299q1 75 -31 113q-30 38 -93 38q-51 0 -92 -29
q-42 -27 -75 -85v-336h-20v460h20v-92q15 24 33 41q20 20 42 32q23 15 47 21q24 8 48 7z" />
    <glyph glyph-name="n" unicode="n" horiz-adv-x="489" 
d="M263 469q42 0 72 -12t50 -38q21 -25 30 -58q10 -33 10 -76v-285h-21v278q0 40 -8 70q-8 32 -26 54q-16 24 -44 36q-27 12 -63 12q-52 0 -96 -29q-43 -27 -77 -85v-336h-20v460h20v-92q16 24 34 41q20 17 42 31q24 16 48 22q26 8 49 7z" />
    <glyph glyph-name="o" unicode="o" horiz-adv-x="535" 
d="M266 451q-42 0 -78 -15q-36 -14 -66 -47q-28 -31 -44 -71q-16 -38 -16 -89q0 -47 15 -87q15 -38 43 -70q30 -30 66 -47q38 -15 81 -16q46 1 82 16q38 15 66 47q29 32 43 71q14 41 14 86q0 47 -14 86q-12 39 -42 71q-28 33 -66 48q-38 18 -84 17zM267 469q50 1 90 -17
q40 -16 72 -52q33 -33 48 -77q17 -43 17 -94q0 -49 -16 -93q-15 -42 -48 -77q-32 -33 -73 -51q-40 -16 -90 -17q-49 1 -89 16q-40 17 -73 50q-32 34 -48 76q-15 42 -16 92q1 54 16 98q17 45 47 77q34 36 73 52q42 18 90 17z" />
    <glyph glyph-name="p" unicode="p" horiz-adv-x="519" 
d="M249 -9q-42 1 -82 11q-39 12 -77 35v-273h-20v696h179q51 0 93 -16q42 -14 73 -47q33 -30 48 -72q15 -40 15 -94q0 -51 -16 -94q-15 -42 -48 -78q-32 -33 -74 -51q-40 -16 -91 -17zM90 440v-384q40 -22 79 -34t79 -12q48 0 85 15q39 15 66 46q30 31 44 71q15 40 14 89
q1 51 -14 87q-14 39 -44 66q-28 28 -67 42q-36 14 -84 14h-158z" />
    <glyph glyph-name="q" unicode="q" horiz-adv-x="519" 
d="M450 460v-696h-21v273q-37 -23 -81 -35q-44 -10 -92 -11q-48 1 -87 16q-39 16 -69 46q-28 33 -44 73q-15 42 -15 94q1 56 16 99q16 43 46 75q33 34 73 50q42 16 92 16h182zM62 220q0 -48 13 -87q13 -38 39 -66q26 -27 62 -42t81 -15q49 0 91 12q44 12 81 34v384h-160
q-45 0 -83 -14q-36 -14 -66 -44q-28 -28 -43 -69t-15 -93z" />
    <glyph glyph-name="r" unicode="r" horiz-adv-x="345" 
d="M289 466v-21q-9 3 -20 4q-10 1 -22 1q-25 0 -46 -7q-21 -6 -40 -21q-18 -14 -38 -39q-18 -26 -39 -62v-321h-21v460h21v-111q32 60 72 90q42 30 93 30q11 1 20 -1q11 0 20 -2z" />
    <glyph glyph-name="s" unicode="s" horiz-adv-x="337" 
d="M41 352q0 28 9 49t27 36q19 16 43 24q26 9 56 8q28 1 55 -8q27 -8 54 -24v-22q-27 18 -56 27q-27 9 -56 9q-26 1 -47 -7q-20 -6 -35 -19q-13 -11 -21 -31q-8 -18 -8 -41q0 -19 7 -35q7 -14 19 -28q14 -12 37 -25q24 -12 57 -26q34 -12 58 -26q24 -13 35 -28
q15 -12 20 -32q6 -17 6 -41q0 -26 -9 -49q-8 -21 -29 -38q-18 -17 -44 -26q-24 -8 -54 -8q-33 0 -65 9t-61 27v22q33 -19 64 -29q32 -10 62 -10q27 0 47 7q21 7 36 21q16 14 24 32q8 20 8 42q0 21 -6 36q-6 16 -20 28q-12 12 -37 25q-23 12 -57 24q-32 14 -56 26
q-22 13 -36 27q-12 15 -20 33q-6 19 -7 41z" />
    <glyph glyph-name="t" unicode="t" horiz-adv-x="281" 
d="M273 31v-21q-18 -8 -38 -14q-18 -4 -38 -5q-45 1 -70 25q-23 26 -23 74v351h-110v19h110v131h21v-131h133v-19h-133v-344q1 -21 4 -38q4 -17 12 -27q11 -10 23 -16q15 -6 33 -6t36 5q19 7 40 16z" />
    <glyph glyph-name="u" unicode="u" horiz-adv-x="489" 
d="M65 460h20v-278q0 -38 9 -69q10 -32 26 -56q18 -23 44 -35q28 -12 62 -12q54 0 97 29q43 28 76 85v336h21v-460h-21v92q-12 -22 -33 -40q-18 -18 -42 -33q-22 -12 -48 -21q-24 -6 -50 -7q-40 1 -71 13q-30 12 -51 37q-20 26 -30 59q-9 34 -9 75v285z" />
    <glyph glyph-name="v" unicode="v" horiz-adv-x="403" 
d="M2 460h23q45 -108 178 -436q45 110 176 436h22q-47 -118 -193 -474h-10q-48 118 -196 474z" />
    <glyph glyph-name="w" unicode="w" horiz-adv-x="734" 
d="M198 -9q-48 117 -196 469h23q45 -105 177 -425q40 107 160 425h10q40 -105 160 -425q46 107 178 425h22q-48 -117 -195 -469h-9q-39 106 -161 426q-41 -106 -161 -426h-8z" />
    <glyph glyph-name="x" unicode="x" horiz-adv-x="467" 
d="M13 460h28q48 -52 192 -213q49 54 196 213h26q-53 -57 -209 -228q52 -58 211 -232h-28q-49 54 -197 217q-48 -53 -196 -217h-26q52 58 209 231q-51 58 -206 229z" />
    <glyph glyph-name="y" unicode="y" horiz-adv-x="419" 
d="M5 460h23q45 -88 183 -357q45 90 181 357h22q-88 -174 -354 -696h-21q40 81 162 319q-49 95 -196 377z" />
    <glyph glyph-name="z" unicode="z" horiz-adv-x="392" 
d="M25 460h347v-8q-82 -108 -326 -434h336v-18h-367v9l324 432h-314v19z" />
    <glyph glyph-name="braceleft" unicode="{" horiz-adv-x="304" 
d="M304 698v-19q-30 1 -52 -7t-34 -24q-12 -15 -18 -43q-6 -27 -6 -66v-151q0 -33 -5 -59q-4 -26 -16 -44q-10 -17 -28 -31q-17 -12 -44 -23q47 -13 69 -52q24 -39 24 -104v-156q0 -39 6 -65t18 -41q12 -13 34 -22q22 -7 52 -7v-20q-34 0 -61 9q-25 9 -40 25q-15 18 -22 48
q-8 30 -8 74v154q1 34 -5 59q-4 25 -17 43q-11 20 -32 30q-20 12 -47 15v21q30 6 49 17q21 13 31 29q10 18 16 43t5 58v149q0 45 8 75q8 31 23 49q16 18 40 27q27 9 60 9z" />
    <glyph glyph-name="bar" unicode="|" horiz-adv-x="178" 
d="M79 698h20v-934h-20v934z" />
    <glyph glyph-name="braceright" unicode="}" horiz-adv-x="304" 
d="M0 679v19q38 0 62 -9q26 -9 39 -29q17 -18 23 -49q8 -31 7 -73v-149q1 -33 5 -58q6 -25 17 -43q10 -16 30 -29q21 -11 49 -17v-21q-26 -3 -46 -15q-18 -9 -31 -29q-12 -17 -18 -44q-6 -25 -6 -59v-154q0 -42 -6 -72q-7 -28 -22 -48q-12 -16 -39 -26q-26 -10 -64 -10v20
q32 0 52 7q22 9 34 22q12 15 18 41q8 27 7 65v156q1 65 23 104q24 39 69 52q-24 10 -42 22q-17 13 -29 31q-10 18 -16 44q-4 27 -5 60v151q1 39 -7 66q-6 27 -18 42q-12 16 -34 24q-20 9 -52 8z" />
    <glyph glyph-name="asciitilde" unicode="~" 
d="M41 330v23q29 30 56 45q29 15 59 15q18 0 42 -10q26 -9 59 -30q35 -20 59 -30q27 -9 42 -10q16 0 30 3q15 3 27 11q13 9 27 20q14 13 29 28v-22q-27 -30 -57 -45q-27 -16 -57 -16q-16 0 -43 10q-24 10 -59 30q-33 21 -59 30q-24 10 -40 10q-15 0 -30 -3q-14 -3 -27 -11
q-12 -6 -27 -19q-14 -11 -31 -29z" />
    <glyph glyph-name="nonbreakingspace" unicode="&#xa0;" horiz-adv-x="285" 
 />
    <glyph glyph-name="exclamdown" unicode="&#xa1;" horiz-adv-x="162" 
d="M91 263v-502h-20v502h20zM95 383h-4h-24v77h28v-77z" />
    <glyph glyph-name="cent" unicode="&#xa2;" 
d="M103 -194q19 54 75 213q-56 32 -84 84q-28 53 -28 127q0 54 16 97q16 42 48 75q33 34 73 51q41 16 89 16q12 1 22 -1q12 0 22 -2q22 63 66 187h21q-17 -50 -35 -98q-16 -47 -33 -92q17 -3 29 -6q14 -3 24 -7v-22q-18 8 -33 11q-15 5 -26 5q-48 -138 -146 -414
q20 -9 41 -15q24 -5 49 -5q30 0 58 6q29 6 57 16v-22q-30 -8 -58 -14q-28 -4 -57 -5q-27 1 -51 5q-24 6 -46 14l-72 -204h-21zM185 39q37 102 145 408q-4 3 -15 2q-9 1 -23 1q-44 0 -82 -15q-36 -15 -66 -47q-27 -30 -42 -70t-15 -88q0 -32 6 -60q8 -28 20 -54
q13 -24 31 -44q18 -18 41 -33z" />
    <glyph glyph-name="sterling" unicode="&#xa3;" 
d="M401 327h-264q6 -32 9 -62q4 -29 4 -57q0 -24 -5 -51q-3 -26 -14 -53q-9 -26 -23 -47t-31 -38q23 11 47 14q24 4 51 4q19 0 43 -3q26 -3 55 -9q33 -7 55 -10q24 -3 38 -4q30 0 55 6q25 7 46 17v-21q-21 -9 -47 -16q-24 -6 -54 -6q-14 0 -38 3q-22 3 -55 9q-29 7 -55 10
q-24 3 -43 3q-27 0 -60 -6t-72 -19v20q44 35 65 83q21 50 21 114q0 28 -3 57q-3 30 -9 62h-77v20h73q0 6 -3 15q-2 12 -7 28q-3 18 -6 30t-5 19q0 9 -3 19q0 10 -3 23q-2 15 -2 27t-1 23q1 41 13 71q14 32 37 56q26 26 59 37q34 13 76 13q46 0 85 -11q41 -11 77 -32v-24
q-38 25 -80 35q-40 12 -82 12q-38 0 -68 -10t-53 -32q-21 -20 -32 -50q-12 -27 -12 -65q1 -9 1 -21q2 -12 2 -25q2 -11 4 -23q2 -10 3 -20q3 -9 5 -21q3 -11 6 -27q4 -15 6 -27q4 -11 4 -20h267v-20z" />
    <glyph glyph-name="currency" unicode="&#xa4;" horiz-adv-x="549" 
d="M49 133q17 17 68 67q-28 30 -43 67t-15 81q0 46 15 82q15 38 43 68q-23 22 -68 67l16 16q16 -17 66 -68q33 28 68 42q38 15 80 14q45 1 82 -14q39 -14 68 -42l68 68q3 -3 15 -16q-16 -16 -68 -67q30 -30 43 -69q15 -36 14 -81q1 -42 -14 -80q-13 -36 -43 -68
q24 -22 68 -67l-15 -15q-17 18 -68 67q-28 -27 -67 -43q-36 -14 -83 -14q-42 0 -80 14q-36 16 -68 43q-21 -21 -66 -67q-3 4 -16 15zM280 150q44 0 78 14q36 16 64 44q30 30 44 65q14 36 14 76q0 43 -14 77q-14 36 -44 64q-28 30 -65 44q-34 15 -78 15q-39 0 -75 -15
q-36 -14 -65 -44q-29 -28 -44 -64q-14 -34 -14 -77q0 -41 14 -77q15 -34 43 -64q30 -28 65 -44q35 -14 77 -14z" />
    <glyph glyph-name="yen" unicode="&#xa5;" 
d="M245 272v103h-218v20h205q-56 77 -225 303h26q57 -75 223 -300q57 75 222 300h25q-55 -75 -223 -303h203v-20h-216v-103h216v-20h-216v-252h-22v252h-218v20h218z" />
    <glyph glyph-name="brokenbar" unicode="&#xa6;" horiz-adv-x="178" 
d="M79 698h20v-383h-20v383zM79 147h20v-383h-20v383z" />
    <glyph glyph-name="section" unicode="&#xa7;" horiz-adv-x="416" 
d="M319 671v-27q-19 22 -49 32q-30 12 -68 11q-24 1 -44 -7q-20 -6 -35 -22q-15 -12 -23 -32q-8 -18 -8 -42q0 -26 7 -49q8 -21 23 -42q16 -20 37 -41q24 -20 52 -44q3 -2 7 -5t8 -8q18 -14 31 -24q13 -9 22 -19q9 -6 18 -18q10 -10 22 -25q13 -13 21 -28q10 -13 14 -28
q6 -14 9 -30q3 -15 3 -33q0 -42 -22 -84q-21 -40 -66 -80q30 -30 44 -64q15 -32 15 -67q0 -30 -10 -54q-9 -24 -30 -42q-19 -17 -45 -26t-57 -9q-41 0 -74 12q-30 12 -54 35v26q25 -25 57 -39t71 -14q27 0 48 7q21 9 38 23q16 15 25 35q8 21 8 46q0 27 -7 49q-8 24 -24 43
q-15 21 -39 43q-22 24 -54 48q-3 4 -9 8q-6 6 -16 12q-9 10 -16 14q-6 6 -10 8q-3 4 -8 8q-6 6 -15 12q-9 8 -15 14l-10 10q-3 4 -8 10q-3 6 -11 12q-6 8 -11 14t-8 11l-6 12q-2 7 -6 13q-3 8 -5 14t-4 13q-2 9 -3 15v15q1 45 25 85q26 40 74 75q-28 33 -44 64
q-14 33 -14 67q0 28 8 50q9 22 27 39q19 17 43 26q26 9 54 9q36 0 65 -10q30 -9 52 -27zM142 438q-22 -16 -38 -34q-16 -15 -29 -33q-12 -15 -18 -36q-6 -18 -6 -42q0 -23 8 -45q9 -21 23 -42q16 -20 40 -43l56 -49q34 -26 55 -45q21 -18 32 -30q22 21 37 38q15 20 24 36
q10 17 13 37q4 20 4 40q1 21 -5 39q-6 19 -16 37q-10 20 -22 34q-10 16 -25 26q-11 12 -29 25q-16 15 -39 32q-21 18 -38 32q-15 15 -27 23z" />
    <glyph glyph-name="dieresis" unicode="&#xa8;" horiz-adv-x="234" 
d="M35 635h26v-86h-26v86zM173 635h27v-86h-27v86z" />
    <glyph glyph-name="copyright" unicode="&#xa9;" horiz-adv-x="809" 
d="M763 348q1 -74 -26 -137q-24 -63 -78 -116q-51 -51 -115 -78q-62 -26 -137 -26q-74 0 -137 26q-63 27 -117 78q-53 53 -80 116t-27 137q0 75 27 138q27 64 79 116q54 54 116 79q64 27 138 27t137 -26t115 -79q54 -51 79 -116q27 -63 26 -139zM407 9q69 1 129 25
q60 26 108 75q50 49 74 109t24 130q0 72 -24 131q-24 60 -74 110q-48 51 -109 75q-60 26 -129 25q-69 1 -129 -25q-59 -24 -110 -75q-49 -50 -75 -110q-24 -59 -25 -131q0 -70 24 -130q25 -60 75 -109q51 -49 111 -75q61 -24 130 -25zM548 196v-25q-30 -15 -64 -22
q-32 -8 -70 -8q-46 0 -85 15q-37 16 -67 45q-28 31 -43 67q-14 38 -14 83q0 48 14 86q15 39 43 68q30 29 68 44q39 15 87 14q34 1 66 -7q33 -8 65 -24v-25q-28 18 -62 27q-32 9 -69 9q-45 1 -79 -13q-34 -12 -60 -40q-24 -26 -38 -60q-12 -34 -13 -78q1 -42 13 -77
q12 -34 39 -61q27 -26 59 -39q34 -13 76 -13q39 0 72 8q34 10 62 26z" />
    <glyph glyph-name="ordfeminine" unicode="&#xaa;" horiz-adv-x="301" 
d="M47 656v21q24 15 48 23q25 8 52 8t43 -7q18 -5 26 -19q10 -12 15 -31q5 -18 5 -45v-152q0 -8 2 -12q3 -4 7 -5q7 0 19 9q12 10 29 26v-19q-15 -17 -28 -26q-13 -8 -23 -8q-12 0 -19 9q-7 10 -7 28q-20 -18 -44 -28q-24 -9 -53 -9q-20 1 -36 4q-15 5 -29 14q-10 10 -17 24
q-6 15 -6 31q1 46 46 71q46 26 138 30v13q0 24 -3 40t-12 25q-8 9 -21 14q-12 4 -32 4q-26 1 -50 -8q-24 -7 -50 -25zM215 473v104q-81 -3 -123 -25q-40 -20 -41 -58q0 -28 18 -43t51 -15q26 0 49 9q25 10 46 28z" />
    <glyph glyph-name="guillemotleft" unicode="&#xab;" horiz-adv-x="463" 
d="M215 466h26q-47 -57 -193 -229q48 -57 193 -230h-26q-47 59 -193 230q48 57 193 229zM421 466h25q-48 -57 -192 -229q48 -57 192 -230h-25q-48 59 -194 230q50 57 194 229z" />
    <glyph glyph-name="logicalnot" unicode="&#xac;" 
d="M41 472v21h420v-269h-21v248h-399z" />
    <glyph glyph-name="sfthyphen" unicode="&#xad;" horiz-adv-x="321" 
d="M39 247h243v-19h-243v19z" />
    <glyph glyph-name="registered" unicode="&#xae;" horiz-adv-x="809" 
d="M763 348q1 -74 -26 -137q-24 -63 -78 -116q-51 -51 -115 -78q-62 -26 -137 -26q-74 0 -137 26q-63 27 -117 78q-53 53 -80 116t-27 137q0 75 27 138q27 64 79 116q54 54 116 79q64 27 138 27t137 -26t115 -79q54 -51 79 -116q27 -63 26 -139zM407 9q69 1 129 25
q60 26 108 75q50 49 74 109t24 130q0 72 -24 131q-24 60 -74 110q-48 51 -109 75q-60 26 -129 25q-69 1 -129 -25q-59 -24 -110 -75q-49 -50 -75 -110q-24 -59 -25 -131q0 -70 24 -130q25 -60 75 -109q51 -49 111 -75q61 -24 130 -25zM283 153v400h115q70 1 104 -26
q36 -27 35 -80q1 -19 -7 -37q-6 -16 -21 -32q-13 -15 -34 -24q-19 -8 -46 -11q22 -6 40 -21q20 -14 35 -37q32 -44 93 -132h-25q-22 31 -88 123q-12 18 -24 30q-10 12 -24 18q-12 6 -28 9t-37 3h-68v-183h-20zM303 354h85q30 0 53 6q24 8 40 19q17 12 26 30q9 17 8 38
q1 24 -7 39q-6 16 -22 27q-12 12 -37 16q-23 6 -56 6h-90v-181z" />
    <glyph glyph-name="macron" unicode="&#xaf;" horiz-adv-x="341" 
d="M54 622h233v-21h-233v21z" />
    <glyph glyph-name="degree" unicode="&#xb0;" horiz-adv-x="410" 
d="M62 564q0 30 11 54q11 26 31 47q22 21 47 32q26 11 54 11q30 0 54 -11q25 -9 46 -31q23 -20 32 -46q11 -26 11 -56q0 -28 -10 -54q-10 -24 -32 -46q-20 -21 -47 -31q-24 -11 -54 -11q-28 0 -54 10q-25 10 -47 31q-20 21 -31 47t-11 54zM205 442q26 0 47 9q21 11 39 27
q18 20 27 40q9 22 9 46q0 26 -9 47t-27 39q-18 20 -39 28q-21 9 -47 9q-25 0 -46 -9q-21 -8 -40 -27q-18 -18 -27 -40q-9 -21 -9 -47q0 -24 9 -46q8 -20 26 -40q18 -16 40 -27q21 -9 47 -9z" />
    <glyph glyph-name="plusminus" unicode="&#xb1;" 
d="M41 359v21h205v207h20v-207h205v-21h-205v-206h-20v206h-205zM41 61v21h205h225v-21h-430z" />
    <glyph glyph-name="twosuperior" unicode="&#xb2;" horiz-adv-x="324" 
d="M43 504v0q65 58 107 100q44 42 61 65q19 25 28 49q10 26 10 50q1 20 -7 35q-6 15 -20 26q-12 14 -30 18q-18 6 -39 6q-25 0 -51 -9q-24 -8 -51 -28v24q23 18 49 25t53 7t49 -7q22 -6 38 -21q18 -14 24 -33q8 -19 8 -43q0 -26 -8 -50q-6 -24 -24 -46q-16 -21 -53 -59
t-94 -92h198v-19h-248v2z" />
    <glyph glyph-name="threesuperior" unicode="&#xb3;" horiz-adv-x="324" 
d="M54 516v22q27 -10 49 -17q25 -6 47 -6q24 0 41 6q18 5 32 17q15 12 21 27q8 16 7 34q1 21 -7 36q-8 17 -24 27q-15 12 -37 17q-21 5 -50 5v18q27 0 47 5q21 6 36 16q15 11 23 25q9 15 8 33q0 17 -6 29q-5 14 -20 23q-12 11 -30 15q-17 6 -38 5q-25 0 -49 -6
q-24 -5 -46 -19v21q21 12 45 18q25 5 52 5q24 0 45 -5t37 -20q16 -13 24 -29q9 -16 8 -37q0 -13 -4 -27q-3 -12 -14 -25q-9 -11 -22 -21q-13 -9 -29 -15q38 -10 56 -34t18 -60q0 -22 -8 -42q-8 -18 -25 -33q-16 -14 -40 -21q-23 -7 -51 -7q-26 0 -50 5q-24 6 -46 15z" />
    <glyph glyph-name="acute" unicode="&#xb4;" horiz-adv-x="301" 
d="M282 693h24q-32 -39 -129 -159h-20q32 39 125 159z" />
    <glyph glyph-name="mu" unicode="&#xb5;" horiz-adv-x="495" 
d="M70 -236v696h20v-279q0 -39 9 -71t27 -55q18 -21 45 -33t60 -12q55 0 97 29q44 28 76 85v336h21v-460h-21v92q-12 -22 -31 -40t-43 -33q-24 -12 -50 -21q-24 -6 -50 -7q-50 0 -85 20q-34 21 -55 61v-308h-20z" />
    <glyph glyph-name="paragraph" unicode="&#xb6;" horiz-adv-x="600" 
d="M275 -238v559q-39 1 -75 13q-34 14 -64 41q-28 27 -43 61q-14 34 -14 73t14 72q15 33 42 61q29 28 61 42t68 14h319v-20h-111v-916h-22v916h-152v-916h-23z" />
    <glyph glyph-name="periodcentered" unicode="&#xb7;" horiz-adv-x="135" 
d="M49 396h37v-77h-37v77z" />
    <glyph glyph-name="cedilla" unicode="&#xb8;" horiz-adv-x="334" 
d="M172 8h21q-3 -10 -13 -44q16 0 27 -5q12 -5 21 -14q10 -9 14 -21q6 -12 5 -25q0 -18 -6 -33q-5 -14 -20 -25q-13 -9 -31 -15q-18 -4 -42 -5q-10 1 -21 1q-9 2 -18 3q0 6 2 18q7 0 16 -2q9 -1 19 -1q40 0 60 15t19 44q1 25 -14 37q-15 14 -45 13h-10q4 15 16 59z" />
    <glyph glyph-name="onesuperior" unicode="&#xb9;" horiz-adv-x="324" 
d="M177 867h23v-365h-23v341q-27 -16 -107 -66q-3 6 -15 18q32 18 122 72z" />
    <glyph glyph-name="ordmasculine" unicode="&#xba;" horiz-adv-x="360" 
d="M325 563q1 -30 -11 -57q-9 -24 -30 -46q-20 -20 -46 -31q-26 -9 -58 -10q-30 1 -56 10q-26 11 -47 32q-19 21 -31 47q-10 26 -10 55q0 32 10 56q12 27 31 47q21 22 47 31q26 11 56 11q32 0 58 -11q26 -9 46 -31q21 -20 30 -47q12 -24 11 -56zM304 563q0 29 -8 50
q-9 23 -27 39q-17 20 -39 27q-22 9 -51 9q-26 0 -47 -8q-20 -8 -40 -27q-18 -16 -27 -40q-9 -21 -9 -50q0 -27 9 -50q9 -21 26 -40q19 -17 40 -26q22 -9 49 -9q28 0 50 9t39 26q18 19 27 40q8 23 8 50z" />
    <glyph glyph-name="guillemotright" unicode="&#xbb;" horiz-adv-x="463" 
d="M16 466h26q48 -57 194 -229q-48 -57 -194 -230h-26q50 59 193 230q-47 57 -193 229zM222 466h26q48 -57 193 -229q-47 -57 -193 -230h-26q48 59 193 230q-47 57 -193 229z" />
    <glyph glyph-name="onequarter" unicode="&#xbc;" horiz-adv-x="889" 
d="M561 186v18q57 70 223 280h14v-276h66v-22h-66v-186h-23v186h-214zM592 208h183v228q-45 -57 -183 -228zM173 0q131 176 518 698h25q-130 -174 -518 -698h-25zM195 673q-30 -21 -122 -87q-3 4 -13 17q34 25 135 95h22v-478h-22v453z" />
    <glyph glyph-name="onehalf" unicode="&#xbd;" horiz-adv-x="889" 
d="M582 0q10 12 43 45q55 58 91 102q38 45 56 75q21 33 30 63q9 33 9 64q1 25 -7 45q-6 22 -23 37q-13 17 -34 25q-19 8 -45 8q-27 0 -55 -12q-27 -12 -57 -36v25q28 23 55 33t52 10h5q32 0 56 -9t42 -28q18 -17 27 -43q9 -24 9 -55q0 -34 -9 -66q-9 -31 -27 -61
q-18 -28 -60 -79q-42 -49 -108 -123h224v-20h-274zM173 0q131 176 518 698h25q-130 -174 -518 -698h-25zM195 673q-30 -21 -122 -87q-3 4 -13 17q34 25 135 95h22v-478h-22v453z" />
    <glyph glyph-name="threequarters" unicode="&#xbe;" horiz-adv-x="889" 
d="M561 186v18l92 115v0q33 42 131 165h14v-276h66v-22h-66v-186h-23v186h-214zM592 208h183v228q-45 -57 -183 -228zM57 239v23q31 -14 57 -23q28 -9 49 -9q27 0 47 9q21 9 36 23q16 16 24 37t8 46q0 28 -9 49t-27 36t-42 23q-24 9 -55 8v19q30 0 54 7t40 21t25 34
q8 21 8 45q0 21 -7 38q-7 19 -22 31q-15 15 -34 21q-19 7 -43 7q-26 0 -53 -8q-25 -8 -52 -26v24q23 15 50 23q27 9 57 8q28 0 50 -9q24 -8 41 -25q19 -17 28 -38t9 -46q0 -19 -5 -37q-4 -18 -18 -34q-11 -15 -27 -27q-14 -10 -35 -18q45 -15 68 -46q22 -32 22 -80
q0 -29 -9 -53q-3 -6 -6 -14q-8 -15 -23 -29q-18 -19 -44 -28q-24 -9 -56 -10q-28 1 -55 7q-26 8 -51 21zM173 0q131 176 518 698h25q-130 -174 -518 -698h-25z" />
    <glyph glyph-name="questiondown" unicode="&#xbf;" horiz-adv-x="273" 
d="M249 -167q-3 -15 -17 -58q-14 -11 -32 -17t-40 -6q-26 0 -47 9t-38 26q-17 18 -26 44q-8 27 -8 59q1 36 16 76q16 40 46 86q1 2 4 5q3 4 8 12t11 18v0l4 6q3 4 6 10q6 8 8 11q3 6 3 7q3 3 4 6q3 4 5 10q3 7 5 11q3 6 3 9q2 5 2 8q2 5 3 9q1 6 3 10q2 6 1 10q1 4 1 9v10
q0 15 -4 27q-3 12 -11 23q4 5 12 11q13 -15 17 -31q6 -17 6 -35q0 -6 -1 -11q1 -6 -2 -12q1 -5 -1 -11q0 -4 -3 -9q0 -4 -3 -10q-2 -5 -5 -13q-3 -6 -5 -11q0 -3 -3 -8q-2 -3 -5 -9q-3 -4 -7 -13q-4 -6 -7 -12q-2 -4 -5 -7q-1 -2 -4 -6t-9 -15q-4 -7 -8 -13q-3 -3 -5 -6
q-29 -44 -44 -83q-15 -37 -15 -69q0 -30 7 -52q6 -22 20 -38q15 -14 32 -22q18 -6 39 -7q18 0 29 3q12 4 20 10q9 8 16 19q8 12 14 30h10zM145 383v77h28v-77h-13h-15z" />
    <glyph glyph-name="Agrave" unicode="&#xc0;" horiz-adv-x="644" 
d="M313 703h18q77 -175 308 -703h-26q-27 63 -108 249h-367q-26 -61 -107 -249h-26q77 177 308 703zM322 668q-44 -99 -175 -399h349q-44 101 -174 399zM216 905h25q32 -39 125 -160h-21q-31 40 -129 160z" />
    <glyph glyph-name="Aacute" unicode="&#xc1;" horiz-adv-x="644" 
d="M313 703h18q77 -175 308 -703h-26q-27 63 -108 249h-367q-26 -61 -107 -249h-26q77 177 308 703zM322 668q-44 -99 -175 -399h349q-44 101 -174 399zM282 745q32 40 125 160h24q-31 -39 -129 -160h-20z" />
    <glyph glyph-name="Acircumflex" unicode="&#xc2;" horiz-adv-x="644" 
d="M313 703h18q77 -175 308 -703h-26q-27 63 -108 249h-367q-26 -61 -107 -249h-26q77 177 308 703zM322 668q-44 -99 -175 -399h349q-44 101 -174 399zM184 745q32 40 125 160h25q32 -39 125 -160h-21q-28 37 -116 145q-30 -36 -117 -145h-21z" />
    <glyph glyph-name="Atilde" unicode="&#xc3;" horiz-adv-x="644" 
d="M313 703h18q77 -175 308 -703h-26q-27 63 -108 249h-367q-26 -61 -107 -249h-26q77 177 308 703zM322 668q-44 -99 -175 -399h349q-44 101 -174 399zM246 870q15 0 27 -4q15 -4 28 -15q15 -9 27 -19q14 -9 25 -19q13 -9 25 -14t22 -5q30 0 43 19q15 19 16 57h20
q1 -48 -19 -72q-12 -16 -33 -22q-11 -3 -26 -3t-36 9q-19 10 -43 29q-22 21 -41 29q-19 10 -34 10q-27 0 -42 -19t-17 -58h-20q0 25 5 43q6 18 15 30q12 12 26 18t32 6z" />
    <glyph glyph-name="Adieresis" unicode="&#xc4;" horiz-adv-x="644" 
d="M313 703h18q77 -175 308 -703h-26q-27 63 -108 249h-367q-26 -61 -107 -249h-26q77 177 308 703zM322 668q-44 -99 -175 -399h349q-44 101 -174 399zM241 848h26v-86h-26v86zM379 848h27v-86h-27v86z" />
    <glyph glyph-name="Aring" unicode="&#xc5;" horiz-adv-x="644" 
d="M313 703h9h9q77 -175 308 -703h-26q-27 63 -108 249h-367q-26 -61 -107 -249h-26q77 177 308 703zM322 668q-44 -99 -175 -399h349q-44 101 -174 399zM236 816q0 18 6 33t18 28q14 13 29 19t33 6t33 -6t27 -19q14 -13 19 -28q7 -15 7 -33t-6 -32t-19 -28q-12 -12 -28 -19
l-1 -1h-1q-15 -6 -31 -6q-18 0 -33 6t-28 19q-11 13 -19 28q-6 15 -6 33zM273 769q11 -9 23 -15q12 -4 26 -5q14 1 25 4q13 6 22 15q11 12 15 23q6 11 5 25q0 14 -4 26q-5 12 -15 21q-10 12 -22 16q-12 5 -26 5t-26 -5q-10 -3 -22 -15q-9 -10 -15 -22q-5 -12 -5 -26t5 -25
q5 -12 14 -22z" />
    <glyph glyph-name="AE" unicode="&#xc6;" horiz-adv-x="829" 
d="M12 0q108 176 429 698h350v-21h-327v-313h318v-23h-318v-319h335v-22h-358v341h-195q-51 -85 -209 -341h-25zM260 364h181v294q-45 -72 -181 -294z" />
    <glyph glyph-name="Ccedilla" unicode="&#xc7;" horiz-adv-x="658" 
d="M402 708q57 0 113 -13q55 -12 109 -39v-29q-51 29 -108 43q-56 15 -118 15q-69 1 -129 -23q-57 -24 -103 -71q-45 -48 -67 -108q-23 -59 -23 -134q0 -74 22 -134q24 -59 68 -107q46 -46 104 -71q58 -24 128 -24q62 0 118 15q57 14 108 44v-30q-50 -24 -104 -37
q-52 -12 -108 -14q-2 -9 -8 -27q16 0 28 -5t21 -14t13 -21q6 -12 5 -25q0 -18 -6 -33q-5 -14 -20 -25q-13 -9 -31 -15q-18 -4 -41 -5q-12 1 -22 1q-9 2 -18 3q0 6 2 18q7 0 16 -2q9 -1 20 -1q41 0 59 15q20 15 20 44q0 25 -15 37q-15 14 -45 13h-10q3 11 11 43
q-75 2 -136 28t-109 74q-46 50 -71 112q-24 63 -24 137q0 81 24 146t72 116q51 53 113 77q64 26 142 26z" />
    <glyph glyph-name="Egrave" unicode="&#xc8;" horiz-adv-x="470" 
d="M82 698h52h297v-21h-327v-313h319v-23h-319v-319h335v-22h-357v698zM134 905h25q32 -39 125 -160h-21q-31 40 -129 160z" />
    <glyph glyph-name="Eacute" unicode="&#xc9;" horiz-adv-x="470" 
d="M82 698h274h75v-21h-327v-313h319v-23h-319v-319h335v-22h-357v698zM231 745q33 40 125 160h25q-31 -39 -129 -160h-21z" />
    <glyph glyph-name="Ecircumflex" unicode="&#xca;" horiz-adv-x="470" 
d="M82 698h163h186v-21h-327v-313h319v-23h-319v-319h335v-22h-357v698zM120 745q32 40 125 160h24q33 -39 125 -160h-20q-28 37 -117 145q-29 -36 -117 -145h-20z" />
    <glyph glyph-name="Edieresis" unicode="&#xcb;" horiz-adv-x="470" 
d="M82 698h95h254v-21h-327v-313h319v-23h-319v-319h335v-22h-357v698zM177 848h27v-86h-27v86zM315 848h27v-86h-27v86z" />
    <glyph glyph-name="Igrave" unicode="&#xcc;" horiz-adv-x="186" 
d="M82 698h22v-698h-22v698zM-12 905h24q32 -39 125 -160h-20q-33 40 -129 160z" />
    <glyph glyph-name="Iacute" unicode="&#xcd;" horiz-adv-x="186" 
d="M82 698h22v-698h-22v698zM49 745q32 40 125 160h25q-33 -39 -129 -160h-21z" />
    <glyph glyph-name="Icircumflex" unicode="&#xce;" horiz-adv-x="186" 
d="M82 698h22v-698h-22v698zM-44 745q32 40 125 160h24q33 -39 125 -160h-20q-28 37 -117 145q-29 -36 -117 -145h-20z" />
    <glyph glyph-name="Idieresis" unicode="&#xcf;" horiz-adv-x="186" 
d="M82 698h22v-698h-22v698zM11 848h27v-86h-27v86zM150 848h26v-86h-26v86z" />
    <glyph glyph-name="Eth" unicode="&#xd0;" horiz-adv-x="745" 
d="M0 343v23h82v332h239q83 0 149 -23q68 -23 119 -71q53 -46 79 -110q26 -62 26 -139q0 -81 -25 -146q-26 -63 -77 -113q-50 -46 -119 -72q-68 -24 -152 -24h-239v343h-82zM104 23h224q76 1 136 22q63 23 109 68q49 45 73 102q24 58 24 127q0 78 -24 138q-22 62 -73 106
q-47 46 -110 67q-63 23 -139 23h-220v-310h198v-23h-198v-320z" />
    <glyph glyph-name="Ntilde" unicode="&#xd1;" horiz-adv-x="762" 
d="M82 698h21q140 -165 554 -661v661h23v-698h-22q-138 166 -554 662v-662h-22v698zM300 870q14 0 28 -4q15 -4 27 -15q15 -9 27 -19q14 -9 26 -19q14 -9 24 -14q12 -5 23 -5q29 0 43 19q15 19 15 57h21q0 -48 -20 -72q-12 -16 -35 -22v0q-11 -3 -23 -3q-16 0 -37 9
q-19 10 -43 29q-21 21 -41 29q-19 10 -34 10q-27 0 -43 -19q-15 -19 -15 -58h-21q0 25 5 43q6 18 16 30t25 18q14 6 32 6z" />
    <glyph glyph-name="Ograve" unicode="&#xd2;" horiz-adv-x="806" 
d="M400 708q56 0 102 -12q48 -12 89 -39q42 -24 72 -57q31 -33 51 -73q21 -39 31 -82q10 -42 10 -90q1 -79 -25 -145q-24 -64 -76 -117q-50 -51 -113 -76q-63 -26 -140 -26q-75 0 -138 26q-63 27 -112 77q-49 52 -75 114q-24 62 -25 134q0 81 26 147q25 65 76 116
q51 53 112 77q36 15 77 21v0q28 5 58 5zM407 685q-72 0 -132 -24q-58 -23 -106 -71q-45 -48 -70 -108q-23 -60 -23 -133q0 -69 23 -130q24 -58 69 -108q48 -49 104 -73q58 -24 126 -25q74 0 134 24t106 74t69 108q23 59 23 128q0 75 -22 134q-22 60 -69 108q-45 48 -104 72
q-57 24 -128 24zM308 905h25q32 -39 125 -160h-21q-31 40 -129 160z" />
    <glyph glyph-name="Oacute" unicode="&#xd3;" horiz-adv-x="806" 
d="M400 708q30 0 57 -4v0q24 -2 45 -8q48 -12 89 -39q42 -24 72 -57q31 -33 51 -73q21 -39 31 -82q10 -42 10 -90q1 -79 -25 -145q-24 -64 -76 -117q-50 -51 -113 -76q-63 -26 -140 -26q-75 0 -138 26q-63 27 -112 77q-49 52 -75 114q-24 62 -25 134q0 81 26 147
q25 65 76 116q51 53 112 77q63 26 135 26zM407 685q-72 0 -132 -24q-58 -23 -106 -71q-45 -48 -70 -108q-23 -60 -23 -133q0 -69 23 -130q24 -58 69 -108q48 -49 104 -73q58 -24 126 -25q74 0 134 24t106 74t69 108q23 59 23 128q0 75 -22 134q-22 60 -69 108
q-45 48 -104 72q-57 24 -128 24zM358 745q32 40 125 160h25q-32 -39 -129 -160h-21z" />
    <glyph glyph-name="Ocircumflex" unicode="&#xd4;" horiz-adv-x="806" 
d="M400 708q56 0 102 -12q48 -12 89 -39q42 -24 72 -57q31 -33 51 -73q21 -39 31 -82q10 -42 10 -90q1 -79 -25 -145q-24 -64 -76 -117q-50 -51 -113 -76q-63 -26 -140 -26q-75 0 -138 26q-63 27 -112 77q-49 52 -75 114q-24 62 -25 134q0 81 26 147q25 65 76 116
q51 53 112 77q61 26 130 26h5zM407 685q-72 0 -132 -24q-58 -23 -106 -71q-45 -48 -70 -108q-23 -60 -23 -133q0 -69 23 -130q24 -58 69 -108q48 -49 104 -73q58 -24 126 -25q74 0 134 24t106 74t69 108q23 59 23 128q0 75 -22 134q-22 60 -69 108q-45 48 -104 72
q-57 24 -128 24zM267 745q32 40 125 160h25q32 -39 125 -160h-21q-29 37 -117 145q-28 -36 -116 -145h-21z" />
    <glyph glyph-name="Otilde" unicode="&#xd5;" horiz-adv-x="806" 
d="M400 708q56 0 102 -12q48 -12 89 -39q42 -24 72 -57q31 -33 51 -73q21 -39 31 -82q10 -42 10 -90q1 -79 -25 -145q-24 -64 -76 -117q-50 -51 -113 -76q-63 -26 -140 -26q-75 0 -138 26q-63 27 -112 77q-49 52 -75 114q-24 62 -25 134q0 81 26 147q25 65 76 116
q51 53 112 77q42 18 87 23q24 3 48 3zM407 685q-72 0 -132 -24q-58 -23 -106 -71q-45 -48 -70 -108q-23 -60 -23 -133q0 -69 23 -130q24 -58 69 -108q48 -49 104 -73q58 -24 126 -25q74 0 134 24t106 74t69 108q23 59 23 128q0 75 -22 134q-22 60 -69 108q-45 48 -104 72
q-57 24 -128 24zM331 870q15 0 27 -4q14 -4 28 -15q15 -9 27 -19q13 -9 25 -19q14 -9 25 -14q13 -5 22 -5q30 0 44 19q15 19 15 57h20q0 -48 -19 -72t-59 -25h-6q-14 3 -30 9q-20 10 -43 29q-23 21 -41 29q-18 10 -34 10q-28 0 -43 -19t-16 -58h-20q1 25 5 43q6 18 15 30
q11 12 26 18t32 6z" />
    <glyph glyph-name="Odieresis" unicode="&#xd6;" horiz-adv-x="806" 
d="M400 708q56 0 102 -12q48 -12 89 -39q42 -24 72 -57q31 -33 51 -73q21 -39 31 -82q10 -42 10 -90q1 -79 -25 -145q-24 -64 -76 -117q-50 -51 -113 -76q-63 -26 -140 -26q-75 0 -138 26q-63 27 -112 77q-49 52 -75 114q-24 62 -25 134q0 81 26 147q25 65 76 116
q51 53 112 77q39 16 81 22q2 0 1 0q27 4 53 4zM407 685q-72 0 -132 -24q-58 -23 -106 -71q-45 -48 -70 -108q-23 -60 -23 -133q0 -69 23 -130q24 -58 69 -108q48 -49 104 -73q58 -24 126 -25q74 0 134 24t106 74t69 108q23 59 23 128q0 75 -22 134q-22 60 -69 108
q-45 48 -104 72q-57 24 -128 24zM326 848h26v-86h-26v86zM464 848h26v-86h-26v86z" />
    <glyph glyph-name="multiply" unicode="&#xd7;" horiz-adv-x="651" 
d="M115 163l196 196q-47 48 -188 189q3 4 13 14q48 -46 190 -188l196 196q4 -2 15 -14q-50 -48 -197 -197q48 -47 188 -188q-2 -3 -14 -14q-46 47 -188 188q-50 -49 -197 -197q-3 4 -14 15z" />
    <glyph glyph-name="Oslash" unicode="&#xd8;" horiz-adv-x="806" 
d="M73 6q21 22 80 86q-51 52 -76 115q-26 66 -26 142q1 77 25 140q26 64 76 115q50 52 112 78q63 26 135 26q75 0 136 -23q61 -21 109 -68q28 31 84 91q6 -4 18 -18q-21 -21 -84 -90q46 -52 70 -115q24 -61 23 -136q1 -75 -25 -138q-24 -63 -76 -116q-50 -51 -111 -78
q-61 -26 -135 -26q-70 0 -130 21t-108 63q-26 -27 -79 -84q-3 5 -18 15zM169 110q53 56 119 128q68 72 147 157q83 87 129 138q48 51 64 67q-44 44 -101 64q-57 21 -125 21q-70 0 -128 -24q-57 -24 -105 -72q-45 -48 -70 -108q-23 -60 -23 -132q0 -69 23 -130
q25 -59 70 -109zM645 583q-114 -123 -459 -490q48 -39 102 -60q54 -20 115 -20q71 0 128 24q59 25 105 73q48 50 71 107q23 59 23 128t-21 129t-64 109z" />
    <glyph glyph-name="Ugrave" unicode="&#xd9;" horiz-adv-x="700" 
d="M74 698h22v-399q0 -60 17 -111q16 -51 49 -93q34 -41 80 -62t106 -21q63 0 109 21q48 21 81 61q34 42 50 93t16 112v399h23v-400q0 -64 -18 -120q-16 -54 -54 -99q-35 -44 -86 -66q-49 -21 -115 -22q-66 1 -119 22q-51 23 -89 65q-36 44 -54 100t-18 123v397zM250 905h24
q32 -39 125 -160h-20q-31 40 -129 160z" />
    <glyph glyph-name="Uacute" unicode="&#xda;" horiz-adv-x="700" 
d="M74 698h22v-399q0 -60 17 -111q16 -51 49 -93q34 -41 80 -62t106 -21q63 0 109 21q48 21 81 61q34 42 50 93t16 112v399h23v-400q0 -64 -18 -120q-16 -54 -54 -99q-35 -44 -86 -66q-49 -21 -115 -22q-66 1 -119 22q-51 23 -89 65q-36 44 -54 100t-18 123v397zM315 745
q33 40 125 160h25q-31 -39 -129 -160h-21z" />
    <glyph glyph-name="Ucircumflex" unicode="&#xdb;" horiz-adv-x="700" 
d="M74 698h22v-399q0 -60 17 -111q16 -51 49 -93q34 -41 80 -62t106 -21q63 0 109 21q48 21 81 61q34 42 50 93t16 112v399h23v-400q0 -64 -18 -120q-16 -54 -54 -99q-35 -44 -86 -66q-49 -21 -115 -22q-66 1 -119 22q-51 23 -89 65q-36 44 -54 100t-18 123v397zM221 745
q32 40 125 160h25q32 -39 125 -160h-21q-29 37 -117 145q-28 -36 -116 -145h-21z" />
    <glyph glyph-name="Udieresis" unicode="&#xdc;" horiz-adv-x="700" 
d="M74 698h22v-399q0 -60 17 -111q16 -51 49 -93q34 -41 80 -62t106 -21q63 0 109 21q48 21 81 61q34 42 50 93t16 112v399h23v-400q0 -64 -18 -120q-16 -54 -54 -99q-35 -44 -86 -66q-49 -21 -115 -22q-66 1 -119 22q-51 23 -89 65q-36 44 -54 100t-18 123v397zM262 848h27
v-86h-27v86zM400 848h27v-86h-27v86z" />
    <glyph glyph-name="Yacute" unicode="&#xdd;" horiz-adv-x="566" 
d="M4 698h27q63 -74 253 -299q64 75 253 299h25q-66 -78 -267 -317v-381h-23v381q-66 80 -268 317zM240 745q32 40 125 160h24q-31 -39 -129 -160h-20z" />
    <glyph glyph-name="Thorn" unicode="&#xde;" horiz-adv-x="498" 
d="M82 698h22v-167h140q52 1 93 -11q41 -10 71 -35q30 -23 44 -56q15 -33 15 -77q0 -42 -15 -76q-14 -33 -44 -57q-30 -23 -71 -35t-93 -12h-140v-172h-22v698zM104 510v-316h128q106 0 159 39q52 41 52 119q0 80 -51 119q-52 39 -154 39h-134z" />
    <glyph glyph-name="germandbls" unicode="&#xdf;" 
d="M467 196q0 -45 -12 -83q-11 -36 -37 -66q-24 -27 -58 -42q-33 -14 -73 -14q-15 0 -32 2q-17 3 -35 6v19q18 -3 35 -6q17 -2 32 -2q38 0 65 13q30 13 50 37q24 27 34 60t10 75q0 41 -10 73q-9 33 -33 55q-21 23 -53 35t-74 14v20q33 6 57 17q25 12 43 32q18 21 27 47
q10 26 10 56q0 34 -10 60q-10 27 -31 45q-20 21 -49 30q-27 9 -65 9q-42 0 -74 -12t-52 -39q-20 -25 -30 -59q-10 -33 -10 -77v-501h-20v505q0 47 11 83q13 38 37 64q24 28 59 42t79 14q40 0 70 -11q32 -10 56 -34q26 -23 37 -53q12 -28 12 -66q0 -60 -30 -100
q-29 -39 -91 -60q40 -6 67 -23q28 -15 48 -40q21 -24 30 -56q10 -30 10 -69z" />
    <glyph glyph-name="agrave" unicode="&#xe0;" horiz-adv-x="420" 
d="M205 469q34 1 58 -8q24 -7 39 -25q15 -16 23 -42q7 -26 7 -61v-306q0 -8 2 -12q2 -3 5 -4q9 0 25 12q18 11 44 32v-20q-26 -21 -46 -33q-18 -10 -29 -11q-6 1 -10 1q-3 3 -7 6q-2 6 -3 12q-2 8 -2 18v38q-37 -36 -76 -56q-38 -18 -78 -19q-29 1 -53 7q-22 9 -39 24
q-17 16 -26 36q-8 22 -8 46q0 38 18 66q19 30 55 51q38 24 89 36q52 12 118 14v61q1 30 -5 53q-6 22 -18 36q-12 15 -34 21q-21 8 -51 8q-37 0 -73 -15t-74 -44v24q36 27 72 41l20 6q27 8 57 7zM52 104q0 -20 7 -38q7 -16 21 -30q14 -12 34 -19t43 -7q39 0 77 20
q39 20 77 58v165q-57 -1 -103 -11q-45 -9 -83 -30q-36 -20 -54 -47q-19 -27 -19 -61zM87 693h25q32 -39 125 -159h-21q-32 39 -129 159z" />
    <glyph glyph-name="aacute" unicode="&#xe1;" horiz-adv-x="420" 
d="M205 469q29 0 51 -6v0q4 0 7 -2q24 -7 39 -25q15 -16 23 -42q7 -26 7 -61v-306q0 -8 2 -12q2 -3 5 -4q9 0 25 12q18 11 44 32v-20q-26 -21 -46 -33q-18 -10 -29 -11q-6 1 -10 1q-3 3 -7 6q-2 6 -3 12q-2 8 -2 18v38q-37 -36 -76 -56q-38 -18 -78 -19q-29 1 -53 7
q-22 9 -39 24q-17 16 -26 36q-8 22 -8 46q0 38 18 66q19 30 55 51q38 24 89 36q52 12 118 14v61q1 30 -5 53q-6 22 -18 36q-12 15 -34 21q-21 8 -51 8q-37 0 -73 -15t-74 -44v24q36 27 72 41q38 14 77 13zM52 104q0 -20 7 -38q7 -16 21 -30q14 -12 34 -19t43 -7q39 0 77 20
q39 20 77 58v165q-57 -1 -103 -11q-45 -9 -83 -30q-36 -20 -54 -47q-19 -27 -19 -61zM316 693h25q-31 -39 -129 -159h-21q33 39 125 159z" />
    <glyph glyph-name="acircumflex" unicode="&#xe2;" horiz-adv-x="420" 
d="M205 469q34 1 58 -8q24 -7 39 -25q15 -16 23 -42q7 -26 7 -61v-306q0 -8 2 -12q2 -3 5 -4q9 0 25 12q18 11 44 32v-20q-26 -21 -46 -33q-18 -10 -29 -11q-6 1 -10 1q-3 3 -7 6q-2 6 -3 12q-2 8 -2 18v38q-37 -36 -76 -56q-38 -18 -78 -19q-29 1 -53 7q-22 9 -39 24
q-17 16 -26 36q-8 22 -8 46q0 38 18 66q19 30 55 51q38 24 89 36q52 12 118 14v61q1 30 -5 53q-6 22 -18 36q-12 15 -34 21q-21 8 -51 8q-37 0 -73 -15t-74 -44v24q36 27 72 41q34 12 72 13h5zM52 104q0 -20 7 -38q7 -16 21 -30q14 -12 34 -19t43 -7q39 0 77 20q39 20 77 58
v165q-57 -1 -103 -11q-45 -9 -83 -30q-36 -20 -54 -47q-19 -27 -19 -61zM196 693h24q32 -39 125 -159h-12h-8q-30 36 -117 144q-28 -36 -117 -144h-20q32 39 125 159z" />
    <glyph glyph-name="atilde" unicode="&#xe3;" horiz-adv-x="420" 
d="M205 469q34 1 58 -8q24 -7 39 -25q15 -16 23 -42q7 -26 7 -61v-306q0 -8 2 -12q2 -3 5 -4q9 0 25 12q18 11 44 32v-20q-26 -21 -46 -33q-18 -10 -29 -11q-6 1 -10 1q-3 3 -7 6q-2 6 -3 12q-2 8 -2 18v38q-37 -36 -76 -56q-38 -18 -78 -19q-29 1 -53 7q-22 9 -39 24
q-17 16 -26 36q-8 22 -8 46q0 38 18 66q19 30 55 51q38 24 89 36q52 12 118 14v61q1 30 -5 53q-6 22 -18 36q-12 15 -34 21q-21 8 -51 8q-37 0 -73 -15t-74 -44v24q36 27 72 41q16 6 33 9q21 4 44 4zM52 104q0 -20 7 -38q7 -16 21 -30q14 -12 34 -19t43 -7q39 0 77 20
q39 20 77 58v165q-57 -1 -103 -11q-45 -9 -83 -30q-36 -20 -54 -47q-19 -27 -19 -61zM123 658q15 0 28 -4t27 -14q15 -9 27 -19q13 -9 25 -20q14 -9 25 -14q13 -5 23 -5q28 0 43 19t15 57h20q0 -48 -19 -72q-17 -22 -50 -25h-8q-16 0 -37 9q-20 10 -43 29q-23 21 -41 29
q-18 10 -34 10q-27 0 -42 -19q-14 -19 -16 -58h-21q1 25 5 43q6 18 16 30t25 18t32 6z" />
    <glyph glyph-name="adieresis" unicode="&#xe4;" horiz-adv-x="420" 
d="M205 469q34 1 58 -8q24 -7 39 -25q15 -16 23 -42q7 -26 7 -61v-306q0 -8 2 -12q2 -3 5 -4q9 0 25 12q18 11 44 32v-20q-26 -21 -46 -33q-18 -10 -29 -11q-6 1 -10 1q-3 3 -7 6q-2 6 -3 12q-2 8 -2 18v38q-37 -36 -76 -56q-38 -18 -78 -19q-29 1 -53 7q-22 9 -39 24
q-17 16 -26 36q-8 22 -8 46q0 38 18 66q19 30 55 51q38 24 89 36q52 12 118 14v61q1 30 -5 53q-6 22 -18 36q-12 15 -34 21q-21 8 -51 8q-37 0 -73 -15t-74 -44v24q36 27 72 41q14 6 31 8v0q22 6 46 5zM52 104q0 -20 7 -38q7 -16 21 -30q14 -12 34 -19t43 -7q39 0 77 20
q39 20 77 58v165q-57 -1 -103 -11q-45 -9 -83 -30q-36 -20 -54 -47q-19 -27 -19 -61zM123 635h27v-86h-27v86zM261 635h27v-86h-27v86z" />
    <glyph glyph-name="aring" unicode="&#xe5;" horiz-adv-x="420" 
d="M205 469q34 1 58 -8q24 -7 39 -25q15 -16 23 -42q7 -26 7 -61v-306q0 -8 2 -12q2 -3 5 -4q9 0 25 12q18 11 44 32v-20q-26 -21 -46 -33q-18 -10 -29 -11q-6 1 -10 1q-3 3 -7 6q-2 6 -3 12q-2 8 -2 18v38q-37 -36 -76 -56q-38 -18 -78 -19q-29 1 -53 7q-22 9 -39 24
q-17 16 -26 36q-8 22 -8 46q0 38 18 66q19 30 55 51q38 24 89 36q52 12 118 14v61q1 30 -5 53q-6 22 -18 36q-12 15 -34 21q-21 8 -51 8q-37 0 -73 -15t-74 -44v24q36 27 72 41t75 13h1h1zM52 104q0 -20 7 -38q7 -16 21 -30q14 -12 34 -19t43 -7q39 0 77 20q39 20 77 58v165
q-57 -1 -103 -11q-45 -9 -83 -30q-36 -20 -54 -47q-19 -27 -19 -61zM289 604q0 -18 -6 -32q-5 -14 -19 -28q-12 -12 -27 -19q-6 -3 -16 -5v0q-9 -2 -18 -2q-18 0 -33 6q-14 6 -28 19q-12 13 -19 28q-6 15 -6 33t6 33t18 28q14 13 29 19t33 6t33 -6t27 -19q13 -13 19 -28
q8 -15 7 -33zM155 557q10 -9 22 -15q12 -4 26 -5q15 1 25 4q12 6 22 15q12 12 15 23q5 11 5 25t-4 26q-3 12 -15 21q-9 12 -22 16q-11 5 -26 5q-13 0 -25 -5q-12 -3 -22 -15q-10 -10 -16 -22q-4 -12 -5 -26q1 -14 5 -25q6 -12 15 -22z" />
    <glyph glyph-name="ae" unicode="&#xe6;" horiz-adv-x="692" 
d="M63 395v23q39 26 76 38q38 14 72 13q60 1 90 -31q31 -30 34 -93q9 30 22 51q15 22 35 39q22 17 46 26t50 8q80 1 122 -53q42 -52 47 -159h-321q0 -65 9 -113q9 -46 27 -76q18 -28 49 -43q32 -15 74 -15q44 0 83 15q40 15 76 45v-23q-36 -27 -76 -42q-39 -14 -83 -14
q-56 1 -95 23q-38 24 -62 69q-24 -24 -46 -42q-22 -17 -45 -29q-21 -10 -45 -16q-24 -4 -49 -5q-27 1 -49 7q-22 9 -39 24q-17 16 -26 36q-8 22 -8 46q0 33 14 59q15 27 45 45q32 21 87 36q57 18 138 30v59q0 32 -6 54t-18 36q-12 15 -33 21q-20 8 -49 7q-33 1 -69 -14
q-36 -14 -77 -42zM315 253q-71 -11 -122 -26q-49 -13 -79 -28t-44 -39q-15 -22 -15 -56q1 -20 7 -38q6 -16 20 -29q15 -11 33 -19q20 -6 42 -6q44 0 86 23q45 23 87 67q-6 26 -11 59q-3 34 -4 79v13zM338 275h297q-7 88 -45 132q-36 45 -103 44q-29 1 -56 -11
q-24 -10 -45 -34q-20 -24 -32 -56q-10 -32 -16 -75z" />
    <glyph glyph-name="ccedilla" unicode="&#xe7;" horiz-adv-x="403" 
d="M174 -175q2 5 2 19q6 0 15 -2q9 0 19 -1q42 0 62 15t20 43q0 13 -4 22t-14 14q-8 7 -22 10q-12 3 -31 4q4 15 12 44q-43 7 -79 25q-34 20 -61 52q-25 34 -39 73q-12 41 -13 87q1 54 16 96q15 44 47 76q34 34 74 51q42 16 90 16q30 1 57 -5q30 -4 58 -14v-22
q-27 12 -57 16q-28 6 -58 6q-44 0 -81 -16q-36 -14 -66 -46q-29 -30 -44 -70q-15 -38 -15 -88q0 -46 15 -87q15 -39 44 -70q30 -31 66 -47q37 -16 81 -16q30 0 58 6q30 6 57 16v-22q-27 -8 -61 -14q-32 -4 -69 -5q-1 -9 -7 -27q34 -3 50 -21q16 -17 16 -44q0 -18 -6 -33
q-4 -14 -19 -25q-12 -9 -32 -15q-17 -4 -41 -5q-12 1 -21 1q-9 2 -19 3z" />
    <glyph glyph-name="egrave" unicode="&#xe8;" horiz-adv-x="462" 
d="M422 67v-23q-36 -26 -78 -40q-39 -12 -84 -13q-48 1 -88 17q-39 16 -71 49q-30 35 -45 77t-15 94q1 54 13 96q14 44 41 77q28 35 64 51q17 9 33 12q22 6 46 5q42 1 75 -13t58 -41q24 -27 39 -66q14 -39 17 -92h-364q0 1 0 -3v0q1 -2 1 -3t-1 -4v-5q-1 -3 -1 -6
q0 -51 14 -93q14 -41 41 -71t63 -46t80 -16q46 0 85 15q41 15 77 42zM66 275h338q-10 88 -53 132q-42 45 -114 44q-33 0 -61 -12q-28 -10 -52 -36q-24 -22 -38 -55t-20 -73zM138 693h25q32 -39 125 -159h-21q-31 39 -129 159z" />
    <glyph glyph-name="eacute" unicode="&#xe9;" horiz-adv-x="462" 
d="M422 67v-23q-36 -26 -78 -40q-39 -12 -84 -13q-48 1 -88 17q-39 16 -71 49q-30 35 -45 77t-15 94q1 54 13 96q14 44 41 77q28 35 64 51q37 18 79 17q30 1 56 -7q10 -3 19 -6q33 -14 58 -41q24 -27 39 -66q14 -39 17 -92h-364q0 1 0 -3v0q1 -2 1 -3t-1 -4v-5q-1 -3 -1 -6
q0 -51 14 -93q14 -41 41 -71t63 -46t80 -16q46 0 85 15q41 15 77 42zM66 275h338q-10 88 -53 132q-42 45 -114 44q-33 0 -61 -12q-28 -10 -52 -36q-24 -22 -38 -55t-20 -73zM356 693h25q-31 -39 -129 -159h-21q33 39 125 159z" />
    <glyph glyph-name="ecircumflex" unicode="&#xea;" horiz-adv-x="462" 
d="M422 67v-23q-36 -26 -78 -40q-39 -12 -84 -13q-48 1 -88 17q-39 16 -71 49q-30 35 -45 77t-15 94q1 54 13 96q14 44 41 77q28 35 64 51q35 16 74 17h5q42 1 75 -13t58 -41q24 -27 39 -66q14 -39 17 -92h-364q0 1 0 -3v0q1 -2 1 -3t-1 -4v-5q-1 -3 -1 -6q0 -51 14 -93
q14 -41 41 -71t63 -46t80 -16q46 0 85 15q41 15 77 42zM66 275h338q-10 88 -53 132q-42 45 -114 44q-33 0 -61 -12q-28 -10 -52 -36q-24 -22 -38 -55t-20 -73zM228 693h25q32 -39 125 -159h-21l-116 144q-30 -36 -117 -144h-21q33 39 125 159z" />
    <glyph glyph-name="edieresis" unicode="&#xeb;" horiz-adv-x="462" 
d="M422 67v-23q-36 -26 -78 -40q-39 -12 -84 -13q-48 1 -88 17q-39 16 -71 49q-30 35 -45 77t-15 94q1 54 13 96q14 44 41 77q28 35 64 51q19 10 37 13q21 4 42 4q42 1 75 -13t58 -41q24 -27 39 -66q14 -39 17 -92h-364q0 1 0 -3v0q1 -2 1 -3t-1 -4v-5q-1 -3 -1 -6
q0 -51 14 -93q14 -41 41 -71t63 -46t80 -16q46 0 85 15q41 15 77 42zM66 275h338q-10 88 -53 132q-42 45 -114 44q-33 0 -61 -12q-28 -10 -52 -36q-24 -22 -38 -55t-20 -73zM161 635h26v-86h-26v86zM299 635h27v-86h-27v86z" />
    <glyph glyph-name="igrave" unicode="&#xec;" horiz-adv-x="160" 
d="M72 460h20v-460h-20v460zM-22 693h25q32 -39 125 -159h-20q-32 39 -130 159z" />
    <glyph glyph-name="iacute" unicode="&#xed;" horiz-adv-x="160" 
d="M72 460h20v-460h-20v460zM172 693h25q-33 -39 -129 -159h-21q32 39 125 159z" />
    <glyph glyph-name="icircumflex" unicode="&#xee;" horiz-adv-x="160" 
d="M72 460h20v-460h-20v460zM70 693h24q32 -39 125 -159h-20q-30 36 -117 144q-28 -36 -117 -144h-20q32 39 125 159z" />
    <glyph glyph-name="idieresis" unicode="&#xef;" horiz-adv-x="160" 
d="M72 460h20v-460h-20v460zM0 635h27v-86h-27v86zM138 635h27v-86h-27v86z" />
    <glyph glyph-name="eth" unicode="&#xf0;" horiz-adv-x="535" 
d="M154 683q2 5 7 15q33 -12 64 -30q32 -16 62 -40q48 22 141 65q2 -3 8 -16q-33 -15 -133 -62q46 -37 82 -82q35 -44 59 -95q26 -50 37 -102q13 -52 13 -106q0 -50 -16 -94q-15 -42 -48 -77q-32 -33 -73 -51q-40 -16 -90 -17q-49 1 -89 17q-40 18 -73 50q-32 34 -48 77
q-15 43 -16 94q1 53 16 95q15 44 47 76q34 36 73 52q42 18 90 17q59 1 104 -23q45 -22 78 -69q-9 31 -24 61q-15 32 -39 62q-21 32 -48 58q-24 27 -54 48q-52 -24 -158 -72q-2 4 -7 16q37 18 148 68q-20 16 -48 31q-29 16 -65 34zM267 9q46 1 82 16q38 15 66 47q29 32 43 71
q14 41 14 86q0 47 -14 86q-12 39 -42 71q-28 33 -66 48q-38 18 -84 17q-44 0 -81 -16q-35 -15 -65 -48q-28 -32 -43 -71t-15 -87q0 -47 15 -87q15 -38 43 -70q30 -30 66 -47q38 -15 81 -16z" />
    <glyph glyph-name="ntilde" unicode="&#xf1;" horiz-adv-x="489" 
d="M263 469q42 0 72 -12t50 -38q21 -25 30 -58q10 -33 10 -76v-285h-21v278q0 40 -8 70q-8 32 -26 54q-16 24 -44 36q-27 12 -63 12q-52 0 -96 -29q-43 -27 -77 -85v-336h-20v460h20v-92q16 24 34 41q20 17 42 31q24 16 48 22q4 2 8 2q21 6 41 5zM176 658q14 0 28 -4
q15 -4 27 -14q15 -9 27 -19q14 -9 26 -20q14 -9 24 -14q12 -5 23 -5q28 0 43 19t15 57h21q0 -48 -20 -72q-14 -20 -44 -24q-6 0 -14 -1q-16 0 -37 9q-19 10 -43 29q-21 21 -41 29q-18 10 -34 10q-27 0 -42 -19t-16 -58h-21q0 25 5 43q6 18 16 30q11 12 25 18t32 6z" />
    <glyph glyph-name="ograve" unicode="&#xf2;" horiz-adv-x="535" 
d="M266 451q-42 0 -78 -15q-36 -14 -66 -47q-28 -31 -44 -71q-16 -38 -16 -89q0 -47 15 -87q15 -38 43 -70q30 -30 66 -47q38 -15 81 -16q46 1 82 16q38 15 66 47q29 32 43 71q14 41 14 86q0 47 -14 86q-12 39 -42 71q-28 33 -66 48q-38 18 -84 17zM267 469q50 1 90 -17
q40 -16 72 -52q33 -33 48 -77q17 -43 17 -94q0 -49 -16 -93q-15 -42 -48 -77q-32 -33 -73 -51q-40 -16 -90 -17q-49 1 -89 16q-40 17 -73 50q-32 34 -48 76q-15 42 -16 92q1 54 16 98q17 45 47 77q34 36 73 52q18 8 34 11h1q27 6 55 6zM159 693h24q33 -39 125 -159h-20
q-33 39 -129 159z" />
    <glyph glyph-name="oacute" unicode="&#xf3;" horiz-adv-x="535" 
d="M266 451q-42 0 -78 -15q-36 -14 -66 -47q-28 -31 -44 -71q-16 -38 -16 -89q0 -47 15 -87q15 -38 43 -70q30 -30 66 -47q38 -15 81 -16q46 1 82 16q38 15 66 47q29 32 43 71q14 41 14 86q0 47 -14 86q-12 39 -42 71q-28 33 -66 48q-38 18 -84 17zM267 469q26 0 48 -4
t42 -13q40 -16 72 -52q33 -33 48 -77q17 -43 17 -94q0 -49 -16 -93q-15 -42 -48 -77q-32 -33 -73 -51q-40 -16 -90 -17q-49 1 -89 16q-40 17 -73 50q-32 34 -48 76q-15 42 -16 92q1 54 16 98q17 45 47 77q34 36 73 52q42 18 90 17zM359 693h25q-32 -39 -129 -159h-21
q32 39 125 159z" />
    <glyph glyph-name="ocircumflex" unicode="&#xf4;" horiz-adv-x="535" 
d="M266 451q-42 0 -78 -15q-36 -14 -66 -47q-28 -31 -44 -71q-16 -38 -16 -89q0 -47 15 -87q15 -38 43 -70q30 -30 66 -47q38 -15 81 -16q46 1 82 16q38 15 66 47q29 32 43 71q14 41 14 86q0 47 -14 86q-12 39 -42 71q-28 33 -66 48q-38 18 -84 17zM267 469q50 1 90 -17
q40 -16 72 -52q33 -33 48 -77q17 -43 17 -94q0 -49 -16 -93q-15 -42 -48 -77q-32 -33 -73 -51q-40 -16 -90 -17q-49 1 -89 16q-40 17 -73 50q-32 34 -48 76q-15 42 -16 92q1 54 16 98q17 45 47 77q34 36 73 52t85 17h5zM257 693h25q32 -39 125 -159h-21q-28 36 -117 144
l-116 -144h-21q32 39 125 159z" />
    <glyph glyph-name="otilde" unicode="&#xf5;" horiz-adv-x="535" 
d="M266 451q-42 0 -78 -15q-36 -14 -66 -47q-28 -31 -44 -71q-16 -38 -16 -89q0 -47 15 -87q15 -38 43 -70q30 -30 66 -47q38 -15 81 -16q46 1 82 16q38 15 66 47q29 32 43 71q14 41 14 86q0 47 -14 86q-12 39 -42 71q-28 33 -66 48q-38 18 -84 17zM267 469q50 1 90 -17
q40 -16 72 -52q33 -33 48 -77q17 -43 17 -94q0 -49 -16 -93q-15 -42 -48 -77q-32 -33 -73 -51q-40 -16 -90 -17q-49 1 -89 16q-40 17 -73 50q-32 34 -48 76q-15 42 -16 92q1 54 16 98q17 45 47 77q34 36 73 52q21 10 47 13v0q22 4 43 4zM190 658q14 0 28 -4t28 -14
q15 -9 27 -19q13 -9 25 -20q14 -9 25 -14q12 -5 22 -5q29 0 43 19q15 19 15 57h21q0 -48 -19 -72q-20 -24 -59 -25h-5q0 1 -3 1q-14 2 -29 8q-19 10 -43 29q-21 21 -41 29q-18 10 -34 10q-27 0 -42 -19q-13 -19 -16 -58h-20q1 25 5 43t15 30t25 18q16 6 32 6z" />
    <glyph glyph-name="odieresis" unicode="&#xf6;" horiz-adv-x="535" 
d="M266 451q-42 0 -78 -15q-36 -14 -66 -47q-28 -31 -44 -71q-16 -38 -16 -89q0 -47 15 -87q15 -38 43 -70q30 -30 66 -47q38 -15 81 -16q46 1 82 16q38 15 66 47q29 32 43 71q14 41 14 86q0 47 -14 86q-12 39 -42 71q-28 33 -66 48q-38 18 -84 17zM267 469q50 1 90 -17
q40 -16 72 -52q33 -33 48 -77q17 -43 17 -94q0 -49 -16 -93q-15 -42 -48 -77q-32 -33 -73 -51q-40 -16 -90 -17q-49 1 -89 16q-40 17 -73 50q-32 34 -48 76q-15 42 -16 92q1 54 16 98q17 45 47 77q34 36 73 52q21 9 43 13t47 4zM187 635h27v-86h-27v86zM326 635h26v-86h-26
v86z" />
    <glyph glyph-name="divide" unicode="&#xf7;" 
d="M41 349v21h430v-21h-430zM244 221h24v-96h-24v96zM244 594h24v-96h-24v96z" />
    <glyph glyph-name="oslash" unicode="&#xf8;" horiz-adv-x="542" 
d="M44 -13q16 18 62 72q-30 33 -46 76t-16 94q0 53 16 95q16 44 49 76q33 36 72 52q41 18 89 17q42 1 78 -13q38 -12 69 -40q19 21 53 61q4 -3 15 -13q-12 -14 -54 -62q33 -34 49 -78q18 -42 17 -95q0 -49 -16 -93q-15 -42 -48 -77q-31 -33 -73 -51q-40 -16 -90 -17
q-42 1 -80 13q-36 14 -68 41l-63 -72q-3 5 -15 14zM475 229q1 48 -14 87q-13 40 -43 70q-94 -108 -284 -327q30 -23 62 -37q34 -12 74 -13q45 1 81 16q38 17 66 47q29 32 44 70q15 40 14 87zM269 451q-42 0 -80 -16q-35 -15 -65 -48q-28 -31 -44 -71q-14 -39 -14 -87
q0 -45 13 -84q15 -39 41 -70q94 109 283 325q-26 26 -59 38q-33 14 -75 13z" />
    <glyph glyph-name="ugrave" unicode="&#xf9;" horiz-adv-x="489" 
d="M65 460h20v-278q0 -38 9 -69q10 -32 26 -56q18 -23 44 -35q28 -12 62 -12q54 0 97 29q43 28 76 85v336h21v-460h-21v92q-12 -22 -33 -40q-18 -18 -42 -33q-22 -12 -48 -21q-24 -6 -50 -7q-40 1 -71 13q-30 12 -51 37q-20 26 -30 59q-9 34 -9 75v285zM125 693h25
q32 -39 124 -159h-20q-32 39 -129 159z" />
    <glyph glyph-name="uacute" unicode="&#xfa;" horiz-adv-x="489" 
d="M65 460h20v-278q0 -38 9 -69q10 -32 26 -56q18 -23 44 -35q28 -12 62 -12q54 0 97 29q43 28 76 85v336h21v-460h-21v92q-12 -22 -33 -40q-18 -18 -42 -33q-22 -12 -48 -21q-24 -6 -50 -7q-40 1 -71 13q-30 12 -51 37q-20 26 -30 59q-9 34 -9 75v285zM359 693h25
q-32 -39 -129 -159h-21q32 39 125 159z" />
    <glyph glyph-name="ucircumflex" unicode="&#xfb;" horiz-adv-x="489" 
d="M65 460h20v-278q0 -38 9 -69q10 -32 26 -56q18 -23 44 -35q28 -12 62 -12q54 0 97 29q43 28 76 85v336h21v-460h-21v92q-12 -22 -33 -40q-18 -18 -42 -33q-22 -12 -48 -21q-24 -6 -50 -7q-40 1 -71 13q-30 12 -51 37q-20 26 -30 59q-9 34 -9 75v285zM224 693h25
q32 -39 125 -159h-21l-116 144q-30 -36 -117 -144h-21q33 39 125 159z" />
    <glyph glyph-name="udieresis" unicode="&#xfc;" horiz-adv-x="489" 
d="M65 460h20v-278q0 -38 9 -69q10 -32 26 -56q18 -23 44 -35q28 -12 62 -12q54 0 97 29q43 28 76 85v336h21v-460h-21v92q-12 -22 -33 -40q-18 -18 -42 -33q-22 -12 -48 -21q-24 -6 -50 -7q-40 1 -71 13q-30 12 -51 37q-20 26 -30 59q-9 34 -9 75v285zM164 635h26v-86h-26
v86zM302 635h27v-86h-27v86z" />
    <glyph glyph-name="yacute" unicode="&#xfd;" horiz-adv-x="419" 
d="M5 460h23q45 -88 183 -357q45 90 181 357h22q-88 -174 -354 -696h-21q40 81 162 319q-49 95 -196 377zM333 693h24q-31 -39 -129 -159h-20q32 39 125 159z" />
    <glyph glyph-name="thorn" unicode="&#xfe;" horiz-adv-x="531" 
d="M82 -236v934h20v-238h159q53 0 93 -16q42 -14 73 -47q33 -30 48 -72q15 -40 15 -94q0 -51 -15 -94q-15 -42 -49 -78q-32 -33 -74 -51q-40 -16 -91 -17q-42 1 -82 11q-39 12 -77 35v-273h-20zM102 440v-384q40 -22 79 -34t79 -12q48 0 85 15q39 15 67 46q30 31 43 71
q15 40 14 89q1 51 -14 87q-13 39 -43 66q-30 28 -67 42t-85 14h-158z" />
    <glyph glyph-name="Ydieresis" unicode="&#xff;" horiz-adv-x="566" 
d="M4 698h27q63 -74 253 -299q64 75 253 299h25q-66 -78 -267 -317v-381h-23v381q-66 80 -268 317zM205 848h26v-86h-26v86zM343 848h27v-86h-27v86z" />
    <glyph glyph-name="Ydieresis" unicode="&#x178;" horiz-adv-x="566" 
d="M4 698h27q63 -74 253 -299q64 75 253 299h25q-66 -78 -267 -317v-381h-23v381q-66 80 -268 317zM205 848h26v-86h-26v86zM343 848h27v-86h-27v86z" />
    <glyph glyph-name="Amacron" unicode="&#x100;" horiz-adv-x="644" 
d="M313 703h18q77 -175 308 -703h-26q-27 63 -108 249h-367q-26 -61 -107 -249h-26q77 177 308 703zM322 668q-44 -99 -175 -399h349q-44 101 -174 399zM185 813v21h274v-21h-274z" />
    <glyph glyph-name="amacron" unicode="&#x101;" horiz-adv-x="420" 
d="M205 469q34 1 58 -8q24 -7 39 -25q15 -16 23 -42q7 -26 7 -61v-306q0 -8 2 -12q2 -3 5 -4q9 0 25 12q18 11 44 32v-20q-26 -21 -46 -33q-18 -10 -29 -11q-6 1 -10 1q-3 3 -7 6q-2 6 -3 12q-2 8 -2 18v38q-37 -36 -76 -56q-38 -18 -78 -19q-29 1 -53 7q-22 9 -39 24
q-17 16 -26 36q-8 22 -8 46q0 38 18 66q19 30 55 51q38 24 89 36q52 12 118 14v61q1 30 -5 53q-6 22 -18 36q-12 15 -34 21q-21 8 -51 8q-37 0 -73 -15t-74 -44v24q36 27 72 41q3 2 6 2q34 12 71 11zM52 104q0 -20 7 -38q7 -16 21 -30q14 -12 34 -19t43 -7q39 0 77 20
q39 20 77 58v165q-57 -1 -103 -11q-45 -9 -83 -30q-36 -20 -54 -47q-19 -27 -19 -61zM80 622h232v-21h-232v21z" />
    <glyph glyph-name="Abreve" unicode="&#x102;" horiz-adv-x="644" 
d="M313 703h18q77 -175 308 -703h-26q-27 63 -108 249h-367q-26 -61 -107 -249h-26q77 177 308 703zM322 668q-44 -99 -175 -399h349q-44 101 -174 399zM186 874h22q16 -46 44 -71t70 -25t70 25q30 25 43 71h22q-15 -57 -49 -87q-15 -13 -37 -21v0q-21 -8 -49 -8
q-26 0 -47 7q-21 9 -41 23q-18 18 -30 38q-10 22 -18 48z" />
    <glyph glyph-name="abreve" unicode="&#x103;" horiz-adv-x="420" 
d="M205 469q34 1 58 -8q24 -7 39 -25q15 -16 23 -42q7 -26 7 -61v-306q0 -8 2 -12q2 -3 5 -4q9 0 25 12q18 11 44 32v-20q-26 -21 -46 -33q-18 -10 -29 -11q-6 1 -10 1q-3 3 -7 6q-2 6 -3 12q-2 8 -2 18v38q-37 -36 -76 -56q-38 -18 -78 -19q-29 1 -53 7q-22 9 -39 24
q-17 16 -26 36q-8 22 -8 46q0 38 18 66q19 30 55 51q38 24 89 36q52 12 118 14v61q1 30 -5 53q-6 22 -18 36q-12 15 -34 21q-21 8 -51 8q-37 0 -73 -15t-74 -44v24q36 27 72 41q2 0 4 1q36 12 73 12zM52 104q0 -20 7 -38q7 -16 21 -30q14 -12 34 -19t43 -7q39 0 77 20
q39 20 77 58v165q-57 -1 -103 -11q-45 -9 -83 -30q-36 -20 -54 -47q-19 -27 -19 -61zM61 663h22q15 -48 44 -72q28 -25 70 -25q43 0 70 25q29 24 43 72h22q-15 -58 -49 -88q-23 -19 -56 -27q-14 -2 -30 -2q-26 0 -47 7q-22 9 -40 24q-18 16 -31 37q-10 22 -18 49z" />
    <glyph glyph-name="Aogonek" unicode="&#x104;" horiz-adv-x="644" 
d="M613 0q-27 63 -108 249h-367q-26 -61 -107 -249h-26q77 177 308 703h18q77 -175 308 -703h-6q-21 -15 -34 -39q-11 -25 -11 -59q0 -12 4 -23q4 -10 12 -18q10 -8 22 -12q12 -3 27 -4q12 0 21 2q12 2 21 2v-18q-6 -1 -18 -4q-10 -1 -24 -1q-20 0 -36 5q-15 6 -27 15
q-10 12 -17 25q-6 15 -6 31q1 18 4 32q5 15 11 29q8 15 15 23q9 10 16 14zM322 668q-44 -99 -175 -399h349q-44 101 -174 399z" />
    <glyph glyph-name="aogonek" unicode="&#x105;" horiz-adv-x="420" 
d="M205 469q34 1 58 -8q24 -7 39 -25q15 -16 23 -42q7 -26 7 -61v-306q0 -8 2 -12q2 -3 5 -4q9 0 25 12q18 11 44 32v-20q-18 -15 -34 -26q-16 -9 -28 -15q-18 -15 -27 -39q-9 -23 -9 -53q0 -12 4 -23q4 -10 13 -18t21 -12q12 -3 28 -4q12 0 21 2q11 2 21 2v-18
q-8 -1 -19 -4q-9 -1 -23 -1q-21 0 -37 5q-15 6 -27 15q-10 12 -16 25q-6 15 -6 31q0 30 9 51q9 24 26 39q-7 2 -10 11t-4 25v38q-37 -36 -76 -56q-38 -18 -78 -19q-29 1 -53 7q-22 9 -39 24q-17 16 -26 36q-8 22 -8 46q0 38 18 66q19 30 55 51q38 24 89 36q52 12 118 14v61
q1 30 -5 53q-6 22 -18 36q-12 15 -34 21q-21 8 -51 8q-37 0 -73 -15t-74 -44v24q36 27 72 41q38 14 77 13zM52 104q0 -20 7 -38q7 -16 21 -30q14 -12 34 -19t43 -7q39 0 77 20q39 20 77 58v165q-57 -1 -103 -11q-45 -9 -83 -30q-36 -20 -54 -47q-19 -27 -19 -61z" />
    <glyph glyph-name="Cacute" unicode="&#x106;" horiz-adv-x="658" 
d="M402 708q24 0 47 -3h3q32 -3 63 -10q55 -12 109 -39v-29q-51 29 -108 43q-56 15 -118 15q-69 1 -129 -23q-57 -24 -103 -71q-45 -48 -67 -108q-23 -59 -23 -134q0 -74 22 -134q24 -59 68 -107q46 -46 104 -71q58 -24 128 -24q62 0 118 15q57 14 108 44v-30
q-54 -24 -109 -38q-56 -12 -113 -13q-76 1 -140 25q-62 26 -112 75q-50 51 -74 114t-25 138q0 81 24 146t72 116q51 53 113 77q64 26 142 26zM346 745q32 40 125 160h25q-33 -39 -129 -160h-21z" />
    <glyph glyph-name="cacute" unicode="&#x107;" horiz-adv-x="403" 
d="M268 469q22 0 44 -3h1q6 0 12 -2q30 -4 58 -14v-22q-27 12 -57 16q-28 6 -58 6q-44 0 -82 -16q-36 -14 -66 -46q-28 -30 -43 -70q-15 -38 -15 -88q0 -48 15 -88t44 -70q30 -30 66 -46q37 -16 81 -16q30 0 58 6q30 6 57 16v-22q-28 -8 -58 -14q-27 -4 -57 -5q-48 1 -88 16
q-40 16 -74 49q-32 34 -48 77q-16 44 -17 95q1 54 16 98q17 44 47 76q34 34 74 51q40 16 90 16zM342 693h25q-33 -39 -129 -159h-21q32 39 125 159z" />
    <glyph glyph-name="Ccircumflex" unicode="&#x108;" horiz-adv-x="658" 
d="M402 708q57 0 113 -13q55 -12 109 -39v-29q-51 29 -108 43q-56 15 -118 15q-69 1 -129 -23q-57 -24 -103 -71q-45 -48 -67 -108q-23 -59 -23 -134q0 -74 22 -134q24 -59 68 -107q46 -46 104 -71q58 -24 128 -24q62 0 118 15q57 14 108 44v-30q-54 -24 -109 -38
q-56 -12 -113 -13q-76 1 -140 25q-62 26 -112 75q-50 51 -74 114t-25 138q0 81 24 146t72 116q51 53 113 77q60 24 131 25q5 1 8 1h3zM261 745q32 40 125 160h25q32 -39 125 -160h-21q-29 37 -117 145q-28 -36 -116 -145h-21z" />
    <glyph glyph-name="ccircumflex" unicode="&#x109;" horiz-adv-x="403" 
d="M268 469q30 1 57 -5q30 -4 58 -14v-22q-27 12 -57 16q-28 6 -58 6q-44 0 -82 -16q-36 -14 -66 -46q-28 -30 -43 -70q-15 -38 -15 -88q0 -48 15 -88t44 -70q30 -30 66 -46q37 -16 81 -16q30 0 58 6q30 6 57 16v-22q-28 -8 -58 -14q-27 -4 -57 -5q-48 1 -88 16
q-40 16 -74 49q-32 34 -48 77q-16 44 -17 95q1 54 16 98q17 44 47 76q34 34 74 51q36 15 79 16h11zM249 693h24q33 -39 125 -159h-20q-28 36 -117 144q-29 -36 -117 -144h-20q32 39 125 159z" />
    <glyph glyph-name="Cdot" unicode="&#x10a;" horiz-adv-x="658" 
d="M402 708q57 0 113 -13q55 -12 109 -39v-29q-51 29 -108 43q-56 15 -118 15q-69 1 -129 -23q-57 -24 -103 -71q-45 -48 -67 -108q-23 -59 -23 -134q0 -74 22 -134q24 -59 68 -107q46 -46 104 -71q58 -24 128 -24q62 0 118 15q57 14 108 44v-30q-54 -24 -109 -38
q-56 -12 -113 -13q-76 1 -140 25q-62 26 -112 75q-50 51 -74 114t-25 138q0 81 24 146t72 116q51 53 113 77q57 24 126 25q3 1 6 1h10zM381 848h29v-86h-7h-1h-21v86z" />
    <glyph glyph-name="cdot" unicode="&#x10b;" horiz-adv-x="403" 
d="M268 469q30 1 57 -5q30 -4 58 -14v-22q-27 12 -57 16q-28 6 -58 6q-44 0 -82 -16q-36 -14 -66 -46q-28 -30 -43 -70q-15 -38 -15 -88q0 -48 15 -88t44 -70q30 -30 66 -46q37 -16 81 -16q30 0 58 6q30 6 57 16v-22q-28 -8 -58 -14q-27 -4 -57 -5q-48 1 -88 16
q-40 16 -74 49q-32 34 -48 77q-16 44 -17 95q1 54 16 98q17 44 47 76q34 34 74 51q36 15 79 16h11zM251 635h29v-86h-12h-17v86z" />
    <glyph glyph-name="Ccaron" unicode="&#x10c;" horiz-adv-x="658" 
d="M402 708q57 0 113 -13q55 -12 109 -39v-29q-51 29 -108 43q-56 15 -118 15q-69 1 -129 -23q-57 -24 -103 -71q-45 -48 -67 -108q-23 -59 -23 -134q0 -74 22 -134q24 -59 68 -107q46 -46 104 -71q58 -24 128 -24q62 0 118 15q57 14 108 44v-30q-54 -24 -109 -38
q-56 -12 -113 -13q-76 1 -140 25q-62 26 -112 75q-50 51 -74 114t-25 138q0 81 24 146t72 116q51 53 113 77q24 9 50 15v0q44 11 92 11zM384 745q-30 40 -125 160h21q30 -36 116 -144q30 36 117 144h21q-32 -39 -125 -160h-6h-1h-18z" />
    <glyph glyph-name="ccaron" unicode="&#x10d;" horiz-adv-x="403" 
d="M268 469q30 1 57 -5q30 -4 58 -14v-22q-27 12 -57 16q-28 6 -58 6q-44 0 -82 -16q-36 -14 -66 -46q-28 -30 -43 -70q-15 -38 -15 -88q0 -48 15 -88t44 -70q30 -30 66 -46q37 -16 81 -16q30 0 58 6q30 6 57 16v-22q-28 -8 -58 -14q-27 -4 -57 -5q-48 1 -88 16
q-40 16 -74 49q-32 34 -48 77q-16 44 -17 95q1 54 16 98q17 44 47 76q34 34 74 51q8 3 17 6q34 10 73 10zM124 693h20q30 -36 117 -144q30 36 117 144h20q-30 -39 -125 -159h-5h-19q-31 39 -125 159z" />
    <glyph glyph-name="Dcaron" unicode="&#x10e;" horiz-adv-x="745" 
d="M82 0v698h82h157q83 0 149 -23q68 -23 119 -71q53 -46 79 -110q26 -62 26 -139q0 -81 -25 -146q-26 -63 -77 -113q-50 -46 -119 -72q-68 -24 -152 -24h-239zM104 23h224q76 1 136 22q63 23 109 68q49 45 73 102q24 58 24 127q0 78 -24 138q-22 62 -73 106q-47 46 -110 67
q-63 23 -139 23h-220v-653zM289 745q-31 40 -125 160h20q30 -36 117 -144q30 36 117 144h20q-30 -39 -125 -160h-24z" />
    <glyph glyph-name="dcaron" unicode="&#x10f;" horiz-adv-x="561" 
d="M432 0h-165q-48 0 -90 16q-39 16 -73 49q-30 33 -47 75q-15 42 -16 93q0 54 15 96t45 74q31 33 70 50q39 16 86 16q41 0 79 -12q40 -13 76 -37v278h20v-698zM412 19v377q-36 28 -76 41q-38 15 -80 14q-42 0 -78 -15q-34 -14 -62 -46q-26 -30 -40 -69t-14 -88
q0 -47 15 -86q15 -38 43 -68q30 -29 66 -44q38 -15 81 -16h145zM507 520v23q17 15 25 33q8 20 8 46h-19v76h40v-60q0 -24 -3 -44q-3 -18 -9 -30q-5 -10 -17 -22q-10 -10 -25 -22z" />
    <glyph glyph-name="Dcroat" unicode="&#x110;" horiz-adv-x="745" 
d="M0 343v23h82v332h239q83 0 149 -23q68 -23 119 -71q53 -46 79 -110q26 -62 26 -139q0 -81 -25 -146q-26 -63 -77 -113q-50 -46 -119 -72q-68 -24 -152 -24h-239v343h-82zM104 23h224q76 1 136 22q63 23 109 68q49 45 73 102q24 58 24 127q0 78 -24 138q-22 62 -73 106
q-47 46 -110 67q-63 23 -139 23h-220v-310h198v-23h-198v-320z" />
    <glyph glyph-name="dcroat" unicode="&#x111;" horiz-adv-x="502" 
d="M412 698h20v-97h70v-18h-70v-583h-165q-48 0 -90 16q-39 16 -73 49q-30 33 -47 75q-15 42 -16 93q0 54 15 96t45 74q31 33 70 50q39 16 86 16q41 0 79 -12q40 -13 76 -37v163h-176v18h176v97zM267 19h145v377q-36 28 -76 41q-38 15 -80 14q-42 0 -78 -15q-34 -14 -62 -46
q-26 -30 -40 -69t-14 -88q0 -47 15 -86q15 -38 43 -68q30 -29 66 -44q38 -15 81 -16z" />
    <glyph glyph-name="Emacron" unicode="&#x112;" horiz-adv-x="470" 
d="M82 698h42h307v-21h-327v-313h319v-23h-319v-319h335v-22h-357v698zM124 813v21h273v-21h-273z" />
    <glyph glyph-name="emacron" unicode="&#x113;" horiz-adv-x="462" 
d="M422 67v-23q-36 -26 -78 -40q-39 -12 -84 -13q-48 1 -88 17q-39 16 -71 49q-30 35 -45 77t-15 94q1 54 13 96q14 44 41 77q28 35 64 51q9 4 17 7q2 1 3 1q27 9 59 9q42 1 75 -13t58 -41q24 -27 39 -66q14 -39 17 -92h-364q0 1 0 -3v0q1 -2 1 -3t-1 -4v-5q-1 -3 -1 -6
q0 -51 14 -93q14 -41 41 -71t63 -46t80 -16q46 0 85 15q41 15 77 42zM66 275h338q-10 88 -53 132q-42 45 -114 44q-33 0 -61 -12q-28 -10 -52 -36q-24 -22 -38 -55t-20 -73zM125 622h232v-21h-97h-135v21z" />
    <glyph glyph-name="Ebreve" unicode="&#x114;" horiz-adv-x="470" 
d="M82 698h43h306v-21h-327v-313h319v-23h-319v-319h335v-22h-357v698zM125 874h21q16 -46 44 -71q30 -25 70 -25q42 0 71 25q28 25 43 71h21q-14 -57 -48 -87q-22 -20 -56 -26v0q-15 -3 -31 -3q-24 0 -47 7q-21 9 -40 23q-18 18 -30 38q-12 22 -18 48z" />
    <glyph glyph-name="ebreve" unicode="&#x115;" horiz-adv-x="462" 
d="M422 67v-23q-36 -26 -78 -40q-39 -12 -84 -13q-48 1 -88 17q-39 16 -71 49q-30 35 -45 77t-15 94q1 54 13 96q14 44 41 77q28 35 64 51q9 4 19 8q28 9 60 9q42 1 75 -13t58 -41q24 -27 39 -66q14 -39 17 -92h-364q0 1 0 -3v0q1 -2 1 -3t-1 -4v-5q-1 -3 -1 -6
q0 -51 14 -93q14 -41 41 -71t63 -46t80 -16q46 0 85 15q41 15 77 42zM66 275h338q-10 88 -53 132q-42 45 -114 44q-33 0 -61 -12q-28 -10 -52 -36q-24 -22 -38 -55t-20 -73zM111 663h21q16 -48 44 -72q28 -25 70 -25t70 25q30 24 43 72h22q-15 -58 -48 -88q-33 -27 -87 -29
v0q-26 0 -47 7q-21 9 -40 24q-18 16 -30 37q-12 22 -18 49z" />
    <glyph glyph-name="Edot" unicode="&#x116;" horiz-adv-x="470" 
d="M82 698h162h187v-21h-327v-313h319v-23h-319v-319h335v-22h-357v698zM244 848h28v-86h-28v86z" />
    <glyph glyph-name="edot" unicode="&#x117;" horiz-adv-x="462" 
d="M422 67v-23q-36 -26 -78 -40q-39 -12 -84 -13q-48 1 -88 17q-39 16 -71 49q-30 35 -45 77t-15 94q1 54 13 96q14 44 41 77q28 35 64 51q35 16 75 17h4q42 1 75 -13t58 -41q24 -27 39 -66q14 -39 17 -92h-364q0 1 0 -3v0q1 -2 1 -3t-1 -4v-5q-1 -3 -1 -6q0 -51 14 -93
q14 -41 41 -71t63 -46t80 -16q46 0 85 15q41 15 77 42zM66 275h338q-10 88 -53 132q-42 45 -114 44q-33 0 -61 -12q-28 -10 -52 -36q-24 -22 -38 -55t-20 -73zM231 635h29v-86h-29v86z" />
    <glyph glyph-name="Eogonek" unicode="&#x118;" horiz-adv-x="470" 
d="M82 698h349v-21h-327v-313h319v-23h-319v-319h335v-22h-62q-21 -15 -34 -39q-11 -25 -11 -59q0 -12 4 -23q4 -10 12 -18q10 -8 22 -12q12 -3 27 -4q12 0 21 2q12 2 21 2v-18q-6 -1 -18 -4q-10 -1 -24 -1q-20 0 -36 5q-15 6 -27 15q-10 12 -17 25q-6 15 -6 31q1 18 4 32
q5 15 11 29q8 15 15 23q9 10 16 14h-275v698z" />
    <glyph glyph-name="eogonek" unicode="&#x119;" horiz-adv-x="462" 
d="M422 67v-23q-34 -24 -74 -38q-38 -14 -82 -15q-15 -15 -24 -38q-9 -21 -9 -51q1 -12 4 -23q4 -10 13 -18t21 -12q13 -3 28 -4q12 0 21 2q10 2 21 2v-18q-8 -1 -18 -4q-10 -1 -24 -1q-21 0 -36 5q-15 6 -27 15q-10 12 -17 25q-6 15 -6 31q0 30 8 51q9 23 26 38
q-45 3 -84 21q-36 18 -66 49q-27 33 -42 75q-14 42 -14 92q1 54 13 96q14 44 41 77q28 35 64 51q37 18 79 17q42 1 75 -13t58 -41q24 -27 39 -66q14 -39 17 -92h-364q0 1 0 -3v0q1 -2 1 -3t-1 -4v-5q-1 -3 -1 -6q0 -51 14 -93q14 -41 41 -71t63 -46t80 -16q46 0 85 15
q41 15 77 42zM66 275h338q-10 88 -53 132q-42 45 -114 44q-33 0 -61 -12q-28 -10 -52 -36q-24 -22 -38 -55t-20 -73z" />
    <glyph glyph-name="Ecaron" unicode="&#x11a;" horiz-adv-x="470" 
d="M82 698h43h306v-21h-327v-313h319v-23h-319v-319h335v-22h-357v698zM250 745q-30 40 -125 160h20q30 -36 117 -144q30 36 117 144h20q-31 -39 -125 -160h-24z" />
    <glyph glyph-name="ecaron" unicode="&#x11b;" horiz-adv-x="462" 
d="M422 67v-23q-36 -26 -78 -40q-39 -12 -84 -13q-48 1 -88 17q-39 16 -71 49q-30 35 -45 77t-15 94q1 54 13 96q14 44 41 77q28 35 64 51q11 6 21 9q28 9 58 8q42 1 75 -13t58 -41q24 -27 39 -66q14 -39 17 -92h-364q0 1 0 -3v0q1 -2 1 -3t-1 -4v-5q-1 -3 -1 -6
q0 -51 14 -93q14 -41 41 -71t63 -46t80 -16q46 0 85 15q41 15 77 42zM66 275h338q-10 88 -53 132q-42 45 -114 44q-33 0 -61 -12q-28 -10 -52 -36q-24 -22 -38 -55t-20 -73zM106 693h21q30 -36 117 -144q30 36 116 144h21q-31 -39 -125 -159h-25q-31 39 -125 159z" />
    <glyph glyph-name="Gcircumflex" unicode="&#x11c;" horiz-adv-x="702" 
d="M624 656v-29q-51 29 -108 43q-56 15 -118 15q-70 1 -127 -23q-57 -22 -104 -70q-45 -46 -68 -104t-23 -129q0 -79 22 -143q22 -62 67 -110q45 -45 106 -69q62 -24 138 -24q57 1 107 13q52 14 97 37v225h-159v21h182v-262q-48 -27 -107 -42q-57 -14 -123 -14
q-80 0 -144 24q-63 25 -114 75q-48 52 -72 116q-24 66 -25 145q0 79 24 142q25 64 73 114q50 51 113 76t136 25h5q57 0 113 -13q55 -12 109 -39zM270 745q32 40 125 160h25q32 -39 125 -160h-21q-28 37 -116 145q-30 -36 -117 -145h-21z" />
    <glyph glyph-name="gcircumflex" unicode="&#x11d;" horiz-adv-x="414" 
d="M401 460v-18h-127q22 -6 38 -20q16 -12 28 -32q12 -18 18 -39t6 -46q0 -27 -9 -51t-27 -48q-18 -22 -46 -39q-28 -15 -67 -23q-33 -6 -57 -13q-22 -7 -35 -16q-11 -7 -19 -19q-6 -9 -6 -23q0 -9 2 -17t4 -14q4 -4 10 -9q6 -3 15 -7l18 -4q9 0 18 -3q9 1 22 -2q15 0 32 -3
q20 0 35 -3q18 -1 32 -4q60 -9 90 -38q32 -29 31 -77q1 -28 -13 -52q-12 -22 -40 -41q-26 -17 -62 -26q-34 -9 -80 -9q-45 0 -81 8q-34 9 -61 24q-26 18 -39 40t-13 50q0 24 9 43t23 34q16 15 39 26q24 11 52 15q-31 6 -49 22q-16 16 -16 43q0 33 23 52q25 21 70 30
q-27 6 -50 18q-21 13 -39 34q-16 21 -25 46q-8 26 -8 53q0 36 12 64t34 50q25 22 55 33q27 9 57 11h10h186zM69 302q0 -28 9 -53q9 -22 27 -43q21 -18 44 -29q25 -9 55 -10q30 0 54 9q24 10 44 30q21 20 30 44q10 26 10 54q0 30 -9 55t-28 43q-17 21 -43 30q-24 9 -53 9
t-55 -9q-24 -8 -45 -29q-20 -17 -30 -43q-9 -26 -10 -58zM40 -114q0 -24 11 -43q12 -19 33 -33q22 -14 54 -20t74 -7q42 1 72 7q33 8 55 22q23 15 35 35q12 21 11 45q0 51 -42 77q-41 25 -125 25q-88 0 -134 -27q-44 -27 -44 -81zM195 693h24q32 -39 125 -159h-20
q-30 36 -117 144q-29 -36 -117 -144h-20q32 39 125 159z" />
    <glyph glyph-name="Gbreve" unicode="&#x11e;" horiz-adv-x="702" 
d="M624 656v-29q-51 29 -108 43q-56 15 -118 15q-70 1 -127 -23q-57 -22 -104 -70q-45 -46 -68 -104t-23 -129q0 -79 22 -143q22 -62 67 -110q45 -45 106 -69q62 -24 138 -24q57 1 107 13q52 14 97 37v225h-159v21h182v-262q-48 -27 -107 -42q-57 -14 -123 -14
q-80 0 -144 24q-63 25 -114 75q-48 52 -72 116q-24 66 -25 145q0 79 24 142q25 64 73 114q50 51 113 76q23 9 45 13q2 2 3 1q45 11 93 11q57 0 113 -13q55 -12 109 -39zM268 874h22q16 -46 44 -71t69 -25q44 0 71 25q30 25 43 71h22q-15 -57 -49 -87q-34 -29 -87 -29v0
q-25 0 -47 7q-20 9 -40 23q-18 18 -30 38q-12 22 -18 48z" />
    <glyph glyph-name="gbreve" unicode="&#x11f;" horiz-adv-x="414" 
d="M401 460v-18h-127q22 -6 38 -20q16 -12 28 -32q12 -18 18 -39t6 -46q0 -27 -9 -51t-27 -48q-18 -22 -46 -39q-28 -15 -67 -23q-33 -6 -57 -13q-22 -7 -35 -16q-11 -7 -19 -19q-6 -9 -6 -23q0 -9 2 -17t4 -14q4 -4 10 -9q6 -3 15 -7l18 -4q9 0 18 -3q9 1 22 -2q15 0 32 -3
q20 0 35 -3q18 -1 32 -4q60 -9 90 -38q32 -29 31 -77q1 -28 -13 -52q-12 -22 -40 -41q-26 -17 -62 -26q-34 -9 -80 -9q-45 0 -81 8q-34 9 -61 24q-26 18 -39 40t-13 50q0 24 9 43t23 34q16 15 39 26q24 11 52 15q-31 6 -49 22q-16 16 -16 43q0 33 23 52q25 21 70 30
q-27 6 -50 18q-21 13 -39 34q-16 21 -25 46q-8 26 -8 53q0 36 12 64t34 50q25 22 57 34v0h1q30 10 64 10h186zM69 302q0 -28 9 -53q9 -22 27 -43q21 -18 44 -29q25 -9 55 -10q30 0 54 9q24 10 44 30q21 20 30 44q10 26 10 54q0 30 -9 55t-28 43q-17 21 -43 30q-24 9 -53 9
t-55 -9q-24 -8 -45 -29q-20 -17 -30 -43q-9 -26 -10 -58zM40 -114q0 -24 11 -43q12 -19 33 -33q22 -14 54 -20t74 -7q42 1 72 7q33 8 55 22q23 15 35 35q12 21 11 45q0 51 -42 77q-41 25 -125 25q-88 0 -134 -27q-44 -27 -44 -81zM82 663h21q17 -48 44 -72q30 -25 70 -25
q43 0 71 25q28 24 43 72h21q-14 -58 -48 -88q-33 -29 -87 -29q1 0 -1 0h-1q-24 0 -45 7q-22 9 -40 24q-18 16 -30 37q-12 22 -18 49z" />
    <glyph glyph-name="Gdot" unicode="&#x120;" horiz-adv-x="702" 
d="M624 656v-29q-51 29 -108 43q-56 15 -118 15q-70 1 -127 -23q-57 -22 -104 -70q-45 -46 -68 -104t-23 -129q0 -79 22 -143q22 -62 67 -110q45 -45 106 -69q62 -24 138 -24q57 1 107 13q52 14 97 37v225h-159v21h182v-262q-48 -27 -107 -42q-57 -14 -123 -14
q-80 0 -144 24q-63 25 -114 75q-48 52 -72 116q-24 66 -25 145q0 79 24 142q25 64 73 114q50 51 113 76q57 22 126 24q3 1 7 1h8q57 0 113 -13q55 -12 109 -39zM383 848h29v-86h-6h-23v86z" />
    <glyph glyph-name="gdot" unicode="&#x121;" horiz-adv-x="414" 
d="M401 460v-18h-127q22 -6 38 -20q16 -12 28 -32q12 -18 18 -39t6 -46q0 -27 -9 -51t-27 -48q-18 -22 -46 -39q-28 -15 -67 -23q-33 -6 -57 -13q-22 -7 -35 -16q-11 -7 -19 -19q-6 -9 -6 -23q0 -9 2 -17t4 -14q4 -4 10 -9q6 -3 15 -7l18 -4q9 0 18 -3q9 1 22 -2q15 0 32 -3
q20 0 35 -3q18 -1 32 -4q60 -9 90 -38q32 -29 31 -77q1 -28 -13 -52q-12 -22 -40 -41q-26 -17 -62 -26q-34 -9 -80 -9q-45 0 -81 8q-34 9 -61 24q-26 18 -39 40t-13 50q0 24 9 43t23 34q16 15 39 26q24 11 52 15q-31 6 -49 22q-16 16 -16 43q0 33 23 52q25 21 70 30
q-27 6 -50 18q-21 13 -39 34q-16 21 -25 46q-8 26 -8 53q0 36 12 64t34 50q25 22 55 33q26 9 54 10q2 1 5 1h8h186zM69 302q0 -28 9 -53q9 -22 27 -43q21 -18 44 -29q25 -9 55 -10q30 0 54 9q24 10 44 30q21 20 30 44q10 26 10 54q0 30 -9 55t-28 43q-17 21 -43 30
q-24 9 -53 9t-55 -9q-24 -8 -45 -29q-20 -17 -30 -43q-9 -26 -10 -58zM40 -114q0 -24 11 -43q12 -19 33 -33q22 -14 54 -20t74 -7q42 1 72 7q33 8 55 22q23 15 35 35q12 21 11 45q0 51 -42 77q-41 25 -125 25q-88 0 -134 -27q-44 -27 -44 -81zM193 635h28v-86h-9h-19v86z
" />
    <glyph glyph-name="Gcedilla" unicode="&#x122;" horiz-adv-x="702" 
d="M624 656v-29q-51 29 -108 43q-56 15 -118 15q-70 1 -127 -23q-57 -22 -104 -70q-45 -46 -68 -104t-23 -129q0 -79 22 -143q22 -62 67 -110q45 -45 106 -69q62 -24 138 -24q57 1 107 13q52 14 97 37v225h-159v21h182v-262q-48 -27 -107 -42q-57 -14 -123 -14h-20
q-68 3 -124 24q-63 25 -114 75q-48 52 -72 116q-24 66 -25 145q0 79 24 142q25 64 73 114q50 51 113 76q65 25 141 25q57 0 113 -13q55 -12 109 -39zM376 -255v23q18 14 25 33q9 21 8 45h-19v77h12h28v-60q0 -26 -3 -44t-9 -30q-6 -10 -17 -22q-9 -10 -25 -22z" />
    <glyph glyph-name="gcedilla" unicode="&#x123;" horiz-adv-x="414" 
d="M401 460v-18h-127q22 -6 38 -20q16 -12 28 -32q12 -18 18 -39t6 -46q0 -27 -9 -51t-27 -48q-18 -22 -46 -39q-28 -15 -67 -23q-33 -6 -57 -13q-22 -7 -35 -16q-11 -7 -19 -19q-6 -9 -6 -23q0 -9 2 -17t4 -14q4 -4 10 -9q6 -3 15 -7l18 -4q9 0 18 -3q9 1 22 -2q15 0 32 -3
q20 0 35 -3q18 -1 32 -4q60 -9 90 -38q32 -29 31 -77q1 -28 -13 -52q-12 -22 -40 -41q-26 -17 -62 -26q-34 -9 -80 -9q-45 0 -81 8q-34 9 -61 24q-26 18 -39 40t-13 50q0 24 9 43t23 34q16 15 39 26q24 11 52 15q-31 6 -49 22q-16 16 -16 43q0 33 23 52q25 21 70 30
q-27 6 -50 18q-21 13 -39 34q-16 21 -25 46q-8 26 -8 53q0 36 12 64t34 50q25 22 55 33t67 11h32h154zM69 302q0 -28 9 -53q9 -22 27 -43q21 -18 44 -29q25 -9 55 -10q30 0 54 9q24 10 44 30q21 20 30 44q10 26 10 54q0 30 -9 55t-28 43q-17 21 -43 30q-24 9 -53 9t-55 -9
q-24 -8 -45 -29q-20 -17 -30 -43q-9 -26 -10 -58zM40 -114q0 -24 11 -43q12 -19 33 -33q22 -14 54 -20t74 -7q42 1 72 7q33 8 55 22q23 15 35 35q12 21 11 45q0 51 -42 77q-41 25 -125 25q-88 0 -134 -27q-44 -27 -44 -81zM247 710v-23q-15 -13 -25 -33q-8 -20 -8 -46h18
v-77h-20h-19v61q0 26 3 44q3 20 9 30q7 12 17 22q10 12 25 22z" />
    <glyph glyph-name="Hcircumflex" unicode="&#x124;" horiz-adv-x="707" 
d="M82 698h22v-332h498v332h23v-698h-23v343h-498v-343h-22v698zM216 745q32 40 125 160h25q32 -39 124 -160h-20q-28 37 -117 145q-29 -36 -116 -145h-21z" />
    <glyph glyph-name="hcircumflex" unicode="&#x125;" horiz-adv-x="489" 
d="M257 469q42 0 72 -12q30 -11 50 -38q21 -26 30 -59q10 -33 10 -73v-287h-21v284q0 38 -8 68t-26 52q-16 24 -44 35q-27 11 -63 11q-53 0 -97 -29q-42 -27 -76 -85v-336h-21v698h21v-330q15 24 33 41q20 20 42 32q23 15 47 21q26 8 51 7zM236 905h24q32 -39 125 -160h-20
q-30 37 -117 145q-28 -36 -117 -145h-20q32 40 125 160z" />
    <glyph glyph-name="Hbar" unicode="&#x126;" horiz-adv-x="707" 
d="M82 698h22v-138h498v138h23v-138h81v-22h-81v-538h-23v343h-498v-343h-22v538h-81v22h81v138zM104 366h498v172h-498v-172z" />
    <glyph glyph-name="hbar" unicode="&#x127;" horiz-adv-x="489" 
d="M263 469q42 0 72 -12q30 -11 50 -38q21 -26 30 -59q10 -33 10 -73v-287h-21v284q0 38 -8 67q-8 30 -26 52q-16 23 -44 35q-27 12 -63 12q-53 0 -97 -29q-42 -27 -76 -85v-336h-20v583h-70v18h70v97h20v-97h180v-18h-180v-215q15 24 33 41q20 20 42 32q23 15 47 21
q26 8 51 7z" />
    <glyph glyph-name="Itilde" unicode="&#x128;" horiz-adv-x="186" 
d="M82 698h22v-698h-22v698zM15 870q15 0 28 -4q15 -4 28 -15q13 -9 27 -19q14 -9 25 -19q13 -9 25 -14t22 -5q30 0 44 19t14 57h21q1 -48 -19 -72t-59 -25h-6v0q-15 1 -31 9q-20 10 -43 29q-21 21 -41 29q-18 10 -34 10q-28 0 -43 -19q-13 -19 -15 -58h-20q0 25 4 43
q6 18 16 30q12 12 25 18q15 6 32 6z" />
    <glyph glyph-name="itilde" unicode="&#x129;" horiz-adv-x="160" 
d="M72 460h20v-460h-20v460zM4 658q14 0 28 -4q15 -4 27 -14q15 -9 27 -19q14 -9 26 -20q14 -9 24 -14q12 -5 23 -5q28 0 43 19t15 57h21q0 -48 -20 -72q-18 -24 -58 -25h-7q-14 3 -30 9q-19 10 -43 29q-21 21 -41 29q-19 10 -34 10q-27 0 -42 -19t-16 -58h-21q0 25 5 43
q6 18 16 30q11 12 25 18t32 6z" />
    <glyph glyph-name="Imacron" unicode="&#x12a;" horiz-adv-x="186" 
d="M82 698h22v-698h-22v698zM-44 813v21h273v-21h-125h-148z" />
    <glyph glyph-name="imacron" unicode="&#x12b;" horiz-adv-x="160" 
d="M72 460h20v-460h-20v460zM-34 622h233v-21h-107h-126v21z" />
    <glyph glyph-name="Ibreve" unicode="&#x12c;" horiz-adv-x="186" 
d="M82 698h22v-698h-22v698zM-42 874h22q16 -46 43 -71q30 -25 70 -25q43 0 71 25t43 71h21q-14 -57 -48 -87q-32 -29 -83 -29q1 0 -1 0h-3q-25 0 -47 7q-20 9 -40 23q-18 18 -30 38q-12 22 -18 48z" />
    <glyph glyph-name="ibreve" unicode="&#x12d;" horiz-adv-x="160" 
d="M72 460h20v-460h-20v460zM-53 663h21q16 -48 44 -72q28 -25 70 -25t71 25q28 24 43 72h21q-15 -58 -48 -88q-32 -27 -85 -29h-2v0q-24 0 -47 7q-21 9 -40 24q-18 16 -30 37q-12 22 -18 49z" />
    <glyph glyph-name="Iogonek" unicode="&#x12e;" horiz-adv-x="186" 
d="M82 0v698h22q0 -174 -3 -698v0q-21 -15 -33 -39q-12 -25 -12 -59q0 -12 4 -23q4 -10 13 -18t21 -12q12 -3 28 -4q12 0 21 2q11 2 21 2v-18q-8 -1 -18 -4q-10 -1 -24 -1q-21 0 -36 5q-16 6 -28 15q-10 12 -16 25q-6 15 -6 31q0 18 4 32q4 15 10 29q8 15 16 23q8 10 16 14z
" />
    <glyph glyph-name="iogonek" unicode="&#x12f;" horiz-adv-x="160" 
d="M70 0v460h20v-460h-20zM70 0h19q-21 -15 -34 -39q-11 -25 -11 -59q0 -12 4 -23q4 -10 12 -18q10 -8 22 -12q12 -3 28 -4q10 0 21 2t21 2v-18q-8 -1 -19 -4q-9 -1 -23 -1q-21 0 -37 5q-15 6 -27 15q-10 12 -17 25q-5 15 -5 31q0 18 3 32q5 15 11 29q9 15 15 23q9 10 17 14
zM70 635h20v-86h-20v86z" />
    <glyph glyph-name="Idotaccent" unicode="&#x130;" horiz-adv-x="186" 
d="M82 698h22v-698h-22v698zM78 848h28q0 -22 -2 -86v0h-26v86z" />
    <glyph glyph-name="dotlessi" unicode="&#x131;" horiz-adv-x="164" 
d="M72 460h20v-460h-20v460z" />
    <glyph glyph-name="IJ" unicode="&#x132;" horiz-adv-x="372" 
d="M82 698h22v-698h-22v698zM129 -202q1 6 -2 22h7t7 -1q5 1 8 -1h6q29 0 50 9q21 10 35 30q14 21 20 51q8 33 7 75v715h23v-720q0 -90 -34 -136q-33 -46 -101 -46q-3 0 -10 1t-16 1z" />
    <glyph glyph-name="ij" unicode="&#x133;" horiz-adv-x="324" 
d="M70 0v460h20v-460h-20zM70 635h20v-86h-20v86zM133 -218q27 3 46 15t31 32q12 21 18 50t5 68v513h21v-514q0 -86 -29 -131q-28 -45 -88 -51q-1 6 -4 18zM233 635h21v-86h-21v86z" />
    <glyph glyph-name="Jcircumflex" unicode="&#x134;" horiz-adv-x="186" 
d="M-56 -202q0 6 -2 22h6q4 0 8 -1q6 1 8 -1h5q29 0 50 9q21 10 35 30q15 21 21 51q7 33 7 75v715h22v-720q0 -90 -33 -136t-102 -46q-3 0 -9 1t-16 1zM-48 745q32 40 125 160h24q33 -39 125 -160h-20q-28 37 -117 145q-29 -36 -120 -145v0h-17z" />
    <glyph glyph-name="jcircumflex" unicode="&#x135;" horiz-adv-x="160" 
d="M74 460h20v-514q0 -86 -29 -131q-28 -45 -88 -51q-1 6 -4 18q27 3 46 15q21 12 31 32q12 21 18 50t6 68v513zM72 693h24q32 -39 125 -159h-20q-29 36 -117 144q-28 -36 -117 -144h-20q32 39 125 159z" />
    <glyph glyph-name="Kcedilla" unicode="&#x136;" horiz-adv-x="489" 
d="M82 698h22v-348q84 87 334 348h30q-82 -86 -333 -347q91 -87 363 -351h-32q-90 88 -362 350v-350h-22v698zM223 -255v23q17 14 25 33q8 21 8 45h-18v77h40v-60q0 -26 -4 -44q-3 -18 -9 -30q-6 -10 -16 -22q-9 -10 -26 -22z" />
    <glyph glyph-name="kcedilla" unicode="&#x137;" horiz-adv-x="380" 
d="M70 0v698h20v-449q62 53 245 211h27q-63 -54 -253 -218q73 -60 291 -242h-29q-69 58 -281 233v-233h-20zM172 -255v23q18 14 25 33q9 21 8 45h-19v77h40v-60q0 -26 -3 -44t-9 -30q-6 -10 -16 -22q-10 -10 -26 -22z" />
    <glyph glyph-name="kgreenlandic" unicode="&#x138;" horiz-adv-x="371" 
d="M60 0v460h21v-211q62 53 245 211h27q-63 -54 -254 -218q73 -60 292 -242h-30q-69 58 -280 233v-233h-21z" />
    <glyph glyph-name="Lacute" unicode="&#x139;" horiz-adv-x="477" 
d="M82 698h22v-675h361v-23h-383v698zM48 745q32 40 125 160h25q-33 -39 -129 -160h-21z" />
    <glyph glyph-name="lacute" unicode="&#x13a;" horiz-adv-x="160" 
d="M70 698h20v-698h-20v698zM161 905h24q-31 -39 -129 -160h-20q32 40 125 160z" />
    <glyph glyph-name="Lcedilla" unicode="&#x13b;" horiz-adv-x="477" 
d="M82 698h22v-675h361v-23h-235h-148v698zM230 -255v23q18 14 25 33q9 21 8 45h-18v77h40v-60q0 -26 -3 -44q-2 -18 -10 -30q-6 -10 -16 -22q-10 -10 -26 -22z" />
    <glyph glyph-name="lcedilla" unicode="&#x13c;" horiz-adv-x="160" 
d="M70 698h20v-698h-20v698zM45 -255v23q17 14 25 33q8 21 8 45h-19v77h11v0h29v-60q0 -26 -3 -44t-9 -30q-6 -10 -16 -22q-11 -10 -26 -22z" />
    <glyph glyph-name="Lcaron" unicode="&#x13d;" horiz-adv-x="477" 
d="M82 698h22v-675h361v-23h-383v698zM269 520v23q17 15 25 33q8 20 8 46h-18v76h40v-60q0 -24 -3 -44q-3 -18 -10 -30q-6 -10 -16 -22q-9 -10 -26 -22z" />
    <glyph glyph-name="lcaron" unicode="&#x13e;" horiz-adv-x="228" 
d="M70 698h20v-698h-20v698zM174 520v23q18 15 25 33q9 20 8 46h-19v76h40v-60q0 -24 -3 -44q-3 -18 -9 -30q-6 -10 -16 -22q-10 -10 -26 -22z" />
    <glyph glyph-name="Ldot" unicode="&#x13f;" horiz-adv-x="477" 
d="M82 698h22v-675h361v-23h-383v698zM312 398h29v-86h-29v86z" />
    <glyph glyph-name="ldot" unicode="&#x140;" horiz-adv-x="190" 
d="M70 698h20v-698h-20v698zM162 395h28v-86h-28v86z" />
    <glyph glyph-name="Lslash" unicode="&#x141;" horiz-adv-x="477" 
d="M82 698h22v-351q46 39 184 153v-26l-184 -152v-299h361v-23h-383v302q-22 -20 -92 -79v26q24 21 92 79v370z" />
    <glyph glyph-name="lslash" unicode="&#x142;" horiz-adv-x="160" 
d="M70 0v322q-22 -18 -85 -70v26q21 18 85 69v351h20v-333q22 18 85 70v-25q-21 -18 -85 -71v-339h-20z" />
    <glyph glyph-name="Nacute" unicode="&#x143;" horiz-adv-x="762" 
d="M82 698h21q140 -165 554 -661v661h23v-698h-22q-138 166 -554 662v-662h-22v698zM337 745q32 40 125 160h24q-32 -39 -129 -160h-20z" />
    <glyph glyph-name="nacute" unicode="&#x144;" horiz-adv-x="489" 
d="M263 469q17 1 31 -2q2 0 1 0q22 -3 40 -10q30 -12 50 -38q21 -25 30 -58q10 -33 10 -76v-285h-21v278q0 40 -8 70q-8 32 -26 54q-16 24 -44 36q-27 12 -63 12q-52 0 -96 -29q-43 -27 -77 -85v-336h-20v460h20v-92q16 24 34 41q20 17 42 31q24 16 48 22q26 8 49 7z
M325 693h24q-31 -39 -129 -159h-20q32 39 125 159z" />
    <glyph glyph-name="Ncedilla" unicode="&#x145;" horiz-adv-x="762" 
d="M82 698h21q140 -165 554 -661v661h23v-698h-22q-138 166 -554 662v-662h-22v698zM334 -255v23q18 14 25 33q9 21 8 45h-19v77h40v-60q0 -26 -3 -44t-9 -30q-6 -10 -17 -22q-9 -10 -25 -22z" />
    <glyph glyph-name="ncedilla" unicode="&#x146;" horiz-adv-x="489" 
d="M263 469q42 0 72 -12t50 -38q21 -25 30 -58q10 -33 10 -76v-285h-21v278q0 40 -8 70q-8 32 -26 54q-16 24 -44 36q-27 12 -63 12q-52 0 -96 -29q-43 -27 -77 -85v-336h-20v460h20v-92q16 24 34 41q20 17 42 31q24 16 48 22q26 8 49 7zM216 -255v23q18 14 25 33q9 21 8 45
h-19v77h33h7v-60q0 -26 -3 -44t-9 -30q-6 -10 -16 -22q-10 -10 -26 -22z" />
    <glyph glyph-name="Ncaron" unicode="&#x147;" horiz-adv-x="762" 
d="M82 698h21q140 -165 554 -661v661h23v-698h-22q-138 166 -554 662v-662h-22v698zM369 745q-32 40 -125 160h20q30 -36 117 -144q30 36 117 144h20q-30 -39 -125 -160h-24z" />
    <glyph glyph-name="ncaron" unicode="&#x148;" horiz-adv-x="489" 
d="M263 469q42 0 72 -12t50 -38q21 -25 30 -58q10 -33 10 -76v-285h-21v278q0 40 -8 70q-8 32 -26 54q-16 24 -44 36q-27 12 -63 12q-52 0 -96 -29q-43 -27 -77 -85v-336h-20v460h20v-92q16 24 34 41q20 17 42 31q24 16 48 22q26 8 49 7zM120 693h20q30 -36 117 -144
q30 36 117 144h20q-30 -39 -125 -159h-24q-31 39 -125 159z" />
    <glyph glyph-name="napostrophe" unicode="&#x149;" horiz-adv-x="489" 
d="M263 469q42 0 72 -12t50 -38q21 -25 30 -58q10 -33 10 -76v-285h-21v278q0 40 -8 70q-8 32 -26 54q-16 24 -44 36q-27 12 -63 12q-52 0 -96 -29q-43 -27 -77 -85v-336h-20v460h20v-92q16 24 34 41q20 17 42 31q24 16 48 22q26 8 49 7zM-13 502v17q19 16 28 42
q10 25 10 61h-19v76h40v-60q0 -46 -15 -80q-12 -28 -36 -49l-1 -1q-4 -3 -7 -6z" />
    <glyph glyph-name="Eng" unicode="&#x14a;" horiz-adv-x="694" 
d="M494 11q33 1 54 11q22 10 34 30q12 22 18 52q6 32 6 72v241q0 65 -17 113q-17 51 -51 85q-33 38 -78 54q-42 18 -96 18q-46 0 -86 -12t-76 -38q-36 -24 -61 -56q-24 -30 -39 -68v-513h-22v698h22v-142q18 34 44 60q27 28 63 49q37 21 75 32q39 11 78 11q63 0 111 -20
q50 -20 84 -60q36 -40 54 -92q18 -51 18 -115v-248q1 -48 -8 -84q-8 -35 -26 -56q-16 -21 -42 -32q-26 -9 -59 -10h-10q-6 2 -16 2q0 8 -2 20h7q3 1 7 -1h8q3 0 6 -1z" />
    <glyph glyph-name="eng" unicode="&#x14b;" horiz-adv-x="489" 
d="M263 469q42 0 72 -12t50 -38q21 -25 30 -58q10 -33 10 -76v-339q1 -40 -7 -73q-6 -32 -23 -56q-14 -23 -36 -37q-21 -12 -51 -16q0 6 -4 18q18 3 31 6q14 6 23 12q12 8 18 20q8 12 12 26q6 18 9 32q3 16 4 33q3 18 3 40v51v276q0 40 -8 70q-8 32 -26 54q-16 24 -44 36
q-27 12 -63 12q-52 0 -96 -29q-43 -27 -77 -85v-336h-20v460h20v-92q16 24 34 41q20 17 42 31q24 16 48 22q26 8 49 7z" />
    <glyph glyph-name="Omacron" unicode="&#x14c;" horiz-adv-x="806" 
d="M400 708q56 0 102 -12q48 -12 89 -39q42 -24 72 -57q31 -33 51 -73q21 -39 31 -82q10 -42 10 -90q1 -79 -25 -145q-24 -64 -76 -117q-50 -51 -113 -76q-63 -26 -140 -26q-75 0 -138 26q-63 27 -112 77q-49 52 -75 114q-24 62 -25 134q0 81 26 147q25 65 76 116
q51 53 112 77q19 9 37 13q2 0 1 0q46 13 97 13zM407 685q-72 0 -132 -24q-58 -23 -106 -71q-45 -48 -70 -108q-23 -60 -23 -133q0 -69 23 -130q24 -58 69 -108q48 -49 104 -73q58 -24 126 -25q74 0 134 24t106 74t69 108q23 59 23 128q0 75 -22 134q-22 60 -69 108
q-45 48 -104 72q-57 24 -128 24zM265 813v21h274v-21h-138h-136z" />
    <glyph glyph-name="omacron" unicode="&#x14d;" horiz-adv-x="535" 
d="M266 451q-42 0 -78 -15q-36 -14 -66 -47q-28 -31 -44 -71q-16 -38 -16 -89q0 -47 15 -87q15 -38 43 -70q30 -30 66 -47q38 -15 81 -16q46 1 82 16q38 15 66 47q29 32 43 71q14 41 14 86q0 47 -14 86q-12 39 -42 71q-28 33 -66 48q-38 18 -84 17zM267 469q50 1 90 -17
q40 -16 72 -52q33 -33 48 -77q17 -43 17 -94q0 -49 -16 -93q-15 -42 -48 -77q-32 -33 -73 -51q-40 -16 -90 -17q-49 1 -89 16q-40 17 -73 50q-32 34 -48 76q-15 42 -16 92q1 54 16 98q17 45 47 77q34 36 73 52q12 4 22 8q33 9 68 9zM152 622h232v-21h-117h-115v21z" />
    <glyph glyph-name="Obreve" unicode="&#x14e;" horiz-adv-x="806" 
d="M400 708q56 0 102 -12q48 -12 89 -39q42 -24 72 -57q31 -33 51 -73q21 -39 31 -82q10 -42 10 -90q1 -79 -25 -145q-24 -64 -76 -117q-50 -51 -113 -76q-63 -26 -140 -26q-75 0 -138 26q-63 27 -112 77q-49 52 -75 114q-24 62 -25 134q0 81 26 147q25 65 76 116
q51 53 112 77q23 9 45 15h1q44 11 89 11zM407 685q-72 0 -132 -24q-58 -23 -106 -71q-45 -48 -70 -108q-23 -60 -23 -133q0 -69 23 -130q24 -58 69 -108q48 -49 104 -73q58 -24 126 -25q74 0 134 24t106 74t69 108q23 59 23 128q0 75 -22 134q-22 60 -69 108q-45 48 -104 72
q-57 24 -128 24zM266 874h22q16 -46 44 -71t69 -25q44 0 71 25q28 25 43 71h22q-15 -57 -49 -87q-33 -29 -87 -29q-25 0 -47 7q-20 9 -40 23q-18 18 -30 38q-12 22 -18 48z" />
    <glyph glyph-name="obreve" unicode="&#x14f;" horiz-adv-x="535" 
d="M266 451q-42 0 -78 -15q-36 -14 -66 -47q-28 -31 -44 -71q-16 -38 -16 -89q0 -47 15 -87q15 -38 43 -70q30 -30 66 -47q38 -15 81 -16q46 1 82 16q38 15 66 47q29 32 43 71q14 41 14 86q0 47 -14 86q-12 39 -42 71q-28 33 -66 48q-38 18 -84 17zM267 469q50 1 90 -17
q40 -16 72 -52q33 -33 48 -77q17 -43 17 -94q0 -49 -16 -93q-15 -42 -48 -77q-32 -33 -73 -51q-40 -16 -90 -17q-49 1 -89 16q-40 17 -73 50q-32 34 -48 76q-15 42 -16 92q1 54 16 98q17 45 47 77q34 36 73 52q10 4 19 7q33 10 71 10zM132 663h22q16 -48 43 -72
q30 -25 70 -25q44 0 71 25q28 24 43 72h21q-14 -58 -48 -88q-33 -29 -87 -29q-25 0 -47 7q-20 9 -40 24q-18 16 -30 37q-12 22 -18 49z" />
    <glyph glyph-name="Odblacute" unicode="&#x150;" horiz-adv-x="806" 
d="M400 708h13q3 0 6 -1q45 -1 83 -11q48 -12 89 -39q42 -24 72 -57q31 -33 51 -73q21 -39 31 -82q10 -42 10 -90q1 -79 -25 -145q-24 -64 -76 -117q-50 -51 -113 -76q-63 -26 -140 -26q-75 0 -138 26q-63 27 -112 77q-49 52 -75 114q-24 62 -25 134q0 81 26 147
q25 65 76 116q51 53 112 77q63 26 135 26zM407 685q-72 0 -132 -24q-58 -23 -106 -71q-45 -48 -70 -108q-23 -60 -23 -133q0 -69 23 -130q24 -58 69 -108q48 -49 104 -73q58 -24 126 -25q74 0 134 24t106 74t69 108q23 59 23 128q0 75 -22 134q-22 60 -69 108
q-45 48 -104 72q-57 24 -128 24zM302 745q32 40 125 160h25q-33 -39 -129 -160h-21zM443 745q33 40 125 160h25q-31 -39 -129 -160h-21z" />
    <glyph glyph-name="odblacute" unicode="&#x151;" horiz-adv-x="535" 
d="M266 451q-42 0 -78 -15q-36 -14 -66 -47q-28 -31 -44 -71q-16 -38 -16 -89q0 -47 15 -87q15 -38 43 -70q30 -30 66 -47q38 -15 81 -16q46 1 82 16q38 15 66 47q29 32 43 71q14 41 14 86q0 47 -14 86q-12 39 -42 71q-28 33 -66 48q-38 18 -84 17zM267 469h11q44 -2 79 -17
q40 -16 72 -52q33 -33 48 -77q17 -43 17 -94q0 -49 -16 -93q-15 -42 -48 -77q-32 -33 -73 -51q-40 -16 -90 -17q-49 1 -89 16q-40 17 -73 50q-32 34 -48 76q-15 42 -16 92q1 54 16 98q17 45 47 77q34 36 73 52q42 18 90 17zM288 693h24q-32 -39 -129 -159h-20q32 39 125 159
zM429 693h25q-33 -39 -129 -159h-21q32 39 125 159z" />
    <glyph glyph-name="OE" unicode="&#x152;" horiz-adv-x="880" 
d="M416 698h425v-21h-327v-313h319v-23h-319v-319h335v-22h-426q-85 0 -153 23q-68 24 -118 69q-50 46 -76 111q-24 67 -25 149q0 80 26 142q27 64 78 110q53 48 117 71q66 23 144 23zM76 349q0 -73 23 -133q22 -58 67 -104q46 -44 109 -68q65 -22 147 -22h70v655h-75
q-75 0 -137 -22q-60 -21 -109 -66q-47 -45 -71 -105t-24 -135z" />
    <glyph glyph-name="oe" unicode="&#x153;" horiz-adv-x="893" 
d="M482 309q10 38 27 66q18 30 42 51q25 22 55 32q30 12 63 11q43 1 75 -13q34 -14 58 -41t39 -66t17 -92h-363q1 -2 -1 -8v-17q0 -50 13 -90q14 -40 41 -71q27 -30 63 -46q36 -15 80 -15q45 0 85 15t77 42v-23q-37 -26 -77 -40q-40 -12 -85 -13q-38 1 -71 10q-32 11 -60 32
q-26 21 -46 51q-18 30 -32 68q-9 -36 -30 -67q-18 -30 -49 -51q-29 -22 -63 -32t-73 -11q-49 1 -89 17q-40 18 -73 50q-32 34 -48 77q-15 43 -16 94q1 53 16 95q15 44 47 76q34 36 73 52q42 18 90 17q39 0 71 -10q34 -9 61 -32q30 -21 50 -51q21 -28 33 -67zM267 9
q46 1 82 16q38 15 66 47q29 32 43 71q14 41 14 86q0 47 -14 86q-12 39 -42 71q-28 33 -66 48q-38 18 -84 17q-42 0 -78 -15q-36 -14 -66 -47q-28 -31 -44 -71q-16 -38 -16 -89q0 -47 15 -87q15 -38 43 -70q30 -30 66 -47q38 -15 81 -16zM496 275h340q-4 43 -19 76
q-13 33 -35 55q-20 24 -50 34q-28 12 -64 11q-33 0 -61 -12q-27 -12 -52 -36q-24 -22 -39 -55q-14 -32 -20 -73z" />
    <glyph glyph-name="Racute" unicode="&#x154;" horiz-adv-x="561" 
d="M82 0v698h165q27 0 48 -2q73 -8 113 -41q54 -42 54 -129q0 -36 -11 -66q-11 -28 -33 -51q-22 -21 -52 -35t-71 -19q19 -5 34 -13q17 -8 26 -18q12 -10 24 -26q12 -15 24 -36q56 -86 164 -262h-27q-38 60 -150 241q-18 31 -38 52q-18 21 -38 32q-18 11 -43 17q-23 6 -55 5
h-112v-347h-22zM104 370h92q60 0 104 8q46 10 76 25q32 19 46 49q15 30 15 73q1 45 -13 74q-12 30 -40 45q-26 18 -65 25q-39 9 -90 8h-125v-307zM193 745l124 160h25q-32 -39 -129 -160h-20z" />
    <glyph glyph-name="racute" unicode="&#x155;" horiz-adv-x="345" 
d="M254 469h6q18 -2 37 -11q24 -10 48 -34q-3 -6 -12 -16q-25 21 -46 30q-21 12 -37 11q-34 1 -74 -35q-40 -34 -86 -106v-308h-20v460h20v-123q44 66 84 99q42 33 80 33zM278 693h24q-32 -39 -129 -159h-20q32 39 125 159z" />
    <glyph glyph-name="Rcedilla" unicode="&#x156;" horiz-adv-x="561" 
d="M82 0v698h165q107 0 161 -43q54 -42 54 -129q0 -36 -11 -66q-11 -28 -33 -51q-22 -21 -52 -35t-71 -19q19 -5 34 -13q17 -8 26 -18q12 -10 24 -26q12 -15 24 -36q56 -86 164 -262h-27q-38 60 -150 241q-18 31 -38 52q-18 21 -38 32q-18 11 -43 17q-23 6 -55 5h-112v-347
h-22zM104 370h92q60 0 104 8q46 10 76 25q32 19 46 49q15 30 15 73q1 45 -13 74q-12 30 -40 45q-26 18 -65 25q-39 9 -90 8h-125v-307zM241 -255v23q18 14 24 33q9 21 8 45h-18v77h40v-60q0 -26 -3 -44t-9 -30q-7 -10 -17 -22q-10 -10 -25 -22z" />
    <glyph glyph-name="rcedilla" unicode="&#x157;" horiz-adv-x="345" 
d="M254 469q21 1 43 -11q24 -10 48 -34q-3 -6 -12 -16q-25 21 -46 30q-21 12 -37 11q-34 1 -74 -35q-40 -34 -86 -106v-308h-20v460h20v-123q44 66 84 99q42 33 80 33zM46 -255v23q18 14 25 33q9 21 8 45h-19v77h40v-60q0 -26 -3 -44t-9 -30q-6 -10 -16 -22q-10 -10 -26 -22
z" />
    <glyph glyph-name="Rcaron" unicode="&#x158;" horiz-adv-x="561" 
d="M82 0v698h33h132q107 0 161 -43q54 -42 54 -129q0 -36 -11 -66q-11 -28 -33 -51q-22 -21 -52 -35t-71 -19q19 -5 34 -13q17 -8 26 -18q12 -10 24 -26q12 -15 24 -36q56 -86 164 -262h-27q-38 60 -150 241q-18 31 -38 52q-18 21 -38 32q-18 11 -43 17q-23 6 -55 5h-112
v-347h-22zM104 370h92q60 0 104 8q46 10 76 25q32 19 46 49q15 30 15 73q1 45 -13 74q-12 30 -40 45q-26 18 -65 25q-39 9 -90 8h-125v-307zM240 745q-32 40 -125 160h20q30 -36 117 -144q30 36 117 144h20q-31 -39 -125 -160h-24z" />
    <glyph glyph-name="rcaron" unicode="&#x159;" horiz-adv-x="345" 
d="M254 469q21 1 43 -11q24 -10 48 -34q-3 -6 -12 -16q-25 21 -46 30q-21 12 -37 11q-34 1 -74 -35q-40 -34 -86 -106v-308h-20v460h20v-123q44 66 84 99q42 33 80 33zM58 693h21q30 -36 117 -144q30 36 116 144h21q-31 -39 -125 -159h-25q-31 39 -125 159z" />
    <glyph glyph-name="Sacute" unicode="&#x15a;" horiz-adv-x="429" 
d="M227 708q27 0 51 -4v0q14 -2 25 -5q36 -9 68 -26v-27q-35 21 -71 30q-36 10 -72 10t-66 -10q-30 -9 -53 -31q-22 -21 -36 -47q-12 -27 -12 -60q0 -28 8 -52q9 -24 23 -44q16 -20 47 -38t79 -36q52 -18 85 -39q35 -20 53 -42q21 -21 30 -51q9 -28 9 -66q0 -40 -12 -73
q-13 -31 -40 -57q-25 -24 -61 -37q-34 -12 -78 -12q-45 1 -87 13q-40 14 -78 40v27q41 -29 83 -44t83 -15q37 0 67 11q30 10 53 31q24 22 34 51q12 29 12 65q0 32 -9 58q-8 26 -25 43q-16 21 -49 38q-30 18 -78 36q-48 20 -81 38q-33 20 -53 41q-18 22 -29 50q-9 28 -10 64
q1 36 13 67q14 32 40 54q28 25 62 37t75 12zM184 745q32 40 125 160h25q-32 -39 -129 -160q1 0 -1 0h-20z" />
    <glyph glyph-name="sacute" unicode="&#x15b;" horiz-adv-x="337" 
d="M41 352q0 28 9 49t27 36q19 16 43 24q26 9 56 8q18 0 34 -3q12 -2 21 -5q27 -8 54 -24v-22q-27 18 -56 27q-27 9 -56 9q-26 1 -47 -7q-20 -6 -35 -19q-13 -11 -21 -31q-8 -18 -8 -41q0 -19 7 -35q7 -14 19 -28q14 -12 37 -25q24 -12 57 -26q34 -12 58 -26q24 -13 35 -28
q15 -12 20 -32q6 -17 6 -41q0 -26 -9 -49q-8 -21 -29 -38q-18 -17 -44 -26q-24 -8 -54 -8q-33 0 -65 9t-61 27v22q33 -19 64 -29q32 -10 62 -10q27 0 47 7q21 7 36 21q16 14 24 32q8 20 8 42q0 21 -6 36q-6 16 -20 28q-12 12 -37 25q-23 12 -57 24q-32 14 -56 26
q-22 13 -36 27q-12 15 -20 33q-6 19 -7 41zM250 693h24q-32 -39 -129 -159h-20q32 39 125 159z" />
    <glyph glyph-name="Scircumflex" unicode="&#x15c;" horiz-adv-x="429" 
d="M227 708q40 0 76 -9t68 -26v-27q-35 21 -71 30q-36 10 -72 10t-66 -10q-30 -9 -53 -31q-22 -21 -36 -47q-12 -27 -12 -60q0 -28 8 -52q9 -24 23 -44q16 -20 47 -38t79 -36q52 -18 85 -39q35 -20 53 -42q21 -21 30 -51q9 -28 9 -66q0 -40 -12 -73q-13 -31 -40 -57
q-25 -24 -61 -37q-34 -12 -78 -12q-45 1 -87 13q-40 14 -78 40v27q41 -29 83 -44t83 -15q37 0 67 11q30 10 53 31q24 22 34 51q12 29 12 65q0 32 -9 58q-8 26 -25 43q-16 21 -49 38q-30 18 -78 36q-48 20 -81 38q-33 20 -53 41q-18 22 -29 50q-9 28 -10 64q1 36 13 67
q14 32 40 54q28 25 62 37q32 12 70 12h5zM92 745q32 40 125 160h25q32 -39 125 -160h-21q-28 37 -117 145q-29 -36 -116 -145h-21z" />
    <glyph glyph-name="scircumflex" unicode="&#x15d;" horiz-adv-x="337" 
d="M41 352q0 28 9 49t27 36q19 16 43 24q22 8 46 8h10q28 1 55 -8q27 -8 54 -24v-22q-27 18 -56 27q-27 9 -56 9q-26 1 -47 -7q-20 -6 -35 -19q-13 -11 -21 -31q-8 -18 -8 -41q0 -19 7 -35q7 -14 19 -28q14 -12 37 -25q24 -12 57 -26q34 -12 58 -26q24 -13 35 -28
q15 -12 20 -32q6 -17 6 -41q0 -26 -9 -49q-8 -21 -29 -38q-18 -17 -44 -26q-24 -8 -54 -8q-33 0 -65 9t-61 27v22q33 -19 64 -29q32 -10 62 -10q27 0 47 7q21 7 36 21q16 14 24 32q8 20 8 42q0 21 -6 36q-6 16 -20 28q-12 12 -37 25q-23 12 -57 24q-32 14 -56 26
q-22 13 -36 27q-12 15 -20 33q-6 19 -7 41zM156 693h24q32 -39 125 -159h-20q-30 36 -117 144q-28 -36 -117 -144h-20q32 39 125 159z" />
    <glyph glyph-name="Scedilla" unicode="&#x15e;" horiz-adv-x="429" 
d="M135 -175q2 5 2 19q7 0 16 -2q9 0 20 -1q40 0 60 15q21 15 20 43q1 9 -2 16q-2 8 -6 12q-6 9 -16 13q-11 4 -26 7q-6 0 -21 2q3 10 12 42q-42 1 -82 15q-39 14 -73 38v27q41 -29 83 -44t83 -15q37 0 67 11q30 10 53 31q24 22 34 51q12 29 12 65q0 32 -9 58q-8 26 -25 43
q-16 21 -49 38q-30 18 -78 36q-48 20 -81 38q-33 20 -53 41q-18 22 -29 50q-9 28 -10 64q1 36 13 67q14 32 40 54q28 25 62 37t75 12q40 0 76 -9t68 -26v-27q-35 21 -71 30q-36 10 -72 10t-66 -10q-30 -9 -53 -31q-22 -21 -36 -47q-12 -27 -12 -60q0 -28 8 -52q9 -24 23 -44
q16 -20 47 -38t79 -36q52 -18 85 -39q35 -20 53 -42q21 -21 30 -51q9 -28 9 -66t-12 -70q-11 -32 -37 -57q-24 -24 -57 -38q-33 -12 -75 -14q-2 -9 -7 -27q27 -3 43 -15q16 -11 21 -33q3 -4 2 -9v-8q1 -18 -5 -33q-6 -14 -20 -25q-12 -9 -32 -15q-18 -4 -41 -5h-13
q-8 2 -16 2q-6 2 -11 2z" />
    <glyph glyph-name="scedilla" unicode="&#x15f;" horiz-adv-x="337" 
d="M89 -175q2 5 2 19q7 0 16 -2q9 0 20 -1q40 0 60 15q21 15 20 43q1 9 -2 16q-2 8 -6 12q-6 9 -16 13q-11 4 -26 7q-6 0 -21 2q3 11 11 43q-27 2 -55 10q-26 10 -53 25v22q33 -19 64 -29q32 -10 62 -10q27 0 47 7q21 7 36 21q16 14 24 32q8 20 8 42q0 21 -6 36
q-6 16 -20 28q-12 12 -37 25q-23 12 -57 24q-32 14 -56 26q-22 13 -36 27q-12 15 -20 33q-6 19 -7 41q0 28 9 49t27 36q19 16 43 24q26 9 56 8q28 1 55 -8q27 -8 54 -24v-22q-27 18 -56 27q-27 9 -56 9q-26 1 -47 -7q-20 -6 -35 -19q-13 -11 -21 -31q-8 -18 -8 -41
q0 -19 7 -35q7 -14 19 -28q14 -12 37 -25q24 -12 57 -26q34 -12 58 -26q24 -13 35 -28q15 -12 20 -32q6 -17 6 -41q0 -26 -9 -47q-8 -21 -28 -38q-18 -17 -43 -26q-23 -9 -53 -10q-2 -9 -7 -27q27 -3 43 -15q16 -11 21 -33q3 -4 2 -9v-8q0 -18 -6 -33q-4 -14 -19 -25
q-12 -9 -32 -15q-18 -4 -41 -5h-13q-10 2 -16 2q-6 2 -11 2z" />
    <glyph glyph-name="Scaron" unicode="&#x160;" horiz-adv-x="429" 
d="M227 708q40 0 76 -9t68 -26v-27q-35 21 -71 30q-36 10 -72 10t-66 -10q-30 -9 -53 -31q-22 -21 -36 -47q-12 -27 -12 -60q0 -28 8 -52q9 -24 23 -44q16 -20 47 -38t79 -36q52 -18 85 -39q35 -20 53 -42q21 -21 30 -51q9 -28 9 -66q0 -40 -12 -73q-13 -31 -40 -57
q-25 -24 -61 -37q-34 -12 -78 -12q-45 1 -87 13q-40 14 -78 40v27q41 -29 83 -44t83 -15q37 0 67 11q30 10 53 31q24 22 34 51q12 29 12 65q0 32 -9 58q-8 26 -25 43q-16 21 -49 38q-30 18 -78 36q-48 20 -81 38q-33 20 -53 41q-18 22 -29 50q-9 28 -10 64q1 36 13 67
q14 32 40 54q27 24 59 36q1 1 3 1q34 12 75 12zM198 745q-32 40 -125 160h20q30 -36 117 -144q30 36 117 144h20q-31 -39 -125 -160h-18h-6z" />
    <glyph glyph-name="scaron" unicode="&#x161;" horiz-adv-x="337" 
d="M41 352q0 28 9 49t27 36t39 23q2 0 1 0q3 2 3 1q26 9 56 8q28 1 55 -8q27 -8 54 -24v-22q-27 18 -56 27q-27 9 -56 9q-26 1 -47 -7q-20 -6 -35 -19q-13 -11 -21 -31q-8 -18 -8 -41q0 -19 7 -35q7 -14 19 -28q14 -12 37 -25q24 -12 57 -26q34 -12 58 -26q24 -13 35 -28
q15 -12 20 -32q6 -17 6 -41q0 -26 -9 -49q-8 -21 -29 -38q-18 -17 -44 -26q-24 -8 -54 -8q-33 0 -65 9t-61 27v22q33 -19 64 -29q32 -10 62 -10q27 0 47 7q21 7 36 21q16 14 24 32q8 20 8 42q0 21 -6 36q-6 16 -20 28q-12 12 -37 25q-23 12 -57 24q-32 14 -56 26
q-22 13 -36 27q-12 15 -20 33q-6 19 -7 41zM34 693h20q30 -36 117 -144q30 36 117 144h20q-30 -39 -125 -159h-24v0q-32 39 -125 159z" />
    <glyph glyph-name="Tcedilla" unicode="&#x162;" horiz-adv-x="571" 
d="M12 698h547v-21h-262v-677h-23v677h-262v21zM253 -255v23q17 14 25 33q8 21 8 45h-19v77h40v-60q0 -26 -3 -44t-9 -30q-6 -10 -16 -22q-11 -10 -26 -22z" />
    <glyph glyph-name="tcedilla" unicode="&#x163;" horiz-adv-x="281" 
d="M-6 441v19h110v115q6 4 21 16v-131h133v-19h-133v-317q0 -32 3 -53q4 -21 11 -35q9 -12 22 -19q15 -7 36 -7q18 0 36 5q19 7 40 16v-21q-17 -8 -37 -14q-18 -4 -39 -5q-9 1 -19 1h-3q-11 3 -23 6q-18 8 -28 22q-8 16 -14 42t-6 62v317h-110zM148 -255v23q18 14 25 33
q9 21 8 45h-18v77h40v-60q0 -26 -3 -44q-2 -18 -10 -30q-6 -10 -16 -22q-10 -10 -26 -22z" />
    <glyph glyph-name="Tcaron" unicode="&#x164;" horiz-adv-x="571" 
d="M12 698h136h411v-21h-262v-677h-23v677h-262v21zM273 745q-31 40 -125 160h21q30 -36 117 -144q30 36 116 144h21q-31 -39 -126 -160v0h-24z" />
    <glyph glyph-name="tcaron" unicode="&#x165;" horiz-adv-x="307" 
d="M-6 441v19h110v115q6 4 21 16v-131h133v-19h-133v-317q0 -32 3 -53q4 -21 11 -35q9 -12 22 -19q15 -7 36 -7q18 0 36 5q19 7 40 16v-21q-17 -8 -37 -14q-18 -4 -39 -5q-27 1 -45 7q-18 8 -28 22q-8 16 -14 42t-6 62v317h-110zM253 520v23q17 15 25 33q8 20 8 46h-19v76
h40v-60q0 -24 -3 -44q-3 -18 -9 -30q-6 -10 -16 -22q-11 -10 -26 -22z" />
    <glyph glyph-name="Tbar" unicode="&#x166;" horiz-adv-x="571" 
d="M12 698h547v-21h-262v-322h184v-22h-184v-333h-23v333h-184v22h184v322h-262v21z" />
    <glyph glyph-name="tbar" unicode="&#x167;" horiz-adv-x="281" 
d="M-6 253v18h110v170h-110v19h110v115q6 4 21 16v-131h133v-19h-133v-170h133v-18h-133v-129q1 -32 4 -56q5 -22 11 -34q9 -12 23 -18q15 -6 34 -6q18 0 36 5q19 7 40 16v-21q-17 -8 -37 -14q-18 -4 -39 -5q-25 1 -43 7q-16 8 -28 20q-10 14 -16 41t-6 65v129h-110z" />
    <glyph glyph-name="Utilde" unicode="&#x168;" horiz-adv-x="700" 
d="M74 698h22v-399q0 -60 17 -111q16 -51 49 -93q34 -41 80 -62t106 -21q63 0 109 21q48 21 81 61q34 42 50 93t16 112v399h23v-400q0 -64 -18 -120q-16 -54 -54 -99q-35 -44 -86 -66q-49 -21 -115 -22q-66 1 -119 22q-51 23 -89 65q-36 44 -54 100t-18 123v397zM272 870
q14 0 28 -4t28 -15q15 -9 27 -19q13 -9 25 -19q14 -9 25 -14q12 -5 22 -5q28 0 43 19t15 57h21q0 -48 -19 -72q-20 -24 -59 -25h-6q-14 3 -31 9q-19 10 -43 29q-21 21 -41 29q-18 10 -34 10q-27 0 -42 -19q-13 -19 -16 -58h-20q1 25 4 43q6 18 16 30q11 12 25 18q16 6 32 6z
" />
    <glyph glyph-name="utilde" unicode="&#x169;" horiz-adv-x="489" 
d="M65 460h20v-278q0 -38 9 -69q10 -32 26 -56q18 -23 44 -35q28 -12 62 -12q54 0 97 29q43 28 76 85v336h21v-460h-21v92q-12 -22 -33 -40q-18 -18 -42 -33q-22 -12 -48 -21q-24 -6 -50 -7q-40 1 -71 13q-30 12 -51 37q-20 26 -30 59q-9 34 -9 75v285zM167 658q15 0 28 -4
t27 -14q15 -9 27 -19q13 -9 25 -20q14 -9 25 -14q13 -5 23 -5q30 0 43 19q15 19 15 57h20q0 -48 -19 -72t-58 -25q-3 1 -10 1q1 0 -1 0q-12 2 -26 8q-20 10 -43 29q-23 21 -41 29q-18 10 -34 10q-28 0 -43 -19t-15 -58h-21q1 25 5 43q6 18 16 30t25 18t32 6z" />
    <glyph glyph-name="Umacron" unicode="&#x16a;" horiz-adv-x="700" 
d="M74 698h22v-399q0 -60 17 -111q16 -51 49 -93q34 -41 80 -62t106 -21q63 0 109 21q48 21 81 61q34 42 50 93t16 112v399h23v-400q0 -64 -18 -120q-16 -54 -54 -99q-35 -44 -86 -66q-49 -21 -115 -22q-66 1 -119 22q-51 23 -89 65q-36 44 -54 100t-18 123v397zM213 813v21
h273v-21h-132h-141z" />
    <glyph glyph-name="umacron" unicode="&#x16b;" horiz-adv-x="489" 
d="M65 460h20v-278q0 -38 9 -69q10 -32 26 -56q18 -23 44 -35q28 -12 62 -12q54 0 97 29q43 28 76 85v336h21v-460h-21v92q-12 -22 -33 -40q-18 -18 -42 -33q-22 -12 -48 -21q-24 -6 -50 -7q-40 1 -71 13q-30 12 -51 37q-20 26 -30 59q-9 34 -9 75v285zM129 622h232v-21
h-135h-97v21z" />
    <glyph glyph-name="Ubreve" unicode="&#x16c;" horiz-adv-x="700" 
d="M74 698h22v-399q0 -60 17 -111q16 -51 49 -93q34 -41 80 -62t106 -21q63 0 109 21q48 21 81 61q34 42 50 93t16 112v399h23v-400q0 -64 -18 -120q-16 -54 -54 -99q-35 -44 -86 -66q-49 -21 -115 -22q-66 1 -119 22q-51 23 -89 65q-36 44 -54 100t-18 123v397zM215 874h22
q15 -46 43 -71q30 -25 70 -25q42 0 71 25q28 25 43 71h21q-14 -57 -48 -87q-33 -29 -86 -29v0q1 0 -1 0q-24 0 -47 7q-21 9 -40 23q-18 18 -30 38q-12 22 -18 48z" />
    <glyph glyph-name="ubreve" unicode="&#x16d;" horiz-adv-x="489" 
d="M65 460h20v-278q0 -38 9 -69q10 -32 26 -56q18 -23 44 -35q28 -12 62 -12q54 0 97 29q43 28 76 85v336h21v-460h-21v92q-12 -22 -33 -40q-18 -18 -42 -33q-22 -12 -48 -21q-24 -6 -50 -7q-40 1 -71 13q-30 12 -51 37q-20 26 -30 59q-9 34 -9 75v285zM110 663h21
q15 -48 44 -72q28 -25 70 -25q43 0 70 25q29 24 43 72h22q-15 -58 -48 -88q-33 -29 -87 -29h-5h-3q-19 2 -39 7q-22 9 -40 24q-18 16 -31 37q-11 22 -17 49z" />
    <glyph glyph-name="Uring" unicode="&#x16e;" horiz-adv-x="700" 
d="M74 698h22v-399q0 -60 17 -111q16 -51 49 -93q34 -41 80 -62t106 -21q63 0 109 21q48 21 81 61q34 42 50 93t16 112v399h23v-400q0 -64 -18 -120q-16 -54 -54 -99q-35 -44 -86 -66q-49 -21 -115 -22q-66 1 -119 22q-51 23 -89 65q-36 44 -54 100t-18 123v397zM264 816
q0 18 6 33t19 28t28 19q17 6 33 6q20 0 33 -6q15 -6 28 -19t19 -28t6 -33t-6 -32q-4 -14 -18 -28q-12 -12 -28 -19q-14 -7 -34 -7q-16 0 -32 6q-14 6 -28 19q-12 13 -19 28t-7 33zM302 769q12 -9 23 -15q11 -4 25 -5q14 1 26 4q12 6 21 15q12 12 16 23q5 11 5 25t-5 26
q-3 12 -15 21q-10 12 -22 16q-12 5 -26 5t-25 -5q-10 -3 -22 -15q-9 -10 -15 -22q-4 -12 -5 -26q1 -14 5 -25q6 -12 14 -22z" />
    <glyph glyph-name="uring" unicode="&#x16f;" horiz-adv-x="489" 
d="M65 460h20v-278q0 -38 9 -69q10 -32 26 -56q18 -23 44 -35q28 -12 62 -12q54 0 97 29q43 28 76 85v336h21v-460h-21v92q-12 -22 -33 -40q-18 -18 -42 -33q-22 -12 -48 -21q-24 -6 -50 -7q-40 1 -71 13q-30 12 -51 37q-20 26 -30 59q-9 34 -9 75v285zM331 604
q0 -18 -6 -32q-5 -14 -19 -28q-12 -12 -27 -19t-34 -7h-4q-15 2 -29 6q-14 6 -28 19q-12 13 -19 28q-6 15 -6 33t6 33t18 28q14 13 29 19t33 6t33 -6t27 -19q13 -13 19 -28q8 -15 7 -33zM197 557q10 -9 22 -15q12 -4 26 -5q15 1 25 4q12 6 22 15q12 12 15 23q5 11 5 25
t-4 26q-3 12 -15 21q-9 12 -22 16q-11 5 -26 5q-13 0 -25 -5q-12 -3 -22 -15q-10 -10 -16 -22q-4 -12 -5 -26q1 -14 5 -25q6 -12 15 -22z" />
    <glyph glyph-name="Udblacute" unicode="&#x170;" horiz-adv-x="700" 
d="M74 698h22v-399q0 -60 17 -111q16 -51 49 -93q34 -41 80 -62t106 -21q63 0 109 21q48 21 81 61q34 42 50 93t16 112v399h23v-400q0 -64 -18 -120q-16 -54 -54 -99q-35 -44 -86 -66q-49 -21 -115 -22q-66 1 -119 22q-51 23 -89 65q-36 44 -54 100t-18 123v397zM250 745
q32 40 125 160h24q-31 -39 -129 -160h-20zM391 745q32 40 125 160h25q-33 -39 -129 -160h-21z" />
    <glyph glyph-name="udblacute" unicode="&#x171;" horiz-adv-x="489" 
d="M65 460h20v-278q0 -38 9 -69q10 -32 26 -56q18 -23 44 -35q28 -12 62 -12q54 0 97 29q43 28 76 85v336h21v-460h-21v92q-12 -22 -33 -40q-18 -18 -42 -33q-22 -12 -48 -21q-24 -6 -50 -7q-40 1 -71 13q-30 12 -51 37q-20 26 -30 59q-9 34 -9 75v285zM265 693h25
q-32 -39 -129 -159h-21q32 39 125 159zM407 693h24q-31 -39 -129 -159h-20q32 39 125 159z" />
    <glyph glyph-name="Uogonek" unicode="&#x172;" horiz-adv-x="700" 
d="M74 698h22v-399q0 -60 17 -111q16 -51 49 -93q34 -41 80 -62t106 -21q63 0 109 21q48 21 81 61q34 42 50 93t16 112v399h23v-400q0 -64 -18 -119q-18 -54 -54 -99q-34 -44 -85 -66q-50 -21 -113 -23q-15 -15 -24 -38q-8 -21 -8 -51q1 -12 4 -23q4 -10 12 -18q9 -8 21 -12
q14 -3 28 -4q12 0 21 2q11 2 21 2v-18q-8 -1 -18 -4q-10 -1 -24 -1q-21 0 -36 5q-15 6 -27 15q-11 12 -17 25q-6 15 -6 31q0 28 9 51t25 39q-64 4 -114 25q-48 24 -83 66q-33 43 -50 97q-17 56 -17 121v397z" />
    <glyph glyph-name="uogonek" unicode="&#x173;" horiz-adv-x="489" 
d="M399 0v92q-12 -22 -33 -40q-18 -18 -42 -33q-22 -12 -48 -21q-24 -6 -50 -7q-40 1 -71 13q-30 12 -51 37q-20 26 -30 59q-9 34 -9 75v285h20v-278q0 -38 9 -69q10 -32 26 -56q18 -23 44 -35q28 -12 62 -12q54 0 97 29q43 28 76 85v336h21q0 -114 -1 -460v0
q-21 -15 -34 -39q-11 -25 -11 -59q0 -12 4 -23q4 -10 12 -18q10 -8 22 -12q12 -3 27 -4q12 0 21 2q12 2 21 2v-18q-6 -1 -18 -4q-10 -1 -24 -1q-20 0 -36 5q-15 6 -27 15q-10 12 -17 25q-6 15 -6 31q1 18 4 32q5 15 11 29q8 15 15 23q9 10 16 14z" />
    <glyph glyph-name="Wcircumflex" unicode="&#x174;" horiz-adv-x="1049" 
d="M280 -7q-69 177 -276 705h25q63 -160 252 -647q59 163 239 647h7q63 -159 250 -641q61 161 241 641h26q-66 -176 -265 -705h-4q-63 163 -251 652q-60 -163 -244 -652v0zM389 745q32 40 125 160h25q32 -39 125 -160h-21q-29 37 -117 145q-28 -36 -116 -145h-21z" />
    <glyph glyph-name="wcircumflex" unicode="&#x175;" horiz-adv-x="734" 
d="M198 -9q-48 117 -196 469h23q45 -105 177 -425q40 107 160 425h10q40 -105 160 -425q46 107 178 425h22q-48 -117 -195 -469h-9q-39 106 -161 426q-41 -106 -161 -426h-8zM355 693h25q32 -39 125 -159h-21q-28 36 -116 144q-30 -36 -117 -144h-21q32 39 125 159z" />
    <glyph glyph-name="Ycircumflex" unicode="&#x176;" horiz-adv-x="566" 
d="M4 698h27q63 -74 253 -299q64 75 253 299h25q-66 -78 -267 -317v-381h-23v381q-66 80 -268 317zM146 745q32 40 125 160h25q32 -39 125 -160h-21q-28 37 -116 145q-30 -36 -117 -145h-21z" />
    <glyph glyph-name="ycircumflex" unicode="&#x177;" horiz-adv-x="419" 
d="M5 460h23q45 -88 183 -357q45 90 181 357h22q-88 -174 -354 -696h-21q40 81 162 319q-49 95 -196 377zM197 693h24q32 -39 125 -159h-20q-30 36 -117 144q-29 -36 -117 -144h-20q32 39 125 159z" />
    <glyph glyph-name="Zacute" unicode="&#x179;" horiz-adv-x="612" 
d="M5 0v9q139 167 551 668h-539v21h355h218v-14q-136 -166 -547 -662h563v-22h-601zM247 745q32 40 125 160h24q-32 -39 -129 -160h-20z" />
    <glyph glyph-name="zacute" unicode="&#x17a;" horiz-adv-x="392" 
d="M25 460h253h94v-8q-82 -108 -326 -434h336v-18h-367v9l324 432h-314v19zM278 693h24q-32 -39 -129 -159h-20q32 39 125 159z" />
    <glyph glyph-name="Zdot" unicode="&#x17b;" horiz-adv-x="612" 
d="M5 0v9q139 167 551 668h-539v21h270h303v-14q-136 -166 -547 -662h563v-22h-601zM287 848h28v-86h-28v86z" />
    <glyph glyph-name="zdot" unicode="&#x17c;" horiz-adv-x="392" 
d="M25 460h156h191v-8q-82 -108 -326 -434h336v-18h-367v9l324 432h-314v19zM181 635h29v-86h-29v86z" />
    <glyph glyph-name="Zcaron" unicode="&#x17d;" horiz-adv-x="612" 
d="M5 0v9q139 167 551 668h-539v21h154h419v-14q-136 -166 -547 -662h563v-22h-601zM296 745q-30 40 -125 160h20q30 -36 117 -144q30 36 117 144h20q-31 -39 -124 -160h-25z" />
    <glyph glyph-name="zcaron" unicode="&#x17e;" horiz-adv-x="392" 
d="M25 460h33h314v-8q-82 -108 -326 -434h336v-18h-367v9l324 432h-314v19zM58 693h21q30 -36 117 -144q30 36 116 144h21q-31 -39 -125 -159h-25q-31 39 -125 159z" />
    <glyph glyph-name="longs" unicode="&#x17f;" horiz-adv-x="221" 
d="M222 708q16 0 32 -4q15 -2 29 -10v-21q-15 8 -30 11q-15 4 -30 4q-53 0 -80 -38q-26 -38 -26 -114v-536h-21v441h-74v19h74v75q0 42 8 74q9 32 24 54q18 24 40 34q24 11 54 11z" />
    <glyph glyph-name="Schwa" unicode="&#x18f;" horiz-adv-x="712" 
d="M43 309h591q2 12 2 21v15q0 75 -19 136t-59 109q-38 48 -92 71q-52 24 -121 24q-77 0 -147 -22q-70 -21 -133 -67v29q36 23 69 38q33 16 66 25q32 10 68 15t74 5q52 0 94 -13q44 -11 80 -38q38 -23 64 -56q27 -33 45 -73q18 -39 27 -83q8 -44 8 -92q0 -80 -21 -146
q-21 -65 -67 -116q-42 -49 -99 -75q-54 -24 -123 -25q-68 1 -122 23q-54 24 -95 68q-39 46 -63 103q-21 57 -27 124zM632 287h-564q8 -63 29 -113q23 -48 59 -86q38 -36 84 -55q48 -19 107 -19q60 0 108 19q49 18 85 56q38 39 60 88q24 50 32 110z" />
    <glyph glyph-name="florin" unicode="&#x192;" 
d="M500 690q-2 -3 -6 -18q-15 8 -33 10q-16 3 -36 3q-27 0 -49 -9q-22 -8 -37 -29q-15 -19 -29 -55q-12 -36 -25 -90q-5 -20 -15 -64h130q0 -3 -4 -18h-130q-24 -114 -97 -460q-9 -48 -26 -81q-15 -33 -38 -54q-21 -20 -51 -30q-30 -9 -68 -10q-18 1 -39 4q-19 3 -40 10
q3 7 6 19q19 -6 37 -10q21 -4 39 -4q35 0 59 9q26 9 44 26q20 18 33 48q15 32 23 74q34 153 98 459h-116q2 4 4 18h116q4 16 14 64q12 54 27 93t32 62q17 24 43 36t59 12q23 0 41 -4q18 -3 34 -11z" />
    <glyph glyph-name="Ohorn" unicode="&#x1a0;" horiz-adv-x="806" 
d="M400 708q76 0 138 -24q63 -22 111 -71q31 0 52 8q21 7 34 21q15 15 20 42q7 28 7 70h20q0 -42 -7 -73q-6 -30 -21 -48q-14 -17 -36 -27q-21 -9 -51 -12q45 -48 66 -109q22 -60 22 -130q1 -79 -25 -145q-24 -64 -76 -117q-50 -51 -113 -76q-63 -26 -140 -26q-75 0 -138 26
q-63 27 -112 77q-49 52 -75 114q-24 62 -25 134q0 81 26 147q25 65 76 116q51 53 112 77q63 26 135 26zM407 685q-72 0 -132 -24q-58 -23 -106 -71q-45 -48 -70 -108q-23 -60 -23 -133q0 -69 23 -130q24 -58 69 -108q48 -49 104 -73q58 -24 126 -25q74 0 134 24t106 74
t69 108q23 59 23 128q0 75 -22 134q-22 60 -69 108q-45 48 -104 72q-57 24 -128 24z" />
    <glyph glyph-name="ohorn" unicode="&#x1a1;" horiz-adv-x="559" 
d="M267 469q61 1 107 -25q46 -24 79 -74q29 0 49 8q21 9 33 21q12 15 18 43t6 68h21q0 -42 -7 -73q-7 -30 -22 -48q-14 -17 -36 -27q-21 -9 -51 -12q16 -26 22 -58q8 -30 8 -63q0 -49 -16 -93q-15 -42 -48 -77q-32 -33 -73 -51q-40 -16 -90 -17q-49 1 -89 16q-40 17 -73 50
q-32 34 -48 76q-15 42 -16 92q1 54 16 98q17 45 47 77q34 36 73 52q42 18 90 17zM266 451q-42 0 -78 -15q-36 -14 -66 -47q-28 -31 -44 -71q-16 -38 -16 -89q0 -47 15 -87q15 -38 43 -70q30 -30 66 -47q38 -15 81 -16q46 1 82 16q38 15 66 47q29 32 43 71q14 41 14 86
q0 47 -14 86q-12 39 -42 71q-28 33 -66 48q-38 18 -84 17z" />
    <glyph glyph-name="Uhorn" unicode="&#x1af;" horiz-adv-x="731" 
d="M74 698h22v-399q0 -60 17 -111q16 -51 49 -93q34 -41 80 -62t106 -21q63 0 109 21q48 21 81 61q34 42 50 93t16 112v399h23v-85q32 1 53 7q22 8 35 21q15 15 20 43q6 28 6 70h21q0 -45 -8 -78q-8 -30 -25 -48q-15 -16 -42 -26q-24 -8 -60 -8v-296q0 -64 -18 -120
q-16 -54 -54 -99q-35 -44 -86 -66q-49 -21 -115 -22q-66 1 -119 22q-51 23 -89 65q-36 44 -54 100t-18 123v397z" />
    <glyph glyph-name="uhorn" unicode="&#x1b0;" horiz-adv-x="535" 
d="M65 460h20v-278q0 -38 9 -69q10 -32 26 -56q18 -23 44 -35q28 -12 62 -12q54 0 97 29q43 28 76 85v336h21v-90q32 0 53 7q23 6 35 20q14 15 20 43q8 28 7 70h20q1 -45 -8 -78q-7 -30 -25 -48q-15 -16 -41 -25q-25 -9 -61 -9v-350h-21v92q-12 -22 -33 -40q-18 -18 -42 -33
q-22 -12 -48 -21q-24 -6 -50 -7q-40 1 -71 13q-30 12 -51 37q-20 26 -30 59q-9 34 -9 75v285z" />
    <glyph glyph-name="Aringacute" unicode="&#x1fa;" horiz-adv-x="644" 
d="M237 772q0 18 6 33t18 28q14 13 29 19t33 6q16 0 30 -5q1 -1 3 -1q15 -6 27 -19q13 -13 19 -28q8 -15 7 -33q1 -14 -5 -29q-3 -14 -15 -26q-9 -11 -23 -20q-12 -7 -28 -10q100 -228 301 -687h-26q-27 63 -108 249h-367q-26 -61 -107 -249h-26q75 172 301 687
q-14 3 -28 11q-12 8 -22 19q-8 12 -14 26q-4 15 -5 29zM322 668q-44 -99 -175 -399h349q-44 101 -174 399zM275 820q-9 -10 -15 -22q-4 -12 -5 -26q1 -14 5 -25q4 -10 14 -22q12 -9 23 -15q12 -4 26 -5q13 1 25 4q12 6 22 15q10 12 15 22q5 12 5 26t-4 26t-15 21
q-9 12 -22 16q-12 5 -26 5t-26 -5t-22 -15zM399 973h25q-24 -25 -100 -100h-21z" />
    <glyph glyph-name="aringacute" unicode="&#x1fb;" horiz-adv-x="420" 
d="M205 469q15 1 30 -2v0q15 -2 28 -6q24 -7 39 -25q15 -16 23 -42q7 -26 7 -61v-306q0 -8 2 -12q2 -3 5 -4q9 0 25 12q18 11 44 32v-20q-26 -21 -46 -33q-18 -10 -29 -11q-6 1 -10 1q-3 3 -7 6q-2 6 -3 12q-2 8 -2 18v38q-37 -36 -76 -56q-38 -18 -78 -19q-29 1 -53 7
q-22 9 -39 24q-17 16 -26 36q-8 22 -8 46q0 38 18 66q19 30 55 51q38 24 89 36q52 12 118 14v61q1 30 -5 53q-6 22 -18 36q-12 15 -34 21q-21 8 -51 8q-37 0 -73 -15t-74 -44v24q36 27 72 41q38 14 77 13zM52 104q0 -20 7 -38q7 -16 21 -30q14 -12 34 -19t43 -7q39 0 77 20
q39 20 77 58v165q-57 -1 -103 -11q-45 -9 -83 -30q-36 -20 -54 -47q-19 -27 -19 -61zM283 584q0 -18 -6 -33q-5 -15 -19 -28q-12 -11 -28 -19q-15 -6 -33 -6t-33 6q-14 6 -28 18q-12 14 -19 29q-6 15 -6 33t6 33t18 27q14 14 29 19q15 7 33 7t33 -7q15 -5 27 -19
q13 -12 19 -27q8 -15 7 -33zM148 537q12 -9 23 -16q12 -5 26 -5q13 0 25 5q12 6 22 15q10 10 15 22t5 26q0 15 -4 25q-4 13 -15 22q-9 12 -22 15q-12 6 -26 5q-13 0 -25 -4q-12 -3 -22 -15q-10 -10 -16 -22q-4 -12 -5 -26q1 -14 5 -26q6 -10 14 -21zM284 857h24
q-32 -39 -129 -160h-20q32 40 125 160z" />
    <glyph glyph-name="AEacute" unicode="&#x1fc;" horiz-adv-x="829" 
d="M12 0q108 176 429 698h208h142v-21h-327v-313h318v-23h-318v-319h335v-22h-358v341h-195q-51 -85 -209 -341h-25zM260 364h181v294q-45 -72 -181 -294zM524 745q32 40 125 160h25q-32 -39 -129 -160h-21z" />
    <glyph glyph-name="aeacute" unicode="&#x1fd;" horiz-adv-x="692" 
d="M63 395v23q39 26 76 38q38 14 72 13q60 1 90 -31q31 -30 34 -93q9 30 22 51q15 22 35 39q22 17 46 26q10 3 22 5v0q14 3 28 3q80 1 122 -53q42 -52 47 -159h-321q0 -65 9 -113q9 -46 27 -76q18 -28 49 -43q32 -15 74 -15q44 0 83 15q40 15 76 45v-23q-36 -27 -76 -42
q-39 -14 -83 -14q-56 1 -95 23q-38 24 -62 69q-24 -24 -46 -42q-22 -17 -45 -29q-21 -10 -45 -16q-24 -4 -49 -5q-27 1 -49 7q-22 9 -39 24q-17 16 -26 36q-8 22 -8 46q0 33 14 59q15 27 45 45q32 21 87 36q57 18 138 30v59q0 32 -6 54t-18 36q-12 15 -33 21q-20 8 -49 7
q-33 1 -69 -14q-36 -14 -77 -42zM315 253q-71 -11 -122 -26q-49 -13 -79 -28t-44 -39q-15 -22 -15 -56q1 -20 7 -38q6 -16 20 -29q15 -11 33 -19q20 -6 42 -6q44 0 86 23q45 23 87 67q-6 26 -11 59q-3 34 -4 79v13zM338 275h297q-7 88 -45 132q-36 45 -103 44q-29 1 -56 -11
q-24 -10 -45 -34q-20 -24 -32 -56q-10 -32 -16 -75zM417 693h24q-31 -39 -129 -159h-20q32 39 125 159z" />
    <glyph glyph-name="Oslashacute" unicode="&#x1fe;" horiz-adv-x="806" 
d="M73 6q21 22 80 86q-51 52 -76 115q-26 66 -26 142q1 77 25 140q26 64 76 115q50 52 112 78q63 26 135 26q29 0 57 -4v0q42 -4 79 -19q61 -21 109 -68q28 31 84 91q6 -4 18 -18q-21 -21 -84 -90q46 -52 70 -115q24 -61 23 -136q1 -75 -25 -138q-24 -63 -76 -116
q-50 -51 -111 -78q-61 -26 -135 -26q-70 0 -130 21t-108 63q-26 -27 -79 -84q-3 5 -18 15zM169 110q53 56 119 128q68 72 147 157q83 87 129 138q48 51 64 67q-44 44 -101 64q-57 21 -125 21q-70 0 -128 -24q-57 -24 -105 -72q-45 -48 -70 -108q-23 -60 -23 -132
q0 -69 23 -130q25 -59 70 -109zM645 583q-114 -123 -459 -490q48 -39 102 -60q54 -20 115 -20q71 0 128 24q59 25 105 73q48 50 71 107q23 59 23 128t-21 129t-64 109zM357 745q33 40 125 160h25q-31 -39 -129 -160h-21z" />
    <glyph glyph-name="oslashacute" unicode="&#x1ff;" horiz-adv-x="542" 
d="M44 -13q16 18 62 72q-30 33 -46 76t-16 94q0 53 16 95q16 44 49 76q33 36 72 52q41 18 89 17q21 0 39 -3q3 0 3 -1q20 -3 36 -9q38 -12 69 -40q19 21 53 61q4 -3 15 -13q-12 -14 -54 -62q33 -34 49 -78q18 -42 17 -95q0 -49 -16 -93q-15 -42 -48 -77q-31 -33 -73 -51
q-40 -16 -90 -17q-42 1 -80 13q-36 14 -68 41l-63 -72q-3 5 -15 14zM475 229q1 48 -14 87q-13 40 -43 70q-94 -108 -284 -327q30 -23 62 -37q34 -12 74 -13q45 1 81 16q38 17 66 47q29 32 44 70q15 40 14 87zM269 451q-42 0 -80 -16q-35 -15 -65 -48q-28 -31 -44 -71
q-14 -39 -14 -87q0 -45 13 -84q15 -39 41 -70q94 109 283 325q-26 26 -59 38q-33 14 -75 13zM351 693h25q-32 -39 -129 -159h-21q32 39 125 159z" />
    <glyph glyph-name="Scommaaccent" unicode="&#x218;" horiz-adv-x="429" 
d="M227 708q40 0 76 -9t68 -26v-27q-35 21 -71 30q-36 10 -72 10t-66 -10q-30 -9 -53 -31q-22 -21 -36 -47q-12 -27 -12 -60q0 -28 8 -52q9 -24 23 -44q16 -20 47 -38t79 -36q52 -18 85 -39q35 -20 53 -42q21 -21 30 -51q9 -28 9 -66q0 -40 -12 -73q-13 -31 -40 -57
q-25 -24 -61 -37q-34 -12 -78 -12h-16q-36 3 -71 13q-40 14 -78 40v27q41 -29 83 -44t83 -15q37 0 67 11q30 10 53 31q24 22 34 51q12 29 12 65q0 32 -9 58q-8 26 -25 43q-16 21 -49 38q-30 18 -78 36q-48 20 -81 38q-33 20 -53 41q-18 22 -29 50q-9 28 -10 64q1 36 13 67
q14 32 40 54q28 25 62 37t75 12zM175 -255v23q17 14 25 33q8 21 8 45h-19v77h40v0v-60q0 -26 -3 -44t-9 -30q-6 -10 -16 -22q-11 -10 -26 -22z" />
    <glyph glyph-name="scommaaccent" unicode="&#x219;" horiz-adv-x="337" 
d="M41 352q0 28 9 49t27 36q19 16 43 24q26 9 56 8q28 1 55 -8q27 -8 54 -24v-22q-27 18 -56 27q-27 9 -56 9q-26 1 -47 -7q-20 -6 -35 -19q-13 -11 -21 -31q-8 -18 -8 -41q0 -19 7 -35q7 -14 19 -28q14 -12 37 -25q24 -12 57 -26q34 -12 58 -26q24 -13 35 -28
q15 -12 20 -32q6 -17 6 -41q0 -26 -9 -49q-8 -21 -29 -38q-18 -17 -44 -26q-24 -8 -54 -8q-9 1 -19 1h-4q-21 2 -42 8q-32 9 -61 27v22q33 -19 64 -29q32 -10 62 -10q27 0 47 7q21 7 36 21q16 14 24 32q8 20 8 42q0 21 -6 36q-6 16 -20 28q-12 12 -37 25q-23 12 -57 24
q-32 14 -56 26q-22 13 -36 27q-12 15 -20 33q-6 19 -7 41zM127 -255v23q17 14 25 33q8 21 8 45h-19v77h35h5v-60q0 -26 -3 -44t-9 -30q-6 -10 -16 -22q-11 -10 -26 -22z" />
    <glyph glyph-name="Tcommabelow" unicode="&#x21a;" horiz-adv-x="571" 
d="M12 698h547v-21h-262v-677h-23v677h-262v21zM253 -255v23q17 14 25 33q8 21 8 45h-19v77h40v-60q0 -26 -3 -44t-9 -30q-6 -10 -16 -22q-11 -10 -26 -22z" />
    <glyph glyph-name="tcommabelow" unicode="&#x21b;" horiz-adv-x="281" 
d="M-6 441v19h110v115q6 4 21 16v-131h133v-19h-133v-317q0 -32 3 -53q4 -21 11 -35q9 -12 22 -19q15 -7 36 -7q18 0 36 5q19 7 40 16v-21q-17 -8 -37 -14q-18 -4 -39 -5q-9 1 -19 1h-3q-11 3 -23 6q-18 8 -28 22q-8 16 -14 42t-6 62v317h-110zM148 -255v23q18 14 25 33
q9 21 8 45h-18v77h40v-60q0 -26 -3 -44q-2 -18 -10 -30q-6 -10 -16 -22q-10 -10 -26 -22z" />
    <glyph glyph-name="dotlessj" unicode="&#x237;" horiz-adv-x="164" 
d="M74 460h20v-514q0 -86 -29 -131q-28 -45 -88 -51q-1 6 -4 18q27 3 46 15q21 12 31 32q12 21 18 50t6 68v513z" />
    <glyph glyph-name="schwa" unicode="&#x259;" horiz-adv-x="462" 
d="M40 393v23q39 28 78 40q42 14 84 13q50 0 89 -16q39 -17 69 -51q32 -33 46 -75q15 -42 15 -96q1 -51 -13 -95t-41 -78q-27 -32 -64 -50q-34 -16 -79 -17q-40 1 -75 13q-33 14 -58 41q-23 28 -38 67q-14 40 -18 91q121 0 363 1v2v0q2 2 1 3v4v6v5q1 52 -13 93
q-12 41 -41 71q-27 32 -63 46q-36 16 -80 16q-45 0 -85 -14q-39 -14 -77 -43zM396 184h-339q14 -86 54 -131q42 -44 114 -44q33 0 61 12q28 13 52 35q24 26 39 57q15 32 19 71z" />
    <glyph glyph-name="afii57929" unicode="&#x2bc;" horiz-adv-x="174" 
d="M48 502v17q20 16 29 42q9 25 9 61h-18v76h40v-60q0 -46 -16 -80q-14 -34 -44 -56z" />
    <glyph glyph-name="circumflex" unicode="&#x2c6;" horiz-adv-x="334" 
d="M155 693h24q32 -39 125 -159h-20q-30 36 -117 144q-29 -36 -117 -144h-20q32 39 125 159z" />
    <glyph glyph-name="caron" unicode="&#x2c7;" horiz-adv-x="334" 
d="M30 693h20q30 -36 117 -144q30 36 117 144h20q-30 -39 -125 -159h-24q-32 39 -125 159z" />
    <glyph glyph-name="firsttonechinese" unicode="&#x2c9;" horiz-adv-x="341" 
d="M54 622h233v-21h-233v21z" />
    <glyph glyph-name="breve" unicode="&#x2d8;" horiz-adv-x="332" 
d="M31 663h21q16 -48 44 -72q28 -25 70 -25t71 25q28 24 43 72h21q-15 -58 -48 -88q-33 -29 -87 -29q-24 0 -47 7q-21 9 -40 24q-18 16 -30 37q-12 22 -18 49z" />
    <glyph glyph-name="dotaccent" unicode="&#x2d9;" horiz-adv-x="271" 
d="M121 635h29v-86h-29v86z" />
    <glyph glyph-name="ring" unicode="&#x2da;" horiz-adv-x="336" 
d="M254 604q0 -18 -6 -32t-19 -28q-12 -12 -27 -19q-16 -7 -34 -7t-33 6q-13 6 -27 19q-12 13 -19 28t-7 33t6 33t18 28q14 13 29 19t33 6t33 -6t27 -19q14 -13 20 -28t6 -33zM120 557q12 -9 22 -15q12 -4 26 -5q15 1 25 4q13 6 22 15q12 12 16 23q5 11 5 25t-5 26
q-3 12 -15 21q-10 12 -22 16q-12 5 -26 5t-25 -5q-10 -3 -22 -15q-9 -10 -15 -22t-6 -26t5 -25q6 -12 15 -22z" />
    <glyph glyph-name="ogonek" unicode="&#x2db;" horiz-adv-x="341" 
d="M145 0h20q-21 -14 -34 -38q-11 -24 -11 -56q0 -30 16 -45q18 -15 49 -16q12 0 21 2q12 2 21 2v-18q-6 -1 -18 -4q-10 -1 -24 -1q-20 0 -36 5q-15 6 -27 15q-10 12 -17 26q-6 16 -6 34q1 15 4 29q5 15 11 28q8 15 15 23q9 10 16 14z" />
    <glyph glyph-name="tilde" unicode="&#x2dc;" horiz-adv-x="338" 
d="M91 658q15 0 28 -4q15 -4 27 -14q15 -9 27 -19q14 -9 26 -20q14 -9 24 -14q13 -5 23 -5q30 0 44 19t14 57h21q1 -48 -20 -72q-19 -24 -58 -25q-16 0 -37 9q-20 10 -43 29q-21 21 -41 29q-18 10 -34 10q-28 0 -43 -19q-13 -19 -15 -58h-21q1 25 5 43q6 18 16 30
q12 12 25 18q15 6 32 6z" />
    <glyph glyph-name="hungarumlaut" unicode="&#x2dd;" horiz-adv-x="306" 
d="M194 693h24q-32 -39 -129 -159h-20q32 39 125 159zM335 693h24q-31 -39 -129 -159h-20q32 39 125 159z" />
    <glyph glyph-name="gravecmb" unicode="&#x300;" horiz-adv-x="0" 
d="M-347 693h24q33 -39 125 -159h-20q-32 39 -129 159z" />
    <glyph glyph-name="acutecmb" unicode="&#x301;" horiz-adv-x="0" 
d="M-200 693h25q-31 -39 -129 -159h-21q33 39 125 159z" />
    <glyph glyph-name="tildecmb" unicode="&#x303;" horiz-adv-x="0" 
d="M-329 658q15 0 28 -4q15 -4 28 -14q14 -9 26 -19q15 -9 26 -20q13 -9 25 -14t22 -5q30 0 44 19t14 57h21q1 -48 -20 -72q-19 -24 -58 -25q-16 0 -37 9q-20 10 -43 29q-21 21 -41 29q-18 10 -34 10q-28 0 -43 -19q-13 -19 -15 -58h-21q1 25 5 43q6 18 16 30q12 12 25 18
q15 6 32 6z" />
    <glyph glyph-name="hookabovecomb" unicode="&#x309;" horiz-adv-x="0" 
d="M-274 518v37h19t25 3t18 9q9 7 12 16q3 11 3 21q0 26 -18 38q-16 12 -54 12q-13 0 -25 -1q-10 0 -20 -3v19q10 3 21 4q12 1 24 1q47 0 71 -17t23 -53q0 -15 -6 -27q-5 -13 -17 -22q-10 -9 -25 -14q-13 -5 -31 -5v-18h-20z" />
    <glyph glyph-name="dotbelowcmb" unicode="&#x323;" horiz-adv-x="0" 
d="M-289 -92h29v-86h-29v86z" />
    <glyph glyph-name="numeralsigngreek" unicode="&#x374;" horiz-adv-x="177" 
d="M31 520q15 46 60 178h33q-18 -44 -73 -178h-20z" />
    <glyph glyph-name="numeralsignlowergreek" unicode="&#x375;" horiz-adv-x="177" 
d="M53 -101q19 45 73 178h20q-15 -45 -60 -178h-33z" />
    <glyph glyph-name="questiongreek" unicode="&#x37e;" horiz-adv-x="138" 
d="M30 -120v18q20 16 28 41q10 27 10 61h-19v77h40v-61t-15 -80q-14 -34 -44 -56zM49 460h37v-77h-37v77z" />
    <glyph glyph-name="tonos" unicode="&#x384;" horiz-adv-x="341" 
d="M155 550q9 38 32 148h31q-10 -36 -45 -148h-18z" />
    <glyph glyph-name="dialytikatonos" unicode="&#x385;" horiz-adv-x="341" 
d="M147 549q9 38 33 149h31q-11 -36 -45 -149h-19zM233 635h31v-86h-31v86zM77 635h31v-86h-31v86z" />
    <glyph glyph-name="Alphatonos" unicode="&#x386;" horiz-adv-x="644" 
d="M313 703h18q77 -175 308 -703h-26q-27 63 -108 249h-367q-26 -61 -107 -249h-26q77 177 308 703zM322 668q-44 -99 -175 -399h349q-44 101 -174 399zM32 529q9 43 33 169h30q-11 -42 -45 -169h-18z" />
    <glyph glyph-name="anoteleia" unicode="&#x387;" horiz-adv-x="135" 
d="M49 460h37v-77h-37v77z" />
    <glyph glyph-name="Epsilontonos" unicode="&#x388;" horiz-adv-x="523" 
d="M135 698h349v-21h-326v-313h318v-23h-318v-319h335v-22h-358v698zM0 529q9 43 33 169h30q-11 -42 -45 -169h-18z" />
    <glyph glyph-name="Etatonos" unicode="&#x389;" horiz-adv-x="759" 
d="M134 698h23v-332h497v332h23v-698h-23v343h-497v-343h-23v698zM0 529q9 43 33 169h30q-11 -42 -45 -169h-18z" />
    <glyph glyph-name="Iotatonos" unicode="&#x38a;" horiz-adv-x="238" 
d="M133 698h23v-698h-23v698zM0 529q9 43 33 169h30q-11 -42 -45 -169h-18z" />
    <glyph glyph-name="Omicrontonos" unicode="&#x38c;" horiz-adv-x="820" 
d="M415 708q55 0 101 -12q48 -12 89 -39q42 -24 72 -57q31 -33 51 -73q22 -39 31 -82q10 -42 10 -90q1 -79 -25 -145q-24 -64 -75 -117q-51 -51 -114 -76q-63 -26 -139 -26t-139 26q-61 27 -112 77q-48 52 -74 114q-25 62 -25 134q0 81 25 147q25 65 76 116q51 53 113 77
q63 26 135 26zM421 685q-72 0 -132 -24q-58 -23 -106 -71q-45 -48 -69 -108t-24 -133q0 -69 23 -130q24 -58 69 -108q48 -49 105 -73t126 -25q73 0 133 24t106 74t69 108q23 59 23 128q0 75 -22 134q-22 60 -69 108q-45 48 -103 72q-57 24 -129 24zM0 529q9 43 33 169h30
q-11 -42 -45 -169h-18z" />
    <glyph glyph-name="Upsilontonos" unicode="&#x38e;" horiz-adv-x="670" 
d="M108 698h26q64 -74 253 -299q63 75 253 299h26q-66 -78 -268 -317v-381h-22v381q-66 80 -268 317zM0 529q9 43 33 169h30q-11 -42 -45 -169h-18z" />
    <glyph glyph-name="Omegatonos" unicode="&#x38f;" horiz-adv-x="762" 
d="M90 0v22h222q-110 80 -167 172q-56 92 -56 194q1 72 22 128q23 58 65 102q44 46 101 67q57 23 125 23q70 0 126 -22q56 -20 100 -65q45 -44 66 -101q22 -57 22 -126q0 -106 -56 -200q-54 -92 -167 -172h222v-22h-251v24q114 80 170 171q57 92 57 192q1 70 -20 124
q-19 55 -61 94q-40 40 -92 60q-52 21 -116 20q-60 1 -111 -19q-51 -18 -93 -59q-42 -39 -63 -93q-21 -52 -21 -121q0 -105 56 -197q57 -92 171 -172v-24h-251zM0 529q9 43 33 169h30q-11 -42 -45 -169h-18z" />
    <glyph glyph-name="iotadieresistonos" unicode="&#x390;" horiz-adv-x="184" 
d="M70 50v410h20v-412q0 -18 5 -28q4 -9 13 -9q12 0 26 8q14 7 32 21v-21q-15 -13 -30 -19t-31 -7q-9 0 -16 3t-11 9q-3 6 -6 18q-2 12 -2 27zM67 549q9 38 32 149h31q-10 -36 -45 -149h-18zM153 635h30v-86h-30v86zM-4 635h31v-86h-31v86z" />
    <glyph glyph-name="Alpha" unicode="&#x391;" horiz-adv-x="644" 
d="M313 703h18q77 -175 308 -703h-26q-27 63 -108 249h-367q-26 -61 -107 -249h-26q77 177 308 703zM322 668q-44 -99 -175 -399h349q-44 101 -174 399z" />
    <glyph glyph-name="Beta" unicode="&#x392;" horiz-adv-x="518" 
d="M82 698h132q45 0 83 -9q39 -9 70 -32q33 -20 47 -53q16 -33 16 -78q0 -32 -8 -59t-27 -50q-16 -21 -43 -36q-24 -15 -57 -22q45 -1 81 -15q36 -12 60 -37q27 -23 39 -56q12 -32 12 -72q1 -39 -13 -72q-14 -30 -43 -57q-27 -24 -68 -37q-39 -13 -92 -13h-189v698zM104 677
v-310h94q105 0 156 39q52 39 52 115q0 79 -51 117q-51 39 -154 39h-97zM104 22h163q44 0 77 9q36 9 63 28q28 21 42 50q15 31 14 70q1 84 -55 124q-56 41 -166 41h-138v-322z" />
    <glyph glyph-name="Gamma" unicode="&#x393;" horiz-adv-x="458" 
d="M82 0v698h363v-22h-341v-676h-22z" />
    <glyph glyph-name="Deltagreek" unicode="&#x394;" horiz-adv-x="678" 
d="M670 0h-662q82 177 326 703h10q82 -175 326 -703zM42 22h596q-74 162 -299 645q-18 -40 -75 -162q-60 -135 -117 -257q-55 -120 -105 -226z" />
    <glyph glyph-name="Epsilon" unicode="&#x395;" horiz-adv-x="470" 
d="M82 698h349v-21h-327v-313h319v-23h-319v-319h335v-22h-357v698z" />
    <glyph glyph-name="Zeta" unicode="&#x396;" horiz-adv-x="612" 
d="M5 0v9q139 167 551 668h-539v21h573v-14q-136 -166 -547 -662h563v-22h-601z" />
    <glyph glyph-name="Eta" unicode="&#x397;" horiz-adv-x="707" 
d="M82 698h22v-332h498v332h23v-698h-23v343h-498v-343h-22v698z" />
    <glyph glyph-name="Theta" unicode="&#x398;" horiz-adv-x="806" 
d="M400 708q56 0 102 -12q48 -12 89 -39q42 -24 72 -57q31 -33 51 -73q21 -39 31 -82q10 -42 10 -90q1 -79 -25 -145q-24 -64 -76 -117q-50 -51 -113 -76q-63 -26 -140 -26q-75 0 -138 26q-63 27 -112 77q-49 52 -75 114q-24 62 -25 134q0 81 26 147q25 65 76 116
q51 53 112 77q63 26 135 26zM407 685q-72 0 -132 -24q-58 -23 -106 -71q-45 -48 -70 -108q-23 -60 -23 -133q0 -69 23 -130q24 -58 69 -108q48 -49 104 -73q58 -24 126 -25q74 0 134 24t106 74t69 108q23 59 23 128q0 75 -22 134q-22 60 -69 108q-45 48 -104 72
q-57 24 -128 24zM185 341v23h436v-23h-436z" />
    <glyph glyph-name="Iota" unicode="&#x399;" horiz-adv-x="186" 
d="M82 698h22v-698h-22v698z" />
    <glyph glyph-name="Kappa" unicode="&#x39a;" horiz-adv-x="489" 
d="M82 698h22v-348q84 87 334 348h30q-82 -86 -333 -347q91 -87 363 -351h-32q-90 88 -362 350v-350h-22v698z" />
    <glyph glyph-name="Lambda" unicode="&#x39b;" horiz-adv-x="596" 
d="M299 714q73 -178 292 -714h-25q-66 166 -269 658q-67 -164 -268 -658h-24q73 178 291 714h3z" />
    <glyph glyph-name="Mu" unicode="&#x39c;" horiz-adv-x="773" 
d="M82 0v698h24l280 -352q70 88 281 352h24v-698h-22v663h-4q-69 -87 -281 -351v0q-68 88 -275 351h-5v-663h-22z" />
    <glyph glyph-name="Nu" unicode="&#x39d;" horiz-adv-x="762" 
d="M82 698h21q140 -165 554 -661v661h23v-698h-22q-138 166 -554 662v-662h-22v698z" />
    <glyph glyph-name="Xi" unicode="&#x39e;" horiz-adv-x="552" 
d="M31 0v22h490v-22h-490zM95 342v22h354v-22h-354zM31 677v21h482v-21h-482z" />
    <glyph glyph-name="Omicron" unicode="&#x39f;" horiz-adv-x="806" 
d="M400 708q56 0 102 -12q48 -12 89 -39q42 -24 72 -57q31 -33 51 -73q21 -39 31 -82q10 -42 10 -90q1 -79 -25 -145q-24 -64 -76 -117q-50 -51 -113 -76q-63 -26 -140 -26q-75 0 -138 26q-63 27 -112 77q-49 52 -75 114q-24 62 -25 134q0 81 26 147q25 65 76 116
q51 53 112 77q63 26 135 26zM407 685q-72 0 -132 -24q-58 -23 -106 -71q-45 -48 -70 -108q-23 -60 -23 -133q0 -69 23 -130q24 -58 69 -108q48 -49 104 -73q58 -24 126 -25q74 0 134 24t106 74t69 108q23 59 23 128q0 75 -22 134q-22 60 -69 108q-45 48 -104 72
q-57 24 -128 24z" />
    <glyph glyph-name="Pi" unicode="&#x3a0;" horiz-adv-x="691" 
d="M82 0v698h527v-698h-22v676h-483v-676h-22z" />
    <glyph glyph-name="Rho" unicode="&#x3a1;" horiz-adv-x="499" 
d="M82 698h167q51 0 91 -11t70 -35q30 -22 43 -56q15 -32 15 -77q0 -43 -15 -76q-13 -33 -43 -57q-30 -22 -71 -35q-42 -12 -96 -12h-139v-339h-22v698zM104 677v-317h143q46 0 82 10q36 9 62 29q27 21 39 50q14 31 13 70q1 40 -13 70q-12 31 -39 49q-26 20 -62 29
q-36 10 -82 10h-143z" />
    <glyph glyph-name="Sigma" unicode="&#x3a3;" horiz-adv-x="606" 
d="M17 0q79 88 316 351q-78 87 -309 347h523v-21h-473q72 -81 291 -326q-75 -81 -297 -329h507v-22h-558z" />
    <glyph glyph-name="Tau" unicode="&#x3a4;" horiz-adv-x="571" 
d="M12 698h547v-21h-262v-677h-23v677h-262v21z" />
    <glyph glyph-name="Upsilon" unicode="&#x3a5;" horiz-adv-x="566" 
d="M4 698h27q63 -74 253 -299q64 75 253 299h25q-66 -78 -267 -317v-381h-23v381q-66 80 -268 317z" />
    <glyph glyph-name="Phi" unicode="&#x3a6;" horiz-adv-x="772" 
d="M375 -10v86q-79 0 -139 19t-102 58q-40 39 -62 88q-21 51 -21 111q0 63 21 114q22 50 62 88q42 39 102 57q60 19 139 19v79h22v-79q79 0 139 -19q60 -18 101 -57q42 -38 63 -88q21 -51 21 -114q1 -60 -20 -111q-21 -49 -62 -88q-40 -39 -102 -58q-59 -19 -140 -19v-86
h-22zM375 97v511q-73 0 -129 -17t-94 -53t-57 -82t-19 -104t19 -104q19 -45 58 -81q39 -34 94 -52q57 -18 128 -18zM397 608v-511q74 1 128 17q55 18 93 52q40 36 59 82t19 104t-18 104t-56 82t-94 53t-131 17z" />
    <glyph glyph-name="Chi" unicode="&#x3a7;" horiz-adv-x="670" 
d="M20 698h28q72 -81 288 -325q72 81 289 325h28q-75 -84 -304 -341q81 -89 318 -357h-28q-75 87 -303 342q-76 -84 -304 -342h-29q81 90 319 358q-76 86 -302 340z" />
    <glyph glyph-name="Psi" unicode="&#x3a8;" horiz-adv-x="776" 
d="M377 698h22v-468q49 0 89 12q42 12 75 34q37 24 61 53q26 30 42 66q16 38 24 77q8 40 8 84v142h25v-142q0 -33 -4 -66q-4 -30 -16 -62q-9 -30 -24 -58q-13 -26 -34 -53q-18 -23 -45 -44q-24 -19 -57 -34q-32 -15 -68 -23q-36 -6 -76 -7v-209h-22v209q-39 1 -76 7
q-35 8 -68 22q-30 16 -56 34q-24 20 -45 44q-18 27 -33 54q-15 28 -25 58q-10 32 -16 63q-4 33 -5 66v140q7 1 25 1v-143q0 -44 8 -83q9 -39 25 -77q16 -36 42 -66q26 -29 60 -53q36 -22 76 -34q42 -12 88 -12v468z" />
    <glyph glyph-name="Omega" unicode="&#x3a9;" horiz-adv-x="719" 
d="M47 0v22h222q-111 80 -167 172t-56 194q0 72 22 128q22 58 65 102q45 46 101 67q56 23 125 23q70 0 126 -22q57 -20 100 -65q45 -44 66 -101q22 -57 22 -126q1 -106 -56 -200q-55 -92 -167 -172h222v-22h-251v24q114 80 170 171q57 92 57 192q0 70 -20 124q-18 55 -61 94
q-39 40 -93 60q-52 21 -115 20q-60 1 -111 -19q-51 -18 -93 -59q-42 -39 -63 -93q-21 -52 -21 -121q0 -105 56 -197q57 -92 171 -172v-24h-251z" />
    <glyph glyph-name="Iotadieresis" unicode="&#x3aa;" horiz-adv-x="186" 
d="M82 698h22v-698h-22v698zM11 848h27v-86h-27v86zM150 848h26v-86h-26v86z" />
    <glyph glyph-name="Upsilondieresis" unicode="&#x3ab;" horiz-adv-x="566" 
d="M4 698h27q63 -74 253 -299q64 75 253 299h25q-66 -78 -267 -317v-381h-23v381q-66 80 -268 317zM205 848h26v-86h-26v86zM343 848h27v-86h-27v86z" />
    <glyph glyph-name="alphatonos" unicode="&#x3ac;" horiz-adv-x="526" 
d="M412 45q-40 -27 -77 -41q-35 -12 -68 -13q-6 1 -18 1q-10 2 -25 3q-40 9 -73 28t-59 52q-24 33 -38 73q-12 40 -13 85q0 54 15 96t45 74q31 33 70 50q39 16 89 16v0q2 0 1 0q39 0 75 -12q40 -13 76 -37v40h20v-421q0 -13 5 -21q4 -6 13 -7q12 0 26 8q14 7 32 21v-21
q-15 -13 -30 -19t-31 -7q-9 0 -15 2q-6 3 -11 7q-3 6 -6 16q-3 12 -3 27zM412 65v331q-36 28 -76 41q-38 15 -80 14q-42 0 -78 -15q-34 -14 -62 -46q-26 -30 -40 -69t-14 -88q0 -48 15 -87t43 -72q30 -32 66 -48q38 -16 81 -16q20 0 36 3q17 3 32 10q17 7 35 17q20 12 42 25
zM229 550q9 38 33 148h31q-11 -36 -45 -148h-19z" />
    <glyph glyph-name="epsilontonos" unicode="&#x3ad;" horiz-adv-x="354" 
d="M211 469h6q25 -1 51 -5q28 -4 58 -14v-22q-28 12 -57 16q-28 6 -58 6q-66 0 -99 -24q-33 -22 -33 -71q1 -49 35 -76q36 -26 104 -26h4v-19q-80 0 -120 -28t-40 -87q0 -25 11 -46q11 -19 32 -34q23 -13 49 -21q27 -8 57 -8q31 0 61 6q32 6 62 16v-22q-32 -8 -62 -14
q-30 -4 -61 -5q-40 0 -72 8q-32 9 -54 28q-21 19 -33 41q-10 24 -11 51q0 27 8 47q8 22 23 39q16 18 37 27q22 10 48 12q-48 9 -75 36q-24 28 -25 75q0 57 39 86q39 28 115 28zM188 550q9 38 33 148h31q-10 -36 -45 -148h-19z" />
    <glyph glyph-name="etatonos" unicode="&#x3ae;" horiz-adv-x="489" 
d="M264 469v0q42 0 71 -12q30 -12 50 -38q21 -25 30 -58q10 -33 10 -76v-521h-21v514q0 40 -8 70q-8 32 -26 54q-16 24 -44 36q-27 12 -63 12q-52 0 -96 -29q-43 -27 -77 -85v-336h-20v460h20v-92q16 24 34 41q20 17 42 31q24 16 48 22q26 8 49 7h1zM232 550q9 38 33 148h31
q-10 -36 -45 -148h-19z" />
    <glyph glyph-name="iotatonos" unicode="&#x3af;" horiz-adv-x="184" 
d="M70 50v410h20v-412q0 -18 5 -28q4 -9 13 -9q12 0 26 8q14 7 32 21v-21q-15 -13 -30 -19t-31 -7q-9 0 -16 3t-11 9q-3 6 -6 18q-2 12 -2 27zM63 550q9 38 33 148h31q-11 -36 -45 -148h-19z" />
    <glyph glyph-name="upsilondieresistonos" unicode="&#x3b0;" horiz-adv-x="472" 
d="M65 172v288h20v-279q1 -39 10 -72q11 -30 29 -54q21 -21 48 -33q28 -12 64 -12t64 11q27 12 47 33q21 24 30 55q10 33 10 72v279h21v-288q0 -39 -11 -72q-9 -32 -31 -58q-21 -24 -54 -38q-33 -12 -78 -13q-42 1 -74 13q-32 14 -54 38q-20 26 -31 58q-9 33 -10 72z
M213 549q9 38 33 149h30q-10 -36 -45 -149h-18zM299 635h31v-86h-31v86zM142 635h31v-86h-31v86z" />
    <glyph glyph-name="alpha" unicode="&#x3b1;" horiz-adv-x="526" 
d="M412 45q-40 -27 -77 -41q-35 -12 -68 -13q-6 1 -18 1q-10 2 -25 3q-40 9 -73 28t-59 52q-24 33 -38 73q-12 40 -13 85q0 54 15 96t45 74q31 33 70 50q39 16 86 16q41 0 79 -12q40 -13 76 -37v40h20v-421q0 -13 5 -21q4 -6 13 -7q12 0 26 8q14 7 32 21v-21
q-15 -13 -30 -19t-31 -7q-9 0 -15 2q-6 3 -11 7q-3 6 -6 16q-3 12 -3 27zM412 65v331q-36 28 -76 41q-38 15 -80 14q-42 0 -78 -15q-34 -14 -62 -46q-26 -30 -40 -69t-14 -88q0 -48 15 -87t43 -72q30 -32 66 -48q38 -16 81 -16q20 0 36 3q17 3 32 10q17 7 35 17q20 12 42 25
z" />
    <glyph glyph-name="beta" unicode="&#x3b2;" 
d="M70 -236v741q0 47 11 83q13 38 37 64q24 28 59 42q34 14 79 14q40 0 70 -11q32 -10 56 -34q26 -23 37 -53q12 -28 12 -66q0 -20 -3 -37q-2 -18 -10 -33q-14 -32 -41 -55q-27 -21 -67 -35q40 -6 67 -23q28 -15 48 -40q21 -24 30 -56q10 -30 10 -69q1 -45 -13 -83
q-14 -36 -41 -66q-27 -27 -63 -42q-36 -14 -81 -14q-31 1 -59 7q-26 8 -50 21q-22 16 -40 36q-16 21 -28 46v-337h-20zM90 501v-306q0 -15 2 -31q3 -16 6 -31q9 -27 24 -51q15 -21 37 -39q23 -15 50 -24t58 -9q41 0 73 13t56 37q26 27 37 60t11 75t-10 72q-10 31 -34 55
q-20 24 -53 35q-31 13 -73 15v20q33 6 57 17q25 12 43 32q18 21 27 47q10 26 10 56q0 34 -10 60q-10 27 -31 45q-20 21 -49 30q-27 9 -65 9q-42 0 -74 -12t-52 -39q-20 -25 -30 -59q-10 -33 -10 -77z" />
    <glyph glyph-name="gamma" unicode="&#x3b3;" horiz-adv-x="404" 
d="M-20 424q-3 4 -9 17q12 15 22 21q12 8 21 7q40 0 88 -108t103 -326q29 99 73 204q45 107 102 221h22q-57 -111 -105 -227q-46 -114 -84 -231q5 -30 7 -64q2 -33 2 -69q0 -51 -4 -78t-14 -27q-8 0 -12 27t-5 81q0 36 2 68q2 33 5 61q-20 78 -38 144q-18 67 -39 119
q-19 54 -35 90q-14 38 -28 57q-12 21 -22 30q-10 10 -19 10q-7 1 -16 -7q-8 -6 -17 -20z" />
    <glyph glyph-name="delta" unicode="&#x3b4;" horiz-adv-x="535" 
d="M41 225q1 54 16 98q17 45 47 77q34 36 73 52q42 18 90 17q18 0 36 -3q19 -2 39 -10q-18 12 -42 23q-22 13 -50 25q-26 14 -46 22q-20 10 -34 16q-12 8 -24 15q-10 9 -22 18q-9 12 -15 22q-6 11 -6 23q1 45 35 66q36 22 104 22q42 0 90 -11q48 -10 100 -34q-2 -6 -8 -20
q-52 23 -98 33q-45 12 -83 11q-58 0 -88 -16q-30 -15 -30 -49q0 -12 6 -22q7 -10 17 -19q14 -9 36 -21q24 -12 59 -30q67 -30 115 -63t77 -67q29 -32 44 -76q15 -42 15 -95q0 -49 -16 -93q-15 -42 -48 -77q-32 -33 -73 -51q-40 -16 -90 -17q-49 1 -89 16q-40 17 -73 50
q-32 34 -48 76q-15 42 -16 92zM62 229q0 -47 15 -87q15 -38 43 -70q30 -30 66 -47q38 -15 81 -16q46 1 82 16q38 15 66 47q29 32 43 71q14 41 14 86q0 47 -14 86q-12 39 -42 71q-28 33 -66 48q-38 18 -84 17q-42 0 -78 -15q-36 -14 -66 -47q-28 -31 -44 -71q-16 -38 -16 -89
z" />
    <glyph glyph-name="epsilon" unicode="&#x3b5;" horiz-adv-x="354" 
d="M211 469q29 1 57 -5q28 -4 58 -14v-22q-28 12 -57 16q-28 6 -58 6q-66 0 -99 -24q-33 -22 -33 -71q1 -49 35 -76q36 -26 104 -26h4v-19q-80 0 -120 -28t-40 -87q0 -25 11 -46q11 -19 32 -34q23 -13 49 -21q27 -8 57 -8q31 0 61 6q32 6 62 16v-22q-32 -8 -62 -14
q-30 -4 -61 -5q-40 0 -72 8q-32 9 -54 28q-21 19 -33 41q-10 24 -11 51q0 27 8 47q8 22 23 39q16 18 37 27q22 10 48 12q-48 9 -75 36q-24 28 -25 75q0 57 39 86q39 28 115 28z" />
    <glyph glyph-name="zeta" unicode="&#x3b6;" horiz-adv-x="407" 
d="M155 701l9 18q24 -15 57 -25q33 -8 72 -10q23 12 41 16q20 6 35 5q12 1 18 -2q5 -2 5 -6q0 -5 -8 -11q-6 -6 -24 -10q-15 -4 -31 -7q-15 -2 -33 -2q-45 -27 -84 -74q-39 -45 -73 -112q-36 -69 -54 -139q-18 -69 -18 -141q1 -48 11 -82q12 -35 33 -57q22 -20 55 -32
q33 -10 77 -11q37 1 64 -8q28 -7 46 -25q20 -16 29 -38q9 -21 9 -45q1 -33 -11 -58q-10 -24 -32 -44q-21 -18 -49 -27q-27 -10 -63 -10q-24 0 -49 6q-24 6 -48 15q3 6 7 18q22 -9 44 -14t46 -5q30 0 54 8t43 23q18 15 27 37q10 22 10 51q0 21 -8 38q-8 19 -25 31
q-16 15 -40 21q-24 7 -54 7q-48 0 -87 12q-36 14 -62 37q-24 25 -37 63q-12 38 -12 89q1 69 17 137q18 69 52 135q36 69 73 117q39 48 80 78q-32 3 -60 11q-28 9 -52 22z" />
    <glyph glyph-name="eta" unicode="&#x3b7;" horiz-adv-x="489" 
d="M263 469q42 0 72 -12t50 -38q21 -25 30 -58q10 -33 10 -76v-521h-21v514q0 40 -8 70q-8 32 -26 54q-16 24 -44 36q-27 12 -63 12q-52 0 -96 -29q-43 -27 -77 -85v-336h-20v460h20v-92q16 24 34 41q20 17 42 31q24 16 48 22q26 8 49 7z" />
    <glyph glyph-name="theta" unicode="&#x3b8;" horiz-adv-x="471" 
d="M41 349q0 84 12 148q14 65 38 113q27 50 62 74q37 24 83 24t82 -24t61 -73q27 -47 39 -113t12 -149q0 -81 -12 -147q-12 -64 -38 -114q-24 -48 -62 -73q-36 -24 -82 -24t-82 24t-62 72q-24 48 -38 114q-12 66 -13 148zM409 341h-347q2 -77 12 -137q12 -60 35 -106
q23 -42 55 -66q33 -22 72 -22q40 0 70 22q32 24 54 66q24 46 36 106t13 137zM62 359h347q-1 77 -13 137q-10 60 -35 104q-21 45 -53 66q-32 22 -74 22q-38 0 -70 -21q-30 -21 -54 -65q-22 -42 -34 -104q-12 -60 -14 -139z" />
    <glyph glyph-name="iota" unicode="&#x3b9;" horiz-adv-x="184" 
d="M70 50v410h20v-412q0 -18 5 -28q4 -9 13 -9q12 0 26 8q14 7 32 21v-21q-15 -13 -30 -19t-31 -7q-9 0 -16 3t-11 9q-3 6 -6 18q-2 12 -2 27z" />
    <glyph glyph-name="kappa" unicode="&#x3ba;" horiz-adv-x="427" 
d="M362 469q14 1 22 -2q10 -3 16 -7v-21q-6 6 -17 9q-9 3 -22 3q-15 1 -33 -8q-16 -8 -31 -24q-57 -59 -174 -177q73 -60 292 -242h-35q-72 60 -287 241q48 48 192 194q18 17 36 26q20 9 41 8zM70 0v460h20v-460h-20z" />
    <glyph glyph-name="lambda" unicode="&#x3bb;" horiz-adv-x="452" 
d="M84 688q3 6 7 20q15 -2 24 -8q11 -6 19 -16q10 -8 19 -28q12 -20 22 -49q69 -167 204 -503q11 -24 19 -41q9 -16 15 -25q8 -8 18 -15q11 -7 26 -13q-2 -6 -6 -19q-16 5 -30 11q-13 9 -23 18q-9 12 -19 30q-9 20 -21 43q-44 109 -132 328q-50 -105 -199 -421h-25
q54 112 214 446q-16 42 -64 162q-8 22 -15 36q-6 15 -15 23q-6 9 -16 13q-10 6 -22 8z" />
    <glyph glyph-name="mugreek" unicode="&#x3bc;" horiz-adv-x="495" 
d="M70 -236v696h20v-279q0 -39 9 -71t27 -55q18 -21 45 -33t60 -12q55 0 97 29q44 28 76 85v336h21v-460h-21v92q-12 -22 -31 -40t-43 -33q-24 -12 -50 -21q-24 -6 -50 -7q-50 0 -85 20q-34 21 -55 61v-308h-20z" />
    <glyph glyph-name="nu" unicode="&#x3bd;" horiz-adv-x="435" 
d="M187 -14q-45 118 -185 474h23q43 -111 172 -445q1 3 13 22q12 20 35 53q24 36 39 61q16 27 25 43q11 16 20 39q12 24 22 52q14 29 18 53q6 24 6 44q1 30 -13 47q-12 20 -37 26l15 15q15 -3 24 -12q9 -8 17 -21q9 -11 11 -26q4 -13 4 -31q0 -12 -1 -25q-1 -12 -5 -27
q-2 -14 -8 -29t-13 -32q-7 -15 -15 -30q-6 -15 -13 -28q-6 -12 -15 -28q-10 -15 -22 -35q-10 -18 -20 -32t-16 -24q-6 -9 -15 -24q-9 -14 -23 -33q-12 -19 -21 -31q-8 -12 -11 -16h-11z" />
    <glyph glyph-name="xi" unicode="&#x3be;" horiz-adv-x="407" 
d="M155 712v1q3 4 9 16q16 -10 42 -18t62 -12q16 5 32 7q18 2 34 2q32 0 45 -4q15 -2 15 -10q0 -6 -20 -11q-20 -3 -60 -4q-14 1 -26 1q-10 0 -19 1q-42 -13 -66 -46q-21 -33 -22 -84q1 -24 11 -45q12 -22 33 -40q24 -18 52 -28q29 -9 62 -9v-19q-61 0 -109 -14t-88 -43
q-36 -27 -56 -66q-18 -39 -19 -86q1 -45 10 -80q11 -33 32 -56q21 -22 55 -34t79 -12q75 1 111 -29q38 -28 37 -87q1 -33 -11 -58q-10 -24 -32 -44q-21 -18 -49 -27q-27 -10 -63 -10q-24 0 -49 6q-24 6 -48 15q3 6 7 18q22 -9 44 -14t46 -5q30 0 54 8t43 23q18 15 27 37
q10 22 10 51q0 49 -33 73q-32 24 -96 24q-49 0 -85 12t-62 34q-24 24 -37 62q-12 39 -12 93q0 43 15 79q15 38 45 66q32 30 72 49q41 18 91 26q-22 9 -42 20q-18 13 -35 31q-15 20 -23 39t-8 39q0 48 19 82t55 53q-26 6 -47 12q-20 7 -32 15z" />
    <glyph glyph-name="omicron" unicode="&#x3bf;" horiz-adv-x="535" 
d="M266 451q-42 0 -78 -15q-36 -14 -66 -47q-28 -31 -44 -71q-16 -38 -16 -89q0 -47 15 -87q15 -38 43 -70q30 -30 66 -47q38 -15 81 -16q46 1 82 16q38 15 66 47q29 32 43 71q14 41 14 86q0 47 -14 86q-12 39 -42 71q-28 33 -66 48q-38 18 -84 17zM267 469q50 1 90 -17
q40 -16 72 -52q33 -33 48 -77q17 -43 17 -94q0 -49 -16 -93q-15 -42 -48 -77q-32 -33 -73 -51q-40 -16 -90 -17q-49 1 -89 16q-40 17 -73 50q-32 34 -48 76q-15 42 -16 92q1 54 16 98q17 45 47 77q34 36 73 52q42 18 90 17z" />
    <glyph glyph-name="pi" unicode="&#x3c0;" horiz-adv-x="586" 
d="M122 0v441q-34 1 -63 -5q-27 -3 -49 -15v19q20 10 49 15q31 5 73 5h443v-19h-106v-441h-20v441h-307v-441h-20z" />
    <glyph glyph-name="rho" unicode="&#x3c1;" horiz-adv-x="530" 
d="M65 -236v461q0 54 15 98q16 45 44 77q30 36 68 52q39 18 84 17q48 1 85 -17q39 -16 68 -52q31 -33 46 -77q15 -43 14 -94q1 -49 -14 -93q-13 -42 -45 -77q-30 -33 -68 -51q-38 -16 -86 -17q-32 0 -60 9q-27 10 -54 28q-26 18 -45 43q-18 25 -32 55v-362h-20zM276 9
q44 1 77 16q34 15 61 47t41 71q13 41 13 86q0 47 -13 86t-40 71q-25 33 -61 48q-36 18 -79 17q-39 0 -73 -15q-34 -14 -62 -47q-26 -31 -41 -71q-14 -38 -14 -89q0 -47 14 -87q13 -38 40 -70q29 -30 62 -47q35 -15 75 -16z" />
    <glyph glyph-name="sigma1" unicode="&#x3c2;" horiz-adv-x="444" 
d="M135 -215q3 6 7 18q22 -9 44 -14t45 -5q31 0 55 7t43 22q18 15 27 35q10 20 10 46q0 24 -8 43t-25 33q-15 16 -40 23q-24 7 -54 7q-99 0 -148 55q-50 57 -50 166q1 57 16 101q17 45 47 78q34 36 74 52q40 18 90 17q52 0 93 -15q41 -16 71 -46q-4 -6 -13 -17
q-28 29 -67 44q-38 15 -84 15q-44 0 -82 -16q-36 -14 -66 -47q-28 -30 -43 -72t-15 -94q0 -99 45 -151q45 -51 132 -51q37 1 64 -8q28 -8 46 -26q20 -17 29 -41q9 -22 9 -50q0 -30 -10 -53q-11 -24 -33 -42q-20 -17 -50 -26q-27 -9 -63 -9q-24 0 -48 6t-48 15z" />
    <glyph glyph-name="sigma" unicode="&#x3c3;" horiz-adv-x="548" 
d="M538 460v-19h-184q33 -10 59 -31q26 -20 44 -49q18 -27 27 -60q10 -33 10 -72q0 -49 -16 -93q-15 -42 -48 -77q-32 -33 -73 -51q-40 -16 -90 -17q-49 1 -89 16q-40 17 -73 50q-32 34 -48 76q-15 42 -16 92q0 54 15 96q16 42 47 74q33 33 74 49q40 16 90 16h271zM266 441
q-42 1 -79 -14q-36 -13 -66 -43q-29 -28 -44 -68q-15 -38 -15 -87q0 -47 15 -87q15 -38 43 -70q30 -30 66 -47q38 -15 81 -16q46 1 82 16q38 15 66 47q29 32 43 71q14 41 14 86q0 46 -14 84q-14 39 -42 68q-27 31 -65 45q-37 15 -85 15z" />
    <glyph glyph-name="tau" unicode="&#x3c4;" horiz-adv-x="407" 
d="M132 460h264v-19h-182v-441h-21v441h-59q-34 0 -66 -6q-30 -5 -58 -20v18q28 15 58 20q30 7 64 7z" />
    <glyph glyph-name="upsilon" unicode="&#x3c5;" horiz-adv-x="472" 
d="M65 172v288h20v-279q1 -39 10 -72q11 -30 29 -54q21 -21 48 -33q28 -12 64 -12t64 11q27 12 47 33q21 24 30 55q10 33 10 72v279h21v-288q0 -39 -11 -72q-9 -32 -31 -58q-21 -24 -54 -38q-33 -12 -78 -13q-42 1 -74 13q-32 14 -54 38q-20 26 -31 58q-9 33 -10 72z" />
    <glyph glyph-name="phi" unicode="&#x3c6;" horiz-adv-x="551" 
d="M265 -236v236q-49 3 -91 18q-40 16 -72 47q-30 32 -46 71q-15 40 -15 89q0 53 15 95t45 73q32 33 72 49q41 16 92 18v238h21v-238q52 -2 91 -19q42 -16 72 -49q31 -30 46 -72q15 -40 15 -91q0 -50 -15 -90q-15 -39 -45 -72q-30 -31 -72 -49q-40 -15 -92 -18v-236h-21z
M265 18v423q-43 -1 -81 -16q-36 -15 -65 -44q-27 -27 -42 -66q-15 -38 -15 -86q0 -45 14 -83t41 -67t65 -44t83 -17zM286 441v-423q48 2 83 17q37 15 64 44q28 29 42 67q13 38 13 83q0 47 -12 83q-12 38 -41 66q-27 30 -64 46t-85 17z" />
    <glyph glyph-name="chi" unicode="&#x3c7;" horiz-adv-x="372" 
d="M-10 -225q44 89 174 351q-26 64 -102 254q-6 20 -13 32q-5 12 -13 18q-6 8 -16 12q-9 4 -21 8q3 6 7 19q15 -2 24 -8q12 -6 19 -16q9 -9 19 -28q12 -18 22 -48q30 -74 89 -221q41 78 158 312h22q-41 -84 -170 -337q25 -61 100 -245q9 -22 17 -39q8 -15 16 -25
q8 -9 19 -17q11 -7 26 -13q-1 -6 -7 -20q-15 4 -29 12q-13 8 -23 18q-9 12 -19 30q-9 18 -21 43q-30 79 -94 233q-39 -81 -162 -325h-22z" />
    <glyph glyph-name="psi" unicode="&#x3c8;" horiz-adv-x="506" 
d="M243 -236v227q-45 1 -79 15q-33 14 -55 38q-21 26 -33 58q-10 32 -11 70v288h20v-279q1 -39 10 -70q10 -30 30 -54q21 -21 50 -34q29 -10 68 -13v688h20v-688q39 3 68 13q29 12 49 33q22 24 31 54q10 32 10 71v279h20v-288q0 -38 -10 -70q-9 -32 -33 -57q-21 -24 -55 -38
q-33 -13 -80 -16v-227h-20z" />
    <glyph glyph-name="omega" unicode="&#x3c9;" horiz-adv-x="721" 
d="M350 181v166h21v-166q0 -39 9 -72q9 -30 27 -54q19 -21 43 -33q26 -12 59 -12q69 0 104 47q34 48 34 141q1 63 -23 129q-22 65 -69 133h20q48 -63 70 -129q23 -64 23 -133q0 -102 -40 -155q-38 -51 -118 -52q-62 1 -100 31q-36 32 -50 93q-12 -61 -49 -93
q-37 -30 -100 -31q-78 1 -118 52q-39 53 -40 155q1 69 23 133q24 66 69 129h21q-45 -68 -69 -133q-23 -66 -23 -129q0 -93 34 -141q36 -47 104 -47q34 0 59 11q27 12 43 33q20 24 28 55q8 33 8 72z" />
    <glyph glyph-name="iotadieresis" unicode="&#x3ca;" horiz-adv-x="184" 
d="M70 50v410h20v-412q0 -18 5 -28q4 -9 13 -9q12 0 26 8q14 7 32 21v-21q-15 -13 -30 -19t-31 -7q-9 0 -16 3t-11 9q-3 6 -6 18q-2 12 -2 27zM-1 635h27v-86h-27v86zM137 635h27v-86h-27v86z" />
    <glyph glyph-name="upsilondieresis" unicode="&#x3cb;" horiz-adv-x="472" 
d="M65 172v288h20v-279q1 -39 10 -72q11 -30 29 -54q21 -21 48 -33q28 -12 64 -12t64 11q27 12 47 33q21 24 30 55q10 33 10 72v279h21v-288q0 -39 -11 -72q-9 -32 -31 -58q-21 -24 -54 -38q-33 -12 -78 -13q-42 1 -74 13q-32 14 -54 38q-20 26 -31 58q-9 33 -10 72z
M154 635h26v-86h-26v86zM292 635h26v-86h-26v86z" />
    <glyph glyph-name="omicrontonos" unicode="&#x3cc;" horiz-adv-x="535" 
d="M266 451q-42 0 -78 -15q-36 -14 -66 -47q-28 -31 -44 -71q-16 -38 -16 -89q0 -47 15 -87q15 -38 43 -70q30 -30 66 -47q38 -15 81 -16q46 1 82 16q38 15 66 47q29 32 43 71q14 41 14 86q0 47 -14 86q-12 39 -42 71q-28 33 -66 48q-38 18 -84 17zM267 469h7q45 -1 83 -17
q40 -16 72 -52q33 -33 48 -77q17 -43 17 -94q0 -49 -16 -93q-15 -42 -48 -77q-32 -33 -73 -51q-40 -16 -90 -17q-49 1 -89 16q-40 17 -73 50q-32 34 -48 76q-15 42 -16 92q1 54 16 98q17 45 47 77q34 36 73 52q42 18 90 17zM246 550q9 38 33 148h30q-11 -36 -45 -148h-18z
" />
    <glyph glyph-name="upsilontonos" unicode="&#x3cd;" horiz-adv-x="472" 
d="M65 172v288h20v-279q1 -39 10 -72q11 -30 29 -54q21 -21 48 -33q28 -12 64 -12t64 11q27 12 47 33q21 24 30 55q10 33 10 72v279h21v-288q0 -39 -11 -72q-9 -32 -31 -58q-21 -24 -54 -38q-33 -12 -78 -13q-42 1 -74 13q-32 14 -54 38q-20 26 -31 58q-9 33 -10 72z
M214 550q9 38 33 148h31q-12 -36 -46 -148h-18z" />
    <glyph glyph-name="omegatonos" unicode="&#x3ce;" horiz-adv-x="721" 
d="M350 181v166h21v-166q0 -39 9 -72q9 -30 27 -54q19 -21 43 -33q26 -12 59 -12q69 0 104 47q34 48 34 141q1 63 -23 129q-22 65 -69 133h20q48 -63 70 -129q23 -64 23 -133q0 -102 -40 -155q-38 -51 -118 -52q-62 1 -100 31q-36 32 -50 93q-12 -61 -49 -93
q-37 -30 -100 -31q-78 1 -118 52q-39 53 -40 155q1 69 23 133q24 66 69 129h21q-45 -68 -69 -133q-23 -66 -23 -129q0 -93 34 -141q36 -47 104 -47q34 0 59 11q27 12 43 33q20 24 28 55q8 33 8 72zM339 550q9 38 33 148h30q-10 -36 -45 -148h-18z" />
    <glyph glyph-name="uni0400" unicode="&#x400;" horiz-adv-x="470" 
d="M82 698h53h296v-21h-327v-313h319v-23h-319v-319h335v-22h-357v698zM135 905h25q32 -39 125 -160h-21q-32 40 -129 160z" />
    <glyph glyph-name="afii10023" unicode="&#x401;" horiz-adv-x="470" 
d="M82 698h95h254v-21h-327v-313h319v-23h-319v-319h335v-22h-357v698zM177 848h27v-86h-27v86zM315 848h27v-86h-27v86z" />
    <glyph glyph-name="afii10051" unicode="&#x402;" horiz-adv-x="697" 
d="M274 0v677h-262v21h547v-21h-262v-257q11 12 26 19q15 9 35 16q21 8 41 11q21 3 40 3q48 0 86 -15q39 -14 67 -47q30 -32 44 -74t14 -94q0 -56 -14 -102q-14 -45 -43 -79q-29 -32 -68 -50q-39 -16 -89 -17q-16 1 -32 1q-14 2 -29 5v22q11 -3 26 -4q15 -2 35 -2
q44 0 77 15q34 15 60 45q27 30 40 72q13 43 13 95q0 46 -12 83q-12 38 -39 66q-25 29 -59 44q-33 15 -77 14q-20 0 -41 -3q-20 -2 -40 -11q-18 -7 -34 -17q-15 -8 -27 -22v-394h-23z" />
    <glyph glyph-name="afii10052" unicode="&#x403;" horiz-adv-x="451" 
d="M82 0v698h262h101v-22h-341v-676h-22zM219 745q32 40 125 160h25q-33 -39 -129 -160h-21z" />
    <glyph glyph-name="afii10053" unicode="&#x404;" horiz-adv-x="658" 
d="M76 366h473v-23h-473q2 -72 24 -132q24 -58 68 -106q46 -45 104 -69q57 -22 126 -23q62 0 118 15q57 14 108 44v-30q-54 -24 -109 -38q-56 -12 -113 -13q-76 1 -140 25q-62 26 -112 75q-50 51 -74 114t-25 138q0 81 24 146t72 116q51 53 113 77q64 26 142 26
q57 0 113 -13q55 -12 109 -39v-29q-51 29 -108 43q-56 15 -118 15q-68 0 -125 -22q-57 -21 -102 -67q-45 -45 -68 -102q-24 -58 -27 -128z" />
    <glyph glyph-name="afii10054" unicode="&#x405;" horiz-adv-x="429" 
d="M227 708q40 0 76 -9t68 -26v-27q-35 21 -71 30q-36 10 -72 10t-66 -10q-30 -9 -53 -31q-22 -21 -36 -47q-12 -27 -12 -60q0 -28 8 -52q9 -24 23 -44q16 -20 47 -38t79 -36q52 -18 85 -39q35 -20 53 -42q21 -21 30 -51q9 -28 9 -66q0 -40 -12 -73q-13 -31 -40 -57
q-25 -24 -61 -37q-34 -12 -78 -12q-45 1 -87 13q-40 14 -78 40v27q41 -29 83 -44t83 -15q37 0 67 11q30 10 53 31q24 22 34 51q12 29 12 65q0 32 -9 58q-8 26 -25 43q-16 21 -49 38q-30 18 -78 36q-48 20 -81 38q-33 20 -53 41q-18 22 -29 50q-9 28 -10 64q1 36 13 67
q14 32 40 54q28 25 62 37t75 12z" />
    <glyph glyph-name="afii10055" unicode="&#x406;" horiz-adv-x="186" 
d="M82 698h22v-698h-22v698z" />
    <glyph glyph-name="afii10056" unicode="&#x407;" horiz-adv-x="186" 
d="M82 698h22v-698h-22v698zM11 848h27v-86h-27v86zM150 848h26v-86h-26v86z" />
    <glyph glyph-name="afii10057" unicode="&#x408;" horiz-adv-x="186" 
d="M-56 -202q0 6 -2 22h6q4 0 8 -1q6 1 8 -1h5q29 0 50 9q21 10 35 30q15 21 21 51q7 33 7 75v715h22v-720q0 -90 -33 -136t-102 -46q-3 0 -9 1t-16 1z" />
    <glyph glyph-name="afii10058" unicode="&#x409;" horiz-adv-x="867" 
d="M5 0q73 178 291 714h3q37 -87 142 -348h176q53 0 92 -12q41 -10 69 -36q30 -22 44 -57q15 -33 15 -78q1 -43 -14 -76q-13 -33 -43 -58q-28 -23 -68 -37q-40 -12 -92 -12h-54q-66 164 -270 656v0q-66 -164 -267 -656h-24zM450 344q33 -80 132 -322h33q47 0 83 10t62 30
q27 21 39 51q13 31 13 70q0 40 -13 70q-12 30 -39 50q-26 21 -62 31t-83 10h-165z" />
    <glyph glyph-name="afii10059" unicode="&#x40a;" horiz-adv-x="998" 
d="M82 698h22v-332h458v332h23v-332h164q51 0 91 -12q40 -10 69 -36q29 -22 44 -57q15 -33 15 -78q0 -43 -15 -76t-44 -58q-28 -23 -70 -37q-41 -12 -97 -12h-180v344h-458v-344h-22v698zM585 22h161q48 0 83 10q36 10 62 30q27 21 39 51q14 31 13 70q1 40 -13 70
q-12 30 -39 50q-26 21 -62 31q-35 10 -83 10h-161v-322z" />
    <glyph glyph-name="afii10060" unicode="&#x40b;" horiz-adv-x="742" 
d="M12 698h547v-21h-262v-244q35 19 77 27q42 9 91 9q49 1 88 -14q39 -14 69 -44q30 -29 44 -67q15 -38 15 -84v-260h-23v263q0 42 -12 75q-12 34 -41 58q-27 27 -61 39t-78 12q-51 0 -93 -9q-42 -8 -76 -28v-410h-23v677h-262v21z" />
    <glyph glyph-name="afii10061" unicode="&#x40c;" horiz-adv-x="522" 
d="M78 698h22v-348q12 12 48 49q36 39 143 150q25 25 95 100q12 13 48 49h30q-12 -12 -47 -49q-36 -37 -144 -149q-34 -36 -142 -149q57 -54 226 -219q35 -33 137 -132h-32q-38 39 -155 151q-51 49 -207 199v-350h-22v698zM215 745q32 40 125 160h25q-33 -39 -129 -160h-21z
" />
    <glyph glyph-name="uni040D" unicode="&#x40d;" horiz-adv-x="762" 
d="M82 0v698h22v-662q140 166 554 662h22v-698h-23v663q-137 -165 -554 -663h-21zM259 905h25q32 -39 125 -160h-21q-32 40 -129 160z" />
    <glyph glyph-name="afii10062" unicode="&#x40e;" horiz-adv-x="603" 
d="M312 53q-76 162 -307 645h27q74 -154 292 -616q62 154 250 616h24q-63 -156 -255 -625q-21 -54 -37 -88t-26 -48q-16 -24 -43 -36q-25 -12 -59 -12q-9 0 -18 2q-8 2 -18 5q0 8 -2 21q10 -3 20 -5q9 0 18 -1q27 1 45 7q19 8 31 23t27 43t31 69zM181 874h22q15 -46 44 -71
t69 -25q44 0 71 25q28 25 43 71h22q-15 -57 -49 -87q-33 -29 -87 -29q-10 0 -20 1q-14 3 -27 6q-21 9 -40 23q-18 18 -30 38q-12 22 -18 48z" />
    <glyph glyph-name="afii10145" unicode="&#x40f;" horiz-adv-x="691" 
d="M82 0v698h22v-675h483v675h22v-698h-252v-143h-22v143h-253z" />
    <glyph glyph-name="Acyrillic" unicode="&#x410;" horiz-adv-x="644" 
d="M313 703h18q77 -175 308 -703h-26q-27 63 -108 249h-367q-26 -61 -107 -249h-26q77 177 308 703zM322 668q-44 -99 -175 -399h349q-44 101 -174 399z" />
    <glyph glyph-name="afii10018" unicode="&#x411;" horiz-adv-x="520" 
d="M82 698h363v-21h-341v-311h164q52 0 92 -12q40 -10 69 -36q29 -22 44 -57q15 -33 14 -78q1 -43 -14 -76t-44 -58q-29 -23 -71 -37q-40 -12 -96 -12h-180v698zM104 22h162q46 0 82 10q38 10 63 30q27 21 39 51q14 31 13 70q1 40 -13 70q-12 30 -39 50q-25 21 -63 31
q-36 10 -82 10h-162v-322z" />
    <glyph glyph-name="afii10019" unicode="&#x412;" horiz-adv-x="518" 
d="M82 698h132q45 0 83 -9q39 -9 70 -32q33 -20 47 -53q16 -33 16 -78q0 -32 -8 -59t-27 -50q-16 -21 -43 -36q-24 -15 -57 -22q45 -1 81 -15q36 -12 60 -37q27 -23 39 -56q12 -32 12 -72q1 -39 -13 -72q-14 -30 -43 -57q-27 -24 -68 -37q-39 -13 -92 -13h-189v698zM104 677
v-310h94q105 0 156 39q52 39 52 115q0 79 -51 117q-51 39 -154 39h-97zM104 22h163q44 0 77 9q36 9 63 28q28 21 42 50q15 31 14 70q1 84 -55 124q-56 41 -166 41h-138v-322z" />
    <glyph glyph-name="afii10020" unicode="&#x413;" horiz-adv-x="451" 
d="M82 0v698h363v-22h-341v-676h-22z" />
    <glyph glyph-name="afii10021" unicode="&#x414;" horiz-adv-x="731" 
d="M20 -143v166h62q70 172 285 691v0q70 -172 282 -691h62v-166h-23v143h-645v-143h-23zM105 23h520q-65 159 -260 635q-65 -158 -260 -635z" />
    <glyph glyph-name="afii10022" unicode="&#x415;" horiz-adv-x="470" 
d="M82 698h349v-21h-327v-313h319v-23h-319v-319h335v-22h-357v698z" />
    <glyph glyph-name="afii10024" unicode="&#x416;" horiz-adv-x="815" 
d="M396 0v346h-24q-28 0 -52 -6t-46 -21q-21 -12 -43 -39q-23 -26 -47 -65q-44 -71 -132 -215h-32q40 64 158 253q14 21 29 37q15 18 34 33t37 23q20 9 37 11q-29 14 -56 44q-27 33 -51 84q-8 21 -28 59q-21 46 -37 74q-15 28 -24 37q-9 12 -24 16q-15 5 -37 5h-22v22h24
q27 0 45 -6q19 -6 29 -18q12 -12 30 -44t41 -83q9 -17 23 -50q18 -36 32 -60q16 -25 31 -40q15 -13 33 -21q18 -6 37 -7h35v329h23v-329h35q21 1 39 7q17 8 32 22q16 16 31 40q16 24 31 57q9 19 26 57q3 6 6 11q3 8 8 18q5 11 8 17q3 8 4 10q3 3 4 9q3 5 7 13q6 8 7 13
q3 6 5 6l4 6q3 3 6 9q4 6 7 9t5 4q3 1 6 4q4 3 7 5q6 3 9 5q4 2 8 2q4 3 9 2q6 1 9 1q6 2 11 2h12h24v-22h-26q-20 0 -35 -5q-14 -3 -23 -15q-7 -10 -23 -38q-15 -27 -37 -75q-9 -19 -27 -58q-24 -51 -51 -84q-27 -32 -57 -44q38 -1 72 -28q34 -25 65 -76q53 -83 158 -253
h-32q-33 54 -132 215q-25 40 -46 66t-41 38q-18 15 -44 21q-24 6 -55 6h-26v-346h-23z" />
    <glyph glyph-name="afii10025" unicode="&#x417;" horiz-adv-x="501" 
d="M35 42v28q47 -27 101 -42t113 -15q40 1 72 11q33 10 60 31q29 23 41 53q14 32 13 71q1 43 -14 73q-13 32 -41 51q-27 21 -71 31q-42 10 -102 10h-66v23h62q53 1 92 10q39 12 65 33q28 22 40 49q14 29 13 62q0 42 -12 72q-11 30 -37 51q-24 22 -61 32q-36 10 -82 10
q-47 0 -92 -14q-44 -14 -84 -42v27q42 27 86 38q45 13 90 13q55 0 95 -12t67 -37q29 -24 41 -57q14 -32 13 -76q0 -32 -9 -60q-10 -26 -31 -50q-20 -22 -47 -38q-27 -14 -63 -23q36 -1 66 -13t56 -36q27 -21 38 -54q13 -30 13 -73q0 -41 -14 -74q-12 -33 -42 -61
q-27 -26 -66 -40q-38 -12 -89 -13q-55 1 -109 13q-54 14 -105 38z" />
    <glyph glyph-name="afii10026" unicode="&#x418;" horiz-adv-x="762" 
d="M82 0v698h22v-662q140 166 554 662h22v-698h-23v663q-137 -165 -554 -663h-21z" />
    <glyph glyph-name="afii10027" unicode="&#x419;" horiz-adv-x="762" 
d="M82 0v698h22v-662q140 166 554 662h22v-698h-23v663q-137 -165 -554 -663h-21zM248 874h21q17 -46 44 -71q30 -25 70 -25q43 0 71 25t43 71h21q-14 -57 -48 -87q-33 -29 -87 -29q-24 0 -47 7v0q-22 9 -40 23q-18 18 -30 38q-12 22 -18 48z" />
    <glyph glyph-name="afii10028" unicode="&#x41a;" horiz-adv-x="522" 
d="M78 0v698h22v-329h61q20 0 35 6q18 8 32 20q16 15 32 39q18 24 34 61q16 35 48 104q14 31 26 51q14 20 24 29q12 11 30 15t40 4h24v-22h-26q-18 0 -31 -3t-22 -11t-20 -26q-9 -18 -23 -45q-16 -34 -49 -106q-23 -51 -50 -84q-27 -30 -58 -44q40 -3 76 -34q37 -29 70 -85
q51 -80 149 -238h-32q-33 54 -132 215q-22 39 -45 64q-21 27 -42 39q-19 15 -45 21q-24 7 -55 7h-51v-346h-22z" />
    <glyph glyph-name="afii10029" unicode="&#x41b;" horiz-adv-x="596" 
d="M5 0q73 178 291 714h3q73 -178 292 -714h-25q-66 164 -270 656v0q-66 -164 -267 -656h-24z" />
    <glyph glyph-name="afii10030" unicode="&#x41c;" horiz-adv-x="773" 
d="M82 0v698h24l280 -352q70 88 281 352h24v-698h-22v663h-4q-69 -87 -281 -351v0q-68 88 -275 351h-5v-663h-22z" />
    <glyph glyph-name="afii10031" unicode="&#x41d;" horiz-adv-x="707" 
d="M82 698h22v-332h498v332h23v-698h-23v343h-498v-343h-22v698z" />
    <glyph glyph-name="afii10032" unicode="&#x41e;" horiz-adv-x="806" 
d="M400 708q56 0 102 -12q48 -12 89 -39q42 -24 72 -57q31 -33 51 -73q21 -39 31 -82q10 -42 10 -90q1 -79 -25 -145q-24 -64 -76 -117q-50 -51 -113 -76q-63 -26 -140 -26q-75 0 -138 26q-63 27 -112 77q-49 52 -75 114q-24 62 -25 134q0 81 26 147q25 65 76 116
q51 53 112 77q63 26 135 26zM407 685q-72 0 -132 -24q-58 -23 -106 -71q-45 -48 -70 -108q-23 -60 -23 -133q0 -69 23 -130q24 -58 69 -108q48 -49 104 -73q58 -24 126 -25q74 0 134 24t106 74t69 108q23 59 23 128q0 75 -22 134q-22 60 -69 108q-45 48 -104 72
q-57 24 -128 24z" />
    <glyph glyph-name="afii10033" unicode="&#x41f;" horiz-adv-x="696" 
d="M82 0v698h532v-698h-22v676h-488v-676h-22z" />
    <glyph glyph-name="afii10034" unicode="&#x420;" horiz-adv-x="499" 
d="M82 698h167q51 0 91 -11t70 -35q30 -22 43 -56q15 -32 15 -77q0 -43 -15 -76q-13 -33 -43 -57q-30 -22 -71 -35q-42 -12 -96 -12h-139v-339h-22v698zM104 677v-317h143q46 0 82 10q36 9 62 29q27 21 39 50q14 31 13 70q1 40 -13 70q-12 31 -39 49q-26 20 -62 29
q-36 10 -82 10h-143z" />
    <glyph glyph-name="afii10035" unicode="&#x421;" horiz-adv-x="658" 
d="M402 708q57 0 113 -13q55 -12 109 -39v-29q-51 29 -108 43q-56 15 -118 15q-69 1 -129 -23q-57 -24 -103 -71q-45 -48 -67 -108q-23 -59 -23 -134q0 -74 22 -134q24 -59 68 -107q46 -46 104 -71q58 -24 128 -24q62 0 118 15q57 14 108 44v-30q-54 -24 -109 -38
q-56 -12 -113 -13q-76 1 -140 25q-62 26 -112 75q-50 51 -74 114t-25 138q0 81 24 146t72 116q51 53 113 77q64 26 142 26z" />
    <glyph glyph-name="afii10036" unicode="&#x422;" horiz-adv-x="571" 
d="M12 698h547v-21h-262v-677h-23v677h-262v21z" />
    <glyph glyph-name="afii10037" unicode="&#x423;" horiz-adv-x="603" 
d="M142 -104q0 6 -2 21q10 -3 20 -5q9 0 18 -1q27 1 45 7q19 8 31 23t27 43t31 69q-102 216 -307 645h27q74 -154 292 -616q62 154 250 616h24q-63 -156 -255 -625q-21 -54 -37 -88t-26 -48q-16 -24 -43 -36q-25 -12 -59 -12q-9 0 -18 2q-8 2 -18 5z" />
    <glyph glyph-name="afii10038" unicode="&#x424;" horiz-adv-x="772" 
d="M375 -10v86q-79 0 -139 19t-102 58q-40 39 -62 88q-21 51 -21 111q0 63 21 114q22 50 62 88q42 39 102 57q60 19 139 19v79h22v-79q79 0 139 -19q60 -18 101 -57q42 -38 63 -88q21 -51 21 -114q1 -60 -20 -111q-21 -49 -62 -88q-40 -39 -102 -58q-59 -19 -140 -19v-86
h-22zM397 608v-511q74 1 128 17q55 18 93 52q40 36 59 82t19 104t-18 104t-56 82t-94 53t-131 17zM375 97v511q-73 0 -129 -17t-94 -53t-57 -82t-19 -104t19 -104q19 -45 58 -81q39 -34 94 -52q57 -18 128 -18z" />
    <glyph glyph-name="afii10039" unicode="&#x425;" horiz-adv-x="670" 
d="M20 698h28q72 -81 288 -325q72 81 289 325h28q-75 -84 -304 -341q81 -89 318 -357h-28q-75 87 -303 342q-76 -84 -304 -342h-29q81 90 319 358q-76 86 -302 340z" />
    <glyph glyph-name="afii10040" unicode="&#x426;" horiz-adv-x="734" 
d="M82 0v698h22v-675h488v675h22v-675h100v-166h-23v143h-609z" />
    <glyph glyph-name="afii10041" unicode="&#x427;" horiz-adv-x="587" 
d="M482 0v300q-51 -14 -99 -22q-46 -8 -90 -8q-59 0 -105 15q-44 15 -76 45q-30 30 -47 71q-15 40 -16 91v206h23v-206q0 -46 14 -84q15 -36 42 -63q30 -25 70 -39q42 -12 95 -13q45 1 91 7q48 8 98 22v376h23v-698h-23z" />
    <glyph glyph-name="afii10042" unicode="&#x428;" horiz-adv-x="920" 
d="M82 0v698h22v-675h345v675h22v-675h344v675h23v-698h-756z" />
    <glyph glyph-name="afii10043" unicode="&#x429;" horiz-adv-x="957" 
d="M82 0v698h22v-675h345v675h22v-675h344v675h23v-675h99v-166h-23v143h-832z" />
    <glyph glyph-name="afii10044" unicode="&#x42a;" horiz-adv-x="601" 
d="M185 0v677h-173v21h196v-332h143q53 0 92 -12q41 -10 69 -36q30 -22 44 -57q14 -33 14 -78q0 -43 -14 -76t-44 -58q-28 -23 -71 -37q-40 -12 -96 -12h-160zM208 22h141q46 0 82 10t63 30q27 21 39 51q13 31 13 70q0 40 -13 70q-12 30 -39 50q-27 21 -63 31t-82 10h-141
v-322z" />
    <glyph glyph-name="afii10045" unicode="&#x42b;" horiz-adv-x="693" 
d="M80 698h22v-332h164q52 0 92 -12q40 -10 69 -36q29 -22 44 -57q15 -33 14 -78q1 -43 -14 -76t-44 -58q-29 -23 -71 -37q-40 -12 -96 -12h-180v698zM102 22h162q46 0 82 10t63 30q27 21 39 51q14 31 13 70q1 40 -13 70q-12 30 -39 50q-27 21 -63 31t-82 10h-162v-322z
M592 0v698h22v-698h-22z" />
    <glyph glyph-name="afii10046" unicode="&#x42c;" horiz-adv-x="518" 
d="M82 0v698h22v-332h164q52 0 92 -12q40 -10 69 -36q29 -22 44 -57q15 -33 14 -78q1 -43 -14 -76t-44 -58q-29 -23 -71 -37q-40 -12 -96 -12h-180zM104 22h162q46 0 82 10q38 10 63 30q27 21 39 51q14 31 13 70q1 40 -13 70q-12 30 -39 50q-25 21 -63 31q-36 10 -82 10
h-162v-322z" />
    <glyph glyph-name="afii10047" unicode="&#x42d;" horiz-adv-x="658" 
d="M110 366h473q-3 70 -26 127t-69 102q-44 45 -101 68q-57 22 -127 22q-60 0 -117 -15q-56 -14 -108 -43v29q55 27 109 39q56 13 112 13q80 0 142 -25q64 -25 112 -77q50 -50 73 -116q24 -66 24 -147q0 -75 -24 -138t-74 -114q-49 -49 -112 -75q-63 -24 -141 -25
q-56 1 -112 13q-54 14 -109 38v30q52 -30 108 -44q57 -15 117 -15q70 1 128 23q57 22 102 68q48 48 70 106q24 60 23 133h-473v23z" />
    <glyph glyph-name="afii10048" unicode="&#x42e;" horiz-adv-x="969" 
d="M581 708q77 0 139 -26t106 -78q46 -51 69 -114q23 -62 23 -135q0 -79 -24 -145q-22 -64 -72 -117q-46 -51 -108 -76q-60 -26 -132 -26t-132 26q-58 27 -107 77q-46 52 -70 115t-24 134h-145v-343h-22v698h22v-332h145q5 76 29 138q27 62 73 108q48 48 105 72
q58 24 125 24zM587 685q-69 0 -125 -24q-56 -23 -101 -71q-43 -48 -65 -108t-23 -133q1 -69 22 -130q23 -58 65 -108q46 -49 100 -73t119 -25q69 0 126 24t100 74q45 50 66 108q22 59 22 128q0 75 -21 134q-20 60 -65 108q-42 48 -98 72q-54 24 -122 24z" />
    <glyph glyph-name="afii10049" unicode="&#x42f;" horiz-adv-x="561" 
d="M319 698h160v-698h-22v323h-112q-31 1 -55 -5q-24 -4 -43 -16q-19 -9 -37 -30q-18 -20 -39 -49q-50 -73 -149 -223h-28q20 30 82 122q4 8 12 20l20 30t21 31t14 22q7 9 16 20t18 23q12 14 21 23q10 11 21 17q13 8 23 14q12 6 24 9q-38 5 -70 20q-30 15 -53 39
q-21 26 -32 56q-12 32 -12 68q0 46 14 81q15 35 43 57q30 24 70 35t93 11zM457 345v332h-133q-99 1 -150 -41q-50 -40 -50 -123q0 -39 12 -71q14 -30 39 -53q27 -21 63 -33q36 -10 83 -11h136z" />
    <glyph glyph-name="acyrillic" unicode="&#x430;" horiz-adv-x="420" 
d="M205 469q34 1 58 -8q24 -7 39 -25q15 -16 23 -42q7 -26 7 -61v-306q0 -8 2 -12q2 -3 5 -4q9 0 25 12q18 11 44 32v-20q-26 -21 -46 -33q-18 -10 -29 -11q-6 1 -10 1q-3 3 -7 6q-2 6 -3 12q-2 8 -2 18v38q-37 -36 -76 -56q-38 -18 -78 -19q-29 1 -53 7q-22 9 -39 24
q-17 16 -26 36q-8 22 -8 46q0 38 18 66q19 30 55 51q38 24 89 36q52 12 118 14v61q1 30 -5 53q-6 22 -18 36q-12 15 -34 21q-21 8 -51 8q-37 0 -73 -15t-74 -44v24q36 27 72 41q38 14 77 13zM52 104q0 -20 7 -38q7 -16 21 -30q14 -12 34 -19t43 -7q39 0 77 20q39 20 77 58
v165q-57 -1 -103 -11q-45 -9 -83 -30q-36 -20 -54 -47q-19 -27 -19 -61z" />
    <glyph glyph-name="afii10066" unicode="&#x431;" horiz-adv-x="535" 
d="M41 244q1 104 17 180q16 78 50 128q40 60 106 95q69 36 163 48q33 4 98 13q0 -6 -3 -21q-26 -3 -103 -13q-40 -4 -76 -15q-33 -9 -64 -25q-29 -14 -51 -34q-22 -18 -40 -43q-16 -22 -29 -48q-12 -25 -21 -52q-8 -25 -14 -57q-4 -30 -8 -66q14 32 33 56q21 24 46 42
q27 20 57 28q32 9 65 9q50 1 90 -17q40 -16 72 -52q33 -33 48 -77q17 -43 17 -94q0 -49 -16 -93q-15 -42 -48 -77q-32 -33 -73 -51q-40 -16 -90 -17q-50 1 -90 17q-39 16 -73 49q-30 35 -47 80q-15 47 -16 107zM62 229q0 -47 15 -87q15 -38 43 -70q30 -30 66 -47
q38 -15 81 -16q46 1 82 16q38 15 66 47q29 32 43 71q14 41 14 86q0 47 -14 86q-12 39 -42 71q-28 33 -66 48q-38 18 -84 17q-42 0 -78 -15q-36 -14 -66 -47q-28 -31 -44 -71q-16 -38 -16 -89z" />
    <glyph glyph-name="afii10067" unicode="&#x432;" horiz-adv-x="387" 
d="M70 0v460h95h19q9 0 13 -1q29 -3 50 -12q23 -7 39 -22q18 -13 25 -33q9 -20 8 -46q0 -42 -22 -70q-21 -28 -67 -38q28 -2 49 -11t36 -25q17 -15 23 -36q8 -20 8 -47t-9 -48t-28 -38q-17 -15 -44 -25q-26 -8 -60 -8h-135zM90 18h107q27 0 50 7q23 6 41 18q18 13 27 31
q10 20 10 45q1 54 -37 80q-36 27 -109 26h-89v-207zM90 244h63q73 0 109 26t36 76q0 48 -35 72t-107 23h-66v-197z" />
    <glyph glyph-name="afii10068" unicode="&#x433;" horiz-adv-x="344" 
d="M70 0v460h270v-19h-249v-441h-21z" />
    <glyph glyph-name="afii10069" unicode="&#x434;" horiz-adv-x="496" 
d="M15 -143v162h50q45 115 177 455h10q45 -114 179 -455h49v-162h-20v143h-424v-143h-21zM86 19h323q-40 105 -162 417q-39 -104 -161 -417z" />
    <glyph glyph-name="afii10070" unicode="&#x435;" horiz-adv-x="462" 
d="M422 67v-23q-36 -26 -78 -40q-39 -12 -84 -13q-48 1 -88 17q-39 16 -71 49q-30 35 -45 77t-15 94q1 54 13 96q14 44 41 77q28 35 64 51q37 18 79 17q42 1 75 -13t58 -41q24 -27 39 -66q14 -39 17 -92h-364q0 1 0 -3v0q1 -2 1 -3t-1 -4v-5q-1 -3 -1 -6q0 -51 14 -93
q14 -41 41 -71t63 -46t80 -16q46 0 85 15q41 15 77 42zM66 275h338q-10 88 -53 132q-42 45 -114 44q-33 0 -61 -12q-28 -10 -52 -36q-24 -22 -38 -55t-20 -73z" />
    <glyph glyph-name="afii10072" unicode="&#x436;" horiz-adv-x="598" 
d="M289 0v230h-30q-25 0 -43 -4q-18 -3 -33 -15q-14 -9 -29 -30q-16 -20 -34 -50q-26 -44 -79 -131h-26q21 34 82 136q18 28 30 47q15 20 25 29q10 12 26 18q16 8 34 12q-6 0 -16 6t-22 16q-10 12 -21 26q-9 15 -19 35q-6 18 -22 54q-8 19 -16 31q-6 14 -15 19q-7 6 -17 9
t-22 3h-11v19h12q17 0 29 -4q14 -4 22 -13q10 -6 19 -21q9 -14 17 -33q8 -16 22 -52q18 -44 44 -66q27 -21 61 -22h32v211h20v-211h32q35 1 62 22q27 22 43 66q8 18 22 52q8 21 17 33q9 15 18 21q11 9 23 13q14 4 29 4h12v-19h-11q-12 1 -22 -2q-9 -3 -17 -9q-5 -4 -14 -18
q-7 -12 -17 -33q-6 -18 -22 -54q-8 -20 -18 -35q-10 -14 -22 -26q-12 -10 -21 -16t-17 -6q20 -4 35 -12q15 -6 25 -18q12 -9 25 -29q15 -19 30 -47q27 -44 82 -136h-26q-19 33 -79 131q-16 31 -33 49q-15 21 -29 30q-14 12 -33 16q-18 4 -44 4h-30v-230h-20z" />
    <glyph glyph-name="afii10073" unicode="&#x437;" horiz-adv-x="358" 
d="M147 450q-27 0 -57 -6q-27 -4 -57 -16v22q30 10 58 14q29 6 56 5q84 0 123 -28q42 -29 41 -86q0 -43 -27 -70q-26 -27 -82 -38q27 -2 47 -12q21 -9 37 -28q16 -18 24 -40q8 -21 7 -48q0 -27 -10 -50t-34 -41q-21 -18 -53 -28q-30 -9 -73 -9q-29 1 -59 5q-30 6 -63 14v22
q31 -10 61 -16q32 -6 61 -6q31 0 57 8q27 8 48 21q22 15 33 34q11 21 11 46q0 27 -9 48t-29 36q-18 16 -46 24q-27 7 -61 7h-76v19h49q84 0 124 26q42 27 42 76t-36 71q-34 24 -107 24z" />
    <glyph glyph-name="afii10074" unicode="&#x438;" horiz-adv-x="537" 
d="M70 0v460h20v-427q90 107 357 427h20v-460h-21v427q-88 -106 -356 -427h-20z" />
    <glyph glyph-name="afii10075" unicode="&#x439;" horiz-adv-x="537" 
d="M70 0v460h20v-427q90 107 357 427h20v-460h-21v427q-88 -106 -356 -427h-20zM139 663h22q15 -48 44 -72q29 -25 69 -25q44 0 71 25q29 24 43 72h22q-15 -58 -49 -88q-33 -29 -87 -29q-20 0 -40 5q-3 2 -7 2q-21 9 -40 24q-18 16 -30 37q-12 22 -18 49z" />
    <glyph glyph-name="afii10076" unicode="&#x43a;" horiz-adv-x="389" 
d="M70 0v460h20v-211h42q36 1 62 22q26 22 44 66q8 18 21 52q6 12 9 20q3 9 6 14q4 6 10 12t15 12q10 7 22 10q11 3 25 3h12v-19h-11q-12 1 -22 -2q-9 -3 -17 -9q-6 -4 -14 -18q-6 -12 -16 -33q-8 -18 -23 -54q-8 -20 -18 -35q-9 -14 -22 -26q-11 -10 -21 -16q-8 -6 -17 -6
q21 -4 35 -12q16 -6 26 -18q10 -9 24 -29q15 -19 30 -47q28 -44 82 -136h-26q-20 33 -79 131q-17 31 -33 49q-14 21 -29 30q-13 12 -33 16q-18 4 -44 4h-40v-230h-20z" />
    <glyph glyph-name="afii10077" unicode="&#x43b;" horiz-adv-x="403" 
d="M401 0h-22q-45 110 -178 436q-44 -108 -176 -436h-23q48 120 194 474h10q50 -117 195 -474z" />
    <glyph glyph-name="afii10078" unicode="&#x43c;" horiz-adv-x="554" 
d="M70 0v460h21q47 -58 185 -237q48 60 187 237h21v-460h-20v430q-46 -60 -188 -239q-45 60 -186 237v-428h-20z" />
    <glyph glyph-name="afii10079" unicode="&#x43d;" horiz-adv-x="494" 
d="M70 0v460h20v-213h313v213h21v-460h-21v227h-313v-227h-20z" />
    <glyph glyph-name="afii10080" unicode="&#x43e;" horiz-adv-x="535" 
d="M266 451q-42 0 -78 -15q-36 -14 -66 -47q-28 -31 -44 -71q-16 -38 -16 -89q0 -47 15 -87q15 -38 43 -70q30 -30 66 -47q38 -15 81 -16q46 1 82 16q38 15 66 47q29 32 43 71q14 41 14 86q0 47 -14 86q-12 39 -42 71q-28 33 -66 48q-38 18 -84 17zM267 469q50 1 90 -17
q40 -16 72 -52q33 -33 48 -77q17 -43 17 -94q0 -49 -16 -93q-15 -42 -48 -77q-32 -33 -73 -51q-40 -16 -90 -17q-49 1 -89 16q-40 17 -73 50q-32 34 -48 76q-15 42 -16 92q1 54 16 98q17 45 47 77q34 36 73 52q42 18 90 17z" />
    <glyph glyph-name="afii10081" unicode="&#x43f;" horiz-adv-x="494" 
d="M70 0v460h354v-460h-21v440h-313v-440h-20z" />
    <glyph glyph-name="afii10082" unicode="&#x440;" horiz-adv-x="519" 
d="M249 -9q-42 1 -82 11q-39 12 -77 35v-273h-20v696h179q51 0 93 -16q42 -14 73 -47q33 -30 48 -72q15 -40 15 -94q0 -51 -16 -94q-15 -42 -48 -78q-32 -33 -74 -51q-40 -16 -91 -17zM90 440v-384q40 -22 79 -34t79 -12q48 0 85 15q39 15 66 46q30 31 44 71q15 40 14 89
q1 51 -14 87q-14 39 -44 66q-28 28 -67 42q-36 14 -84 14h-158z" />
    <glyph glyph-name="afii10083" unicode="&#x441;" horiz-adv-x="403" 
d="M268 469q30 1 57 -5q30 -4 58 -14v-22q-27 12 -57 16q-28 6 -58 6q-44 0 -82 -16q-36 -14 -66 -46q-28 -30 -43 -70q-15 -38 -15 -88q0 -48 15 -88t44 -70q30 -30 66 -46q37 -16 81 -16q30 0 58 6q30 6 57 16v-22q-28 -8 -58 -14q-27 -4 -57 -5q-48 1 -88 16
q-40 16 -74 49q-32 34 -48 77q-16 44 -17 95q1 54 16 98q17 44 47 76q34 34 74 51q40 16 90 16z" />
    <glyph glyph-name="afii10084" unicode="&#x442;" horiz-adv-x="394" 
d="M186 0v441h-182v19h386v-19h-182v-441h-22z" />
    <glyph glyph-name="afii10085" unicode="&#x443;" horiz-adv-x="419" 
d="M5 460h23q45 -88 183 -357q45 90 181 357h22q-88 -174 -354 -696h-21q40 81 162 319q-49 95 -196 377z" />
    <glyph glyph-name="afii10086" unicode="&#x444;" horiz-adv-x="571" 
d="M275 -236v236q-51 3 -93 18q-42 16 -76 48q-32 33 -48 72q-16 40 -17 87q1 54 16 94q16 41 48 73q33 33 75 49q44 17 95 19v238h21v-238q52 -2 94 -19q44 -16 75 -49q33 -32 49 -73q16 -39 16 -90q0 -49 -16 -89t-49 -73q-31 -31 -75 -49q-42 -15 -94 -18v-236h-21z
M275 18v423q-45 -1 -84 -16q-36 -15 -68 -44q-30 -27 -45 -66q-16 -38 -16 -86q0 -45 16 -83q16 -36 44 -66q30 -28 68 -45q40 -15 85 -17zM296 441v-423q48 2 86 17q38 17 68 45q30 30 44 67q15 37 15 82t-15 82q-14 39 -43 67q-29 30 -68 46t-87 17z" />
    <glyph glyph-name="afii10087" unicode="&#x445;" horiz-adv-x="467" 
d="M13 460h28q48 -52 192 -213q49 54 196 213h26q-53 -57 -209 -228q52 -58 211 -232h-28q-49 54 -197 217q-48 -53 -196 -217h-26q52 58 209 231q-51 58 -206 229z" />
    <glyph glyph-name="afii10088" unicode="&#x446;" 
d="M70 0v460h20v-442h313v442h21v-442h73v-161h-21v143h-406z" />
    <glyph glyph-name="afii10089" unicode="&#x447;" horiz-adv-x="462" 
d="M37 460h20v-111q0 -38 9 -68q10 -29 26 -53q18 -20 45 -32t62 -12q60 0 102 20q44 20 71 59v197h20v-460h-20v234q-32 -34 -75 -52q-42 -16 -98 -17q-42 1 -72 13q-29 12 -50 37q-20 26 -30 59q-9 34 -10 75v111z" />
    <glyph glyph-name="afii10090" unicode="&#x448;" horiz-adv-x="782" 
d="M70 0v460h20v-442h291v442h20v-442h291v442h21v-460h-643z" />
    <glyph glyph-name="afii10091" unicode="&#x449;" horiz-adv-x="801" 
d="M70 0v460h20v-442h291v442h20v-442h291v442h21v-442h72v-161h-20v143h-695z" />
    <glyph glyph-name="afii10092" unicode="&#x44a;" horiz-adv-x="439" 
d="M131 0v441h-127v19h148v-182h85q43 0 76 -9t56 -27q24 -18 34 -44q12 -26 12 -60q0 -33 -12 -59q-10 -25 -34 -43q-22 -18 -55 -27q-32 -9 -72 -9h-111zM152 17h89q37 0 64 8q27 7 47 22q22 15 31 38q10 23 10 53q0 32 -10 53q-9 23 -31 38q-20 17 -48 23q-27 8 -63 8
h-89v-243z" />
    <glyph glyph-name="afii10093" unicode="&#x44b;" horiz-adv-x="550" 
d="M90 460v-182h95q16 0 30 -1t24 -4q63 -9 94 -44q31 -33 31 -91q0 -56 -31 -89q-30 -33 -92 -45q-9 0 -23 -3q-12 -1 -28 -1h-120v460h20zM90 260v-243h99q37 0 64 8q28 7 48 22q21 15 31 38t10 53q0 32 -10 53q-10 23 -31 38q-20 17 -48 23q-27 8 -64 8h-99zM460 460h20
v-460h-20v460z" />
    <glyph glyph-name="afii10094" unicode="&#x44c;" horiz-adv-x="388" 
d="M90 460v-182h95q16 0 30 -1t24 -4q63 -9 94 -44q31 -33 31 -91q0 -56 -31 -89q-30 -33 -92 -45q-9 0 -23 -3q-12 -1 -28 -1h-120v460h20zM90 260v-243h99q37 0 64 8q28 7 48 22q21 15 31 38t10 53q0 32 -10 53q-10 23 -31 38q-20 17 -48 23q-27 8 -64 8h-99z" />
    <glyph glyph-name="afii10095" unicode="&#x44d;" horiz-adv-x="403" 
d="M135 469q51 0 92 -16q42 -17 72 -51q33 -32 48 -76t15 -98q0 -52 -15 -94t-49 -77q-32 -33 -73 -49q-40 -16 -90 -17q-27 1 -56 5q-29 6 -59 14v22q30 -10 58 -16q30 -6 57 -6q45 0 81 15t65 44q29 30 44 68q15 39 16 85h-262v19h262q-1 47 -16 83q-15 39 -44 67
q-29 29 -65 44t-81 15q-27 0 -57 -6q-28 -4 -58 -16v22q30 10 59 14q29 6 56 5z" />
    <glyph glyph-name="afii10096" unicode="&#x44e;" horiz-adv-x="689" 
d="M426 469q50 1 89 -17q41 -16 71 -52q32 -32 47 -76q15 -42 15 -95q0 -51 -15 -94t-46 -77q-31 -32 -71 -50q-40 -16 -90 -17q-48 1 -89 17q-39 18 -71 50q-30 34 -46 76q-16 44 -16 93h-114v-227h-20v460h20v-213h114q4 51 21 90q16 41 46 71q31 30 70 46q39 15 85 15z
M425 451q-42 0 -78 -15q-34 -14 -64 -47q-28 -31 -43 -71q-15 -38 -15 -89q0 -47 15 -87q15 -38 42 -70q28 -30 64 -47q36 -15 80 -16q45 1 81 16q36 17 63 47q30 32 43 70q15 40 14 87q1 48 -14 87q-13 40 -41 71q-26 33 -64 48q-36 16 -83 16z" />
    <glyph glyph-name="afii10097" unicode="&#x44f;" horiz-adv-x="419" 
d="M97 335q1 -25 11 -46q12 -20 31 -35q23 -14 50 -21q27 -8 62 -8h78v216h-92q-69 1 -105 -26q-34 -26 -35 -80zM233 460h116v-460h-20v207h-77q-21 0 -37 -3q-16 -2 -31 -10q-12 -6 -26 -20q-14 -12 -28 -31q-34 -47 -105 -143h-25q6 8 13 19q9 13 20 29q12 18 21 31
q9 15 17 24q8 11 17 23q10 12 20 25q10 14 21 24t21 18q10 9 21 13q11 6 20 9q-27 6 -49 15q-21 12 -37 27q-13 18 -22 36q-7 21 -7 43q0 63 39 93q40 31 118 31z" />
    <glyph glyph-name="uni0450" unicode="&#x450;" horiz-adv-x="462" 
d="M422 67v-23q-36 -26 -78 -40q-39 -12 -84 -13q-48 1 -88 17q-39 16 -71 49q-30 35 -45 77t-15 94q1 54 13 96q14 44 41 77q28 35 64 51q17 9 33 12q22 6 46 5q42 1 75 -13t58 -41q24 -27 39 -66q14 -39 17 -92h-364q0 1 0 -3v0q1 -2 1 -3t-1 -4v-5q-1 -3 -1 -6
q0 -51 14 -93q14 -41 41 -71t63 -46t80 -16q46 0 85 15q41 15 77 42zM66 275h338q-10 88 -53 132q-42 45 -114 44q-33 0 -61 -12q-28 -10 -52 -36q-24 -22 -38 -55t-20 -73zM138 693h25q32 -39 125 -159h-21q-31 39 -129 159z" />
    <glyph glyph-name="afii10071" unicode="&#x451;" horiz-adv-x="462" 
d="M422 67v-23q-36 -26 -78 -40q-39 -12 -84 -13q-48 1 -88 17q-39 16 -71 49q-30 35 -45 77t-15 94q1 54 13 96q14 44 41 77q28 35 64 51q19 10 37 13q21 4 42 4q42 1 75 -13t58 -41q24 -27 39 -66q14 -39 17 -92h-364q0 1 0 -3v0q1 -2 1 -3t-1 -4v-5q-1 -3 -1 -6
q0 -51 14 -93q14 -41 41 -71t63 -46t80 -16q46 0 85 15q41 15 77 42zM66 275h338q-10 88 -53 132q-42 45 -114 44q-33 0 -61 -12q-28 -10 -52 -36q-24 -22 -38 -55t-20 -73zM161 635h26v-86h-26v86zM299 635h27v-86h-27v86z" />
    <glyph glyph-name="afii10099" unicode="&#x452;" horiz-adv-x="489" 
d="M425 287v-309q1 -45 -7 -79q-8 -33 -25 -57q-15 -21 -44 -33q-28 -12 -70 -12q-13 0 -25 2t-22 2v19q10 -2 21 -3q12 -1 21 -1q38 0 64 9q26 10 39 30q15 21 21 51q6 32 6 74v304q0 38 -8 67q-8 30 -26 52q-16 23 -44 35q-27 12 -63 12q-53 0 -97 -29q-42 -27 -76 -85
v-336h-20v583h-70v18h70v97h20v-97h180v-18h-180v-215q15 24 33 41q20 20 42 32q23 15 47 21q26 8 51 7q42 0 72 -12q30 -11 50 -38q21 -26 30 -59q10 -33 10 -73z" />
    <glyph glyph-name="afii10100" unicode="&#x453;" horiz-adv-x="344" 
d="M70 0v460h212h58v-19h-249v-441h-21zM282 693h24q-32 -39 -129 -159h-20q32 39 125 159z" />
    <glyph glyph-name="afii10101" unicode="&#x454;" horiz-adv-x="408" 
d="M272 469q30 1 57 -5q30 -4 58 -14v-22q-27 12 -57 16q-28 6 -58 6q-42 0 -80 -15q-36 -15 -65 -44q-27 -28 -44 -67q-15 -36 -16 -83h262v-19h-262q1 -46 15 -85q16 -37 44 -67q30 -30 66 -45q38 -15 80 -15q30 0 58 6q30 6 57 16v-22q-28 -8 -58 -14q-27 -4 -57 -5
q-48 1 -88 16q-40 16 -73 49q-33 34 -49 77q-16 44 -17 95q1 54 16 98q16 44 48 76q33 34 73 51q40 16 90 16z" />
    <glyph glyph-name="afii10102" unicode="&#x455;" horiz-adv-x="337" 
d="M41 352q0 28 9 49t27 36q19 16 43 24q26 9 56 8q28 1 55 -8q27 -8 54 -24v-22q-27 18 -56 27q-27 9 -56 9q-26 1 -47 -7q-20 -6 -35 -19q-13 -11 -21 -31q-8 -18 -8 -41q0 -19 7 -35q7 -14 19 -28q14 -12 37 -25q24 -12 57 -26q34 -12 58 -26q24 -13 35 -28
q15 -12 20 -32q6 -17 6 -41q0 -26 -9 -49q-8 -21 -29 -38q-18 -17 -44 -26q-24 -8 -54 -8q-33 0 -65 9t-61 27v22q33 -19 64 -29q32 -10 62 -10q27 0 47 7q21 7 36 21q16 14 24 32q8 20 8 42q0 21 -6 36q-6 16 -20 28q-12 12 -37 25q-23 12 -57 24q-32 14 -56 26
q-22 13 -36 27q-12 15 -20 33q-6 19 -7 41z" />
    <glyph glyph-name="afii10103" unicode="&#x456;" horiz-adv-x="160" 
d="M70 0v460h20v-460h-20zM70 635h20v-86h-20v86z" />
    <glyph glyph-name="afii10104" unicode="&#x457;" horiz-adv-x="160" 
d="M72 460h20v-460h-20v460zM0 635h27v-86h-27v86zM138 635h27v-86h-27v86z" />
    <glyph glyph-name="afii10105" unicode="&#x458;" horiz-adv-x="160" 
d="M-31 -218q27 3 46 15q21 12 31 32q12 21 18 50t6 68v513h20v-514q0 -86 -29 -131q-28 -45 -88 -51q-1 6 -4 18zM70 635h20v-86h-20v86z" />
    <glyph glyph-name="afii10106" unicode="&#x459;" horiz-adv-x="616" 
d="M379 0q-45 110 -178 436q-44 -108 -176 -436h-23q48 120 194 474h10q21 -48 81 -196h127q44 0 76 -9q34 -9 56 -27q24 -18 34 -44q12 -26 12 -60q0 -33 -12 -59q-10 -25 -34 -43q-22 -18 -55 -27q-30 -9 -72 -9h-40zM394 17h24q36 0 64 8q27 7 47 22q21 15 31 38t10 53
q0 32 -10 53q-10 23 -31 38q-20 17 -48 23q-27 8 -63 8h-124q26 -60 100 -243z" />
    <glyph glyph-name="afii10107" unicode="&#x45a;" horiz-adv-x="690" 
d="M70 0v460h20v-203h287v203h20v-203h90q43 1 76 -8t57 -26q24 -16 34 -40q12 -23 12 -55q0 -30 -12 -55q-10 -22 -34 -40q-24 -15 -55 -25q-32 -8 -72 -8h-116v238h-287v-238h-20zM397 17h95q36 1 63 7q28 8 48 21q21 15 31 35q10 21 10 48q0 28 -10 48q-10 21 -31 35
q-20 15 -48 22q-27 7 -63 7h-95v-223z" />
    <glyph glyph-name="afii10108" unicode="&#x45b;" horiz-adv-x="489" 
d="M263 469q42 0 72 -12q30 -11 50 -38q21 -26 30 -59q10 -33 10 -73v-287h-21v284q0 38 -8 67q-8 30 -26 52q-16 23 -44 35q-27 12 -63 12q-53 0 -97 -29q-42 -27 -76 -85v-336h-20v583h-70v18h70v97h20v-97h180v-18h-180v-215q15 24 33 41q20 20 42 32q23 15 47 21
q26 8 51 7z" />
    <glyph glyph-name="afii10109" unicode="&#x45c;" horiz-adv-x="389" 
d="M70 0v460h20v-211h42q36 1 62 22q26 22 44 66q8 18 21 52q6 12 9 20q3 9 6 14q4 6 10 12t15 12q10 7 22 10q3 1 4 1q11 2 21 2h12v-19h-11q-12 1 -22 -2q-9 -3 -17 -9q-6 -4 -14 -18q-6 -12 -16 -33q-8 -18 -23 -54q-8 -20 -18 -35q-9 -14 -22 -26q-11 -10 -21 -16
q-8 -6 -17 -6q21 -4 35 -12q16 -6 26 -18q10 -9 24 -29q15 -19 30 -47q28 -44 82 -136h-26q-20 33 -79 131q-17 31 -33 49q-14 21 -29 30q-13 12 -33 16q-18 4 -44 4h-40v-230h-20zM279 693h24q-31 -39 -129 -159h-20q32 39 125 159z" />
    <glyph glyph-name="uni045D" unicode="&#x45d;" horiz-adv-x="537" 
d="M70 0v460h20v-427q90 107 357 427h20v-460h-21v427q-88 -106 -356 -427h-20zM156 693h24q32 -39 125 -159h-20q-33 39 -129 159z" />
    <glyph glyph-name="afii10110" unicode="&#x45e;" horiz-adv-x="419" 
d="M5 460h23q45 -88 183 -357q45 90 181 357h22q-88 -174 -354 -696h-21q40 81 162 319q-49 95 -196 377zM74 663h21q17 -48 44 -72q28 -25 70 -25q43 0 71 25q28 24 43 72h21q-15 -58 -48 -88q-33 -29 -87 -29q-11 0 -23 2q-4 0 -8 1q-8 1 -16 4q-22 9 -40 24
q-18 16 -30 37q-12 22 -18 49z" />
    <glyph glyph-name="afii10193" unicode="&#x45f;" horiz-adv-x="494" 
d="M237 0h-167v460h20v-441h313v441h21v-460h-167v-121h-20v121z" />
    <glyph glyph-name="afii10146" unicode="&#x462;" horiz-adv-x="595" 
d="M159 0v573h-159v23h159v102h22v-102h173v-23h-173v-207h164q53 0 92 -12q41 -10 69 -36q30 -22 44 -57q14 -33 14 -78q0 -43 -14 -76t-44 -58q-28 -23 -71 -37q-42 -12 -96 -12h-180zM181 22h162q46 0 82 10t62 30q27 21 40 51q13 31 13 70q0 40 -13 70t-40 50
q-26 21 -62 31t-82 10h-162v-322z" />
    <glyph glyph-name="afii10194" unicode="&#x463;" horiz-adv-x="396" 
d="M109 278h85q16 0 29 -1q14 -1 24 -4q63 -9 94 -44q31 -33 31 -91q0 -56 -31 -89q-30 -33 -92 -45q-9 0 -23 -3q-12 -1 -27 -1h-111v480h-103v19h103v199h21v-199h149v-19h-149v-202zM109 17h89q36 0 64 8q27 7 47 22q21 15 31 38t10 53q0 32 -10 53q-10 23 -31 38
q-20 17 -48 23q-27 8 -63 8h-89v-243z" />
    <glyph glyph-name="afii10147" unicode="&#x472;" horiz-adv-x="806" 
d="M51 342q0 81 26 147q25 65 76 116q51 53 112 77q63 26 135 26q56 0 102 -12q48 -12 89 -39q42 -24 72 -57q31 -33 51 -73q21 -39 31 -82q10 -42 10 -90q1 -79 -25 -145q-24 -64 -76 -117q-50 -51 -113 -76q-63 -26 -140 -26q-75 0 -138 26q-63 27 -112 77q-49 52 -75 114
q-24 62 -25 134zM76 366h653q-3 70 -27 127t-69 102t-101 68q-56 22 -125 22t-129 -22q-58 -23 -104 -68q-45 -45 -71 -102q-24 -57 -27 -127zM730 343h-654q2 -69 25 -128q24 -58 69 -106q46 -48 103 -72q59 -24 125 -24q74 1 133 25q60 24 105 72q46 48 70 106
q24 60 24 127z" />
    <glyph glyph-name="afii10195" unicode="&#x473;" horiz-adv-x="535" 
d="M267 469q50 1 90 -17q40 -16 72 -52q33 -33 48 -77q17 -43 17 -94q0 -49 -16 -93q-15 -42 -48 -77q-32 -33 -73 -51q-40 -16 -90 -17q-49 1 -89 16q-40 17 -73 50q-32 34 -48 76q-15 42 -16 92q1 54 16 98q17 45 47 77q34 36 73 52q42 18 90 17zM267 9q45 0 81 15
q36 16 65 46t44 68q15 39 15 84h-410q2 -45 16 -84q16 -38 44 -68q30 -30 66 -46q36 -15 79 -15zM266 451q-40 0 -77 -15q-34 -14 -64 -44q-29 -28 -45 -67q-15 -38 -18 -84h410q0 45 -17 82q-15 37 -43 67q-27 32 -65 46q-36 15 -81 15z" />
    <glyph glyph-name="afii10148" unicode="&#x474;" horiz-adv-x="608" 
d="M276 -15q-66 179 -271 713h25q62 -162 250 -651v0q54 141 215 563q9 26 19 44q10 20 20 30q10 12 25 18t33 6q14 0 26 -3q12 -1 23 -7v-21q-9 6 -21 9q-12 2 -28 2q-12 0 -24 -5q-10 -3 -19 -14q-7 -9 -16 -26q-9 -15 -18 -39q-77 -206 -239 -619v0z" />
    <glyph glyph-name="afii10196" unicode="&#x475;" horiz-adv-x="446" 
d="M379 404q-42 -104 -171 -418h-10q-48 118 -196 474h23q45 -108 178 -436q39 98 158 392q12 28 28 40q18 14 40 13q13 1 22 -2t16 -7v-21q-8 6 -17 9q-10 3 -22 3q-14 0 -28 -12q-12 -11 -21 -35z" />
    <glyph glyph-name="afii10050" unicode="&#x490;" horiz-adv-x="443" 
d="M82 0v698h320v123h23v-145h-321v-676h-22z" />
    <glyph glyph-name="afii10098" unicode="&#x491;" horiz-adv-x="344" 
d="M70 0v460h229v121h20v-140h-228v-441h-21z" />
    <glyph glyph-name="Ghestrokecyrillic" unicode="&#x492;" horiz-adv-x="451" 
d="M82 366v332h353v-22h-331v-310h197v-21h-197v-345h-22v345h-85v21h85z" />
    <glyph glyph-name="ghestrokecyrillic" unicode="&#x493;" horiz-adv-x="344" 
d="M70 0v227h-64v21h64v212h260v-19h-239v-193h137v-21h-137v-227h-21z" />
    </font>
</defs>
</svg>
