<?xml version="1.0" standalone="no"?>
<!DOCTYPE svg PUBLIC "-//W3C//DTD SVG 1.1//EN" "http://www.w3.org/Graphics/SVG/1.1/DTD/svg11.dtd" >
<svg xmlns="http://www.w3.org/2000/svg" xmlns:xlink="http://www.w3.org/1999/xlink" version="1.1">
<metadata>
Created by FontForge 20170731 at Fri Dec 18 12:39:13 2015
 By Aleksey,,,
Copyright 2015 (c) The Monotype Corporation. All rights reserved.
</metadata>
<defs>
<font id="GillSansNova-UltraLight" horiz-adv-x="500" >
  <font-face 
    font-family="Gill Sans Nova for JL UltraLt"
    font-weight="250"
    font-stretch="normal"
    units-per-em="1000"
    panose-1="2 11 2 2 2 2 4 2 2 3"
    ascent="729"
    descent="-271"
    x-height="449"
    cap-height="682"
    bbox="-397 -249 1219 950"
    underline-thickness="50"
    underline-position="-200"
    unicode-range="U+000D-FEFF"
  />
<missing-glyph 
d="M12 665h475v-665h-475v665zM88 618l162 -243l161 243h-323zM60 575v-484q37 53 161 242zM440 90v485l-162 -242zM411 48l-161 242l-162 -242h323z" />
    <glyph glyph-name="IJ" unicode="IJ" horiz-adv-x="363" 
d="M80 682h22v-682h-22v682zM126 -197l-2 21q6 0 14 -1t13 -1q57 0 83.5 38.5t26.5 122.5v699h22v-703q0 -178 -132 -178q-7 0 -25 2z" />
    <glyph glyph-name="ij" unicode="ij" horiz-adv-x="316" 
d="M68 0v449h20v-449h-20zM68 620h20v-84h-20v84zM130 -213q52 6 75 46t23 115v501h20v-502q0 -167 -114 -177zM228 620h20v-84h-20v84z" />
    <glyph glyph-name="f_f" unicode="ff" horiz-adv-x="504" 
d="M237 691q41 0 69 -13v-21q-35 15 -69 15q-123 0 -123 -149v-74h234v74q0 81 37 124.5t106 43.5q38 0 63 -11v-21q-29 13 -63 13q-123 0 -123 -150v-73h87v-18h-87v-431h-20v431h-234v-431h-20v431h-73v18h73v75q0 79 37 123t106 44z" />
    <glyph glyph-name="f_f_i" unicode="ffi" horiz-adv-x="690" 
d="M237 691q41 0 69 -13v-21q-35 15 -69 15q-123 0 -123 -149v-74h234v74q0 81 37 124.5t106 43.5q38 0 63 -11v-21q-29 13 -63 13q-123 0 -123 -150v-73h87v-18h-87v-431h-20v431h-234v-431h-20v431h-73v18h73v75q0 79 37 123t106 44zM602 0v449h20v-449h-20zM602 620h20
v-84h-20v84z" />
    <glyph glyph-name="f_f_l" unicode="ffl" horiz-adv-x="690" 
d="M94 0v431h-73v18h73v75q0 79 37 123t106 44q41 0 69 -13v-21q-35 15 -69 15q-123 0 -123 -149v-74h234v74q0 81 37 124.5t106 43.5q38 0 63 -11v-21q-29 13 -63 13q-123 0 -123 -150v-73h87v-18h-87v-431h-20v431h-234v-431h-20zM602 0v682h20v-682h-20z" />
    <glyph glyph-name="f_i" unicode="fi" horiz-adv-x="436" 
d="M237 691q37 0 69 -13v-21q-35 15 -69 15q-123 0 -123 -152v-71h127v-18h-127v-431h-20v431h-73v18h73v73q0 81 37 125t106 44zM348 0v449h20v-449h-20zM348 620h20v-84h-20v84z" />
    <glyph glyph-name="f_l" unicode="fl" horiz-adv-x="440" 
d="M237 691q37 0 69 -13v-21q-35 15 -69 15q-123 0 -123 -152v-71h127v-18h-127v-431h-20v431h-73v18h73v73q0 81 37 125t106 44zM352 682h20v-682h-20v682z" />
    <glyph glyph-name=".notdef" 
d="M12 665h475v-665h-475v665zM88 618l162 -243l161 243h-323zM60 575v-484q37 53 161 242zM440 90v485l-162 -242zM411 48l-161 242l-162 -242h323z" />
    <glyph glyph-name=".null" horiz-adv-x="0" 
 />
    <glyph glyph-name="nonmarkingreturn" horiz-adv-x="333" 
 />
    <glyph glyph-name="NULL" horiz-adv-x="0" 
 />
    <glyph glyph-name="NULL" horiz-adv-x="0" 
 />
    <glyph glyph-name="CR" unicode="&#xd;" horiz-adv-x="278" 
 />
    <glyph glyph-name="space" unicode=" " horiz-adv-x="278" 
 />
    <glyph glyph-name="exclam" unicode="!" horiz-adv-x="158" 
d="M69 192v490h20v-490h-20zM65 75h28v-75h-28v75z" />
    <glyph glyph-name="quotedbl" unicode="&#x22;" horiz-adv-x="228" 
d="M37 684h20v-109l-4 -125h-12l-4 125v109zM171 684h20v-109l-4 -125h-12l-4 125v109z" />
    <glyph glyph-name="numbersign" unicode="#" horiz-adv-x="637" 
d="M262 698h20l-45 -220h218l46 220h20l-45 -220h98v-20h-102l-45 -215h147v-20h-151l-44 -216h-20l44 216h-219l-44 -216h-20l44 216h-96v20h100l44 215h-144v20h148zM233 458l-45 -215h219l44 215h-218z" />
    <glyph glyph-name="dollar" unicode="$" horiz-adv-x="470" 
d="M245 -8v-109h-22v108q-102 0 -188 50v26q90 -55 188 -55v311q-103 33 -145.5 72t-42.5 107q0 67 50 109.5t138 48.5v46h22v-45q91 0 164 -33v-25q-83 37 -164 37v-298q107 -35 148.5 -75.5t41.5 -108.5q0 -70 -50.5 -114.5t-139.5 -51.5zM245 316v-303q78 6 122 45
t44 100q0 60 -37 94t-129 64zM223 349v290q-76 -6 -120 -43t-44 -93q0 -58 36.5 -91t127.5 -63z" />
    <glyph glyph-name="percent" unicode="%" horiz-adv-x="740" 
d="M201 369q-67 0 -114 47.5t-47 113.5t47 113.5t114 47.5q66 0 113.5 -47t47.5 -114q0 -66 -46.5 -113.5t-114.5 -47.5zM539 -9q-67 0 -114 47.5t-47 113.5t47 113.5t114 47.5q66 0 113.5 -47t47.5 -114q0 -66 -46.5 -113.5t-114.5 -47.5zM539 10q59 0 100 42.5t41 99.5
q0 58 -41 100t-101 42q-57 0 -98.5 -41.5t-41.5 -100.5q0 -58 41.5 -100t99.5 -42zM201 388q59 0 100 42.5t41 99.5q0 58 -41 100t-101 42q-57 0 -98.5 -41.5t-41.5 -100.5q0 -58 41.5 -100t99.5 -42zM110 0l502 682h25l-502 -682h-25z" />
    <glyph glyph-name="ampersand" unicode="&#x26;" horiz-adv-x="598" 
d="M240 361l203 -199q52 80 81 178h19q-29 -103 -87 -190l12 -12t14 -14.5t12 -11.5l115 -112h-28l-136 133q-104 -142 -235 -142q-86 0 -136.5 46t-50.5 124q0 35 15 64.5t47.5 56t56 41.5t68.5 41q-108 104 -118 162q-4 22 -4 31q0 59 42 96.5t108 37.5q67 0 110 -40
t43 -105q0 -51 -34.5 -94t-116.5 -91zM432 146l-209 205l-64 -39q-116 -71 -116 -151q0 -55 29 -92t81 -51q30 -7 57 -7q127 0 222 135zM227 374q80 47 112 85.5t32 86.5q0 58 -35.5 92t-98.5 34q-58 0 -93.5 -31.5t-35.5 -83.5q0 -29 16 -60.5t34.5 -51.5t41 -42.5
t27.5 -28.5z" />
    <glyph glyph-name="quotesingle" unicode="'" horiz-adv-x="176" 
d="M78 684h20v-109l-4 -125h-12l-4 125v109z" />
    <glyph glyph-name="parenleft" unicode="(" horiz-adv-x="301" 
d="M274 691h21q-94 -94 -144.5 -212.5t-50.5 -247.5q0 -265 195 -460h-21q-193 193 -193 460t193 460z" />
    <glyph glyph-name="parenright" unicode=")" horiz-adv-x="301" 
d="M27 -229h-21q195 193 195 460q0 265 -195 460h21q193 -193 193 -460t-193 -460z" />
    <glyph glyph-name="asterisk" unicode="*" horiz-adv-x="444" 
d="M72 625l14 14l127 -131l2 1l-3 182h20l-3 -182l2 -1l127 131l14 -14l-131 -126l1 -3l182 3v-20l-182 4l-1 -3l131 -127l-14 -14l-127 132l-2 -1l3 -183h-20l3 183l-2 1l-127 -132l-14 14l132 127l-1 3l-183 -4v20l183 -3l1 3z" />
    <glyph glyph-name="plus" unicode="+" 
d="M40 341v20h200v212h20v-212h200v-20h-200v-212h-20v212h-200z" />
    <glyph glyph-name="comma" unicode="," horiz-adv-x="135" 
d="M29 -117v17q37 31 37 100h-18v75h39v-59q-1 -91 -58 -133z" />
    <glyph glyph-name="hyphen" unicode="-" horiz-adv-x="313" 
d="M38 241h237v-18h-237v18z" />
    <glyph glyph-name="period" unicode="." horiz-adv-x="132" 
d="M48 75h36v-75h-36v75z" />
    <glyph glyph-name="slash" unicode="/" horiz-adv-x="247" 
d="M225 691h16l-219 -700h-16z" />
    <glyph glyph-name="zero" unicode="0" 
d="M250 -9q-103 0 -159.5 94t-56.5 256q0 161 56 255.5t160 94.5t160 -94.5t56 -255.5t-56 -255.5t-160 -94.5zM250 11q92 0 142.5 87.5t50.5 242.5q0 154 -50 242t-144 88q-91 0 -141.5 -87t-50.5 -243q0 -155 50.5 -242.5t142.5 -87.5z" />
    <glyph glyph-name="one" unicode="1" 
d="M173 0h-22v661l-128 -118v30l128 118h22v-691z" />
    <glyph glyph-name="two" unicode="2" 
d="M234 691q90 0 143.5 -51.5t53.5 -137.5q0 -101 -62.5 -192.5t-254.5 -288.5h348v-21h-399l62 63q170 175 226 260.5t56 178.5q0 77 -47 123t-125 46q-87 0 -166 -62v23q77 59 165 59z" />
    <glyph glyph-name="three" unicode="3" 
d="M427 527q0 -60 -38 -105.5t-103 -61.5q72 -18 110.5 -65t38.5 -116q0 -83 -57.5 -135.5t-147.5 -52.5q-85 0 -155 37v23q80 -40 155 -40q83 0 132 46t49 122q0 80 -53.5 125.5t-148.5 45.5v19q91 0 142.5 42.5t51.5 115.5q0 62 -46.5 103t-121.5 41q-84 0 -154 -45v23
q69 42 157 42q80 0 134.5 -47.5t54.5 -116.5z" />
    <glyph glyph-name="four" unicode="4" 
d="M363 691h10v-397h102v-22h-102v-272h-22v272h-326v19zM351 294v350l-296 -350h296z" />
    <glyph glyph-name="five" unicode="5" 
d="M112 682h277v-22h-255v-245q34 6 72 6q103 0 165.5 -57t62.5 -153q0 -98 -60 -159t-158 -61q-88 0 -164 40v22q87 -42 164 -42q88 0 141 55.5t53 144.5q0 87 -56 138t-150 51q-52 0 -92 -10v292z" />
    <glyph glyph-name="six" unicode="6" 
d="M345 691l12 -16q-242 -182 -277 -373q82 67 176 67q87 0 140.5 -51.5t53.5 -136.5q0 -83 -55 -136.5t-140 -53.5q-96 0 -150.5 65t-54.5 176q0 237 295 459zM74 232q0 -104 48 -162.5t133 -58.5q75 0 123 47.5t48 122.5q0 76 -46.5 122t-126.5 46q-37 0 -76 -11t-71 -39
t-32 -67z" />
    <glyph glyph-name="seven" unicode="7" 
d="M119 1l326 659h-410v22h446q-2 -3 -342 -691z" />
    <glyph glyph-name="eight" unicode="8" 
d="M194 354q-56 19 -87 63.5t-31 102.5q0 72 50.5 121.5t123.5 49.5q74 0 124 -49.5t50 -121.5q0 -57 -31.5 -102t-85.5 -64q60 -18 95.5 -64.5t35.5 -108.5q0 -84 -53 -137t-135 -53q-83 0 -135.5 54t-52.5 136q0 63 35 109.5t97 63.5zM100 520q0 -70 42.5 -113.5
t107.5 -43.5t107.5 43.5t42.5 113.5q0 65 -42.5 108t-108.5 43q-63 0 -106 -42t-43 -109zM86 181q0 -76 46 -123t118 -47q73 0 118.5 46.5t45.5 123.5q0 72 -45.5 117t-119.5 45q-72 0 -117.5 -45t-45.5 -117z" />
    <glyph glyph-name="nine" unicode="9" 
d="M155 -9l-12 16q126 96 193 186.5t84 186.5q-81 -67 -176 -67q-87 0 -140.5 51.5t-53.5 136.5q0 82 54.5 136t140.5 54q96 0 150.5 -65t54.5 -176q0 -242 -295 -459zM74 501q0 -76 47 -122t124 -46q68 0 124.5 31t56.5 86q0 103 -48 162t-134 59q-73 0 -121.5 -47.5
t-48.5 -122.5z" />
    <glyph glyph-name="colon" unicode=":" horiz-adv-x="132" 
d="M48 75h36v-75h-36v75zM48 449h36v-75h-36v75z" />
    <glyph glyph-name="semicolon" unicode=";" horiz-adv-x="135" 
d="M29 -117v17q37 31 37 100h-18v75h39v-59q-1 -91 -58 -133zM48 449h36v-75h-36v75z" />
    <glyph glyph-name="less" unicode="&#x3c;" 
d="M40 329v16l420 197v-24l-393 -181l393 -184v-24z" />
    <glyph glyph-name="equal" unicode="=" 
d="M40 461v20h420v-20h-420zM40 219v20h420v-20h-420z" />
    <glyph glyph-name="greater" unicode="&#x3e;" 
d="M40 129v24l393 181l-393 184v24l420 -200v-16z" />
    <glyph glyph-name="question" unicode="?" horiz-adv-x="267" 
d="M24 612l16 57q29 22 71 22q51 0 83.5 -34.5t32.5 -100.5q0 -67 -61 -158q-1 -2 -11 -16.5t-11.5 -17.5t-10 -16t-10.5 -17.5t-8 -16t-8 -18.5t-5 -17t-4 -19t-1 -19q0 -28 15 -49l-12 -11q-22 30 -22 65q0 11 2 22.5t4 20t8 21.5t8.5 19.5t11.5 21t11.5 18.5t13 20.5
t12.5 18.5q57 88 57 148t-26.5 88.5t-68.5 28.5q-33 0 -48.5 -13t-28.5 -48h-10zM125 75v-75h-27v75h27z" />
    <glyph glyph-name="at" unicode="@" horiz-adv-x="859" 
d="M694 -35l10 -13q-113 -89 -302 -89q-153 0 -255 105.5t-102 295.5q0 180 114 304t292 124q159 0 261 -89.5t102 -241.5q0 -129 -62.5 -214.5t-156.5 -85.5q-71 0 -71 66q0 20 5 50q-47 -55 -89.5 -85.5t-87.5 -30.5q-61 0 -99 50.5t-38 134.5q0 124 70 203t195 79
q63 0 127 -20l-58 -328q-5 -32 -5 -52q0 -26 11.5 -37.5t40.5 -11.5q80 0 139 77.5t59 204.5q0 144 -96.5 228.5t-247.5 84.5q-163 0 -274 -115.5t-111 -294.5q0 -176 93 -279.5t244 -103.5q184 0 292 84zM533 210l51 284q-43 16 -105 16q-111 0 -177.5 -73t-66.5 -190
q0 -76 32.5 -122t85.5 -46q76 0 180 131z" />
    <glyph glyph-name="A" unicode="A" horiz-adv-x="629" 
d="M306 687h17l301 -687h-25l-106 243h-358l-105 -243h-25zM314 652l-170 -389h340z" />
    <glyph glyph-name="B" unicode="B" horiz-adv-x="506" 
d="M80 682h129q87 0 149 -40.5t62 -127.5q0 -64 -34.5 -107t-97.5 -56q88 -5 138 -51.5t50 -124.5t-55.5 -126.5t-155.5 -48.5h-185v682zM102 661v-303h91q203 0 203 151q0 152 -200 152h-94zM102 21h159q82 0 136.5 37.5t54.5 116.5q0 161 -216 161h-134v-315z" />
    <glyph glyph-name="C" unicode="C" horiz-adv-x="643" 
d="M393 691q111 0 216 -50v-29q-101 57 -220 57q-139 0 -227 -92.5t-88 -235.5q0 -145 88.5 -236.5t226.5 -91.5q119 0 220 57v-29q-105 -50 -216 -50q-151 0 -247 98t-96 246q0 157 94.5 256.5t248.5 99.5z" />
    <glyph glyph-name="D" unicode="D" horiz-adv-x="728" 
d="M80 0v682h233q160 0 262.5 -92.5t102.5 -242.5q0 -159 -100 -253t-265 -94h-233zM102 22h218q146 0 240 88t94 224q0 151 -94.5 238.5t-243.5 87.5h-214v-638z" />
    <glyph glyph-name="E" unicode="E" horiz-adv-x="459" 
d="M80 682h341v-21h-319v-306h311v-22h-311v-312h327v-21h-349v682z" />
    <glyph glyph-name="F" unicode="F" horiz-adv-x="410" 
d="M80 682h320v-21h-298v-293h269v-21h-269v-347h-22v682z" />
    <glyph glyph-name="G" unicode="G" horiz-adv-x="686" 
d="M609 641v-29q-101 57 -220 57q-137 0 -226 -91t-89 -227q0 -156 87 -247t238 -91q110 0 200 49v219h-156v21h178v-256q-96 -55 -225 -55q-157 0 -251.5 97.5t-94.5 254.5q0 152 95.5 250t247.5 98q111 0 216 -50z" />
    <glyph glyph-name="H" unicode="H" horiz-adv-x="690" 
d="M80 682h22v-325h486v325h22v-682h-22v335h-486v-335h-22v682z" />
    <glyph glyph-name="I" unicode="I" horiz-adv-x="182" 
d="M80 682h22v-682h-22v682z" />
    <glyph glyph-name="J" unicode="J" horiz-adv-x="182" 
d="M-55 -197l-2 21q6 0 14 -1t13 -1q57 0 83.5 38.5t26.5 122.5v699h22v-703q0 -178 -132 -178q-7 0 -25 2z" />
    <glyph glyph-name="K" unicode="K" horiz-adv-x="478" 
d="M80 682h22v-340l326 340h29l-325 -339l354 -343h-31l-353 342v-342h-22v682z" />
    <glyph glyph-name="L" unicode="L" horiz-adv-x="466" 
d="M80 682h22v-660h352v-22h-374v682z" />
    <glyph glyph-name="M" unicode="M" horiz-adv-x="755" 
d="M80 0v682h24l273 -344l274 344h24v-682h-22v647h-4l-270 -342h-4l-269 342h-4v-647h-22z" />
    <glyph glyph-name="N" unicode="N" horiz-adv-x="744" 
d="M80 682h21l541 -646v646h22v-682h-21l-541 646v-646h-22v682z" />
    <glyph glyph-name="O" unicode="O" horiz-adv-x="787" 
d="M391 691q106 0 186.5 -49.5t120 -126.5t39.5 -168q0 -156 -98.5 -256t-246.5 -100q-149 0 -245.5 101t-96.5 242q0 158 99 257.5t242 99.5zM397 669q-141 0 -232 -93t-91 -235q0 -138 90.5 -233t224.5 -95q144 0 234 95.5t90 230.5q0 143 -89 236.5t-227 93.5z" />
    <glyph glyph-name="P" unicode="P" horiz-adv-x="487" 
d="M80 682h163q100 0 157 -45t57 -130q0 -84 -57 -130t-163 -46h-135v-331h-22v682zM102 661v-309h139q90 0 141 38.5t51 116.5t-51 116t-141 38h-139z" />
    <glyph glyph-name="Q" unicode="Q" horiz-adv-x="787" 
d="M739 341q0 -143 -93 -243t-234 -106q103 -93 273 -113l-16 -20q-96 11 -163 45t-128 88q-141 6 -233.5 104.5t-92.5 244.5q0 149 97.5 249.5t247.5 100.5q151 0 246.5 -99.5t95.5 -250.5zM715 341q0 141 -89.5 234.5t-229.5 93.5t-230 -94t-90 -234q0 -139 91 -233.5
t229 -94.5q137 0 228 95t91 233z" />
    <glyph glyph-name="R" unicode="R" horiz-adv-x="548" 
d="M80 0v682h161q210 0 210 -168q0 -72 -43 -115t-120 -52q37 -12 59 -31.5t47 -59.5l160 -256h-27l-146 235q-38 60 -74 82t-96 22h-109v-339h-22zM102 361h89q117 0 176.5 33.5t59.5 118.5t-52.5 116.5t-150.5 31.5h-122v-300z" />
    <glyph glyph-name="S" unicode="S" horiz-adv-x="419" 
d="M222 691q78 0 140 -34v-26q-69 39 -139 39q-72 0 -117.5 -40.5t-45.5 -104.5q0 -55 30 -93.5t123 -72.5q98 -36 135.5 -79t37.5 -114q0 -79 -51.5 -127t-135.5 -48q-90 0 -161 52v26q81 -57 162 -57q73 0 117.5 41.5t44.5 112.5q0 63 -33 99.5t-124 71.5
q-93 36 -131 77.5t-38 110.5q0 72 52.5 119t133.5 47z" />
    <glyph glyph-name="T" unicode="T" horiz-adv-x="558" 
d="M12 682h534v-21h-256v-661h-22v661h-256v21z" />
    <glyph glyph-name="U" unicode="U" horiz-adv-x="684" 
d="M72 682h22v-390q0 -118 64.5 -199t181.5 -81q120 0 185 80.5t65 199.5v390h22v-391q0 -128 -70.5 -214t-195.5 -86q-133 0 -203.5 85t-70.5 218v388z" />
    <glyph glyph-name="V" unicode="V" horiz-adv-x="582" 
d="M290 -15l-285 697h24l263 -643l262 643h23l-284 -697h-3z" />
    <glyph glyph-name="W" unicode="W" horiz-adv-x="1024" 
d="M273 -7l-269 689h24l246 -632l234 632h7l244 -626l235 626h26l-259 -689h-4l-245 637l-236 -637h-3z" />
    <glyph glyph-name="X" unicode="X" horiz-adv-x="654" 
d="M20 682h27l281 -318l282 318h28l-297 -333l310 -349h-27l-296 334l-297 -334h-28l311 350z" />
    <glyph glyph-name="Y" unicode="Y" horiz-adv-x="553" 
d="M4 682h26l247 -292l247 292h25l-261 -310v-372h-22v372z" />
    <glyph glyph-name="Z" unicode="Z" horiz-adv-x="598" 
d="M5 0v9l538 652h-526v21h559v-14l-534 -647h550v-21h-587z" />
    <glyph glyph-name="bracketleft" unicode="[" horiz-adv-x="274" 
d="M69 682h198v-20h-178v-862h178v-20h-198v902z" />
    <glyph glyph-name="backslash" unicode="\" horiz-adv-x="247" 
d="M6 691h16l219 -700h-16z" />
    <glyph glyph-name="bracketright" unicode="]" horiz-adv-x="274" 
d="M7 682h198v-902h-198v20h178v862h-178v20z" />
    <glyph glyph-name="asciicircum" unicode="^" 
d="M40 429l210 259l35 -43l175 -216l-16 -12l-194 241l-194 -241z" />
    <glyph glyph-name="underscore" unicode="_" 
d="M-5 -91h510v-20h-510v20z" />
    <glyph glyph-name="grave" unicode="`" horiz-adv-x="368" 
d="M111 677h24l122 -156h-20z" />
    <glyph glyph-name="a" unicode="a" horiz-adv-x="410" 
d="M200 458q66 0 95 -32.5t29 -100.5v-299q0 -15 7 -15q14 0 67 43v-20q-52 -43 -73 -43q-12 0 -16.5 7.5t-4.5 28.5v37q-74 -73 -151 -73q-57 0 -90 30.5t-33 80.5q0 71 72 114.5t202 48.5v59q0 60 -23.5 87.5t-82.5 27.5q-72 0 -143 -57v23q67 53 145 53zM51 102
q0 -42 27.5 -67t74.5 -25q75 0 151 76v161q-112 -2 -182.5 -40.5t-70.5 -104.5z" />
    <glyph glyph-name="b" unicode="b" horiz-adv-x="490" 
d="M450 237q0 -109 -62.5 -177.5t-161.5 -68.5q-73 0 -158 32v659h20v-306q70 82 171 82q89 0 140 -64t51 -157zM88 351v-313q69 -28 138 -28q91 0 147 64t56 163q0 87 -46.5 145t-125.5 58q-50 0 -88 -20t-81 -69z" />
    <glyph glyph-name="c" unicode="c" horiz-adv-x="394" 
d="M262 458q55 0 112 -19v-21q-56 21 -112 21q-89 0 -145 -60t-56 -154q0 -95 57 -155t144 -60q56 0 112 21v-21q-57 -19 -112 -19q-95 0 -158.5 64.5t-63.5 167.5q0 105 62 170t160 65z" />
    <glyph glyph-name="d" unicode="d" horiz-adv-x="490" 
d="M422 0h-161q-97 0 -159 63.5t-62 164.5q0 103 59 166.5t152 63.5q79 0 151 -48v272h20v-682zM402 19v368q-73 53 -152 53q-85 0 -137 -59t-52 -153t56.5 -151.5t143.5 -57.5h141z" />
    <glyph glyph-name="e" unicode="e" horiz-adv-x="451" 
d="M412 65v-22q-73 -52 -158 -52q-96 0 -155 65t-59 167q0 103 53.5 169t138.5 66q82 0 130 -53t55 -154h-355v-3.5t-0.5 -7t-0.5 -10.5q0 -101 53.5 -160.5t139.5 -59.5q87 0 158 55zM64 269h331q-23 171 -164 171q-64 0 -110.5 -46.5t-56.5 -124.5z" />
    <glyph glyph-name="f" unicode="f" horiz-adv-x="256" 
d="M237 691q37 0 69 -13v-21q-35 15 -69 15q-123 0 -123 -152v-71h127v-18h-127v-431h-20v431h-73v18h73v73q0 81 37 125t106 44z" />
    <glyph glyph-name="g" unicode="g" horiz-adv-x="404" 
d="M392 449v-17h-124q41 -15 64 -51t23 -83q0 -53 -35 -97.5t-110 -59.5q-67 -13 -90.5 -29t-23.5 -41q0 -19 6.5 -30t24 -16t35 -6.5t53 -4.5t64.5 -7q118 -20 118 -112q0 -58 -51.5 -91.5t-138.5 -33.5q-90 0 -139.5 31.5t-49.5 87.5q0 46 31 75.5t89 39.5q-64 10 -64 63
q0 62 91 80q-55 11 -87 51.5t-32 96.5q0 69 45.5 111.5t118.5 42.5h182zM67 295q0 -57 36.5 -94.5t95.5 -37.5q57 0 96 38.5t39 95.5q0 58 -36.5 96t-93.5 38q-59 0 -98 -37t-39 -99zM39 -111q0 -49 43 -75t125 -26q79 0 124 28.5t45 78.5q0 99 -163 99q-174 0 -174 -105z
" />
    <glyph glyph-name="h" unicode="h" horiz-adv-x="478" 
d="M257 458q81 0 119.5 -49.5t38.5 -128.5v-280h-20v277q0 74 -34 118t-104 44q-105 0 -169 -111v-328h-20v682h20v-323q28 45 73 72t96 27z" />
    <glyph glyph-name="i" unicode="i" horiz-adv-x="156" 
d="M68 0v449h20v-449h-20zM68 620h20v-84h-20v84z" />
    <glyph glyph-name="j" unicode="j" horiz-adv-x="156" 
d="M-30 -213q52 6 75 46t23 115v501h20v-502q0 -167 -114 -177zM68 620h20v-84h-20v84z" />
    <glyph glyph-name="k" unicode="k" horiz-adv-x="371" 
d="M68 0v682h20v-439l239 206h27l-248 -213l285 -236h-29l-274 228v-228h-20z" />
    <glyph glyph-name="l" unicode="l" horiz-adv-x="156" 
d="M68 682h20v-682h-20v682z" />
    <glyph glyph-name="m" unicode="m" horiz-adv-x="759" 
d="M254 458q54 0 88.5 -29t44.5 -83q71 112 165 112q144 0 144 -179v-279h-20v272q0 167 -126 167q-92 0 -158 -115v-324h-20v292q0 147 -121 147q-99 0 -163 -111v-328h-20v449h20v-90q28 45 73 72t93 27z" />
    <glyph glyph-name="n" unicode="n" horiz-adv-x="478" 
d="M257 458q81 0 119.5 -49t38.5 -131v-278h-20v271q0 76 -34 122t-104 46q-104 0 -169 -111v-328h-20v449h20v-90q28 44 74 71.5t95 27.5z" />
    <glyph glyph-name="o" unicode="o" horiz-adv-x="522" 
d="M260 440q-84 0 -141.5 -60.5t-57.5 -155.5q0 -93 56.5 -154t143.5 -61q88 0 144 61.5t56 153.5q0 91 -55.5 153.5t-145.5 62.5zM261 458q96 0 158.5 -67.5t62.5 -166.5q0 -100 -62.5 -166.5t-158.5 -66.5t-158.5 65.5t-62.5 163.5q0 104 62 171t159 67z" />
    <glyph glyph-name="p" unicode="p" horiz-adv-x="507" 
d="M467 226q0 -101 -63.5 -168t-160.5 -67q-83 0 -155 45v-266h-20v679h175q100 0 162 -61t62 -162zM88 430v-375q76 -45 154 -45q92 0 148 59.5t56 156.5q0 95 -56.5 149.5t-147.5 54.5h-154z" />
    <glyph glyph-name="q" unicode="q" horiz-adv-x="507" 
d="M439 449v-679h-20v266q-75 -45 -169 -45q-95 0 -152.5 61t-57.5 163q0 107 61 170.5t161 63.5h177zM61 215q0 -96 50.5 -150.5t139.5 -54.5q93 0 168 45v375h-156q-90 0 -146 -57t-56 -158z" />
    <glyph glyph-name="r" unicode="r" horiz-adv-x="337" 
d="M282 455v-20q-19 4 -41 4q-48 0 -84 -27t-75 -99v-313h-20v449h20v-108q60 117 161 117q19 0 39 -3z" />
    <glyph glyph-name="s" unicode="s" horiz-adv-x="329" 
d="M40 344q0 52 35.5 83t96.5 31q53 0 106 -31v-22q-55 35 -109 35q-52 0 -80 -25t-28 -70q0 -38 25 -62.5t92 -49.5q66 -25 91 -52.5t25 -71.5q0 -52 -37.5 -85t-95.5 -33q-67 0 -123 35v22q62 -38 123 -38q50 0 81 27t31 72q0 39 -25.5 63t-91.5 48q-65 24 -90.5 51.5
t-25.5 72.5z" />
    <glyph glyph-name="t" unicode="t" horiz-adv-x="274" 
d="M267 30v-20q-38 -19 -75 -19q-90 0 -90 97v343h-108v18h108v128h20v-128h130v-18h-130v-336q0 -44 16.5 -64.5t53.5 -20.5q32 0 75 20z" />
    <glyph glyph-name="u" unicode="u" horiz-adv-x="478" 
d="M63 449h20v-271q0 -76 34 -122t104 -46q104 0 169 111v328h20v-449h-20v90q-28 -44 -74 -71.5t-95 -27.5q-81 0 -119.5 49t-38.5 131v278z" />
    <glyph glyph-name="v" unicode="v" horiz-adv-x="394" 
d="M2 449h22l174 -426l172 426h22l-189 -463h-10z" />
    <glyph glyph-name="w" unicode="w" horiz-adv-x="717" 
d="M193 -9l-191 458h22l173 -415l157 415h9l157 -415l173 415h22l-191 -458h-8l-158 416l-157 -416h-8z" />
    <glyph glyph-name="x" unicode="x" horiz-adv-x="456" 
d="M13 449h27l188 -208l191 208h25l-204 -222l206 -227h-27l-192 212l-192 -212h-25l204 226z" />
    <glyph glyph-name="y" unicode="y" horiz-adv-x="409" 
d="M5 449h22l179 -348l177 348h21l-345 -679h-21l158 311z" />
    <glyph glyph-name="z" unicode="z" horiz-adv-x="383" 
d="M24 449h339v-8l-318 -423h328v-18h-358v9l316 422h-307v18z" />
    <glyph glyph-name="braceleft" unicode="{" horiz-adv-x="297" 
d="M297 682v-19q-60 0 -84 -30.5t-24 -106.5v-147q0 -67 -20.5 -101.5t-69.5 -51.5q90 -26 90 -153v-152q0 -77 24 -104.5t84 -27.5v-19q-70 0 -99 33t-29 119v150q0 65 -22.5 100.5t-76.5 43.5v20q57 11 78 45t21 99v145q0 86 30 121.5t98 35.5z" />
    <glyph glyph-name="bar" unicode="|" horiz-adv-x="174" 
d="M77 682h20v-912h-20v912z" />
    <glyph glyph-name="braceright" unicode="}" horiz-adv-x="297" 
d="M0 663v19q71 0 99.5 -37.5t28.5 -119.5v-145q0 -65 21 -99t78 -45v-20q-54 -8 -76.5 -43.5t-22.5 -100.5v-150q0 -83 -27.5 -117.5t-100.5 -34.5v19q60 0 84 28t24 104v152q0 127 90 153q-49 17 -69.5 51.5t-20.5 101.5v147q0 76 -24 106.5t-84 30.5z" />
    <glyph glyph-name="asciitilde" unicode="~" 
d="M40 322v23q53 58 112 58q34 0 99.5 -39t98.5 -39q30 0 55 14.5t55 46.5v-22q-56 -59 -111 -59q-35 0 -100.5 39t-96.5 39t-55 -14t-57 -47z" />
    <glyph glyph-name="uni00A0" unicode="&#xa0;" horiz-adv-x="278" 
 />
    <glyph glyph-name="exclamdown" unicode="&#xa1;" horiz-adv-x="158" 
d="M89 257v-490h-20v490h20zM93 374h-28v75h28v-75z" />
    <glyph glyph-name="cent" unicode="&#xa2;" 
d="M101 -189l73 208q-110 60 -110 206q0 104 63 168.5t158 64.5q21 0 43 -3l65 183h20q-35 -100 -66 -186q30 -6 51 -13v-21q-36 13 -57 16l-143 -405q37 -19 88 -19q56 0 112 21v-21q-57 -19 -112 -19q-53 0 -95 19l-70 -199h-20zM181 38l141 399q-10 2 -37 2
q-88 0 -144 -60.5t-56 -153.5q0 -64 25.5 -112.5t70.5 -74.5z" />
    <glyph glyph-name="sterling" unicode="&#xa3;" 
d="M392 319h-258q12 -62 12 -116q0 -49 -18.5 -101t-52.5 -83q43 17 96 17q36 0 96.5 -12.5t89.5 -12.5q58 0 99 22v-20q-43 -22 -99 -22q-29 0 -90 12.5t-96 12.5q-53 0 -129 -25v20q84 65 84 192q0 54 -12 116h-75v20h71q-2 9 -9.5 42.5t-10.5 48t-6 40.5t-3 49
q0 76 49 124t132 48q86 0 158 -42v-23q-77 46 -158 46q-75 0 -118 -41.5t-43 -111.5q0 -21 3 -45.5t6.5 -42t10.5 -47t10 -45.5h261v-20z" />
    <glyph glyph-name="currency" unicode="&#xa4;" horiz-adv-x="536" 
d="M48 130l66 65q-56 59 -56 145q0 87 56 146l-66 66l15 15l65 -66q61 55 144 55q88 0 147 -55l66 66l15 -15l-66 -66q55 -61 55 -146q0 -84 -55 -145l66 -65l-15 -15l-66 66q-57 -56 -147 -56q-85 0 -144 56l-65 -66zM273 146q83 0 139.5 57.5t56.5 137.5q0 81 -57 138
t-140 57q-79 0 -136 -57t-57 -138t56.5 -138t137.5 -57z" />
    <glyph glyph-name="yen" unicode="&#xa5;" 
d="M239 266v100h-213v20h201l-220 296h25l218 -293l217 293h24l-218 -296h199v-20h-211v-100h211v-20h-211v-246h-22v246h-213v20h213z" />
    <glyph glyph-name="brokenbar" unicode="&#xa6;" horiz-adv-x="174" 
d="M77 682h20v-374h-20v374zM77 144h20v-374h-20v374z" />
    <glyph glyph-name="section" unicode="&#xa7;" horiz-adv-x="406" 
d="M312 655v-26q-40 42 -115 42q-48 0 -77.5 -28t-29.5 -73q0 -51 29.5 -89t86.5 -83l15 -12q34 -27 51 -42.5t40.5 -42t34 -54.5t10.5 -61q0 -85 -86 -161q58 -60 58 -128q0 -59 -39 -93t-100 -34q-81 0 -125 45v26q49 -52 125 -52q52 0 84.5 29t32.5 79t-31 90t-90 89
q-6 5 -25 20.5t-25.5 21t-23 20t-23.5 22.5t-19.5 22t-18 24.5t-12 24t-9 27t-2.5 28.5q0 88 97 156q-57 62 -57 128q0 54 35.5 87.5t93.5 33.5q70 0 115 -36zM139 428q-44 -34 -66.5 -66t-22.5 -76q0 -46 30 -85t94 -90.5t85 -72.5q42 38 59 72t17 76q0 38 -21 74t-45.5 58
t-67 56.5t-62.5 53.5z" />
    <glyph glyph-name="dieresis" unicode="&#xa8;" horiz-adv-x="229" 
d="M34 620h26v-84h-26v84zM169 620h26v-84h-26v84z" />
    <glyph glyph-name="copyright" unicode="&#xa9;" horiz-adv-x="790" 
d="M45 340q0 145 103 248t248 103t247 -102.5t102 -248.5q0 -145 -101.5 -247t-246.5 -102t-248.5 102t-103.5 247zM65 340q0 -137 97.5 -234t234.5 -97q136 0 232 97t96 234t-96.5 235t-232.5 98t-233.5 -98t-97.5 -235zM535 191v-24q-60 -29 -131 -29q-92 0 -148 58
t-56 147q0 93 56 150t151 57q66 0 128 -30v-25q-57 35 -128 35q-87 0 -136 -51.5t-49 -134.5q0 -85 50.5 -135.5t131.5 -50.5q75 0 131 33z" />
    <glyph glyph-name="ordfeminine" unicode="&#xaa;" horiz-adv-x="294" 
d="M46 641v20q44 30 98 30q49 0 67.5 -25t18.5 -74v-149q0 -16 9 -16q13 0 47 34v-19q-31 -33 -50 -33q-25 0 -25 36q-39 -36 -95 -36q-40 0 -63 18.5t-23 52.5q0 90 180 99v13q0 46 -15.5 63.5t-50.5 17.5q-51 0 -98 -32zM210 462v101q-160 -8 -160 -81q0 -56 67 -56
q49 0 93 36z" />
    <glyph glyph-name="guillemotleft" unicode="&#xab;" horiz-adv-x="452" 
d="M210 455h25l-188 -224l188 -224h-25l-189 224zM411 455h25l-188 -224l188 -224h-25l-189 224z" />
    <glyph glyph-name="logicalnot" unicode="&#xac;" 
d="M40 461v20h410v-262h-20v242h-390z" />
    <glyph glyph-name="uni00AD" unicode="&#xad;" horiz-adv-x="313" 
d="M38 241h237v-18h-237v18z" />
    <glyph glyph-name="registered" unicode="&#xae;" horiz-adv-x="790" 
d="M45 340q0 145 103 248t248 103t247 -102.5t102 -248.5q0 -145 -101.5 -247t-246.5 -102t-248.5 102t-103.5 247zM65 340q0 -137 97.5 -234t234.5 -97q136 0 232 97t96 234t-96.5 235t-232.5 98t-233.5 -98t-97.5 -235zM276 149v391h113q135 0 135 -103q0 -39 -27.5 -68.5
t-77.5 -33.5q41 -12 73 -57l91 -129h-24l-86 121q-24 34 -47.5 46t-63.5 12h-66v-179h-20zM296 346h83q58 0 91 24t33 67t-28 64t-91 21h-88v-176z" />
    <glyph glyph-name="macron" unicode="&#xaf;" horiz-adv-x="333" 
d="M53 607h227v-20h-227v20z" />
    <glyph glyph-name="degree" unicode="&#xb0;" horiz-adv-x="400" 
d="M61 551q0 57 41 98.5t98 41.5t98.5 -41t41.5 -99q0 -57 -41.5 -98t-98.5 -41t-98 40.5t-41 98.5zM200 432q49 0 84 35t35 84t-35 84.5t-84 35.5t-84 -35.5t-35 -84.5t34.5 -84t84.5 -35z" />
    <glyph glyph-name="plusminus" unicode="&#xb1;" 
d="M40 351v20h200v202h20v-202h200v-20h-200v-202h-20v202h-200zM40 60v20h420v-20h-420z" />
    <glyph glyph-name="two.superior" unicode="&#xb2;" horiz-adv-x="316" 
d="M42 490v2q127 114 164 161t37 97q0 37 -26 60t-68 23q-50 0 -99 -36v23q45 32 99 32t85.5 -28t31.5 -74q0 -52 -32 -94.5t-143 -146.5h193v-19h-242z" />
    <glyph glyph-name="three.superior" unicode="&#xb3;" horiz-adv-x="316" 
d="M53 504v21q49 -22 93 -22q45 0 72 22.5t27 59.5q0 39 -30.5 61t-84.5 22v18q52 0 81.5 20.5t29.5 56.5q0 30 -25.5 50t-66.5 20q-50 0 -92 -24v20q39 23 94 23q48 0 80 -25.5t32 -63.5q0 -28 -18.5 -51t-49.5 -35q73 -22 73 -92q0 -45 -33.5 -73t-88.5 -28q-52 0 -93 20z
" />
    <glyph glyph-name="acute" unicode="&#xb4;" horiz-adv-x="294" 
d="M275 677h24l-126 -156h-20z" />
    <glyph glyph-name="mu" unicode="&#xb5;" horiz-adv-x="483" 
d="M68 -230v679h20v-272q0 -79 35 -123t103 -44q104 0 169 111v328h20v-449h-20v90q-26 -44 -73.5 -71.5t-96.5 -27.5q-99 0 -137 79v-300h-20z" />
    <glyph glyph-name="paragraph" unicode="&#xb6;" horiz-adv-x="586" 
d="M269 -232v545q-80 0 -136 53.5t-56 130.5q0 76 55 130.5t126 54.5h311v-20h-108v-894h-22v894h-148v-894h-22z" />
    <glyph glyph-name="periodcentered" unicode="&#xb7;" horiz-adv-x="132" 
d="M48 387h36v-75h-36v75z" />
    <glyph glyph-name="cedilla" unicode="&#xb8;" horiz-adv-x="326" 
d="M168 8h20l-12 -43q29 -1 47 -19t18 -45q0 -36 -25.5 -56t-70.5 -20q-23 0 -39 4l2 18q14 -3 35 -3q77 0 77 57q0 49 -58 49h-10z" />
    <glyph glyph-name="one.superior" unicode="&#xb9;" horiz-adv-x="316" 
d="M173 847h22v-357h-22v333l-105 -64l-14 17z" />
    <glyph glyph-name="ordmasculine" unicode="&#xba;" horiz-adv-x="352" 
d="M317 550q0 -61 -40 -101t-101 -40t-101 41t-40 100t40 100t101 41t101 -41t40 -100zM176 428q53 0 87 34t34 88q0 53 -34 87.5t-88 34.5q-51 0 -85.5 -34.5t-34.5 -87.5q0 -54 34 -88t87 -34z" />
    <glyph glyph-name="guillemotright" unicode="&#xbb;" horiz-adv-x="452" 
d="M16 455h25l189 -224l-189 -224h-25l188 224zM217 455h25l189 -224l-189 -224h-25l188 224z" />
    <glyph glyph-name="onequarter" unicode="&#xbc;" horiz-adv-x="868" 
d="M548 182v17l218 274h13v-270h65v-21h-65v-182h-22v182h-209zM578 203h179v223zM169 0l506 682h24l-506 -682h-24zM190 657l-119 -85l-12 17l131 93h22v-467h-22v442z" />
    <glyph glyph-name="onehalf" unicode="&#xbd;" horiz-adv-x="868" 
d="M568 0l42 44q107 113 144.5 173.5t37.5 123.5q0 48 -29 80t-77 32q-54 0 -110 -47v25q52 42 110 42q60 0 95 -36t35 -96q0 -69 -35.5 -124.5t-163.5 -196.5h219v-20h-268zM169 0l506 682h24l-506 -682h-24zM190 657l-119 -85l-12 17l131 93h22v-467h-22v442z" />
    <glyph glyph-name="threequarters" unicode="&#xbe;" horiz-adv-x="868" 
d="M548 182v17l218 274h13v-270h65v-21h-65v-182h-22v182h-209zM578 203h179v223zM56 233v23q59 -31 103 -31q51 0 81.5 31t30.5 81q0 54 -35 83.5t-94 29.5v19q58 0 91 27.5t33 76.5q0 41 -29 68t-75 27q-53 0 -102 -33v23q45 30 104 30q54 0 89.5 -33t35.5 -82
q0 -38 -22.5 -69t-60.5 -44q88 -29 88 -123q0 -58 -37.5 -94.5t-97.5 -36.5q-56 0 -103 27zM169 0l506 682h24l-506 -682h-24z" />
    <glyph glyph-name="questiondown" unicode="&#xbf;" horiz-adv-x="267" 
d="M243 -163l-16 -57q-29 -22 -71 -22q-51 0 -83.5 34.5t-32.5 100.5q0 67 61 158q1 2 11 16.5t11.5 17.5t10 16t10.5 17.5t8 16t8 18.5t5 17t4 19t1 19q0 28 -15 49l12 11q22 -30 22 -65q0 -11 -2 -22.5t-4 -20t-8 -21.5t-8.5 -19.5t-11.5 -21t-11.5 -18.5t-13 -20.5
t-12.5 -18.5q-57 -88 -57 -148t26.5 -88.5t68.5 -28.5q33 0 48.5 13t28.5 48h10zM142 374v75h27v-75h-27z" />
    <glyph glyph-name="Agrave" unicode="&#xc0;" horiz-adv-x="629" 
d="M306 687h17l301 -687h-25l-106 243h-358l-105 -243h-25zM314 652l-170 -389h340zM211 884h24l122 -156h-20z" />
    <glyph glyph-name="Aacute" unicode="&#xc1;" horiz-adv-x="629" 
d="M306 687h17l301 -687h-25l-106 243h-358l-105 -243h-25zM314 652l-170 -389h340zM275 728l122 156h24l-126 -156h-20z" />
    <glyph glyph-name="Acircumflex" unicode="&#xc2;" horiz-adv-x="629" 
d="M306 687h17l301 -687h-25l-106 243h-358l-105 -243h-25zM314 652l-170 -389h340zM180 728l122 156h24l122 -156h-20l-114 141l-114 -141h-20z" />
    <glyph glyph-name="Atilde" unicode="&#xc3;" horiz-adv-x="629" 
d="M306 687h17l301 -687h-25l-106 243h-358l-105 -243h-25zM314 652l-170 -389h340zM240 850q27 0 54 -19t51.5 -37.5t45.5 -18.5q55 0 57 75h20q0 -95 -76 -95q-34 0 -78 37.5t-73 37.5q-55 0 -57 -75h-20q0 47 20.5 71t55.5 24z" />
    <glyph glyph-name="Adieresis" unicode="&#xc4;" horiz-adv-x="629" 
d="M306 687h17l301 -687h-25l-106 243h-358l-105 -243h-25zM314 652l-170 -389h340zM235 828h26v-84h-26v84zM370 828h26v-84h-26v84z" />
    <glyph glyph-name="Aring" unicode="&#xc5;" horiz-adv-x="629" 
d="M306 687h17l301 -687h-25l-106 243h-358l-105 -243h-25zM314 652l-170 -389h340zM230 797q0 34 24.5 59t59.5 25t59.5 -25t24.5 -59q0 -35 -24.5 -59.5t-59.5 -24.5t-59.5 24.5t-24.5 59.5zM314 731q27 0 46.5 19.5t19.5 46.5t-19.5 46.5t-46.5 19.5t-46.5 -19.5
t-19.5 -46.5t19.5 -46.5t46.5 -19.5z" />
    <glyph glyph-name="AE" unicode="&#xc6;" horiz-adv-x="810" 
d="M12 0l419 682h341v-21h-319v-306h311v-22h-311v-312h327v-21h-349v333h-191l-204 -333h-24zM254 355h177v288z" />
    <glyph glyph-name="Ccedilla" unicode="&#xc7;" horiz-adv-x="643" 
d="M393 691q111 0 216 -50v-29q-101 57 -220 57q-139 0 -227 -92.5t-88 -235.5q0 -145 88.5 -236.5t226.5 -91.5q119 0 220 57v-29q-99 -47 -207 -50l-7 -26q29 -1 47 -19t18 -45q0 -36 -25.5 -56t-70.5 -20q-23 0 -39 4l2 18q13 -3 35 -3q77 0 77 57q0 49 -58 49h-10l11 42
q-147 4 -239.5 100.5t-92.5 242.5q0 157 94.5 256.5t248.5 99.5z" />
    <glyph glyph-name="Egrave" unicode="&#xc8;" horiz-adv-x="459" 
d="M80 682h341v-21h-319v-306h311v-22h-311v-312h327v-21h-349v682zM131 884h24l122 -156h-20z" />
    <glyph glyph-name="Eacute" unicode="&#xc9;" horiz-adv-x="459" 
d="M80 682h341v-21h-319v-306h311v-22h-311v-312h327v-21h-349v682zM226 728l122 156h24l-126 -156h-20z" />
    <glyph glyph-name="Ecircumflex" unicode="&#xca;" horiz-adv-x="459" 
d="M80 682h341v-21h-319v-306h311v-22h-311v-312h327v-21h-349v682zM117 728l122 156h24l122 -156h-20l-114 141l-114 -141h-20z" />
    <glyph glyph-name="Edieresis" unicode="&#xcb;" horiz-adv-x="459" 
d="M80 682h341v-21h-319v-306h311v-22h-311v-312h327v-21h-349v682zM173 828h26v-84h-26v84zM308 828h26v-84h-26v84z" />
    <glyph glyph-name="Igrave" unicode="&#xcc;" horiz-adv-x="182" 
d="M80 682h22v-682h-22v682zM-12 884h24l122 -156h-20z" />
    <glyph glyph-name="Iacute" unicode="&#xcd;" horiz-adv-x="182" 
d="M80 682h22v-682h-22v682zM48 728l122 156h24l-126 -156h-20z" />
    <glyph glyph-name="Icircumflex" unicode="&#xce;" horiz-adv-x="182" 
d="M80 682h22v-682h-22v682zM-43 728l122 156h24l122 -156h-20l-114 141l-114 -141h-20z" />
    <glyph glyph-name="Idieresis" unicode="&#xcf;" horiz-adv-x="182" 
d="M80 682h22v-682h-22v682zM11 828h26v-84h-26v84zM146 828h26v-84h-26v84z" />
    <glyph glyph-name="Eth" unicode="&#xd0;" horiz-adv-x="728" 
d="M0 335v22h80v325h233q160 0 262.5 -92.5t102.5 -242.5q0 -159 -100 -253t-265 -94h-233v335h-80zM102 22h218q146 0 240 88t94 224q0 151 -94.5 238.5t-243.5 87.5h-214v-303h193v-22h-193v-313z" />
    <glyph glyph-name="Ntilde" unicode="&#xd1;" horiz-adv-x="744" 
d="M80 682h21l541 -646v646h22v-682h-21l-541 646v-646h-22v682zM293 850q27 0 54 -19t51.5 -37.5t45.5 -18.5q56 0 57 75h20q0 -95 -76 -95q-34 0 -78 37.5t-73 37.5q-56 0 -57 -75h-20q0 47 20.5 71t55.5 24z" />
    <glyph glyph-name="Ograve" unicode="&#xd2;" horiz-adv-x="787" 
d="M391 691q106 0 186.5 -49.5t120 -126.5t39.5 -168q0 -156 -98.5 -256t-246.5 -100q-149 0 -245.5 101t-96.5 242q0 158 99 257.5t242 99.5zM397 669q-141 0 -232 -93t-91 -235q0 -138 90.5 -233t224.5 -95q144 0 234 95.5t90 230.5q0 143 -89 236.5t-227 93.5zM301 884
h24l122 -156h-20z" />
    <glyph glyph-name="Oacute" unicode="&#xd3;" horiz-adv-x="787" 
d="M391 691q106 0 186.5 -49.5t120 -126.5t39.5 -168q0 -156 -98.5 -256t-246.5 -100q-149 0 -245.5 101t-96.5 242q0 158 99 257.5t242 99.5zM397 669q-141 0 -232 -93t-91 -235q0 -138 90.5 -233t224.5 -95q144 0 234 95.5t90 230.5q0 143 -89 236.5t-227 93.5zM350 728
l122 156h24l-126 -156h-20z" />
    <glyph glyph-name="Ocircumflex" unicode="&#xd4;" horiz-adv-x="787" 
d="M391 691q106 0 186.5 -49.5t120 -126.5t39.5 -168q0 -156 -98.5 -256t-246.5 -100q-149 0 -245.5 101t-96.5 242q0 158 99 257.5t242 99.5zM397 669q-141 0 -232 -93t-91 -235q0 -138 90.5 -233t224.5 -95q144 0 234 95.5t90 230.5q0 143 -89 236.5t-227 93.5zM261 728
l122 156h24l122 -156h-20l-114 141l-114 -141h-20z" />
    <glyph glyph-name="Otilde" unicode="&#xd5;" horiz-adv-x="787" 
d="M391 691q106 0 186.5 -49.5t120 -126.5t39.5 -168q0 -156 -98.5 -256t-246.5 -100q-149 0 -245.5 101t-96.5 242q0 158 99 257.5t242 99.5zM397 669q-141 0 -232 -93t-91 -235q0 -138 90.5 -233t224.5 -95q144 0 234 95.5t90 230.5q0 143 -89 236.5t-227 93.5zM323 850
q27 0 54 -19t51.5 -37.5t45.5 -18.5q56 0 57 75h20q0 -95 -76 -95q-34 0 -78 37.5t-73 37.5q-56 0 -57 -75h-20q0 47 20.5 71t55.5 24z" />
    <glyph glyph-name="Odieresis" unicode="&#xd6;" horiz-adv-x="787" 
d="M391 691q106 0 186.5 -49.5t120 -126.5t39.5 -168q0 -156 -98.5 -256t-246.5 -100q-149 0 -245.5 101t-96.5 242q0 158 99 257.5t242 99.5zM397 669q-141 0 -232 -93t-91 -235q0 -138 90.5 -233t224.5 -95q144 0 234 95.5t90 230.5q0 143 -89 236.5t-227 93.5zM318 828
h26v-84h-26v84zM453 828h26v-84h-26v84z" />
    <glyph glyph-name="multiply" unicode="&#xd7;" horiz-adv-x="636" 
d="M112 159l192 192l-184 184l13 14l185 -184l192 192l14 -14l-192 -192l184 -184l-14 -14l-184 184l-192 -192z" />
    <glyph glyph-name="Oslash" unicode="&#xd8;" horiz-adv-x="787" 
d="M71 6l78 84q-99 99 -99 251q0 148 98 249t242 101q145 0 239 -88l82 88l18 -17l-83 -88q91 -102 91 -245q0 -147 -98 -248.5t-241 -101.5q-138 0 -232 82l-77 -82zM165 107q103 111 260.5 279l187.5 200q-88 83 -220 83q-138 0 -228.5 -94t-90.5 -234q0 -138 91 -234z
M630 569l-448 -478q91 -78 212 -78q135 0 227 94.5t92 229.5t-83 232z" />
    <glyph glyph-name="Ugrave" unicode="&#xd9;" horiz-adv-x="684" 
d="M72 682h22v-390q0 -118 64.5 -199t181.5 -81q120 0 185 80.5t65 199.5v390h22v-391q0 -128 -70.5 -214t-195.5 -86q-133 0 -203.5 85t-70.5 218v388zM244 884h24l122 -156h-20z" />
    <glyph glyph-name="Uacute" unicode="&#xda;" horiz-adv-x="684" 
d="M72 682h22v-390q0 -118 64.5 -199t181.5 -81q120 0 185 80.5t65 199.5v390h22v-391q0 -128 -70.5 -214t-195.5 -86q-133 0 -203.5 85t-70.5 218v388zM308 728l122 156h24l-126 -156h-20z" />
    <glyph glyph-name="Ucircumflex" unicode="&#xdb;" horiz-adv-x="684" 
d="M72 682h22v-390q0 -118 64.5 -199t181.5 -81q120 0 185 80.5t65 199.5v390h22v-391q0 -128 -70.5 -214t-195.5 -86q-133 0 -203.5 85t-70.5 218v388zM216 728l122 156h24l122 -156h-20l-114 141l-114 -141h-20z" />
    <glyph glyph-name="Udieresis" unicode="&#xdc;" horiz-adv-x="684" 
d="M72 682h22v-390q0 -118 64.5 -199t181.5 -81q120 0 185 80.5t65 199.5v390h22v-391q0 -128 -70.5 -214t-195.5 -86q-133 0 -203.5 85t-70.5 218v388zM256 828h26v-84h-26v84zM391 828h26v-84h-26v84z" />
    <glyph glyph-name="Yacute" unicode="&#xdd;" horiz-adv-x="553" 
d="M4 682h26l247 -292l247 292h25l-261 -310v-372h-22v372zM234 728l122 156h24l-126 -156h-20z" />
    <glyph glyph-name="Thorn" unicode="&#xde;" horiz-adv-x="486" 
d="M80 682h22v-163h136q102 0 160 -45.5t58 -129.5t-58 -130t-160 -46h-136v-168h-22v682zM102 498v-309h125q206 0 206 155q0 154 -201 154h-130z" />
    <glyph glyph-name="germandbls" unicode="&#xdf;" 
d="M456 191q0 -90 -48.5 -145t-127.5 -55q-31 0 -65 8v19q34 -8 65 -8q71 0 113.5 49.5t42.5 130.5t-42.5 125t-123.5 48v20q62 9 97.5 48.5t35.5 99.5q0 66 -40 103.5t-111 37.5q-84 0 -123 -50t-39 -133v-489h-20v493q0 90 47.5 144t134.5 54q76 0 123.5 -44t47.5 -116
q0 -117 -118 -156q74 -14 112.5 -62t38.5 -122z" />
    <glyph glyph-name="agrave" unicode="&#xe0;" horiz-adv-x="410" 
d="M200 458q66 0 95 -32.5t29 -100.5v-299q0 -15 7 -15q14 0 67 43v-20q-52 -43 -73 -43q-12 0 -16.5 7.5t-4.5 28.5v37q-74 -73 -151 -73q-57 0 -90 30.5t-33 80.5q0 71 72 114.5t202 48.5v59q0 60 -23.5 87.5t-82.5 27.5q-72 0 -143 -57v23q67 53 145 53zM51 102
q0 -42 27.5 -67t74.5 -25q75 0 151 76v161q-112 -2 -182.5 -40.5t-70.5 -104.5zM85 677h24l122 -156h-20z" />
    <glyph glyph-name="aacute" unicode="&#xe1;" horiz-adv-x="410" 
d="M200 458q66 0 95 -32.5t29 -100.5v-299q0 -15 7 -15q14 0 67 43v-20q-52 -43 -73 -43q-12 0 -16.5 7.5t-4.5 28.5v37q-74 -73 -151 -73q-57 0 -90 30.5t-33 80.5q0 71 72 114.5t202 48.5v59q0 60 -23.5 87.5t-82.5 27.5q-72 0 -143 -57v23q67 53 145 53zM51 102
q0 -42 27.5 -67t74.5 -25q75 0 151 76v161q-112 -2 -182.5 -40.5t-70.5 -104.5zM309 677h24l-126 -156h-20z" />
    <glyph glyph-name="acircumflex" unicode="&#xe2;" horiz-adv-x="410" 
d="M200 458q66 0 95 -32.5t29 -100.5v-299q0 -15 7 -15q14 0 67 43v-20q-52 -43 -73 -43q-12 0 -16.5 7.5t-4.5 28.5v37q-74 -73 -151 -73q-57 0 -90 30.5t-33 80.5q0 71 72 114.5t202 48.5v59q0 60 -23.5 87.5t-82.5 27.5q-72 0 -143 -57v23q67 53 145 53zM51 102
q0 -42 27.5 -67t74.5 -25q75 0 151 76v161q-112 -2 -182.5 -40.5t-70.5 -104.5zM191 677h24l122 -156h-20l-114 141l-114 -141h-20z" />
    <glyph glyph-name="atilde" unicode="&#xe3;" horiz-adv-x="410" 
d="M200 458q66 0 95 -32.5t29 -100.5v-299q0 -15 7 -15q14 0 67 43v-20q-52 -43 -73 -43q-12 0 -16.5 7.5t-4.5 28.5v37q-74 -73 -151 -73q-57 0 -90 30.5t-33 80.5q0 71 72 114.5t202 48.5v59q0 60 -23.5 87.5t-82.5 27.5q-72 0 -143 -57v23q67 53 145 53zM51 102
q0 -42 27.5 -67t74.5 -25q75 0 151 76v161q-112 -2 -182.5 -40.5t-70.5 -104.5zM120 643q27 0 54 -18.5t51.5 -37.5t45.5 -19q55 0 57 75h20q0 -95 -76 -95q-34 0 -78 37.5t-73 37.5q-55 0 -57 -75h-20q0 47 20.5 71t55.5 24z" />
    <glyph glyph-name="adieresis" unicode="&#xe4;" horiz-adv-x="410" 
d="M200 458q66 0 95 -32.5t29 -100.5v-299q0 -15 7 -15q14 0 67 43v-20q-52 -43 -73 -43q-12 0 -16.5 7.5t-4.5 28.5v37q-74 -73 -151 -73q-57 0 -90 30.5t-33 80.5q0 71 72 114.5t202 48.5v59q0 60 -23.5 87.5t-82.5 27.5q-72 0 -143 -57v23q67 53 145 53zM51 102
q0 -42 27.5 -67t74.5 -25q75 0 151 76v161q-112 -2 -182.5 -40.5t-70.5 -104.5zM120 620h26v-84h-26v84zM255 620h26v-84h-26v84z" />
    <glyph glyph-name="aring" unicode="&#xe5;" horiz-adv-x="410" 
d="M200 458q66 0 95 -32.5t29 -100.5v-299q0 -15 7 -15q14 0 67 43v-20q-52 -43 -73 -43q-12 0 -16.5 7.5t-4.5 28.5v37q-74 -73 -151 -73q-57 0 -90 30.5t-33 80.5q0 71 72 114.5t202 48.5v59q0 60 -23.5 87.5t-82.5 27.5q-72 0 -143 -57v23q67 53 145 53zM51 102
q0 -42 27.5 -67t74.5 -25q75 0 151 76v161q-112 -2 -182.5 -40.5t-70.5 -104.5zM282 590q0 -35 -24.5 -59.5t-59.5 -24.5t-59.5 24.5t-24.5 59.5q0 34 24.5 59t59.5 25t59.5 -25t24.5 -59zM198 524q27 0 46.5 19.5t19.5 46.5t-19.5 46.5t-46.5 19.5t-46.5 -19.5t-19.5 -46.5
t19.5 -46.5t46.5 -19.5z" />
    <glyph glyph-name="ae" unicode="&#xe6;" horiz-adv-x="676" 
d="M62 386v22q75 50 144 50q115 0 121 -121q14 56 56 88.5t94 32.5q154 0 165 -207h-314q0 -129 35 -185t120 -56q84 0 156 58v-22q-71 -55 -156 -55q-109 0 -153 90q-47 -48 -89.5 -69t-91.5 -21q-53 0 -86 30.5t-33 80.5q0 64 58.5 101.5t219.5 64.5v57q0 61 -24 88
t-80 27q-65 0 -142 -54zM308 247q-141 -25 -197.5 -53.5t-56.5 -91.5q0 -42 26.5 -66t72.5 -24q84 0 169 88q-14 47 -14 134v13zM330 269h290q-16 171 -144 171q-60 0 -99 -44.5t-47 -126.5z" />
    <glyph glyph-name="ccedilla" unicode="&#xe7;" horiz-adv-x="394" 
d="M170 -171l2 19q12 -3 33 -3q80 0 80 56q0 25 -17.5 36t-51.5 13l12 43q-87 12 -137.5 75.5t-50.5 156.5q0 103 62.5 168t159.5 65q55 0 112 -19v-21q-56 21 -112 21q-88 0 -144.5 -60t-56.5 -154t57 -154.5t144 -60.5q56 0 112 21v-21q-56 -19 -127 -19l-7 -26
q65 -10 65 -64q0 -36 -25.5 -56t-70.5 -20q-23 0 -39 4z" />
    <glyph glyph-name="egrave" unicode="&#xe8;" horiz-adv-x="451" 
d="M412 65v-22q-73 -52 -158 -52q-96 0 -155 65t-59 167q0 103 53.5 169t138.5 66q82 0 130 -53t55 -154h-355v-3.5t-0.5 -7t-0.5 -10.5q0 -101 53.5 -160.5t139.5 -59.5q87 0 158 55zM64 269h331q-23 171 -164 171q-64 0 -110.5 -46.5t-56.5 -124.5zM135 677h24l122 -156
h-20z" />
    <glyph glyph-name="eacute" unicode="&#xe9;" horiz-adv-x="451" 
d="M412 65v-22q-73 -52 -158 -52q-96 0 -155 65t-59 167q0 103 53.5 169t138.5 66q82 0 130 -53t55 -154h-355v-3.5t-0.5 -7t-0.5 -10.5q0 -101 53.5 -160.5t139.5 -59.5q87 0 158 55zM64 269h331q-23 171 -164 171q-64 0 -110.5 -46.5t-56.5 -124.5zM348 677h24l-126 -156
h-20z" />
    <glyph glyph-name="ecircumflex" unicode="&#xea;" horiz-adv-x="451" 
d="M412 65v-22q-73 -52 -158 -52q-96 0 -155 65t-59 167q0 103 53.5 169t138.5 66q82 0 130 -53t55 -154h-355v-3.5t-0.5 -7t-0.5 -10.5q0 -101 53.5 -160.5t139.5 -59.5q87 0 158 55zM64 269h331q-23 171 -164 171q-64 0 -110.5 -46.5t-56.5 -124.5zM223 677h24l122 -156
h-20l-114 141l-114 -141h-20z" />
    <glyph glyph-name="edieresis" unicode="&#xeb;" horiz-adv-x="451" 
d="M412 65v-22q-73 -52 -158 -52q-96 0 -155 65t-59 167q0 103 53.5 169t138.5 66q82 0 130 -53t55 -154h-355v-3.5t-0.5 -7t-0.5 -10.5q0 -101 53.5 -160.5t139.5 -59.5q87 0 158 55zM64 269h331q-23 171 -164 171q-64 0 -110.5 -46.5t-56.5 -124.5zM157 620h26v-84h-26v84
zM292 620h26v-84h-26v84z" />
    <glyph glyph-name="igrave" unicode="&#xec;" horiz-adv-x="156" 
d="M70 449h20v-449h-20v449zM-21 677h24l122 -156h-20z" />
    <glyph glyph-name="iacute" unicode="&#xed;" horiz-adv-x="156" 
d="M70 449h20v-449h-20v449zM168 677h24l-126 -156h-20z" />
    <glyph glyph-name="icircumflex" unicode="&#xee;" horiz-adv-x="156" 
d="M70 449h20v-449h-20v449zM68 677h24l122 -156h-20l-114 141l-114 -141h-20z" />
    <glyph glyph-name="idieresis" unicode="&#xef;" horiz-adv-x="156" 
d="M70 449h20v-449h-20v449zM0 620h26v-84h-26v84zM135 620h26v-84h-26v84z" />
    <glyph glyph-name="eth" unicode="&#xf0;" horiz-adv-x="522" 
d="M150 667l7 15q62 -24 123 -69l138 64l8 -16l-130 -60q90 -75 138 -173t48 -203q0 -101 -62.5 -167.5t-158.5 -66.5t-158.5 66t-62.5 167t62.5 167.5t158.5 66.5q114 0 177 -90q-17 60 -61 120.5t-100 103.5l-154 -71l-7 16l145 67q-40 28 -111 63zM261 9q88 0 144 61.5
t56 153.5q0 91 -55.5 153.5t-145.5 62.5q-87 0 -143 -62.5t-56 -153.5q0 -93 56.5 -154t143.5 -61z" />
    <glyph glyph-name="ntilde" unicode="&#xf1;" horiz-adv-x="478" 
d="M257 458q81 0 119.5 -49t38.5 -131v-278h-20v271q0 76 -34 122t-104 46q-104 0 -169 -111v-328h-20v449h20v-90q28 44 74 71.5t95 27.5zM172 643q27 0 54 -18.5t51.5 -37.5t45.5 -19q55 0 57 75h20q0 -95 -76 -95q-34 0 -78 37.5t-73 37.5q-55 0 -57 -75h-20
q0 47 20.5 71t55.5 24z" />
    <glyph glyph-name="ograve" unicode="&#xf2;" horiz-adv-x="522" 
d="M260 440q-84 0 -141.5 -60.5t-57.5 -155.5q0 -93 56.5 -154t143.5 -61q88 0 144 61.5t56 153.5q0 91 -55.5 153.5t-145.5 62.5zM261 458q96 0 158.5 -67.5t62.5 -166.5q0 -100 -62.5 -166.5t-158.5 -66.5t-158.5 65.5t-62.5 163.5q0 104 62 171t159 67zM155 677h24
l122 -156h-20z" />
    <glyph glyph-name="oacute" unicode="&#xf3;" horiz-adv-x="522" 
d="M260 440q-84 0 -141.5 -60.5t-57.5 -155.5q0 -93 56.5 -154t143.5 -61q88 0 144 61.5t56 153.5q0 91 -55.5 153.5t-145.5 62.5zM261 458q96 0 158.5 -67.5t62.5 -166.5q0 -100 -62.5 -166.5t-158.5 -66.5t-158.5 65.5t-62.5 163.5q0 104 62 171t159 67zM351 677h24
l-126 -156h-20z" />
    <glyph glyph-name="ocircumflex" unicode="&#xf4;" horiz-adv-x="522" 
d="M260 440q-84 0 -141.5 -60.5t-57.5 -155.5q0 -93 56.5 -154t143.5 -61q88 0 144 61.5t56 153.5q0 91 -55.5 153.5t-145.5 62.5zM261 458q96 0 158.5 -67.5t62.5 -166.5q0 -100 -62.5 -166.5t-158.5 -66.5t-158.5 65.5t-62.5 163.5q0 104 62 171t159 67zM251 677h24
l122 -156h-20l-114 141l-114 -141h-20z" />
    <glyph glyph-name="otilde" unicode="&#xf5;" horiz-adv-x="522" 
d="M260 440q-84 0 -141.5 -60.5t-57.5 -155.5q0 -93 56.5 -154t143.5 -61q88 0 144 61.5t56 153.5q0 91 -55.5 153.5t-145.5 62.5zM261 458q96 0 158.5 -67.5t62.5 -166.5q0 -100 -62.5 -166.5t-158.5 -66.5t-158.5 65.5t-62.5 163.5q0 104 62 171t159 67zM186 643
q27 0 54 -18.5t51.5 -37.5t45.5 -19q55 0 57 75h20q0 -95 -76 -95q-34 0 -78 37.5t-73 37.5q-55 0 -57 -75h-20q0 47 20.5 71t55.5 24z" />
    <glyph glyph-name="odieresis" unicode="&#xf6;" horiz-adv-x="522" 
d="M260 440q-84 0 -141.5 -60.5t-57.5 -155.5q0 -93 56.5 -154t143.5 -61q88 0 144 61.5t56 153.5q0 91 -55.5 153.5t-145.5 62.5zM261 458q96 0 158.5 -67.5t62.5 -166.5q0 -100 -62.5 -166.5t-158.5 -66.5t-158.5 65.5t-62.5 163.5q0 104 62 171t159 67zM183 620h26v-84
h-26v84zM318 620h26v-84h-26v84z" />
    <glyph glyph-name="divide" unicode="&#xf7;" 
d="M40 341v20h420v-20h-420zM238 216h24v-94h-24v94zM238 580h24v-94h-24v94z" />
    <glyph glyph-name="oslash" unicode="&#xf8;" horiz-adv-x="529" 
d="M43 -13l61 71q-61 64 -61 166q0 101 63 167.5t158 66.5q80 0 143 -52l52 60l15 -13l-53 -60q64 -69 64 -169t-62.5 -166.5t-158.5 -66.5q-86 0 -145 53l-61 -70zM464 224q0 92 -56 153l-277 -319q55 -49 133 -49q87 0 143.5 61t56.5 154zM263 440q-86 0 -142.5 -62
t-56.5 -154q0 -90 53 -151l277 318q-51 49 -131 49z" />
    <glyph glyph-name="ugrave" unicode="&#xf9;" horiz-adv-x="478" 
d="M63 449h20v-271q0 -76 34 -122t104 -46q104 0 169 111v328h20v-449h-20v90q-28 -44 -74 -71.5t-95 -27.5q-81 0 -119.5 49t-38.5 131v278zM122 677h24l122 -156h-20z" />
    <glyph glyph-name="uacute" unicode="&#xfa;" horiz-adv-x="478" 
d="M63 449h20v-271q0 -76 34 -122t104 -46q104 0 169 111v328h20v-449h-20v90q-28 -44 -74 -71.5t-95 -27.5q-81 0 -119.5 49t-38.5 131v278zM351 677h24l-126 -156h-20z" />
    <glyph glyph-name="ucircumflex" unicode="&#xfb;" horiz-adv-x="478" 
d="M63 449h20v-271q0 -76 34 -122t104 -46q104 0 169 111v328h20v-449h-20v90q-28 -44 -74 -71.5t-95 -27.5q-81 0 -119.5 49t-38.5 131v278zM219 677h24l122 -156h-20l-114 141l-114 -141h-20z" />
    <glyph glyph-name="udieresis" unicode="&#xfc;" horiz-adv-x="478" 
d="M63 449h20v-271q0 -76 34 -122t104 -46q104 0 169 111v328h20v-449h-20v90q-28 -44 -74 -71.5t-95 -27.5q-81 0 -119.5 49t-38.5 131v278zM160 620h26v-84h-26v84zM295 620h26v-84h-26v84z" />
    <glyph glyph-name="yacute" unicode="&#xfd;" horiz-adv-x="409" 
d="M5 449h22l179 -348l177 348h21l-345 -679h-21l158 311zM325 677h24l-126 -156h-20z" />
    <glyph glyph-name="thorn" unicode="&#xfe;" horiz-adv-x="519" 
d="M80 -230v912h20v-233h155q100 0 162 -61t62 -162t-63.5 -168t-160.5 -67q-83 0 -155 45v-266h-20zM100 430v-375q76 -45 154 -45q92 0 148 59.5t56 156.5q0 95 -56.5 149.5t-147.5 54.5h-154z" />
    <glyph glyph-name="ydieresis" unicode="&#xff;" horiz-adv-x="409" 
d="M5 449h22l179 -348l177 348h21l-345 -679h-21l158 311zM123 620h26v-84h-26v84zM258 620h26v-84h-26v84z" />
    <glyph glyph-name="Amacron" unicode="&#x100;" horiz-adv-x="629" 
d="M306 687h17l301 -687h-25l-106 243h-358l-105 -243h-25zM314 652l-170 -389h340zM181 794v20h267v-20h-267z" />
    <glyph glyph-name="amacron" unicode="&#x101;" horiz-adv-x="410" 
d="M200 458q66 0 95 -32.5t29 -100.5v-299q0 -15 7 -15q14 0 67 43v-20q-52 -43 -73 -43q-12 0 -16.5 7.5t-4.5 28.5v37q-74 -73 -151 -73q-57 0 -90 30.5t-33 80.5q0 71 72 114.5t202 48.5v59q0 60 -23.5 87.5t-82.5 27.5q-72 0 -143 -57v23q67 53 145 53zM51 102
q0 -42 27.5 -67t74.5 -25q75 0 151 76v161q-112 -2 -182.5 -40.5t-70.5 -104.5zM78 607h227v-20h-227v20z" />
    <glyph glyph-name="Abreve" unicode="&#x102;" horiz-adv-x="629" 
d="M306 687h17l301 -687h-25l-106 243h-358l-105 -243h-25zM314 652l-170 -389h340zM182 854h21q29 -94 111 -94t111 94h21q-29 -114 -132 -114q-50 0 -85.5 30.5t-46.5 83.5z" />
    <glyph glyph-name="abreve" unicode="&#x103;" horiz-adv-x="410" 
d="M200 458q66 0 95 -32.5t29 -100.5v-299q0 -15 7 -15q14 0 67 43v-20q-52 -43 -73 -43q-12 0 -16.5 7.5t-4.5 28.5v37q-74 -73 -151 -73q-57 0 -90 30.5t-33 80.5q0 71 72 114.5t202 48.5v59q0 60 -23.5 87.5t-82.5 27.5q-72 0 -143 -57v23q67 53 145 53zM51 102
q0 -42 27.5 -67t74.5 -25q75 0 151 76v161q-112 -2 -182.5 -40.5t-70.5 -104.5zM60 647h21q29 -94 111 -94t111 94h21q-29 -114 -132 -114q-50 0 -85.5 30.5t-46.5 83.5z" />
    <glyph glyph-name="Aogonek" unicode="&#x104;" horiz-adv-x="629" 
d="M599 0l-106 243h-358l-105 -243h-25l301 687h17l301 -687h-6q-44 -29 -44 -96q0 -25 16.5 -40t47.5 -15q20 0 41 4v-18q-16 -5 -41 -5q-41 0 -62.5 20t-21.5 54q0 33 14 60t31 36zM314 652l-170 -389h340z" />
    <glyph glyph-name="aogonek" unicode="&#x105;" horiz-adv-x="410" 
d="M200 458q66 0 95 -32.5t29 -100.5v-299q0 -15 7 -15q14 0 67 43v-20q-37 -30 -60 -40q-35 -31 -35 -90q0 -25 16.5 -40t47.5 -15q20 0 41 4v-18q-16 -5 -41 -5q-41 0 -62.5 20t-21.5 54q0 56 34 88q-13 4 -13 35v37q-74 -73 -151 -73q-57 0 -90 30.5t-33 80.5
q0 71 72 114.5t202 48.5v59q0 60 -23.5 87.5t-82.5 27.5q-72 0 -143 -57v23q67 53 145 53zM51 102q0 -42 27.5 -67t74.5 -25q75 0 151 76v161q-112 -2 -182.5 -40.5t-70.5 -104.5z" />
    <glyph glyph-name="Cacute" unicode="&#x106;" horiz-adv-x="643" 
d="M393 691q111 0 216 -50v-29q-101 57 -220 57q-139 0 -227 -92.5t-88 -235.5q0 -145 88.5 -236.5t226.5 -91.5q119 0 220 57v-29q-105 -50 -216 -50q-151 0 -247 98t-96 246q0 157 94.5 256.5t248.5 99.5zM338 728l122 156h24l-126 -156h-20z" />
    <glyph glyph-name="cacute" unicode="&#x107;" horiz-adv-x="394" 
d="M262 458q55 0 112 -19v-21q-56 21 -112 21q-89 0 -145 -60t-56 -154q0 -95 57 -155t144 -60q56 0 112 21v-21q-57 -19 -112 -19q-95 0 -158.5 64.5t-63.5 167.5q0 105 62 170t160 65zM334 677h24l-126 -156h-20z" />
    <glyph glyph-name="Ccircumflex" unicode="&#x108;" horiz-adv-x="643" 
d="M393 691q111 0 216 -50v-29q-101 57 -220 57q-139 0 -227 -92.5t-88 -235.5q0 -145 88.5 -236.5t226.5 -91.5q119 0 220 57v-29q-105 -50 -216 -50q-151 0 -247 98t-96 246q0 157 94.5 256.5t248.5 99.5zM255 728l122 156h24l122 -156h-20l-114 141l-114 -141h-20z" />
    <glyph glyph-name="ccircumflex" unicode="&#x109;" horiz-adv-x="394" 
d="M262 458q55 0 112 -19v-21q-56 21 -112 21q-89 0 -145 -60t-56 -154q0 -95 57 -155t144 -60q56 0 112 21v-21q-57 -19 -112 -19q-95 0 -158.5 64.5t-63.5 167.5q0 105 62 170t160 65zM243 677h24l122 -156h-20l-114 141l-114 -141h-20z" />
    <glyph glyph-name="Cdotaccent" unicode="&#x10a;" horiz-adv-x="643" 
d="M393 691q111 0 216 -50v-29q-101 57 -220 57q-139 0 -227 -92.5t-88 -235.5q0 -145 88.5 -236.5t226.5 -91.5q119 0 220 57v-29q-105 -50 -216 -50q-151 0 -247 98t-96 246q0 157 94.5 256.5t248.5 99.5zM372 828h28v-84h-28v84z" />
    <glyph glyph-name="cdotaccent" unicode="&#x10b;" horiz-adv-x="394" 
d="M262 458q55 0 112 -19v-21q-56 21 -112 21q-89 0 -145 -60t-56 -154q0 -95 57 -155t144 -60q56 0 112 21v-21q-57 -19 -112 -19q-95 0 -158.5 64.5t-63.5 167.5q0 105 62 170t160 65zM245 620h28v-84h-28v84z" />
    <glyph glyph-name="Ccaron" unicode="&#x10c;" horiz-adv-x="643" 
d="M393 691q111 0 216 -50v-29q-101 57 -220 57q-139 0 -227 -92.5t-88 -235.5q0 -145 88.5 -236.5t226.5 -91.5q119 0 220 57v-29q-105 -50 -216 -50q-151 0 -247 98t-96 246q0 157 94.5 256.5t248.5 99.5zM375 728l-122 156h20l114 -141l114 141h20l-122 -156h-24z" />
    <glyph glyph-name="ccaron" unicode="&#x10d;" horiz-adv-x="394" 
d="M262 458q55 0 112 -19v-21q-56 21 -112 21q-89 0 -145 -60t-56 -154q0 -95 57 -155t144 -60q56 0 112 21v-21q-57 -19 -112 -19q-95 0 -158.5 64.5t-63.5 167.5q0 105 62 170t160 65zM121 677h20l114 -141l114 141h20l-122 -156h-24z" />
    <glyph glyph-name="Dcaron" unicode="&#x10e;" horiz-adv-x="728" 
d="M80 0v682h233q160 0 262.5 -92.5t102.5 -242.5q0 -159 -100 -253t-265 -94h-233zM102 22h218q146 0 240 88t94 224q0 151 -94.5 238.5t-243.5 87.5h-214v-638zM282 728l-122 156h20l114 -141l114 141h20l-122 -156h-24z" />
    <glyph glyph-name="dcaron" unicode="&#x10f;" horiz-adv-x="548" 
d="M422 0h-161q-97 0 -159 63.5t-62 164.5q0 103 59 166.5t152 63.5q79 0 151 -48v272h20v-682zM402 19v368q-73 53 -152 53q-85 0 -137 -59t-52 -153t56.5 -151.5t143.5 -57.5h141zM495 508v22q32 27 32 77h-18v75h39v-59q-1 -50 -12.5 -72t-40.5 -43z" />
    <glyph glyph-name="Dcroat" unicode="&#x110;" horiz-adv-x="728" 
d="M0 335v22h80v325h233q160 0 262.5 -92.5t102.5 -242.5q0 -159 -100 -253t-265 -94h-233v335h-80zM102 22h218q146 0 240 88t94 224q0 151 -94.5 238.5t-243.5 87.5h-214v-303h193v-22h-193v-313z" />
    <glyph glyph-name="dcroat" unicode="&#x111;" horiz-adv-x="490" 
d="M402 682h20v-95h68v-18h-68v-569h-161q-97 0 -159 63.5t-62 164.5q0 103 59 166.5t152 63.5q79 0 151 -48v159h-172v18h172v95zM61 228q0 -94 56.5 -151.5t143.5 -57.5h141v368q-73 53 -152 53q-85 0 -137 -59t-52 -153z" />
    <glyph glyph-name="Emacron" unicode="&#x112;" horiz-adv-x="459" 
d="M80 682h341v-21h-319v-306h311v-22h-311v-312h327v-21h-349v682zM121 794v20h267v-20h-267z" />
    <glyph glyph-name="emacron" unicode="&#x113;" horiz-adv-x="451" 
d="M412 65v-22q-73 -52 -158 -52q-96 0 -155 65t-59 167q0 103 53.5 169t138.5 66q82 0 130 -53t55 -154h-355v-3.5t-0.5 -7t-0.5 -10.5q0 -101 53.5 -160.5t139.5 -59.5q87 0 158 55zM64 269h331q-23 171 -164 171q-64 0 -110.5 -46.5t-56.5 -124.5zM122 607h227v-20h-227
v20z" />
    <glyph glyph-name="Ebreve" unicode="&#x114;" horiz-adv-x="459" 
d="M80 682h341v-21h-319v-306h311v-22h-311v-312h327v-21h-349v682zM122 854h21q29 -94 111 -94t111 94h21q-29 -114 -132 -114q-50 0 -85.5 30.5t-46.5 83.5z" />
    <glyph glyph-name="ebreve" unicode="&#x115;" horiz-adv-x="451" 
d="M412 65v-22q-73 -52 -158 -52q-96 0 -155 65t-59 167q0 103 53.5 169t138.5 66q82 0 130 -53t55 -154h-355v-3.5t-0.5 -7t-0.5 -10.5q0 -101 53.5 -160.5t139.5 -59.5q87 0 158 55zM64 269h331q-23 171 -164 171q-64 0 -110.5 -46.5t-56.5 -124.5zM108 647h21
q29 -94 111 -94t111 94h21q-29 -114 -132 -114q-50 0 -85.5 30.5t-46.5 83.5z" />
    <glyph glyph-name="Edotaccent" unicode="&#x116;" horiz-adv-x="459" 
d="M80 682h341v-21h-319v-306h311v-22h-311v-312h327v-21h-349v682zM238 828h28v-84h-28v84z" />
    <glyph glyph-name="edotaccent" unicode="&#x117;" horiz-adv-x="451" 
d="M412 65v-22q-73 -52 -158 -52q-96 0 -155 65t-59 167q0 103 53.5 169t138.5 66q82 0 130 -53t55 -154h-355v-3.5t-0.5 -7t-0.5 -10.5q0 -101 53.5 -160.5t139.5 -59.5q87 0 158 55zM64 269h331q-23 171 -164 171q-64 0 -110.5 -46.5t-56.5 -124.5zM226 620h28v-84h-28v84
z" />
    <glyph glyph-name="Eogonek" unicode="&#x118;" horiz-adv-x="459" 
d="M80 682h341v-21h-319v-306h311v-22h-311v-312h327v-21h-61q-44 -29 -44 -96q0 -25 16.5 -40t47.5 -15q20 0 41 4v-18q-16 -5 -41 -5q-41 0 -62.5 20t-21.5 54q0 33 14 60t31 36h-269v682z" />
    <glyph glyph-name="eogonek" unicode="&#x119;" horiz-adv-x="451" 
d="M412 65v-22q-69 -50 -152 -52q-32 -30 -32 -87q0 -25 16.5 -40t47.5 -15q20 0 41 4v-18q-16 -5 -41 -5q-41 0 -62.5 20t-21.5 54q0 56 33 87q-91 5 -146 69t-55 163q0 103 53.5 169t138.5 66q82 0 130 -53t55 -154h-355v-3.5t-0.5 -7t-0.5 -10.5q0 -101 53.5 -160.5
t139.5 -59.5q87 0 158 55zM64 269h331q-23 171 -164 171q-64 0 -110.5 -46.5t-56.5 -124.5z" />
    <glyph glyph-name="Ecaron" unicode="&#x11a;" horiz-adv-x="459" 
d="M80 682h341v-21h-319v-306h311v-22h-311v-312h327v-21h-349v682zM244 728l-122 156h20l114 -141l114 141h20l-122 -156h-24z" />
    <glyph glyph-name="ecaron" unicode="&#x11b;" horiz-adv-x="451" 
d="M412 65v-22q-73 -52 -158 -52q-96 0 -155 65t-59 167q0 103 53.5 169t138.5 66q82 0 130 -53t55 -154h-355v-3.5t-0.5 -7t-0.5 -10.5q0 -101 53.5 -160.5t139.5 -59.5q87 0 158 55zM64 269h331q-23 171 -164 171q-64 0 -110.5 -46.5t-56.5 -124.5zM104 677h20l114 -141
l114 141h20l-122 -156h-24z" />
    <glyph glyph-name="Gcircumflex" unicode="&#x11c;" horiz-adv-x="686" 
d="M609 641v-29q-101 57 -220 57q-137 0 -226 -91t-89 -227q0 -156 87 -247t238 -91q110 0 200 49v219h-156v21h178v-256q-96 -55 -225 -55q-157 0 -251.5 97.5t-94.5 254.5q0 152 95.5 250t247.5 98q111 0 216 -50zM264 728l122 156h24l122 -156h-20l-114 141l-114 -141
h-20z" />
    <glyph glyph-name="gcircumflex" unicode="&#x11d;" horiz-adv-x="404" 
d="M392 449v-17h-124q41 -15 64 -51t23 -83q0 -53 -35 -97.5t-110 -59.5q-67 -13 -90.5 -29t-23.5 -41q0 -19 6.5 -30t24 -16t35 -6.5t53 -4.5t64.5 -7q118 -20 118 -112q0 -58 -51.5 -91.5t-138.5 -33.5q-90 0 -139.5 31.5t-49.5 87.5q0 46 31 75.5t89 39.5q-64 10 -64 63
q0 62 91 80q-55 11 -87 51.5t-32 96.5q0 69 45.5 111.5t118.5 42.5h182zM67 295q0 -57 36.5 -94.5t95.5 -37.5q57 0 96 38.5t39 95.5q0 58 -36.5 96t-93.5 38q-59 0 -98 -37t-39 -99zM39 -111q0 -49 43 -75t125 -26q79 0 124 28.5t45 78.5q0 99 -163 99q-174 0 -174 -105z
M190 677h24l122 -156h-20l-114 141l-114 -141h-20z" />
    <glyph glyph-name="Gbreve" unicode="&#x11e;" horiz-adv-x="686" 
d="M609 641v-29q-101 57 -220 57q-137 0 -226 -91t-89 -227q0 -156 87 -247t238 -91q110 0 200 49v219h-156v21h178v-256q-96 -55 -225 -55q-157 0 -251.5 97.5t-94.5 254.5q0 152 95.5 250t247.5 98q111 0 216 -50zM262 854h21q29 -94 111 -94t111 94h21
q-29 -114 -132 -114q-50 0 -85.5 30.5t-46.5 83.5z" />
    <glyph glyph-name="gbreve" unicode="&#x11f;" horiz-adv-x="404" 
d="M392 449v-17h-124q41 -15 64 -51t23 -83q0 -53 -35 -97.5t-110 -59.5q-67 -13 -90.5 -29t-23.5 -41q0 -19 6.5 -30t24 -16t35 -6.5t53 -4.5t64.5 -7q118 -20 118 -112q0 -58 -51.5 -91.5t-138.5 -33.5q-90 0 -139.5 31.5t-49.5 87.5q0 46 31 75.5t89 39.5q-64 10 -64 63
q0 62 91 80q-55 11 -87 51.5t-32 96.5q0 69 45.5 111.5t118.5 42.5h182zM67 295q0 -57 36.5 -94.5t95.5 -37.5q57 0 96 38.5t39 95.5q0 58 -36.5 96t-93.5 38q-59 0 -98 -37t-39 -99zM39 -111q0 -49 43 -75t125 -26q79 0 124 28.5t45 78.5q0 99 -163 99q-174 0 -174 -105z
M80 647h21q29 -94 111 -94t111 94h21q-29 -114 -132 -114q-50 0 -85.5 30.5t-46.5 83.5z" />
    <glyph glyph-name="Gdotaccent" unicode="&#x120;" horiz-adv-x="686" 
d="M609 641v-29q-101 57 -220 57q-137 0 -226 -91t-89 -227q0 -156 87 -247t238 -91q110 0 200 49v219h-156v21h178v-256q-96 -55 -225 -55q-157 0 -251.5 97.5t-94.5 254.5q0 152 95.5 250t247.5 98q111 0 216 -50zM374 828h28v-84h-28v84z" />
    <glyph glyph-name="gdotaccent" unicode="&#x121;" horiz-adv-x="404" 
d="M392 449v-17h-124q41 -15 64 -51t23 -83q0 -53 -35 -97.5t-110 -59.5q-67 -13 -90.5 -29t-23.5 -41q0 -19 6.5 -30t24 -16t35 -6.5t53 -4.5t64.5 -7q118 -20 118 -112q0 -58 -51.5 -91.5t-138.5 -33.5q-90 0 -139.5 31.5t-49.5 87.5q0 46 31 75.5t89 39.5q-64 10 -64 63
q0 62 91 80q-55 11 -87 51.5t-32 96.5q0 69 45.5 111.5t118.5 42.5h182zM67 295q0 -57 36.5 -94.5t95.5 -37.5q57 0 96 38.5t39 95.5q0 58 -36.5 96t-93.5 38q-59 0 -98 -37t-39 -99zM39 -111q0 -49 43 -75t125 -26q79 0 124 28.5t45 78.5q0 99 -163 99q-174 0 -174 -105z
M188 620h28v-84h-28v84z" />
    <glyph glyph-name="Gcommaaccent" unicode="&#x122;" horiz-adv-x="686" 
d="M609 641v-29q-101 57 -220 57q-137 0 -226 -91t-89 -227q0 -156 87 -247t238 -91q110 0 200 49v219h-156v21h178v-256q-96 -55 -225 -55q-157 0 -251.5 97.5t-94.5 254.5q0 152 95.5 250t247.5 98q111 0 216 -50zM367 -249v22q32 27 32 77h-18v75h39v-59
q-1 -50 -12.5 -72t-40.5 -43z" />
    <glyph glyph-name="gcommaaccent" unicode="&#x123;" horiz-adv-x="404" 
d="M392 449v-17h-124q41 -15 64 -51t23 -83q0 -53 -35 -97.5t-110 -59.5q-67 -13 -90.5 -29t-23.5 -41q0 -19 6.5 -30t24 -16t35 -6.5t53 -4.5t64.5 -7q118 -20 118 -112q0 -58 -51.5 -91.5t-138.5 -33.5q-90 0 -139.5 31.5t-49.5 87.5q0 46 31 75.5t89 39.5q-64 10 -64 63
q0 62 91 80q-55 11 -87 51.5t-32 96.5q0 69 45.5 111.5t118.5 42.5h182zM67 295q0 -57 36.5 -94.5t95.5 -37.5q57 0 96 38.5t39 95.5q0 58 -36.5 96t-93.5 38q-59 0 -98 -37t-39 -99zM39 -111q0 -49 43 -75t125 -26q79 0 124 28.5t45 78.5q0 99 -163 99q-174 0 -174 -105z
M241 693v-22q-32 -27 -32 -77h18v-75h-39v59q1 50 12.5 72t40.5 43z" />
    <glyph glyph-name="Hcircumflex" unicode="&#x124;" horiz-adv-x="690" 
d="M80 682h22v-325h486v325h22v-682h-22v335h-486v-335h-22v682zM211 728l122 156h24l122 -156h-20l-114 141l-114 -141h-20z" />
    <glyph glyph-name="hcircumflex" unicode="&#x125;" horiz-adv-x="478" 
d="M251 458q81 0 119.5 -49.5t38.5 -128.5v-280h-20v277q0 74 -34 118t-104 44q-105 0 -169 -111v-328h-20v682h20v-323q28 45 73 72t96 27zM230 884h24l122 -156h-20l-114 141l-114 -141h-20z" />
    <glyph glyph-name="Hbar" unicode="&#x126;" horiz-adv-x="690" 
d="M80 682h22v-135h486v135h22v-135h79v-22h-79v-525h-22v335h-486v-335h-22v525h-79v22h79v135zM102 357h486v168h-486v-168z" />
    <glyph glyph-name="hbar" unicode="&#x127;" horiz-adv-x="478" 
d="M257 458q81 0 119.5 -49.5t38.5 -128.5v-280h-20v277q0 73 -34 117.5t-104 44.5q-105 0 -169 -111v-328h-20v569h-68v18h68v95h20v-95h176v-18h-176v-210q28 45 73 72t96 27z" />
    <glyph glyph-name="Itilde" unicode="&#x128;" horiz-adv-x="182" 
d="M80 682h22v-682h-22v682zM15 850q27 0 54 -19t51.5 -37.5t45.5 -18.5q56 0 57 75h20q0 -95 -76 -95q-34 0 -78 37.5t-73 37.5q-56 0 -57 -75h-20q0 47 20.5 71t55.5 24z" />
    <glyph glyph-name="itilde" unicode="&#x129;" horiz-adv-x="156" 
d="M70 449h20v-449h-20v449zM4 643q27 0 54 -18.5t51.5 -37.5t45.5 -19q55 0 57 75h20q0 -95 -76 -95q-34 0 -78 37.5t-73 37.5q-55 0 -57 -75h-20q0 47 20.5 71t55.5 24z" />
    <glyph glyph-name="Imacron" unicode="&#x12a;" horiz-adv-x="182" 
d="M80 682h22v-682h-22v682zM-43 794v20h267v-20h-267z" />
    <glyph glyph-name="imacron" unicode="&#x12b;" horiz-adv-x="156" 
d="M70 449h20v-449h-20v449zM-33 607h227v-20h-227v20z" />
    <glyph glyph-name="Ibreve" unicode="&#x12c;" horiz-adv-x="182" 
d="M80 682h22v-682h-22v682zM-41 854h21q29 -94 111 -94t111 94h21q-29 -114 -132 -114q-50 0 -85.5 30.5t-46.5 83.5z" />
    <glyph glyph-name="ibreve" unicode="&#x12d;" horiz-adv-x="156" 
d="M70 449h20v-449h-20v449zM-52 647h21q29 -94 111 -94t111 94h21q-29 -114 -132 -114q-50 0 -85.5 30.5t-46.5 83.5z" />
    <glyph glyph-name="Iogonek" unicode="&#x12e;" horiz-adv-x="182" 
d="M80 0v682h22v-682h-3q-44 -29 -44 -96q0 -25 16.5 -40t47.5 -15q20 0 41 4v-18q-16 -5 -41 -5q-41 0 -62.5 20t-21.5 54q0 33 14 60t31 36z" />
    <glyph glyph-name="iogonek" unicode="&#x12f;" horiz-adv-x="156" 
d="M68 0v449h20v-449h-20zM68 0h19q-44 -29 -44 -96q0 -25 16.5 -40t47.5 -15q20 0 41 4v-18q-16 -5 -41 -5q-41 0 -62.5 20t-21.5 54q0 33 14 60t31 36zM68 620h20v-84h-20v84z" />
    <glyph glyph-name="Idotaccent" unicode="&#x130;" horiz-adv-x="182" 
d="M80 682h22v-682h-22v682zM76 828h28v-84h-28v84z" />
    <glyph glyph-name="dotlessi" unicode="&#x131;" horiz-adv-x="160" 
d="M70 449h20v-449h-20v449z" />
    <glyph glyph-name="Jcircumflex" unicode="&#x134;" horiz-adv-x="182" 
d="M-55 -197l-2 21q6 0 14 -1t13 -1q57 0 83.5 38.5t26.5 122.5v699h22v-703q0 -178 -132 -178q-7 0 -25 2zM-47 728l122 156h24l122 -156h-20l-114 141l-114 -141h-20z" />
    <glyph glyph-name="jcircumflex" unicode="&#x135;" horiz-adv-x="156" 
d="M72 449h20v-502q0 -167 -114 -177l-4 17q52 6 75 46t23 115v501zM70 677h24l122 -156h-20l-114 141l-114 -141h-20z" />
    <glyph glyph-name="Kcommaaccent" unicode="&#x136;" horiz-adv-x="478" 
d="M80 682h22v-340l326 340h29l-325 -339l354 -343h-31l-353 342v-342h-22v682zM218 -249v22q32 27 32 77h-18v75h39v-59q-1 -50 -12.5 -72t-40.5 -43z" />
    <glyph glyph-name="kcommaaccent" unicode="&#x137;" horiz-adv-x="371" 
d="M68 0v682h20v-439l239 206h27l-248 -213l285 -236h-29l-274 228v-228h-20zM168 -249v22q32 27 32 77h-18v75h39v-59q-1 -50 -12.5 -72t-40.5 -43z" />
    <glyph glyph-name="kgreenlandic" unicode="&#x138;" horiz-adv-x="362" 
d="M59 0v449h20v-206l239 206h27l-248 -213l285 -236h-29l-274 228v-228h-20z" />
    <glyph glyph-name="Lacute" unicode="&#x139;" horiz-adv-x="466" 
d="M80 682h22v-660h352v-22h-374v682zM47 728l122 156h24l-126 -156h-20z" />
    <glyph glyph-name="lacute" unicode="&#x13a;" horiz-adv-x="156" 
d="M68 682h20v-682h-20v682zM157 884h24l-126 -156h-20z" />
    <glyph glyph-name="Lcommaaccent" unicode="&#x13b;" horiz-adv-x="466" 
d="M80 682h22v-660h352v-22h-374v682zM225 -249v22q32 27 32 77h-18v75h39v-59q-1 -50 -12.5 -72t-40.5 -43z" />
    <glyph glyph-name="lcommaaccent" unicode="&#x13c;" horiz-adv-x="156" 
d="M68 682h20v-682h-20v682zM44 -249v22q32 27 32 77h-18v75h39v-59q-1 -50 -12.5 -72t-40.5 -43z" />
    <glyph glyph-name="Lcaron" unicode="&#x13d;" horiz-adv-x="466" 
d="M80 682h22v-660h352v-22h-374v682zM263 508v22q32 27 32 77h-18v75h39v-59q-1 -50 -12.5 -72t-40.5 -43z" />
    <glyph glyph-name="lcaron" unicode="&#x13e;" horiz-adv-x="223" 
d="M68 682h20v-682h-20v682zM170 508v22q32 27 32 77h-18v75h39v-59q-1 -50 -12.5 -72t-40.5 -43z" />
    <glyph glyph-name="Ldot" unicode="&#x13f;" horiz-adv-x="466" 
d="M80 682h22v-660h352v-22h-374v682zM305 389h28v-84h-28v84z" />
    <glyph glyph-name="ldot" unicode="&#x140;" horiz-adv-x="186" 
d="M68 682h20v-682h-20v682zM158 386h28v-84h-28v84z" />
    <glyph glyph-name="Lslash" unicode="&#x141;" horiz-adv-x="466" 
d="M80 682h22v-343l179 149v-25l-179 -149v-292h352v-22h-374v295l-90 -77v25l90 77v362z" />
    <glyph glyph-name="lslash" unicode="&#x142;" horiz-adv-x="156" 
d="M68 0v314l-83 -68v25l83 68v343h20v-326l83 69v-25l-83 -69v-331h-20z" />
    <glyph glyph-name="Nacute" unicode="&#x143;" horiz-adv-x="744" 
d="M80 682h21l541 -646v646h22v-682h-21l-541 646v-646h-22v682zM329 728l122 156h24l-126 -156h-20z" />
    <glyph glyph-name="nacute" unicode="&#x144;" horiz-adv-x="478" 
d="M257 458q81 0 119.5 -49t38.5 -131v-278h-20v271q0 76 -34 122t-104 46q-104 0 -169 -111v-328h-20v449h20v-90q28 44 74 71.5t95 27.5zM317 677h24l-126 -156h-20z" />
    <glyph glyph-name="Ncommaaccent" unicode="&#x145;" horiz-adv-x="744" 
d="M80 682h21l541 -646v646h22v-682h-21l-541 646v-646h-22v682zM326 -249v22q32 27 32 77h-18v75h39v-59q-1 -50 -12.5 -72t-40.5 -43z" />
    <glyph glyph-name="ncommaaccent" unicode="&#x146;" horiz-adv-x="478" 
d="M257 458q81 0 119.5 -49t38.5 -131v-278h-20v271q0 76 -34 122t-104 46q-104 0 -169 -111v-328h-20v449h20v-90q28 44 74 71.5t95 27.5zM211 -249v22q32 27 32 77h-18v75h39v-59q-1 -50 -12.5 -72t-40.5 -43z" />
    <glyph glyph-name="Ncaron" unicode="&#x147;" horiz-adv-x="744" 
d="M80 682h21l541 -646v646h22v-682h-21l-541 646v-646h-22v682zM360 728l-122 156h20l114 -141l114 141h20l-122 -156h-24z" />
    <glyph glyph-name="ncaron" unicode="&#x148;" horiz-adv-x="478" 
d="M257 458q81 0 119.5 -49t38.5 -131v-278h-20v271q0 76 -34 122t-104 46q-104 0 -169 -111v-328h-20v449h20v-90q28 44 74 71.5t95 27.5zM117 677h20l114 -141l114 141h20l-122 -156h-24z" />
    <glyph glyph-name="napostrophe" unicode="&#x149;" horiz-adv-x="478" 
d="M257 458q81 0 119.5 -49t38.5 -131v-278h-20v271q0 76 -34 122t-104 46q-104 0 -169 -111v-328h-20v449h20v-90q28 44 74 71.5t95 27.5zM-13 490v17q37 31 37 100h-18v75h39v-59q-1 -91 -58 -133z" />
    <glyph glyph-name="Eng" unicode="&#x14a;" horiz-adv-x="678" 
d="M482 11q63 0 86.5 40t23.5 121v235q0 124 -67 194t-170 70q-89 0 -158.5 -49t-96.5 -121v-501h-22v682h22v-139q34 65 104.5 106.5t149.5 41.5q120 0 190 -78t70 -202v-242q0 -97 -33.5 -137.5t-98.5 -40.5q-7 0 -25 2l-2 20q6 0 14 -1t13 -1z" />
    <glyph glyph-name="eng" unicode="&#x14b;" horiz-adv-x="478" 
d="M257 458q81 0 119.5 -49t38.5 -131v-331q0 -80 -29 -126.5t-85 -50.5l-4 17q33 4 53 18.5t29.5 45t12.5 63t3 88.5v269q0 76 -34 122t-104 46q-104 0 -169 -111v-328h-20v449h20v-90q28 44 74 71.5t95 27.5z" />
    <glyph glyph-name="Omacron" unicode="&#x14c;" horiz-adv-x="787" 
d="M391 691q106 0 186.5 -49.5t120 -126.5t39.5 -168q0 -156 -98.5 -256t-246.5 -100q-149 0 -245.5 101t-96.5 242q0 158 99 257.5t242 99.5zM397 669q-141 0 -232 -93t-91 -235q0 -138 90.5 -233t224.5 -95q144 0 234 95.5t90 230.5q0 143 -89 236.5t-227 93.5zM259 794
v20h267v-20h-267z" />
    <glyph glyph-name="omacron" unicode="&#x14d;" horiz-adv-x="522" 
d="M260 440q-84 0 -141.5 -60.5t-57.5 -155.5q0 -93 56.5 -154t143.5 -61q88 0 144 61.5t56 153.5q0 91 -55.5 153.5t-145.5 62.5zM261 458q96 0 158.5 -67.5t62.5 -166.5q0 -100 -62.5 -166.5t-158.5 -66.5t-158.5 65.5t-62.5 163.5q0 104 62 171t159 67zM148 607h227v-20
h-227v20z" />
    <glyph glyph-name="Obreve" unicode="&#x14e;" horiz-adv-x="787" 
d="M391 691q106 0 186.5 -49.5t120 -126.5t39.5 -168q0 -156 -98.5 -256t-246.5 -100q-149 0 -245.5 101t-96.5 242q0 158 99 257.5t242 99.5zM397 669q-141 0 -232 -93t-91 -235q0 -138 90.5 -233t224.5 -95q144 0 234 95.5t90 230.5q0 143 -89 236.5t-227 93.5zM260 854
h21q29 -94 111 -94t111 94h21q-29 -114 -132 -114q-50 0 -85.5 30.5t-46.5 83.5z" />
    <glyph glyph-name="obreve" unicode="&#x14f;" horiz-adv-x="522" 
d="M260 440q-84 0 -141.5 -60.5t-57.5 -155.5q0 -93 56.5 -154t143.5 -61q88 0 144 61.5t56 153.5q0 91 -55.5 153.5t-145.5 62.5zM261 458q96 0 158.5 -67.5t62.5 -166.5q0 -100 -62.5 -166.5t-158.5 -66.5t-158.5 65.5t-62.5 163.5q0 104 62 171t159 67zM129 647h21
q29 -94 111 -94t111 94h21q-29 -114 -132 -114q-50 0 -85.5 30.5t-46.5 83.5z" />
    <glyph glyph-name="Ohungarumlaut" unicode="&#x150;" horiz-adv-x="787" 
d="M391 691q106 0 186.5 -49.5t120 -126.5t39.5 -168q0 -156 -98.5 -256t-246.5 -100q-149 0 -245.5 101t-96.5 242q0 158 99 257.5t242 99.5zM397 669q-141 0 -232 -93t-91 -235q0 -138 90.5 -233t224.5 -95q144 0 234 95.5t90 230.5q0 143 -89 236.5t-227 93.5zM295 728
l122 156h24l-126 -156h-20zM433 728l122 156h24l-126 -156h-20z" />
    <glyph glyph-name="ohungarumlaut" unicode="&#x151;" horiz-adv-x="522" 
d="M260 440q-84 0 -141.5 -60.5t-57.5 -155.5q0 -93 56.5 -154t143.5 -61q88 0 144 61.5t56 153.5q0 91 -55.5 153.5t-145.5 62.5zM261 458q96 0 158.5 -67.5t62.5 -166.5q0 -100 -62.5 -166.5t-158.5 -66.5t-158.5 65.5t-62.5 163.5q0 104 62 171t159 67zM281 677h24
l-126 -156h-20zM419 677h24l-126 -156h-20z" />
    <glyph glyph-name="OE" unicode="&#x152;" horiz-adv-x="859" 
d="M406 682h415v-21h-319v-306h311v-22h-311v-312h327v-21h-416q-168 0 -265.5 90t-97.5 254q0 154 101 246t255 92zM74 341q0 -144 88 -232t250 -88h68v640h-73q-147 0 -240 -86.5t-93 -233.5z" />
    <glyph glyph-name="oe" unicode="&#x153;" horiz-adv-x="872" 
d="M471 302q19 72 67.5 114t114.5 42q83 0 130.5 -53t54.5 -154h-355q-1 -4 -1 -24q0 -99 53.5 -158t139.5 -59t158 55v-22q-73 -52 -158 -52q-75 0 -128 41t-76 116q-21 -73 -77.5 -115t-132.5 -42q-96 0 -158.5 66t-62.5 167t62.5 167.5t158.5 66.5q73 0 129 -41.5
t81 -114.5zM261 9q88 0 144 61.5t56 153.5q0 90 -55.5 153t-145.5 63q-84 0 -141.5 -60.5t-57.5 -155.5q0 -93 56.5 -154t143.5 -61zM484 269h332q-10 83 -52 127t-112 44q-64 0 -110.5 -46t-57.5 -125z" />
    <glyph glyph-name="Racute" unicode="&#x154;" horiz-adv-x="548" 
d="M80 0v682h161q210 0 210 -168q0 -72 -43 -115t-120 -52q37 -12 59 -31.5t47 -59.5l160 -256h-27l-146 235q-38 60 -74 82t-96 22h-109v-339h-22zM102 361h89q117 0 176.5 33.5t59.5 118.5t-52.5 116.5t-150.5 31.5h-122v-300zM188 728l122 156h24l-126 -156h-20z" />
    <glyph glyph-name="racute" unicode="&#x155;" horiz-adv-x="337" 
d="M248 458q39 0 89 -44l-12 -16q-50 40 -81 40q-67 0 -156 -137v-301h-20v449h20v-120q83 129 160 129zM271 677h24l-126 -156h-20z" />
    <glyph glyph-name="Rcommaaccent" unicode="&#x156;" horiz-adv-x="548" 
d="M80 0v682h161q210 0 210 -168q0 -72 -43 -115t-120 -52q37 -12 59 -31.5t47 -59.5l160 -256h-27l-146 235q-38 60 -74 82t-96 22h-109v-339h-22zM102 361h89q117 0 176.5 33.5t59.5 118.5t-52.5 116.5t-150.5 31.5h-122v-300zM235 -249v22q32 27 32 77h-18v75h39v-59
q-1 -50 -12.5 -72t-40.5 -43z" />
    <glyph glyph-name="rcommaaccent" unicode="&#x157;" horiz-adv-x="337" 
d="M248 458q39 0 89 -44l-12 -16q-50 40 -81 40q-67 0 -156 -137v-301h-20v449h20v-120q83 129 160 129zM45 -249v22q32 27 32 77h-18v75h39v-59q-1 -50 -12.5 -72t-40.5 -43z" />
    <glyph glyph-name="Rcaron" unicode="&#x158;" horiz-adv-x="548" 
d="M80 0v682h161q210 0 210 -168q0 -72 -43 -115t-120 -52q37 -12 59 -31.5t47 -59.5l160 -256h-27l-146 235q-38 60 -74 82t-96 22h-109v-339h-22zM102 361h89q117 0 176.5 33.5t59.5 118.5t-52.5 116.5t-150.5 31.5h-122v-300zM234 728l-122 156h20l114 -141l114 141h20
l-122 -156h-24z" />
    <glyph glyph-name="rcaron" unicode="&#x159;" horiz-adv-x="337" 
d="M248 458q39 0 89 -44l-12 -16q-50 40 -81 40q-67 0 -156 -137v-301h-20v449h20v-120q83 129 160 129zM57 677h20l114 -141l114 141h20l-122 -156h-24z" />
    <glyph glyph-name="Sacute" unicode="&#x15a;" horiz-adv-x="419" 
d="M222 691q78 0 140 -34v-26q-69 39 -139 39q-72 0 -117.5 -40.5t-45.5 -104.5q0 -55 30 -93.5t123 -72.5q98 -36 135.5 -79t37.5 -114q0 -79 -51.5 -127t-135.5 -48q-90 0 -161 52v26q81 -57 162 -57q73 0 117.5 41.5t44.5 112.5q0 63 -33 99.5t-124 71.5
q-93 36 -131 77.5t-38 110.5q0 72 52.5 119t133.5 47zM180 728l122 156h24l-126 -156h-20z" />
    <glyph glyph-name="sacute" unicode="&#x15b;" horiz-adv-x="329" 
d="M40 344q0 52 35.5 83t96.5 31q53 0 106 -31v-22q-55 35 -109 35q-52 0 -80 -25t-28 -70q0 -38 25 -62.5t92 -49.5q66 -25 91 -52.5t25 -71.5q0 -52 -37.5 -85t-95.5 -33q-67 0 -123 35v22q62 -38 123 -38q50 0 81 27t31 72q0 39 -25.5 63t-91.5 48q-65 24 -90.5 51.5
t-25.5 72.5zM244 677h24l-126 -156h-20z" />
    <glyph glyph-name="Scircumflex" unicode="&#x15c;" horiz-adv-x="419" 
d="M222 691q78 0 140 -34v-26q-69 39 -139 39q-72 0 -117.5 -40.5t-45.5 -104.5q0 -55 30 -93.5t123 -72.5q98 -36 135.5 -79t37.5 -114q0 -79 -51.5 -127t-135.5 -48q-90 0 -161 52v26q81 -57 162 -57q73 0 117.5 41.5t44.5 112.5q0 63 -33 99.5t-124 71.5
q-93 36 -131 77.5t-38 110.5q0 72 52.5 119t133.5 47zM90 728l122 156h24l122 -156h-20l-114 141l-114 -141h-20z" />
    <glyph glyph-name="scircumflex" unicode="&#x15d;" horiz-adv-x="329" 
d="M40 344q0 52 35.5 83t96.5 31q53 0 106 -31v-22q-55 35 -109 35q-52 0 -80 -25t-28 -70q0 -38 25 -62.5t92 -49.5q66 -25 91 -52.5t25 -71.5q0 -52 -37.5 -85t-95.5 -33q-67 0 -123 35v22q62 -38 123 -38q50 0 81 27t31 72q0 39 -25.5 63t-91.5 48q-65 24 -90.5 51.5
t-25.5 72.5zM152 677h24l122 -156h-20l-114 141l-114 -141h-20z" />
    <glyph glyph-name="Scedilla" unicode="&#x15e;" horiz-adv-x="419" 
d="M132 -171l2 19q13 -3 35 -3q78 0 78 56q0 17 -8 28q-11 14 -41 19l-20 2l11 41q-84 3 -151 52v26q81 -57 162 -57q73 0 117.5 41.5t44.5 112.5q0 63 -33 99.5t-124 71.5q-93 36 -131 77.5t-38 110.5q0 72 52.5 119t133.5 47q78 0 140 -34v-26q-69 39 -139 39
q-72 0 -117.5 -40.5t-45.5 -104.5q0 -55 30 -93.5t123 -72.5q98 -36 135.5 -79t37.5 -114q0 -76 -48.5 -124t-128.5 -51l-7 -26q52 -6 63 -47q2 -10 2 -17q0 -36 -25.5 -56t-70.5 -20h-13q-18 2 -26 4z" />
    <glyph glyph-name="scedilla" unicode="&#x15f;" horiz-adv-x="329" 
d="M87 -171l2 19q13 -3 35 -3q78 0 78 56q0 17 -8 28q-11 14 -41 19l-20 2l11 42q-56 3 -106 34v22q62 -38 123 -38q50 0 81 27t31 72q0 39 -25.5 63t-91.5 48q-65 24 -90.5 51.5t-25.5 72.5q0 52 35.5 83t96.5 31q53 0 106 -31v-22q-55 35 -109 35q-52 0 -80 -25t-28 -70
q0 -38 25 -62.5t92 -49.5q66 -25 91 -52.5t25 -71.5q0 -51 -36.5 -83.5t-93.5 -34.5l-7 -26q52 -6 63 -47q2 -10 2 -17q0 -36 -25.5 -56t-70.5 -20h-13q-18 2 -26 4z" />
    <glyph glyph-name="Scaron" unicode="&#x160;" horiz-adv-x="419" 
d="M222 691q78 0 140 -34v-26q-69 39 -139 39q-72 0 -117.5 -40.5t-45.5 -104.5q0 -55 30 -93.5t123 -72.5q98 -36 135.5 -79t37.5 -114q0 -79 -51.5 -127t-135.5 -48q-90 0 -161 52v26q81 -57 162 -57q73 0 117.5 41.5t44.5 112.5q0 63 -33 99.5t-124 71.5
q-93 36 -131 77.5t-38 110.5q0 72 52.5 119t133.5 47zM193 728l-122 156h20l114 -141l114 141h20l-122 -156h-24z" />
    <glyph glyph-name="scaron" unicode="&#x161;" horiz-adv-x="329" 
d="M40 344q0 52 35.5 83t96.5 31q53 0 106 -31v-22q-55 35 -109 35q-52 0 -80 -25t-28 -70q0 -38 25 -62.5t92 -49.5q66 -25 91 -52.5t25 -71.5q0 -52 -37.5 -85t-95.5 -33q-67 0 -123 35v22q62 -38 123 -38q50 0 81 27t31 72q0 39 -25.5 63t-91.5 48q-65 24 -90.5 51.5
t-25.5 72.5zM33 677h20l114 -141l114 141h20l-122 -156h-24z" />
    <glyph glyph-name="Tcedilla" unicode="&#x162;" horiz-adv-x="558" 
d="M12 682h534v-21h-256v-661h-22v661h-256v21zM247 -249v22q32 27 32 77h-18v75h39v-59q-1 -50 -12.5 -72t-40.5 -43z" />
    <glyph glyph-name="tcedilla" unicode="&#x163;" horiz-adv-x="274" 
d="M-6 431v18h108v113l20 15v-128h130v-18h-130v-310q0 -62 14.5 -86.5t55.5 -24.5q32 0 75 20v-20q-37 -19 -75 -19q-52 0 -71 29.5t-19 100.5v310h-108zM145 -249v22q32 27 32 77h-18v75h39v-59q-1 -50 -12.5 -72t-40.5 -43z" />
    <glyph glyph-name="Tcaron" unicode="&#x164;" horiz-adv-x="558" 
d="M12 682h534v-21h-256v-661h-22v661h-256v21zM267 728l-122 156h20l114 -141l114 141h20l-122 -156h-24z" />
    <glyph glyph-name="tcaron" unicode="&#x165;" horiz-adv-x="300" 
d="M-6 431v18h108v113l20 15v-128h130v-18h-130v-310q0 -62 14.5 -86.5t55.5 -24.5q32 0 75 20v-20q-37 -19 -75 -19q-52 0 -71 29.5t-19 100.5v310h-108zM247 508v22q32 27 32 77h-18v75h39v-59q-1 -50 -12.5 -72t-40.5 -43z" />
    <glyph glyph-name="Tbar" unicode="&#x166;" horiz-adv-x="558" 
d="M12 682h534v-21h-256v-314h180v-22h-180v-325h-22v325h-180v22h180v314h-256v21z" />
    <glyph glyph-name="tbar" unicode="&#x167;" horiz-adv-x="274" 
d="M-6 247v18h108v166h-108v18h108v113l20 15v-128h130v-18h-130v-166h130v-18h-130v-126q0 -65 15.5 -88t54.5 -23q32 0 75 20v-20q-37 -19 -75 -19q-49 0 -69.5 27t-20.5 103v126h-108z" />
    <glyph glyph-name="Utilde" unicode="&#x168;" horiz-adv-x="684" 
d="M72 682h22v-390q0 -118 64.5 -199t181.5 -81q120 0 185 80.5t65 199.5v390h22v-391q0 -128 -70.5 -214t-195.5 -86q-133 0 -203.5 85t-70.5 218v388zM266 850q27 0 54 -19t51.5 -37.5t45.5 -18.5q55 0 57 75h20q0 -95 -76 -95q-34 0 -78 37.5t-73 37.5q-55 0 -57 -75h-20
q0 47 20.5 71t55.5 24z" />
    <glyph glyph-name="utilde" unicode="&#x169;" horiz-adv-x="478" 
d="M63 449h20v-271q0 -76 34 -122t104 -46q104 0 169 111v328h20v-449h-20v90q-28 -44 -74 -71.5t-95 -27.5q-81 0 -119.5 49t-38.5 131v278zM163 643q27 0 54 -18.5t51.5 -37.5t45.5 -19q56 0 57 75h20q0 -95 -76 -95q-34 0 -78 37.5t-73 37.5q-56 0 -57 -75h-20
q0 47 20.5 71t55.5 24z" />
    <glyph glyph-name="Umacron" unicode="&#x16a;" horiz-adv-x="684" 
d="M72 682h22v-390q0 -118 64.5 -199t181.5 -81q120 0 185 80.5t65 199.5v390h22v-391q0 -128 -70.5 -214t-195.5 -86q-133 0 -203.5 85t-70.5 218v388zM208 794v20h267v-20h-267z" />
    <glyph glyph-name="umacron" unicode="&#x16b;" horiz-adv-x="478" 
d="M63 449h20v-271q0 -76 34 -122t104 -46q104 0 169 111v328h20v-449h-20v90q-28 -44 -74 -71.5t-95 -27.5q-81 0 -119.5 49t-38.5 131v278zM126 607h227v-20h-227v20z" />
    <glyph glyph-name="Ubreve" unicode="&#x16c;" horiz-adv-x="684" 
d="M72 682h22v-390q0 -118 64.5 -199t181.5 -81q120 0 185 80.5t65 199.5v390h22v-391q0 -128 -70.5 -214t-195.5 -86q-133 0 -203.5 85t-70.5 218v388zM210 854h21q29 -94 111 -94t111 94h21q-29 -114 -132 -114q-50 0 -85.5 30.5t-46.5 83.5z" />
    <glyph glyph-name="ubreve" unicode="&#x16d;" horiz-adv-x="478" 
d="M63 449h20v-271q0 -76 34 -122t104 -46q104 0 169 111v328h20v-449h-20v90q-28 -44 -74 -71.5t-95 -27.5q-81 0 -119.5 49t-38.5 131v278zM107 647h21q29 -94 111 -94t111 94h21q-29 -114 -132 -114q-50 0 -85.5 30.5t-46.5 83.5z" />
    <glyph glyph-name="Uring" unicode="&#x16e;" horiz-adv-x="684" 
d="M72 682h22v-390q0 -118 64.5 -199t181.5 -81q120 0 185 80.5t65 199.5v390h22v-391q0 -128 -70.5 -214t-195.5 -86q-133 0 -203.5 85t-70.5 218v388zM258 797q0 34 24.5 59t59.5 25t59.5 -25t24.5 -59q0 -35 -24.5 -59.5t-59.5 -24.5t-59.5 24.5t-24.5 59.5zM342 731
q27 0 46.5 19.5t19.5 46.5t-19.5 46.5t-46.5 19.5t-46.5 -19.5t-19.5 -46.5t19.5 -46.5t46.5 -19.5z" />
    <glyph glyph-name="uring" unicode="&#x16f;" horiz-adv-x="478" 
d="M63 449h20v-271q0 -76 34 -122t104 -46q104 0 169 111v328h20v-449h-20v90q-28 -44 -74 -71.5t-95 -27.5q-81 0 -119.5 49t-38.5 131v278zM323 590q0 -35 -24.5 -59.5t-59.5 -24.5t-59.5 24.5t-24.5 59.5q0 34 24.5 59t59.5 25t59.5 -25t24.5 -59zM239 524
q27 0 46.5 19.5t19.5 46.5t-19.5 46.5t-46.5 19.5t-46.5 -19.5t-19.5 -46.5t19.5 -46.5t46.5 -19.5z" />
    <glyph glyph-name="Uhungarumlaut" unicode="&#x170;" horiz-adv-x="684" 
d="M72 682h22v-390q0 -118 64.5 -199t181.5 -81q120 0 185 80.5t65 199.5v390h22v-391q0 -128 -70.5 -214t-195.5 -86q-133 0 -203.5 85t-70.5 218v388zM244 728l122 156h24l-126 -156h-20zM382 728l122 156h24l-126 -156h-20z" />
    <glyph glyph-name="uhungarumlaut" unicode="&#x171;" horiz-adv-x="478" 
d="M63 449h20v-271q0 -76 34 -122t104 -46q104 0 169 111v328h20v-449h-20v90q-28 -44 -74 -71.5t-95 -27.5q-81 0 -119.5 49t-38.5 131v278zM259 677h24l-126 -156h-20zM397 677h24l-126 -156h-20z" />
    <glyph glyph-name="Uogonek" unicode="&#x172;" horiz-adv-x="684" 
d="M72 682h22v-390q0 -118 64.5 -199t181.5 -81q120 0 185 80.5t65 199.5v390h22v-391q0 -127 -70 -213t-193 -87q-32 -30 -32 -87q0 -25 16.5 -40t47.5 -15q20 0 41 4v-18q-16 -5 -41 -5q-41 0 -62.5 20t-21.5 54q0 55 33 88q-126 5 -192 89t-66 213v388z" />
    <glyph glyph-name="uogonek" unicode="&#x173;" horiz-adv-x="478" 
d="M390 0v90q-28 -44 -74 -71.5t-95 -27.5q-81 0 -119.5 49t-38.5 131v278h20v-271q0 -76 34 -122t104 -46q104 0 169 111v328h20v-449h-1q-44 -29 -44 -96q0 -25 16.5 -40t47.5 -15q20 0 41 4v-18q-16 -5 -41 -5q-41 0 -62.5 20t-21.5 54q0 33 14 60t31 36z" />
    <glyph glyph-name="Wcircumflex" unicode="&#x174;" horiz-adv-x="1024" 
d="M273 -7l-269 689h24l246 -632l234 632h7l244 -626l235 626h26l-259 -689h-4l-245 637l-236 -637h-3zM380 728l122 156h24l122 -156h-20l-114 141l-114 -141h-20z" />
    <glyph glyph-name="wcircumflex" unicode="&#x175;" horiz-adv-x="717" 
d="M193 -9l-191 458h22l173 -415l157 415h9l157 -415l173 415h22l-191 -458h-8l-158 416l-157 -416h-8zM347 677h24l122 -156h-20l-114 141l-114 -141h-20z" />
    <glyph glyph-name="Ycircumflex" unicode="&#x176;" horiz-adv-x="553" 
d="M4 682h26l247 -292l247 292h25l-261 -310v-372h-22v372zM143 728l122 156h24l122 -156h-20l-114 141l-114 -141h-20z" />
    <glyph glyph-name="ycircumflex" unicode="&#x177;" horiz-adv-x="409" 
d="M5 449h22l179 -348l177 348h21l-345 -679h-21l158 311zM192 677h24l122 -156h-20l-114 141l-114 -141h-20z" />
    <glyph glyph-name="Ydieresis" unicode="&#x178;" horiz-adv-x="553" 
d="M4 682h26l247 -292l247 292h25l-261 -310v-372h-22v372zM200 828h26v-84h-26v84zM335 828h26v-84h-26v84z" />
    <glyph glyph-name="Zacute" unicode="&#x179;" horiz-adv-x="598" 
d="M5 0v9l538 652h-526v21h559v-14l-534 -647h550v-21h-587zM241 728l122 156h24l-126 -156h-20z" />
    <glyph glyph-name="zacute" unicode="&#x17a;" horiz-adv-x="383" 
d="M24 449h339v-8l-318 -423h328v-18h-358v9l316 422h-307v18zM271 677h24l-126 -156h-20z" />
    <glyph glyph-name="Zdotaccent" unicode="&#x17b;" horiz-adv-x="598" 
d="M5 0v9l538 652h-526v21h559v-14l-534 -647h550v-21h-587zM280 828h28v-84h-28v84z" />
    <glyph glyph-name="zdotaccent" unicode="&#x17c;" horiz-adv-x="383" 
d="M24 449h339v-8l-318 -423h328v-18h-358v9l316 422h-307v18zM177 620h28v-84h-28v84z" />
    <glyph glyph-name="Zcaron" unicode="&#x17d;" horiz-adv-x="598" 
d="M5 0v9l538 652h-526v21h559v-14l-534 -647h550v-21h-587zM289 728l-122 156h20l114 -141l114 141h20l-122 -156h-24z" />
    <glyph glyph-name="zcaron" unicode="&#x17e;" horiz-adv-x="383" 
d="M24 449h339v-8l-318 -423h328v-18h-358v9l316 422h-307v18zM57 677h20l114 -141l114 141h20l-122 -156h-24z" />
    <glyph glyph-name="longs" unicode="&#x17f;" horiz-adv-x="216" 
d="M217 691q31 0 59 -13v-21q-30 15 -58 15q-104 0 -104 -149v-523h-20v431h-73v18h73v73q0 82 31.5 125.5t91.5 43.5z" />
    <glyph glyph-name="Schwa" unicode="&#x18f;" horiz-adv-x="695" 
d="M42 302h577q2 22 2 35q0 146 -76.5 239t-207.5 93q-151 0 -274 -87v28q70 44 132.5 62.5t138.5 18.5q98 0 170 -49t106.5 -126.5t34.5 -170.5q0 -158 -86 -256t-217 -98q-134 0 -212.5 89t-87.5 222zM339 14q116 0 188.5 73.5t89.5 192.5h-551q15 -123 86 -194.5
t187 -71.5z" />
    <glyph glyph-name="florin" unicode="&#x192;" 
d="M488 674l-6 -18q-30 13 -67 13q-54 0 -84 -37.5t-53 -141.5l-14 -62h127l-4 -18h-127l-95 -449q-20 -93 -62 -132t-117 -39q-37 0 -77 14l6 18q36 -13 74 -13q65 0 101.5 34t54.5 119l95 448h-113l4 18h113l14 62q24 106 57.5 152t99.5 46q43 0 73 -14z" />
    <glyph glyph-name="Ohorn" unicode="&#x1a0;" horiz-adv-x="787" 
d="M391 691q146 0 243 -92q59 0 84.5 28t25.5 109h20q0 -84 -28 -118t-85 -38q86 -97 86 -233q0 -156 -98.5 -256t-246.5 -100q-149 0 -245.5 101t-96.5 242q0 158 99 257.5t242 99.5zM397 669q-141 0 -232 -93t-91 -235q0 -138 90.5 -233t224.5 -95q144 0 234 95.5
t90 230.5q0 143 -89 236.5t-227 93.5z" />
    <glyph glyph-name="ohorn" unicode="&#x1a1;" horiz-adv-x="546" 
d="M261 458q117 0 181 -97q56 1 80 29t24 108h20q0 -84 -28 -118t-85 -38q29 -55 29 -118q0 -100 -62.5 -166.5t-158.5 -66.5t-158.5 65.5t-62.5 163.5q0 104 62 171t159 67zM260 440q-84 0 -141.5 -60.5t-57.5 -155.5q0 -93 56.5 -154t143.5 -61q88 0 144 61.5t56 153.5
q0 91 -55.5 153.5t-145.5 62.5z" />
    <glyph glyph-name="Uhorn" unicode="&#x1af;" horiz-adv-x="714" 
d="M72 682h22v-390q0 -118 64.5 -199t181.5 -81q120 0 185 80.5t65 199.5v390h22v-83q61 0 86.5 27.5t25.5 109.5h20q0 -91 -32 -123.5t-100 -32.5v-289q0 -128 -70.5 -214t-195.5 -86q-133 0 -203.5 85t-70.5 218v388z" />
    <glyph glyph-name="uhorn" unicode="&#x1b0;" horiz-adv-x="522" 
d="M63 449h20v-271q0 -76 34 -122t104 -46q104 0 169 111v328h20v-88q61 0 86.5 27.5t25.5 109.5h20q0 -91 -32 -123.5t-100 -32.5v-342h-20v90q-28 -44 -74 -71.5t-95 -27.5q-81 0 -119.5 49t-38.5 131v278z" />
    <glyph glyph-name="Aringacute" unicode="&#x1fa;" horiz-adv-x="629" 
d="M231 754q0 34 24.5 59t59.5 25t59.5 -25t24.5 -59q0 -31 -19.5 -54.5t-49.5 -28.5l294 -671h-25l-106 243h-358l-105 -243h-25l294 671q-30 6 -49 29t-19 54zM314 652l-170 -389h340zM249 754q0 -27 19.5 -46.5t46.5 -19.5t46.5 19.5t19.5 46.5t-19.5 46.5t-46.5 19.5
t-46.5 -19.5t-19.5 -46.5zM390 950h24l-98 -97h-20z" />
    <glyph glyph-name="aringacute" unicode="&#x1fb;" horiz-adv-x="410" 
d="M200 458q66 0 95 -32.5t29 -100.5v-299q0 -15 7 -15q14 0 67 43v-20q-52 -43 -73 -43q-12 0 -16.5 7.5t-4.5 28.5v37q-74 -73 -151 -73q-57 0 -90 30.5t-33 80.5q0 71 72 114.5t202 48.5v59q0 60 -23.5 87.5t-82.5 27.5q-72 0 -143 -57v23q67 53 145 53zM51 102
q0 -42 27.5 -67t74.5 -25q75 0 151 76v161q-112 -2 -182.5 -40.5t-70.5 -104.5zM276 570q0 -35 -24.5 -59.5t-59.5 -24.5t-59.5 24.5t-24.5 59.5q0 34 24.5 59t59.5 25t59.5 -25t24.5 -59zM192 504q27 0 46.5 19.5t19.5 46.5t-19.5 46.5t-46.5 19.5t-46.5 -19.5t-19.5 -46.5
t19.5 -46.5t46.5 -19.5zM277 837h24l-126 -156h-20z" />
    <glyph glyph-name="AEacute" unicode="&#x1fc;" horiz-adv-x="810" 
d="M12 0l419 682h341v-21h-319v-306h311v-22h-311v-312h327v-21h-349v333h-191l-204 -333h-24zM254 355h177v288zM512 728l122 156h24l-126 -156h-20z" />
    <glyph glyph-name="aeacute" unicode="&#x1fd;" horiz-adv-x="676" 
d="M62 386v22q75 50 144 50q115 0 121 -121q14 56 56 88.5t94 32.5q154 0 165 -207h-314q0 -129 35 -185t120 -56q84 0 156 58v-22q-71 -55 -156 -55q-109 0 -153 90q-47 -48 -89.5 -69t-91.5 -21q-53 0 -86 30.5t-33 80.5q0 64 58.5 101.5t219.5 64.5v57q0 61 -24 88
t-80 27q-65 0 -142 -54zM308 247q-141 -25 -197.5 -53.5t-56.5 -91.5q0 -42 26.5 -66t72.5 -24q84 0 169 88q-14 47 -14 134v13zM330 269h290q-16 171 -144 171q-60 0 -99 -44.5t-47 -126.5zM407 677h24l-126 -156h-20z" />
    <glyph glyph-name="Oslashacute" unicode="&#x1fe;" horiz-adv-x="787" 
d="M71 6l78 84q-99 99 -99 251q0 148 98 249t242 101q145 0 239 -88l82 88l18 -17l-83 -88q91 -102 91 -245q0 -147 -98 -248.5t-241 -101.5q-138 0 -232 82l-77 -82zM165 107q103 111 260.5 279l187.5 200q-88 83 -220 83q-138 0 -228.5 -94t-90.5 -234q0 -138 91 -234z
M630 569l-448 -478q91 -78 212 -78q135 0 227 94.5t92 229.5t-83 232zM349 728l122 156h24l-126 -156h-20z" />
    <glyph glyph-name="oslashacute" unicode="&#x1ff;" horiz-adv-x="529" 
d="M43 -13l61 71q-61 64 -61 166q0 101 63 167.5t158 66.5q80 0 143 -52l52 60l15 -13l-53 -60q64 -69 64 -169t-62.5 -166.5t-158.5 -66.5q-86 0 -145 53l-61 -70zM464 224q0 92 -56 153l-277 -319q55 -49 133 -49q87 0 143.5 61t56.5 154zM263 440q-86 0 -142.5 -62
t-56.5 -154q0 -90 53 -151l277 318q-51 49 -131 49zM343 677h24l-126 -156h-20z" />
    <glyph glyph-name="Scommaaccent" unicode="&#x218;" horiz-adv-x="419" 
d="M222 691q78 0 140 -34v-26q-69 39 -139 39q-72 0 -117.5 -40.5t-45.5 -104.5q0 -55 30 -93.5t123 -72.5q98 -36 135.5 -79t37.5 -114q0 -79 -51.5 -127t-135.5 -48q-90 0 -161 52v26q81 -57 162 -57q73 0 117.5 41.5t44.5 112.5q0 63 -33 99.5t-124 71.5
q-93 36 -131 77.5t-38 110.5q0 72 52.5 119t133.5 47zM171 -249v22q32 27 32 77h-18v75h39v-59q-1 -50 -12.5 -72t-40.5 -43z" />
    <glyph glyph-name="scommaaccent" unicode="&#x219;" horiz-adv-x="329" 
d="M40 344q0 52 35.5 83t96.5 31q53 0 106 -31v-22q-55 35 -109 35q-52 0 -80 -25t-28 -70q0 -38 25 -62.5t92 -49.5q66 -25 91 -52.5t25 -71.5q0 -52 -37.5 -85t-95.5 -33q-67 0 -123 35v22q62 -38 123 -38q50 0 81 27t31 72q0 39 -25.5 63t-91.5 48q-65 24 -90.5 51.5
t-25.5 72.5zM124 -249v22q32 27 32 77h-18v75h39v-59q-1 -50 -12.5 -72t-40.5 -43z" />
    <glyph glyph-name="Tcommaaccent" unicode="&#x21a;" horiz-adv-x="558" 
d="M12 682h534v-21h-256v-661h-22v661h-256v21zM247 -249v22q32 27 32 77h-18v75h39v-59q-1 -50 -12.5 -72t-40.5 -43z" />
    <glyph glyph-name="tcommaaccent" unicode="&#x21b;" horiz-adv-x="274" 
d="M-6 431v18h108v113l20 15v-128h130v-18h-130v-310q0 -62 14.5 -86.5t55.5 -24.5q32 0 75 20v-20q-37 -19 -75 -19q-52 0 -71 29.5t-19 100.5v310h-108zM145 -249v22q32 27 32 77h-18v75h39v-59q-1 -50 -12.5 -72t-40.5 -43z" />
    <glyph glyph-name="dotlessj" unicode="&#x237;" horiz-adv-x="160" 
d="M72 449h20v-502q0 -167 -114 -177l-4 17q52 6 75 46t23 115v501z" />
    <glyph glyph-name="schwa" unicode="&#x259;" horiz-adv-x="451" 
d="M39 384v22q73 52 158 52q96 0 155 -65t59 -167q0 -103 -53.5 -169t-138.5 -66q-82 0 -130 53t-55 154h355q0 1 0.5 3.5t0.5 7v10.5q0 101 -53.5 160.5t-139.5 59.5q-87 0 -158 -55zM387 180h-331q23 -171 164 -171q64 0 110.5 46.5t56.5 124.5z" />
    <glyph glyph-name="uni02BC" unicode="&#x2bc;" horiz-adv-x="170" 
d="M47 490v17q37 31 37 100h-18v75h39v-59q-1 -91 -58 -133z" />
    <glyph glyph-name="circumflex" unicode="&#x2c6;" horiz-adv-x="326" 
d="M151 677h24l122 -156h-20l-114 141l-114 -141h-20z" />
    <glyph glyph-name="caron" unicode="&#x2c7;" horiz-adv-x="326" 
d="M29 677h20l114 -141l114 141h20l-122 -156h-24z" />
    <glyph glyph-name="uni02C9" unicode="&#x2c9;" horiz-adv-x="333" 
d="M53 607h227v-20h-227v20z" />
    <glyph glyph-name="breve" unicode="&#x2d8;" horiz-adv-x="324" 
d="M30 647h21q29 -94 111 -94t111 94h21q-29 -114 -132 -114q-50 0 -85.5 30.5t-46.5 83.5z" />
    <glyph glyph-name="dotaccent" unicode="&#x2d9;" horiz-adv-x="265" 
d="M118 620h28v-84h-28v84z" />
    <glyph glyph-name="ring" unicode="&#x2da;" horiz-adv-x="328" 
d="M248 590q0 -35 -24.5 -59.5t-59.5 -24.5t-59.5 24.5t-24.5 59.5q0 34 24.5 59t59.5 25t59.5 -25t24.5 -59zM164 524q27 0 46.5 19.5t19.5 46.5t-19.5 46.5t-46.5 19.5t-46.5 -19.5t-19.5 -46.5t19.5 -46.5t46.5 -19.5z" />
    <glyph glyph-name="ogonek" unicode="&#x2db;" horiz-adv-x="333" 
d="M142 0h19q-44 -29 -44 -92q0 -59 64 -59q20 0 41 4v-18q-16 -5 -41 -5q-41 0 -62.5 20.5t-21.5 57.5q0 30 14 56.5t31 35.5z" />
    <glyph glyph-name="tilde" unicode="&#x2dc;" horiz-adv-x="330" 
d="M89 643q27 0 54 -18.5t51.5 -37.5t45.5 -19q56 0 57 75h20q0 -95 -76 -95q-34 0 -78 37.5t-73 37.5q-56 0 -57 -75h-20q0 47 20.5 71t55.5 24z" />
    <glyph glyph-name="hungarumlaut" unicode="&#x2dd;" horiz-adv-x="299" 
d="M189 677h24l-126 -156h-20zM327 677h24l-126 -156h-20z" />
    <glyph glyph-name="gravecomb" unicode="&#x300;" horiz-adv-x="0" 
d="M-339 677h24l122 -156h-20z" />
    <glyph glyph-name="acutecomb" unicode="&#x301;" horiz-adv-x="0" 
d="M-195 677h24l-126 -156h-20z" />
    <glyph glyph-name="tildecomb" unicode="&#x303;" horiz-adv-x="0" 
d="M-321 643q27 0 54 -18.5t51.5 -37.5t45.5 -19q56 0 57 75h20q0 -95 -76 -95q-34 0 -78 37.5t-73 37.5q-56 0 -57 -75h-20q0 47 20.5 71t55.5 24z" />
    <glyph glyph-name="hookabovecomb" unicode="&#x309;" horiz-adv-x="0" 
d="M-268 506v36h19q27 0 42 12.5t15 35.5q0 49 -71 49q-26 0 -44 -4v18q20 5 44 5q92 0 92 -68q0 -30 -22 -48t-55 -19v-17h-20z" />
    <glyph glyph-name="dotbelowcomb" unicode="&#x323;" horiz-adv-x="0" 
d="M-282 -90h28v-84h-28v84z" />
    <glyph glyph-name="uni0374" unicode="&#x374;" horiz-adv-x="173" 
d="M30 508l59 174h32l-71 -174h-20z" />
    <glyph glyph-name="uni0375" unicode="&#x375;" horiz-adv-x="173" 
d="M52 -99l71 174h20l-59 -174h-32z" />
    <glyph glyph-name="uni037E" unicode="&#x37e;" horiz-adv-x="135" 
d="M29 -117v17q37 31 37 100h-18v75h39v-59q-1 -91 -58 -133zM48 449h36v-75h-36v75z" />
    <glyph glyph-name="tonos" unicode="&#x384;" horiz-adv-x="333" 
d="M151 537l32 145h30l-44 -145h-18z" />
    <glyph glyph-name="dieresistonos" unicode="&#x385;" horiz-adv-x="333" 
d="M144 536l32 146h30l-44 -146h-18zM228 620h30v-84h-30v84zM75 620h30v-84h-30v84z" />
    <glyph glyph-name="Alphatonos" unicode="&#x386;" horiz-adv-x="629" 
d="M306 687h17l301 -687h-25l-106 243h-358l-105 -243h-25zM314 652l-170 -389h340zM31 517l32 165h30l-44 -165h-18z" />
    <glyph glyph-name="anoteleia" unicode="&#x387;" horiz-adv-x="132" 
d="M48 449h36v-75h-36v75z" />
    <glyph glyph-name="Epsilontonos" unicode="&#x388;" horiz-adv-x="511" 
d="M132 682h341v-21h-319v-306h311v-22h-311v-312h327v-21h-349v682zM0 517l32 165h30l-44 -165h-18z" />
    <glyph glyph-name="Etatonos" unicode="&#x389;" horiz-adv-x="741" 
d="M131 682h22v-325h486v325h22v-682h-22v335h-486v-335h-22v682zM0 517l32 165h30l-44 -165h-18z" />
    <glyph glyph-name="Iotatonos" unicode="&#x38a;" horiz-adv-x="232" 
d="M130 682h22v-682h-22v682zM0 517l32 165h30l-44 -165h-18z" />
    <glyph glyph-name="Omicrontonos" unicode="&#x38c;" horiz-adv-x="801" 
d="M405 691q106 0 186.5 -49.5t120 -126.5t39.5 -168q0 -156 -98.5 -256t-246.5 -100q-149 0 -245.5 101t-96.5 242q0 158 99 257.5t242 99.5zM411 669q-141 0 -232 -93t-91 -235q0 -138 90.5 -233t224.5 -95q144 0 234 95.5t90 230.5q0 143 -89 236.5t-227 93.5zM0 517
l32 165h30l-44 -165h-18z" />
    <glyph glyph-name="Upsilontonos" unicode="&#x38e;" horiz-adv-x="654" 
d="M105 682h26l247 -292l247 292h25l-261 -310v-372h-22v372zM0 517l32 165h30l-44 -165h-18z" />
    <glyph glyph-name="Omegatonos" unicode="&#x38f;" horiz-adv-x="744" 
d="M88 0v21h217q-218 157 -218 358q0 138 85 225t221 87q134 0 220 -85.5t86 -220.5q0 -209 -218 -364h217v-21h-245v23q222 156 222 355q0 136 -79.5 213.5t-202.5 77.5q-119 0 -200.5 -76.5t-81.5 -208.5q0 -206 222 -361v-23h-245zM0 517l32 165h30l-44 -165h-18z" />
    <glyph glyph-name="iotadieresistonos" unicode="&#x390;" horiz-adv-x="180" 
d="M68 49v400h20v-402q0 -36 17 -36q22 0 57 28v-20q-29 -26 -59 -26q-19 0 -27 12t-8 44zM65 536l32 146h30l-44 -146h-18zM149 620h30v-84h-30v84zM-4 620h30v-84h-30v84z" />
    <glyph glyph-name="Alpha" unicode="&#x391;" horiz-adv-x="629" 
d="M306 687h17l301 -687h-25l-106 243h-358l-105 -243h-25zM314 652l-170 -389h340z" />
    <glyph glyph-name="Beta" unicode="&#x392;" horiz-adv-x="506" 
d="M80 682h129q87 0 149 -40.5t62 -127.5q0 -64 -34.5 -107t-97.5 -56q88 -5 138 -51.5t50 -124.5t-55.5 -126.5t-155.5 -48.5h-185v682zM102 661v-303h91q203 0 203 151q0 152 -200 152h-94zM102 21h159q82 0 136.5 37.5t54.5 116.5q0 161 -216 161h-134v-315z" />
    <glyph glyph-name="Gamma" unicode="&#x393;" horiz-adv-x="447" 
d="M80 0v682h355v-22h-333v-660h-22z" />
    <glyph glyph-name="uni0394" unicode="&#x394;" horiz-adv-x="662" 
d="M654 0h-646l318 687h10zM41 21h582l-292 630l-73 -158q-121 -266 -217 -472z" />
    <glyph glyph-name="Epsilon" unicode="&#x395;" horiz-adv-x="459" 
d="M80 682h341v-21h-319v-306h311v-22h-311v-312h327v-21h-349v682z" />
    <glyph glyph-name="Zeta" unicode="&#x396;" horiz-adv-x="598" 
d="M5 0v9l538 652h-526v21h559v-14l-534 -647h550v-21h-587z" />
    <glyph glyph-name="Eta" unicode="&#x397;" horiz-adv-x="690" 
d="M80 682h22v-325h486v325h22v-682h-22v335h-486v-335h-22v682z" />
    <glyph glyph-name="Theta" unicode="&#x398;" horiz-adv-x="787" 
d="M391 691q106 0 186.5 -49.5t120 -126.5t39.5 -168q0 -156 -98.5 -256t-246.5 -100q-149 0 -245.5 101t-96.5 242q0 158 99 257.5t242 99.5zM397 669q-141 0 -232 -93t-91 -235q0 -138 90.5 -233t224.5 -95q144 0 234 95.5t90 230.5q0 143 -89 236.5t-227 93.5zM181 333
v22h425v-22h-425z" />
    <glyph glyph-name="Iota" unicode="&#x399;" horiz-adv-x="182" 
d="M80 682h22v-682h-22v682z" />
    <glyph glyph-name="Kappa" unicode="&#x39a;" horiz-adv-x="478" 
d="M80 682h22v-340l326 340h29l-325 -339l354 -343h-31l-353 342v-342h-22v682z" />
    <glyph glyph-name="Lambda" unicode="&#x39b;" horiz-adv-x="582" 
d="M292 697l285 -697h-24l-263 643l-262 -643h-23l284 697h3z" />
    <glyph glyph-name="Mu" unicode="&#x39c;" horiz-adv-x="755" 
d="M80 0v682h24l273 -344l274 344h24v-682h-22v647h-4l-270 -342h-4l-269 342h-4v-647h-22z" />
    <glyph glyph-name="Nu" unicode="&#x39d;" horiz-adv-x="744" 
d="M80 682h21l541 -646v646h22v-682h-21l-541 646v-646h-22v682z" />
    <glyph glyph-name="Xi" unicode="&#x39e;" horiz-adv-x="539" 
d="M30 0v21h479v-21h-479zM93 334v21h345v-21h-345zM30 661v21h471v-21h-471z" />
    <glyph glyph-name="Omicron" unicode="&#x39f;" horiz-adv-x="787" 
d="M391 691q106 0 186.5 -49.5t120 -126.5t39.5 -168q0 -156 -98.5 -256t-246.5 -100q-149 0 -245.5 101t-96.5 242q0 158 99 257.5t242 99.5zM397 669q-141 0 -232 -93t-91 -235q0 -138 90.5 -233t224.5 -95q144 0 234 95.5t90 230.5q0 143 -89 236.5t-227 93.5z" />
    <glyph glyph-name="Pi" unicode="&#x3a0;" horiz-adv-x="675" 
d="M80 0v682h515v-682h-22v660h-471v-660h-22z" />
    <glyph glyph-name="Rho" unicode="&#x3a1;" horiz-adv-x="487" 
d="M80 682h163q100 0 157 -45t57 -130q0 -84 -57 -130t-163 -46h-135v-331h-22v682zM102 661v-309h139q90 0 141 38.5t51 116.5t-51 116t-141 38h-139z" />
    <glyph glyph-name="Sigma" unicode="&#x3a3;" horiz-adv-x="592" 
d="M17 0l308 343l-302 339h511v-21h-462l284 -318l-290 -322h496v-21h-545z" />
    <glyph glyph-name="Tau" unicode="&#x3a4;" horiz-adv-x="558" 
d="M12 682h534v-21h-256v-661h-22v661h-256v21z" />
    <glyph glyph-name="Upsilon" unicode="&#x3a5;" horiz-adv-x="553" 
d="M4 682h26l247 -292l247 292h25l-261 -310v-372h-22v372z" />
    <glyph glyph-name="Phi" unicode="&#x3a6;" horiz-adv-x="754" 
d="M366 -10v84q-155 0 -235.5 75t-80.5 195q0 123 81.5 197t234.5 74v77h22v-77q153 0 234.5 -74t81.5 -197q0 -120 -80.5 -195t-235.5 -75v-84h-22zM366 95v499q-145 0 -218.5 -69t-73.5 -181q0 -114 75.5 -181.5t216.5 -67.5zM388 594v-499q141 0 216.5 67.5t75.5 181.5
q0 112 -73.5 181t-218.5 69z" />
    <glyph glyph-name="Chi" unicode="&#x3a7;" horiz-adv-x="654" 
d="M20 682h27l281 -318l282 318h28l-297 -333l310 -349h-27l-296 334l-297 -334h-28l311 350z" />
    <glyph glyph-name="Psi" unicode="&#x3a8;" horiz-adv-x="758" 
d="M368 682h22v-457q92 0 160 45t100 116t32 157v139h24v-139q0 -66 -19.5 -125.5t-57 -108t-99.5 -77t-140 -28.5v-204h-22v204q-78 0 -140 28.5t-99.5 77t-57 108.5t-19.5 126v137l24 1v-140q0 -86 32 -156.5t100 -115.5t160 -45v457z" />
    <glyph glyph-name="uni03A9" unicode="&#x3a9;" horiz-adv-x="702" 
d="M46 0v21h217q-218 157 -218 358q0 138 85 225t221 87q134 0 220 -85.5t86 -220.5q0 -209 -218 -364h217v-21h-245v23q222 156 222 355q0 136 -79.5 213.5t-202.5 77.5q-119 0 -200.5 -76.5t-81.5 -208.5q0 -206 222 -361v-23h-245z" />
    <glyph glyph-name="Iotadieresis" unicode="&#x3aa;" horiz-adv-x="182" 
d="M80 682h22v-682h-22v682zM11 828h26v-84h-26v84zM146 828h26v-84h-26v84z" />
    <glyph glyph-name="Upsilondieresis" unicode="&#x3ab;" horiz-adv-x="553" 
d="M4 682h26l247 -292l247 292h25l-261 -310v-372h-22v372zM200 828h26v-84h-26v84zM335 828h26v-84h-26v84z" />
    <glyph glyph-name="alphatonos" unicode="&#x3ac;" horiz-adv-x="514" 
d="M402 44q-80 -53 -141 -53q-16 0 -42 4q-80 14 -129.5 78t-49.5 155q0 103 59 166.5t152 63.5q79 0 151 -48v39h20v-411q0 -27 17 -27q22 0 57 28v-20q-29 -26 -59 -26q-18 0 -26 9.5t-9 41.5zM402 63v324q-73 53 -152 53q-85 0 -137 -59t-52 -153q0 -95 56.5 -156.5
t143.5 -61.5q36 0 66.5 12.5t74.5 40.5zM224 537l32 145h30l-44 -145h-18z" />
    <glyph glyph-name="epsilontonos" unicode="&#x3ad;" horiz-adv-x="346" 
d="M206 458q55 0 112 -19v-21q-56 21 -112 21q-129 0 -129 -92q0 -100 136 -100h4v-18q-156 0 -156 -113q0 -50 42.5 -78t102.5 -28t120 21v-21q-62 -19 -120 -19q-80 0 -123 35.5t-43 89.5q0 50 30.5 84t82.5 38q-97 16 -97 109q0 111 150 111zM184 537l32 145h30l-44 -145
h-18z" />
    <glyph glyph-name="etatonos" unicode="&#x3ae;" horiz-adv-x="478" 
d="M257 458q81 0 119.5 -49t38.5 -131v-508h-20v501q0 76 -34 122t-104 46q-104 0 -169 -111v-328h-20v449h20v-90q28 44 74 71.5t95 27.5zM227 537l32 145h30l-44 -145h-18z" />
    <glyph glyph-name="iotatonos" unicode="&#x3af;" horiz-adv-x="180" 
d="M68 49v400h20v-402q0 -36 17 -36q22 0 57 28v-20q-29 -26 -59 -26q-19 0 -27 12t-8 44zM62 537l32 145h30l-44 -145h-18z" />
    <glyph glyph-name="upsilondieresistonos" unicode="&#x3b0;" horiz-adv-x="461" 
d="M63 168v281h20v-272q0 -80 38 -123.5t109 -43.5t109.5 43.5t38.5 123.5v272h20v-281q0 -77 -41 -127t-128 -50q-85 0 -125.5 50t-40.5 127zM208 536l32 146h30l-44 -146h-18zM292 620h30v-84h-30v84zM139 620h30v-84h-30v84z" />
    <glyph glyph-name="alpha" unicode="&#x3b1;" horiz-adv-x="514" 
d="M402 44q-80 -53 -141 -53q-16 0 -42 4q-80 14 -129.5 78t-49.5 155q0 103 59 166.5t152 63.5q79 0 151 -48v39h20v-411q0 -27 17 -27q22 0 57 28v-20q-29 -26 -59 -26q-18 0 -26 9.5t-9 41.5zM402 63v324q-73 53 -152 53q-85 0 -137 -59t-52 -153q0 -95 56.5 -156.5
t143.5 -61.5q36 0 66.5 12.5t74.5 40.5z" />
    <glyph glyph-name="beta" unicode="&#x3b2;" 
d="M68 -230v723q0 90 47.5 144t134.5 54q76 0 123.5 -44t47.5 -116q0 -39 -13 -68q-27 -63 -105 -88q74 -14 112.5 -62t38.5 -122q0 -90 -53 -145t-140 -55q-62 0 -107 28.5t-66 79.5v-329h-20zM88 489v-299q0 -31 8 -60q16 -56 59.5 -88t105.5 -32q79 0 126 49.5t47 130.5
q0 80 -43 124.5t-123 48.5v20q62 9 97.5 48.5t35.5 99.5q0 66 -40 103.5t-111 37.5q-84 0 -123 -50t-39 -133z" />
    <glyph glyph-name="gamma" unicode="&#x3b3;" horiz-adv-x="395" 
d="M-20 414l-8 17q21 27 42 27q77 0 186 -424q56 191 171 415h22q-114 -219 -185 -447q9 -60 9 -130q0 -102 -18 -102q-16 0 -16 105q0 69 6 126q-38 153 -75.5 257t-61 143t-39.5 39q-15 0 -33 -26z" />
    <glyph glyph-name="delta" unicode="&#x3b4;" horiz-adv-x="522" 
d="M40 220q0 104 62 171t159 67q34 0 73 -13q-38 22 -90 47l-78 37.5t-45.5 32.5t-19.5 43q0 86 135 86q82 0 186 -44l-8 -19q-104 43 -177 43q-115 0 -115 -64q0 -23 23 -40t92 -49q131 -61 188 -127t57 -167q0 -100 -62.5 -166.5t-158.5 -66.5t-158.5 65.5t-62.5 163.5z
M61 224q0 -93 56.5 -154t143.5 -61q88 0 144 61.5t56 153.5q0 91 -55.5 153.5t-145.5 62.5q-84 0 -141.5 -60.5t-57.5 -155.5z" />
    <glyph glyph-name="epsilon" unicode="&#x3b5;" horiz-adv-x="346" 
d="M206 458q55 0 112 -19v-21q-56 21 -112 21q-129 0 -129 -92q0 -100 136 -100h4v-18q-156 0 -156 -113q0 -50 42.5 -78t102.5 -28t120 21v-21q-62 -19 -120 -19q-80 0 -123 35.5t-43 89.5q0 50 30.5 84t82.5 38q-97 16 -97 109q0 111 150 111z" />
    <glyph glyph-name="zeta" unicode="&#x3b6;" horiz-adv-x="397" 
d="M151 685l9 17q47 -32 126 -34q43 20 74 20q23 0 23 -7q0 -12 -31 -21t-63 -9q-88 -54 -153 -181q-71 -135 -71 -274q0 -93 43 -135t129 -42q71 0 108 -33t37 -81q0 -64 -42 -99.5t-110 -35.5q-48 0 -94 20l7 18q42 -19 87 -19q60 0 95.5 30t35.5 86q0 41 -32.5 68
t-91.5 27q-97 0 -145 48t-48 148q0 134 67.5 266t149.5 190q-64 6 -110 33z" />
    <glyph glyph-name="eta" unicode="&#x3b7;" horiz-adv-x="478" 
d="M257 458q81 0 119.5 -49t38.5 -131v-508h-20v501q0 76 -34 122t-104 46q-104 0 -169 -111v-328h-20v449h20v-90q28 44 74 71.5t95 27.5z" />
    <glyph glyph-name="theta" unicode="&#x3b8;" horiz-adv-x="460" 
d="M230 -9q-91 0 -140.5 94t-49.5 256q0 161 49.5 255.5t140.5 94.5t140.5 -94.5t49.5 -255.5t-49.5 -255.5t-140.5 -94.5zM399 333h-338q1 -151 45.5 -237t123.5 -86q78 0 122.5 86t46.5 237zM61 351h338q-2 149 -46 235t-124 86q-78 0 -122 -84.5t-46 -236.5z" />
    <glyph glyph-name="iota" unicode="&#x3b9;" horiz-adv-x="180" 
d="M68 49v400h20v-402q0 -36 17 -36q22 0 57 28v-20q-29 -26 -59 -26q-19 0 -27 12t-8 44z" />
    <glyph glyph-name="kappa" unicode="&#x3ba;" horiz-adv-x="417" 
d="M354 458q23 0 37 -9v-20q-15 11 -38 11q-33 0 -63 -31l-170 -173l285 -236h-34l-280 235l187 190q32 33 76 33zM68 0v449h20v-449h-20z" />
    <glyph glyph-name="lambda" unicode="&#x3bb;" horiz-adv-x="441" 
d="M82 672l7 19q26 -5 42.5 -23.5t39.5 -74.5l199 -491q20 -49 33.5 -65t42.5 -27l-6 -19q-32 7 -51 29t-39 71l-129 320l-195 -411h-24l209 436l-63 158q-16 41 -29.5 57t-36.5 21z" />
    <glyph glyph-name="uni03BC" unicode="&#x3bc;" horiz-adv-x="483" 
d="M68 -230v679h20v-272q0 -79 35 -123t103 -44q104 0 169 111v328h20v-449h-20v90q-26 -44 -73.5 -71.5t-96.5 -27.5q-99 0 -137 79v-300h-20z" />
    <glyph glyph-name="nu" unicode="&#x3bd;" horiz-adv-x="425" 
d="M183 -14l-181 463h22l168 -434q3 5 47 73t63 101t41.5 89t22.5 95q0 57 -49 71l15 15q26 -8 40.5 -32t14.5 -56q0 -24 -6.5 -51.5t-21 -59t-27 -56.5t-35.5 -61.5t-35 -55t-37.5 -55.5t-31.5 -46h-10z" />
    <glyph glyph-name="xi" unicode="&#x3be;" horiz-adv-x="397" 
d="M151 695v1l9 16q31 -22 102 -29q30 8 64 8q59 0 59 -13q0 -15 -78 -15q-30 0 -44 2q-86 -27 -86 -127q0 -47 43.5 -83t110.5 -36v-19q-119 0 -192.5 -55.5t-73.5 -148.5q0 -90 41.5 -133.5t130.5 -43.5q145 0 145 -114q0 -64 -42 -99.5t-110 -35.5q-48 0 -94 20l7 18
q42 -19 87 -19q60 0 95.5 30t35.5 86q0 95 -126 95q-95 0 -143 45.5t-48 150.5q0 84 59.5 142t158.5 73q-45 14 -75.5 50.5t-30.5 75.5q0 94 73 132q-54 10 -78 26z" />
    <glyph glyph-name="omicron" unicode="&#x3bf;" horiz-adv-x="522" 
d="M260 440q-84 0 -141.5 -60.5t-57.5 -155.5q0 -93 56.5 -154t143.5 -61q88 0 144 61.5t56 153.5q0 91 -55.5 153.5t-145.5 62.5zM261 458q96 0 158.5 -67.5t62.5 -166.5q0 -100 -62.5 -166.5t-158.5 -66.5t-158.5 65.5t-62.5 163.5q0 104 62 171t159 67z" />
    <glyph glyph-name="pi" unicode="&#x3c0;" horiz-adv-x="572" 
d="M119 0v431q-69 0 -109 -20v19q35 19 119 19h433v-18h-104v-431h-20v431h-299v-431h-20z" />
    <glyph glyph-name="rho" unicode="&#x3c1;" horiz-adv-x="518" 
d="M63 -230v450q0 104 58 171t149 67t149.5 -67.5t58.5 -166.5q0 -100 -58.5 -166.5t-149.5 -66.5q-63 0 -112.5 36t-74.5 96v-353h-20zM270 9q82 0 134.5 61.5t52.5 153.5q0 91 -52 153.5t-136 62.5q-79 0 -132.5 -60.5t-53.5 -155.5q0 -93 53 -154t134 -61z" />
    <glyph glyph-name="sigma1" unicode="&#x3c2;" horiz-adv-x="434" 
d="M132 -210l7 18q42 -19 87 -19q59 0 95 28.5t36 78.5q0 47 -32 75.5t-92 28.5q-193 0 -193 216q0 109 62 175.5t160 66.5q100 0 160 -60l-13 -16q-57 57 -147 57q-89 0 -145 -61t-56 -162q0 -197 172 -197q72 0 108.5 -34.5t36.5 -88.5q0 -58 -42.5 -92t-109.5 -34
q-48 0 -94 20z" />
    <glyph glyph-name="sigma" unicode="&#x3c3;" horiz-adv-x="535" 
d="M525 449v-18h-179q64 -23 100 -78t36 -129q0 -100 -62.5 -166.5t-158.5 -66.5t-158.5 65.5t-62.5 163.5q0 103 61.5 166t159.5 63h264zM260 431q-85 0 -142 -56.5t-57 -150.5q0 -93 56.5 -154t143.5 -61q88 0 144 61.5t56 153.5q0 90 -55 148.5t-146 58.5z" />
    <glyph glyph-name="tau" unicode="&#x3c4;" horiz-adv-x="397" 
d="M129 449h258v-18h-178v-431h-21v431h-57q-69 0 -121 -26v18q52 26 119 26z" />
    <glyph glyph-name="upsilon" unicode="&#x3c5;" horiz-adv-x="461" 
d="M63 168v281h20v-272q0 -80 38 -123.5t109 -43.5t109.5 43.5t38.5 123.5v272h20v-281q0 -77 -41 -127t-128 -50q-85 0 -125.5 50t-40.5 127z" />
    <glyph glyph-name="phi" unicode="&#x3c6;" horiz-adv-x="538" 
d="M259 -230v230q-100 3 -159.5 63.5t-59.5 156.5q0 102 59 164t160 65v233h20v-233q100 -4 159.5 -66t59.5 -159q0 -98 -59.5 -159.5t-159.5 -64.5v-230h-20zM259 18v413q-88 -3 -143 -59t-55 -148q0 -91 53.5 -147t144.5 -59zM279 431v-413q91 3 144.5 59.5t53.5 146.5
q0 88 -52.5 145.5t-145.5 61.5z" />
    <glyph glyph-name="chi" unicode="&#x3c7;" horiz-adv-x="363" 
d="M-10 -220l170 343l-99 248q-14 37 -26.5 49.5t-35.5 18.5l7 19q26 -5 42.5 -23.5t39.5 -74.5l87 -215l154 304h22l-166 -329l97 -239q18 -46 32.5 -63.5t43.5 -28.5l-6 -19q-32 7 -51 29t-39 71l-92 228l-158 -318h-22z" />
    <glyph glyph-name="psi" unicode="&#x3c8;" horiz-adv-x="494" 
d="M237 -230v221q-89 3 -131.5 52t-42.5 125v281h20v-272q0 -78 39.5 -121.5t114.5 -45.5v672h20v-672q74 2 114 45.5t40 121.5v272h20v-281q0 -75 -42.5 -124t-131.5 -53v-221h-20z" />
    <glyph glyph-name="omega" unicode="&#x3c9;" horiz-adv-x="704" 
d="M342 177v162h20v-162q0 -80 35 -123.5t100 -43.5q135 0 135 183q0 124 -90 256h20q90 -123 90 -256q0 -202 -154 -202q-123 0 -146 121q-25 -121 -146 -121q-154 0 -154 202q0 133 90 256h20q-90 -132 -90 -256q0 -183 135 -183q65 0 100 43.5t35 123.5z" />
    <glyph glyph-name="iotadieresis" unicode="&#x3ca;" horiz-adv-x="180" 
d="M68 49v400h20v-402q0 -36 17 -36q22 0 57 28v-20q-29 -26 -59 -26q-19 0 -27 12t-8 44zM-1 620h26v-84h-26v84zM134 620h26v-84h-26v84z" />
    <glyph glyph-name="upsilondieresis" unicode="&#x3cb;" horiz-adv-x="461" 
d="M63 168v281h20v-272q0 -80 38 -123.5t109 -43.5t109.5 43.5t38.5 123.5v272h20v-281q0 -77 -41 -127t-128 -50q-85 0 -125.5 50t-40.5 127zM150 620h26v-84h-26v84zM285 620h26v-84h-26v84z" />
    <glyph glyph-name="omicrontonos" unicode="&#x3cc;" horiz-adv-x="522" 
d="M260 440q-84 0 -141.5 -60.5t-57.5 -155.5q0 -93 56.5 -154t143.5 -61q88 0 144 61.5t56 153.5q0 91 -55.5 153.5t-145.5 62.5zM261 458q96 0 158.5 -67.5t62.5 -166.5q0 -100 -62.5 -166.5t-158.5 -66.5t-158.5 65.5t-62.5 163.5q0 104 62 171t159 67zM240 537l32 145
h30l-44 -145h-18z" />
    <glyph glyph-name="upsilontonos" unicode="&#x3cd;" horiz-adv-x="461" 
d="M63 168v281h20v-272q0 -80 38 -123.5t109 -43.5t109.5 43.5t38.5 123.5v272h20v-281q0 -77 -41 -127t-128 -50q-85 0 -125.5 50t-40.5 127zM209 537l32 145h30l-44 -145h-18z" />
    <glyph glyph-name="omegatonos" unicode="&#x3ce;" horiz-adv-x="704" 
d="M342 177v162h20v-162q0 -80 35 -123.5t100 -43.5q135 0 135 183q0 124 -90 256h20q90 -123 90 -256q0 -202 -154 -202q-123 0 -146 121q-25 -121 -146 -121q-154 0 -154 202q0 133 90 256h20q-90 -132 -90 -256q0 -183 135 -183q65 0 100 43.5t35 123.5zM331 537l32 145
h30l-44 -145h-18z" />
    <glyph glyph-name="uni0400" unicode="&#x400;" horiz-adv-x="459" 
d="M80 682h341v-21h-319v-306h311v-22h-311v-312h327v-21h-349v682zM132 884h24l122 -156h-20z" />
    <glyph glyph-name="uni0401" unicode="&#x401;" horiz-adv-x="459" 
d="M80 682h341v-21h-319v-306h311v-22h-311v-312h327v-21h-349v682zM173 828h26v-84h-26v84zM308 828h26v-84h-26v84z" />
    <glyph glyph-name="uni0402" unicode="&#x402;" horiz-adv-x="681" 
d="M268 0v661h-256v21h534v-21h-256v-251q21 20 60.5 34t78.5 14q93 0 149.5 -61.5t56.5 -163.5q0 -110 -56.5 -176t-152.5 -66q-34 0 -60 6v22q20 -6 60 -6q84 0 134.5 58.5t50.5 162.5q0 90 -49.5 146.5t-132.5 56.5q-41 0 -79 -14t-60 -38v-385h-22z" />
    <glyph glyph-name="uni0403" unicode="&#x403;" horiz-adv-x="440" 
d="M80 0v682h355v-22h-333v-660h-22zM214 728l122 156h24l-126 -156h-20z" />
    <glyph glyph-name="uni0404" unicode="&#x404;" horiz-adv-x="643" 
d="M74 357h462v-22h-462q1 -143 90 -232.5t225 -89.5q119 0 220 57v-29q-105 -50 -216 -50q-151 0 -247 98t-96 246q0 157 94.5 256.5t248.5 99.5q111 0 216 -50v-29q-101 57 -220 57q-135 0 -222.5 -87.5t-92.5 -224.5z" />
    <glyph glyph-name="uni0405" unicode="&#x405;" horiz-adv-x="419" 
d="M222 691q78 0 140 -34v-26q-69 39 -139 39q-72 0 -117.5 -40.5t-45.5 -104.5q0 -55 30 -93.5t123 -72.5q98 -36 135.5 -79t37.5 -114q0 -79 -51.5 -127t-135.5 -48q-90 0 -161 52v26q81 -57 162 -57q73 0 117.5 41.5t44.5 112.5q0 63 -33 99.5t-124 71.5
q-93 36 -131 77.5t-38 110.5q0 72 52.5 119t133.5 47z" />
    <glyph glyph-name="uni0406" unicode="&#x406;" horiz-adv-x="182" 
d="M80 682h22v-682h-22v682z" />
    <glyph glyph-name="uni0407" unicode="&#x407;" horiz-adv-x="182" 
d="M80 682h22v-682h-22v682zM11 828h26v-84h-26v84zM146 828h26v-84h-26v84z" />
    <glyph glyph-name="uni0408" unicode="&#x408;" horiz-adv-x="182" 
d="M-55 -197l-2 21q6 0 14 -1t13 -1q57 0 83.5 38.5t26.5 122.5v699h22v-703q0 -178 -132 -178q-7 0 -25 2z" />
    <glyph glyph-name="uni0409" unicode="&#x409;" horiz-adv-x="847" 
d="M5 0l284 697h3l139 -340h172q100 0 157 -46.5t57 -131.5q0 -84 -55.5 -131.5t-156.5 -47.5h-52l-262 641h-2l-261 -641h-23zM439 336l129 -315h33q90 0 141 40t51 118t-51 117.5t-141 39.5h-162z" />
    <glyph glyph-name="uni040A" unicode="&#x40a;" horiz-adv-x="975" 
d="M80 682h22v-325h447v325h22v-325h160q100 0 157 -46.5t57 -131.5q0 -84 -57 -131.5t-163 -47.5h-176v336h-447v-336h-22v682zM571 21h158q90 0 141 40t51 118t-51 117.5t-141 39.5h-158v-315z" />
    <glyph glyph-name="uni040B" unicode="&#x40b;" horiz-adv-x="725" 
d="M12 682h534v-21h-256v-238q68 35 164 35q95 0 153 -57.5t58 -146.5v-254h-22v257q0 80 -52.5 130t-135.5 50q-99 0 -165 -37v-400h-22v661h-256v21z" />
    <glyph glyph-name="uni040C" unicode="&#x40c;" horiz-adv-x="510" 
d="M76 682h22v-340l47 48l139 146l93 98l47 48h29l-46 -48l-140 -146l-139 -145l221 -214l133 -129h-31l-151 147l-202 195v-342h-22v682zM210 728l122 156h24l-126 -156h-20z" />
    <glyph glyph-name="uni040D" unicode="&#x40d;" horiz-adv-x="744" 
d="M80 0v682h22v-647l541 647h21v-682h-22v647l-541 -647h-21zM253 884h24l122 -156h-20z" />
    <glyph glyph-name="uni040E" unicode="&#x40e;" horiz-adv-x="589" 
d="M305 52l-300 630h26l285 -602l245 602h23l-249 -611q-42 -106 -62 -133q-34 -46 -99 -46q-18 0 -35 6l-2 21q19 -6 37 -6q50 0 74 29t57 110zM177 854h21q29 -94 111 -94t111 94h21q-29 -114 -132 -114q-50 0 -85.5 30.5t-46.5 83.5z" />
    <glyph glyph-name="uni040F" unicode="&#x40f;" horiz-adv-x="675" 
d="M80 0v682h22v-660h471v660h22v-682h-246v-140h-22v140h-247z" />
    <glyph glyph-name="uni0410" unicode="&#x410;" horiz-adv-x="629" 
d="M306 687h17l301 -687h-25l-106 243h-358l-105 -243h-25zM314 652l-170 -389h340z" />
    <glyph glyph-name="uni0411" unicode="&#x411;" horiz-adv-x="508" 
d="M80 682h355v-21h-333v-304h160q100 0 157 -46.5t57 -131.5q0 -84 -57 -131.5t-163 -47.5h-176v682zM102 21h158q90 0 141 40t51 118t-51 117.5t-141 39.5h-158v-315z" />
    <glyph glyph-name="uni0412" unicode="&#x412;" horiz-adv-x="506" 
d="M80 682h129q87 0 149 -40.5t62 -127.5q0 -64 -34.5 -107t-97.5 -56q88 -5 138 -51.5t50 -124.5t-55.5 -126.5t-155.5 -48.5h-185v682zM102 661v-303h91q203 0 203 151q0 152 -200 152h-94zM102 21h159q82 0 136.5 37.5t54.5 116.5q0 161 -216 161h-134v-315z" />
    <glyph glyph-name="uni0413" unicode="&#x413;" horiz-adv-x="440" 
d="M80 0v682h355v-22h-333v-660h-22z" />
    <glyph glyph-name="uni0414" unicode="&#x414;" horiz-adv-x="714" 
d="M20 -140v162h60l275 675h3l276 -675h60v-162h-22v140h-630v-140h-22zM103 22h507l-254 621z" />
    <glyph glyph-name="uni0415" unicode="&#x415;" horiz-adv-x="459" 
d="M80 682h341v-21h-319v-306h311v-22h-311v-312h327v-21h-349v682z" />
    <glyph glyph-name="uni0416" unicode="&#x416;" horiz-adv-x="796" 
d="M387 0v338h-24q-54 0 -95.5 -26.5t-87.5 -101.5l-129 -210h-31l154 247q25 39 61.5 68t72.5 34q-59 23 -105 125l-27 57q-43 90 -60 109.5t-59 19.5h-22v22h24q50 0 72.5 -24t68.5 -124l23 -49q32 -69 61.5 -97t68.5 -28h34v322h22v-322h34q41 0 70.5 29t59.5 94l26 56
q4 8 13.5 28.5t12 26.5t10.5 21t11 19t10 14.5t12 13t13 8.5t16 7.5t18 3t22 1.5h24v-22h-26q-40 0 -56 -19.5t-59 -110.5l-26 -56q-48 -103 -106 -125q73 -5 134 -102l154 -247h-31l-129 210q-48 77 -85.5 102.5t-95.5 25.5h-26v-338h-22z" />
    <glyph glyph-name="uni0417" unicode="&#x417;" horiz-adv-x="489" 
d="M34 41v27q93 -55 209 -55q77 0 129.5 41.5t52.5 120.5q0 82 -54 121.5t-169 39.5h-64v22h60q103 0 154 42t51 109q0 80 -48.5 120.5t-138.5 40.5q-94 0 -172 -55v27q82 49 172 49q105 0 158 -47.5t53 -129.5q0 -64 -39.5 -108.5t-107.5 -58.5q69 -4 119 -48t50 -124
t-54.5 -132t-151.5 -52q-109 0 -209 50z" />
    <glyph glyph-name="uni0418" unicode="&#x418;" horiz-adv-x="744" 
d="M80 0v682h22v-647l541 647h21v-682h-22v647l-541 -647h-21z" />
    <glyph glyph-name="uni0419" unicode="&#x419;" horiz-adv-x="744" 
d="M80 0v682h22v-647l541 647h21v-682h-22v647l-541 -647h-21zM242 854h21q29 -94 111 -94t111 94h21q-29 -114 -132 -114q-50 0 -85.5 30.5t-46.5 83.5z" />
    <glyph glyph-name="uni041A" unicode="&#x41a;" horiz-adv-x="510" 
d="M76 0v682h22v-322h59q37 0 66.5 26t63.5 97l47 102q27 59 49.5 78t67.5 19h24v-22h-26q-35 0 -52 -14.5t-42 -68.5l-47 -103q-46 -102 -106 -125q77 -10 143 -117l145 -232h-31l-129 210q-46 74 -85 101t-98 27h-49v-338h-22z" />
    <glyph glyph-name="uni041B" unicode="&#x41b;" horiz-adv-x="582" 
d="M5 0l284 697h3l285 -697h-24l-262 641h-2l-261 -641h-23z" />
    <glyph glyph-name="uni041C" unicode="&#x41c;" horiz-adv-x="755" 
d="M80 0v682h24l273 -344l274 344h24v-682h-22v647h-4l-270 -342h-4l-269 342h-4v-647h-22z" />
    <glyph glyph-name="uni041D" unicode="&#x41d;" horiz-adv-x="690" 
d="M80 682h22v-325h486v325h22v-682h-22v335h-486v-335h-22v682z" />
    <glyph glyph-name="uni041E" unicode="&#x41e;" horiz-adv-x="787" 
d="M391 691q106 0 186.5 -49.5t120 -126.5t39.5 -168q0 -156 -98.5 -256t-246.5 -100q-149 0 -245.5 101t-96.5 242q0 158 99 257.5t242 99.5zM397 669q-141 0 -232 -93t-91 -235q0 -138 90.5 -233t224.5 -95q144 0 234 95.5t90 230.5q0 143 -89 236.5t-227 93.5z" />
    <glyph glyph-name="uni041F" unicode="&#x41f;" horiz-adv-x="680" 
d="M80 0v682h520v-682h-22v660h-476v-660h-22z" />
    <glyph glyph-name="uni0420" unicode="&#x420;" horiz-adv-x="487" 
d="M80 682h163q100 0 157 -45t57 -130q0 -84 -57 -130t-163 -46h-135v-331h-22v682zM102 661v-309h139q90 0 141 38.5t51 116.5t-51 116t-141 38h-139z" />
    <glyph glyph-name="uni0421" unicode="&#x421;" horiz-adv-x="643" 
d="M393 691q111 0 216 -50v-29q-101 57 -220 57q-139 0 -227 -92.5t-88 -235.5q0 -145 88.5 -236.5t226.5 -91.5q119 0 220 57v-29q-105 -50 -216 -50q-151 0 -247 98t-96 246q0 157 94.5 256.5t248.5 99.5z" />
    <glyph glyph-name="uni0422" unicode="&#x422;" horiz-adv-x="558" 
d="M12 682h534v-21h-256v-661h-22v661h-256v21z" />
    <glyph glyph-name="uni0423" unicode="&#x423;" horiz-adv-x="589" 
d="M139 -102l-2 21q19 -6 37 -6q50 0 74 29t57 110l-300 630h26l285 -602l245 602h23l-249 -611q-42 -106 -62 -133q-34 -46 -99 -46q-18 0 -35 6z" />
    <glyph glyph-name="uni0424" unicode="&#x424;" horiz-adv-x="754" 
d="M366 -10v84q-155 0 -235.5 75t-80.5 195q0 123 81.5 197t234.5 74v77h22v-77q153 0 234.5 -74t81.5 -197q0 -120 -80.5 -195t-235.5 -75v-84h-22zM388 594v-499q141 0 216.5 67.5t75.5 181.5q0 112 -73.5 181t-218.5 69zM366 95v499q-145 0 -218.5 -69t-73.5 -181
q0 -114 75.5 -181.5t216.5 -67.5z" />
    <glyph glyph-name="uni0425" unicode="&#x425;" horiz-adv-x="654" 
d="M20 682h27l281 -318l282 318h28l-297 -333l310 -349h-27l-296 334l-297 -334h-28l311 350z" />
    <glyph glyph-name="uni0426" unicode="&#x426;" horiz-adv-x="717" 
d="M80 0v682h22v-660h476v660h22v-660h97v-162h-22v140h-595z" />
    <glyph glyph-name="uni0427" unicode="&#x427;" horiz-adv-x="573" 
d="M471 0v293q-102 -29 -185 -29q-116 0 -177 58.5t-61 157.5v202h22v-202q0 -92 55.5 -143t160.5 -51q85 0 185 28v368h22v-682h-22z" />
    <glyph glyph-name="uni0428" unicode="&#x428;" horiz-adv-x="898" 
d="M80 0v682h22v-660h336v660h22v-660h336v660h22v-682h-738z" />
    <glyph glyph-name="uni0429" unicode="&#x429;" horiz-adv-x="935" 
d="M80 0v682h22v-660h336v660h22v-660h336v660h22v-660h97v-162h-22v140h-813z" />
    <glyph glyph-name="uni042A" unicode="&#x42a;" horiz-adv-x="587" 
d="M181 0v661h-169v21h191v-325h140q100 0 157 -46.5t57 -131.5q0 -84 -57 -131.5t-163 -47.5h-156zM203 21h138q90 0 141 40t51 118t-51 117.5t-141 39.5h-138v-315z" />
    <glyph glyph-name="uni042B" unicode="&#x42b;" horiz-adv-x="677" 
d="M78 682h22v-325h160q100 0 157 -46.5t57 -131.5q0 -84 -57 -131.5t-163 -47.5h-176v682zM100 21h158q90 0 141 40t51 118t-51 117.5t-141 39.5h-158v-315zM578 0v682h22v-682h-22z" />
    <glyph glyph-name="uni042C" unicode="&#x42c;" horiz-adv-x="506" 
d="M80 0v682h22v-325h160q100 0 157 -46.5t57 -131.5q0 -84 -57 -131.5t-163 -47.5h-176zM102 21h158q90 0 141 40t51 118t-51 117.5t-141 39.5h-158v-315z" />
    <glyph glyph-name="uni042D" unicode="&#x42d;" horiz-adv-x="643" 
d="M107 357h462q-5 137 -92.5 224.5t-222.5 87.5q-119 0 -220 -57v29q105 50 216 50q154 0 248.5 -99.5t94.5 -256.5q0 -148 -96 -246t-247 -98q-111 0 -216 50v29q101 -57 220 -57q136 0 225 89.5t90 232.5h-462v22z" />
    <glyph glyph-name="uni042E" unicode="&#x42e;" horiz-adv-x="946" 
d="M567 691q151 0 240 -101.5t89 -242.5q0 -156 -93.5 -256t-234.5 -100q-142 0 -233.5 101t-91.5 243h-141v-335h-22v682h22v-325h141q7 149 100 241.5t224 92.5zM573 669q-134 0 -220 -93t-86 -235q0 -138 85.5 -233t212.5 -95q136 0 221.5 95.5t85.5 230.5
q0 143 -84.5 236.5t-214.5 93.5z" />
    <glyph glyph-name="uni042F" unicode="&#x42f;" horiz-adv-x="548" 
d="M312 682h156v-682h-22v315h-109q-60 0 -96 -20t-74 -77l-146 -218h-27l80 119l31.5 49t35 52.5t32.5 42t41.5 39t45.5 21.5q-77 10 -120 58.5t-43 120.5q0 90 55.5 135t159.5 45zM446 337v324h-130q-195 0 -195 -160q0 -79 50.5 -121.5t141.5 -42.5h133z" />
    <glyph glyph-name="uni0430" unicode="&#x430;" horiz-adv-x="410" 
d="M200 458q66 0 95 -32.5t29 -100.5v-299q0 -15 7 -15q14 0 67 43v-20q-52 -43 -73 -43q-12 0 -16.5 7.5t-4.5 28.5v37q-74 -73 -151 -73q-57 0 -90 30.5t-33 80.5q0 71 72 114.5t202 48.5v59q0 60 -23.5 87.5t-82.5 27.5q-72 0 -143 -57v23q67 53 145 53zM51 102
q0 -42 27.5 -67t74.5 -25q75 0 151 76v161q-112 -2 -182.5 -40.5t-70.5 -104.5z" />
    <glyph glyph-name="uni0431" unicode="&#x431;" horiz-adv-x="522" 
d="M40 238q0 202 65 301q76 116 263 140l96 12l-3 -20l-101 -13q-80 -10 -136.5 -39t-89 -75t-48.5 -98t-22 -120q27 61 78 96.5t119 35.5q96 0 158.5 -67.5t62.5 -166.5q0 -100 -62.5 -166.5t-158.5 -66.5q-98 0 -159.5 65t-61.5 182zM61 224q0 -93 56.5 -154t143.5 -61
q88 0 144 61.5t56 153.5q0 91 -55.5 153.5t-145.5 62.5q-84 0 -141.5 -60.5t-57.5 -155.5z" />
    <glyph glyph-name="uni0432" unicode="&#x432;" horiz-adv-x="378" 
d="M68 0v449h93q21 0 31 -1q55 -6 87.5 -33t32.5 -77q0 -85 -87 -106q53 -4 83 -35t30 -81q0 -53 -36 -84.5t-102 -31.5h-132zM88 18h104q53 0 89 24t36 74q0 104 -142 104h-87v-202zM88 238h61q142 0 142 100q0 93 -139 93h-64v-193z" />
    <glyph glyph-name="uni0433" unicode="&#x433;" horiz-adv-x="336" 
d="M68 0v449h264v-18h-243v-431h-21z" />
    <glyph glyph-name="uni0434" unicode="&#x434;" horiz-adv-x="484" 
d="M15 -140v159h48l173 444h10l175 -444h48v-159h-20v140h-414v-140h-20zM84 19h315l-158 407z" />
    <glyph glyph-name="uni0435" unicode="&#x435;" horiz-adv-x="451" 
d="M412 65v-22q-73 -52 -158 -52q-96 0 -155 65t-59 167q0 103 53.5 169t138.5 66q82 0 130 -53t55 -154h-355v-3.5t-0.5 -7t-0.5 -10.5q0 -101 53.5 -160.5t139.5 -59.5q87 0 158 55zM64 269h331q-23 171 -164 171q-64 0 -110.5 -46.5t-56.5 -124.5z" />
    <glyph glyph-name="uni0436" unicode="&#x436;" horiz-adv-x="584" 
d="M282 0v225h-29q-48 0 -74.5 -19.5t-61.5 -77.5l-77 -128h-25l80 133q32 54 53 74t59 29q-14 1 -37 22t-39 59l-22 53q-16 37 -30 49t-38 12h-11v18h12q32 0 50.5 -16t34.5 -53l21 -51q35 -86 103 -86h31v206h20v-206h31q68 0 103 86l21 51q15 38 34 53.5t51 15.5h12v-18
h-11q-25 0 -38 -11t-30 -50l-22 -53q-16 -38 -39 -59t-37 -22q38 -9 59 -29t53 -74l80 -133h-25l-77 128q-35 58 -61.5 77.5t-74.5 19.5h-29v-225h-20z" />
    <glyph glyph-name="uni0437" unicode="&#x437;" horiz-adv-x="350" 
d="M144 439q-56 0 -112 -21v21q57 19 112 19q160 0 160 -111q0 -85 -107 -106q52 -4 82.5 -39t30.5 -86q0 -54 -43 -89.5t-123 -35.5q-58 0 -120 19v21q60 -21 120 -21t102.5 28t42.5 78q0 52 -37.5 82.5t-104.5 30.5h-74v18h48q162 0 162 100q0 92 -139 92z" />
    <glyph glyph-name="uni0438" unicode="&#x438;" horiz-adv-x="524" 
d="M68 0v449h20v-417l349 417h19v-449h-20v417l-348 -417h-20z" />
    <glyph glyph-name="uni0439" unicode="&#x439;" horiz-adv-x="524" 
d="M68 0v449h20v-417l349 417h19v-449h-20v417l-348 -417h-20zM136 647h21q29 -94 111 -94t111 94h21q-29 -114 -132 -114q-50 0 -85.5 30.5t-46.5 83.5z" />
    <glyph glyph-name="uni043A" unicode="&#x43a;" horiz-adv-x="380" 
d="M68 0v449h20v-206h41q68 0 103 86l21 51q9 22 15 33.5t24.5 23.5t45.5 12h12v-18h-11q-25 0 -38 -11t-30 -50l-22 -53q-16 -38 -39 -59t-37 -22q38 -9 59 -29t53 -74l80 -133h-25l-77 128q-35 58 -61.5 77.5t-74.5 19.5h-39v-225h-20z" />
    <glyph glyph-name="uni043B" unicode="&#x43b;" horiz-adv-x="394" 
d="M392 0h-22l-174 426l-172 -426h-22l189 463h10z" />
    <glyph glyph-name="uni043C" unicode="&#x43c;" horiz-adv-x="541" 
d="M68 0v449h21l181 -231l182 231h21v-449h-20v420l-183 -233l-182 231v-418h-20z" />
    <glyph glyph-name="uni043D" unicode="&#x43d;" horiz-adv-x="482" 
d="M68 0v449h20v-208h306v208h20v-449h-20v222h-306v-222h-20z" />
    <glyph glyph-name="uni043E" unicode="&#x43e;" horiz-adv-x="522" 
d="M260 440q-84 0 -141.5 -60.5t-57.5 -155.5q0 -93 56.5 -154t143.5 -61q88 0 144 61.5t56 153.5q0 91 -55.5 153.5t-145.5 62.5zM261 458q96 0 158.5 -67.5t62.5 -166.5q0 -100 -62.5 -166.5t-158.5 -66.5t-158.5 65.5t-62.5 163.5q0 104 62 171t159 67z" />
    <glyph glyph-name="uni043F" unicode="&#x43f;" horiz-adv-x="482" 
d="M68 0v449h346v-449h-20v430h-306v-430h-20z" />
    <glyph glyph-name="uni0440" unicode="&#x440;" horiz-adv-x="507" 
d="M467 226q0 -101 -63.5 -168t-160.5 -67q-83 0 -155 45v-266h-20v679h175q100 0 162 -61t62 -162zM88 430v-375q76 -45 154 -45q92 0 148 59.5t56 156.5q0 95 -56.5 149.5t-147.5 54.5h-154z" />
    <glyph glyph-name="uni0441" unicode="&#x441;" horiz-adv-x="394" 
d="M262 458q55 0 112 -19v-21q-56 21 -112 21q-89 0 -145 -60t-56 -154q0 -95 57 -155t144 -60q56 0 112 21v-21q-57 -19 -112 -19q-95 0 -158.5 64.5t-63.5 167.5q0 105 62 170t160 65z" />
    <glyph glyph-name="uni0442" unicode="&#x442;" horiz-adv-x="385" 
d="M182 0v431h-178v18h377v-18h-178v-431h-21z" />
    <glyph glyph-name="uni0443" unicode="&#x443;" horiz-adv-x="409" 
d="M5 449h22l179 -348l177 348h21l-345 -679h-21l158 311z" />
    <glyph glyph-name="uni0444" unicode="&#x444;" horiz-adv-x="558" 
d="M269 -230v230q-101 3 -165 64.5t-64 155.5q0 101 63 163.5t166 65.5v233h20v-233q101 -4 165 -66.5t64 -158.5q0 -97 -64 -159t-165 -65v-230h-20zM269 18v413q-90 -3 -149 -59t-59 -148q0 -90 58 -146.5t150 -59.5zM289 431v-413q92 3 150 60t58 146q0 87 -57 145
t-151 62z" />
    <glyph glyph-name="uni0445" unicode="&#x445;" horiz-adv-x="456" 
d="M13 449h27l188 -208l191 208h25l-204 -222l206 -227h-27l-192 212l-192 -212h-25l204 226z" />
    <glyph glyph-name="uni0446" unicode="&#x446;" 
d="M68 0v449h20v-431h306v431h20v-431h71v-158h-20v140h-397z" />
    <glyph glyph-name="uni0447" unicode="&#x447;" horiz-adv-x="451" 
d="M36 449h20v-108q0 -76 34 -118.5t104 -42.5q115 0 169 77v192h20v-449h-20v229q-62 -68 -169 -68q-81 0 -119.5 49t-38.5 131v108z" />
    <glyph glyph-name="uni0448" unicode="&#x448;" horiz-adv-x="764" 
d="M68 0v449h20v-431h284v431h20v-431h284v431h20v-449h-628z" />
    <glyph glyph-name="uni0449" unicode="&#x449;" horiz-adv-x="782" 
d="M68 0v449h20v-431h284v431h20v-431h284v431h20v-431h71v-158h-20v140h-679z" />
    <glyph glyph-name="uni044A" unicode="&#x44a;" horiz-adv-x="429" 
d="M128 0v431h-124v18h144v-178h83q84 0 129 -35.5t45 -100.5q0 -66 -45 -100.5t-124 -34.5h-108zM148 17h87q70 0 109.5 29.5t39.5 88.5q0 60 -40 89.5t-109 29.5h-87v-237z" />
    <glyph glyph-name="uni044B" unicode="&#x44b;" horiz-adv-x="537" 
d="M88 449v-178h93q31 0 52 -4q122 -21 122 -132q0 -110 -120 -131q-20 -4 -49 -4h-118v449h20zM88 254v-237h97q70 0 109.5 29.5t39.5 88.5q0 60 -40 89.5t-109 29.5h-97zM449 449h20v-449h-20v449z" />
    <glyph glyph-name="uni044C" unicode="&#x44c;" horiz-adv-x="379" 
d="M88 449v-178h93q31 0 52 -4q122 -21 122 -132q0 -110 -120 -131q-20 -4 -49 -4h-118v449h20zM88 254v-237h97q70 0 109.5 29.5t39.5 88.5q0 60 -40 89.5t-109 29.5h-97z" />
    <glyph glyph-name="uni044D" unicode="&#x44d;" horiz-adv-x="394" 
d="M132 458q98 0 160 -65t62 -170q0 -103 -63.5 -167.5t-158.5 -64.5q-55 0 -112 19v21q56 -21 112 -21q86 0 142.5 57.5t58.5 149.5h-256v18h256q-3 90 -59 147t-142 57q-56 0 -112 -21v21q57 19 112 19z" />
    <glyph glyph-name="uni044E" unicode="&#x44e;" horiz-adv-x="673" 
d="M416 458q95 0 156 -67t61 -167q0 -101 -60.5 -167t-156.5 -66t-156.5 66t-60.5 165h-111v-222h-20v449h20v-208h111q7 97 66 157t151 60zM415 440q-84 0 -139.5 -60.5t-55.5 -155.5q0 -94 55 -154.5t141 -60.5q87 0 141.5 61t54.5 154q0 92 -53.5 154t-143.5 62z" />
    <glyph glyph-name="uni044F" unicode="&#x44f;" horiz-adv-x="409" 
d="M95 327q0 -51 41 -79t109 -28h76v211h-90q-136 0 -136 -104zM228 449h113v-449h-20v202h-75q-41 0 -66.5 -13.5t-52.5 -48.5l-103 -140h-24q9 13 32 47t37.5 54.5t35.5 46t41.5 41t40.5 21.5q-56 9 -84.5 41t-28.5 77q0 121 154 121z" />
    <glyph glyph-name="uni0450" unicode="&#x450;" horiz-adv-x="451" 
d="M412 65v-22q-73 -52 -158 -52q-96 0 -155 65t-59 167q0 103 53.5 169t138.5 66q82 0 130 -53t55 -154h-355v-3.5t-0.5 -7t-0.5 -10.5q0 -101 53.5 -160.5t139.5 -59.5q87 0 158 55zM64 269h331q-23 171 -164 171q-64 0 -110.5 -46.5t-56.5 -124.5zM135 677h24l122 -156
h-20z" />
    <glyph glyph-name="uni0451" unicode="&#x451;" horiz-adv-x="451" 
d="M412 65v-22q-73 -52 -158 -52q-96 0 -155 65t-59 167q0 103 53.5 169t138.5 66q82 0 130 -53t55 -154h-355v-3.5t-0.5 -7t-0.5 -10.5q0 -101 53.5 -160.5t139.5 -59.5q87 0 158 55zM64 269h331q-23 171 -164 171q-64 0 -110.5 -46.5t-56.5 -124.5zM157 620h26v-84h-26v84
zM292 620h26v-84h-26v84z" />
    <glyph glyph-name="uni0452" unicode="&#x452;" horiz-adv-x="478" 
d="M415 280v-301q0 -89 -31.5 -133t-111.5 -44q-26 0 -45 4v18q19 -4 41 -4q73 0 100 38.5t27 121.5v297q0 73 -34 117.5t-104 44.5q-105 0 -169 -111v-328h-20v569h-68v18h68v95h20v-95h176v-18h-176v-210q28 45 73 72t96 27q81 0 119.5 -49.5t38.5 -128.5z" />
    <glyph glyph-name="uni0453" unicode="&#x453;" horiz-adv-x="336" 
d="M68 0v449h264v-18h-243v-431h-21zM275 677h24l-126 -156h-20z" />
    <glyph glyph-name="uni0454" unicode="&#x454;" horiz-adv-x="398" 
d="M266 458q55 0 112 -19v-21q-56 21 -112 21q-86 0 -142 -57t-59 -147h256v-18h-256q2 -92 58.5 -149.5t142.5 -57.5q56 0 112 21v-21q-57 -19 -112 -19q-95 0 -158.5 64.5t-63.5 167.5q0 105 62 170t160 65z" />
    <glyph glyph-name="uni0455" unicode="&#x455;" horiz-adv-x="329" 
d="M40 344q0 52 35.5 83t96.5 31q53 0 106 -31v-22q-55 35 -109 35q-52 0 -80 -25t-28 -70q0 -38 25 -62.5t92 -49.5q66 -25 91 -52.5t25 -71.5q0 -52 -37.5 -85t-95.5 -33q-67 0 -123 35v22q62 -38 123 -38q50 0 81 27t31 72q0 39 -25.5 63t-91.5 48q-65 24 -90.5 51.5
t-25.5 72.5z" />
    <glyph glyph-name="uni0456" unicode="&#x456;" horiz-adv-x="156" 
d="M68 0v449h20v-449h-20zM68 620h20v-84h-20v84z" />
    <glyph glyph-name="uni0457" unicode="&#x457;" horiz-adv-x="156" 
d="M70 449h20v-449h-20v449zM0 620h26v-84h-26v84zM135 620h26v-84h-26v84z" />
    <glyph glyph-name="uni0458" unicode="&#x458;" horiz-adv-x="156" 
d="M-30 -213q52 6 75 46t23 115v501h20v-502q0 -167 -114 -177zM68 620h20v-84h-20v84z" />
    <glyph glyph-name="uni0459" unicode="&#x459;" horiz-adv-x="602" 
d="M370 0l-174 426l-172 -426h-22l189 463h10l79 -192h124q84 0 129 -35.5t45 -100.5q0 -66 -45 -100.5t-124 -34.5h-39zM385 17h23q70 0 109.5 29.5t39.5 88.5q0 60 -40 89.5t-109 29.5h-121z" />
    <glyph glyph-name="uni045A" unicode="&#x45a;" horiz-adv-x="674" 
d="M68 0v449h20v-198h280v198h20v-198h88q84 0 129 -33t45 -93q0 -61 -45 -93t-124 -32h-113v232h-280v-232h-20zM388 17h92q70 0 109.5 27t39.5 81t-40 81.5t-109 27.5h-92v-217z" />
    <glyph glyph-name="uni045B" unicode="&#x45b;" horiz-adv-x="478" 
d="M257 458q81 0 119.5 -49.5t38.5 -128.5v-280h-20v277q0 73 -34 117.5t-104 44.5q-105 0 -169 -111v-328h-20v569h-68v18h68v95h20v-95h176v-18h-176v-210q28 45 73 72t96 27z" />
    <glyph glyph-name="uni045C" unicode="&#x45c;" horiz-adv-x="380" 
d="M68 0v449h20v-206h41q68 0 103 86l21 51q9 22 15 33.5t24.5 23.5t45.5 12h12v-18h-11q-25 0 -38 -11t-30 -50l-22 -53q-16 -38 -39 -59t-37 -22q38 -9 59 -29t53 -74l80 -133h-25l-77 128q-35 58 -61.5 77.5t-74.5 19.5h-39v-225h-20zM272 677h24l-126 -156h-20z" />
    <glyph glyph-name="uni045D" unicode="&#x45d;" horiz-adv-x="524" 
d="M68 0v449h20v-417l349 417h19v-449h-20v417l-348 -417h-20zM152 677h24l122 -156h-20z" />
    <glyph glyph-name="uni045E" unicode="&#x45e;" horiz-adv-x="409" 
d="M5 449h22l179 -348l177 348h21l-345 -679h-21l158 311zM72 647h21q29 -94 111 -94t111 94h21q-29 -114 -132 -114q-50 0 -85.5 30.5t-46.5 83.5z" />
    <glyph glyph-name="uni045F" unicode="&#x45f;" horiz-adv-x="482" 
d="M231 0h-163v449h20v-430h306v430h20v-449h-163v-118h-20v118z" />
    <glyph glyph-name="uni0462" unicode="&#x462;" horiz-adv-x="581" 
d="M155 0v560h-155v22h155v100h22v-100h169v-22h-169v-203h160q100 0 157 -46.5t57 -131.5q0 -84 -57 -131.5t-163 -47.5h-176zM177 21h158q90 0 141 40t51 118t-51 117.5t-141 39.5h-158v-315z" />
    <glyph glyph-name="uni0463" unicode="&#x463;" horiz-adv-x="387" 
d="M106 271h83q31 0 52 -4q122 -21 122 -132q0 -110 -120 -131q-20 -4 -49 -4h-108v469h-101v18h101v195h20v-195h146v-18h-146v-198zM106 17h87q70 0 109.5 29.5t39.5 88.5q0 60 -40 89.5t-109 29.5h-87v-237z" />
    <glyph glyph-name="uni0472" unicode="&#x472;" horiz-adv-x="787" 
d="M50 334q0 158 99 257.5t242 99.5q106 0 186.5 -49.5t120 -126.5t39.5 -168q0 -156 -98.5 -256t-246.5 -100q-149 0 -245.5 101t-96.5 242zM74 357h638q-6 136 -94 224t-221 88q-137 0 -227 -88t-96 -224zM713 335h-639q2 -136 92 -229t223 -93q142 0 232 94t92 228z" />
    <glyph glyph-name="uni0473" unicode="&#x473;" horiz-adv-x="522" 
d="M261 458q96 0 158.5 -67.5t62.5 -166.5q0 -100 -62.5 -166.5t-158.5 -66.5t-158.5 65.5t-62.5 163.5q0 104 62 171t159 67zM261 9q86 0 142 59t58 149h-400q2 -91 58.5 -149.5t141.5 -58.5zM260 440q-82 0 -138.5 -57.5t-60.5 -147.5h400q-4 87 -59 146t-142 59z" />
    <glyph glyph-name="uni0474" unicode="&#x474;" horiz-adv-x="594" 
d="M270 -15l-265 697h24l242 -636h2l210 550q18 50 38 72.5t57 22.5q26 0 48 -9v-21q-18 11 -48 11q-26 0 -42 -19t-33 -63l-230 -605h-3z" />
    <glyph glyph-name="uni0475" unicode="&#x475;" horiz-adv-x="436" 
d="M370 395l-167 -409h-10l-191 463h22l174 -426l155 383q21 52 66 52q23 0 37 -9v-20q-15 11 -38 11q-30 0 -48 -45z" />
    <glyph glyph-name="uni0490" unicode="&#x490;" horiz-adv-x="433" 
d="M80 0v682h313v120h22v-142h-313v-660h-22z" />
    <glyph glyph-name="uni0491" unicode="&#x491;" horiz-adv-x="336" 
d="M68 0v449h224v118h20v-136h-223v-431h-21z" />
    <glyph glyph-name="uni0492" unicode="&#x492;" horiz-adv-x="440" 
d="M80 357v325h345v-22h-323v-303h192v-20h-192v-337h-22v337h-83v20h83z" />
    <glyph glyph-name="uni0493" unicode="&#x493;" horiz-adv-x="336" 
d="M68 0v222h-62v20h62v207h254v-18h-233v-189h134v-20h-134v-222h-21z" />
    <glyph glyph-name="uni0496" unicode="&#x496;" horiz-adv-x="816" 
d="M622 247l140 -225h34v-162h-22v140h-29l-129 210q-48 77 -85.5 102.5t-95.5 25.5h-26v-338h-22v338h-24q-54 0 -95.5 -26.5t-87.5 -101.5l-129 -210h-31l154 247q25 39 61.5 68t72.5 34q-59 23 -105 125l-27 57q-43 90 -60 109.5t-59 19.5h-22v22h24q50 0 72.5 -24
t68.5 -124l23 -49q32 -69 61.5 -97t68.5 -28h34v322h22v-322h34q41 0 70.5 29t59.5 94l26 56q4 8 13.5 28.5t12 26.5t10.5 21t11 19t10 14.5t12 13t13 8.5t16 7.5t18 3t22 1.5h24v-22h-26q-40 0 -56 -19.5t-59 -110.5l-26 -56q-48 -103 -106 -125q73 -5 134 -102z" />
    <glyph glyph-name="uni0497" unicode="&#x497;" horiz-adv-x="599" 
d="M489 133l69 -115h26v-158h-20v140h-20l-77 128q-35 58 -61.5 77.5t-74.5 19.5h-29v-225h-20v225h-29q-48 0 -74.5 -19.5t-61.5 -77.5l-77 -128h-25l80 133q32 54 53 74t59 29q-14 1 -37 22t-39 59l-22 53q-16 37 -30 49t-38 12h-11v18h12q32 0 50.5 -16t34.5 -53l21 -51
q35 -86 103 -86h31v206h20v-206h31q68 0 103 86l21 51q15 38 34 53.5t51 15.5h12v-18h-11q-25 0 -38 -11t-30 -50l-22 -53q-16 -38 -39 -59t-37 -22q38 -9 59 -29t53 -74z" />
    <glyph glyph-name="uni049A" unicode="&#x49a;" horiz-adv-x="534" 
d="M349 232l131 -210h34v-162h-22v140h-29l-129 210q-46 74 -85 101t-98 27h-49v-338h-22v682h22v-322h59q37 0 66.5 26t63.5 97l47 102q27 59 49.5 78t67.5 19h24v-22h-26q-35 0 -52 -14.5t-42 -68.5l-47 -103q-46 -102 -106 -125q77 -10 143 -117z" />
    <glyph glyph-name="uni049B" unicode="&#x49b;" horiz-adv-x="386" 
d="M79 0h-20v449h20v-206h27q83 0 117 86l19 47q11 27 19.5 40t25.5 23t42 10h12v-18h-11q-25 0 -38.5 -11.5t-29.5 -49.5l-22 -53q-16 -38 -39 -59t-37 -22q34 -6 56 -26t56 -77l69 -115h26v-158h-20v140h-20l-77 128q-39 65 -64 81t-84 16h-27v-225z" />
    <glyph glyph-name="uni049C" unicode="&#x49c;" horiz-adv-x="510" 
d="M173 120v218h-75v-338h-22v682h22v-322h75v201h22v-200q21 5 41 31t51 91l47 102q27 59 49.5 78t67.5 19h24v-22h-26q-35 0 -52 -14.5t-42 -68.5l-47 -103q-48 -108 -92 -125q36 -4 63 -29t66 -88l145 -232h-31l-136 221q-42 68 -67.5 90t-60.5 26v-217h-22z" />
    <glyph glyph-name="uni049D" unicode="&#x49d;" horiz-adv-x="380" 
d="M168 72h-20v153h-60v-225h-20v449h20v-206h60v147h20v-144q36 13 64 83l21 51q9 22 15 33.5t24.5 23.5t45.5 12h12v-18h-11q-25 0 -38 -11t-30 -50l-22 -53q-16 -39 -38 -59.5t-35 -21.5q33 -5 54.5 -26.5t54.5 -76.5l80 -133h-25l-77 128q-32 52 -51 72t-44 24v-152z
" />
    <glyph glyph-name="uni04A2" unicode="&#x4a2;" horiz-adv-x="727" 
d="M685 0h-97v335h-486v-335h-22v682h22v-325h486v325h22v-660h97v-162h-22v140z" />
    <glyph glyph-name="uni04A3" unicode="&#x4a3;" 
d="M465 0h-71v222h-306v-222h-20v449h20v-208h306v208h20v-431h71v-158h-20v140z" />
    <glyph glyph-name="uni04AE" unicode="&#x4ae;" horiz-adv-x="553" 
d="M4 682h26l247 -292l247 292h25l-261 -310v-372h-22v372z" />
    <glyph glyph-name="uni04AF" unicode="&#x4af;" horiz-adv-x="394" 
d="M187 -230v268l-185 411h22l173 -386l173 386h22l-185 -411v-268h-20z" />
    <glyph glyph-name="uni04B0" unicode="&#x4b0;" horiz-adv-x="553" 
d="M4 682h26l247 -292l247 292h25l-261 -310v-67h220v-20h-220v-285h-22v285h-220v20h220v67z" />
    <glyph glyph-name="uni04B1" unicode="&#x4b1;" horiz-adv-x="394" 
d="M187 -230v230h-170v20h170v18l-185 411h22l173 -386l173 386h22l-185 -411v-18h170v-20h-170v-230h-20z" />
    <glyph glyph-name="uni04B2" unicode="&#x4b2;" horiz-adv-x="674" 
d="M20 682h27l281 -318l282 318h28l-297 -333l290 -327h23v-162h-22v140h-8l-296 334l-297 -334h-28l311 350z" />
    <glyph glyph-name="uni04B3" unicode="&#x4b3;" horiz-adv-x="471" 
d="M13 449h27l188 -208l191 208h25l-204 -222l189 -209h27v-158h-20v140h-17l-192 212l-192 -212h-25l204 226z" />
    <glyph glyph-name="uni04B6" unicode="&#x4b6;" horiz-adv-x="610" 
d="M471 0v293q-102 -29 -185 -29q-116 0 -177 58.5t-61 157.5v202h22v-202q0 -92 55.5 -143t160.5 -51q85 0 185 28v368h22v-660h97v-162h-22v140h-97z" />
    <glyph glyph-name="uni04B7" unicode="&#x4b7;" horiz-adv-x="469" 
d="M434 0h-71v257q-29 -44 -74.5 -70t-94.5 -26q-81 0 -119.5 49t-38.5 131v108h20v-101q0 -77 34 -122.5t104 -45.5q69 0 119 45.5t50 75.5v148h20v-431h71v-158h-20v140z" />
    <glyph glyph-name="uni04B8" unicode="&#x4b8;" horiz-adv-x="573" 
d="M273 120h-22v184q-99 4 -151 59.5t-52 149.5v169h22v-169q0 -87 46.5 -135t134.5 -52v235h22v-235q102 0 198 28v328h22v-682h-22v333q-100 -29 -198 -29v-184z" />
    <glyph glyph-name="uni04B9" unicode="&#x4b9;" horiz-adv-x="451" 
d="M217 72h-20v119q-84 2 -122.5 50.5t-38.5 129.5v78h20v-78q0 -157 141 -161v180h20v-180q97 5 146 77v162h20v-449h-20v259q-59 -63 -146 -68v-119z" />
    <glyph glyph-name="uni04BA" unicode="&#x4ba;" horiz-adv-x="573" 
d="M102 682v-254q102 29 185 29q116 0 177 -58.5t61 -157.5v-241h-22v241q0 92 -55.5 143t-160.5 51q-85 0 -185 -28v-407h-22v682h22z" />
    <glyph glyph-name="uni04BB" unicode="&#x4bb;" horiz-adv-x="478" 
d="M257 458q81 0 119.5 -49.5t38.5 -128.5v-280h-20v277q0 74 -34 118t-104 44q-105 0 -169 -111v-328h-20v682h20v-323q28 45 73 72t96 27z" />
    <glyph glyph-name="uni04C0" unicode="&#x4c0;" horiz-adv-x="182" 
d="M80 682h22v-682h-22v682z" />
    <glyph glyph-name="uni04CF" unicode="&#x4cf;" horiz-adv-x="156" 
d="M68 682h20v-682h-20v682z" />
    <glyph glyph-name="uni04D8" unicode="&#x4d8;" horiz-adv-x="695" 
d="M42 302h577q2 22 2 35q0 146 -76.5 239t-207.5 93q-151 0 -274 -87v28q70 44 132.5 62.5t138.5 18.5q98 0 170 -49t106.5 -126.5t34.5 -170.5q0 -158 -86 -256t-217 -98q-134 0 -212.5 89t-87.5 222zM339 14q116 0 188.5 73.5t89.5 192.5h-551q15 -123 86 -194.5
t187 -71.5z" />
    <glyph glyph-name="uni04D9" unicode="&#x4d9;" horiz-adv-x="451" 
d="M39 384v22q73 52 158 52q96 0 155 -65t59 -167q0 -103 -53.5 -169t-138.5 -66q-82 0 -130 53t-55 154h355q0 1 0.5 3.5t0.5 7v10.5q0 101 -53.5 160.5t-139.5 59.5q-87 0 -158 -55zM387 180h-331q23 -171 164 -171q64 0 110.5 46.5t56.5 124.5z" />
    <glyph glyph-name="uni04E2" unicode="&#x4e2;" horiz-adv-x="744" 
d="M80 0v682h22v-647l541 647h21v-682h-22v647l-541 -647h-21zM240 794v20h267v-20h-267z" />
    <glyph glyph-name="uni04E3" unicode="&#x4e3;" horiz-adv-x="524" 
d="M68 0v449h20v-417l349 417h19v-449h-20v417l-348 -417h-20zM147 607h227v-20h-227v20z" />
    <glyph glyph-name="uni04E8" unicode="&#x4e8;" horiz-adv-x="787" 
d="M50 334q0 158 99 257.5t242 99.5q106 0 186.5 -49.5t120 -126.5t39.5 -168q0 -156 -98.5 -256t-246.5 -100q-149 0 -245.5 101t-96.5 242zM74 357h638q-6 136 -94 224t-221 88q-137 0 -227 -88t-96 -224zM713 335h-639q2 -136 92 -229t223 -93q142 0 232 94t92 228z" />
    <glyph glyph-name="uni04E9" unicode="&#x4e9;" horiz-adv-x="522" 
d="M261 458q96 0 158.5 -67.5t62.5 -166.5q0 -100 -62.5 -166.5t-158.5 -66.5t-158.5 65.5t-62.5 163.5q0 104 62 171t159 67zM261 9q86 0 142 59t58 149h-400q2 -91 58.5 -149.5t141.5 -58.5zM260 440q-82 0 -138.5 -57.5t-60.5 -147.5h400q-4 87 -59 146t-142 59z" />
    <glyph glyph-name="uni04EE" unicode="&#x4ee;" horiz-adv-x="589" 
d="M139 -102l-2 21q19 -6 37 -6q50 0 74 29t57 110l-300 630h26l285 -602l245 602h23l-249 -611q-42 -106 -62 -133q-34 -46 -99 -46q-18 0 -35 6zM168 794v20h267v-20h-267z" />
    <glyph glyph-name="uni04EF" unicode="&#x4ef;" horiz-adv-x="409" 
d="M5 449h22l179 -348l177 348h21l-345 -679h-21l158 311zM93 607h227v-20h-227v20z" />
    <glyph glyph-name="uni0E3F" unicode="&#xe3f;" 
d="M80 682h133v64h22v-65q73 -4 126 -45t53 -122q0 -64 -34.5 -107t-97.5 -56q88 -5 138 -51.5t50 -124.5q0 -79 -59.5 -126.5t-175.5 -48.5v-78h-22v78h-133v682zM446 175q0 159 -211 161v-315q97 1 154 38t57 116zM390 509q0 71 -41.5 109t-113.5 42v-302q62 4 108.5 43.5
t46.5 107.5zM102 21h111v315h-111v-315zM102 661v-303h111v303h-111z" />
    <glyph glyph-name="Wgrave" unicode="&#x1e80;" horiz-adv-x="1024" 
d="M273 -7l-269 689h24l246 -632l234 632h7l244 -626l235 626h26l-259 -689h-4l-245 637l-236 -637h-3zM411 884h24l122 -156h-20z" />
    <glyph glyph-name="wgrave" unicode="&#x1e81;" horiz-adv-x="717" 
d="M193 -9l-191 458h22l173 -415l157 415h9l157 -415l173 415h22l-191 -458h-8l-158 416l-157 -416h-8zM256 677h24l122 -156h-20z" />
    <glyph glyph-name="Wacute" unicode="&#x1e82;" horiz-adv-x="1024" 
d="M273 -7l-269 689h24l246 -632l234 632h7l244 -626l235 626h26l-259 -689h-4l-245 637l-236 -637h-3zM471 728l122 156h24l-126 -156h-20z" />
    <glyph glyph-name="wacute" unicode="&#x1e83;" horiz-adv-x="717" 
d="M193 -9l-191 458h22l173 -415l157 415h9l157 -415l173 415h22l-191 -458h-8l-158 416l-157 -416h-8zM438 677h24l-126 -156h-20z" />
    <glyph glyph-name="Wdieresis" unicode="&#x1e84;" horiz-adv-x="1024" 
d="M273 -7l-269 689h24l246 -632l234 632h7l244 -626l235 626h26l-259 -689h-4l-245 637l-236 -637h-3zM434 828h26v-84h-26v84zM569 828h26v-84h-26v84z" />
    <glyph glyph-name="wdieresis" unicode="&#x1e85;" horiz-adv-x="717" 
d="M193 -9l-191 458h22l173 -415l157 415h9l157 -415l173 415h22l-191 -458h-8l-158 416l-157 -416h-8zM278 620h26v-84h-26v84zM413 620h26v-84h-26v84z" />
    <glyph glyph-name="uni1E9E" unicode="&#x1e9e;" horiz-adv-x="616" 
d="M353 398l156 159q-32 57 -78 85t-118 28q-110 0 -164.5 -68.5t-54.5 -197.5v-404h-22v407q0 140 63.5 212t177.5 72q82 0 134.5 -32.5t91.5 -103.5l-151 -153q103 -64 144.5 -114.5t41.5 -118.5q0 -81 -55.5 -129.5t-136.5 -48.5q-44 0 -91 17t-78 46v28q27 -30 76.5 -50
t92.5 -20q74 0 121 43.5t47 112.5q0 60 -33 103t-122 100z" />
    <glyph glyph-name="Ygrave" unicode="&#x1ef2;" horiz-adv-x="553" 
d="M4 682h26l247 -292l247 292h25l-261 -310v-372h-22v372zM174 884h24l122 -156h-20z" />
    <glyph glyph-name="ygrave" unicode="&#x1ef3;" horiz-adv-x="409" 
d="M5 449h22l179 -348l177 348h21l-345 -679h-21l158 311zM101 677h24l122 -156h-20z" />
    <glyph glyph-name="uni2010" unicode="&#x2010;" horiz-adv-x="313" 
d="M38 241h237v-18h-237v18z" />
    <glyph glyph-name="endash" unicode="&#x2013;" 
d="M-6 241h512v-18h-512v18z" />
    <glyph glyph-name="emdash" unicode="&#x2014;" horiz-adv-x="1000" 
d="M-6 241h1012v-18h-1012v18z" />
    <glyph glyph-name="uni2015" unicode="&#x2015;" horiz-adv-x="810" 
d="M140 241h530v-18h-530v18z" />
    <glyph glyph-name="underscoredbl" unicode="&#x2017;" 
d="M-6 -98h512v-20h-512v20zM-6 -206h512v-20h-512v20z" />
    <glyph glyph-name="quoteleft" unicode="&#x2018;" horiz-adv-x="170" 
d="M123 682v-17q-37 -31 -37 -100h18v-75h-39v59q1 91 58 133z" />
    <glyph glyph-name="quoteright" unicode="&#x2019;" horiz-adv-x="170" 
d="M47 490v17q37 31 37 100h-18v75h39v-59q-1 -91 -58 -133z" />
    <glyph glyph-name="quotesinglbase" unicode="&#x201a;" horiz-adv-x="170" 
d="M47 -117v17q37 31 37 100h-18v75h39v-59q-1 -91 -58 -133z" />
    <glyph glyph-name="quotereversed" unicode="&#x201b;" horiz-adv-x="170" 
d="M114 507v-17q-57 42 -58 133v59h39v-75h-18q0 -69 37 -100z" />
    <glyph glyph-name="quotedblleft" unicode="&#x201c;" horiz-adv-x="321" 
d="M123 682v-17q-37 -31 -37 -100h18v-75h-39v59q1 91 58 133zM274 682v-17q-37 -31 -37 -100h18v-75h-39v59q1 91 58 133z" />
    <glyph glyph-name="quotedblright" unicode="&#x201d;" horiz-adv-x="321" 
d="M47 490v17q37 31 37 100h-18v75h39v-59q-1 -91 -58 -133zM198 490v17q37 31 37 100h-18v75h39v-59q-1 -91 -58 -133z" />
    <glyph glyph-name="quotedblbase" unicode="&#x201e;" horiz-adv-x="321" 
d="M47 -117v17q37 31 37 100h-18v75h39v-59q-1 -91 -58 -133zM198 -117v17q37 31 37 100h-18v75h39v-59q-1 -91 -58 -133z" />
    <glyph glyph-name="dagger" unicode="&#x2020;" horiz-adv-x="479" 
d="M230 -230v618h-210v20h210v274h20v-274h209v-20h-209v-618h-20z" />
    <glyph glyph-name="daggerdbl" unicode="&#x2021;" horiz-adv-x="479" 
d="M250 418v-373h209v-20h-209v-256h-20v256h-210v20h210v373h-210v20h210v244h20v-244h209v-20h-209z" />
    <glyph glyph-name="bullet" unicode="&#x2022;" horiz-adv-x="412" 
d="M290 341q0 -35 -24.5 -59.5t-59.5 -24.5t-59.5 24.5t-24.5 59.5q0 34 24.5 59t59.5 25t59.5 -25t24.5 -59z" />
    <glyph glyph-name="ellipsis" unicode="&#x2026;" horiz-adv-x="900" 
d="M132 75h36v-75h-36v75zM732 75h36v-75h-36v75zM432 75h36v-75h-36v75z" />
    <glyph glyph-name="perthousand" unicode="&#x2030;" horiz-adv-x="1110" 
d="M201 369q-67 0 -114 47.5t-47 113.5t47 113.5t114 47.5q66 0 113.5 -47t47.5 -114q0 -66 -46.5 -113.5t-114.5 -47.5zM539 -9q-67 0 -114 47.5t-47 113.5t47 113.5t114 47.5q66 0 113.5 -47t47.5 -114q0 -66 -46.5 -113.5t-114.5 -47.5zM909 -9q-67 0 -114 47.5
t-47 113.5t47 113.5t114 47.5q66 0 113.5 -47t47.5 -114q0 -66 -46.5 -113.5t-114.5 -47.5zM539 10q59 0 100 42.5t41 99.5q0 58 -41 100t-101 42q-57 0 -98.5 -41.5t-41.5 -100.5q0 -58 41.5 -100t99.5 -42zM909 10q59 0 100 42.5t41 99.5q0 58 -41 100t-101 42
q-57 0 -98.5 -41.5t-41.5 -100.5q0 -58 41.5 -100t99.5 -42zM201 388q59 0 100 42.5t41 99.5q0 58 -41 100t-101 42q-57 0 -98.5 -41.5t-41.5 -100.5q0 -58 41.5 -100t99.5 -42zM110 0l503 682h25l-503 -682h-25z" />
    <glyph glyph-name="minute" unicode="&#x2032;" horiz-adv-x="219" 
d="M62 428l69 254h23l-74 -254h-18z" />
    <glyph glyph-name="second" unicode="&#x2033;" horiz-adv-x="369" 
d="M62 428l69 254h23l-74 -254h-18zM212 428l69 254h23l-74 -254h-18z" />
    <glyph glyph-name="guilsinglleft" unicode="&#x2039;" horiz-adv-x="245" 
d="M207 455h25l-188 -224l188 -224h-25l-189 224z" />
    <glyph glyph-name="guilsinglright" unicode="&#x203a;" horiz-adv-x="245" 
d="M13 455h25l189 -224l-189 -224h-25l188 224z" />
    <glyph glyph-name="exclamdbl" unicode="&#x203c;" horiz-adv-x="298" 
d="M209 192v490h20v-490h-20zM205 75h28v-75h-28v75zM69 192v490h20v-490h-20zM65 75h28v-75h-28v75z" />
    <glyph glyph-name="interrobang" unicode="&#x203d;" horiz-adv-x="267" 
d="M24 612l16 57q29 22 71 22q51 0 83.5 -34.5t32.5 -100.5q0 -71 -50 -158q-19 -33 -28.5 -51t-19 -48.5t-9.5 -57.5q0 -28 15 -49l-12 -11q-22 30 -22 74v417q-27 -1 -41 -14.5t-26 -45.5h-10zM206 556q0 55 -23.5 84t-61.5 32v-338q8 19 33.5 64.5t38.5 82t13 75.5z
M125 75v-75h-27v75h27z" />
    <glyph glyph-name="uni203E" unicode="&#x203e;" 
d="M-5 769h510v-20h-510v20z" />
    <glyph glyph-name="fraction" unicode="&#x2044;" horiz-adv-x="180" 
d="M331 682h24l-506 -682h-24z" />
    <glyph glyph-name="zero.superior" unicode="&#x2070;" horiz-adv-x="316" 
d="M158 484q-62 0 -95 49t-33 135q0 84 33 134t95 50t95 -50t33 -134q0 -85 -33 -134.5t-95 -49.5zM158 503q50 0 78 43.5t28 121.5q0 77 -27.5 121t-79.5 44q-49 0 -77 -43.5t-28 -121.5t28 -121.5t78 -43.5z" />
    <glyph glyph-name="four.superior" unicode="&#x2074;" horiz-adv-x="316" 
d="M220 852h13v-205h58v-19h-58v-138h-22v138h-187v16zM211 647v164l-155 -164h155z" />
    <glyph glyph-name="five.superior" unicode="&#x2075;" horiz-adv-x="316" 
d="M40 505v20q54 -22 98 -22q43 0 74.5 25.5t31.5 71.5q0 43 -30.5 68.5t-81.5 25.5q-34 0 -57 -7v160h167v-20h-146v-117q13 3 37 3q62 0 98.5 -30.5t36.5 -82.5t-35.5 -84t-94.5 -32q-55 0 -98 21z" />
    <glyph glyph-name="six.superior" unicode="&#x2076;" horiz-adv-x="316" 
d="M161 484q-58 0 -90 34t-32 94q0 127 174 243l13 -18q-131 -87 -158 -177q40 26 93 26t84.5 -27.5t31.5 -73.5q0 -44 -32.5 -72.5t-83.5 -28.5zM61 612q0 -52 27 -80.5t73 -28.5q40 0 66.5 23t26.5 59q0 37 -25.5 59.5t-68.5 22.5q-34 0 -66.5 -14.5t-32.5 -40.5z" />
    <glyph glyph-name="seven.superior" unicode="&#x2077;" horiz-adv-x="316" 
d="M76 491l185 336h-231v20h269l-203 -364z" />
    <glyph glyph-name="eight.superior" unicode="&#x2078;" horiz-adv-x="316" 
d="M39 585q0 30 19.5 54t52.5 35q-64 24 -64 86q0 39 31.5 65.5t79.5 26.5t79.5 -26.5t31.5 -65.5q0 -26 -17 -49.5t-46 -36.5q71 -20 71 -89q0 -45 -33 -73t-86 -28t-86 28.5t-33 72.5zM158 683q37 0 62.5 21.5t25.5 55.5q0 31 -25 52t-64 21q-36 0 -62 -21t-26 -52
q0 -34 26 -55.5t63 -21.5zM61 585q0 -36 27.5 -59t69.5 -23t69 22.5t27 59.5q0 35 -27 57t-70 22q-42 0 -69 -22t-27 -57z" />
    <glyph glyph-name="nine.superior" unicode="&#x2079;" horiz-adv-x="316" 
d="M102 481l-11 17q129 89 157 178q-44 -27 -94 -27q-53 0 -84 27.5t-31 73.5q0 44 32 73t84 29q57 0 89.5 -34.5t32.5 -94.5q0 -128 -175 -242zM61 751q0 -37 26 -60t68 -23q37 0 68 15.5t31 40.5q0 51 -26.5 80t-73.5 29q-40 0 -66.5 -23t-26.5 -59z" />
    <glyph glyph-name="uni207A" unicode="&#x207a;" horiz-adv-x="323" 
d="M34 667v19h118v124h19v-124h118v-19h-118v-124h-19v124h-118z" />
    <glyph glyph-name="uni207B" unicode="&#x207b;" horiz-adv-x="323" 
d="M34 665v19h255v-19h-255z" />
    <glyph glyph-name="uni207C" unicode="&#x207c;" horiz-adv-x="323" 
d="M34 721v19h255v-19h-255zM34 600v19h255v-19h-255z" />
    <glyph glyph-name="uni207D" unicode="&#x207d;" horiz-adv-x="206" 
d="M169 893h20q-89 -106 -89 -237q0 -61 24 -125.5t65 -109.5h-20q-37 44 -62.5 106.5t-25.5 129.5q0 125 88 236z" />
    <glyph glyph-name="uni207E" unicode="&#x207e;" horiz-adv-x="206" 
d="M17 893h20q88 -111 88 -236q0 -67 -25.5 -129.5t-62.5 -106.5h-20q41 45 65 109.5t24 125.5q0 131 -89 237z" />
    <glyph glyph-name="n.superior" unicode="&#x207f;" horiz-adv-x="323" 
d="M176 691q91 0 91 -100v-172h-20v172q0 82 -73 82q-47 0 -94 -60v-194h-20v263h20v-46q44 55 96 55z" />
    <glyph glyph-name="zero.inferior" unicode="&#x2080;" horiz-adv-x="316" 
d="M158 197q62 0 95 -49.5t33 -134.5t-33 -134.5t-95 -49.5t-95 49t-33 135q0 85 33 134.5t95 49.5zM52 13q0 -78 28 -121.5t78 -43.5t78 43.5t28 121.5q0 77 -27.5 121t-79.5 44q-49 0 -77 -43.5t-28 -121.5z" />
    <glyph glyph-name="one.inferior" unicode="&#x2081;" horiz-adv-x="316" 
d="M173 192h22v-357h-22v333l-105 -64l-14 17z" />
    <glyph glyph-name="two.inferior" unicode="&#x2082;" horiz-adv-x="316" 
d="M42 -165v2q127 114 164 161t37 97q0 37 -26 60t-68 23q-50 0 -99 -36v23q45 32 99 32t85.5 -28t31.5 -74q0 -52 -32 -94.5t-143 -146.5h193v-19h-242z" />
    <glyph glyph-name="three.inferior" unicode="&#x2083;" horiz-adv-x="316" 
d="M53 -151v21q50 -22 93 -22q45 0 72 22.5t27 59.5q0 39 -30.5 61t-84.5 22v18q52 0 81.5 20.5t29.5 56.5q0 30 -25.5 50t-66.5 20q-50 0 -92 -24v20q39 23 94 23q48 0 80 -25.5t32 -63.5q0 -28 -18.5 -51t-49.5 -35q73 -22 73 -92q0 -45 -33.5 -73t-88.5 -28q-52 0 -93 20
z" />
    <glyph glyph-name="four.inferior" unicode="&#x2084;" horiz-adv-x="316" 
d="M220 197h13v-205h58v-19h-58v-138h-22v138h-187v16zM211 -8v164l-155 -164h155z" />
    <glyph glyph-name="five.inferior" unicode="&#x2085;" horiz-adv-x="316" 
d="M40 -150v20q54 -22 98 -22q43 0 74.5 25.5t31.5 71.5q0 43 -30.5 68.5t-81.5 25.5q-34 0 -57 -7v160h167v-20h-146v-117q13 3 37 3q62 0 98.5 -30.5t36.5 -82.5t-35.5 -84t-94.5 -32q-55 0 -98 21z" />
    <glyph glyph-name="six.inferior" unicode="&#x2086;" horiz-adv-x="316" 
d="M161 -171q-58 0 -90 34t-32 94q0 127 174 243l13 -18q-131 -87 -158 -177q40 26 93 26t84.5 -27.5t31.5 -73.5q0 -44 -32.5 -72.5t-83.5 -28.5zM61 -43q0 -52 27 -80.5t73 -28.5q40 0 66.5 23t26.5 59q0 37 -25.5 59.5t-68.5 22.5q-34 0 -66.5 -14.5t-32.5 -40.5z" />
    <glyph glyph-name="seven.inferior" unicode="&#x2087;" horiz-adv-x="316" 
d="M76 -164l185 336h-231v20h269l-203 -364z" />
    <glyph glyph-name="eight.inferior" unicode="&#x2088;" horiz-adv-x="316" 
d="M39 -70q0 30 19.5 54t52.5 35q-64 24 -64 86q0 39 31.5 65.5t79.5 26.5t79.5 -26.5t31.5 -65.5q0 -26 -17 -49.5t-46 -36.5q71 -20 71 -89q0 -45 -33 -73t-86 -28t-86 28.5t-33 72.5zM158 28q37 0 62.5 21.5t25.5 55.5q0 31 -25 52t-64 21q-36 0 -62 -21t-26 -52
q0 -34 26 -55.5t63 -21.5zM61 -70q0 -36 27.5 -59t69.5 -23t69 22.5t27 59.5q0 35 -27 57t-70 22q-42 0 -69 -22t-27 -57z" />
    <glyph glyph-name="nine.inferior" unicode="&#x2089;" horiz-adv-x="316" 
d="M102 -174l-11 17q129 89 157 178q-44 -27 -94 -27q-53 0 -84 27.5t-31 73.5q0 44 32 73t84 29q57 0 89.5 -34.5t32.5 -94.5q0 -128 -175 -242zM61 96q0 -37 26 -60t68 -23q37 0 68 15.5t31 40.5q0 51 -26.5 80t-73.5 29q-40 0 -66.5 -23t-26.5 -59z" />
    <glyph glyph-name="uni208A" unicode="&#x208a;" horiz-adv-x="323" 
d="M34 5v19h118v124h19v-124h118v-19h-118v-124h-19v124h-118z" />
    <glyph glyph-name="uni208B" unicode="&#x208b;" horiz-adv-x="323" 
d="M34 5v19h255v-19h-255z" />
    <glyph glyph-name="uni208C" unicode="&#x208c;" horiz-adv-x="323" 
d="M34 62v19h255v-19h-255zM34 -59v19h255v-19h-255z" />
    <glyph glyph-name="uni208D" unicode="&#x208d;" horiz-adv-x="206" 
d="M169 243h20q-89 -106 -89 -237q0 -61 24 -125.5t65 -109.5h-20q-37 44 -62.5 106.5t-25.5 129.5q0 125 88 236z" />
    <glyph glyph-name="uni208E" unicode="&#x208e;" horiz-adv-x="206" 
d="M17 243h20q88 -111 88 -236q0 -67 -25.5 -129.5t-62.5 -106.5h-20q41 45 65 109.5t24 125.5q0 131 -89 237z" />
    <glyph glyph-name="uni20A0" unicode="&#x20a0;" horiz-adv-x="620" 
d="M340 456h245v-17h-226v-200h220v-18h-220v-204h231v-17h-250v235q-36 -13 -79 -13q-96 0 -156 65t-60 165q0 106 59 172.5t157 66.5q70 0 135 -36v-24q-64 42 -137 42q-85 0 -139 -61.5t-54 -155.5q0 -96 54.5 -156.5t138.5 -60.5q42 0 81 13v204z" />
    <glyph glyph-name="colonmonetary" unicode="&#x20a1;" 
d="M157 -78l13 111q-58 43 -89 123.5t-31 181.5q0 56 10 109.5t32 104.5t62 87t94 47l8 60h23l-7 -57q18 2 27 2q38 0 72 -8l8 63h23l-9 -70q33 -11 66 -33l-5 -22q-35 23 -63 34l-77 -644q76 4 145 54v-25q-71 -45 -148 -49l-8 -69h-23l8 70q-53 1 -97 27l-11 -97h-23z
M194 42q45 -30 97 -31l78 651q-33 9 -70 9q-11 0 -29 -2zM74 339q0 -195 99 -281l73 606q-84 -22 -128 -109.5t-44 -215.5z" />
    <glyph glyph-name="uni20A2" unicode="&#x20a2;" 
d="M396 458q35 0 69 -44l-12 -16q-29 40 -58 40q-53 0 -113 -117v-308q86 0 158 57v-29q-77 -50 -160 -50q-102 0 -166 98.5t-64 251.5t63 251.5t167 98.5q88 0 163 -51l-5 -27q-72 56 -159 56q-91 0 -148.5 -92.5t-57.5 -235.5q0 -139 52.5 -229t136.5 -98v435h20v-95
q57 104 114 104z" />
    <glyph glyph-name="franc" unicode="&#x20a3;" 
d="M319 163h-185v-163h-22v163h-96v20h96v499h320v-21h-298v-293h269v-21h-269v-164h185v-20z" />
    <glyph glyph-name="lira" unicode="&#x20a4;" 
d="M40 394h133q53 166 114.5 231.5t143.5 65.5q23 0 46 -9l13 -25q-25 14 -61 14q-66 0 -124 -59.5t-110 -217.5h131v-20h-137l-29 -100h166v-20h-171l-63 -232q50 14 102 14q32 0 101 -12.5t96 -12.5q58 0 99 22v-20q-45 -22 -98 -22q-28 0 -94.5 12.5t-99.5 12.5
q-54 0 -134 -21l69 259h-93v20h99l27 100h-126v20z" />
    <glyph glyph-name="uni20A5" unicode="&#x20a5;" horiz-adv-x="759" 
d="M68 0v449h20v-90q28 45 73 72t93 27q103 0 129 -95l97 275h20l-93 -263q63 83 145 83q144 0 144 -179v-279h-20v272q0 167 -126 167q-92 0 -158 -115v-324h-20v275l-164 -464h-20l182 516q-14 112 -119 112q-99 0 -163 -111v-328h-20z" />
    <glyph glyph-name="uni20A6" unicode="&#x20a6;" 
d="M490 303v-20h-65v-283h-21l-138 283h-169v-283h-22v283h-65v20h65v100h-65v20h65v259h21l126 -259h181v259h22v-259h65v-20h-65v-100h65zM231 403l49 -100h123v100h-172zM97 403v-100h159l-49 100h-110zM290 283l113 -232v232h-113zM97 631v-208h101z" />
    <glyph glyph-name="peseta" unicode="&#x20a7;" horiz-adv-x="974" 
d="M82 682h121q100 0 157 -45t57 -130q0 -31 -8 -58h83v113l20 15v-128h130v-18h-130v-310q0 -61 13 -86t48 -25q37 0 74 20v-20q-37 -19 -74 -19q-46 0 -63.5 29.5t-17.5 100.5v310h-90q-45 -100 -205 -100h-95v-331h-20v682zM685 344q0 52 35.5 83t96.5 31q53 0 106 -31
v-22q-55 35 -109 35q-52 0 -80 -25t-28 -70q0 -38 25 -62.5t92 -49.5q66 -25 91 -52.5t25 -71.5q0 -52 -37.5 -85t-95.5 -33q-67 0 -123 35v22q62 -38 123 -38q50 0 81 27t31 72q0 39 -25.5 63t-91.5 48q-65 24 -90.5 51.5t-25.5 72.5zM102 662v-311h102q90 0 141 39t51 117
t-51 116.5t-141 38.5h-102z" />
    <glyph glyph-name="uni20A8" unicode="&#x20a8;" horiz-adv-x="794" 
d="M82 0v682h125q210 0 210 -168q0 -72 -44 -115t-121 -52q62 -19 105 -109l117 -238h-26l-106 219q-33 67 -66.5 93.5t-91.5 26.5h-80v-339h-22zM104 361h53q117 0 176.5 33.5t59.5 118.5t-52.5 116.5t-150.5 31.5h-86v-300zM505 344q0 52 34.5 83t97.5 31q53 0 106 -31
v-22q-55 35 -109 35q-52 0 -80 -25t-28 -70q0 -38 25 -62.5t92 -49.5q66 -25 91 -52.5t25 -71.5q0 -52 -37.5 -85t-95.5 -33q-67 0 -123 35v22q62 -38 123 -38q50 0 81 27t31 72q0 39 -25.5 63t-91.5 48q-65 24 -90.5 51.5t-25.5 72.5z" />
    <glyph glyph-name="uni20A9" unicode="&#x20a9;" horiz-adv-x="524" 
d="M517 303v-20h-80l-55 -292h-23l-47 292h-105l-47 -292h-23l-55 292h-72v20h68l-19 100h-49v20h45l-48 259h22l48 -259h130l42 259h22l41 -259h131l49 259h22l-50 -259h53v-20h-57l-19 -100h76zM315 403l16 -100h90l18 100h-124zM81 403l18 -100h88l16 100h-122zM371 56h3
l43 227h-83zM146 56h2l36 227h-81zM226 403l-16 -100h99l-16 100h-67zM259 611l-30 -188h61l-29 188h-2z" />
    <glyph glyph-name="shekel" unicode="&#x20aa;" horiz-adv-x="577" 
d="M68 449h173q63 0 97 -34.5t34 -96.5v-178h-20v178q0 56 -30 84t-81 28h-153v-430h-20v449zM210 0h173q63 0 97 34.5t34 96.5v318h-20v-318q0 -56 -30 -84t-81 -28h-153v290h-20v-309z" />
    <glyph glyph-name="dong" unicode="&#x20ab;" 
d="M402 682h20v-95h78v-18h-78v-569h-161q-97 0 -159 63.5t-62 164.5q0 103 59 166.5t152 63.5q79 0 151 -48v159h-172v18h172v95zM61 228q0 -94 56.5 -151.5t143.5 -57.5h141v368q-73 53 -152 53q-85 0 -137 -59t-52 -153zM74 -91h348v-19h-348v19z" />
    <glyph glyph-name="Euro" unicode="&#x20ac;" horiz-adv-x="505" 
d="M320 691q93 0 160 -48l-5 -22q-72 50 -155 50q-86 0 -145.5 -70t-75.5 -192h310l-6 -20h-306q-2 -28 -2 -50q0 -24 2 -50h276l-6 -20h-268q15 -123 72.5 -190.5t148.5 -67.5q86 0 160 54v-25q-77 -49 -160 -49q-102 0 -166.5 72.5t-79.5 205.5h-59l3 20h55q-2 26 -2 49
q0 21 2 51h-58l3 20h57q15 132 80.5 207t164.5 75z" />
    <glyph glyph-name="uni20AD" unicode="&#x20ad;" 
d="M378 333h-219l327 -333h-31l-324 333h-9v-333h-22v333h-84v20h84v329h22v-329h11l325 329h29l-326 -329h217v-20z" />
    <glyph glyph-name="uni20AE" unicode="&#x20ae;" 
d="M239 420v241h-227v21h476v-21h-227v-232l138 73v-24l-138 -73v-127l138 73v-24l-138 -73v-254h-22v245l-138 -72v24l138 72v127l-138 -72v24z" />
    <glyph glyph-name="uni20AF" unicode="&#x20af;" horiz-adv-x="1011" 
d="M42 626v22q100 42 204 43q30 76 81 116l12 -15q-43 -37 -71 -101q135 -4 220 -89.5t85 -212.5q0 -177 -110 -283t-311 -106h-161v15q48 24 78.5 63.5t57 120t51.5 219.5q29 166 60 253q-102 -3 -196 -45zM550 389q0 119 -80 199.5t-210 82.5q-31 -82 -61 -255
q-31 -177 -69 -268.5t-96 -127.5h119q190 0 293.5 99.5t103.5 269.5zM552 -199l89 406q54 252 194 252q65 0 100.5 -48t35.5 -127q0 -133 -64 -214.5t-168 -81.5q-67 0 -115 42l-52 -229h-20zM949 283q0 75 -31 116t-84 41q-60 0 -104.5 -60.5t-68.5 -174.5l-32 -152
q21 -23 53 -34t57 -11q94 0 152 75t58 200z" />
    <glyph glyph-name="uni20B0" unicode="&#x20b0;" 
d="M198 224l110 138q-74 64 -98.5 104.5t-24.5 94.5q0 56 33.5 94t90.5 38q56 0 88 -38.5t32 -95.5q0 -78 -91 -194q73 -62 102.5 -108.5t29.5 -97.5q0 -30 -9 -57.5t-29 -54t-60.5 -42t-96.5 -15.5q-64 0 -119 31v23q55 -34 118 -34q173 0 173 149q0 46 -25.5 86.5
t-97.5 103.5l-126 -158l-87 108l-89 -139l-17 11l104 164zM207 562q0 -48 21.5 -84.5t93.5 -99.5q47 62 66 102t19 79q0 50 -27 82t-71 32q-49 0 -75.5 -31t-26.5 -80z" />
    <glyph glyph-name="uni20B1" unicode="&#x20b1;" 
d="M0 577h80v105h133q158 0 201 -105h86v-20h-79q6 -24 6 -50q0 -27 -6 -50h79v-20h-86q-42 -106 -207 -106h-105v-331h-22v437h-80v20h80v100h-80v20zM403 507q0 24 -7 50h-294v-100h294q7 21 7 50zM102 661v-84h287q-40 84 -178 84h-109zM211 352q138 0 178 85h-287v-85
h109z" />
    <glyph glyph-name="uni20B2" unicode="&#x20b2;" 
d="M282 746v-55q83 -3 155 -51v-27q-68 53 -155 56v-367h173v-256q-81 -52 -173 -55v-69h-22v70q-96 7 -156 104.5t-60 244.5t59 244.5t157 104.5v56h22zM67 341q0 -48 9.5 -99t30 -102.5t60.5 -86t93 -39.5v654q-86 -7 -139.5 -98.5t-53.5 -228.5zM433 281h-151v-268
q80 2 151 49v219z" />
    <glyph glyph-name="uni20B3" unicode="&#x20b3;" 
d="M490 192v-20h-56l61 -172h-26l-60 172h-320l-59 -172h-25l60 172h-55v20h62l35 100h-97v20h104l131 375h9l131 -375h105v-20h-98l35 -100h63zM131 292l-35 -100h306l-35 100h-236zM249 633l-111 -321h222z" />
    <glyph glyph-name="uni20B4" unicode="&#x20b4;" horiz-adv-x="419" 
d="M20 269v20h63q21 19 92 50t104 50h-259v20h289q53 41 53 116q0 64 -45.5 104.5t-117.5 40.5q-70 0 -139 -39v26q62 34 140 34q81 0 133.5 -47t52.5 -119t-44 -116h57v-20h-81q-24 -18 -102 -52t-98 -48h281v-20h-304q-35 -38 -35 -103q0 -71 44.5 -112.5t117.5 -41.5
q81 0 162 57v-26q-71 -52 -161 -52q-84 0 -135.5 48t-51.5 127q0 64 29 103h-45z" />
    <glyph glyph-name="uni20B5" unicode="&#x20b5;" 
d="M298 746v-55q83 -3 155 -51l-5 -27q-69 53 -150 56v-656q83 2 152 57v-29q-72 -47 -152 -50v-69h-22v70q-96 7 -156 104.5t-60 244.5t59 244.5t157 104.5v56h22zM83 341q0 -48 9.5 -99t30 -102.5t60.5 -86t93 -39.5v654q-86 -7 -139.5 -98.5t-53.5 -228.5z" />
    <glyph glyph-name="uni20B9" unicode="&#x20b9;" 
d="M70 342v20h51q114 0 173 31t63 109h-287v20h287q-2 42 -17.5 70.5t-44.5 43t-62.5 20.5t-78.5 6h-84v20h401v-20h-181q88 -37 91 -140h90v-20h-91q-4 -69 -51 -110t-129 -45q40 -13 79 -98l115 -249h-27l-106 237q-30 66 -55.5 85.5t-84.5 19.5h-51z" />
    <glyph glyph-name="uni20BA" unicode="&#x20ba;" 
d="M281 433v-26l-144 -112v-275h33q123 0 183 77.5t60 242.5h23q0 -181 -67.5 -260.5t-197.5 -79.5h-56v280l-91 -71v26l91 71v125l-91 -71v26l91 71v225h22v-210l144 112v-26l-144 -112v-125z" />
    <glyph glyph-name="uni20BC" unicode="&#x20bc;" horiz-adv-x="600" 
d="M311 682v-126q125 -8 178 -139.5t53 -416.5h-22q0 130 -10 223.5t-33.5 164.5t-64.5 107.5t-101 41.5v-437h-22v437q-111 -7 -160 -134.5t-49 -402.5h-22q0 285 54 416.5t177 139.5v126h22z" />
    <glyph glyph-name="uni20BD" unicode="&#x20bd;" 
d="M28 351h92v331h123q100 0 157 -45t57 -130q0 -84 -57 -130t-163 -46h-95v-100h204v-20h-204v-211h-22v211h-92v20h92v100h-92v20zM142 662v-311h99q90 0 141 39t51 117t-51 116.5t-141 38.5h-99z" />
    <glyph glyph-name="uni2105" unicode="&#x2105;" horiz-adv-x="693" 
d="M192 690q50 0 92 -19v-20q-43 21 -92 21q-63 0 -97.5 -39.5t-34.5 -98.5q0 -57 35 -93t97 -36q48 0 92 24v-20q-49 -22 -92 -22q-73 0 -112.5 42.5t-39.5 104.5q0 70 42 113t110 43zM567 682h25l-500 -682h-25zM653 144q0 -62 -44.5 -106.5t-113.5 -44.5q-74 0 -115.5 43
t-41.5 108t43.5 108t113.5 43q71 0 114.5 -40t43.5 -111zM495 11q59 0 98.5 37.5t39.5 95.5q0 60 -35 96.5t-103 36.5q-64 0 -100.5 -37t-36.5 -96q0 -55 34.5 -94t102.5 -39z" />
    <glyph glyph-name="uni2113" unicode="&#x2113;" horiz-adv-x="464" 
d="M72 177l99 118v166q0 52 1 82t6 62.5t14 49t25.5 27t41.5 10.5q77 0 77 -99q0 -132 -145 -305v-172q0 -56 14.5 -83t52.5 -27q47 0 99 63l13 -13q-54 -68 -111 -68q-49 0 -68.5 27.5t-19.5 101.5v147l-85 -100zM191 549v-230q124 152 124 273q0 82 -58 82
q-31 0 -48.5 -33t-17.5 -92z" />
    <glyph glyph-name="uni2116" unicode="&#x2116;" horiz-adv-x="1011" 
d="M78 0v682h21l461 -643v576q0 67 62 67h39v-20h-37q-23 0 -32.5 -12t-9.5 -37v-613h-21l-461 643v-643h-22zM655 341q0 68 46 114.5t118 46.5t118 -46.5t46 -114.5q0 -69 -46.5 -114.5t-117.5 -45.5q-72 0 -118 46.5t-46 113.5zM677 341q0 -62 40 -101.5t102 -39.5
q63 0 102.5 39.5t39.5 101.5q0 63 -39.5 102.5t-103.5 39.5q-61 0 -101 -40t-40 -102zM677 106v20h284v-20h-284z" />
    <glyph glyph-name="published" unicode="&#x2117;" horiz-adv-x="790" 
d="M45 340q0 145 103 248t248 103t247 -102.5t102 -248.5q0 -145 -101.5 -247t-246.5 -102t-248.5 102t-103.5 247zM65 340q0 -137 97.5 -234t234.5 -97q136 0 232 97t96 234t-96.5 235t-232.5 98t-233.5 -98t-97.5 -235zM296 149v391h113q135 0 135 -103q0 -48 -35 -78.5
t-110 -30.5h-83v-179h-20zM316 346h83q124 0 124 91q0 43 -28 64t-91 21h-88v-176z" />
    <glyph glyph-name="trademark" unicode="&#x2122;" horiz-adv-x="832" 
d="M173 304v358h-138v20h295v-20h-137v-358h-20zM412 304v378h22l148 -349l148 349h22v-378h-20v337l-142 -337h-16l-142 337v-337h-20z" />
    <glyph glyph-name="Omega" unicode="&#x2126;" horiz-adv-x="702" 
d="M46 0v21h217q-218 157 -218 358q0 138 85 225t221 87q134 0 220 -85.5t86 -220.5q0 -209 -218 -364h217v-21h-245v23q222 156 222 355q0 136 -79.5 213.5t-202.5 77.5q-119 0 -200.5 -76.5t-81.5 -208.5q0 -206 222 -361v-23h-245z" />
    <glyph glyph-name="estimated" unicode="&#x212e;" horiz-adv-x="830" 
d="M415 671q156 0 267 -99.5t111 -247.5h-608q-10 0 -10 -11v-197q47 -51 110 -78.5t130 -27.5q73 0 139 32.5t113 88.5h57q-56 -68 -138 -105t-171 -37q-100 0 -186 42.5t-139.5 121.5t-53.5 177q0 145 110.5 243t268.5 98zM415 650q-70 0 -133 -28.5t-107 -78.5v-185
q0 -11 10 -11h461q9 0 9 11v184q-44 51 -108 79.5t-132 28.5z" />
    <glyph glyph-name="onethird" unicode="&#x2153;" horiz-adv-x="868" 
d="M580 18v23q59 -31 103 -31q51 0 81.5 31t30.5 81q0 54 -35 83.5t-94 29.5v19q58 0 91 27.5t33 76.5q0 41 -29 68t-75 27q-53 0 -102 -33v23q45 30 104 30q54 0 89.5 -33t35.5 -82q0 -38 -22.5 -69t-60.5 -44q88 -29 88 -123q0 -58 -37.5 -94.5t-97.5 -36.5q-56 0 -103 27
zM169 0l506 682h24l-506 -682h-24zM190 657l-119 -85l-12 17l131 93h22v-467h-22v442z" />
    <glyph glyph-name="twothirds" unicode="&#x2154;" horiz-adv-x="868" 
d="M44 215l42 44q107 113 144.5 173.5t37.5 123.5q0 51 -29 81.5t-77 30.5q-54 0 -110 -47v25q52 42 110 42q60 0 95 -36t35 -96q0 -69 -35.5 -124.5t-163.5 -196.5h219v-20h-268zM580 18v23q59 -31 103 -31q51 0 81.5 31t30.5 81q0 54 -35 83.5t-94 29.5v19q58 0 91 27.5
t33 76.5q0 41 -29 68t-75 27q-53 0 -102 -33v23q45 30 104 30q54 0 89.5 -33t35.5 -82q0 -38 -22.5 -69t-60.5 -44q88 -29 88 -123q0 -58 -37.5 -94.5t-97.5 -36.5q-56 0 -103 27zM169 0l506 682h24l-506 -682h-24z" />
    <glyph glyph-name="oneeighth" unicode="&#x215b;" horiz-adv-x="868" 
d="M650 241q-36 14 -56.5 44.5t-20.5 68.5q0 51 35 85t88 34t88 -34.5t35 -84.5q0 -37 -20.5 -68t-56.5 -45q41 -13 63.5 -45t22.5 -73q0 -59 -37 -95.5t-95 -36.5q-59 0 -95.5 37t-36.5 95q0 39 23.5 71.5t62.5 46.5zM587 123q0 -50 30.5 -81.5t78.5 -31.5t78.5 31t30.5 82
q0 47 -30.5 77t-79.5 30q-47 0 -77.5 -30t-30.5 -77zM696 250q42 0 71 29t29 75q0 42 -28.5 70.5t-72.5 28.5q-41 0 -70 -28t-29 -71q0 -46 29 -75t71 -29zM169 0l506 682h24l-506 -682h-24zM190 657l-119 -85l-12 17l131 93h22v-467h-22v442z" />
    <glyph glyph-name="threeeighths" unicode="&#x215c;" horiz-adv-x="868" 
d="M650 241q-36 14 -56.5 44.5t-20.5 68.5q0 51 35 85t88 34t88 -34.5t35 -84.5q0 -37 -20.5 -68t-56.5 -45q41 -13 63.5 -45t22.5 -73q0 -59 -37 -95.5t-95 -36.5q-59 0 -95.5 37t-36.5 95q0 39 23.5 71.5t62.5 46.5zM587 123q0 -50 30.5 -81.5t78.5 -31.5t78.5 31t30.5 82
q0 47 -30.5 77t-79.5 30q-47 0 -77.5 -30t-30.5 -77zM696 250q42 0 71 29t29 75q0 42 -28.5 70.5t-72.5 28.5q-41 0 -70 -28t-29 -71q0 -46 29 -75t71 -29zM56 233v23q59 -31 103 -31q51 0 81.5 31t30.5 81q0 54 -35 83.5t-94 29.5v19q58 0 91 27.5t33 76.5q0 41 -29 68
t-75 27q-53 0 -102 -33v23q45 30 104 30q54 0 89.5 -33t35.5 -82q0 -38 -22.5 -69t-60.5 -44q88 -29 88 -123q0 -58 -37.5 -94.5t-97.5 -36.5q-56 0 -103 27zM169 0l506 682h24l-506 -682h-24z" />
    <glyph glyph-name="fiveeighths" unicode="&#x215d;" horiz-adv-x="868" 
d="M650 241q-36 14 -56.5 44.5t-20.5 68.5q0 51 35 85t88 34t88 -34.5t35 -84.5q0 -37 -20.5 -68t-56.5 -45q41 -13 63.5 -45t22.5 -73q0 -59 -37 -95.5t-95 -36.5q-59 0 -95.5 37t-36.5 95q0 39 23.5 71.5t62.5 46.5zM587 123q0 -50 30.5 -81.5t78.5 -31.5t78.5 31t30.5 82
q0 47 -30.5 77t-79.5 30q-47 0 -77.5 -30t-30.5 -77zM696 250q42 0 71 29t29 75q0 42 -28.5 70.5t-72.5 28.5q-41 0 -70 -28t-29 -71q0 -46 29 -75t71 -29zM41 235v21q62 -31 109 -31q43 0 73.5 24t41.5 65q5 18 5 44q0 58 -34.5 92t-92.5 34q-37 0 -63 -8v206h185v-21h-163
v-160q15 3 42 3q69 0 109.5 -39.5t40.5 -106.5q0 -68 -39.5 -110t-104.5 -42q-58 0 -109 29zM169 0l506 682h24l-506 -682h-24z" />
    <glyph glyph-name="seveneighths" unicode="&#x215e;" horiz-adv-x="868" 
d="M650 241q-36 14 -56.5 44.5t-20.5 68.5q0 51 35 85t88 34t88 -34.5t35 -84.5q0 -37 -20.5 -68t-56.5 -45q41 -13 63.5 -45t22.5 -73q0 -59 -37 -95.5t-95 -36.5q-59 0 -95.5 37t-36.5 95q0 39 23.5 71.5t62.5 46.5zM587 123q0 -50 30.5 -81.5t78.5 -31.5t78.5 31t30.5 82
q0 47 -30.5 77t-79.5 30q-47 0 -77.5 -30t-30.5 -77zM696 250q42 0 71 29t29 75q0 42 -28.5 70.5t-72.5 28.5q-41 0 -70 -28t-29 -71q0 -46 29 -75t71 -29zM83 215l208 446h-261v21h296l-223 -477zM169 0l506 682h24l-506 -682h-24z" />
    <glyph glyph-name="uni2166" unicode="&#x2166;" horiz-adv-x="946" 
d="M662 682h22v-682h-22v682zM844 682h22v-682h-22v682zM290 -15l-285 697h24l263 -643l262 643h23l-284 -697h-3z" />
    <glyph glyph-name="arrowleft" unicode="&#x2190;" horiz-adv-x="1000" 
d="M332 77h-38q-57 64 -102 100q-42 33 -99 64v23q57 29 98 63q45 36 103 101h38q-22 -46 -39 -72q-15 -26 -43 -61h657v-86h-657q23 -28 43 -59q15 -23 39 -73z" />
    <glyph glyph-name="arrowup" unicode="&#x2191;" 
d="M75 575v37q64 58 100 102q34 43 64 100h22q31 -59 64 -99q36 -44 101 -103v-37q-41 19 -73 38q-29 19 -60 43v-656h-85v656q-34 -26 -60 -42q-23 -15 -73 -39z" />
    <glyph glyph-name="arrowright" unicode="&#x2192;" horiz-adv-x="1000" 
d="M668 428h37q62 -68 102 -101q43 -34 100 -64v-22q-59 -31 -99 -64q-42 -33 -103 -100h-37q25 53 38 72q19 29 43 60h-656v86h656q-34 45 -43 60q-11 16 -38 73z" />
    <glyph glyph-name="arrowdown" unicode="&#x2193;" 
d="M425 239v-37q-66 -60 -100 -103q-33 -40 -64 -99h-22q-31 59 -64 99q-36 44 -101 103v37q46 -22 73 -39q25 -15 60 -42v656h85v-656q34 26 60 42q23 15 73 39z" />
    <glyph glyph-name="arrowboth" unicode="&#x2194;" horiz-adv-x="1000" 
d="M250 295h499q-30 38 -43 59q-11 17 -38 74h37q62 -68 102 -101q43 -34 100 -64v-22q-59 -31 -99 -64q-42 -33 -103 -100h-37q25 51 37 72q20 31 44 60h-499q23 -28 43 -59q15 -23 39 -73h-38q-57 64 -102 100q-42 33 -99 64v23q57 29 98 63q45 36 103 101h38
q-22 -46 -39 -72q-15 -26 -43 -61z" />
    <glyph glyph-name="arrowupdn" unicode="&#x2195;" 
d="M293 656v-498q30 24 59 42q25 15 74 39v-37q-68 -60 -101 -102q-34 -43 -64 -100h-22q-31 59 -64 99q-34 43 -100 103v37q42 -20 72 -38q26 -15 61 -43v498q-31 -24 -60 -43q-16 -11 -73 -38v37q64 57 100 102q34 43 64 100h22q30 -57 64 -100q37 -45 101 -102v-37
q-50 23 -73 37q-31 20 -60 44z" />
    <glyph glyph-name="arrowupdnbse" unicode="&#x21a8;" 
d="M292 656v-498q34 26 60 42q23 15 73 39v-37q-64 -57 -100 -102q-34 -43 -64 -100h-22q-31 59 -64 99q-36 45 -101 103v37q42 -20 72 -38q26 -15 61 -43v498q-31 -24 -60 -43q-16 -11 -73 -38v37q64 57 100 102q37 46 65 100h22q29 -55 63 -100q37 -45 101 -102v-37
q-51 25 -72 37q-30 19 -61 44zM74 -121v85h351v-85h-351z" />
    <glyph glyph-name="partialdiff" unicode="&#x2202;" horiz-adv-x="504" 
d="M195 680l-10 16q46 29 110 29q164 0 164 -220q0 -108 -36 -237q-36 -131 -98.5 -204t-141.5 -73q-66 0 -102 46t-36 130q0 136 70 235t169 99q110 0 146 -105q8 58 8 108q0 203 -146 203q-52 0 -97 -27zM425 363q-22 62 -55 91t-86 29q-87 0 -152.5 -92t-65.5 -225
q0 -76 31.5 -116.5t88.5 -40.5q80 0 144 94t95 260z" />
    <glyph glyph-name="Delta" unicode="&#x2206;" horiz-adv-x="662" 
d="M654 0h-646l318 687h10zM41 21h582l-292 630l-73 -158q-121 -266 -217 -472z" />
    <glyph glyph-name="product" unicode="&#x220f;" horiz-adv-x="653" 
d="M90 -230v930h473v-930h-22v908h-429v-908h-22z" />
    <glyph glyph-name="summation" unicode="&#x2211;" horiz-adv-x="581" 
d="M25 -230v9l338 460l-313 447v14h480v-21h-448l310 -439l-331 -449h495v-21h-531z" />
    <glyph glyph-name="minus" unicode="&#x2212;" 
d="M40 341v20h420v-20h-420z" />
    <glyph glyph-name="uni2215" unicode="&#x2215;" horiz-adv-x="180" 
d="M331 682h24l-506 -682h-24z" />
    <glyph glyph-name="uni2219" unicode="&#x2219;" horiz-adv-x="132" 
d="M48 387h36v-75h-36v75z" />
    <glyph glyph-name="radical" unicode="&#x221a;" horiz-adv-x="453" 
d="M444 728h21l-191 -740h-13l-157 380l-57 -31l-9 19l77 40l151 -371z" />
    <glyph glyph-name="infinity" unicode="&#x221e;" horiz-adv-x="710" 
d="M189 438q48 0 86.5 -27.5t79.5 -94.5h2q77 122 164 122q64 0 99 -38.5t35 -105.5q0 -69 -35.5 -109t-98.5 -40q-49 0 -88 29t-77 93h-2q-75 -122 -165 -122q-63 0 -98.5 38.5t-35.5 105.5q0 69 35.5 109t98.5 40zM367 291q29 -60 69.5 -93t84.5 -33q53 0 81.5 32.5
t28.5 96.5q0 58 -29 91t-81 33q-41 0 -81.5 -33t-72.5 -94zM79 289q0 -59 29.5 -91.5t80.5 -32.5q41 0 82 34t72 93q-62 126 -155 126q-50 0 -79.5 -32.5t-29.5 -96.5z" />
    <glyph glyph-name="orthogonal" unicode="&#x221f;" horiz-adv-x="1000" 
d="M940 0h-880v814h66v-748h814v-66z" />
    <glyph glyph-name="intersection" unicode="&#x2229;" horiz-adv-x="719" 
d="M642 287v-287h-71v291q0 117 -6 163q-4 46 -31 93q-51 95 -175 95q-133 0 -183 -110q-22 -50 -25 -102q-2 -68 -2 -139v-291h-72v287q0 120 5 170q4 44 24 91q32 74 99.5 119.5t154.5 45.5q132 0 209 -91q37 -44 53 -96t18 -102q2 -66 2 -137z" />
    <glyph glyph-name="integral" unicode="&#x222b;" horiz-adv-x="447" 
d="M330 748q29 0 52 -9v-22q-21 12 -56 12q-93 0 -93 -102v-726q0 -120 -116 -120q-29 0 -52 9v22q21 -12 56 -12q92 0 92 101v728q0 55 29 87t88 32z" />
    <glyph glyph-name="approxequal" unicode="&#x2248;" 
d="M40 345v30q47 69 120 69q42 0 99 -34t90 -34q60 0 111 77v-31q-47 -67 -112 -67q-39 0 -96.5 34t-92.5 34q-69 0 -119 -78zM40 135v30q47 70 120 70q42 0 99 -34t90 -34q63 0 111 74v-31q-46 -64 -112 -64q-39 0 -96.5 34t-92.5 34q-31 0 -63 -21t-56 -58z" />
    <glyph glyph-name="notequal" unicode="&#x2260;" 
d="M106 22l74 155h-140v20h149l92 193h-241v20h251l72 151h19l-72 -151h150v-20h-160l-92 -193h252v-20h-261l-74 -155h-19z" />
    <glyph glyph-name="equivalence" unicode="&#x2261;" 
d="M40 201v20h420v-20h-420zM40 341v20h420v-20h-420zM40 479v20h420v-20h-420z" />
    <glyph glyph-name="lessequal" unicode="&#x2264;" 
d="M40 341v16l420 197v-24l-393 -181l393 -184v-24zM40 60v20h420v-20h-420z" />
    <glyph glyph-name="greaterequal" unicode="&#x2265;" 
d="M460 357v-16l-420 -200v24l393 184l-393 181v24zM460 80v-20h-420v20h420z" />
    <glyph glyph-name="house" unicode="&#x2302;" horiz-adv-x="600" 
d="M525 0h-450v310l225 253l225 -253v-310zM114 293v-253h372v253l-186 208z" />
    <glyph glyph-name="revlogicalnot" unicode="&#x2310;" 
d="M460 481v-20h-390v-242h-20v262h410z" />
    <glyph glyph-name="integraltp" unicode="&#x2320;" horiz-adv-x="604" 
d="M337 -186h-70v785q0 109 43 161q44 54 99 54q31 0 49.5 -15.5t18.5 -37.5q0 -18 -12.5 -31.5t-30.5 -13.5q-30 0 -49 30q-11 18 -22 18q-15 0 -21 -13q-5 -15 -5 -74v-863z" />
    <glyph glyph-name="integralbt" unicode="&#x2321;" horiz-adv-x="604" 
d="M337 814v-785q0 -107 -43 -160q-42 -55 -99 -55q-32 0 -50 15.5t-18 37.5q0 19 13 32t30 13q29 0 49 -31q11 -17 22 -17q16 0 20 13q6 13 6 74v863h70z" />
    <glyph glyph-name="SF100000" unicode="&#x2500;" horiz-adv-x="708" 
d="M709 270h-709v88h709v-88z" />
    <glyph glyph-name="SF110000" unicode="&#x2502;" horiz-adv-x="708" 
d="M398 -186h-88v1000h88v-1000z" />
    <glyph glyph-name="SF010000" unicode="&#x250c;" horiz-adv-x="708" 
d="M398 -186h-88v544h399v-88h-311v-456z" />
    <glyph glyph-name="SF030000" unicode="&#x2510;" horiz-adv-x="708" 
d="M398 -186h-88v456h-310v88h398v-544z" />
    <glyph glyph-name="SF020000" unicode="&#x2514;" horiz-adv-x="708" 
d="M709 270h-399v544h88v-456h311v-88z" />
    <glyph glyph-name="SF040000" unicode="&#x2518;" horiz-adv-x="708" 
d="M398 270h-398v88h310v456h88v-544z" />
    <glyph glyph-name="SF080000" unicode="&#x251c;" horiz-adv-x="708" 
d="M398 -186h-88v1000h88v-456h311v-88h-311v-456z" />
    <glyph glyph-name="SF090000" unicode="&#x2524;" horiz-adv-x="708" 
d="M398 -186h-88v456h-310v88h310v456h88v-1000z" />
    <glyph glyph-name="SF060000" unicode="&#x252c;" horiz-adv-x="708" 
d="M398 -186h-88v456h-310v88h709v-88h-311v-456z" />
    <glyph glyph-name="SF070000" unicode="&#x2534;" horiz-adv-x="708" 
d="M709 270h-709v88h310v456h88v-456h311v-88z" />
    <glyph glyph-name="SF050000" unicode="&#x253c;" horiz-adv-x="708" 
d="M398 -186h-88v456h-310v88h310v456h88v-456h311v-88h-311v-456z" />
    <glyph glyph-name="SF430000" unicode="&#x2550;" horiz-adv-x="708" 
d="M0 181v89h709v-89h-709zM709 358h-709v88h709v-88z" />
    <glyph glyph-name="SF240000" unicode="&#x2551;" horiz-adv-x="708" 
d="M310 814v-1000h-88v1000h88zM398 -186v1000h89v-1000h-89z" />
    <glyph glyph-name="SF510000" unicode="&#x2552;" horiz-adv-x="708" 
d="M398 -186h-88v632h399v-88h-311v-88h311v-89h-311v-367z" />
    <glyph glyph-name="SF520000" unicode="&#x2553;" horiz-adv-x="708" 
d="M310 270v-456h-88v544h487v-88h-222v-456h-89v456h-88z" />
    <glyph glyph-name="SF390000" unicode="&#x2554;" horiz-adv-x="708" 
d="M310 358v-544h-88v632h487v-88h-399zM487 -186h-89v456h311v-89h-222v-367z" />
    <glyph glyph-name="SF220000" unicode="&#x2555;" horiz-adv-x="708" 
d="M398 -186h-88v367h-310v89h310v88h-310v88h398v-632z" />
    <glyph glyph-name="SF210000" unicode="&#x2556;" horiz-adv-x="708" 
d="M310 270v-456h-88v456h-222v88h487v-544h-89v456h-88z" />
    <glyph glyph-name="SF250000" unicode="&#x2557;" horiz-adv-x="708" 
d="M310 270v-456h-88v367h-222v89h310zM487 -186h-89v544h-398v88h487v-632z" />
    <glyph glyph-name="SF500000" unicode="&#x2558;" horiz-adv-x="708" 
d="M709 181h-399v633h88v-368h311v-88h-311v-88h311v-89z" />
    <glyph glyph-name="SF490000" unicode="&#x2559;" horiz-adv-x="708" 
d="M709 270h-487v544h88v-456h88v456h89v-456h222v-88z" />
    <glyph glyph-name="SF380000" unicode="&#x255a;" horiz-adv-x="708" 
d="M709 181h-487v633h88v-544h399v-89zM709 446v-88h-311v456h89v-368h222z" />
    <glyph glyph-name="SF280000" unicode="&#x255b;" horiz-adv-x="708" 
d="M0 181v89h310v88h-310v88h310v368h88v-633h-398z" />
    <glyph glyph-name="SF270000" unicode="&#x255c;" horiz-adv-x="708" 
d="M487 270h-487v88h222v456h88v-456h88v456h89v-544z" />
    <glyph glyph-name="SF260000" unicode="&#x255d;" horiz-adv-x="708" 
d="M0 181v89h398v544h89v-633h-487zM310 358h-310v88h222v368h88v-456z" />
    <glyph glyph-name="SF360000" unicode="&#x255e;" horiz-adv-x="708" 
d="M398 -186h-88v1000h88v-368h311v-88h-311v-88h311v-89h-311v-367z" />
    <glyph glyph-name="SF370000" unicode="&#x255f;" horiz-adv-x="708" 
d="M310 -186h-88v1000h88v-1000zM487 -186h-89v1000h89v-456h222v-88h-222v-456z" />
    <glyph glyph-name="SF420000" unicode="&#x2560;" horiz-adv-x="708" 
d="M310 -186h-88v1000h88v-1000zM487 -186h-89v456h311v-89h-222v-367zM709 358h-311v456h89v-368h222v-88z" />
    <glyph glyph-name="SF190000" unicode="&#x2561;" horiz-adv-x="708" 
d="M398 -186h-88v367h-310v89h310v88h-310v88h310v368h88v-1000z" />
    <glyph glyph-name="SF200000" unicode="&#x2562;" horiz-adv-x="708" 
d="M310 -186h-88v456h-222v88h222v456h88v-1000zM487 -186h-89v1000h89v-1000z" />
    <glyph glyph-name="SF230000" unicode="&#x2563;" horiz-adv-x="708" 
d="M310 -186h-88v367h-222v89h310v-456zM487 -186h-89v1000h89v-1000zM310 358h-310v88h222v368h88v-456z" />
    <glyph glyph-name="SF470000" unicode="&#x2564;" horiz-adv-x="708" 
d="M0 181v89h709v-89h-311v-367h-88v367h-310zM709 358h-709v88h709v-88z" />
    <glyph glyph-name="SF480000" unicode="&#x2565;" horiz-adv-x="708" 
d="M222 270h-222v88h709v-88h-222v-456h-89v456h-88v-456h-88v456z" />
    <glyph glyph-name="SF410000" unicode="&#x2566;" horiz-adv-x="708" 
d="M0 181v89h310v-456h-88v367h-222zM709 358h-709v88h709v-88zM398 270h311v-89h-222v-367h-89v456z" />
    <glyph glyph-name="SF450000" unicode="&#x2567;" horiz-adv-x="708" 
d="M0 181v89h709v-89h-709zM709 358h-709v88h310v368h88v-368h311v-88z" />
    <glyph glyph-name="SF460000" unicode="&#x2568;" horiz-adv-x="708" 
d="M709 270h-709v88h222v456h88v-456h88v456h89v-456h222v-88z" />
    <glyph glyph-name="SF400000" unicode="&#x2569;" horiz-adv-x="708" 
d="M0 181v89h709v-89h-709zM310 358h-310v88h222v368h88v-456zM709 358h-311v456h89v-368h222v-88z" />
    <glyph glyph-name="SF540000" unicode="&#x256a;" horiz-adv-x="708" 
d="M0 181v89h310v88h-310v88h310v368h88v-368h311v-88h-311v-88h311v-89h-311v-367h-88v367h-310z" />
    <glyph glyph-name="SF530000" unicode="&#x256b;" horiz-adv-x="708" 
d="M222 270h-222v88h222v456h88v-456h88v456h89v-456h222v-88h-222v-456h-89v456h-88v-456h-88v456z" />
    <glyph glyph-name="SF440000" unicode="&#x256c;" horiz-adv-x="708" 
d="M0 181v89h310v-456h-88v367h-222zM310 358h-310v88h222v368h88v-456zM709 358h-311v456h89v-368h222v-88zM398 270h311v-89h-222v-367h-89v456z" />
    <glyph glyph-name="upblock" unicode="&#x2580;" horiz-adv-x="708" 
d="M709 314h-709v500h709v-500z" />
    <glyph glyph-name="dnblock" unicode="&#x2584;" horiz-adv-x="708" 
d="M709 -186h-709v500h709v-500z" />
    <glyph glyph-name="block" unicode="&#x2588;" horiz-adv-x="708" 
d="M709 -186h-709v1000h709v-1000z" />
    <glyph glyph-name="lfblock" unicode="&#x258c;" horiz-adv-x="708" 
d="M354 -186h-354v1000h354v-1000z" />
    <glyph glyph-name="rtblock" unicode="&#x2590;" horiz-adv-x="708" 
d="M709 814v-1000h-355v1000h355z" />
    <glyph glyph-name="ltshade" unicode="&#x2591;" horiz-adv-x="708" 
d="M0 751v62h59v-62h-59zM235 751v62h59v-62h-59zM471 751v62h59v-62h-59zM354 626v63h59v-63h-59zM589 626v63h58v-63h-58zM235 501v62h59v-62h-59zM471 501v62h59v-62h-59zM0 501v62h59v-62h-59zM0 251v63h59v-63h-59zM235 251v63h59v-63h-59zM471 251v63h59v-63h-59zM0 1
v62h59v-62h-59zM235 1v62h59v-62h-59zM471 1v62h59v-62h-59zM118 626v63h58v-63h-58zM354 376v63h59v-63h-59zM589 376v63h58v-63h-58zM118 376v63h58v-63h-58zM354 126v63h59v-63h-59zM589 126v63h58v-63h-58zM118 126v63h58v-63h-58zM354 -124v63h59v-63h-59zM589 -124v63
h58v-63h-58zM118 -124v63h58v-63h-58z" />
    <glyph glyph-name="shade" unicode="&#x2592;" horiz-adv-x="708" 
d="M0 751v62h59v-62h-59zM118 751v62h59v-62h-59zM235 751v62h59v-62h-59zM354 751v62h58v-62h-58zM471 751v62h59v-62h-59zM589 751v62h59v-62h-59zM59 626v63h59v-63h-59zM177 626v63h58v-63h-58zM294 626v63h60v-63h-60zM412 626v63h59v-63h-59zM530 626v63h59v-63h-59z
M648 626v63h59v-63h-59zM118 501v62h59v-62h-59zM235 501v62h59v-62h-59zM354 501v62h58v-62h-58zM471 501v62h59v-62h-59zM589 501v62h59v-62h-59zM0 501v62h59v-62h-59zM59 376v62h59v-62h-59zM177 376v62h58v-62h-58zM294 376v62h60v-62h-60zM412 376v62h59v-62h-59z
M530 376v62h59v-62h-59zM648 376v62h59v-62h-59zM0 251v63h59v-63h-59zM235 251v63h59v-63h-59zM354 251v63h58v-63h-58zM471 251v63h59v-63h-59zM589 251v63h59v-63h-59zM118 251v63h59v-63h-59zM648 126v63h59v-63h-59zM530 126v63h59v-63h-59zM412 126v63h59v-63h-59z
M294 126v63h60v-63h-60zM177 126v63h58v-63h-58zM59 126v63h59v-63h-59zM0 1v62h59v-62h-59zM118 1v62h59v-62h-59zM235 1v62h59v-62h-59zM354 1v62h58v-62h-58zM471 1v62h59v-62h-59zM589 1v62h59v-62h-59zM648 -124v62h59v-62h-59zM530 -124v62h59v-62h-59zM412 -124v62
h59v-62h-59zM294 -124v62h60v-62h-60zM177 -124v62h58v-62h-58zM59 -124v62h59v-62h-59z" />
    <glyph glyph-name="dkshade" unicode="&#x2593;" horiz-adv-x="708" 
d="M0 563v188h59v63h59v-63h59v63h58v-63h59v63h60v-63h58v63h59v-63h59v63h59v-63h59v63h59v-126h-59v-62h59v-187h-59v-63h59v-188h-59v-62h59v-187h-59v-63h59v-62h-707v187h59v62h-59v188h59v63h-59v187h59v62h-59zM118 688h-59v-62h59v62zM235 688h-58v-62h58v62z
M354 688h-60v-62h60v62zM471 688h-59v-62h59v62zM589 688h-59v-62h59v62zM177 501v62h-59v-62h59zM294 563h-59v-62h59v62zM412 563h-58v-62h58v62zM530 563h-59v-62h59v62zM648 563h-59v-62h59v62zM118 439h-59v-63h59v63zM354 439h-60v-63h60v63zM177 376h58v63h-58v-63z
M471 439h-59v-63h59v63zM589 439h-59v-63h59v63zM589 251h59v63h-59v-63zM471 251h59v63h-59v-63zM354 251h58v63h-58v-63zM235 251h59v63h-59v-63zM118 251h59v63h-59v-63zM118 188h-59v-62h59v62zM235 188h-58v-62h58v62zM354 188h-60v-62h60v62zM471 188h-59v-62h59v62z
M589 188h-59v-62h59v62zM589 1h59v62h-59v-62zM471 1h59v62h-59v-62zM354 1h58v62h-58v-62zM235 1h59v62h-59v-62zM118 1h59v62h-59v-62zM118 -61h-59v-63h59v63zM235 -61h-58v-63h58v63zM354 -61h-60v-63h60v63zM471 -61h-59v-63h59v63zM589 -61h-59v-63h59v63z" />
    <glyph glyph-name="filledbox" unicode="&#x25a0;" horiz-adv-x="604" 
d="M71 0v461h461v-461h-461z" />
    <glyph glyph-name="H22073" unicode="&#x25a1;" horiz-adv-x="604" 
d="M71 0v461h461v-461h-461zM495 424h-387v-387h387v387z" />
    <glyph glyph-name="H18543" unicode="&#x25aa;" horiz-adv-x="354" 
d="M64 443l226 1v-227h-226v226z" />
    <glyph glyph-name="H18551" unicode="&#x25ab;" horiz-adv-x="354" 
d="M64 443l226 1v-227h-226v226zM253 254v153l-152 -1v-152h152z" />
    <glyph glyph-name="filledrect" unicode="&#x25ac;" horiz-adv-x="1000" 
d="M166 0v188h668v-188h-668z" />
    <glyph glyph-name="triagup" unicode="&#x25b2;" horiz-adv-x="990" 
d="M842 0h-694l347 693z" />
    <glyph glyph-name="triagrt" unicode="&#x25ba;" horiz-adv-x="990" 
d="M141 -15v707l708 -354z" />
    <glyph glyph-name="triagdn" unicode="&#x25bc;" horiz-adv-x="990" 
d="M148 678h694l-347 -693z" />
    <glyph glyph-name="triaglf" unicode="&#x25c4;" horiz-adv-x="990" 
d="M141 338l708 354v-707z" />
    <glyph glyph-name="lozenge" unicode="&#x25ca;" 
d="M236 700h10l189 -350l-189 -350h-10l-189 350zM241 670l-171 -320l171 -320l171 320z" />
    <glyph glyph-name="circle" unicode="&#x25cb;" horiz-adv-x="604" 
d="M302 497q87 0 151 -62.5t64 -152.5q0 -89 -63 -152t-152 -63t-152 63t-63 152q0 91 63 153t152 62zM302 460q-72 0 -125 -51t-53 -127q0 -74 52 -126t126 -52t126 52t52 126t-52.5 126t-125.5 52z" />
    <glyph glyph-name="H18533" unicode="&#x25cf;" horiz-adv-x="604" 
d="M302 497q87 0 151 -62.5t64 -152.5q0 -89 -63 -152t-152 -63t-152 63t-63 152q0 91 63 153t152 62z" />
    <glyph glyph-name="invbullet" unicode="&#x25d8;" horiz-adv-x="604" 
d="M541 0h-479v479h479v-479zM302 338q-41 0 -70 -29t-29 -70q0 -40 29 -69t70 -29t69.5 29t28.5 69q0 41 -28.5 70t-69.5 29z" />
    <glyph glyph-name="invcircle" unicode="&#x25d9;" horiz-adv-x="604" 
d="M584 0h-563v564h563v-564zM302 497q-83 5 -151 -62.5t-64 -152.5q0 -89 63 -152t152 -63q90 0 153 63t63 152q4 85 -64 152.5t-152 62.5zM303 460q69 3 125 -52.5t52 -125.5q0 -74 -52 -126t-125 -52q-74 0 -126 52t-52 126q-4 71 52 126t126 52z" />
    <glyph glyph-name="openbullet" unicode="&#x25e6;" horiz-adv-x="354" 
d="M177 453q51 0 87 -36t36 -86q0 -51 -36 -87t-87 -36t-87 36q-35 37 -35 87q0 49 35 86q36 36 87 36zM177 416q-35 0 -60 -25t-25 -60q0 -36 25 -61t60 -25t60.5 25t25.5 61q0 35 -25 60t-61 25z" />
    <glyph glyph-name="smileface" unicode="&#x263a;" horiz-adv-x="1000" 
d="M500 564q79 0 153 -40q75 -41 117 -115q42 -75 42 -156t-42 -155q-41 -74 -115 -115t-155 -41t-155 41q-73 40 -116 115q-41 74 -41 155t42 156q41 74 116 115q74 40 154 40zM500 519q-66 0 -131 -35q-64 -35 -99 -98q-36 -64 -36 -133q0 -68 35 -132q35 -62 98 -98
t133 -36q68 0 132 35q63 35 98.5 98t35.5 133q0 69 -36 133q-35 62 -98 97.5t-132 35.5zM380 357q17 0 28.5 -11.5t11.5 -28.5q0 -16 -11.5 -27.5t-28.5 -11.5q-16 0 -27.5 11.5t-11.5 27.5q0 17 11.5 28.5t27.5 11.5zM619 357q17 0 28.5 -11.5t11.5 -28.5
q0 -16 -11.5 -27.5t-28.5 -11.5q-16 0 -27.5 11.5t-11.5 27.5q0 17 11.5 28.5t27.5 11.5zM356 153l31 17q37 -70 113 -70t113 70l31 -17q-50 -95 -144 -95t-144 95z" />
    <glyph glyph-name="invsmileface" unicode="&#x263b;" horiz-adv-x="1000" 
d="M500 564q79 0 153 -40q75 -41 117 -115q42 -75 42 -156t-42 -155q-41 -74 -115 -115t-155 -41t-155 41q-73 40 -116 115q-41 74 -41 155t42 156q41 74 116 115q74 40 154 40zM380 357q-16 0 -27.5 -11.5t-11.5 -28.5q0 -16 11.5 -27.5t27.5 -11.5q17 0 28.5 11.5
t11.5 27.5q0 17 -11.5 28.5t-28.5 11.5zM619 357q-16 0 -27.5 -11.5t-11.5 -28.5q0 -16 11.5 -27.5t27.5 -11.5q17 0 28.5 11.5t11.5 27.5q0 17 -11.5 28.5t-28.5 11.5zM387 170l-31 -17q50 -95 144 -95t144 95l-31 17q-37 -70 -113 -70t-113 70z" />
    <glyph glyph-name="sun" unicode="&#x263c;" horiz-adv-x="917" 
d="M440 627v165h38v-165q93 -6 170 -69l142 139l25 -26l-140 -140q36 -47 51 -82q19 -48 20 -91h163v-33h-163q-11 -96 -70 -172l139 -142l-28 -24l-138 138q-49 -37 -84 -50q-33 -13 -87 -19v-165h-38v165q-97 12 -168 67l-144 -136l-24 25l139 140q-61 77 -71 173h-164v33
h164q7 94 70 171l-138 140l23 28l143 -138q88 61 170 68zM458 591q-62 0 -124 -32q-59 -32 -92.5 -91.5t-33.5 -126.5q0 -64 32 -125q32 -58 92 -91.5t126 -33.5q64 0 124 33q59 32 92.5 91.5t33.5 125.5t-34 125q-32 59 -91.5 92t-124.5 33z" />
    <glyph glyph-name="female" unicode="&#x2640;" horiz-adv-x="750" 
d="M389 225v-196h224v-29h-224v-186h-29v186h-225v29h225v196q-49 0 -110 32q-60 32 -95.5 93t-35.5 130q0 66 34 127q33 60 93.5 94.5t128.5 34.5q66 0 127 -34q60 -33 94 -94t34 -128q0 -103 -70 -176q-72 -75 -171 -79zM375 708q-57 0 -113 -30q-54 -29 -85 -83.5
t-31 -115.5q0 -95 67 -162t162 -67t162 67t67 162q4 91 -68.5 162.5t-160.5 66.5z" />
    <glyph glyph-name="male" unicode="&#x2642;" horiz-adv-x="750" 
d="M294 643l300 148l17 -8l80 -325l-28 -7l-69 283l-175 -375q71 -35 108.5 -96.5t37.5 -134.5q0 -66 -34 -127q-32 -60 -93 -94.5t-128 -34.5t-128 34q-59 33 -93.5 94t-34.5 128q0 106 75 180q75 75 182 75q39 0 81 -13l176 377l-262 -130zM310 357q-57 0 -113 -30
q-54 -29 -85 -83.5t-31 -115.5q0 -95 67 -162q68 -68 162 -68t162 68q67 67 67 162q0 59 -31 114q-29 54 -83.5 84.5t-114.5 30.5z" />
    <glyph glyph-name="spade" unicode="&#x2660;" horiz-adv-x="656" 
d="M329 601q12 -52 38 -95q28 -42 94 -102q69 -63 86 -94q18 -33 18 -67q0 -46 -31 -77.5t-75 -31.5q-41 0 -75 28q-27 21 -50 65q2 -106 43.5 -152.5t141.5 -56.5l3 -18h-387l4 18q91 0 140 53t47 156q-44 -93 -128 -93q-44 0 -76 32q-31 31 -31 75q0 37 15 65q22 40 72 81
t73 67q35 39 52 72t26 75z" />
    <glyph glyph-name="club" unicode="&#x2663;" horiz-adv-x="656" 
d="M532 17l4 -17h-414l4 17q82 17 107 33q39 25 64.5 74t25.5 103q0 12 -1 23q-58 -117 -159 -117q-57 0 -97 39q-39 40 -39 98t36 95q36 38 81 40q32 -2 81 -26q-33 53 -33 89q0 56 38 94q39 39 97 39q57 0 96 -39q40 -37 40 -92q0 -44 -34 -91q43 21 50 22q12 4 29 4
q49 0 85 -38t36 -95q0 -59 -40 -99q-38 -38 -95 -40q-66 4 -119 55q-18 22 -42 62q2 -77 23 -122.5t67 -75.5q33 -20 109 -35z" />
    <glyph glyph-name="heart" unicode="&#x2665;" horiz-adv-x="656" 
d="M329 -12q-15 60 -43 108q-29 52 -109 157q-69 94 -73 100q-42 65 -42 120q0 53 36 91q36 37 88 37q54 0 95 -39q30 -28 48 -84q17 56 45 84q40 39 93 39q54 0 90 -36q37 -36 37 -86q0 -44 -21 -92q-21 -46 -83 -125q-77 -98 -117 -166q-29 -54 -44 -108z" />
    <glyph glyph-name="diamond" unicode="&#x2666;" horiz-adv-x="656" 
d="M328 603q44 -77 106 -160q80 -107 118 -148q-30 -31 -118 -148q-64 -86 -106 -159q-15 28 -36 59q-45 65 -99 137q-8 10 -89 111q41 46 127 160q55 72 97 148z" />
    <glyph glyph-name="musicalnote" unicode="&#x266a;" 
d="M237 189v477h19q86 0 111 -7q40 -11 68 -38q47 -44 47 -145v-50h-48v21q0 66 -56 92q-35 15 -79 15h-13v-408q0 -60 -16 -92q-16 -33 -54 -52.5t-83 -19.5q-53 0 -84 30t-31 79q0 52 37.5 86.5t96.5 34.5q37 0 85 -23z" />
    <glyph glyph-name="musicalnotedbl" unicode="&#x266b;" horiz-adv-x="750" 
d="M261 145v476l388 121v-541q0 -61 -15 -92q-15 -30 -52.5 -50t-82.5 -20q-53 0 -85 30t-32 79q0 50 37 84q37 36 98 36q33 0 83 -21v353l-291 -90v-408q0 -61 -16 -93q-15 -32 -53 -52t-83 -20q-53 0 -84 30t-31 79q0 52 37.5 86.5t96.5 34.5q40 0 85 -22z" />
    <glyph glyph-name="uniF8FF" unicode="&#xf8ff;" horiz-adv-x="512" 
d="M278 117h-56v67h56v-67zM271 234h-46l-2 17q0 56 13 81q15 28 46 59q31 29 40.5 46t9.5 37q0 36 -22.5 60.5t-53.5 24.5q-71 0 -82 -95l-50 8q7 69 43 103t92 34q54 0 89 -36t35 -95q0 -34 -13 -60t-50 -60q-37 -33 -43 -52q-6 -20 -6 -72zM50 50h412v617h-412v-617z
M0 718h512v-718h-512v718z" />
    <glyph glyph-name="fi" unicode="&#xfb01;" horiz-adv-x="436" 
d="M237 691q37 0 69 -13v-21q-35 15 -69 15q-123 0 -123 -152v-71h127v-18h-127v-431h-20v431h-73v18h73v73q0 81 37 125t106 44zM348 0v449h20v-449h-20zM348 620h20v-84h-20v84z" />
    <glyph glyph-name="fl" unicode="&#xfb02;" horiz-adv-x="440" 
d="M237 691q37 0 69 -13v-21q-35 15 -69 15q-123 0 -123 -152v-71h127v-18h-127v-431h-20v431h-73v18h73v73q0 81 37 125t106 44zM352 682h20v-682h-20v682z" />
    <glyph glyph-name="uniFEFF" unicode="&#xfeff;" horiz-adv-x="0" 
 />
    <glyph glyph-name="zero.denominator" horiz-adv-x="316" 
d="M158 362q62 0 95 -50t33 -134q0 -85 -33 -134.5t-95 -49.5t-95 49t-33 135q0 84 33 134t95 50zM52 178q0 -78 28 -121.5t78 -43.5t78 43.5t28 121.5q0 77 -27.5 121t-79.5 44q-49 0 -77 -43.5t-28 -121.5z" />
    <glyph glyph-name="one.denominator" horiz-adv-x="316" 
d="M173 357h22v-357h-22v333l-105 -64l-14 17z" />
    <glyph glyph-name="two.denominator" horiz-adv-x="316" 
d="M42 0v2q127 114 164 161t37 97q0 37 -26 60t-68 23q-50 0 -99 -36v23q45 32 99 32t85.5 -28t31.5 -74q0 -52 -32 -94.5t-143 -146.5h193v-19h-242z" />
    <glyph glyph-name="three.denominator" horiz-adv-x="316" 
d="M53 14v21q50 -22 93 -22q45 0 72 22.5t27 59.5q0 39 -30.5 61t-84.5 22v18q52 0 81.5 20.5t29.5 56.5q0 30 -25.5 50t-66.5 20q-50 0 -92 -24v20q39 23 94 23q48 0 80 -25.5t32 -63.5q0 -28 -18.5 -51t-49.5 -35q73 -22 73 -92q0 -45 -33.5 -73t-88.5 -28q-52 0 -93 20z
" />
    <glyph glyph-name="four.denominator" horiz-adv-x="316" 
d="M220 362h13v-205h58v-19h-58v-138h-22v138h-187v16zM211 157v164l-155 -164h155z" />
    <glyph glyph-name="five.denominator" horiz-adv-x="316" 
d="M40 15v20q54 -22 98 -22q43 0 74.5 25.5t31.5 71.5q0 43 -30.5 68.5t-81.5 25.5q-34 0 -57 -7v160h167v-20h-146v-117q13 3 37 3q62 0 98.5 -30.5t36.5 -82.5t-35.5 -84t-94.5 -32q-55 0 -98 21z" />
    <glyph glyph-name="six.denominator" horiz-adv-x="316" 
d="M161 -6q-58 0 -90 34t-32 94q0 127 174 243l13 -18q-131 -87 -158 -177q40 26 93 26t84.5 -27.5t31.5 -73.5q0 -44 -32.5 -72.5t-83.5 -28.5zM61 122q0 -52 27 -80.5t73 -28.5q40 0 66.5 23t26.5 59q0 37 -25.5 59.5t-68.5 22.5q-34 0 -66.5 -14.5t-32.5 -40.5z" />
    <glyph glyph-name="seven.denominator" horiz-adv-x="316" 
d="M76 1l185 336h-231v20h269l-203 -364z" />
    <glyph glyph-name="eight.denominator" horiz-adv-x="316" 
d="M39 95q0 30 19.5 54t52.5 35q-64 24 -64 86q0 39 31.5 65.5t79.5 26.5t79.5 -26.5t31.5 -65.5q0 -26 -17 -49.5t-46 -36.5q71 -20 71 -89q0 -45 -33 -73t-86 -28t-86 28.5t-33 72.5zM158 193q37 0 62.5 21.5t25.5 55.5q0 31 -25 52t-64 21q-36 0 -62 -21t-26 -52
q0 -34 26 -55.5t63 -21.5zM61 95q0 -36 27.5 -59t69.5 -23t69 22.5t27 59.5q0 35 -27 57t-70 22q-42 0 -69 -22t-27 -57z" />
    <glyph glyph-name="nine.denominator" horiz-adv-x="316" 
d="M102 -9l-11 17q129 89 157 178q-44 -27 -94 -27q-53 0 -84 27.5t-31 73.5q0 44 32 73t84 29q57 0 89.5 -34.5t32.5 -94.5q0 -128 -175 -242zM61 261q0 -37 26 -60t68 -23q37 0 68 15.5t31 40.5q0 51 -26.5 80t-73.5 29q-40 0 -66.5 -23t-26.5 -59z" />
    <glyph glyph-name="zero.numerator" horiz-adv-x="316" 
d="M158 319q-62 0 -95 49t-33 135q0 85 33 134.5t95 49.5t95 -49.5t33 -134.5t-33 -134.5t-95 -49.5zM158 338q50 0 78 43.5t28 121.5q0 77 -27.5 121t-79.5 44q-49 0 -77 -43.5t-28 -121.5t28 -121.5t78 -43.5z" />
    <glyph glyph-name="one.numerator" horiz-adv-x="316" 
d="M173 682h22v-357h-22v333l-105 -64l-14 17z" />
    <glyph glyph-name="two.numerator" horiz-adv-x="316" 
d="M42 325v2q127 114 164 161t37 97q0 37 -26 60t-68 23q-50 0 -99 -36v23q45 32 99 32t85.5 -28t31.5 -74q0 -52 -32 -94.5t-143 -146.5h193v-19h-242z" />
    <glyph glyph-name="three.numerator" horiz-adv-x="316" 
d="M53 339v21q49 -22 93 -22q45 0 72 22.5t27 59.5q0 39 -30.5 61t-84.5 22v18q52 0 81.5 20.5t29.5 56.5q0 30 -25.5 50t-66.5 20q-50 0 -92 -24v20q39 23 94 23q48 0 80 -25.5t32 -63.5q0 -28 -18.5 -51t-49.5 -35q73 -22 73 -92q0 -45 -33.5 -73t-88.5 -28q-52 0 -93 20z
" />
    <glyph glyph-name="four.numerator" horiz-adv-x="316" 
d="M220 687h13v-205h58v-19h-58v-138h-22v138h-187v16zM211 482v164l-155 -164h155z" />
    <glyph glyph-name="five.numerator" horiz-adv-x="316" 
d="M40 340v20q54 -22 98 -22q43 0 74.5 25.5t31.5 71.5q0 43 -30.5 68.5t-81.5 25.5q-34 0 -57 -7v160h167v-20h-146v-117q13 3 37 3q62 0 98.5 -30.5t36.5 -82.5t-35.5 -84t-94.5 -32q-55 0 -98 21z" />
    <glyph glyph-name="six.numerator" horiz-adv-x="316" 
d="M161 319q-58 0 -90 34t-32 94q0 127 174 243l13 -18q-131 -87 -158 -177q40 26 93 26t84.5 -27.5t31.5 -73.5q0 -44 -32.5 -72.5t-83.5 -28.5zM61 447q0 -52 27 -80.5t73 -28.5q40 0 66.5 23t26.5 59q0 37 -25.5 59.5t-68.5 22.5q-34 0 -66.5 -14.5t-32.5 -40.5z" />
    <glyph glyph-name="seven.numerator" horiz-adv-x="316" 
d="M76 326l185 336h-231v20h269l-203 -364z" />
    <glyph glyph-name="eight.numerator" horiz-adv-x="316" 
d="M39 420q0 30 19.5 54t52.5 35q-64 24 -64 86q0 39 31.5 65.5t79.5 26.5t79.5 -26.5t31.5 -65.5q0 -26 -17 -49.5t-46 -36.5q71 -20 71 -89q0 -45 -33 -73t-86 -28t-86 28.5t-33 72.5zM158 518q37 0 62.5 21.5t25.5 55.5q0 31 -25 52t-64 21q-36 0 -62 -21t-26 -52
q0 -34 26 -55.5t63 -21.5zM61 420q0 -36 27.5 -59t69.5 -23t69 22.5t27 59.5q0 35 -27 57t-70 22q-42 0 -69 -22t-27 -57z" />
    <glyph glyph-name="nine.numerator" horiz-adv-x="316" 
d="M102 316l-11 17q129 89 157 178q-44 -27 -94 -27q-53 0 -84 27.5t-31 73.5q0 44 32 73t84 29q57 0 89.5 -34.5t32.5 -94.5q0 -128 -175 -242zM61 586q0 -37 26 -60t68 -23q37 0 68 15.5t31 40.5q0 51 -26.5 80t-73.5 29q-40 0 -66.5 -23t-26.5 -59z" />
    <glyph glyph-name="acute.cap" horiz-adv-x="294" 
d="M153 728l122 156h24l-126 -156h-20z" />
    <glyph glyph-name="grave.cap" horiz-adv-x="368" 
d="M111 884h24l122 -156h-20z" />
    <glyph glyph-name="circumflex.cap" horiz-adv-x="326" 
d="M29 728l122 156h24l122 -156h-20l-114 141l-114 -141h-20z" />
    <glyph glyph-name="tilde.cap" horiz-adv-x="330" 
d="M89 850q27 0 54 -19t51.5 -37.5t45.5 -18.5q56 0 57 75h20q0 -95 -76 -95q-34 0 -78 37.5t-73 37.5q-56 0 -57 -75h-20q0 47 20.5 71t55.5 24z" />
    <glyph glyph-name="dieresis.cap" horiz-adv-x="229" 
d="M34 828h26v-84h-26v84zM169 828h26v-84h-26v84z" />
    <glyph glyph-name="dotaccent.cap" horiz-adv-x="265" 
d="M118 828h28v-84h-28v84z" />
    <glyph glyph-name="ring.cap" horiz-adv-x="328" 
d="M80 797q0 34 24.5 59t59.5 25t59.5 -25t24.5 -59q0 -35 -24.5 -59.5t-59.5 -24.5t-59.5 24.5t-24.5 59.5zM164 731q27 0 46.5 19.5t19.5 46.5t-19.5 46.5t-46.5 19.5t-46.5 -19.5t-19.5 -46.5t19.5 -46.5t46.5 -19.5z" />
    <glyph glyph-name="breve.cap" horiz-adv-x="324" 
d="M30 854h21q29 -94 111 -94t111 94h21q-29 -114 -132 -114q-50 0 -85.5 30.5t-46.5 83.5z" />
    <glyph glyph-name="macron.cap" horiz-adv-x="333" 
d="M33 794v20h267v-20h-267z" />
    <glyph glyph-name="caron.cap" horiz-adv-x="326" 
d="M151 728l-122 156h20l114 -141l114 141h20l-122 -156h-24z" />
    <glyph glyph-name="hungarumlaut.cap" horiz-adv-x="299" 
d="M57 728l122 156h24l-126 -156h-20zM195 728l122 156h24l-126 -156h-20z" />
    <glyph glyph-name="tonos.cap" horiz-adv-x="333" 
d="M151 517l32 165h30l-44 -165h-18z" />
    <glyph glyph-name="commaaccent" horiz-adv-x="265" 
d="M99 -249v22q32 27 32 77h-18v75h39v-59q-1 -50 -12.5 -72t-40.5 -43z" />
    <glyph glyph-name="caron.alt" horiz-adv-x="90" 
d="M12 508v22q32 27 32 77h-18v75h39v-59q-1 -50 -12.5 -72t-40.5 -43z" />
    <glyph glyph-name="commaaccent.alt" horiz-adv-x="90" 
d="M12 508v22q32 27 32 77h-18v75h39v-59q-1 -50 -12.5 -72t-40.5 -43z" />
    <glyph glyph-name="cyrillicbreve.cap" horiz-adv-x="324" 
d="M14 854h21q24 -94 127 -94q98 0 127 94h21q-32 -114 -148 -114q-56 0 -95.5 30.5t-52.5 83.5z" />
    <glyph glyph-name="breve.cyr" horiz-adv-x="324" 
d="M14 646h21q24 -94 127 -94q98 0 127 94h21q-32 -114 -148 -114q-56 0 -95.5 30.5t-52.5 83.5z" />
    <glyph glyph-name="zero.fitted" horiz-adv-x="498" 
d="M249 -9q-103 0 -159.5 94t-56.5 256q0 161 56 255.5t160 94.5t160 -94.5t56 -255.5t-56 -255.5t-160 -94.5zM249 11q92 0 142.5 87.5t50.5 242.5q0 154 -50 242t-144 88q-91 0 -141.5 -87t-50.5 -243q0 -155 50.5 -242.5t142.5 -87.5z" />
    <glyph glyph-name="one.fitted" horiz-adv-x="338" 
d="M207 691h13v-691h-22v658l-153 -119l-10 16z" />
    <glyph glyph-name="two.fitted" horiz-adv-x="473" 
d="M191 691q90 0 143.5 -51.5t53.5 -137.5q0 -101 -62.5 -192.5t-254.5 -288.5h348v-21h-399l62 63q170 175 226 260.5t56 178.5q0 77 -47 123t-125 46q-87 0 -166 -62v23q77 59 165 59z" />
    <glyph glyph-name="three.fitted" horiz-adv-x="462" 
d="M387 527q0 -60 -38 -105.5t-103 -61.5q72 -18 110.5 -65t38.5 -116q0 -83 -57.5 -135.5t-147.5 -52.5q-85 0 -155 37v23q80 -40 155 -40q83 0 132 46t49 122q0 80 -53.5 125.5t-148.5 45.5v19q91 0 142.5 42.5t51.5 115.5q0 62 -46.5 103t-121.5 41q-84 0 -154 -45v23
q69 42 157 42q80 0 134.5 -47.5t54.5 -116.5z" />
    <glyph glyph-name="four.fitted" horiz-adv-x="501" 
d="M364 691h10v-397h102v-22h-102v-272h-22v272h-326v19zM352 294v350l-296 -350h296z" />
    <glyph glyph-name="five.fitted" horiz-adv-x="468" 
d="M72 682h277v-22h-255v-245q34 6 72 6q103 0 165.5 -57t62.5 -153q0 -98 -60 -159t-158 -61q-88 0 -164 40v22q87 -42 164 -42q88 0 141 55.5t53 144.5q0 87 -56 138t-150 51q-52 0 -92 -10v292z" />
    <glyph glyph-name="six.fitted" horiz-adv-x="504" 
d="M356 691l12 -16q-242 -182 -277 -373q82 67 176 67q87 0 140.5 -51.5t53.5 -136.5q0 -83 -55 -136.5t-140 -53.5q-96 0 -150.5 65t-54.5 176q0 237 295 459zM85 232q0 -104 48 -162.5t133 -58.5q75 0 123 47.5t48 122.5q0 76 -46.5 122t-126.5 46q-37 0 -76 -11t-71 -39
t-32 -67z" />
    <glyph glyph-name="seven.fitted" horiz-adv-x="462" 
d="M94 1l326 659h-410v22h446q-2 -3 -342 -691z" />
    <glyph glyph-name="eight.fitted" horiz-adv-x="481" 
d="M186 354q-56 19 -87 63.5t-31 102.5q0 72 50.5 121.5t123.5 49.5q74 0 124 -49.5t50 -121.5q0 -57 -31.5 -102t-85.5 -64q60 -18 95.5 -64.5t35.5 -108.5q0 -84 -53 -137t-135 -53q-83 0 -135.5 54t-52.5 136q0 63 35 109.5t97 63.5zM92 520q0 -70 42.5 -113.5
t107.5 -43.5t107.5 43.5t42.5 113.5q0 65 -42.5 108t-108.5 43q-63 0 -106 -42t-43 -109zM78 181q0 -76 46 -123t118 -47q73 0 118.5 46.5t45.5 123.5q0 72 -45.5 117t-119.5 45q-72 0 -117.5 -45t-45.5 -117z" />
    <glyph glyph-name="nine.fitted" horiz-adv-x="504" 
d="M148 -9l-12 16q126 96 193 186.5t84 186.5q-81 -67 -176 -67q-87 0 -140.5 51.5t-53.5 136.5q0 82 54.5 136t140.5 54q96 0 150.5 -65t54.5 -176q0 -242 -295 -459zM67 501q0 -76 47 -122t124 -46q68 0 124.5 31t56.5 86q0 103 -48 162t-134 59q-73 0 -121.5 -47.5
t-48.5 -122.5z" />
    <glyph glyph-name="zero.taboldstyle" 
d="M249 458q96 0 157 -64t61 -169q0 -107 -60 -170.5t-158 -63.5t-158 64t-60 170t61 169.5t157 63.5zM54 225q0 -104 56 -159t139 -55q81 0 138 54.5t57 159.5q0 104 -56.5 158.5t-139.5 54.5q-81 0 -137.5 -54.5t-56.5 -158.5z" />
    <glyph glyph-name="one.taboldstyle" 
d="M295 458h13v-458h-22v425l-153 -119l-10 16z" />
    </font>
</defs>
</svg>
