<?xml version="1.0" standalone="no"?>
<!DOCTYPE svg PUBLIC "-//W3C//DTD SVG 1.1//EN" "http://www.w3.org/Graphics/SVG/1.1/DTD/svg11.dtd" >
<svg xmlns="http://www.w3.org/2000/svg" xmlns:xlink="http://www.w3.org/1999/xlink" version="1.1">
<metadata>
Created by FontForge 20170731 at Fri Jan  1 02:30:17 1904
 By Aleksey,,,
Copyright 2015 (c) The Monotype Corporation. All rights reserved.
</metadata>
<defs>
<font id="GillSansNova-Bold" horiz-adv-x="725" >
  <font-face 
    font-family="Gill Sans Nova for JL"
    font-weight="400"
    font-stretch="normal"
    units-per-em="1024"
    panose-1="0 0 0 0 0 0 0 0 0 0"
    ascent="819"
    descent="-205"
    x-height="497"
    cap-height="698"
    bbox="-487 -283 1307.1 984"
    underline-thickness="83"
    underline-position="-125"
    unicode-range="U+0020-FEFF"
  />
<missing-glyph horiz-adv-x="0" 
 />
    <glyph glyph-name=".notdef" horiz-adv-x="0" 
 />
    <glyph glyph-name="glyph1" horiz-adv-x="0" 
 />
    <glyph glyph-name="nonmarkingreturn" horiz-adv-x="341" 
 />
    <glyph glyph-name="space" unicode=" " horiz-adv-x="298" 
 />
    <glyph glyph-name="exclam" unicode="!" horiz-adv-x="300" 
d="M242 557q0 -30 -4 -69q-4 -38 -13 -85q-8 -45 -17 -81q-10 -36 -20 -62q-3 -10 -7 -18q-3 -6 -9 -12q-4 -3 -10 -6q-4 -2 -11 -2t-13 2q-4 3 -9 6q-3 6 -7 12q-3 8 -7 17q-8 25 -17 61q-8 36 -20 80q-9 46 -15 85t-6 71q1 39 7 66t20 47q15 21 31 29q16 10 36 10t36 -9
q17 -9 29 -29q14 -20 19 -48q7 -27 7 -65zM216 152q15 -14 21 -31q7 -15 7 -36q0 -18 -7 -36q-5 -16 -20 -31q-14 -12 -30 -20q-16 -6 -36 -7q-20 1 -36 7q-15 8 -31 20q-14 15 -21 31q-8 18 -8 36q1 21 7 36q8 17 21 31q15 14 31 20q18 8 37 7q20 1 36 -7q17 -6 29 -20z
" />
    <glyph glyph-name="quotedbl" unicode="&#x22;" horiz-adv-x="467" 
d="M32 698h172v-121q-8 -36 -30 -146h-113q-7 36 -29 146v121zM263 698h172v-121q-7 -36 -28 -146h-114q-8 36 -30 146v121z" />
    <glyph glyph-name="numbersign" unicode="#" horiz-adv-x="683" 
d="M227 712h105q-9 -48 -39 -191h170q10 49 40 191h104q-9 -48 -40 -191h78v-101h-98q-8 -36 -30 -146h128v-101h-149l-40 -188h-105q11 47 39 188h-171q-9 -47 -39 -188h-105l40 188h-77v101h97q9 38 31 146h-128v101h149q10 49 40 191zM271 420q-6 -36 -30 -146h170
q8 38 30 146h-170z" />
    <glyph glyph-name="dollar" unicode="$" horiz-adv-x="580" 
d="M334 -9v-113h-85v113q-51 6 -103 24q-50 19 -101 51v137q49 -41 100 -67q53 -24 104 -34v186q-105 27 -157 77q-52 51 -53 122q0 37 14 69q15 32 41 58q28 28 67 44q39 18 88 23v47h85v-47q52 -8 98 -26q46 -16 84 -46v-137q-42 38 -88 61q-44 26 -94 36v-161
q56 -16 95 -39q41 -21 65 -47q26 -26 37 -58q13 -33 13 -73q0 -36 -14 -69q-12 -32 -41 -62q-27 -28 -66 -46q-38 -16 -89 -23zM334 261v-159q18 4 32 11q15 7 24 16q12 10 16 22q6 13 5 27q1 16 -5 27q-4 11 -14 20q-9 9 -24 19q-14 9 -34 17zM249 432v139q-17 -1 -32 -7
q-14 -6 -24 -15q-9 -9 -16 -20q-5 -10 -5 -24q0 -25 19 -43t58 -30z" />
    <glyph glyph-name="percent" unicode="%" horiz-adv-x="756" 
d="M366 545q0 -35 -12 -65q-12 -28 -37 -54q-24 -24 -54 -37q-28 -12 -64 -12h-6q-31 2 -58 12q-30 12 -54 36q-24 26 -36 54q-12 30 -12 66t12 64q12 29 36 53t54 35q31 12 64 12q36 0 64 -12q29 -11 53 -35q26 -24 37 -53q13 -30 13 -64zM575 709h95q-122 -180 -488 -718
h-95q123 180 488 718zM198 616q-14 0 -26 -4t-24 -16q-9 -10 -15 -24q-5 -12 -5 -28t5 -28q6 -12 15 -24q12 -10 24 -17q12 -6 27 -6q15 1 27 5q14 6 23 16q12 12 15 25q6 14 5 29q1 16 -5 28q-3 12 -15 23q-11 12 -23 16q-12 5 -28 5zM556 323q36 0 64 -12q30 -10 54 -36
q24 -23 37 -53q12 -28 12 -64q0 -34 -12 -64q-12 -28 -36 -54q-24 -24 -54 -37q-29 -12 -65 -12q-34 0 -64 12q-28 12 -54 36q-24 24 -36 54q-12 31 -12 65q0 36 12 64q12 30 36 52q26 26 55 37q30 12 63 12zM556 83q16 1 28 5q12 6 22 16q12 12 16 24q6 14 5 29q1 16 -5 28
q-4 14 -16 24q-10 12 -23 16q-13 5 -28 5t-26 -4t-23 -16q-9 -10 -15 -24q-6 -12 -6 -29q1 -15 5 -29q6 -12 15 -24q11 -10 23 -16q14 -4 28 -5z" />
    <glyph glyph-name="ampersand" unicode="&#x26;" horiz-adv-x="781" 
d="M336 435q42 21 61 45q21 24 20 50q1 15 -5 25q-3 11 -15 20q-9 11 -23 14q-14 5 -31 5q-15 0 -29 -4q-12 -4 -22 -13q-8 -9 -14 -19t-6 -22q0 -18 16 -43t48 -58zM42 164q0 30 9 54q9 26 26 47q18 22 48 48q32 26 74 53q-39 40 -58 79q-20 39 -20 76t14 67q15 32 42 58
q30 28 70 41q41 13 92 13q49 0 85 -12q38 -12 64 -39q28 -26 41 -54q15 -28 14 -60q0 -51 -33 -96t-99 -84q31 -33 94 -103q24 21 42 47q20 27 35 56h146q-24 -54 -60 -104q-33 -47 -78 -91q50 -54 146 -160h-202l-56 60q-48 -34 -103 -52q-52 -16 -112 -17q-51 1 -90 13
t-71 37q-30 26 -45 56q-15 31 -15 67zM194 179q0 -13 6 -25t17 -25q13 -10 29 -18q16 -6 38 -6q27 0 54 12q28 12 58 34q-39 43 -120 130q-40 -27 -62 -52q-20 -24 -20 -50z" />
    <glyph glyph-name="quoteright" unicode="'" horiz-adv-x="284" 
d="M130 708q26 0 46 -11q20 -9 35 -30q15 -19 22 -45q9 -24 8 -54q1 -36 -13 -68q-12 -32 -40 -62q-26 -27 -63 -47q-37 -17 -85 -26v29q34 16 51 49t17 82q-36 11 -53 32q-18 23 -18 56q0 21 6 37q8 16 20 30q15 15 31 21q18 7 36 7z" />
    <glyph glyph-name="quoteright" unicode="&#x2019;" horiz-adv-x="284" 
d="M130 708q26 0 46 -11q20 -9 35 -30q15 -19 22 -45q9 -24 8 -54q1 -36 -13 -68q-12 -32 -40 -62q-26 -27 -63 -47q-37 -17 -85 -26v29q34 16 51 49t17 82q-36 11 -53 32q-18 23 -18 56q0 21 6 37q8 16 20 30q15 15 31 21q18 7 36 7z" />
    <glyph glyph-name="parenleft" unicode="(" horiz-adv-x="375" 
d="M287 708h109q-48 -54 -83 -110q-34 -54 -58 -113q-21 -56 -34 -120q-11 -63 -11 -133q0 -135 47 -253q46 -117 139 -220h-109q-55 48 -100 102q-43 54 -76 114q-33 63 -49 126q-16 65 -16 131q0 129 60 247q62 119 181 229z" />
    <glyph glyph-name="parenright" unicode=")" horiz-adv-x="375" 
d="M88 -241h-110q51 57 85 111q37 56 58 113q23 57 33 119q12 63 11 132q0 136 -46 254q-47 118 -141 220h110q60 -52 105 -109q45 -55 75 -112q32 -56 46 -119q15 -63 15 -132q0 -129 -60 -249q-59 -118 -181 -228z" />
    <glyph glyph-name="asterisk" unicode="*" horiz-adv-x="542" 
d="M330 684q0 -6 -2 -17q-2 -9 -6 -24q-12 -41 -39 -127q8 0 14 -4q8 -3 11 -9q32 33 91 99q15 15 25 23q12 9 19 8q9 1 17 -7q9 -6 19 -22q13 -14 17 -27q6 -13 6 -27q0 -8 -3 -13q-1 -5 -7 -11q-4 -4 -15 -7l-24 -8q-44 -11 -132 -32q1 -3 1 -6q2 -3 1 -7q1 -2 -1 -6
q0 -3 -1 -9q41 -9 125 -28q28 -5 42 -17q14 -10 14 -25q0 -12 -5 -24q-5 -13 -17 -28q-10 -15 -20 -22q-8 -8 -17 -8t-21 8q-12 9 -26 24q-28 33 -88 97l-12 -8q-6 -3 -13 -5q12 -39 38 -118q4 -15 6 -28q3 -12 2 -21q0 -18 -15 -28q-14 -9 -44 -9q-28 0 -43 9
q-15 10 -15 28q0 6 2 18q4 12 7 29q13 40 37 120q-6 2 -13 5l-12 8q-29 -32 -89 -96q-15 -16 -27 -25q-11 -8 -20 -8q-7 1 -16 7q-9 8 -20 22q-9 15 -16 27q-5 15 -5 26q0 9 2 13q4 6 8 10q6 6 17 9q11 5 26 8q44 10 128 30q-1 3 -1 6t-1 8q1 6 1 9q0 4 1 5q-44 11 -131 32
q-14 5 -24 8l-16 8q-4 5 -7 11t-3 12q0 12 6 25q6 15 16 28q12 15 21 23t15 7q10 1 21 -8q13 -8 25 -24q30 -33 89 -98q7 7 13 10t12 3q-12 42 -38 126q-3 16 -6 26q-2 10 -2 15q0 18 15 27t43 9q30 0 45 -9q15 -8 15 -26z" />
    <glyph glyph-name="plus" unicode="+" horiz-adv-x="595" 
d="M45 288v128h188v194h128v-194h188v-128h-188v-195h-128v195h-188z" />
    <glyph glyph-name="comma" unicode="," horiz-adv-x="284" 
d="M130 184q26 0 46 -9t35 -32q15 -19 22 -45q9 -24 8 -53q1 -35 -13 -68q-12 -33 -40 -62q-26 -27 -63 -47q-37 -18 -85 -26v28q34 16 51 49t17 83q-36 12 -53 33q-18 23 -18 56q1 20 7 36q8 16 21 30q14 14 30 20q17 7 35 7z" />
    <glyph glyph-name="hyphen" unicode="-" horiz-adv-x="451" 
d="M73 323h304v-147h-304v147z" />
    <glyph glyph-name="period" unicode="." horiz-adv-x="268" 
d="M226 82q0 -18 -6 -33t-20 -31q-14 -12 -30 -21q-16 -7 -36 -7q-18 0 -34 6q-16 8 -30 20q-14 15 -21 31q-7 17 -7 35q0 20 6 35q8 17 21 29q14 15 30 21q17 6 35 6q20 0 35 -6q16 -6 30 -21q14 -12 20 -30q7 -16 7 -34z" />
    <glyph glyph-name="slash" unicode="/" horiz-adv-x="323" 
d="M201 708h108q-47 -180 -188 -717h-108q47 180 188 717z" />
    <glyph glyph-name="zero" unicode="0" horiz-adv-x="580" 
d="M201 348q1 -57 5 -101q6 -42 15 -70q12 -27 28 -41q17 -14 41 -14q45 0 66 56q22 57 22 168q0 116 -22 173q-22 58 -67 58q-44 0 -66 -57q-21 -56 -22 -172zM291 708q57 0 101 -24q46 -22 82 -72q38 -46 55 -113q18 -66 18 -150t-18 -150q-17 -66 -55 -114
q-36 -47 -82 -71q-45 -22 -102 -23q-57 1 -103 23q-45 24 -83 71q-34 48 -53 114q-18 65 -18 149q0 88 18 154q19 66 55 112q38 48 83 70q48 24 102 24z" />
    <glyph glyph-name="one" unicode="1" horiz-adv-x="364" 
d="M318 0h-171v483q-25 -21 -101 -84v151q38 40 154 158h118v-708z" />
    <glyph glyph-name="two" unicode="2" horiz-adv-x="580" 
d="M267 708q50 0 89 -15q40 -15 71 -45q32 -28 47 -68q15 -39 15 -87q0 -22 -3 -46q-3 -23 -12 -47q-8 -22 -19 -47q-12 -23 -28 -49q-15 -24 -28 -44q-12 -18 -24 -33q-9 -13 -25 -31q-14 -18 -33 -41q-3 -6 -7 -10q-3 -3 -6 -7h237v-138h-501v11q28 29 51 53t43 47
q21 23 43 49q23 27 47 59q27 33 45 64q19 31 33 61q15 32 21 58q7 28 7 52q0 28 -8 49t-23 36t-34 22q-18 7 -40 7q-42 0 -84 -22t-82 -69v154q55 39 106 57q52 20 102 20z" />
    <glyph glyph-name="three" unicode="3" horiz-adv-x="580" 
d="M486 521q0 -24 -5 -46q-5 -21 -19 -43q-12 -20 -29 -36t-39 -29q52 -25 78 -67t26 -103q0 -49 -18 -88q-18 -38 -53 -65q-34 -26 -78 -40q-41 -12 -91 -13q-48 0 -95 12q-46 13 -91 35v142q39 -30 78 -46t78 -16q24 0 43 5q18 6 32 18q15 14 21 29q8 18 7 37q1 51 -35 74
q-34 25 -106 25v107q68 1 99 22q33 23 33 68q0 19 -7 34q-5 15 -20 27q-13 14 -31 19q-16 6 -40 6q-30 1 -64 -11q-33 -10 -71 -32v122q42 21 84 30q44 10 89 10q52 0 92 -12t71 -38q31 -24 46 -59q15 -33 15 -78z" />
    <glyph glyph-name="four" unicode="4" horiz-adv-x="580" 
d="M348 701h116v-417h81v-110h-81v-174h-158v174h-287v107q83 105 329 420zM306 284v218q-42 -54 -169 -218h169z" />
    <glyph glyph-name="five" unicode="5" horiz-adv-x="580" 
d="M102 698h374v-130h-238v-136q18 2 36 2v0q54 0 94 -15q42 -15 74 -46q34 -31 49 -70q16 -39 16 -85q0 -48 -16 -88q-15 -40 -49 -74q-32 -32 -76 -49q-45 -15 -102 -16q-57 0 -111 15q-53 16 -99 44v136q20 -12 42 -24t47 -22q27 -8 49 -14q22 -4 40 -5q27 1 47 7
q19 8 33 22q16 15 22 31q8 18 7 36q0 26 -10 44q-9 19 -30 33q-19 15 -45 21q-24 7 -55 7q-29 0 -53 -5q-24 -3 -46 -13v394z" />
    <glyph glyph-name="six" unicode="6" horiz-adv-x="580" 
d="M194 237q0 -24 7 -44q9 -20 22 -35q17 -14 33 -22q18 -8 36 -8q24 0 41 8q19 8 31 23q14 15 19 33q6 18 6 38q0 24 -6 42t-21 31q-12 15 -31 20q-18 7 -40 7q-21 0 -39 -7q-16 -5 -31 -20q-13 -12 -21 -30q-6 -15 -6 -36zM314 709q36 -15 139 -63q-67 -51 -115 -105
q-46 -53 -74 -105q16 6 32 9q16 4 34 4q46 0 84 -15q39 -14 69 -46q33 -30 47 -70q16 -38 16 -89q0 -49 -18 -91q-18 -40 -53 -77q-35 -35 -80 -53q-45 -16 -99 -17q-60 1 -107 19q-47 20 -83 58q-34 38 -52 86q-16 48 -17 106q0 124 69 235q70 112 208 214z" />
    <glyph glyph-name="seven" unicode="7" horiz-adv-x="580" 
d="M47 698h503v-15q-76 -173 -302 -692q-34 13 -138 47q57 132 225 524h-288v136z" />
    <glyph glyph-name="eight" unicode="8" horiz-adv-x="580" 
d="M207 501q0 -21 6 -39q6 -16 18 -31q13 -13 28 -21q15 -6 32 -7q17 1 31 7q15 8 27 21q13 15 19 31q6 18 6 38q0 21 -5 37q-5 17 -17 31q-10 16 -26 22q-14 8 -34 7q-20 1 -36 -7q-15 -6 -27 -22q-9 -14 -16 -31q-6 -16 -6 -36zM188 203q0 -22 7 -42q7 -19 22 -34t34 -22
q19 -8 40 -8q21 1 39 7q20 8 32 23q16 15 22 35q8 20 7 42q1 24 -7 41q-6 19 -23 34q-14 15 -32 22q-19 7 -40 7t-38 -7q-18 -7 -33 -22q-14 -15 -22 -35q-8 -18 -8 -41zM291 708q57 0 101 -15q44 -13 74 -45q32 -30 45 -64q15 -34 15 -73q0 -47 -21 -85t-67 -67
q26 -13 46 -31t33 -41q15 -23 22 -47t7 -52q0 -16 -3 -32q-3 -15 -11 -33q-6 -15 -16 -32q-10 -15 -24 -32q-14 -15 -34 -27t-46 -22q-26 -8 -57 -14q-29 -4 -65 -5q-64 0 -114 15q-48 15 -80 45q-30 32 -46 65q-16 36 -16 73q0 27 7 50q8 25 20 47q15 24 34 41q21 20 46 32
q-43 30 -64 68q-21 39 -22 83q0 39 15 72q16 34 46 64q30 32 74 46q44 16 101 16z" />
    <glyph glyph-name="nine" unicode="9" horiz-adv-x="580" 
d="M190 467q0 -21 7 -39t19 -32q15 -14 31 -20q17 -6 37 -7q24 0 41 6q18 6 32 18q17 14 23 30q8 18 7 39q1 24 -7 42q-6 20 -21 35q-13 16 -31 24q-18 7 -41 7q-21 0 -39 -6q-16 -6 -31 -22q-12 -15 -20 -33q-7 -18 -7 -42zM284 708q58 0 105 -19q49 -18 83 -57
q36 -39 54 -87q18 -47 18 -107q0 -58 -19 -119q-17 -59 -55 -119q-36 -60 -88 -113q-50 -51 -116 -97q-45 21 -138 61q68 53 114 105q48 54 73 107q-29 -11 -62 -11q-32 0 -66 9q-33 9 -61 28t-49 47q-21 30 -32 62q-11 34 -11 72q0 50 17 90q19 42 53 77q38 35 81 53
q45 18 99 18z" />
    <glyph glyph-name="colon" unicode=":" horiz-adv-x="271" 
d="M135 173q20 0 35 -6q16 -6 30 -21q14 -12 20 -30q8 -16 7 -34q0 -18 -6 -35q-5 -15 -20 -30q-12 -12 -30 -20q-15 -7 -36 -7q-18 0 -34 6q-16 8 -30 20q-13 15 -21 31q-6 17 -7 35q1 20 7 35q8 17 21 29q14 15 30 21t34 6zM135 506q20 0 35 -7q16 -6 30 -21
q14 -14 20 -30q8 -16 7 -34q0 -18 -6 -35q-5 -15 -20 -30q-12 -13 -30 -21q-15 -6 -36 -6q-18 0 -34 6t-30 20q-13 15 -21 31q-6 17 -7 35q1 20 7 35q8 15 21 29q14 15 30 21q16 7 34 7z" />
    <glyph glyph-name="semicolon" unicode=";" horiz-adv-x="287" 
d="M134 184v0q2 0 1 0q25 0 45 -9t35 -32q15 -19 23 -45q8 -24 7 -53q1 -35 -13 -68q-12 -33 -39 -62q-27 -27 -64 -47q-37 -18 -85 -26v28q34 16 51 49t17 83q-36 12 -53 33q-18 23 -18 56q0 20 6 36q7 16 21 30t30 20q18 7 35 7h1zM137 322q-7 0 -18 1v0q-7 2 -16 5
q-15 6 -30 20q-13 15 -21 31q-6 17 -7 35q0 20 6 35q7 15 21 29q15 15 30 21q18 7 35 7q20 0 35 -7q16 -6 30 -21q14 -14 20 -30q8 -16 7 -34q0 -18 -6 -35q-5 -15 -20 -30q-12 -13 -30 -21q-15 -6 -36 -6z" />
    <glyph glyph-name="less" unicode="&#x3c;" horiz-adv-x="595" 
d="M45 298v94q126 58 504 230v-140q-81 -33 -323 -138q21 -9 61 -27l105 -45q66 -26 104 -43q39 -16 53 -24v-137q-126 58 -504 230z" />
    <glyph glyph-name="equal" unicode="=" horiz-adv-x="595" 
d="M45 154v128h504v-128h-504zM45 420v128h504v-128h-504z" />
    <glyph glyph-name="greater" unicode="&#x3e;" horiz-adv-x="595" 
d="M46 68v137q81 35 323 140q-19 11 -63 29q-42 18 -108 45t-103 43t-49 20v140q126 -58 503 -230v-94q-125 -58 -503 -230z" />
    <glyph glyph-name="question" unicode="?" horiz-adv-x="378" 
d="M36 558q12 34 46 137q24 7 44 10q21 3 39 3q39 0 69 -10q33 -9 55 -30q25 -20 35 -48q12 -27 12 -61q0 -41 -23 -83q-21 -42 -68 -87q-36 -37 -54 -71t-18 -66q0 -8 2 -16q3 -6 5 -9v0q-40 5 -62 23q-22 20 -22 56q0 24 10 53q10 30 29 66q17 31 25 55t8 44q0 14 -4 23
q-3 11 -12 17q-8 10 -20 13q-12 4 -30 4q-15 0 -33 -6q-17 -5 -33 -17zM158 179h2v0q18 1 33 -7q15 -6 29 -20q15 -14 21 -31q7 -15 7 -36q0 -18 -7 -36q-5 -16 -20 -31q-14 -12 -30 -20q-15 -6 -36 -7q-20 1 -36 7q-15 8 -30 20q-13 15 -21 31q-6 18 -7 36q1 21 7 36
q8 17 21 31q15 14 31 20q16 8 36 7z" />
    <glyph glyph-name="at" unicode="@" horiz-adv-x="968" 
d="M764 27q14 -18 51 -74q-66 -55 -159 -83q-92 -28 -211 -28q-92 0 -167 28q-75 30 -132 84q-56 57 -85 133q-27 78 -28 174q0 95 33 176q34 81 101 145q68 66 156 97q88 33 198 33q93 0 166 -23q75 -23 132 -69q60 -46 87 -108q30 -60 29 -138q1 -72 -19 -128
q-18 -57 -58 -99q-38 -41 -92 -62q-52 -20 -121 -20q-21 1 -41 4q-18 6 -33 15q-13 12 -22 25q-9 14 -12 30q-36 -36 -75 -56q-39 -18 -81 -18q-31 1 -57 11q-24 12 -43 36q-18 24 -27 56t-9 70q0 62 18 111q19 51 58 90q39 40 94 60q57 21 131 20q40 1 81 -5q42 -6 81 -18
q-16 -88 -50 -268q0 -12 -2 -21t-2 -16q0 -12 6 -18q6 -7 18 -7q34 0 61 15t46 44q21 32 31 68q10 37 10 82q0 57 -20 101t-60 77q-39 35 -96 50q-56 17 -129 17q-90 0 -160 -25q-69 -24 -120 -75q-49 -48 -75 -114q-24 -64 -25 -145q0 -75 21 -135t60 -104q42 -44 98 -66
q58 -22 132 -23q96 0 175 24q79 25 137 70zM538 234q9 45 31 175q-5 3 -17 4t-29 1q-33 0 -61 -12q-27 -12 -48 -35q-20 -23 -31 -53q-9 -30 -10 -65q1 -41 16 -62q17 -21 47 -21q26 0 50 17q26 18 52 51z" />
    <glyph glyph-name="A" unicode="A" horiz-adv-x="795" 
d="M304 699h183q77 -174 308 -699h-181q-16 40 -67 161h-300q-16 -39 -67 -161h-180q76 176 304 699zM396 527q-26 -63 -103 -254h208q-25 65 -105 254z" />
    <glyph glyph-name="B" unicode="B" horiz-adv-x="699" 
d="M75 698h297q56 0 99 -11q43 -10 75 -34q33 -22 48 -54q15 -30 15 -70q0 -24 -6 -48q-6 -23 -20 -44q-13 -20 -33 -35q-18 -15 -41 -24q76 -22 114 -69q37 -45 37 -113q0 -54 -18 -92t-57 -60q-38 -21 -90 -33q-51 -11 -117 -11h-303v698zM251 590v-181h75q58 1 87 23
q28 24 28 69q0 24 -6 40q-4 18 -19 27q-12 12 -34 16q-21 6 -49 6h-82zM251 109h92q72 1 106 23q34 24 34 72q0 50 -34 73q-34 24 -106 24h-92v-192z" />
    <glyph glyph-name="C" unicode="C" horiz-adv-x="750" 
d="M434 708q66 0 130 -14q66 -12 130 -41v-161q-58 38 -116 56q-57 18 -114 18q-56 0 -100 -15t-76 -48q-32 -32 -48 -72q-16 -39 -16 -85q0 -44 16 -82t48 -69q33 -31 75 -47q43 -16 97 -16q62 0 121 19q60 19 117 58v-157q-56 -30 -123 -46q-66 -15 -144 -15
q-88 1 -160 25q-69 26 -123 76q-51 52 -78 115q-26 66 -26 142q0 83 28 146q28 66 82 114q56 50 125 74q71 25 155 25z" />
    <glyph glyph-name="D" unicode="D" horiz-adv-x="810" 
d="M75 698h295q96 0 168 -23q74 -22 125 -72q53 -47 77 -110q26 -63 26 -142q0 -82 -25 -148q-23 -65 -74 -111q-49 -45 -121 -69q-72 -23 -166 -23h-305v698zM251 128h111q114 0 168 55q56 55 56 165q0 54 -15 95q-15 43 -45 71q-28 30 -72 45q-42 15 -98 14h-105v-445z
" />
    <glyph glyph-name="E" unicode="E" horiz-adv-x="614" 
d="M75 698h478v-125h-302v-153h289v-125h-289v-170h310v-125h-486v698z" />
    <glyph glyph-name="F" unicode="F" horiz-adv-x="580" 
d="M75 698h459v-125h-283v-152h283v-126h-283v-295h-176v698z" />
    <glyph glyph-name="G" unicode="G" horiz-adv-x="799" 
d="M711 654v-145q-53 33 -113 48q-58 15 -123 15q-31 0 -61 -4q-27 -4 -54 -16q-24 -9 -44 -23q-20 -12 -34 -30q-14 -17 -25 -35q-10 -16 -18 -37q-7 -18 -11 -39q-4 -20 -4 -41q0 -45 16 -84q15 -39 48 -70t75 -47q43 -16 97 -16q26 0 53 4q27 6 53 12v102h-106v125h264
v-324q-70 -29 -144 -44q-72 -14 -148 -14q-87 1 -159 25q-71 26 -123 74q-52 51 -79 114q-27 66 -27 143t26 140q27 65 78 116q54 52 126 78q72 27 165 27q67 0 135 -14q68 -12 137 -40z" />
    <glyph glyph-name="H" unicode="H" horiz-adv-x="840" 
d="M75 698h176v-270h338v270h176v-698h-176v282h-338v-282h-176v698z" />
    <glyph glyph-name="I" unicode="I" horiz-adv-x="326" 
d="M75 698h176v-698h-176v698z" />
    <glyph glyph-name="J" unicode="J" horiz-adv-x="336" 
d="M85 698h176v-642q1 -33 -2 -61q0 -28 -6 -52q-4 -22 -12 -46q-8 -21 -20 -42q-10 -20 -28 -36q-16 -15 -40 -26q-23 -10 -51 -16q-28 -5 -62 -5q-14 0 -29 1q-15 3 -34 5q-9 50 -27 146q46 0 73 7q30 7 39 19q12 14 17 44q6 32 6 80v624z" />
    <glyph glyph-name="K" unicode="K" horiz-adv-x="760" 
d="M75 698h176v-321q66 81 264 321h197q-68 -81 -273 -327q81 -93 324 -371h-219q-72 86 -293 339v-339h-176v698z" />
    <glyph glyph-name="L" unicode="L" horiz-adv-x="595" 
d="M75 698h176v-554h316v-144h-492v698z" />
    <glyph glyph-name="M" unicode="M" horiz-adv-x="908" 
d="M75 698h161q54 -66 219 -269q54 68 219 269h160v-698h-177v446q-49 -60 -196 -244h-17q-48 62 -197 244v-446h-172v698z" />
    <glyph glyph-name="N" unicode="N" horiz-adv-x="870" 
d="M75 698h154q99 -108 393 -435v435h174v-698h-157q-97 110 -391 434v-434h-173v698z" />
    <glyph glyph-name="O" unicode="O" horiz-adv-x="863" 
d="M433 708q89 0 158 -25q72 -25 123 -77q54 -50 79 -115q27 -63 26 -142q1 -75 -25 -139t-78 -116q-52 -50 -124 -77q-70 -26 -162 -26q-60 1 -113 13t-98 37q-44 25 -77 58t-55 72q-21 40 -32 84q-11 45 -11 93q0 27 3 53q3 25 10 51q9 26 19 50q12 24 26 47q16 24 34 44
q20 21 41 38q23 17 50 31q28 14 61 24q34 12 70 16q36 6 75 6zM431 554q-47 0 -85 -14q-36 -12 -65 -42q-27 -28 -42 -66t-15 -84q0 -44 15 -81q15 -35 43 -65q30 -28 66 -43q38 -15 82 -15q48 0 84 14q38 15 67 42t43 65q15 39 15 85q1 44 -14 79q-14 36 -41 66t-66 44
q-38 15 -87 15z" />
    <glyph glyph-name="P" unicode="P" horiz-adv-x="655" 
d="M75 698h295q60 0 107 -13q48 -14 81 -42q36 -27 52 -67q18 -40 17 -91q0 -45 -16 -83q-15 -38 -48 -68q-31 -28 -77 -44t-108 -16h-127v-274h-176v698zM251 579v-185h88q54 0 81 23q26 23 26 68q0 25 -6 43t-20 28q-14 12 -36 17q-22 6 -52 6h-81z" />
    <glyph glyph-name="Q" unicode="Q" horiz-adv-x="863" 
d="M848 349q0 -54 -17 -105q-16 -51 -52 -99q-33 -47 -80 -80q-46 -33 -106 -53q51 -28 117 -43q66 -14 148 -14q-44 -39 -136 -116q-48 3 -98 16t-102 34q-50 24 -98 51q-46 30 -89 63q-65 15 -119 48q-52 33 -91 81q-37 50 -58 104q-19 56 -19 113q0 33 6 64q8 33 20 63
q14 33 32 61t42 54q26 27 57 47q33 22 70 37q41 17 83 25q44 8 91 8q48 0 90 -8q43 -6 82 -24q39 -16 70 -38q31 -20 55 -47q26 -25 44 -55q18 -27 31 -60q15 -30 20 -63q7 -31 7 -64zM608 195q32 29 46 68q15 39 15 86q0 49 -15 87q-14 40 -46 68q-30 30 -70 44
q-39 14 -89 14t-90 -14q-39 -14 -70 -44q-31 -28 -46 -68q-15 -38 -16 -87q0 -47 15 -86q16 -39 46 -68t71 -44q40 -15 90 -15t89 15q40 15 70 44z" />
    <glyph glyph-name="R" unicode="R" horiz-adv-x="712" 
d="M75 698h291q60 0 106 -14t78 -43q34 -29 49 -68q16 -38 16 -86q0 -59 -28 -103q-29 -44 -86 -70q18 -9 30 -21q15 -11 26 -27q12 -14 27 -37q15 -21 30 -53q32 -58 92 -176h-193q-19 40 -81 158q-18 39 -35 63q-17 27 -33 37q-15 12 -36 18t-45 6h-32v-282h-176v698z
M251 579v-184h74q27 1 48 5q21 6 35 15q15 10 21 28q7 18 7 42q0 48 -27 70q-27 24 -81 24h-77z" />
    <glyph glyph-name="S" unicode="S" horiz-adv-x="570" 
d="M286 708q60 0 112 -14q54 -14 99 -42v-149q-50 39 -98 58q-48 21 -96 20q-20 0 -35 -4q-16 -3 -26 -13q-10 -8 -16 -20q-6 -10 -6 -25q0 -12 6 -24q6 -10 16 -22q10 -9 32 -23q22 -12 52 -29q52 -25 90 -51t61 -49q25 -23 37 -56q12 -32 11 -71q1 -46 -17 -82
q-16 -36 -50 -65q-33 -27 -78 -42q-44 -14 -98 -14q-56 0 -113 14q-57 15 -115 44v158q54 -42 105 -63t100 -21q23 1 39 4q16 5 28 14q12 11 18 21q6 12 5 24q1 16 -5 28q-4 14 -17 24q-11 12 -38 26q-26 16 -66 35q-13 9 -27 14q-12 6 -21 12t-20 14q-10 8 -25 17
q-12 12 -24 21q-9 11 -18 20q-8 12 -14 24q-6 13 -13 28q-6 15 -9 32t-3 33q1 42 16 76q17 36 47 62q32 28 75 42t99 14z" />
    <glyph glyph-name="T" unicode="T" horiz-adv-x="713" 
d="M18 698h676v-145h-251v-553h-176v553h-249v145z" />
    <glyph glyph-name="U" unicode="U" horiz-adv-x="827" 
d="M68 698h176v-379q0 -43 10 -76q12 -33 33 -57q22 -22 54 -34q33 -12 74 -12q84 0 126 45q43 45 43 132v381h176v-385q0 -75 -22 -136q-22 -60 -68 -102t-109 -63t-146 -21q-82 0 -148 21q-63 21 -109 63q-44 44 -68 101q-22 60 -22 134v388z" />
    <glyph glyph-name="V" unicode="V" horiz-adv-x="715" 
d="M0 698h182q45 -106 174 -430q44 108 176 430h183q-76 -176 -307 -705h-104q-76 177 -304 705z" />
    <glyph glyph-name="W" unicode="W" horiz-adv-x="1160" 
d="M0 698h181q41 -104 159 -415q44 105 174 415h133q43 -104 171 -415q42 105 163 415h179q-74 -176 -295 -705h-90q-48 115 -195 459q-50 -114 -198 -459h-92q-72 177 -290 705z" />
    <glyph glyph-name="X" unicode="X" horiz-adv-x="829" 
d="M20 698h224q57 -69 99 -123q42 -51 68 -87q27 38 67 90q42 52 97 120h220l-272 -336q77 -90 302 -362h-224q-48 58 -190 231q-21 -29 -68 -86q-46 -57 -118 -145h-221q74 92 296 362z" />
    <glyph glyph-name="Y" unicode="Y" horiz-adv-x="715" 
d="M0 698h188q42 -56 167 -226q43 58 169 226h191q-67 -90 -268 -363v-335h-176v332q-67 92 -271 366z" />
    <glyph glyph-name="Z" unicode="Z" horiz-adv-x="719" 
d="M44 698h652q-96 -138 -384 -554h384v-144h-681q97 138 385 554h-356v144z" />
    <glyph glyph-name="bracketleft" unicode="[" horiz-adv-x="423" 
d="M84 698h318v-107h-170v-715h170v-107h-318v929z" />
    <glyph glyph-name="backslash" unicode="\" horiz-adv-x="323" 
d="M13 708h108q47 -180 188 -717h-108q-47 180 -188 717z" />
    <glyph glyph-name="bracketright" unicode="]" horiz-adv-x="423" 
d="M22 698h317v-929h-317v107h168v715h-168v107z" />
    <glyph glyph-name="asciicircum" unicode="^" horiz-adv-x="595" 
d="M34 331q54 93 218 367h89q55 -92 220 -367h-136q-32 57 -128 226q-31 -57 -127 -226h-136z" />
    <glyph glyph-name="underscore" unicode="_" horiz-adv-x="512" 
d="M-6 -69h524v-94h-524v94z" />
    <glyph glyph-name="quoteleft" unicode="`" horiz-adv-x="284" 
d="M154 365q-26 1 -46 10q-20 10 -35 31q-15 22 -22 46q-8 24 -8 53q1 37 13 69q14 33 39 61q27 29 64 47t85 26v-28q-33 -16 -51 -49q-17 -33 -17 -83q36 -8 53 -32q18 -21 18 -57q1 -18 -7 -36q-6 -16 -21 -31q-14 -14 -30 -21q-15 -6 -35 -6z" />
    <glyph glyph-name="quoteleft" unicode="&#x2018;" horiz-adv-x="284" 
d="M154 365q-26 1 -46 10q-20 10 -35 31q-15 22 -22 46q-8 24 -8 53q1 37 13 69q14 33 39 61q27 29 64 47t85 26v-28q-33 -16 -51 -49q-17 -33 -17 -83q36 -8 53 -32q18 -21 18 -57q1 -18 -7 -36q-6 -16 -21 -31q-14 -14 -30 -21q-15 -6 -35 -6z" />
    <glyph glyph-name="a" unicode="a" horiz-adv-x="539" 
d="M262 506q50 0 88 -10q39 -10 65 -31q27 -21 40 -50q13 -28 13 -66v-205q0 -20 6 -31t16 -11t21 5q12 4 26 13v-94q-38 -16 -72 -26q-33 -9 -64 -9q-31 1 -52 13q-19 14 -27 39q-30 -25 -67 -39q-36 -12 -80 -13q-33 0 -59 8q-24 9 -44 26q-18 18 -28 40q-10 24 -10 51
q0 36 15 62q15 27 44 45q31 20 85 41q56 22 136 48v12q0 21 -4 35q-4 15 -16 23q-10 10 -25 13q-15 4 -36 4q-50 0 -96 -22q-45 -21 -88 -67v128q44 34 96 51q54 17 117 17zM185 135q1 -11 4 -23q4 -9 12 -18q8 -6 17 -11q10 -3 22 -4q18 0 35 9q19 9 39 27v126
q-24 -9 -41 -18q-17 -8 -29 -14q-10 -4 -21 -13q-9 -6 -19 -17q-8 -9 -14 -20q-4 -12 -5 -24z" />
    <glyph glyph-name="b" unicode="b" horiz-adv-x="612" 
d="M575 248q0 -64 -18 -113q-19 -48 -58 -81q-39 -30 -90 -47q-51 -15 -115 -16q-52 1 -110 11t-125 32v664h154v-232q27 21 60 30q33 10 73 10q57 0 99 -19q43 -18 71 -57q30 -38 45 -84q15 -44 14 -98zM213 352v-232q17 -6 37 -9q21 -3 42 -3q26 0 47 8t40 23q19 16 28 43
t9 65q0 33 -7 58q-8 27 -23 45q-14 21 -35 30q-19 9 -45 9q-22 0 -46 -9q-22 -8 -47 -28z" />
    <glyph glyph-name="c" unicode="c" horiz-adv-x="500" 
d="M304 506q39 0 78 -7q38 -7 77 -23v-130q-33 18 -67 25q-34 9 -67 9q-27 0 -51 -9q-22 -9 -42 -27q-16 -18 -26 -42q-9 -22 -9 -52q0 -28 8 -52q9 -22 27 -42q20 -18 43 -29q25 -9 55 -9t63 7q36 9 75 23v-126q-40 -15 -80 -24q-40 -6 -81 -7q-31 1 -58 4q-27 4 -52 13
q-24 10 -44 20q-19 12 -34 25q-15 15 -27 30q-12 16 -22 34q-10 19 -16 35t-11 32q-3 18 -5 33t-2 31q0 21 3 42q3 22 10 43l18 42q11 21 25 41q16 21 36 36q21 16 48 28q28 14 60 20t68 6z" />
    <glyph glyph-name="d" unicode="d" horiz-adv-x="612" 
d="M197 256q0 -36 8 -63q8 -26 24 -42q18 -15 46 -24q29 -8 68 -8h57v242q-20 15 -42 21q-22 8 -49 7q-23 0 -44 -9q-21 -8 -37 -27q-14 -18 -23 -42q-8 -23 -8 -55zM400 698h153v-698h-225q-78 0 -135 16q-56 18 -90 50q-33 34 -50 80q-17 48 -17 109q0 53 15 98
q16 45 48 80q33 37 76 55q45 18 99 18q38 0 69 -8t57 -25v225z" />
    <glyph glyph-name="e" unicode="e" horiz-adv-x="574" 
d="M304 506q52 0 94 -17q42 -15 76 -51q34 -34 51 -82t17 -111v-29h-348q4 -26 16 -47t32 -38q21 -15 45 -24q25 -9 52 -9q46 0 94 13t96 40v-106q-45 -27 -101 -41q-54 -12 -119 -13q-60 1 -111 17q-50 18 -87 53q-36 38 -56 84q-19 49 -19 106t18 103t54 81q36 37 86 53
q50 18 110 18zM190 294h206q0 26 -6 46t-20 35q-12 15 -32 22q-18 7 -41 7q-22 0 -42 -7q-18 -8 -34 -23q-13 -15 -22 -36q-7 -20 -9 -44z" />
    <glyph glyph-name="f" unicode="f" horiz-adv-x="344" 
d="M287 708q21 0 41 -3q21 -1 42 -7v-116q-16 4 -32 7q-15 3 -30 2q-34 1 -52 -23q-16 -22 -17 -67v-15h88v-109h-88v-377h-154v377h-77v109h77v7q1 51 13 90q14 39 39 67q27 30 65 44t85 14z" />
    <glyph glyph-name="g" unicode="g" horiz-adv-x="535" 
d="M527 497v-98h-90q24 -19 36 -45q11 -24 11 -56q0 -33 -12 -61q-10 -27 -37 -50q-24 -21 -58 -34q-33 -13 -77 -16q-34 -3 -52 -12t-18 -25q0 -9 6 -15t17 -10q13 -3 34 -8q21 -3 53 -8q88 -9 130 -45q44 -36 43 -98q0 -38 -16 -66q-15 -28 -47 -50q-33 -20 -79 -30
q-45 -10 -106 -11q-60 0 -106 9q-45 9 -78 27q-32 20 -48 44q-15 26 -16 56q0 21 8 39q7 18 21 33q16 17 38 27q22 12 53 15q-21 11 -33 26t-12 37q0 15 5 27q6 14 15 24q10 11 24 19q15 9 33 12q-31 9 -55 24q-22 15 -40 36q-16 22 -26 46q-8 24 -8 51q0 45 15 78
q17 34 47 58q33 25 77 37q43 14 100 13h248zM174 309q0 -17 6 -32q6 -14 19 -26q12 -12 27 -18q16 -6 34 -6q21 0 36 6q16 6 29 18t19 27q6 16 6 33q0 19 -6 34t-19 27t-28 18t-34 6q-20 0 -36 -6q-15 -6 -28 -20t-19 -29t-6 -32zM270 -158q28 0 49 4q22 4 37 12q16 8 23 20
q9 12 8 26q0 30 -30 44q-29 15 -92 15q-57 0 -85 -15t-28 -45t29 -45q31 -16 89 -16z" />
    <glyph glyph-name="h" unicode="h" horiz-adv-x="610" 
d="M381 506q87 0 131 -50t44 -150v-306h-154v285q0 51 -19 75q-19 26 -58 25q-30 1 -57 -19q-28 -18 -55 -57v-309h-154v698h154v-271q35 41 77 59q42 20 91 20z" />
    <glyph glyph-name="i" unicode="i" horiz-adv-x="272" 
d="M136 691q15 1 27 -5q12 -4 21 -15q12 -9 16 -23q6 -12 5 -26q1 -14 -5 -27q-3 -11 -15 -23q-9 -9 -22 -15q-8 -3 -18 -5h-9q-14 0 -26 5q-12 6 -23 15q-9 12 -15 23q-4 13 -5 27q1 14 4 26q6 14 15 23q12 11 23 15q13 6 27 5zM59 497h77h77v-497h-154v497z" />
    <glyph glyph-name="j" unicode="j" horiz-adv-x="272" 
d="M59 497h76h78v-530q1 -45 -11 -81q-10 -36 -33 -62q-21 -26 -52 -42q-30 -15 -69 -23q-20 39 -62 117q20 8 35 16q15 10 22 22q9 14 12 33q4 21 4 46v504zM135 691q17 1 27 -5q12 -4 22 -15q12 -9 16 -23q6 -12 5 -26q1 -15 -5 -27q-3 -11 -15 -23q-9 -9 -22 -15
q-12 -5 -28 -5h-7q-9 2 -18 5q-12 6 -23 15q-9 12 -15 23q-4 13 -5 27q1 14 4 25q6 13 15 23q12 10 23 16q12 6 26 5z" />
    <glyph glyph-name="k" unicode="k" horiz-adv-x="611" 
d="M59 698h155v-698h-155v698zM409 497h183q-48 -58 -192 -235q57 -64 222 -262h-197q-51 64 -208 257z" />
    <glyph glyph-name="l" unicode="l" horiz-adv-x="272" 
d="M59 698h154v-698h-154v698z" />
    <glyph glyph-name="m" unicode="m" horiz-adv-x="948" 
d="M379 506q59 0 98 -24q40 -24 60 -71q43 47 88 71q47 24 95 24q44 0 76 -13q33 -11 54 -38q22 -25 33 -63q11 -36 11 -86v-306h-153v279q1 53 -20 80q-20 27 -59 26q-30 0 -57 -18t-52 -56v-311h-153v276q0 56 -20 82q-20 27 -59 27q-27 0 -56 -18q-27 -18 -53 -56v-311
h-153v497h153v-70q21 21 39 35q21 15 39 24q21 10 42 15q22 5 47 5z" />
    <glyph glyph-name="n" unicode="n" horiz-adv-x="610" 
d="M381 506q45 0 78 -13q33 -14 54 -41q23 -26 32 -64q11 -36 11 -85v-303h-154v281q0 52 -20 78q-20 27 -59 26q-30 1 -58 -19q-27 -18 -52 -57v-309h-154v497h154v-69q35 39 77 59q42 19 91 19z" />
    <glyph glyph-name="o" unicode="o" horiz-adv-x="628" 
d="M312 387q-26 0 -47 -9q-21 -8 -37 -28q-14 -18 -23 -44q-8 -24 -8 -57q0 -31 8 -57q9 -24 23 -45q16 -18 38 -28q21 -9 48 -9q28 0 50 9q21 10 36 28q18 21 24 45q8 26 8 57q0 33 -8 58t-25 43q-15 20 -37 28q-22 9 -50 9zM314 506q66 0 116 -17q51 -18 87 -54
q39 -34 56 -82q19 -47 19 -104q0 -59 -19 -105t-58 -83q-38 -35 -89 -53q-50 -16 -113 -17q-65 0 -116 18t-87 54q-36 38 -56 83q-18 48 -18 102q0 58 18 104q20 48 56 82q38 36 89 54t115 18z" />
    <glyph glyph-name="p" unicode="p" horiz-adv-x="613" 
d="M577 245q0 -51 -16 -97q-15 -44 -47 -82q-30 -36 -76 -56q-44 -18 -101 -19q-33 0 -65 8q-30 9 -59 26v-259h-154v731h223q34 0 61 -3q28 -2 52 -8q26 -4 48 -13q23 -9 44 -23q23 -14 38 -33q16 -18 28 -45q12 -26 18 -57t6 -70zM213 379v-241q21 -14 42 -21q24 -7 48 -7
q25 0 46 8q21 9 36 27q16 19 24 43q9 24 8 52q0 33 -9 59q-9 27 -27 44q-18 18 -42 27q-25 9 -55 9h-71z" />
    <glyph glyph-name="q" unicode="q" horiz-adv-x="612" 
d="M553 497v-731h-154v258q-25 -16 -57 -25q-30 -8 -68 -8q-54 0 -98 18q-42 17 -76 53q-32 38 -48 81q-16 45 -16 95q0 130 71 194q72 66 214 65h232zM197 239q1 -31 7 -55q8 -22 22 -41q16 -16 37 -25t48 -9t48 6q22 8 40 20v244h-64q-69 1 -104 -35q-33 -34 -34 -105z
" />
    <glyph glyph-name="r" unicode="r" horiz-adv-x="472" 
d="M210 472v-80q28 45 66 66q39 22 85 22q9 0 20 -1q10 -1 22 -4v-140q-18 3 -36 4q-18 3 -34 2q-26 1 -48 -8q-21 -7 -39 -25q-18 -15 -27 -41q-9 -25 -9 -59v-208h-149v472h149z" />
    <glyph glyph-name="s" unicode="s" horiz-adv-x="465" 
d="M46 362q0 30 13 56q14 26 38 46q27 22 60 32q35 10 77 10q46 0 87 -10q42 -9 78 -30v-116q-39 27 -76 39q-35 12 -67 12q-14 1 -24 -2q-8 -1 -17 -7q-7 -3 -11 -11q-3 -5 -3 -13q1 -8 4 -16q3 -6 11 -14q9 -6 27 -16q20 -9 48 -24q34 -14 60 -32q26 -15 41 -35
q18 -18 25 -40q9 -23 8 -50q0 -32 -12 -59q-11 -27 -37 -48q-24 -22 -60 -32q-34 -10 -82 -11q-42 1 -88 10q-45 11 -95 31v120q43 -27 81 -42t70 -15q18 0 29 3l21 7q10 6 14 12t4 14q0 11 -4 19t-14 16q-8 9 -29 19q-18 11 -50 25q-33 16 -58 33q-24 18 -39 36
q-14 18 -22 39q-8 22 -8 44z" />
    <glyph glyph-name="t" unicode="t" horiz-adv-x="442" 
d="M400 472v-101h-172v-203q0 -33 16 -51q16 -17 48 -17q27 0 54 7q28 7 54 21v-108q-34 -14 -69 -22q-35 -6 -68 -7q-39 1 -73 10q-32 11 -59 32q-24 21 -38 55q-13 34 -13 80v203h-68v101h68v138h148v-138h172z" />
    <glyph glyph-name="u" unicode="u" horiz-adv-x="610" 
d="M54 497h154v-280q0 -51 20 -79q21 -26 60 -26q30 0 58 19q28 20 51 56v310h154v-497h-154v69q-35 -39 -77 -59q-40 -18 -91 -19q-87 1 -131 52q-44 52 -44 157v297z" />
    <glyph glyph-name="v" unicode="v" horiz-adv-x="546" 
d="M0 497h165q29 -67 111 -273q30 69 118 273h152q-56 -125 -223 -500h-102q-55 125 -221 500z" />
    <glyph glyph-name="w" unicode="w" horiz-adv-x="822" 
d="M0 497h157q26 -65 101 -265q26 66 104 265h101q27 -65 105 -265q26 66 100 265h154l-200 -500h-88q-30 74 -121 293q-29 -72 -119 -293h-88q-52 125 -206 500z" />
    <glyph glyph-name="x" unicode="x" horiz-adv-x="594" 
d="M3 497h190q27 -35 106 -145q27 36 107 145h172q-48 -59 -192 -239q52 -63 205 -258h-191l-112 152q-28 -38 -110 -152h-172q50 63 196 247q-50 63 -199 250z" />
    <glyph glyph-name="y" unicode="y" horiz-adv-x="551" 
d="M3 497h167q28 -63 111 -256q30 64 117 256h153q-85 -183 -340 -731h-157q38 78 146 310q-48 106 -197 421z" />
    <glyph glyph-name="z" unicode="z" horiz-adv-x="523" 
d="M31 497h472v-13q-60 -90 -243 -365h240v-119h-486v12q62 93 242 366h-225v119z" />
    <glyph glyph-name="braceleft" unicode="{" horiz-adv-x="378" 
d="M370 709v-119q-30 0 -51 -4q-19 -4 -28 -15q-9 -9 -13 -30t-5 -54v-75q0 -33 -4 -60q-3 -26 -15 -46q-9 -20 -29 -36q-18 -16 -46 -28q49 -20 71 -62q24 -42 23 -106v-80q1 -30 5 -51q4 -18 13 -30q9 -9 29 -15t50 -6v-118q-69 0 -117 9q-46 9 -72 28q-23 19 -37 55
q-12 36 -12 88v84q0 38 -5 63q-5 27 -17 43q-12 18 -33 26q-20 10 -50 11v121q30 2 50 10q21 10 32 26q13 18 17 43q6 27 6 60v68q0 33 2 57q3 26 6 42q6 20 13 33q9 15 22 27q15 12 32 20q19 9 40 12q24 6 54 7q30 3 69 2z" />
    <glyph glyph-name="bar" unicode="|" horiz-adv-x="289" 
d="M89 705h111v-946h-111v946z" />
    <glyph glyph-name="braceright" unicode="}" horiz-adv-x="378" 
d="M9 590v119q52 0 90 -4q39 -5 63 -14q24 -7 41 -22q16 -14 25 -35q10 -20 14 -51q6 -32 5 -74v-68q0 -33 6 -60q7 -24 16 -42q12 -17 32 -26q21 -9 50 -11v-121q-29 -1 -50 -10q-20 -9 -32 -26q-9 -15 -16 -43q-6 -26 -6 -64v-84q1 -52 -13 -88q-12 -34 -36 -54
q-24 -18 -72 -29q-46 -9 -117 -9v118q32 0 50 5q19 6 28 15q9 12 14 31q4 21 4 51v80q0 64 24 106q25 42 71 62q-27 12 -45 28q-17 15 -29 35q-9 21 -15 47q-6 27 -6 60v75q0 33 -4 53q-3 21 -13 30q-8 10 -28 15t-51 5z" />
    <glyph glyph-name="asciitilde" unicode="~" horiz-adv-x="595" 
d="M45 259v135q37 36 73 53q36 18 72 18q22 0 51 -10q29 -9 65 -30q38 -20 64 -30q28 -9 45 -10q29 0 62 21q34 21 73 61v-134q-36 -36 -72 -54t-70 -18q-21 1 -51 10q-28 10 -66 30q-37 21 -64 30q-27 10 -43 10q-32 1 -67 -20q-34 -20 -72 -62z" />
    <glyph glyph-name="nonbreakingspace" unicode="&#xa0;" horiz-adv-x="298" 
 />
    <glyph glyph-name="exclamdown" unicode="&#xa1;" horiz-adv-x="300" 
d="M57 -82q1 33 4 73q5 41 14 89q9 50 18 86q9 38 19 63q4 13 8 19q4 8 8 11q6 6 9 6q5 3 11 2q8 1 12 -2q6 0 9 -6q6 -3 9 -11q4 -8 7 -19q9 -22 17 -60q10 -35 19 -86q12 -48 16 -90q5 -40 5 -73q0 -76 -24 -116q-22 -38 -70 -38q-44 0 -68 38q-22 39 -23 114zM148 317
q-18 1 -35 7q-15 8 -30 21q-13 15 -21 31q-6 16 -7 36q1 21 7 36q6 16 20 30q15 15 31 21q17 7 35 7q21 0 37 -7q16 -6 30 -21q15 -14 22 -30q7 -15 7 -36q0 -20 -7 -36q-6 -16 -21 -31q-14 -13 -31 -21q-16 -6 -37 -7z" />
    <glyph glyph-name="cent" unicode="&#xa2;" horiz-adv-x="580" 
d="M330 506q18 0 34 -1q15 0 29 -3q18 54 51 160h57q-13 -44 -55 -173q10 -3 39 -13v-130q-16 10 -36 16q-18 8 -39 11q-26 -84 -80 -252q6 -2 13 -2q6 -1 12 -1q31 0 64 7q36 9 75 23v-126q-39 -15 -81 -24q-39 -6 -80 -7q-7 1 -19 1q-9 2 -24 3q-20 -63 -59 -189h-57
q16 51 64 199q-32 9 -59 25q-25 16 -47 39q-20 24 -34 45q-14 22 -21 44q-7 24 -11 45q-4 24 -4 45t4 42q4 22 10 43q8 21 18 42q12 21 25 41q15 21 35 36q21 16 48 28q27 14 60 20q32 6 68 6zM222 250q0 -36 15 -65q15 -27 42 -47q25 82 76 242h-8q-26 0 -48 -9
q-23 -9 -41 -27t-27 -42q-9 -22 -9 -52z" />
    <glyph glyph-name="sterling" unicode="&#xa3;" horiz-adv-x="580" 
d="M40 404h47q-7 34 -11 62q-3 28 -3 51q0 48 15 82q16 35 46 59q33 26 73 37q41 13 92 13q57 0 104 -11q48 -11 86 -32v-141q-33 22 -73 32q-39 10 -84 10q-22 0 -40 -4q-16 -3 -30 -12q-12 -8 -19 -23q-6 -15 -6 -39q0 -16 2 -37q3 -21 9 -47h213v-121h-189q4 -17 4 -33
q2 -14 2 -29q0 -20 -3 -38q-3 -17 -9 -35q12 0 24 -2q14 -2 29 -5q17 -3 32 -5t27 -4q14 0 25 -2q12 0 22 -1q31 0 55 6q26 7 46 17v-139q-20 -9 -47 -16q-24 -6 -54 -6q-14 0 -41 3t-67 9q-39 7 -67 10t-47 3q-45 0 -87 -6t-80 -19v111q42 16 62 45q21 30 21 74q1 14 -1 29
q0 15 -4 33h-74v121z" />
    <glyph glyph-name="currency" unicode="&#xa4;" horiz-adv-x="565" 
d="M14 161q18 18 70 69q-15 28 -24 56q-9 30 -9 61q0 33 9 62q9 31 24 55q-22 24 -70 71q22 21 82 82q18 -16 70 -70q26 17 54 25q30 8 63 8q35 0 63 -8q30 -8 53 -25q25 24 70 70q21 -19 82 -82q-16 -17 -70 -71q17 -24 25 -55q8 -29 8 -63q0 -32 -8 -61q-8 -27 -25 -55
q24 -22 70 -69q-21 -21 -82 -84q-17 18 -69 69q-27 -14 -57 -23q-30 -8 -60 -8t-60 8q-29 9 -57 24l-70 -70q-20 21 -82 84zM283 232q23 0 44 8q21 9 37 25q16 17 25 38t8 44q1 25 -8 45q-9 21 -25 37q-16 17 -38 25q-20 9 -44 9q-22 0 -43 -9q-19 -8 -37 -25
q-16 -16 -26 -37q-8 -20 -8 -45q0 -23 8 -44q9 -19 25 -37q17 -16 37 -25q21 -9 45 -9z" />
    <glyph glyph-name="yen" unicode="&#xa5;" horiz-adv-x="580" 
d="M209 220v82h-183v86h150q-42 78 -174 310h174q28 -54 111 -223q29 57 113 223h178q-44 -76 -177 -310h152v-86h-182v-82h182v-86h-182v-134h-162v134h-183v86h183z" />
    <glyph glyph-name="brokenbar" unicode="&#xa6;" horiz-adv-x="289" 
d="M90 705h110v-402h-110v402zM90 160h110v-401h-110v401z" />
    <glyph glyph-name="section" unicode="&#xa7;" horiz-adv-x="549" 
d="M446 675v-124q-30 23 -66 33q-36 12 -77 11q-33 0 -51 -10q-18 -9 -18 -30q0 -12 5 -22q6 -10 16 -22q11 -11 31 -26t48 -35q51 -30 85 -59q35 -27 56 -55q23 -26 32 -59q11 -33 11 -72q0 -51 -24 -95q-24 -42 -72 -73q21 -25 30 -57q10 -30 10 -64t-14 -64
q-14 -28 -41 -50q-27 -20 -67 -32q-38 -10 -89 -11q-44 0 -83 12q-39 11 -75 32v131q39 -30 75 -46t72 -16t52 9q18 9 17 28q0 15 -4 26q-5 11 -15 23q-9 12 -31 30q-21 18 -55 43q-46 33 -79 62q-33 30 -53 57t-31 59q-9 33 -10 70q1 43 23 82q24 41 71 79q-21 22 -32 51
t-11 67q0 32 13 57q13 27 37 49q26 22 66 33t95 11q45 0 84 -8t69 -25zM197 375q-16 -14 -25 -29q-8 -14 -8 -32q0 -21 9 -42q9 -20 26 -41q17 -18 56 -50t96 -77q17 16 26 31q9 17 8 35q1 12 -1 21q0 9 -4 18q-3 9 -9 19t-16 22q-9 12 -22 26t-34 28q-18 15 -45 33
q-24 18 -57 38z" />
    <glyph glyph-name="dieresis" unicode="&#xa8;" horiz-adv-x="341" 
d="M132 643q0 -15 -5 -27t-15 -23q-9 -9 -23 -15q-12 -6 -27 -6q-12 0 -26 5q-12 6 -23 16q-9 11 -16 23q-5 14 -5 27q0 15 5 27q6 12 15 22q12 12 24 16q14 6 26 5q15 1 27 -5q14 -4 23 -16q10 -10 15 -22t5 -27zM209 643q1 15 5 26q6 12 15 22q12 12 24 16q13 6 27 6
q14 1 26 -5q14 -4 23 -16q11 -10 15 -23q6 -11 5 -26q1 -15 -5 -27q-4 -12 -15 -23q-9 -9 -23 -15q-12 -6 -26 -6q-15 0 -27 5q-12 6 -24 16q-9 11 -15 23q-4 14 -5 27z" />
    <glyph glyph-name="copyright" unicode="&#xa9;" horiz-adv-x="815" 
d="M42 357q0 77 27 140q27 66 79 118q54 55 119 82q66 27 142 27q75 0 139 -26q66 -27 119 -81q53 -52 80 -118q27 -64 27 -142q0 -74 -26 -138q-26 -63 -79 -119q-52 -52 -118 -81q-66 -27 -142 -27q-74 0 -138 26q-63 27 -119 79q-54 55 -82 119q-28 66 -28 141zM92 357
q0 -65 24 -122q24 -56 69 -102q47 -45 103 -69q57 -22 121 -23q67 1 121 23q57 24 102 70q46 48 69 104q23 57 23 120q0 66 -23 122q-21 57 -69 102q-45 46 -102 70q-56 24 -120 23q-66 1 -122 -23t-103 -70q-45 -46 -69 -103q-24 -56 -24 -122zM564 261v-93
q-36 -12 -70 -20q-32 -6 -62 -7q-54 0 -96 15q-42 14 -73 44q-30 30 -45 67q-15 39 -15 86q0 45 14 83q15 38 44 69q30 33 72 48t96 15q34 0 67 -5q33 -6 65 -18v-95q-27 14 -55 20q-26 8 -53 7q-31 1 -55 -8t-43 -26q-17 -17 -26 -38t-10 -50q1 -27 10 -49q9 -21 27 -39
q20 -16 43 -25q26 -9 56 -9q24 1 51 7q28 8 58 21z" />
    <glyph glyph-name="ordfeminine" unicode="&#xaa;" horiz-adv-x="362" 
d="M178 708q36 0 60 -7q26 -7 42 -19t25 -32t9 -49v-120q0 -6 1 -10q1 -3 1 -6q2 -1 4 -3q3 0 6 -1q3 0 11 3q9 4 22 10v-62q-23 -12 -44 -18t-41 -6q-16 0 -33 7q-15 7 -28 21q-21 -14 -46 -21q-24 -7 -51 -7q-21 0 -39 6q-16 6 -30 17q-11 11 -19 26q-6 15 -6 31
q0 30 14 50q15 22 43 34q15 8 46 16q33 9 81 21q0 21 -12 32t-36 11q-30 0 -63 -15q-30 -15 -63 -45v93q34 21 71 32t75 11zM132 480q0 -14 8 -20t21 -7q12 1 22 4q11 5 23 14v64q-4 -2 -19 -6q-27 -9 -41 -21t-14 -28z" />
    <glyph glyph-name="guillemotleft" unicode="&#xab;" horiz-adv-x="607" 
d="M175 487h143q-38 -59 -155 -242q39 -61 155 -245h-143q-39 62 -156 245q39 60 156 242zM440 487h144q-38 -59 -155 -242q39 -61 155 -245h-144q-38 62 -155 245q39 60 155 242z" />
    <glyph glyph-name="logicalnot" unicode="&#xac;" horiz-adv-x="595" 
d="M44 392v128h500v-335h-131v207h-369z" />
    <glyph glyph-name="sfthyphen" unicode="&#xad;" horiz-adv-x="451" 
d="M73 323h304v-147h-304v147z" />
    <glyph glyph-name="registered" unicode="&#xae;" horiz-adv-x="815" 
d="M42 357q0 77 27 140q27 66 79 118q54 55 119 82q66 27 142 27q75 0 139 -26q66 -27 119 -81q53 -52 80 -118q27 -64 27 -142q0 -74 -26 -138q-26 -63 -79 -119q-52 -52 -118 -81q-66 -27 -142 -27q-74 0 -138 26q-63 27 -119 79q-54 55 -82 119q-28 66 -28 141zM92 357
q0 -65 24 -122q24 -56 69 -102q47 -45 103 -69q57 -22 121 -23q67 1 121 23q57 24 102 70q46 48 69 104q23 57 23 120q0 66 -23 122q-21 57 -69 102q-45 46 -102 70q-56 24 -120 23q-66 1 -122 -23t-103 -70q-45 -46 -69 -103q-24 -56 -24 -122zM237 156v407h197q32 1 58 -7
q27 -8 45 -24q19 -14 28 -35q9 -19 9 -46q0 -21 -7 -41q-7 -18 -23 -34q-15 -16 -36 -25q-20 -9 -47 -12q14 -5 23 -11q10 -6 19 -15q9 -7 18 -19q9 -10 17 -27q24 -36 70 -111h-122q-12 24 -50 93q-8 19 -17 31q-9 14 -17 18q-6 6 -17 9q-9 3 -24 2h-20v-153h-104zM341 381
h47q38 0 55 14q18 15 18 42q0 29 -18 41q-17 14 -53 14h-49v-111z" />
    <glyph glyph-name="macron" unicode="&#xaf;" horiz-adv-x="341" 
d="M13 682h315v-97h-315v97z" />
    <glyph glyph-name="degree" unicode="&#xb0;" horiz-adv-x="408" 
d="M345 566q0 -28 -10 -54q-9 -26 -31 -47q-20 -21 -45 -31t-55 -11q-28 1 -54 10q-24 10 -46 31q-20 21 -31 47q-11 25 -11 55t11 54q10 26 30 46q23 22 47 31q26 11 54 11q30 0 54 -10t45 -31q23 -21 32 -46q10 -25 10 -55zM204 505q12 1 22 4q12 5 20 13q10 10 14 20
q4 12 4 23q0 14 -4 24q-4 11 -13 19q-9 10 -20 14t-23 4t-23 -4t-20 -14q-9 -8 -14 -19q-5 -10 -5 -24q0 -11 4 -23q6 -10 14 -20q10 -8 20 -13q12 -3 24 -4z" />
    <glyph glyph-name="plusminus" unicode="&#xb1;" horiz-adv-x="595" 
d="M45 365v128h188v172h128v-172h188v-128h-188v-175h-128v175h-188zM45 0v128h188h316v-128h-504z" />
    <glyph glyph-name="twosuperior" unicode="&#xb2;" horiz-adv-x="353" 
d="M23 510v14q14 12 35 33q22 22 53 52q21 23 37 41q16 20 26 34q12 15 16 30q6 16 5 29q0 12 -4 21q-3 9 -12 15q-6 9 -18 11q-9 4 -23 4q-26 0 -51 -14q-25 -12 -52 -40v96q33 20 65 29q33 9 63 9q32 0 56 -7q25 -7 43 -23q20 -15 29 -36q9 -20 9 -47q0 -17 -5 -35
q-5 -16 -15 -36q-10 -18 -31 -43q-19 -24 -49 -56h131v-81h-308z" />
    <glyph glyph-name="threesuperior" unicode="&#xb3;" horiz-adv-x="353" 
d="M160 874q33 0 57 -6q27 -6 44 -22q19 -14 28 -32t9 -39t-12 -41q-10 -20 -35 -36q29 -12 41 -35q14 -21 13 -51q0 -22 -10 -43q-9 -19 -30 -34q-19 -15 -45 -23q-26 -6 -57 -7q-31 0 -61 6q-30 7 -61 19v86q28 -18 52 -27q26 -9 47 -9q14 0 23 2q11 2 17 8q9 6 12 13
q4 7 4 15q0 24 -21 34q-21 12 -63 12v64h7q35 0 53 10t17 28q0 8 -3 14q-2 8 -11 13q-7 6 -17 8q-10 3 -22 3q-18 0 -40 -7q-20 -5 -44 -20v76q32 12 58 16q28 5 50 5z" />
    <glyph glyph-name="acute" unicode="&#xb4;" horiz-adv-x="341" 
d="M170 730h169q-40 -42 -163 -168h-87q21 42 81 168z" />
    <glyph glyph-name="mu" unicode="&#xb5;" horiz-adv-x="615" 
d="M59 -237v732h153v-317q15 -32 35 -49q21 -15 49 -16q22 1 38 5q16 6 28 17q14 12 19 30q6 19 6 41v289h153v-350q0 -21 7 -32q9 -11 22 -11q9 0 16 3q9 3 17 8v-100q-18 -9 -42 -16q-22 -6 -51 -6q-37 1 -64 16q-25 17 -37 49q-18 -32 -43 -49q-25 -15 -58 -16
q-27 1 -52 16q-23 17 -43 47v-291h-153z" />
    <glyph glyph-name="paragraph" unicode="&#xb6;" horiz-adv-x="670" 
d="M256 -239v522q-54 3 -97 17q-42 14 -74 40q-31 28 -46 64q-15 38 -15 86q0 50 16 89t47 66q33 30 76 42q45 15 101 14h382v-127h-64v-813h-119v813h-88v-813h-119z" />
    <glyph glyph-name="periodcentered" unicode="&#xb7;" horiz-adv-x="268" 
d="M226 353q0 -17 -6 -33q-6 -15 -20 -30q-14 -14 -30 -21q-16 -8 -36 -8q-18 1 -34 7t-30 20q-14 15 -21 30q-7 18 -7 35q0 20 6 35q8 16 21 30q14 15 30 21q17 6 35 6q20 0 35 -6q16 -6 30 -21q14 -14 20 -30q7 -15 7 -35z" />
    <glyph glyph-name="cedilla" unicode="&#xb8;" horiz-adv-x="341" 
d="M131 9h78q-5 -9 -21 -39q48 -3 72 -24t24 -60q0 -48 -44 -72q-42 -24 -130 -25q-26 1 -44 1q-18 2 -26 2v66q12 -2 21 -3h18q32 0 47 9q15 10 15 28t-9 24q-8 8 -28 8h-5h-7q-2 0 -7 -1q13 23 46 86z" />
    <glyph glyph-name="onesuperior" unicode="&#xb9;" horiz-adv-x="353" 
d="M185 872h70v-362h-102v223q-15 -12 -62 -48q-13 17 -52 67q38 30 146 120z" />
    <glyph glyph-name="ordmasculine" unicode="&#xba;" horiz-adv-x="414" 
d="M389 548q0 -34 -12 -64q-12 -27 -39 -51q-24 -21 -59 -34q-33 -11 -74 -11t-74 11q-33 12 -57 33q-24 22 -37 51q-12 31 -12 65q0 36 12 64q13 28 37 51q26 24 58 34q34 11 73 11q41 0 74 -11q35 -10 59 -34q27 -23 39 -51t12 -64zM206 471q16 1 28 5q12 6 21 14
q9 12 14 25q4 15 4 33q0 20 -4 34q-3 14 -13 23q-8 11 -22 15q-12 6 -28 5q-32 1 -49 -20q-17 -18 -17 -57q0 -38 17 -58q17 -18 49 -19z" />
    <glyph glyph-name="guillemotright" unicode="&#xbb;" horiz-adv-x="607" 
d="M23 487h143q40 -59 157 -242q-39 -61 -157 -245h-143q39 62 155 245q-38 60 -155 242zM288 487h143q39 -59 156 -242q-39 -61 -156 -245h-143q39 62 155 245q-39 60 -155 242z" />
    <glyph glyph-name="onequarter" unicode="&#xbc;" horiz-adv-x="823" 
d="M185 703h70v-362h-102v223q-15 -12 -62 -48q-13 18 -52 67q38 30 146 120zM601 708h93q-117 -184 -471 -734h-93q118 184 471 734zM680 361h76v-207h47v-67h-47v-87h-100v87h-174v61q51 54 198 213zM656 154v93q-20 -24 -86 -93h86z" />
    <glyph glyph-name="onehalf" unicode="&#xbd;" horiz-adv-x="823" 
d="M185 703h70v-362h-102v223q-15 -12 -62 -48q-13 18 -52 67q38 30 146 120zM578 708h93q-117 -184 -471 -734h-94q118 184 472 734zM493 0v14q11 9 32 30q23 22 56 55q22 25 37 43q16 20 26 33q12 15 16 30q6 15 5 28q0 12 -4 21q-3 9 -12 15q-6 9 -18 11q-9 4 -23 4
q-26 0 -51 -14q-25 -12 -52 -40v95q35 21 65 30q33 11 63 11q32 0 56 -8q25 -6 43 -23q20 -15 29 -36t9 -47q0 -16 -5 -35q-5 -17 -15 -37q-10 -18 -31 -43q-19 -23 -49 -55h131v-82h-308z" />
    <glyph glyph-name="threequarters" unicode="&#xbe;" horiz-adv-x="823" 
d="M604 708h93q-117 -184 -471 -734h-93q119 184 471 734zM680 361h76v-207h47v-67h-47v-87h-100v87h-174v61q51 54 198 213zM656 154v93q-20 -24 -86 -93h86zM160 706q33 0 57 -7q27 -7 44 -22q19 -15 28 -32q9 -18 9 -39t-12 -41q-10 -18 -35 -36q29 -13 41 -35
q14 -21 13 -51q0 -22 -10 -43q-9 -18 -30 -34q-19 -14 -45 -23q-26 -7 -57 -7t-61 7q-30 6 -61 18v86q28 -18 52 -27q26 -9 47 -9q14 0 23 2q11 3 17 8q9 7 12 13q4 8 4 16q0 22 -21 33q-21 12 -63 12v64h7q35 1 53 10q18 10 17 28q0 9 -3 14q-2 7 -11 13q-7 6 -17 8
q-10 3 -22 3q-18 1 -40 -7q-20 -6 -44 -20v76q32 12 58 16q28 6 50 6z" />
    <glyph glyph-name="questiondown" unicode="&#xbf;" horiz-adv-x="378" 
d="M335 -58q-12 -33 -46 -137q-19 -6 -40 -9t-43 -3q-39 1 -69 10q-30 10 -54 30q-23 21 -35 47q-12 28 -12 61q0 41 23 83q22 44 67 88q36 38 54 72t18 65q0 9 -2 15q-2 8 -7 10h4q40 -3 60 -23q21 -21 21 -57q0 -24 -9 -53q-9 -28 -29 -66q-15 -29 -24 -53q-8 -24 -8 -46
q0 -10 4 -21q3 -9 11 -18q9 -7 21 -13q12 -4 28 -4q18 0 35 6t32 16zM214 317h-1q-19 1 -34 7q-16 8 -31 21q-12 15 -20 31q-6 16 -7 36q0 21 6 36q8 16 20 30q15 15 31 21q18 7 36 7q20 0 35 -7q17 -6 31 -21q15 -14 21 -30q7 -15 7 -36q0 -20 -6 -36t-21 -31
q-13 -13 -31 -21q-16 -6 -36 -7z" />
    <glyph glyph-name="Agrave" unicode="&#xc0;" horiz-adv-x="795" 
d="M304 699h183q77 -174 308 -699h-181q-16 40 -67 161h-300q-16 -39 -67 -161h-180q76 176 304 699zM396 527q-26 -63 -103 -254h208q-25 65 -105 254zM214 923h183q26 -42 98 -168h-95q-45 42 -186 168z" />
    <glyph glyph-name="Aacute" unicode="&#xc1;" horiz-adv-x="795" 
d="M304 699h93h90q77 -174 308 -699h-181q-16 40 -67 161h-300q-16 -39 -67 -161h-180q76 176 304 699zM396 527q-26 -63 -103 -254h208q-25 65 -105 254zM300 755q24 42 97 168h184q-46 -42 -187 -168h-94z" />
    <glyph glyph-name="Acircumflex" unicode="&#xc2;" horiz-adv-x="795" 
d="M304 699h183q77 -174 308 -699h-181q-16 40 -67 161h-300q-16 -39 -67 -161h-180q76 176 304 699zM396 527q-26 -63 -103 -254h208q-25 65 -105 254zM203 755l100 168h186q27 -42 103 -168h-95q-25 23 -101 92q-24 -23 -100 -92h-93z" />
    <glyph glyph-name="Atilde" unicode="&#xc3;" horiz-adv-x="795" 
d="M304 699h15h168q77 -174 308 -699h-181q-16 40 -67 161h-300q-16 -39 -67 -161h-180q76 176 304 699zM396 527q-26 -63 -103 -254h208q-25 65 -105 254zM319 901q15 1 35 -5q22 -6 50 -16q30 -10 47 -17q19 -5 23 -5q18 0 27 11t11 32h72q0 -33 -8 -61q-8 -26 -23 -47
q-15 -20 -35 -30q-4 -1 -8 -4q-16 -6 -37 -6q-13 1 -34 5q-20 4 -48 15q-27 12 -45 16q-16 6 -24 6q-16 1 -27 -11q-9 -10 -13 -31h-72q0 35 8 62q9 29 25 47q18 21 36 30q19 9 40 9z" />
    <glyph glyph-name="Adieresis" unicode="&#xc4;" horiz-adv-x="795" 
d="M304 699h183q77 -174 308 -699h-181q-16 40 -67 161h-300q-16 -39 -67 -161h-180q76 176 304 699zM396 527q-26 -63 -103 -254h208q-25 65 -105 254zM240 790q-10 10 -17 23q-5 13 -5 27t5 26q6 12 16 23q11 12 23 16q14 5 27 5q15 0 27 -5q12 -3 22 -15q12 -10 16 -23
q4 -12 4 -27q0 -14 -4 -26t-16 -23q-6 -7 -15 -13q-3 -2 -7 -4q-12 -4 -27 -5q-14 1 -26 5q-13 6 -23 16zM457 790q-10 10 -16 23t-6 27q1 14 5 26q6 12 16 23q10 12 23 16q13 5 27 5q15 0 27 -5q13 -3 22 -15q12 -10 16 -23q4 -12 4 -27q0 -14 -4 -26t-16 -23
q-9 -11 -22 -17q-12 -4 -27 -5q-14 1 -26 5q-12 6 -23 16z" />
    <glyph glyph-name="Aring" unicode="&#xc5;" horiz-adv-x="795" 
d="M304 699h91h92q77 -174 308 -699h-181q-16 40 -67 161h-300q-16 -39 -67 -161h-180q76 176 304 699zM396 527q-26 -63 -103 -254h208q-25 65 -105 254zM501 852q1 -22 -8 -40q-7 -18 -23 -34q-12 -12 -30 -21q-2 0 -4 -2q-18 -7 -41 -7q-21 0 -39 7q-18 9 -33 23
q-15 16 -23 34t-8 40t7 40q8 18 23 34q15 15 33 23q19 7 40 7q22 0 40 -7q19 -7 34 -23q16 -16 24 -34q9 -18 8 -40zM357 891q-7 -8 -11 -18q-4 -9 -4 -21q0 -10 4 -21q4 -9 11 -17q9 -8 18 -11q11 -3 20 -4q12 1 21 4t17 11q9 8 13 17q4 11 4 21q0 12 -4 21q-3 9 -12 17
q-8 9 -17 12q-9 4 -22 4q-9 0 -20 -4q-9 -2 -18 -11z" />
    <glyph glyph-name="AE" unicode="&#xc6;" horiz-adv-x="1063" 
d="M421 698h581v-125h-297v-152h282v-126h-282v-170h306v-125h-483v274h-196q-39 -68 -161 -274h-181q108 176 431 698zM528 609q-32 -55 -131 -223h131v223z" />
    <glyph glyph-name="Ccedilla" unicode="&#xc7;" horiz-adv-x="750" 
d="M434 708q66 0 130 -14q66 -12 130 -41v-161q-58 36 -116 55q-57 18 -114 18q-56 0 -100 -15t-76 -48q-32 -32 -48 -71t-16 -85q0 -44 16 -82t48 -69q33 -31 75 -47q43 -16 97 -16q62 0 121 19q60 19 117 58v-157q-51 -27 -114 -43q-62 -15 -134 -18q-4 -6 -10 -21
q48 -3 71 -24q24 -21 24 -60q1 -48 -44 -72q-43 -24 -131 -25q-26 1 -43 1q-17 2 -26 2v66q11 -2 20 -3h19q32 0 47 9q15 10 15 28t-9 24q-9 8 -28 8h-5h-7q-1 0 -7 -1q10 19 38 71q-76 9 -137 36q-60 28 -105 78q-44 50 -66 110q-22 62 -22 131q0 83 28 146q28 66 82 114
q56 50 125 74q71 25 155 25z" />
    <glyph glyph-name="Egrave" unicode="&#xc8;" horiz-adv-x="614" 
d="M75 698h57h421v-125h-302v-153h289v-125h-289v-170h310v-125h-486v698zM132 923h183q26 -42 98 -168h-95q-45 42 -186 168z" />
    <glyph glyph-name="Eacute" unicode="&#xc9;" horiz-adv-x="614" 
d="M75 698h248h230v-125h-302v-153h289v-125h-289v-170h310v-125h-486v698zM225 755q26 42 98 168h183q-46 -42 -187 -168h-94z" />
    <glyph glyph-name="Ecircumflex" unicode="&#xca;" horiz-adv-x="614" 
d="M75 698h146h332v-125h-302v-153h289v-125h-289v-170h310v-125h-486v698zM121 755l100 168h187q26 -42 102 -168h-95q-25 23 -101 92q-24 -23 -100 -92h-93z" />
    <glyph glyph-name="Edieresis" unicode="&#xcb;" horiz-adv-x="614" 
d="M75 698h132h346v-125h-302v-153h289v-125h-289v-170h310v-125h-486v698zM158 790q-10 10 -16 23t-6 27t5 26q6 12 16 23q11 12 23 16q14 5 27 5q15 0 27 -5q12 -3 22 -15q12 -10 16 -23q4 -12 4 -27q0 -14 -4 -26t-16 -23q-9 -11 -21 -17h-1h-1q-11 -4 -26 -5
q-14 1 -26 5q-13 6 -23 16zM375 790q-10 10 -16 23t-6 27q1 14 5 26q6 12 16 23q12 12 23 16q13 5 27 5q15 0 27 -5q13 -3 22 -15q12 -10 16 -23q5 -12 5 -27q0 -14 -5 -26q-4 -12 -16 -23q-9 -11 -22 -17q-12 -4 -27 -5q-14 1 -26 5q-12 6 -23 16z" />
    <glyph glyph-name="Igrave" unicode="&#xcc;" horiz-adv-x="326" 
d="M75 698h176v-698h-176v698zM-19 923h183q24 -42 97 -168h-10h-84q-46 42 -186 168z" />
    <glyph glyph-name="Iacute" unicode="&#xcd;" horiz-adv-x="326" 
d="M75 698h89h87v-698h-176v698zM67 755q25 42 97 168h183q-45 -42 -186 -168h-94z" />
    <glyph glyph-name="Icircumflex" unicode="&#xce;" horiz-adv-x="326" 
d="M75 698h176v-698h-176v698zM-31 755q26 42 101 168h186q27 -42 102 -168h-95l-100 92q-25 -23 -101 -92h-93z" />
    <glyph glyph-name="Idieresis" unicode="&#xcf;" horiz-adv-x="326" 
d="M75 698h176v-698h-176v698zM6 790q-10 10 -16 23q-4 13 -5 27q1 14 5 26t15 23q12 12 24 16q12 5 26 5q15 0 27 -5q12 -3 22 -15q12 -10 16 -23q6 -12 5 -27q1 -14 -5 -26q-4 -12 -16 -23q-10 -11 -22 -17q-4 0 -11 -3v0q-7 -2 -16 -2q-14 1 -26 5q-11 6 -23 16zM223 790
q-10 10 -16 23q-5 13 -5 27t5 26t15 23q12 12 24 16q14 5 26 5q15 0 27 -5q14 -3 23 -15q10 -10 15 -23q5 -12 5 -27q0 -14 -5 -26t-15 -23q-9 -11 -23 -17q-12 -4 -27 -5q-12 1 -26 5q-12 6 -23 16z" />
    <glyph glyph-name="Eth" unicode="&#xd0;" horiz-adv-x="810" 
d="M75 698h295q96 0 168 -23q74 -22 125 -72q53 -47 77 -110q26 -63 26 -142q0 -82 -25 -148q-23 -65 -74 -111q-49 -45 -121 -69q-72 -23 -166 -23h-305v301h-75v96h75v301zM251 128h111q114 0 168 55q56 55 56 165q0 54 -15 95q-15 43 -45 71q-28 30 -72 45q-42 15 -98 14
h-105v-176h160v-96h-160v-173z" />
    <glyph glyph-name="Ntilde" unicode="&#xd1;" horiz-adv-x="870" 
d="M75 698h154q99 -108 393 -435v435h174v-698h-157q-97 110 -391 434v-434h-173v698zM356 901q14 1 35 -5t50 -16q31 -10 47 -17q18 -5 23 -5q18 0 27 11t11 32h72q1 -33 -8 -61q-8 -26 -23 -47q-14 -20 -35 -30q-6 -3 -12 -5q-15 -4 -33 -5q-12 1 -34 5q-20 4 -48 15
q-27 12 -45 16q-16 6 -25 6q-16 1 -26 -11q-10 -10 -14 -31h-71q0 35 8 62q9 29 25 47q16 21 36 30t40 9z" />
    <glyph glyph-name="Ograve" unicode="&#xd2;" horiz-adv-x="863" 
d="M433 708q89 0 158 -25q72 -25 123 -77q54 -50 79 -115q27 -63 26 -142q1 -75 -25 -139t-78 -116q-52 -50 -124 -77q-70 -26 -162 -26q-60 1 -113 13t-98 37q-44 25 -77 58t-55 72q-21 40 -32 84q-11 45 -11 93q0 27 3 53q3 25 10 51q9 26 19 50q12 24 26 47q16 24 34 44
q20 21 41 38q23 17 50 31q28 14 61 24q12 4 26 8v0q22 6 44 8q36 6 75 6zM431 554q-47 0 -85 -14q-36 -12 -65 -42q-27 -28 -42 -66t-15 -84q0 -44 15 -81q15 -35 43 -65q30 -28 66 -43q38 -15 82 -15q48 0 84 14q38 15 67 42t43 65q15 39 15 85q1 44 -14 79q-14 36 -41 66
t-66 44q-38 15 -87 15zM253 923h183q26 -42 98 -168h-95q-45 42 -186 168z" />
    <glyph glyph-name="Oacute" unicode="&#xd3;" horiz-adv-x="863" 
d="M433 708q89 0 158 -25q72 -25 123 -77q54 -50 79 -115q27 -63 26 -142q1 -75 -25 -139t-78 -116q-52 -50 -124 -77q-70 -26 -162 -26q-60 1 -113 13t-98 37q-44 25 -77 58t-55 72q-21 40 -32 84q-11 45 -11 93q0 27 3 53q3 25 10 51q9 26 19 50q12 24 26 47q16 24 34 44
q20 21 41 38q23 17 50 31q28 14 61 24q34 12 70 16q36 6 75 6zM431 554q-47 0 -85 -14q-36 -12 -65 -42q-27 -28 -42 -66t-15 -84q0 -44 15 -81q15 -35 43 -65q30 -28 66 -43q38 -15 82 -15q48 0 84 14q38 15 67 42t43 65q15 39 15 85q1 44 -14 79q-14 36 -41 66t-66 44
q-38 15 -87 15zM336 755q24 42 97 168h183q-45 -42 -186 -168h-94z" />
    <glyph glyph-name="Ocircumflex" unicode="&#xd4;" horiz-adv-x="863" 
d="M433 708q89 0 158 -25q72 -25 123 -77q54 -50 79 -115q27 -63 26 -142q1 -75 -25 -139t-78 -116q-52 -50 -124 -77q-70 -26 -162 -26q-60 1 -113 13t-98 37q-44 25 -77 58t-55 72q-21 40 -32 84q-11 45 -11 93q0 27 3 53q3 25 10 51q9 26 19 50q12 24 26 47q16 24 34 44
q20 21 41 38q23 17 50 31q28 14 61 24q34 12 70 16q2 2 4 1h5q33 5 66 5zM431 554q-47 0 -85 -14q-36 -12 -65 -42q-27 -28 -42 -66t-15 -84q0 -44 15 -81q15 -35 43 -65q30 -28 66 -43q38 -15 82 -15q48 0 84 14q38 15 67 42t43 65q15 39 15 85q1 44 -14 79q-14 36 -41 66
t-66 44q-38 15 -87 15zM239 755l100 168h186q27 -42 103 -168h-96q-24 23 -100 92q-24 -23 -100 -92h-93z" />
    <glyph glyph-name="Otilde" unicode="&#xd5;" horiz-adv-x="863" 
d="M433 708q89 0 158 -25q72 -25 123 -77q54 -50 79 -115q27 -63 26 -142q1 -75 -25 -139t-78 -116q-52 -50 -124 -77q-70 -26 -162 -26q-60 1 -113 13t-98 37q-44 25 -77 58t-55 72q-21 40 -32 84q-11 45 -11 93q0 27 3 53q3 25 10 51q9 26 19 50q12 24 26 47q16 24 34 44
q20 21 41 38q23 17 50 31q28 14 61 24q34 12 70 16q9 3 18 3h1q27 3 56 3zM431 554q-47 0 -85 -14q-36 -12 -65 -42q-27 -28 -42 -66t-15 -84q0 -44 15 -81q15 -35 43 -65q30 -28 66 -43q38 -15 82 -15q48 0 84 14q38 15 67 42t43 65q15 39 15 85q1 44 -14 79q-14 36 -41 66
t-66 44q-38 15 -87 15zM355 901q15 1 35 -5q22 -6 50 -16q30 -10 47 -17q19 -5 23 -5q18 0 27 11t11 32h72q0 -33 -8 -61q-8 -26 -23 -47q-15 -20 -35 -30q-20 -9 -45 -10h-9l-25 5q-20 4 -48 15q-27 12 -45 16q-16 6 -25 6q-17 1 -27 -11q-9 -10 -13 -31h-71q0 35 8 62
q9 29 25 47q16 21 36 30q19 9 40 9z" />
    <glyph glyph-name="Odieresis" unicode="&#xd6;" horiz-adv-x="863" 
d="M433 708q89 0 158 -25q72 -25 123 -77q54 -50 79 -115q27 -63 26 -142q1 -75 -25 -139t-78 -116q-52 -50 -124 -77q-70 -26 -162 -26q-60 1 -113 13t-98 37q-44 25 -77 58t-55 72q-21 40 -32 84q-11 45 -11 93q0 27 3 53q3 25 10 51q9 26 19 50q12 24 26 47q16 24 34 44
q20 21 41 38q23 17 50 31q28 14 61 24q33 12 69 16v0h1q36 6 75 6zM431 554q-47 0 -85 -14q-36 -12 -65 -42q-27 -28 -42 -66t-15 -84q0 -44 15 -81q15 -35 43 -65q30 -28 66 -43q38 -15 82 -15q48 0 84 14q38 15 67 42t43 65q15 39 15 85q1 44 -14 79q-14 36 -41 66t-66 44
q-38 15 -87 15zM275 790q-9 10 -16 23q-5 13 -5 27t5 26q6 12 15 23q12 12 24 16q14 5 27 5q15 0 26 -5q14 -3 23 -15q12 -10 15 -23q5 -12 5 -27q0 -14 -5 -26q-3 -12 -15 -23q-9 -11 -23 -17q-8 -2 -18 -4q-1 0 -3 -1h-5q-13 1 -27 5q-12 6 -23 16zM493 790q-11 10 -17 23
q-4 13 -5 27q1 14 5 26q6 12 16 23q10 12 23 16q13 5 27 5q15 0 27 -5q13 -3 22 -15q12 -10 15 -23q6 -12 5 -27q1 -14 -5 -26q-3 -12 -15 -23q-9 -11 -22 -17q-12 -4 -27 -5q-14 1 -26 5q-12 6 -23 16z" />
    <glyph glyph-name="multiply" unicode="&#xd7;" horiz-adv-x="647" 
d="M67 184q42 44 165 171q-40 42 -164 165q22 24 89 90q42 -40 165 -167q42 43 170 167q22 -21 89 -89q-42 -40 -170 -166q43 -41 169 -170q-22 -21 -90 -89q-42 44 -168 170q-42 -42 -166 -171q-22 23 -89 89z" />
    <glyph glyph-name="Oslash" unicode="&#xd8;" horiz-adv-x="863" 
d="M66 24q18 20 75 76q-47 50 -73 112q-24 62 -24 136q0 27 3 53q3 25 10 51q9 26 19 50q12 24 26 47q16 24 34 44q20 21 41 38q23 17 50 31q28 14 61 24q34 12 70 16q36 6 75 6q69 0 128 -17q60 -15 108 -50q25 26 73 74q15 -13 55 -55q-17 -16 -69 -70q46 -48 69 -109
q22 -60 22 -132q1 -75 -25 -139t-78 -116q-52 -50 -124 -77q-70 -26 -162 -26q-64 0 -122 15q-56 16 -106 44q-28 -26 -82 -82q-14 14 -54 56zM431 554q-47 0 -86 -14q-38 -14 -65 -44t-42 -66q-14 -36 -14 -82q0 -34 10 -67q10 -31 29 -58q97 101 287 299q-24 16 -54 24
t-65 8zM639 350q0 32 -9 62q-8 30 -27 54q-93 -98 -281 -295q24 -12 50 -20q28 -7 58 -7q51 0 89 15q39 15 66 45t41 67t13 79z" />
    <glyph glyph-name="Ugrave" unicode="&#xd9;" horiz-adv-x="827" 
d="M68 698h163h13v-379q0 -43 10 -76q12 -33 33 -57q22 -22 54 -34q33 -12 74 -12q84 0 126 45q43 45 43 132v381h176v-385q0 -75 -22 -136q-22 -60 -68 -102t-109 -63t-146 -21q-82 0 -148 21q-63 21 -109 63q-44 44 -68 101q-22 60 -22 134v388zM231 923h184
q25 -42 97 -168h-94q-46 42 -187 168z" />
    <glyph glyph-name="Uacute" unicode="&#xda;" horiz-adv-x="827" 
d="M68 698h176v-379q0 -43 10 -76q12 -33 33 -57q22 -22 54 -34q33 -12 74 -12q84 0 126 45q43 45 43 132v381h176v-385q0 -75 -22 -136q-22 -60 -68 -102t-109 -63t-146 -21q-82 0 -148 21q-63 21 -109 63q-44 44 -68 101q-22 60 -22 134v388zM317 755q26 42 98 168h183
q-46 -42 -186 -168h-95z" />
    <glyph glyph-name="Ucircumflex" unicode="&#xdb;" horiz-adv-x="827" 
d="M68 698h176v-379q0 -43 10 -76q12 -33 33 -57q22 -22 54 -34q33 -12 74 -12q84 0 126 45q43 45 43 132v381h176v-385q0 -75 -22 -136q-22 -60 -68 -102t-109 -63t-146 -21q-82 0 -148 21q-63 21 -109 63q-44 44 -68 101q-22 60 -22 134v388zM220 755q26 42 101 168h186
q26 -42 102 -168h-95q-24 23 -100 92q-24 -23 -101 -92h-93z" />
    <glyph glyph-name="Udieresis" unicode="&#xdc;" horiz-adv-x="827" 
d="M68 698h176v-379q0 -43 10 -76q12 -33 33 -57q22 -22 54 -34q33 -12 74 -12q84 0 126 45q43 45 43 132v381h176v-385q0 -75 -22 -136q-22 -60 -68 -102t-109 -63t-146 -21q-82 0 -148 21q-63 21 -109 63q-44 44 -68 101q-22 60 -22 134v388zM257 790q-10 10 -16 23
q-5 13 -5 27t4 26q6 12 16 23q12 12 24 16q12 5 26 5q15 0 27 -5q13 -3 22 -15q12 -10 16 -23q5 -12 5 -27q0 -14 -5 -26q-4 -12 -16 -23q-9 -11 -22 -17q-8 -2 -17 -4q-2 0 -3 -1h-7q-14 1 -26 5q-12 6 -23 16zM474 790q-10 10 -16 23q-4 13 -5 27q1 14 4 26q6 12 16 23
q12 12 24 16q12 5 26 5q15 0 27 -5q12 -3 22 -15q12 -10 16 -23q6 -12 5 -27q1 -14 -5 -26q-4 -12 -16 -23q-10 -11 -22 -17q-12 -4 -27 -5q-14 1 -26 5q-11 6 -23 16z" />
    <glyph glyph-name="Yacute" unicode="&#xdd;" horiz-adv-x="715" 
d="M0 698h188q42 -56 167 -226q43 58 169 226h191q-67 -90 -268 -363v-335h-176v332q-67 92 -271 366zM270 755q26 42 98 168h183q-46 -42 -186 -168h-95z" />
    <glyph glyph-name="Thorn" unicode="&#xde;" horiz-adv-x="655" 
d="M75 698h176v-137h119q60 1 107 -13q48 -14 81 -42q36 -28 52 -67q18 -39 17 -90q0 -45 -16 -83q-15 -38 -48 -68q-31 -30 -77 -46q-46 -15 -108 -15h-127v-137h-176v698zM251 441v-183h88q54 0 81 23q26 23 26 67q0 26 -6 42q-6 18 -20 29t-36 17t-52 5h-81z" />
    <glyph glyph-name="germandbls" unicode="&#xdf;" horiz-adv-x="612" 
d="M577 203q0 -45 -15 -84q-14 -36 -43 -68q-28 -30 -64 -45q-35 -15 -77 -15q-22 0 -44 3t-43 9v111q9 -2 18 -3t18 -1q21 0 36 6q16 8 28 21q13 15 19 35t6 44q0 54 -29 80q-29 28 -87 28v106q45 2 66 23q22 21 22 62q0 17 -5 29q-4 14 -16 23q-11 12 -27 16q-15 6 -36 6
q-22 1 -40 -7q-16 -6 -28 -21q-10 -14 -17 -35q-6 -21 -6 -53v-473h-154v459q0 124 62 186q63 63 186 63q60 0 102 -14q45 -12 73 -40q30 -26 45 -59t15 -72q0 -46 -23 -82q-21 -35 -66 -57q63 -22 93 -68q32 -44 31 -113z" />
    <glyph glyph-name="agrave" unicode="&#xe0;" horiz-adv-x="539" 
d="M262 506q50 0 88 -10q39 -10 65 -31q27 -21 40 -50q13 -28 13 -66v-205q0 -20 6 -31t16 -11t21 5q12 4 26 13v-94q-38 -16 -72 -26q-33 -9 -64 -9q-31 1 -52 13q-19 14 -27 39q-30 -25 -67 -39q-36 -12 -80 -13q-33 0 -59 8q-24 9 -44 26q-18 18 -28 40q-10 24 -10 51
q0 36 15 62q15 27 44 45q31 20 85 41q56 22 136 48v12q0 21 -4 35q-4 15 -16 23q-10 10 -25 13q-15 4 -36 4q-50 0 -96 -22q-45 -21 -88 -67v128q44 34 96 51q12 3 22 6h1q44 11 94 11zM185 135q1 -11 4 -23q4 -9 12 -18q8 -6 17 -11q10 -3 22 -4q18 0 35 9q19 9 39 27v126
q-24 -9 -41 -18q-17 -8 -29 -14q-10 -4 -21 -13q-9 -6 -19 -17q-8 -9 -14 -20q-4 -12 -5 -24zM110 730h170l80 -168h-87q-40 42 -163 168z" />
    <glyph glyph-name="aacute" unicode="&#xe1;" horiz-adv-x="539" 
d="M262 506h2v0q50 0 86 -10q39 -10 65 -31q27 -21 40 -50q13 -28 13 -66v-205q0 -20 6 -31t16 -11t21 5q12 4 26 13v-94q-38 -16 -72 -26q-33 -9 -64 -9q-31 1 -52 13q-19 14 -27 39q-30 -25 -67 -39q-36 -12 -80 -13q-33 0 -59 8q-24 9 -44 26q-18 18 -28 40
q-10 24 -10 51q0 36 15 62q15 27 44 45q31 20 85 41q56 22 136 48v12q0 21 -4 35q-4 15 -16 23q-10 10 -25 13q-15 4 -36 4q-50 0 -96 -22q-45 -21 -88 -67v128q44 34 96 51q54 17 117 17zM185 135q1 -11 4 -23q4 -9 12 -18q8 -6 17 -11q10 -3 22 -4q18 0 35 9q19 9 39 27
v126q-24 -9 -41 -18q-17 -8 -29 -14q-10 -4 -21 -13q-9 -6 -19 -17q-8 -9 -14 -20q-4 -12 -5 -24zM264 730h169q-40 -42 -163 -168h-87q21 42 81 168z" />
    <glyph glyph-name="acircumflex" unicode="&#xe2;" horiz-adv-x="539" 
d="M262 506q50 0 88 -10q39 -10 65 -31q27 -21 40 -50q13 -28 13 -66v-205q0 -20 6 -31t16 -11t21 5q12 4 26 13v-94q-38 -16 -72 -26q-33 -9 -64 -9q-31 1 -52 13q-19 14 -27 39q-30 -25 -67 -39q-36 -12 -80 -13q-33 0 -59 8q-24 9 -44 26q-18 18 -28 40q-10 24 -10 51
q0 36 15 62q15 27 44 45q31 20 85 41q56 22 136 48v12q0 21 -4 35q-4 15 -16 23q-10 10 -25 13q-15 4 -36 4q-50 0 -96 -22q-45 -21 -88 -67v128q44 34 96 51q27 9 56 13t61 4zM185 135q1 -11 4 -23q4 -9 12 -18q8 -6 17 -11q10 -3 22 -4q18 0 35 9q19 9 39 27v126
q-24 -9 -41 -18q-17 -8 -29 -14q-10 -4 -21 -13q-9 -6 -19 -17q-8 -9 -14 -20q-4 -12 -5 -24zM167 730h181q24 -42 91 -168h-37h-1h-56q-21 24 -88 91q-21 -21 -88 -91h-92q22 42 90 168z" />
    <glyph glyph-name="atilde" unicode="&#xe3;" horiz-adv-x="539" 
d="M262 506q50 0 88 -10q39 -10 65 -31q27 -21 40 -50q13 -28 13 -66v-205q0 -20 6 -31t16 -11t21 5q12 4 26 13v-94q-38 -16 -72 -26q-33 -9 -64 -9q-31 1 -52 13q-19 14 -27 39q-30 -25 -67 -39q-36 -12 -80 -13q-33 0 -59 8q-24 9 -44 26q-18 18 -28 40q-10 24 -10 51
q0 36 15 62q15 27 44 45q31 20 85 41q56 22 136 48v12q0 21 -4 35q-4 15 -16 23q-10 10 -25 13q-15 4 -36 4q-50 0 -96 -22q-45 -21 -88 -67v128q44 34 96 51q33 11 67 14h1q25 3 49 3zM185 135q1 -11 4 -23q4 -9 12 -18q8 -6 17 -11q10 -3 22 -4q18 0 35 9q19 9 39 27v126
q-24 -9 -41 -18q-17 -8 -29 -14q-10 -4 -21 -13q-9 -6 -19 -17q-8 -9 -14 -20q-4 -12 -5 -24zM187 715q15 1 35 -5q22 -4 50 -16q30 -10 47 -16q19 -4 23 -5q18 1 27 10q9 11 11 32h72q0 -33 -8 -61q-8 -26 -23 -47q-15 -20 -35 -30q-15 -7 -35 -9q-3 0 -6 -1h-4
q-13 1 -34 5q-20 6 -48 16q-27 12 -45 16q-16 6 -25 5q-15 0 -26 -10q-9 -9 -13 -32h-72q0 36 8 63q9 28 25 46q16 20 36 29q19 10 40 10z" />
    <glyph glyph-name="adieresis" unicode="&#xe4;" horiz-adv-x="539" 
d="M262 506q50 0 88 -10q39 -10 65 -31q27 -21 40 -50q13 -28 13 -66v-205q0 -20 6 -31t16 -11t21 5q12 4 26 13v-94q-38 -16 -72 -26q-33 -9 -64 -9q-31 1 -52 13q-19 14 -27 39q-30 -25 -67 -39q-36 -12 -80 -13q-33 0 -59 8q-24 9 -44 26q-18 18 -28 40q-10 24 -10 51
q0 36 15 62q15 27 44 45q31 20 85 41q56 22 136 48v12q0 21 -4 35q-4 15 -16 23q-10 10 -25 13q-15 4 -36 4q-50 0 -96 -22q-45 -21 -88 -67v128q44 34 96 51q23 8 49 11v0q34 6 68 6zM185 135q1 -11 4 -23q4 -9 12 -18q8 -6 17 -11q10 -3 22 -4q18 0 35 9q19 9 39 27v126
q-24 -9 -41 -18q-17 -8 -29 -14q-10 -4 -21 -13q-9 -6 -19 -17q-8 -9 -14 -20q-4 -12 -5 -24zM226 643q0 -15 -5 -27q-3 -12 -15 -23q-10 -9 -23 -16h-2v0q-10 -5 -24 -5t-26 5q-13 6 -23 16q-10 11 -17 23q-5 14 -5 27q0 15 5 27q6 12 15 22q12 12 24 16q14 6 27 5
q15 1 27 -5q12 -4 22 -16q12 -10 15 -22q5 -12 5 -27zM303 643q1 15 5 26q6 12 16 22q10 12 23 16q13 6 27 6q15 1 27 -5q13 -4 22 -16q12 -10 16 -23q4 -11 4 -26t-4 -27t-16 -23q-9 -9 -22 -15q-12 -6 -27 -6t-27 5q-13 6 -23 16q-10 11 -16 23q-4 14 -5 27z" />
    <glyph glyph-name="aring" unicode="&#xe5;" horiz-adv-x="539" 
d="M262 506h2v0q50 0 86 -10q39 -10 65 -31q27 -21 40 -50q13 -28 13 -66v-205q0 -20 6 -31t16 -11t21 5q12 4 26 13v-94q-38 -16 -72 -26q-33 -9 -64 -9q-31 1 -52 13q-19 14 -27 39q-30 -25 -67 -39q-36 -12 -80 -13q-33 0 -59 8q-24 9 -44 26q-18 18 -28 40
q-10 24 -10 51q0 36 15 62q15 27 44 45q31 20 85 41q56 22 136 48v12q0 21 -4 35q-4 15 -16 23q-10 10 -25 13q-15 4 -36 4q-50 0 -96 -22q-45 -21 -88 -67v128q44 34 96 51q54 17 117 17zM185 135q1 -11 4 -23q4 -9 12 -18q8 -6 17 -11q10 -3 22 -4q18 0 35 9q19 9 39 27
v126q-24 -9 -41 -18q-17 -8 -29 -14q-10 -4 -21 -13q-9 -6 -19 -17q-8 -9 -14 -20q-4 -12 -5 -24zM191 591q-15 15 -23 34q-6 19 -7 40q1 21 7 40q8 18 22 33q16 16 34 23q20 9 40 8q22 1 40 -8q20 -7 34 -23q15 -15 23 -33q9 -19 8 -40q1 -21 -8 -40q-8 -18 -23 -33
q-14 -14 -34 -23q-9 -3 -19 -6q-9 -2 -21 -2q-21 0 -39 8q-18 7 -34 22zM226 703q-6 -7 -12 -17q-4 -9 -4 -21q0 -11 4 -21q4 -9 11 -17q9 -8 19 -12q10 -3 20 -4q12 1 22 4q9 4 17 12q9 8 13 17q3 10 3 21q0 12 -3 21q-4 10 -13 17q-8 9 -17 13q-10 4 -22 4q-10 0 -20 -4
q-9 -4 -18 -13z" />
    <glyph glyph-name="ae" unicode="&#xe6;" horiz-adv-x="799" 
d="M49 313v128q51 33 100 49q51 16 100 16q43 0 81 -13q38 -11 71 -38q31 27 65 38q36 13 75 13q51 0 92 -17q42 -15 72 -52q31 -33 46 -80q16 -45 16 -102v-31h-314q1 -30 11 -53q12 -23 32 -41q22 -16 46 -25q26 -9 53 -9q36 0 76 14q41 14 89 40v-108q-51 -24 -102 -38
q-51 -12 -102 -13q-60 1 -107 17q-47 18 -83 52q-50 -34 -98 -52q-48 -16 -96 -17q-30 0 -56 8q-24 9 -44 28q-18 19 -28 41q-10 24 -10 49q0 16 4 30q4 15 10 27q8 15 16 24q10 12 19 19q11 9 23 17q14 8 29 16q17 8 32 14t28 9q13 6 28 9q15 4 33 10t32 11q14 4 21 7v9
q0 40 -18 60q-18 21 -57 20q-46 0 -92 -21q-45 -21 -93 -65zM455 303h168q-3 51 -25 76q-20 25 -58 25q-18 0 -32 -5t-27 -20q-10 -12 -18 -32q-6 -18 -8 -44zM309 240q-35 -14 -59 -28q-24 -12 -38 -24q-12 -9 -20 -23q-6 -13 -7 -29q1 -12 4 -23q3 -9 10 -19q8 -6 17 -12
q10 -4 22 -4q24 0 47 10q24 10 45 29q-10 27 -16 54q-4 29 -5 59v10z" />
    <glyph glyph-name="ccedilla" unicode="&#xe7;" horiz-adv-x="500" 
d="M304 506q39 0 78 -7q38 -7 77 -23v-130q-33 18 -67 25q-34 9 -67 9q-27 0 -51 -9q-22 -9 -42 -27q-16 -18 -26 -42q-9 -22 -9 -52q0 -28 8 -52q9 -22 27 -42q20 -18 43 -29q25 -9 55 -9t63 7q36 9 75 23v-126q-38 -14 -76 -23q-38 -6 -76 -8q-2 -6 -10 -21q48 -3 72 -24
t23 -60q1 -48 -43 -72t-132 -25q-26 1 -43 1q-16 2 -25 2v66q10 -2 20 -3h19q32 0 47 9q15 10 15 28t-9 24q-8 8 -28 8q-2 0 -5 1t-7 -1h-5t-3 -1q14 26 40 74q-28 6 -53 15q-25 10 -47 24q-21 15 -37 31q-15 17 -27 35l-19 38q-7 18 -13 36q-4 20 -7 37q-3 19 -3 35
q0 21 3 42q3 22 10 43l18 42q11 21 25 41q16 21 36 36q21 16 48 28q28 14 60 20t68 6z" />
    <glyph glyph-name="egrave" unicode="&#xe8;" horiz-adv-x="574" 
d="M304 506q52 0 94 -17q42 -15 76 -51q34 -34 51 -82t17 -111v-29h-348q4 -26 16 -47t32 -38q21 -15 45 -24q25 -9 52 -9q46 0 94 13t96 40v-106q-45 -27 -101 -41q-54 -12 -119 -13q-60 1 -111 17q-50 18 -87 53q-36 38 -56 84q-19 49 -19 106t18 103t54 81q36 37 86 53
q6 3 12 5h1q45 13 97 13zM190 294h206q0 26 -6 46t-20 35q-12 15 -32 22q-18 7 -41 7q-22 0 -42 -7q-18 -8 -34 -23q-13 -15 -22 -36q-7 -20 -9 -44zM136 730h170q21 -42 81 -168h-78h-9q-40 42 -164 168z" />
    <glyph glyph-name="eacute" unicode="&#xe9;" horiz-adv-x="574" 
d="M304 506q52 0 94 -17q42 -15 76 -51q34 -34 51 -82t17 -111v-29h-348q4 -26 16 -47t32 -38q21 -15 45 -24q25 -9 52 -9q46 0 94 13t96 40v-106q-45 -27 -101 -41q-54 -12 -119 -13q-60 1 -111 17q-50 18 -87 53q-36 38 -56 84q-19 49 -19 106t18 103t54 81q36 37 86 53
q45 18 101 18h9zM190 294h206q0 26 -6 46t-20 35q-12 15 -32 22q-18 7 -41 7q-22 0 -42 -7q-18 -8 -34 -23q-13 -15 -22 -36q-7 -20 -9 -44zM291 730h169q-40 -42 -163 -168h-87q21 42 81 168z" />
    <glyph glyph-name="ecircumflex" unicode="&#xea;" horiz-adv-x="574" 
d="M304 506q52 0 94 -17q42 -15 76 -51q34 -34 51 -82t17 -111v-29h-348q4 -26 16 -47t32 -38q21 -15 45 -24q25 -9 52 -9q46 0 94 13t96 40v-106q-45 -27 -101 -41q-54 -12 -119 -13q-60 1 -111 17q-50 18 -87 53q-36 38 -56 84q-19 49 -19 106t18 103t54 81q36 37 86 53
q22 9 46 13q30 5 64 5zM190 294h206q0 26 -6 46t-20 35q-12 15 -32 22q-18 7 -41 7q-22 0 -42 -7q-18 -8 -34 -23q-13 -15 -22 -36q-7 -20 -9 -44zM199 730h181q24 -42 91 -168h-94q-21 24 -88 91q-21 -21 -88 -91h-92q22 42 90 168z" />
    <glyph glyph-name="edieresis" unicode="&#xeb;" horiz-adv-x="574" 
d="M304 506q52 0 94 -17q42 -15 76 -51q34 -34 51 -82t17 -111v-29h-348q4 -26 16 -47t32 -38q21 -15 45 -24q25 -9 52 -9q46 0 94 13t96 40v-106q-45 -27 -101 -41q-54 -12 -119 -13q-60 1 -111 17q-50 18 -87 53q-36 38 -56 84q-19 49 -19 106t18 103t54 81q36 37 86 53
q16 6 34 10q36 8 76 8zM190 294h206q0 26 -6 46t-20 35q-12 15 -32 22q-18 7 -41 7q-22 0 -42 -7q-18 -8 -34 -23q-13 -15 -22 -36q-7 -20 -9 -44zM251 643q1 -15 -5 -27q-4 -12 -16 -23q-10 -9 -22 -15q-6 -2 -13 -4q-1 0 -4 -1t-10 -1q-14 0 -26 5q-11 6 -23 16
q-10 11 -16 23q-4 14 -5 27q1 15 4 27q6 12 16 22q12 12 24 16q12 6 26 5q15 1 27 -5q12 -4 22 -16q12 -10 16 -22q6 -12 5 -27zM328 643q0 15 5 26q5 12 15 22q12 12 24 16q14 6 26 6q15 1 27 -5q13 -4 22 -16q12 -10 16 -23q5 -11 5 -26t-5 -27q-4 -12 -16 -23
q-9 -9 -22 -15q-12 -6 -27 -6q-14 0 -27 5q-11 6 -23 16q-9 11 -15 23q-5 14 -5 27z" />
    <glyph glyph-name="igrave" unicode="&#xec;" horiz-adv-x="272" 
d="M59 497h154v-497h-154v497zM-18 730h170l80 -168h-19h-68q-40 42 -163 168z" />
    <glyph glyph-name="iacute" unicode="&#xed;" horiz-adv-x="272" 
d="M59 497h70h84v-497h-154v497zM129 730h169q-40 -42 -163 -168h-87q21 42 81 168z" />
    <glyph glyph-name="icircumflex" unicode="&#xee;" horiz-adv-x="272" 
d="M59 497h154v-497h-154v497zM46 730h181q23 -42 91 -168h-94q-22 24 -88 91q-22 -21 -88 -91h-92q22 42 90 168z" />
    <glyph glyph-name="idieresis" unicode="&#xef;" horiz-adv-x="272" 
d="M59 497h154v-497h-154v497zM98 643q0 -15 -5 -27q-3 -12 -15 -23q-10 -9 -22 -15q-4 -2 -8 -3q0 1 -2 -1q-8 -2 -17 -2q-14 0 -26 5q-13 6 -23 16q-10 11 -17 23q-5 14 -5 27q0 15 5 27q6 12 15 22q12 12 24 16q14 6 27 5q15 1 27 -5q12 -4 22 -16q12 -10 15 -22
q5 -12 5 -27zM175 643q1 15 5 26q6 12 16 22q10 12 23 16q13 6 27 6q15 1 27 -5q13 -4 22 -16q12 -10 16 -23q4 -11 4 -26t-4 -27t-16 -23q-9 -9 -22 -15q-12 -6 -27 -6q-14 0 -26 5q-12 6 -23 16q-11 11 -17 23q-4 14 -5 27z" />
    <glyph glyph-name="eth" unicode="&#xf0;" horiz-adv-x="632" 
d="M156 660q22 12 86 48q32 -9 57 -21q27 -11 47 -23q40 14 121 44q6 -14 18 -54q-19 -8 -81 -32q46 -34 80 -74t59 -88q25 -46 37 -97q12 -50 12 -102q0 -63 -19 -113q-18 -48 -57 -86q-38 -34 -87 -53q-48 -18 -111 -18q-36 0 -69 6q-31 7 -61 16q-27 12 -49 27
q-21 15 -39 33q-16 19 -28 39l-20 42l-12 44q-4 24 -4 46q0 58 18 104t55 81t82 53q48 18 102 18q21 0 43 -5q21 -5 41 -14q-15 30 -37 54q-22 26 -49 47q-53 -20 -158 -59q-3 15 -18 55q31 12 121 44q-9 8 -30 17q-20 9 -50 21zM314 110q28 0 50 9q21 9 36 27q18 20 24 45
q8 27 8 58q0 33 -7 57q-7 26 -25 44q-16 20 -37 28q-21 9 -50 9q-26 0 -47 -9q-22 -8 -38 -28q-14 -18 -23 -44q-8 -24 -8 -58q1 -32 7 -57q8 -23 23 -44q17 -18 38 -28q22 -9 49 -9z" />
    <glyph glyph-name="ntilde" unicode="&#xf1;" horiz-adv-x="610" 
d="M381 506q45 0 78 -13q33 -14 54 -41q23 -26 32 -64q11 -36 11 -85v-303h-154v281q0 52 -20 78q-20 27 -59 26q-30 1 -58 -19q-27 -18 -52 -57v-309h-154v497h154v-69q35 39 77 59q42 19 91 19zM228 715q14 1 35 -5q21 -4 50 -16q31 -10 47 -16q18 -4 23 -5q18 1 27 10
q9 11 11 32h72q1 -33 -8 -61q-8 -26 -23 -47q-15 -20 -36 -30q-8 -3 -18 -6q-2 -1 -4 -1q-10 -3 -22 -3q-12 1 -34 5q-20 6 -48 16q-27 12 -45 16q-16 6 -25 5q-16 0 -26 -10q-10 -9 -14 -32h-71q0 36 8 63q9 28 25 46q16 20 36 29q20 10 40 10z" />
    <glyph glyph-name="ograve" unicode="&#xf2;" horiz-adv-x="628" 
d="M312 387q-26 0 -47 -9q-21 -8 -37 -28q-14 -18 -23 -44q-8 -24 -8 -57q0 -31 8 -57q9 -24 23 -45q16 -18 38 -28q21 -9 48 -9q28 0 50 9q21 10 36 28q18 21 24 45q8 26 8 57q0 33 -8 58t-25 43q-15 20 -37 28q-22 9 -50 9zM314 506q66 0 116 -17q51 -18 87 -54
q39 -34 56 -82q19 -47 19 -104q0 -59 -19 -105t-58 -83q-38 -35 -89 -53q-50 -16 -113 -17q-65 0 -116 18t-87 54q-36 38 -56 83q-18 48 -18 102q0 58 18 104q20 48 56 82q38 36 89 54q11 4 21 6q2 2 3 1q43 11 91 11zM163 730h170q21 -42 81 -168h-87z" />
    <glyph glyph-name="oacute" unicode="&#xf3;" horiz-adv-x="628" 
d="M312 387q-26 0 -47 -9q-21 -8 -37 -28q-14 -18 -23 -44q-8 -24 -8 -57q0 -31 8 -57q9 -24 23 -45q16 -18 38 -28q21 -9 48 -9q28 0 50 9q21 10 36 28q18 21 24 45q8 26 8 57q0 33 -8 58t-25 43q-15 20 -37 28q-22 9 -50 9zM314 506q66 0 116 -17q51 -18 87 -54
q39 -34 56 -82q19 -47 19 -104q0 -59 -19 -105t-58 -83q-38 -35 -89 -53q-50 -16 -113 -17q-65 0 -116 18t-87 54q-36 38 -56 83q-18 48 -18 102q0 58 18 104q20 48 56 82q38 36 89 54t115 18zM314 730h169q-39 -42 -162 -168h-8h-80q21 42 81 168z" />
    <glyph glyph-name="ocircumflex" unicode="&#xf4;" horiz-adv-x="628" 
d="M312 387q-26 0 -47 -9q-21 -8 -37 -28q-14 -18 -23 -44q-8 -24 -8 -57q0 -31 8 -57q9 -24 23 -45q16 -18 38 -28q21 -9 48 -9q28 0 50 9q21 10 36 28q18 21 24 45q8 26 8 57q0 33 -8 58t-25 43q-15 20 -37 28q-22 9 -50 9zM314 506q66 0 116 -17q51 -18 87 -54
q39 -34 56 -82q19 -47 19 -104q0 -59 -19 -105t-58 -83q-38 -35 -89 -53q-50 -16 -113 -17q-65 0 -116 18t-87 54q-36 38 -56 83q-18 48 -18 102q0 58 18 104q20 48 56 82q38 36 89 54q27 10 61 14v0q27 4 54 4zM227 730h182q22 -42 91 -168h-94q-22 24 -89 91
q-21 -21 -88 -91h-92q24 42 90 168z" />
    <glyph glyph-name="otilde" unicode="&#xf5;" horiz-adv-x="628" 
d="M312 387q-26 0 -47 -9q-21 -8 -37 -28q-14 -18 -23 -44q-8 -24 -8 -57q0 -31 8 -57q9 -24 23 -45q16 -18 38 -28q21 -9 48 -9q28 0 50 9q21 10 36 28q18 21 24 45q8 26 8 57q0 33 -8 58t-25 43q-15 20 -37 28q-22 9 -50 9zM314 506q66 0 116 -17q51 -18 87 -54
q39 -34 56 -82q19 -47 19 -104q0 -59 -19 -105t-58 -83q-38 -35 -89 -53q-50 -16 -113 -17q-65 0 -116 18t-87 54q-36 38 -56 83q-18 48 -18 102q0 58 18 104q20 48 56 82q38 36 89 54q32 12 68 15v0q23 3 47 3zM241 715q13 1 34 -5q21 -4 51 -16q30 -10 46 -16q18 -4 23 -5
q18 1 27 10q10 11 11 32h72q1 -33 -8 -61q-8 -26 -23 -47q-14 -20 -35 -30q-19 -9 -45 -10h-7q-1 1 -4 1q-9 2 -22 4q-21 6 -49 16q-26 12 -44 16q-18 6 -25 5q-17 0 -27 -10q-10 -9 -13 -32h-72q0 36 8 63q9 28 25 46q18 20 36 29q20 10 41 10z" />
    <glyph glyph-name="odieresis" unicode="&#xf6;" horiz-adv-x="628" 
d="M312 387q-26 0 -47 -9q-21 -8 -37 -28q-14 -18 -23 -44q-8 -24 -8 -57q0 -31 8 -57q9 -24 23 -45q16 -18 38 -28q21 -9 48 -9q28 0 50 9q21 10 36 28q18 21 24 45q8 26 8 57q0 33 -8 58t-25 43q-15 20 -37 28q-22 9 -50 9zM314 506q66 0 116 -17q51 -18 87 -54
q39 -34 56 -82q19 -47 19 -104q0 -59 -19 -105t-58 -83q-38 -35 -89 -53q-50 -16 -113 -17q-65 0 -116 18t-87 54q-36 38 -56 83q-18 48 -18 102q0 58 18 104q20 48 56 82q38 36 89 54q21 9 48 12v0q33 6 67 6zM280 643q0 -15 -5 -27q-4 -12 -16 -23q-9 -9 -22 -15l-15 -5
h-1q-5 -1 -11 -1q-14 0 -26 5q-12 6 -23 16q-10 11 -16 23q-6 14 -6 27q1 15 5 27q6 12 16 22q10 12 23 16q13 6 27 5q15 1 27 -5q13 -4 22 -16q12 -10 16 -22q5 -12 5 -27zM356 643q0 15 5 26q6 12 16 22q11 12 23 16q14 6 27 6q15 1 27 -5q12 -4 22 -16q12 -10 16 -23
q6 -11 5 -26q1 -15 -5 -27q-4 -12 -16 -23q-10 -9 -22 -15t-27 -6t-27 5q-12 6 -23 16q-9 11 -15 23q-6 14 -6 27z" />
    <glyph glyph-name="divide" unicode="&#xf7;" horiz-adv-x="595" 
d="M238 574q4 12 8 19q6 9 14 14q10 6 19 9q9 4 18 4q6 0 9 -1q6 0 9 -3q10 -2 18 -7q9 -5 14 -14q6 -9 9 -18t3 -20v-9t-3 -9q-2 -9 -8 -19q-4 -8 -14 -14q-9 -6 -18 -9q-8 -3 -20 -3h-9q-3 2 -7 2q-9 3 -18 9q-8 6 -14 14q-6 9 -9 19t-3 20v9q2 4 2 7zM38 287v128h518
v-128h-518zM238 160q4 10 8 18q6 8 14 13q10 8 19 11t19 3q6 1 9 -1q5 0 8 -2q10 -2 18 -8q9 -4 14 -14q6 -8 9 -18q3 -8 3 -20v-9q0 -3 -3 -9q-2 -9 -8 -18t-14 -15t-17 -9t-20 -3q-3 1 -8 1t-9 2l-18 8q-8 6 -14 13q-6 10 -9 19q-3 10 -3 20v11q2 4 2 7z" />
    <glyph glyph-name="oslash" unicode="&#xf8;" horiz-adv-x="628" 
d="M49 -10q17 18 63 71q-38 37 -57 82q-19 47 -19 105t18 104q20 48 56 82q38 36 89 54t115 18q46 0 85 -9t73 -29q22 24 65 72q10 -10 40 -37q-15 -16 -61 -67q39 -36 57 -83q19 -47 19 -104q0 -59 -19 -105t-58 -83q-38 -35 -89 -53q-50 -16 -113 -17q-45 1 -85 10
q-39 9 -72 28q-22 -24 -67 -75q-9 9 -40 36zM432 249q0 21 -4 38q-4 20 -13 36q-57 -64 -169 -193q15 -9 31 -15q17 -5 37 -5q28 0 50 9q21 10 36 28q18 21 24 45q8 26 8 57zM312 387q-26 0 -47 -9q-21 -8 -37 -28q-14 -18 -23 -44q-8 -24 -8 -57q0 -19 3 -39q4 -18 12 -36
q58 64 170 193q-14 11 -32 15q-18 6 -38 5z" />
    <glyph glyph-name="ugrave" unicode="&#xf9;" horiz-adv-x="610" 
d="M54 497h97h57v-280q0 -51 20 -79q21 -26 60 -26q30 0 58 19q28 20 51 56v310h154v-497h-154v69q-35 -39 -77 -59q-40 -18 -91 -19q-87 1 -131 52q-44 52 -44 157v297zM151 730h170q21 -42 80 -168h-87q-40 42 -163 168z" />
    <glyph glyph-name="uacute" unicode="&#xfa;" horiz-adv-x="610" 
d="M54 497h154v-280q0 -51 20 -79q21 -26 60 -26q30 0 58 19q28 20 51 56v310h154v-497h-154v69q-35 -39 -77 -59q-40 -18 -91 -19q-87 1 -131 52q-44 52 -44 157v297zM312 730h169q-39 -42 -163 -168h-87q21 42 81 168z" />
    <glyph glyph-name="ucircumflex" unicode="&#xfb;" horiz-adv-x="610" 
d="M54 497h154v-280q0 -51 20 -79q21 -26 60 -26q30 0 58 19q28 20 51 56v310h154v-497h-154v69q-35 -39 -77 -59q-40 -18 -91 -19q-87 1 -131 52q-44 52 -44 157v297zM215 730h181q24 -42 91 -168h-94q-21 24 -88 91q-21 -21 -88 -91h-92q22 42 90 168z" />
    <glyph glyph-name="udieresis" unicode="&#xfc;" horiz-adv-x="610" 
d="M54 497h144h10v-280q0 -51 20 -79q21 -26 60 -26q30 0 58 19q28 20 51 56v310h154v-497h-154v69q-35 -39 -77 -59q-40 -18 -91 -19q-87 1 -131 52q-44 52 -44 157v297zM267 643q1 -15 -5 -27q-3 -12 -15 -23q-9 -9 -22 -15q-10 -4 -24 -6h-3q-14 0 -26 5q-12 6 -24 16
q-10 11 -16 23q-4 14 -5 27q1 15 5 27q6 12 15 22q12 12 24 16q13 6 27 5q15 1 27 -5q13 -4 22 -16q12 -10 15 -22q6 -12 5 -27zM344 643q0 15 5 26q6 12 16 22q11 12 23 16q14 6 27 6q15 1 27 -5q12 -4 22 -16q12 -10 15 -23q5 -11 5 -26t-5 -27q-3 -12 -15 -23
q-10 -9 -22 -15t-27 -6t-27 5q-12 6 -23 16q-9 11 -16 23q-5 14 -5 27z" />
    <glyph glyph-name="yacute" unicode="&#xfd;" horiz-adv-x="551" 
d="M3 497h167q28 -63 111 -256q30 64 117 256h153q-85 -183 -340 -731h-157q38 78 146 310q-48 106 -197 421zM269 730h169q-40 -42 -163 -168h-64h-23q21 42 81 168z" />
    <glyph glyph-name="thorn" unicode="&#xfe;" horiz-adv-x="613" 
d="M577 245q0 -51 -16 -97q-15 -44 -47 -82q-30 -36 -76 -56q-44 -18 -101 -19q-33 0 -65 8q-30 9 -59 26v-259h-154v932h154v-201h65q34 0 62 -3q30 -2 53 -8q27 -4 49 -13q24 -9 44 -23q24 -14 39 -33q16 -18 28 -45q12 -26 18 -57t6 -70zM213 376v-239q24 -13 46 -22
q23 -7 44 -7q25 0 46 9t36 27q16 20 24 42q9 24 8 53q1 33 -8 59q-9 27 -27 43q-18 18 -42 26q-24 9 -56 9h-71z" />
    <glyph glyph-name="Ydieresis" unicode="&#xff;" horiz-adv-x="715" 
d="M0 698h188q42 -56 167 -226q43 58 169 226h191q-67 -90 -268 -363v-335h-176v332q-67 92 -271 366zM201 790q-10 10 -16 23t-6 27q1 14 5 26q6 12 16 23q10 12 23 16q13 5 27 5q15 0 27 -5q13 -3 22 -15q12 -10 16 -23q4 -12 4 -27q0 -14 -4 -26t-16 -23q-9 -11 -22 -17
q-3 0 -11 -3v0q-8 -2 -16 -2q-14 1 -26 5q-12 6 -23 16zM418 790q-10 10 -16 23t-6 27t5 26q6 12 16 23q11 12 23 16q14 5 27 5q15 0 27 -5q12 -3 22 -15q12 -10 16 -23q6 -12 5 -27q1 -14 -5 -26q-4 -12 -16 -23q-10 -11 -22 -17q-12 -4 -27 -5q-14 1 -26 5q-11 6 -23 16z
" />
    <glyph glyph-name="Ydieresis" unicode="&#x178;" horiz-adv-x="715" 
d="M0 698h188q42 -56 167 -226q43 58 169 226h191q-67 -90 -268 -363v-335h-176v332q-67 92 -271 366zM201 790q-10 10 -16 23t-6 27q1 14 5 26q6 12 16 23q10 12 23 16q13 5 27 5q15 0 27 -5q13 -3 22 -15q12 -10 16 -23q4 -12 4 -27q0 -14 -4 -26t-16 -23q-9 -11 -22 -17
q-3 0 -11 -3v0q-8 -2 -16 -2q-14 1 -26 5q-12 6 -23 16zM418 790q-10 10 -16 23t-6 27t5 26q6 12 16 23q11 12 23 16q14 5 27 5q15 0 27 -5q12 -3 22 -15q12 -10 16 -23q6 -12 5 -27q1 -14 -5 -26q-4 -12 -16 -23q-10 -11 -22 -17q-12 -4 -27 -5q-14 1 -26 5q-11 6 -23 16z
" />
    <glyph glyph-name="Amacron" unicode="&#x100;" horiz-adv-x="795" 
d="M304 699h183q77 -174 308 -699h-181q-16 40 -67 161h-300q-16 -39 -67 -161h-180q76 176 304 699zM396 527q-26 -63 -103 -254h208q-25 65 -105 254zM240 782v98h314v-98h-314z" />
    <glyph glyph-name="amacron" unicode="&#x101;" horiz-adv-x="539" 
d="M262 506q50 0 88 -10q39 -10 65 -31q27 -21 40 -50q13 -28 13 -66v-205q0 -20 6 -31t16 -11t21 5q12 4 26 13v-94q-38 -16 -72 -26q-33 -9 -64 -9q-31 1 -52 13q-19 14 -27 39q-30 -25 -67 -39q-36 -12 -80 -13q-33 0 -59 8q-24 9 -44 26q-18 18 -28 40q-10 24 -10 51
q0 36 15 62q15 27 44 45q31 20 85 41q56 22 136 48v12q0 21 -4 35q-4 15 -16 23q-10 10 -25 13q-15 4 -36 4q-50 0 -96 -22q-45 -21 -88 -67v128q44 34 96 51q7 3 13 4h1q49 13 103 13zM185 135q1 -11 4 -23q4 -9 12 -18q8 -6 17 -11q10 -3 22 -4q18 0 35 9q19 9 39 27v126
q-24 -9 -41 -18q-17 -8 -29 -14q-10 -4 -21 -13q-9 -6 -19 -17q-8 -9 -14 -20q-4 -12 -5 -24zM108 682h314v-97h-21h-293v97z" />
    <glyph glyph-name="Abreve" unicode="&#x102;" horiz-adv-x="795" 
d="M304 699h183q77 -174 308 -699h-181q-16 40 -67 161h-300q-16 -39 -67 -161h-180q76 176 304 699zM396 527q-26 -63 -103 -254h208q-25 65 -105 254zM213 915h96q9 -32 30 -48q24 -17 60 -17q18 0 32 4q15 4 25 13q12 10 18 22q8 12 10 26h97q-5 -39 -20 -70
q-13 -31 -39 -53q-20 -18 -48 -31v0q-3 0 -7 -2q-31 -11 -70 -11t-71 11q-32 12 -57 33q-23 22 -38 53q-14 31 -18 70z" />
    <glyph glyph-name="abreve" unicode="&#x103;" horiz-adv-x="539" 
d="M262 506q50 0 88 -10q39 -10 65 -31q27 -21 40 -50q13 -28 13 -66v-205q0 -20 6 -31t16 -11t21 5q12 4 26 13v-94q-38 -16 -72 -26q-33 -9 -64 -9q-31 1 -52 13q-19 14 -27 39q-30 -25 -67 -39q-36 -12 -80 -13q-33 0 -59 8q-24 9 -44 26q-18 18 -28 40q-10 24 -10 51
q0 36 15 62q15 27 44 45q31 20 85 41q56 22 136 48v12q0 21 -4 35q-4 15 -16 23q-10 10 -25 13q-15 4 -36 4q-50 0 -96 -22q-45 -21 -88 -67v128q44 34 96 51q6 1 10 3q50 14 107 14zM185 135q1 -11 4 -23q4 -9 12 -18q8 -6 17 -11q10 -3 22 -4q18 0 35 9q19 9 39 27v126
q-24 -9 -41 -18q-17 -8 -29 -14q-10 -4 -21 -13q-9 -6 -19 -17q-8 -9 -14 -20q-4 -12 -5 -24zM90 715h91q9 -32 30 -48q21 -15 54 -16q18 1 30 4q13 3 22 11q10 8 18 20q9 12 12 29h92q-3 -33 -16 -61t-37 -52q-22 -22 -53 -35q-15 -6 -34 -9v0q-15 -3 -34 -3q-34 1 -64 11
q-27 10 -51 31t-38 51t-22 67z" />
    <glyph glyph-name="Aogonek" unicode="&#x104;" horiz-adv-x="795" 
d="M304 699h183q77 -174 308 -699h-103q-6 -14 -12 -27q-4 -12 -4 -27q0 -10 4 -20q4 -8 10 -16q9 -6 19 -10q10 -3 24 -3q13 0 25 2q12 3 20 6v-81q-21 -8 -42 -14q-20 -6 -41 -6q-24 0 -45 7q-20 7 -35 22q-12 15 -21 36q-6 21 -7 46q1 23 7 44q8 23 20 41q-22 54 -67 161
h-300q-16 -39 -67 -161h-180q76 176 304 699zM396 527q-26 -63 -103 -254h208q-25 65 -105 254z" />
    <glyph glyph-name="aogonek" unicode="&#x105;" horiz-adv-x="539" 
d="M262 506q50 0 88 -10q39 -10 65 -31q27 -21 40 -50q13 -28 13 -66v-215q0 -21 6 -31q6 -11 16 -11q9 0 21 5q12 4 27 13v-84q-26 -12 -52 -21q-24 -8 -46 -11q-6 -12 -9 -24t-3 -24q0 -10 4 -20q4 -8 10 -16q9 -6 19 -10q12 -3 24 -3q13 0 25 2q12 3 20 6v-81
q-21 -8 -42 -14q-20 -6 -41 -6q-24 0 -44 7t-35 22q-14 15 -23 36q-7 21 -7 46q0 21 7 41q6 21 20 41q-16 6 -28 16q-11 12 -15 30q-30 -25 -67 -39q-36 -12 -80 -13q-33 0 -59 8q-24 9 -44 26q-18 18 -28 40q-10 24 -10 51q0 36 15 62q15 27 44 45q31 20 85 41
q56 22 136 48v12q0 21 -4 35q-4 15 -16 23q-10 10 -25 13q-15 4 -36 4q-50 0 -96 -22q-45 -21 -88 -67v128q44 34 96 51q54 17 117 17zM185 135q1 -11 4 -23q4 -9 12 -18q8 -6 17 -11q10 -3 22 -4q18 0 35 9q19 9 39 27v126q-24 -9 -41 -18q-17 -8 -29 -14q-10 -4 -21 -13
q-9 -6 -19 -17q-8 -9 -14 -20q-4 -12 -5 -24z" />
    <glyph glyph-name="Cacute" unicode="&#x106;" horiz-adv-x="750" 
d="M434 708q66 0 130 -14q66 -12 130 -41v-161q-58 38 -116 56q-57 18 -114 18q-56 0 -100 -15t-76 -48q-32 -32 -48 -72q-16 -39 -16 -85q0 -44 16 -82t48 -69q33 -31 75 -47q43 -16 97 -16q62 0 121 19q60 19 117 58v-157q-56 -30 -123 -46q-66 -15 -144 -15
q-88 1 -160 25q-69 26 -123 76q-51 52 -78 115q-26 66 -26 142q0 83 28 146q28 66 82 114q56 50 125 74q66 23 146 25h9zM325 755q25 42 97 168h183q-45 -42 -186 -168h-94z" />
    <glyph glyph-name="cacute" unicode="&#x107;" horiz-adv-x="500" 
d="M304 506q39 0 78 -7q38 -7 77 -23v-130q-33 18 -67 25q-34 9 -67 9q-27 0 -51 -9q-22 -9 -42 -27q-16 -18 -26 -42q-9 -22 -9 -52q0 -28 8 -52q9 -22 27 -42q20 -18 43 -29q25 -9 55 -9t63 7q36 9 75 23v-126q-40 -15 -80 -24q-40 -6 -81 -7q-31 1 -58 4q-27 4 -52 13
q-24 10 -44 20q-19 12 -34 25q-15 15 -27 30q-12 16 -22 34q-10 19 -16 35t-11 32q-3 18 -5 33t-2 31q0 21 3 42q3 22 10 43l18 42q11 21 25 41q16 21 36 36q21 16 48 28q28 14 60 20q26 4 52 6h16zM279 730h168q-39 -42 -162 -168h-87q21 42 81 168z" />
    <glyph glyph-name="Ccircumflex" unicode="&#x108;" horiz-adv-x="750" 
d="M434 708q66 0 130 -14q66 -12 130 -41v-161q-58 38 -116 56q-57 18 -114 18q-56 0 -100 -15t-76 -48q-32 -32 -48 -72q-16 -39 -16 -85q0 -44 16 -82t48 -69q33 -31 75 -47q43 -16 97 -16q62 0 121 19q60 19 117 58v-157q-56 -30 -123 -46q-66 -15 -144 -15
q-88 1 -160 25q-69 26 -123 76q-51 52 -78 115q-26 66 -26 142q0 83 28 146q28 66 82 114q56 50 125 74q42 15 88 20q3 1 4 1q30 4 63 4zM239 755l100 168h186q27 -42 103 -168h-96q-24 23 -100 92q-24 -23 -100 -92h-93z" />
    <glyph glyph-name="ccircumflex" unicode="&#x109;" horiz-adv-x="500" 
d="M304 506q39 0 78 -7q38 -7 77 -23v-130q-33 18 -67 25q-34 9 -67 9q-27 0 -51 -9q-22 -9 -42 -27q-16 -18 -26 -42q-9 -22 -9 -52q0 -28 8 -52q9 -22 27 -42q20 -18 43 -29q25 -9 55 -9t63 7q36 9 75 23v-126q-40 -15 -80 -24q-40 -6 -81 -7q-31 1 -58 4q-27 4 -52 13
q-24 10 -44 20q-19 12 -34 25q-15 15 -27 30q-12 16 -22 34q-10 19 -16 35t-11 32q-3 18 -5 33t-2 31q0 21 3 42q3 22 10 43l18 42q11 21 25 41q16 21 36 36q21 16 48 28q28 14 59 20h1h1q33 6 67 6zM193 730h181q24 -42 91 -168h-94q-21 24 -88 91q-21 -21 -88 -91h-93
q24 42 91 168z" />
    <glyph glyph-name="Cdot" unicode="&#x10a;" horiz-adv-x="750" 
d="M434 708q66 0 130 -14q66 -12 130 -41v-161q-58 38 -116 56q-57 18 -114 18q-56 0 -100 -15t-76 -48q-32 -32 -48 -72q-16 -39 -16 -85q0 -44 16 -82t48 -69q33 -31 75 -47q43 -16 97 -16q62 0 121 19q60 19 117 58v-157q-56 -30 -123 -46q-66 -15 -144 -15
q-88 1 -160 25q-69 26 -123 76q-51 52 -78 115q-26 66 -26 142q0 83 28 146q28 66 82 114q56 50 125 74q66 23 146 25h9zM422 929q18 0 31 -6q15 -4 26 -18q14 -11 18 -26q6 -13 6 -31q0 -16 -6 -32q-4 -14 -18 -26q-11 -12 -26 -18q-14 -6 -30 -6v0h-1q-16 0 -32 6
q-14 6 -26 18t-18 26q-6 16 -6 32q0 18 6 30q6 14 18 26t26 19q16 6 32 6z" />
    <glyph glyph-name="cdot" unicode="&#x10b;" horiz-adv-x="500" 
d="M304 506q39 0 78 -7q38 -7 77 -23v-130q-33 18 -67 25q-34 9 -67 9q-27 0 -51 -9q-22 -9 -42 -27q-16 -18 -26 -42q-9 -22 -9 -52q0 -28 8 -52q9 -22 27 -42q20 -18 43 -29q25 -9 55 -9t63 7q36 9 75 23v-126q-40 -15 -80 -24q-40 -6 -81 -7q-31 1 -58 4q-27 4 -52 13
q-24 10 -44 20q-19 12 -34 25q-15 15 -27 30q-12 16 -22 34q-10 19 -16 35t-11 32q-3 18 -5 33t-2 31q0 21 3 42q3 22 10 43l18 42q11 21 25 41q16 21 36 36q21 16 48 28q28 14 60 20q27 6 55 6h13zM365 651q0 -16 -6 -31q-6 -14 -18 -26q-11 -12 -26 -19q-13 -4 -28 -6h-3
q-16 0 -32 6q-14 6 -27 18q-11 12 -17 27t-6 31q0 17 5 31q6 14 18 26q13 12 27 18q16 6 32 6q18 0 31 -5q15 -6 26 -18q12 -12 18 -27q6 -14 6 -31z" />
    <glyph glyph-name="Ccaron" unicode="&#x10c;" horiz-adv-x="750" 
d="M434 708q66 0 130 -14q66 -12 130 -41v-161q-58 38 -116 56q-57 18 -114 18q-56 0 -100 -15t-76 -48q-32 -32 -48 -72q-16 -39 -16 -85q0 -44 16 -82t48 -69q33 -31 75 -47q43 -16 97 -16q62 0 121 19q60 19 117 58v-157q-56 -30 -123 -46q-66 -15 -144 -15
q-88 1 -160 25q-69 26 -123 76q-51 52 -78 115q-26 66 -26 142q0 83 28 146q28 66 82 114q56 50 125 74q11 3 20 6q1 1 3 1q62 18 132 18zM338 755q-24 42 -101 168h94q26 -23 101 -95q26 24 99 95h95q-24 -42 -101 -168h-94h-93z" />
    <glyph glyph-name="ccaron" unicode="&#x10d;" horiz-adv-x="500" 
d="M304 506q39 0 78 -7q38 -7 77 -23v-130q-33 18 -67 25q-34 9 -67 9q-27 0 -51 -9q-22 -9 -42 -27q-16 -18 -26 -42q-9 -22 -9 -52q0 -28 8 -52q9 -22 27 -42q20 -18 43 -29q25 -9 55 -9t63 7q36 9 75 23v-126q-40 -15 -80 -24q-40 -6 -81 -7q-31 1 -58 4q-27 4 -52 13
q-24 10 -44 20q-19 12 -34 25q-15 15 -27 30q-12 16 -22 34q-10 19 -16 35t-11 32q-3 18 -5 33t-2 31q0 21 3 42q3 22 10 43l18 42q11 21 25 41q16 21 36 36q21 16 48 28q6 3 13 6q3 0 4 1q21 9 43 13q32 6 68 6zM100 730h94q24 -22 93 -91q23 23 92 91h94l-96 -168h-70
h-111z" />
    <glyph glyph-name="Dcaron" unicode="&#x10e;" horiz-adv-x="810" 
d="M75 698h108h187q96 0 168 -23q74 -22 125 -72q53 -47 77 -110q26 -63 26 -142q0 -82 -25 -148q-23 -65 -74 -111q-49 -45 -121 -69q-72 -23 -166 -23h-305v698zM251 128h111q114 0 168 55q56 55 56 165q0 54 -15 95q-15 43 -45 71q-28 30 -72 45q-42 15 -98 14h-105v-445
zM285 755q-26 42 -102 168h95q26 -23 101 -95q25 24 99 95h94q-24 -42 -100 -168h-92h-95z" />
    <glyph glyph-name="dcaron" unicode="&#x10f;" horiz-adv-x="785" 
d="M197 256q0 -36 8 -63q8 -26 24 -42q18 -15 46 -24q29 -8 68 -8h57v242q-20 15 -42 21q-22 8 -49 7q-23 0 -44 -9q-21 -8 -37 -27q-14 -18 -23 -42q-8 -23 -8 -55zM400 698h153v-698h-225q-78 0 -135 16q-56 18 -90 50q-33 34 -50 80q-17 48 -17 109q0 53 15 98
q16 45 48 80q33 37 76 55q45 18 99 18q38 0 69 -8t57 -25v225zM606 432v20q34 10 52 34t18 62q-14 2 -26 6q-12 6 -21 15q-9 12 -14 24q-5 14 -5 29q0 21 7 36q6 16 20 28q15 12 30 19q16 6 34 6q23 1 39 -7q16 -6 30 -22q15 -14 21 -34q7 -18 7 -44q0 -33 -13 -63
q-13 -28 -40 -55q-25 -24 -61 -38q-34 -14 -78 -16z" />
    <glyph glyph-name="Dcroat" unicode="&#x110;" horiz-adv-x="810" 
d="M75 698h295q96 0 168 -23q74 -22 125 -72q53 -47 77 -110q26 -63 26 -142q0 -82 -25 -148q-23 -65 -74 -111q-49 -45 -121 -69q-72 -23 -166 -23h-305v301h-75v96h75v301zM251 128h111q114 0 168 55q56 55 56 165q0 54 -15 95q-15 43 -45 71q-28 30 -72 45q-42 15 -98 14
h-105v-176h160v-96h-160v-173z" />
    <glyph glyph-name="dcroat" unicode="&#x111;" horiz-adv-x="612" 
d="M399 698h154v-58h73v-76h-73v-564h-230q-75 0 -131 16q-54 16 -89 49q-33 33 -50 80q-17 48 -17 111q0 52 15 97q16 45 48 80q33 37 76 55q45 18 99 18q38 0 68 -8q32 -8 57 -25v91h-109v76h109v58zM197 256q1 -36 7 -64q9 -26 24 -42q18 -15 45 -24q29 -8 68 -8h58v244
q-20 15 -42 21q-22 7 -48 7q-23 0 -44 -9t-37 -28q-14 -18 -23 -42q-8 -23 -8 -55z" />
    <glyph glyph-name="Emacron" unicode="&#x112;" horiz-adv-x="614" 
d="M75 698h79h399v-125h-302v-153h289v-125h-289v-170h310v-125h-486v698zM154 782v98h314v-98h-314z" />
    <glyph glyph-name="emacron" unicode="&#x113;" horiz-adv-x="574" 
d="M304 506q52 0 94 -17q42 -15 76 -51q34 -34 51 -82t17 -111v-29h-348q4 -26 16 -47t32 -38q21 -15 45 -24q25 -9 52 -9q46 0 94 13t96 40v-106q-45 -27 -101 -41q-54 -12 -119 -13q-60 1 -111 17q-50 18 -87 53q-36 38 -56 84q-19 49 -19 106t18 103t54 81q36 37 86 53
q3 2 6 2h1q47 16 103 16zM190 294h206q0 26 -6 46t-20 35q-12 15 -32 22q-18 7 -41 7q-22 0 -42 -7q-18 -8 -34 -23q-13 -15 -22 -36q-7 -20 -9 -44zM136 682h315v-97h-142h-173v97z" />
    <glyph glyph-name="Ebreve" unicode="&#x114;" horiz-adv-x="614" 
d="M75 698h54h424v-125h-302v-153h289v-125h-289v-170h310v-125h-486v698zM129 915h96q9 -32 30 -48q24 -17 60 -17q18 0 32 4q15 4 25 13q12 10 18 22q8 12 10 26h97q-5 -39 -20 -70q-13 -31 -39 -53q-24 -21 -55 -33q-6 -3 -16 -5v0q-24 -6 -54 -6q-39 0 -71 11
q-32 12 -57 33q-23 22 -38 53q-14 31 -18 70z" />
    <glyph glyph-name="ebreve" unicode="&#x115;" horiz-adv-x="574" 
d="M304 506q52 0 94 -17q42 -15 76 -51q34 -34 51 -82t17 -111v-29h-348q4 -26 16 -47t32 -38q21 -15 45 -24q25 -9 52 -9q46 0 94 13t96 40v-106q-45 -27 -101 -41q-54 -12 -119 -13q-60 1 -111 17q-50 18 -87 53q-36 38 -56 84q-19 49 -19 106t18 103t54 81q36 37 86 53v1
q50 17 110 17zM190 294h206q0 26 -6 46t-20 35q-12 15 -32 22q-18 7 -41 7q-22 0 -42 -7q-18 -8 -34 -23q-13 -15 -22 -36q-7 -20 -9 -44zM115 715h91q8 -32 29 -48q21 -15 55 -16q18 1 30 4q14 3 22 11q10 8 18 20t12 29h92q-2 -33 -16 -61t-37 -52q-22 -22 -54 -35
q-27 -10 -62 -12h-5q-36 1 -64 11t-52 31q-22 21 -38 51q-14 30 -21 67z" />
    <glyph glyph-name="Edot" unicode="&#x116;" horiz-adv-x="614" 
d="M75 698h229h249v-125h-302v-153h289v-125h-289v-170h310v-125h-486v698zM385 848q0 -16 -6 -32q-4 -14 -18 -26q-11 -12 -26 -18q-3 -2 -6 -3q1 0 -1 0q-10 -3 -24 -3q-16 0 -31 6t-27 18t-18 26q-6 16 -6 32q0 18 6 30q6 14 18 26t27 19q15 6 31 6q18 0 31 -6
q15 -4 26 -18q14 -11 18 -26q6 -13 6 -31z" />
    <glyph glyph-name="edot" unicode="&#x117;" horiz-adv-x="574" 
d="M304 506q52 0 94 -17q42 -15 76 -51q34 -34 51 -82t17 -111v-29h-348q4 -26 16 -47t32 -38q21 -15 45 -24q25 -9 52 -9q46 0 94 13t96 40v-106q-45 -27 -101 -41q-54 -12 -119 -13q-60 1 -111 17q-50 18 -87 53q-36 38 -56 84q-19 49 -19 106t18 103t54 81q36 37 86 53
q46 18 102 18h8zM190 294h206q0 26 -6 46t-20 35q-12 15 -32 22q-18 7 -41 7q-22 0 -42 -7q-18 -8 -34 -23q-13 -15 -22 -36q-7 -20 -9 -44zM293 732q17 0 31 -5q16 -6 26 -18q12 -12 18 -27q6 -14 6 -31q0 -16 -6 -31q-6 -14 -18 -26q-10 -12 -26 -19q-12 -4 -31 -6v0
q-17 0 -32 6q-13 6 -27 18q-10 12 -17 27q-6 15 -6 31q0 17 6 31q7 14 17 26q14 12 27 18q15 6 32 6z" />
    <glyph glyph-name="Eogonek" unicode="&#x118;" horiz-adv-x="614" 
d="M75 698h478v-125h-302v-153h289v-125h-289v-170h311v-125h-86q-8 -14 -12 -27q-4 -12 -4 -27q0 -10 3 -20q3 -8 11 -16q9 -6 19 -10q10 -3 24 -3q13 0 25 2q12 3 20 6v-81q-21 -8 -42 -14q-20 -6 -41 -6q-23 0 -44 7q-19 7 -35 22q-14 15 -22 36q-6 21 -7 46q1 23 7 44
q8 21 20 41h-323v698z" />
    <glyph glyph-name="eogonek" unicode="&#x119;" horiz-adv-x="574" 
d="M304 506q52 0 94 -17q42 -15 76 -51q34 -34 51 -82t17 -111v-29h-348q4 -26 16 -47t32 -38q21 -15 45 -24q25 -9 52 -9q46 0 94 13t96 40v-106q-25 -14 -52 -24t-56 -18q-9 -13 -14 -28q-5 -14 -5 -29q0 -10 4 -20q3 -8 11 -16q8 -6 18 -10q11 -3 25 -3t24 2q12 3 21 6
v-81q-21 -8 -42 -14q-20 -6 -41 -6q-24 0 -44 7t-35 22t-22 36q-8 21 -8 46q0 20 6 38q7 21 17 39q-4 0 -11 -1h-16q-60 1 -111 17q-50 18 -87 53q-36 38 -56 84q-19 49 -19 106t18 103t54 81q36 37 86 53q50 18 110 18zM190 294h206q0 26 -6 46t-20 35q-12 15 -32 22
q-18 7 -41 7q-22 0 -42 -7q-18 -8 -34 -23q-13 -15 -22 -36q-7 -20 -9 -44z" />
    <glyph glyph-name="Ecaron" unicode="&#x11a;" horiz-adv-x="614" 
d="M75 698h37h441v-125h-302v-153h289v-125h-289v-170h310v-125h-486v698zM213 755q-25 42 -101 168h94q26 -23 101 -95q25 24 100 95h94q-25 -42 -101 -168h-187z" />
    <glyph glyph-name="ecaron" unicode="&#x11b;" horiz-adv-x="574" 
d="M304 506q52 0 94 -17q42 -15 76 -51q34 -34 51 -82t17 -111v-29h-348q4 -26 16 -47t32 -38q21 -15 45 -24q25 -9 52 -9q46 0 94 13t96 40v-106q-45 -27 -101 -41q-54 -12 -119 -13q-60 1 -111 17q-50 18 -87 53q-36 38 -56 84q-19 49 -19 106t18 103t54 81q36 36 86 53v0
q50 18 110 18zM190 294h206q0 26 -6 46t-20 35q-12 15 -32 22q-18 7 -41 7q-22 0 -42 -7q-18 -8 -34 -23q-13 -15 -22 -36q-7 -20 -9 -44zM108 730h93q24 -22 93 -91q24 23 92 91h94l-96 -168h-75h-106q-23 42 -95 168z" />
    <glyph glyph-name="Gcircumflex" unicode="&#x11c;" horiz-adv-x="799" 
d="M711 654v-145q-53 33 -113 48q-58 15 -123 15q-31 0 -61 -4q-27 -4 -54 -16q-24 -9 -44 -23q-20 -12 -34 -30q-14 -17 -25 -35q-10 -16 -18 -37q-7 -18 -11 -39q-4 -20 -4 -41q0 -45 16 -84q15 -39 48 -70t75 -47q43 -16 97 -16q26 0 53 4q27 6 53 12v102h-106v125h264
v-324q-70 -29 -144 -44q-72 -14 -148 -14q-87 1 -159 25q-71 26 -123 74q-52 51 -79 114q-27 66 -27 143t26 140q27 65 78 116q54 52 126 78q42 15 88 22h1q37 5 76 5q67 0 135 -14q68 -12 137 -40zM232 755q26 42 101 168h186q27 -42 103 -168h-96q-24 23 -100 92
q-24 -23 -100 -92h-94z" />
    <glyph glyph-name="gcircumflex" unicode="&#x11d;" horiz-adv-x="535" 
d="M527 497v-98h-90q24 -19 36 -45q11 -24 11 -56q0 -33 -12 -61q-10 -27 -37 -50q-24 -21 -58 -34q-33 -13 -77 -16q-34 -3 -52 -12t-18 -25q0 -9 6 -15t17 -10q13 -3 34 -8q21 -3 53 -8q88 -9 130 -45q44 -36 43 -98q0 -38 -16 -66q-15 -28 -47 -50q-33 -20 -79 -30
q-45 -10 -106 -11q-60 0 -106 9q-45 9 -78 27q-32 20 -48 44q-15 26 -16 56q0 21 8 39q7 18 21 33q16 17 38 27q22 12 53 15q-21 11 -33 26t-12 37q0 15 5 27q6 14 15 24q10 11 24 19q15 9 33 12q-31 9 -55 24q-22 15 -40 36q-16 22 -26 46q-8 24 -8 51q0 45 15 78
q17 34 47 58q33 25 77 37q17 6 33 8q32 6 67 5h248zM174 309q0 -17 6 -32q6 -14 19 -26q12 -12 27 -18q16 -6 34 -6q21 0 36 6q16 6 29 18t19 27q6 16 6 33q0 19 -6 34t-19 27t-28 18t-34 6q-20 0 -36 -6q-15 -6 -28 -20t-19 -29t-6 -32zM270 -158q28 0 49 4q22 4 37 12
q16 8 23 20q9 12 8 26q0 30 -30 44q-29 15 -92 15q-57 0 -85 -15t-28 -45t29 -45q31 -16 89 -16zM174 730h181q23 -42 91 -168h-94q-22 24 -88 91q-22 -21 -88 -91h-92q22 42 90 168z" />
    <glyph glyph-name="Gbreve" unicode="&#x11e;" horiz-adv-x="799" 
d="M711 654v-145q-53 33 -113 48q-58 15 -123 15q-31 0 -61 -4q-27 -4 -54 -16q-24 -9 -44 -23q-20 -12 -34 -30q-14 -17 -25 -35q-10 -16 -18 -37q-7 -18 -11 -39q-4 -20 -4 -41q0 -45 16 -84q15 -39 48 -70t75 -47q43 -16 97 -16q26 0 53 4q27 6 53 12v102h-106v125h264
v-324q-70 -29 -144 -44q-72 -14 -148 -14q-87 1 -159 25q-71 26 -123 74q-52 51 -79 114q-27 66 -27 143t26 140q27 65 78 116q54 52 126 78q16 7 31 10q3 1 5 1q60 16 129 16q67 0 135 -14q68 -12 137 -40zM252 915h96q9 -32 30 -48q24 -17 60 -17q18 0 32 4q15 4 25 13
q12 10 18 22q7 12 10 26h97q-4 -39 -20 -70q-14 -31 -39 -53q-23 -21 -55 -33q-30 -11 -71 -11v0h-1q-36 0 -69 11q-31 12 -57 33q-24 22 -38 53t-18 70z" />
    <glyph glyph-name="gbreve" unicode="&#x11f;" horiz-adv-x="535" 
d="M527 497v-98h-90q24 -19 36 -45q11 -24 11 -56q0 -33 -12 -61q-10 -27 -37 -50q-24 -21 -58 -34q-33 -13 -77 -16q-34 -3 -52 -12t-18 -25q0 -9 6 -15t17 -10q13 -3 34 -8q21 -3 53 -8q88 -9 130 -45q44 -36 43 -98q0 -38 -16 -66q-15 -28 -47 -50q-33 -20 -79 -30
q-45 -10 -106 -11q-60 0 -106 9q-45 9 -78 27q-32 20 -48 44q-15 26 -16 56q0 21 8 39q7 18 21 33q16 17 38 27q22 12 53 15q-21 11 -33 26t-12 37q0 15 5 27q6 14 15 24q10 11 24 19q15 9 33 12q-31 9 -55 24q-22 15 -40 36q-16 22 -26 46q-8 24 -8 51q0 45 15 78
q17 34 47 58q30 23 68 35h1q5 2 8 2q43 14 100 13h248zM174 309q0 -17 6 -32q6 -14 19 -26q12 -12 27 -18q16 -6 34 -6q21 0 36 6q16 6 29 18t19 27q6 16 6 33q0 19 -6 34t-19 27t-28 18t-34 6q-20 0 -36 -6q-15 -6 -28 -20t-19 -29t-6 -32zM270 -158q28 0 49 4q22 4 37 12
q16 8 23 20q9 12 8 26q0 30 -30 44q-29 15 -92 15q-57 0 -85 -15t-28 -45t29 -45q31 -16 89 -16zM98 715h91q9 -32 30 -48q21 -15 54 -16q18 1 30 4q14 3 23 11q10 8 17 20q9 12 12 29h92q-3 -33 -16 -61t-37 -52q-22 -22 -53 -35q-30 -12 -70 -12v0h-1q-33 1 -61 11
q-27 10 -51 31q-22 21 -38 51q-14 30 -22 67z" />
    <glyph glyph-name="Gdot" unicode="&#x120;" horiz-adv-x="799" 
d="M711 654v-145q-53 33 -113 48q-58 15 -123 15q-31 0 -61 -4q-27 -4 -54 -16q-24 -9 -44 -23q-20 -12 -34 -30q-14 -17 -25 -35q-10 -16 -18 -37q-7 -18 -11 -39q-4 -20 -4 -41q0 -45 16 -84q15 -39 48 -70t75 -47q43 -16 97 -16q26 0 53 4q27 6 53 12v102h-106v125h264
v-324q-70 -29 -144 -44q-72 -14 -148 -14q-87 1 -159 25q-71 26 -123 74q-52 51 -79 114q-27 66 -27 143t26 140q27 65 78 116q54 52 126 78q70 27 160 27h5q67 0 135 -14q68 -12 137 -40zM512 848q0 -16 -6 -32q-4 -14 -18 -26q-10 -12 -26 -18q-14 -6 -31 -6q-16 0 -31 6
t-27 18t-18 26q-6 16 -6 32q0 18 6 30q6 14 18 26t27 19q15 6 31 6q17 0 31 -6q16 -4 26 -18q14 -11 18 -26q6 -13 6 -31z" />
    <glyph glyph-name="gdot" unicode="&#x121;" horiz-adv-x="535" 
d="M527 497v-98h-90q24 -19 36 -45q11 -24 11 -56q0 -33 -12 -61q-10 -27 -37 -50q-24 -21 -58 -34q-33 -13 -77 -16q-34 -3 -52 -12t-18 -25q0 -9 6 -15t17 -10q13 -3 34 -8q21 -3 53 -8q88 -9 130 -45q44 -36 43 -98q0 -38 -16 -66q-15 -28 -47 -50q-33 -20 -79 -30
q-45 -10 -106 -11q-60 0 -106 9q-45 9 -78 27q-32 20 -48 44q-15 26 -16 56q0 21 8 39q7 18 21 33q16 17 38 27q22 12 53 15q-21 11 -33 26t-12 37q0 15 5 27q6 14 15 24q10 11 24 19q15 9 33 12q-31 9 -55 24q-22 15 -40 36q-16 22 -26 46q-8 24 -8 51q0 45 15 78
q17 34 47 58q33 25 77 37q40 12 90 13h10h248zM174 309q0 -17 6 -32q6 -14 19 -26q12 -12 27 -18q16 -6 34 -6q21 0 36 6q16 6 29 18t19 27q6 16 6 33q0 19 -6 34t-19 27t-28 18t-34 6q-20 0 -36 -6q-15 -6 -28 -20t-19 -29t-6 -32zM270 -158q28 0 49 4q22 4 37 12
q16 8 23 20q9 12 8 26q0 30 -30 44q-29 15 -92 15q-57 0 -85 -15t-28 -45t29 -45q31 -16 89 -16zM346 651q0 -16 -6 -31q-4 -14 -17 -26q-11 -12 -26 -19q-15 -6 -32 -6q-16 0 -31 6t-27 18t-18 27t-6 31q0 17 6 31t18 26t27 18t31 6q17 0 32 -5q15 -6 26 -18q13 -12 17 -27
q6 -14 6 -31z" />
    <glyph glyph-name="Gcedilla" unicode="&#x122;" horiz-adv-x="799" 
d="M711 654v-145q-53 33 -113 48q-58 15 -123 15q-31 0 -61 -4q-27 -4 -54 -16q-24 -9 -44 -23q-20 -12 -34 -30q-14 -17 -25 -35q-10 -16 -18 -37q-7 -18 -11 -39q-4 -20 -4 -41q0 -45 16 -84q15 -39 48 -70t75 -47q43 -16 97 -16q26 0 53 4q27 6 53 12v102h-106v125h264
v-324q-70 -29 -144 -44q-72 -14 -148 -14q-32 0 -64 3q-50 6 -95 22q-71 26 -123 74q-52 51 -79 114q-27 66 -27 143t26 140q27 65 78 116q54 52 126 78q72 27 165 27q67 0 135 -14q68 -12 137 -40zM336 -283v18q32 12 46 30q16 20 16 47q-14 2 -26 6q-12 6 -21 13
q-7 9 -13 20q-4 12 -4 24q0 19 6 31q6 15 18 24q14 12 29 16q15 6 36 6v0q18 0 33 -6q16 -6 28 -19q14 -11 20 -29q6 -16 6 -38q0 -28 -12 -53q-10 -24 -35 -45q-22 -20 -55 -31q-32 -11 -72 -14z" />
    <glyph glyph-name="gcedilla" unicode="&#x123;" horiz-adv-x="535" 
d="M527 497v-98h-90q24 -19 36 -45q11 -24 11 -56q0 -33 -12 -61q-10 -27 -37 -50q-24 -21 -58 -34q-33 -13 -77 -16q-34 -3 -52 -12t-18 -25q0 -9 6 -15t17 -10q13 -3 34 -8q21 -3 53 -8q88 -9 130 -45q44 -36 43 -98q0 -38 -16 -66q-15 -28 -47 -50q-33 -20 -79 -30
q-45 -10 -106 -11q-60 0 -106 9q-45 9 -78 27q-32 20 -48 44q-15 26 -16 56q0 21 8 39q7 18 21 33q16 17 38 27q22 12 53 15q-21 11 -33 26t-12 37q0 15 5 27q6 14 15 24q10 11 24 19q15 9 33 12q-31 9 -55 24q-22 15 -40 36q-16 22 -26 46q-8 24 -8 51q0 45 15 78
q17 34 47 58q33 25 77 37q43 14 100 13h72h176zM174 309q0 -17 6 -32q6 -14 19 -26q12 -12 27 -18q16 -6 34 -6q21 0 36 6q16 6 29 18t19 27q6 16 6 33q0 19 -6 34t-19 27t-28 18t-34 6q-20 0 -36 -6q-15 -6 -28 -20t-19 -29t-6 -32zM270 -158q28 0 49 4q22 4 37 12
q16 8 23 20q9 12 8 26q0 30 -30 44q-29 15 -92 15q-57 0 -85 -15t-28 -45t29 -45q31 -16 89 -16zM351 777q1 -3 3 -13q-27 -14 -42 -34q-14 -20 -15 -46q14 -2 23 -6q9 -3 17 -12q9 -8 11 -19q4 -9 4 -23q0 -15 -5 -29q-4 -13 -16 -23q-10 -8 -25 -14q-12 -4 -30 -5v0h-1
q-15 0 -28 6q-14 6 -26 18q-11 13 -17 28q-6 16 -6 34q0 27 10 49q12 22 32 42q22 22 49 32q29 12 62 15z" />
    <glyph glyph-name="Hcircumflex" unicode="&#x124;" horiz-adv-x="840" 
d="M75 698h176v-270h338v270h176v-698h-176v282h-338v-282h-176v698zM225 755q26 42 101 168h186q27 -42 102 -168h-95l-100 92q-25 -23 -101 -92h-93z" />
    <glyph glyph-name="hcircumflex" unicode="&#x125;" horiz-adv-x="610" 
d="M381 506q87 0 131 -50t44 -150v-306h-154v285q0 51 -19 75q-19 26 -58 25q-30 1 -57 -19q-28 -18 -55 -57v-309h-154v698h154v-271q35 41 77 59q42 20 91 20zM214 910h181q23 -42 91 -168h-94q-22 24 -88 92q-22 -22 -88 -92h-92q22 42 90 168z" />
    <glyph glyph-name="Hbar" unicode="&#x126;" horiz-adv-x="840" 
d="M75 698h176v-84h338v84h176v-84h75v-97h-75v-517h-176v282h-338v-282h-176v517h-75v97h75v84zM251 428h338v89h-338v-89z" />
    <glyph glyph-name="hbar" unicode="&#x127;" horiz-adv-x="610" 
d="M381 496q46 0 79 -13t54 -41q22 -27 32 -63q10 -37 10 -83v-296h-154v274q0 52 -19 76q-19 26 -58 25q-30 1 -57 -19q-28 -18 -55 -57v-299h-154v564h-70v76h70v58h154v-58h190v-76h-190v-147q35 41 77 59q42 20 91 20z" />
    <glyph glyph-name="Itilde" unicode="&#x128;" horiz-adv-x="326" 
d="M75 698h10h166v-698h-176v698zM85 901q15 1 35 -5q22 -6 50 -16q30 -10 47 -17q17 -5 23 -5q18 0 27 11t11 32h71q1 -33 -7 -61q-8 -26 -24 -47q-14 -20 -34 -30q-18 -9 -43 -10h-2v0q-13 1 -34 5t-48 15q-27 12 -45 16q-16 6 -25 6q-17 1 -27 -11q-10 -10 -13 -31h-72
q0 35 8 62q9 29 25 47q18 21 36 30q20 9 41 9z" />
    <glyph glyph-name="itilde" unicode="&#x129;" horiz-adv-x="272" 
d="M59 497h154v-497h-154v497zM59 715q15 1 35 -5q22 -4 50 -16q30 -10 47 -16q19 -4 23 -5q18 1 27 10q9 11 11 32h72q0 -33 -8 -61q-8 -26 -23 -47q-15 -20 -35 -30q-20 -9 -45 -10q-13 1 -34 5q-20 6 -48 16q-27 12 -45 16q-16 6 -25 5q-15 0 -26 -10q-9 -9 -13 -32h-72
q0 36 8 63q9 28 25 46q16 20 36 29q19 10 40 10z" />
    <glyph glyph-name="Imacron" unicode="&#x12a;" horiz-adv-x="326" 
d="M75 698h176v-698h-176v698zM5 782v98h314v-98h-68h-246z" />
    <glyph glyph-name="imacron" unicode="&#x12b;" horiz-adv-x="272" 
d="M59 497h154v-497h-154v497zM-20 682h314v-97h-81h-233v97z" />
    <glyph glyph-name="Ibreve" unicode="&#x12c;" horiz-adv-x="326" 
d="M75 698h176v-698h-176v698zM-22 915h97q8 -32 30 -48q22 -17 60 -17q19 0 31 4q15 4 25 13q13 10 19 22q8 12 10 26h96q-4 -39 -19 -70t-39 -53q-24 -21 -55 -33q-22 -8 -49 -11h-21q-39 0 -71 11q-33 12 -57 33q-24 22 -39 53q-14 31 -18 70z" />
    <glyph glyph-name="ibreve" unicode="&#x12d;" horiz-adv-x="272" 
d="M59 497h154v-497h-154v497zM-38 715h91q9 -32 30 -48q21 -15 54 -16q18 1 30 4q13 3 22 11q10 8 18 20q9 12 12 29h92q-3 -33 -16 -61t-37 -52q-22 -22 -53 -35q-21 -9 -47 -11v0q-9 0 -21 -1q-34 1 -64 11q-27 10 -51 31t-38 51t-22 67z" />
    <glyph glyph-name="Iogonek" unicode="&#x12e;" horiz-adv-x="326" 
d="M75 698h176v-698h-98q-8 -14 -12 -27q-5 -12 -5 -27q0 -10 5 -19q4 -7 13 -16q10 -7 20 -11q12 -3 26 -3q16 0 29 2q13 3 22 6v-81q-21 -8 -44 -14q-21 -6 -45 -6q-26 0 -46 8q-21 8 -37 22q-15 15 -24 36q-8 21 -8 45q1 23 7 44q8 21 21 41v698z" />
    <glyph glyph-name="iogonek" unicode="&#x12f;" horiz-adv-x="272" 
d="M59 497h77h77v-497h-76l-12 -30q-3 -14 -4 -24q0 -24 14 -37q15 -12 43 -12q14 0 25 2q11 3 20 6v-81q-21 -8 -42 -14t-41 -6q-24 0 -44 7q-18 7 -35 22q-13 15 -22 36q-7 21 -7 46q0 23 7 44q8 21 20 41v497zM136 691q15 1 27 -5q12 -4 21 -15q12 -9 16 -23q6 -12 5 -26
q1 -14 -5 -27q-3 -11 -15 -23q-9 -9 -22 -15q-12 -5 -27 -5q-14 0 -26 5q-12 6 -23 15q-9 12 -15 23q-4 13 -5 27q1 14 4 26q6 14 15 23q12 11 23 15q13 6 27 5z" />
    <glyph glyph-name="Idotaccent" unicode="&#x130;" horiz-adv-x="326" 
d="M75 698h76h100v-698h-176v698zM231 848q1 -16 -5 -32q-6 -14 -18 -26t-26 -18q-9 -3 -21 -5q-1 1 -3 -1h-7q-17 0 -32 6t-27 18q-10 12 -17 26q-6 16 -6 32q1 18 5 30q6 14 18 26t27 19q15 6 32 6q16 0 31 -6q14 -4 26 -18q12 -11 18 -26q6 -13 5 -31z" />
    <glyph glyph-name="dotlessi" unicode="&#x131;" horiz-adv-x="272" 
d="M59 497h154v-497h-154v497z" />
    <glyph glyph-name="IJ" unicode="&#x132;" horiz-adv-x="686" 
d="M75 698h176v-698h-176v698zM435 698h176v-642q1 -33 -1 -61t-7 -52q-3 -22 -12 -46q-6 -21 -20 -42q-10 -20 -28 -36q-16 -15 -40 -26q-21 -10 -51 -16q-28 -5 -62 -5q-14 0 -29 1q-15 3 -33 5q-10 50 -28 146q46 0 74 7t39 19q11 14 17 44q6 32 5 80v624z" />
    <glyph glyph-name="ij" unicode="&#x133;" horiz-adv-x="572" 
d="M143 691q15 1 27 -5q12 -4 21 -15q12 -9 16 -23q5 -12 5 -26t-4 -27q-4 -11 -15 -23q-9 -9 -23 -15q-4 0 -8 -2q0 -1 -3 -1q-7 -2 -16 -2q-12 0 -26 5q-11 6 -23 15q-9 12 -15 23q-5 13 -5 27t4 26q6 14 15 23q11 11 23 15q14 6 27 5zM67 497h153v-497h-153v497zM352 497
h154v-530q0 -45 -11 -81t-33 -62t-52 -42q-30 -15 -69 -23q-21 39 -62 117q21 8 35 16q14 10 22 22q9 14 12 33q4 21 4 46v504zM428 691q15 1 27 -5q13 -4 22 -15q12 -9 16 -23q5 -12 5 -26q0 -15 -5 -27q-3 -11 -15 -23q-10 -9 -22 -15q-12 -5 -28 -5q-14 0 -26 5
q-10 6 -22 15q-9 12 -15 23q-6 13 -6 27q1 14 5 25q6 13 15 23q11 10 23 16t26 5z" />
    <glyph glyph-name="Jcircumflex" unicode="&#x134;" horiz-adv-x="336" 
d="M85 698h176v-642q1 -33 -2 -61q0 -28 -6 -52q-4 -22 -12 -46q-8 -21 -20 -42q-10 -20 -28 -36q-16 -15 -40 -26q-23 -10 -51 -16q-28 -5 -62 -5q-14 0 -29 1q-15 3 -34 5q-9 50 -27 146q46 0 73 7q30 7 39 19q12 14 17 44q6 32 6 80v624zM-29 755q26 42 101 168h186
q27 -42 102 -168h-95l-100 92l-100 -92h-25h-69z" />
    <glyph glyph-name="jcircumflex" unicode="&#x135;" horiz-adv-x="272" 
d="M59 497h154v-530q1 -45 -11 -81q-10 -36 -33 -62q-21 -26 -51 -42q-30 -15 -69 -23l-63 117q20 8 35 16q15 10 22 22q9 14 12 33q4 21 4 46v504zM44 730h181q23 -42 91 -168h-94q-22 24 -88 91q-22 -21 -88 -91h-92q22 42 90 168z" />
    <glyph glyph-name="Kcedilla" unicode="&#x136;" horiz-adv-x="760" 
d="M75 698h176v-321q66 81 264 321h197q-68 -81 -273 -327q81 -93 324 -371h-219q-72 86 -293 339v-339h-176v698zM291 -283v18q31 12 46 30q16 20 16 47q-14 2 -26 6q-12 6 -21 13q-8 9 -13 20q-3 12 -4 24q0 19 6 31q6 15 18 24q12 10 29 16v0q15 6 33 6q21 0 36 -6
q16 -6 28 -19q14 -11 20 -29q6 -16 6 -38q0 -28 -12 -53q-11 -24 -35 -45q-22 -20 -55 -31q-32 -11 -72 -14z" />
    <glyph glyph-name="kcedilla" unicode="&#x137;" horiz-adv-x="611" 
d="M59 698h155v-698h-155v698zM409 497h183q-48 -58 -192 -235q57 -64 222 -262h-197q-51 64 -208 257zM227 -283v18q32 12 47 30q16 20 16 47q-14 2 -26 6q-12 6 -21 13q-9 9 -13 20q-4 12 -5 24q0 19 6 31q7 15 19 24q14 12 28 16q2 2 4 2q14 4 29 4q21 0 36 -6
q17 -6 29 -19q14 -11 19 -29q6 -16 6 -38q1 -28 -11 -53q-12 -24 -36 -45q-22 -20 -55 -31q-32 -11 -72 -14z" />
    <glyph glyph-name="kgreenlandic" unicode="&#x138;" horiz-adv-x="611" 
d="M59 497h154v-231q47 58 188 231h182q-50 -58 -200 -235q59 -64 231 -262h-194q-51 63 -207 247v-247h-154v497z" />
    <glyph glyph-name="Lacute" unicode="&#x139;" horiz-adv-x="595" 
d="M75 698h113h63v-554h316v-144h-492v698zM91 755q25 42 97 168h184q-46 -42 -187 -168h-94z" />
    <glyph glyph-name="lacute" unicode="&#x13a;" horiz-adv-x="272" 
d="M59 698h75h79v-698h-154v698zM134 910h169q-40 -42 -163 -168h-87q21 42 81 168z" />
    <glyph glyph-name="Lcedilla" unicode="&#x13b;" horiz-adv-x="595" 
d="M75 698h176v-554h316v-144h-346h-146v698zM221 -283v18q31 12 46 30q17 20 17 47q-15 2 -27 6q-11 6 -20 13q-9 9 -13 20q-4 12 -5 24q0 19 6 31q7 15 19 24q14 12 28 16q2 2 6 2v0q14 4 27 4q21 0 36 -6q17 -6 29 -19q14 -11 19 -29q6 -16 6 -38q1 -28 -11 -53
q-12 -24 -36 -45q-22 -20 -55 -31q-32 -11 -72 -14z" />
    <glyph glyph-name="lcedilla" unicode="&#x13c;" horiz-adv-x="272" 
d="M59 698h154v-698h-154v698zM49 -283v18q31 12 46 30q17 20 17 47q-15 2 -27 6q-11 6 -20 13q-9 9 -13 20q-4 12 -5 24q0 19 6 31q7 15 19 24q14 12 28 16q12 4 23 5q3 1 6 1h4q21 0 36 -6q17 -6 29 -19q14 -11 19 -29q6 -16 6 -38q1 -28 -11 -53q-12 -24 -36 -45
q-22 -20 -55 -31q-32 -11 -72 -14z" />
    <glyph glyph-name="Lcaron" unicode="&#x13d;" horiz-adv-x="595" 
d="M75 698h176v-554h316v-144h-492v698zM346 432v20q34 10 51 34q19 24 19 62q-14 2 -26 6q-12 6 -21 15q-9 12 -14 24q-5 14 -5 29q0 21 7 36q6 16 20 28q15 12 30 19q16 6 34 6q23 1 38 -7q17 -6 31 -22q15 -14 21 -34q7 -18 7 -44q0 -33 -13 -63q-13 -28 -40 -55
q-25 -24 -61 -38q-4 0 -9 -3v0q-31 -10 -69 -13z" />
    <glyph glyph-name="lcaron" unicode="&#x13e;" horiz-adv-x="447" 
d="M59 698h154v-698h-154v698zM268 432v20q34 10 52 34t18 62q-14 2 -26 6q-12 6 -21 15q-9 12 -14 24q-5 14 -5 29q0 21 7 36q6 16 20 28q15 12 30 19q17 6 35 6q22 1 38 -7q16 -6 30 -22q15 -14 21 -34q7 -18 7 -44q0 -33 -13 -63q-12 -28 -39 -55q-26 -24 -62 -38
q-34 -14 -78 -16z" />
    <glyph glyph-name="Ldot" unicode="&#x13f;" horiz-adv-x="595" 
d="M75 698h176v-554h316v-144h-492v698zM457 463q17 0 31 -6q16 -4 26 -18q12 -11 18 -26q6 -13 6 -31q0 -16 -6 -31q-6 -14 -18 -26q-10 -13 -26 -19q-14 -6 -31 -6t-32 6q-13 6 -27 18q-10 12 -17 26q-6 16 -6 32q0 18 6 31q7 15 17 26q14 14 27 18q15 6 32 6z" />
    <glyph glyph-name="ldot" unicode="&#x140;" horiz-adv-x="401" 
d="M59 698h154v-698h-154v698zM338 457q18 0 31 -6q15 -6 26 -18q14 -11 18 -26q6 -13 6 -31q0 -16 -6 -31q-4 -13 -18 -27q-11 -12 -26 -18q-13 -6 -31 -6q-16 0 -32 6q-14 6 -26 17q-12 13 -18 27q-6 16 -6 32q0 18 6 31q6 15 18 26q12 12 26 18q16 6 32 6z" />
    <glyph glyph-name="Lslash" unicode="&#x141;" horiz-adv-x="604" 
d="M84 698h176v-230q34 26 133 104v-121q-33 -27 -133 -107v-200h317v-144h-493v212q-22 -18 -92 -73v124q24 19 92 73v362z" />
    <glyph glyph-name="lslash" unicode="&#x142;" horiz-adv-x="272" 
d="M59 698h154v-245q19 15 71 58v-100q-18 -15 -71 -59v-352h-154v241q-16 -15 -70 -59v101q18 15 70 58v357z" />
    <glyph glyph-name="Nacute" unicode="&#x143;" horiz-adv-x="870" 
d="M75 698h154q99 -108 393 -435v435h174v-698h-157q-97 110 -391 434v-434h-173v698zM352 755q26 42 98 168h183q-46 -42 -187 -168h-94z" />
    <glyph glyph-name="nacute" unicode="&#x144;" horiz-adv-x="610" 
d="M381 506q45 0 78 -13q33 -14 54 -41q23 -26 32 -64q11 -36 11 -85v-303h-154v281q0 52 -20 78q-20 27 -59 26q-30 1 -58 -19q-27 -18 -52 -57v-309h-154v497h154v-69q35 39 77 59q26 12 53 16q18 3 38 3zM304 730h169q-40 -42 -163 -168h-87q21 42 81 168z" />
    <glyph glyph-name="Ncedilla" unicode="&#x145;" horiz-adv-x="870" 
d="M75 698h154q99 -108 393 -435v435h174v-698h-157q-97 110 -391 434v-434h-173v698zM347 -283v18q31 12 46 30q17 20 17 47q-15 2 -27 6q-11 6 -21 13q-8 9 -12 20q-4 12 -5 24q0 19 6 31q7 15 19 24t23 15q3 1 5 1q15 6 33 6q21 0 36 -6q17 -6 29 -19q14 -11 19 -29
q6 -16 6 -38q1 -28 -11 -53q-12 -24 -36 -45q-22 -20 -55 -31q-32 -11 -72 -14z" />
    <glyph glyph-name="ncedilla" unicode="&#x146;" horiz-adv-x="610" 
d="M381 506q45 0 78 -13q33 -14 54 -41q23 -26 32 -64q11 -36 11 -85v-303h-154v281q0 52 -20 78q-20 27 -59 26q-30 1 -58 -19q-27 -18 -52 -57v-309h-154v497h154v-69q35 39 77 59q42 19 91 19zM220 -283v18q32 12 46 30q16 20 17 47q-15 2 -27 6q-10 6 -20 13
q-9 9 -13 20q-5 12 -5 24q0 19 6 31q6 15 19 24q13 12 28 16q15 6 33 6q6 0 14 -1v0q12 -1 22 -5q16 -6 29 -19q13 -11 19 -29q6 -16 6 -38q0 -28 -11 -53q-12 -24 -36 -45q-22 -20 -55 -31q-32 -11 -72 -14z" />
    <glyph glyph-name="Ncaron" unicode="&#x147;" horiz-adv-x="870" 
d="M75 698h154q99 -108 393 -435v435h174v-698h-157q-97 110 -391 434v-434h-173v698zM336 755q-24 42 -102 168h95q26 -23 101 -95q26 24 99 95h95q-24 -42 -101 -168h-187z" />
    <glyph glyph-name="ncaron" unicode="&#x148;" horiz-adv-x="610" 
d="M381 506q45 0 78 -13q33 -14 54 -41q23 -26 32 -64q11 -36 11 -85v-303h-154v281q0 52 -20 78q-20 27 -59 26q-30 1 -58 -19q-27 -18 -52 -57v-309h-154v497h60h94v-69q35 39 77 59q42 19 91 19zM119 730h93q24 -22 93 -91q23 23 92 91h95q-24 -42 -97 -168h-181
q-24 42 -95 168z" />
    <glyph glyph-name="napostrophe" unicode="&#x149;" horiz-adv-x="792" 
d="M93 708q27 0 46 -11q21 -9 35 -30q15 -19 23 -45q7 -24 7 -54q0 -36 -13 -68q-11 -26 -29 -49q-2 -3 -5 -7q-3 -3 -5 -6q-26 -27 -64 -47q-36 -17 -85 -26v29q35 16 51 49q18 33 17 82q-35 11 -53 32q-18 23 -18 56q0 21 6 37q8 16 21 30q14 15 30 21q18 7 36 7zM562 506
q45 0 78 -13q33 -14 54 -41q22 -26 33 -64q10 -36 10 -85v-303h-153v281q0 52 -20 78q-20 27 -60 26q-30 1 -58 -19q-26 -18 -52 -57v-309h-153v497h153v-69q36 39 77 59q43 19 91 19z" />
    <glyph glyph-name="Eng" unicode="&#x14a;" horiz-adv-x="855" 
d="M509 128q49 0 71 31q24 30 24 92v130q0 93 -40 138t-122 45q-63 0 -108 -29q-46 -28 -74 -88v-447h-176v698h176v-93q48 53 106 77q58 26 127 26t123 -21q54 -20 90 -62q38 -42 56 -102t18 -138v-128q0 -60 -14 -110q-15 -49 -45 -85q-28 -34 -76 -53q-47 -17 -111 -17
q-12 0 -27 1q-15 0 -32 2q-5 47 -17 137q9 0 21 -3q14 -1 30 -1z" />
    <glyph glyph-name="eng" unicode="&#x14b;" horiz-adv-x="610" 
d="M381 506q45 0 77 -13q33 -13 54 -40q22 -27 33 -65t11 -87v-329q0 -46 -11 -82t-33 -64q-22 -26 -52 -44q-30 -15 -69 -23q-21 39 -62 117q22 9 36 21q15 12 22 26q9 15 12 41q3 27 3 63v254q0 52 -20 78q-20 27 -59 26q-30 1 -58 -19q-27 -18 -52 -57v-309h-154v497h154
v-69q36 39 78 59q42 19 90 19z" />
    <glyph glyph-name="Omacron" unicode="&#x14c;" horiz-adv-x="863" 
d="M433 708q89 0 158 -25q72 -25 123 -77q54 -50 79 -115q27 -63 26 -142q1 -75 -25 -139t-78 -116q-52 -50 -124 -77q-70 -26 -162 -26q-60 1 -113 13t-98 37q-44 25 -77 58t-55 72q-21 40 -32 84q-11 45 -11 93q0 27 3 53q3 25 10 51q9 26 19 50q12 24 26 47q16 24 34 44
q20 21 41 38q23 17 50 31q28 14 61 24q16 6 31 9q19 4 39 7q36 6 75 6zM431 554q-47 0 -85 -14q-36 -12 -65 -42q-27 -28 -42 -66t-15 -84q0 -44 15 -81q15 -35 43 -65q30 -28 66 -43q38 -15 82 -15q48 0 84 14q38 15 67 42t43 65q15 39 15 85q1 44 -14 79q-14 36 -41 66
t-66 44q-38 15 -87 15zM275 782v98h315v-98h-160h-155z" />
    <glyph glyph-name="omacron" unicode="&#x14d;" horiz-adv-x="628" 
d="M312 387q-26 0 -47 -9q-21 -8 -37 -28q-14 -18 -23 -44q-8 -24 -8 -57q0 -31 8 -57q9 -24 23 -45q16 -18 38 -28q21 -9 48 -9q28 0 50 9q21 10 36 28q18 21 24 45q8 26 8 57q0 33 -8 58t-25 43q-15 20 -37 28q-22 9 -50 9zM314 506q66 0 116 -17q51 -18 87 -54
q39 -34 56 -82q19 -47 19 -104q0 -59 -19 -105t-58 -83q-38 -35 -89 -53q-50 -16 -113 -17q-65 0 -116 18t-87 54q-36 38 -56 83q-18 48 -18 102q0 58 18 104q20 48 56 82q38 36 89 54q7 2 13 4q2 0 2 1q46 13 100 13zM157 682h314v-97h-158h-156v97z" />
    <glyph glyph-name="Obreve" unicode="&#x14e;" horiz-adv-x="863" 
d="M433 708q89 0 158 -25q72 -25 123 -77q54 -50 79 -115q27 -63 26 -142q1 -75 -25 -139t-78 -116q-52 -50 -124 -77q-70 -26 -162 -26q-60 1 -113 13t-98 37q-44 25 -77 58t-55 72q-21 40 -32 84q-11 45 -11 93q0 27 3 53q3 25 10 51q9 26 19 50q12 24 26 47q16 24 34 44
q20 21 41 38q23 17 50 31q28 14 61 24l20 6q24 6 50 10q36 6 75 6zM431 554q-47 0 -85 -14q-36 -12 -65 -42q-27 -28 -42 -66t-15 -84q0 -44 15 -81q15 -35 43 -65q30 -28 66 -43q38 -15 82 -15q48 0 84 14q38 15 67 42t43 65q15 39 15 85q1 44 -14 79q-14 36 -41 66t-66 44
q-38 15 -87 15zM249 915h96q9 -32 30 -48q24 -17 60 -17q18 0 32 4q15 4 25 13q12 10 18 22q8 12 10 26h96q-4 -39 -19 -70q-13 -31 -39 -53q-24 -21 -55 -33q-31 -11 -70 -11q1 0 -1 0q-38 0 -70 11q-32 12 -57 33q-23 22 -38 53q-14 31 -18 70z" />
    <glyph glyph-name="obreve" unicode="&#x14f;" horiz-adv-x="628" 
d="M312 387q-26 0 -47 -9q-21 -8 -37 -28q-14 -18 -23 -44q-8 -24 -8 -57q0 -31 8 -57q9 -24 23 -45q16 -18 38 -28q21 -9 48 -9q28 0 50 9q21 10 36 28q18 21 24 45q8 26 8 57q0 33 -8 58t-25 43q-15 20 -37 28q-22 9 -50 9zM314 506q66 0 116 -17q51 -18 87 -54
q39 -34 56 -82q19 -47 19 -104q0 -59 -19 -105t-58 -83q-38 -35 -89 -53q-50 -16 -113 -17q-65 0 -116 18t-87 54q-36 38 -56 83q-18 48 -18 102q0 58 18 104q20 48 56 82q38 36 89 54q3 2 6 2q1 2 3 1q48 15 106 15zM139 715h91q9 -32 30 -48q21 -15 54 -16q18 1 30 4
q14 3 23 11q11 8 17 20q9 12 12 29h92q-2 -33 -16 -61q-12 -28 -37 -52q-23 -22 -53 -35q-30 -12 -68 -12q-34 1 -64 11q-27 10 -51 31q-23 21 -38 51t-22 67z" />
    <glyph glyph-name="Odblacute" unicode="&#x150;" horiz-adv-x="863" 
d="M433 708q89 0 158 -25q72 -25 123 -77q54 -50 79 -115q27 -63 26 -142q1 -75 -25 -139t-78 -116q-52 -50 -124 -77q-70 -26 -162 -26q-60 1 -113 13t-98 37q-44 25 -77 58t-55 72q-21 40 -32 84q-11 45 -11 93q0 27 3 53q3 25 10 51q9 26 19 50q12 24 26 47q16 24 34 44
q20 21 41 38q23 17 50 31q28 14 61 24q34 12 70 16q8 2 14 2h3q28 4 58 4zM431 554q-47 0 -85 -14q-36 -12 -65 -42q-27 -28 -42 -66t-15 -84q0 -44 15 -81q15 -35 43 -65q30 -28 66 -43q38 -15 82 -15q48 0 84 14q38 15 67 42t43 65q15 39 15 85q1 44 -14 79q-14 36 -41 66
t-66 44q-38 15 -87 15zM273 755q19 42 73 168h170q-39 -42 -157 -168h-86zM488 755q20 42 73 168h170q-39 -42 -157 -168h-86z" />
    <glyph glyph-name="odblacute" unicode="&#x151;" horiz-adv-x="628" 
d="M312 387q-26 0 -47 -9q-21 -8 -37 -28q-14 -18 -23 -44q-8 -24 -8 -57q0 -31 8 -57q9 -24 23 -45q16 -18 38 -28q21 -9 48 -9q28 0 50 9q21 10 36 28q18 21 24 45q8 26 8 57q0 33 -8 58t-25 43q-15 20 -37 28q-22 9 -50 9zM314 506q66 0 116 -17q51 -18 87 -54
q39 -34 56 -82q19 -47 19 -104q0 -59 -19 -105t-58 -83q-38 -35 -89 -53q-50 -16 -113 -17q-65 0 -116 18t-87 54q-36 38 -56 83q-18 48 -18 102q0 58 18 104q20 48 56 82q38 36 89 54q27 10 58 14h1q28 4 56 4zM227 728h169q-40 -40 -164 -166h-84q21 42 79 166zM444 728
h169q-40 -40 -163 -166h-85q21 42 79 166z" />
    <glyph glyph-name="OE" unicode="&#x152;" horiz-adv-x="1054" 
d="M457 698h537v-124h-298v-153h281v-126h-281v-171h304v-124h-546q-96 0 -173 23q-75 23 -129 68q-54 47 -81 111q-27 66 -27 150t27 148t81 108q54 46 130 68t175 22zM481 124h39v450h-35q-129 0 -195 -56t-66 -169q0 -111 65 -169q64 -56 192 -56z" />
    <glyph glyph-name="oe" unicode="&#x153;" horiz-adv-x="933" 
d="M493 444q39 32 79 46q42 16 85 16q57 0 100 -17q45 -15 77 -52q34 -33 50 -83q16 -48 16 -110v-28h-333q3 -28 14 -50q12 -22 32 -37q22 -15 46 -23q26 -8 53 -8q40 0 85 13t92 39v-107q-51 -25 -105 -39q-52 -12 -105 -13q-53 1 -98 16q-45 16 -80 48q-33 -32 -80 -48
q-45 -15 -105 -16q-64 1 -115 17q-51 18 -89 52q-38 36 -57 81q-19 46 -19 103q0 60 18 107q20 49 56 83q38 36 87 54q51 18 112 18q57 0 101 -16q46 -14 83 -46zM566 294h195q-5 56 -31 82q-24 27 -70 27q-20 0 -38 -6q-15 -6 -29 -21q-11 -14 -19 -35q-6 -20 -8 -47z
M427 249q1 34 -8 60q-9 27 -26 43q-16 18 -37 26q-20 9 -46 9q-24 0 -45 -9q-21 -8 -37 -28q-14 -18 -23 -44q-8 -24 -8 -57q1 -31 7 -57q8 -24 23 -45q17 -18 38 -28q21 -9 47 -9q27 0 48 9q21 11 36 29q16 21 23 45q9 26 8 56z" />
    <glyph glyph-name="Racute" unicode="&#x154;" horiz-adv-x="712" 
d="M75 698h243v0h48q60 0 106 -14t78 -43q34 -29 49 -68q16 -38 16 -86q0 -59 -28 -103q-29 -44 -86 -70q18 -9 30 -21q15 -11 26 -27q12 -14 27 -37q15 -21 30 -53q32 -58 92 -176h-193q-19 40 -81 158q-18 39 -35 63q-17 27 -33 37q-15 12 -36 18t-45 6h-32v-282h-176v698
zM251 579v-184h74q27 1 48 5q21 6 35 15q15 10 21 28q7 18 7 42q0 48 -27 70q-27 24 -81 24h-77zM220 755q24 42 97 168h184q-46 -42 -187 -168h-94z" />
    <glyph glyph-name="racute" unicode="&#x155;" horiz-adv-x="472" 
d="M365 506q24 0 51 -10q28 -10 56 -32q-20 -50 -61 -151q-21 21 -43 31q-20 10 -41 10q-40 0 -70 -31q-28 -32 -46 -95v-228h-154v497h154v-118q15 31 32 53q17 24 37 40q20 18 41 25q21 9 44 9zM249 730h169q-40 -42 -163 -168h-44h-43q21 42 81 168z" />
    <glyph glyph-name="Rcedilla" unicode="&#x156;" horiz-adv-x="712" 
d="M75 698h291q60 0 106 -14t78 -43q34 -29 49 -68q16 -38 16 -86q0 -59 -28 -103q-29 -44 -86 -70q18 -9 30 -21q15 -11 26 -27q12 -14 27 -37q15 -21 30 -53q32 -58 92 -176h-193q-19 40 -81 158q-18 39 -35 63q-17 27 -33 37q-15 12 -36 18t-45 6h-32v-282h-176v698z
M251 579v-184h74q27 1 48 5q21 6 35 15q15 10 21 28q7 18 7 42q0 48 -27 70q-27 24 -81 24h-77zM285 -283v18q31 12 46 30q15 20 16 47q-14 2 -26 6q-12 6 -21 13q-8 9 -13 20q-3 12 -4 24q0 19 6 31q6 15 18 24q14 12 29 16q2 2 3 1q15 5 30 5q21 0 36 -6q16 -6 28 -19
q13 -11 19 -29q8 -16 7 -38q0 -28 -12 -53q-11 -24 -35 -45q-22 -20 -55 -31q-32 -11 -72 -14z" />
    <glyph glyph-name="rcedilla" unicode="&#x157;" horiz-adv-x="472" 
d="M365 506q24 0 51 -10q28 -10 56 -32q-20 -50 -61 -151q-21 21 -43 31q-20 10 -41 10q-40 0 -70 -31q-28 -32 -46 -95v-228h-154v497h154v-118q15 31 32 53q17 24 37 40q20 18 41 25q21 9 44 9zM49 -283v18q31 12 46 30q17 20 17 47q-15 2 -27 6q-11 6 -20 13q-9 9 -13 20
q-4 12 -5 24q0 19 6 31q7 15 19 24q14 12 28 16q15 6 33 6q21 0 35 -6q2 0 1 0q17 -6 29 -19q14 -11 19 -29q6 -16 6 -38q1 -28 -11 -53q-12 -24 -36 -45q-22 -20 -55 -31q-32 -11 -72 -14z" />
    <glyph glyph-name="Rcaron" unicode="&#x158;" horiz-adv-x="712" 
d="M75 698h35h256q60 0 106 -14t78 -43q34 -29 49 -68q16 -38 16 -86q0 -59 -28 -103q-29 -44 -86 -70q18 -9 30 -21q15 -11 26 -27q12 -14 27 -37q15 -21 30 -53q32 -58 92 -176h-193q-19 40 -81 158q-18 39 -35 63q-17 27 -33 37q-15 12 -36 18t-45 6h-32v-282h-176v698z
M251 579v-184h74q27 1 48 5q21 6 35 15q15 10 21 28q7 18 7 42q0 48 -27 70q-27 24 -81 24h-77zM211 755q-25 42 -101 168h94q26 -23 101 -95q25 24 99 95h95q-25 -42 -101 -168h-187z" />
    <glyph glyph-name="rcaron" unicode="&#x159;" horiz-adv-x="472" 
d="M365 506q24 0 51 -10q28 -10 56 -32q-20 -50 -61 -151q-21 21 -43 31q-20 10 -41 10q-40 0 -70 -31q-28 -32 -46 -95v-228h-154q0 124 1 497v0h153v-118q15 31 32 53q17 24 37 40q20 18 41 25q21 9 44 9zM58 730h94q24 -22 93 -91q23 23 92 91h94l-96 -168h-124h-57z" />
    <glyph glyph-name="Sacute" unicode="&#x15a;" horiz-adv-x="570" 
d="M286 708q60 0 112 -14q54 -14 99 -42v-149q-50 39 -98 58q-48 21 -96 20q-20 0 -35 -4q-16 -3 -26 -13q-10 -8 -16 -20q-6 -10 -6 -25q0 -12 6 -24q6 -10 16 -22q10 -9 32 -23q22 -12 52 -29q52 -25 90 -51t61 -49q25 -23 37 -56q12 -32 11 -71q1 -46 -17 -82
q-16 -36 -50 -65q-33 -27 -78 -42q-44 -14 -98 -14q-56 0 -113 14q-57 15 -115 44v158q54 -42 105 -63t100 -21q23 1 39 4q16 5 28 14q12 11 18 21q6 12 5 24q1 16 -5 28q-4 14 -17 24q-11 12 -38 26q-26 16 -66 35q-13 9 -27 14q-12 6 -21 12t-20 14q-10 8 -25 17
q-12 12 -24 21q-9 11 -18 20q-8 12 -14 24q-6 13 -13 28q-6 15 -9 32t-3 33q1 42 16 76q17 36 47 62q32 28 75 42q40 14 91 14h8zM177 755q25 42 97 168h184q-46 -42 -187 -168h-94z" />
    <glyph glyph-name="sacute" unicode="&#x15b;" horiz-adv-x="465" 
d="M46 362q0 30 13 56q14 26 38 46q27 22 60 32q35 10 79 10v0q45 0 85 -10q42 -9 78 -30v-116q-39 27 -76 39q-35 12 -67 12q-14 1 -24 -2q-8 -1 -17 -7q-7 -3 -11 -11q-3 -5 -3 -13q1 -8 4 -16q3 -6 11 -14q9 -6 27 -16q20 -9 48 -24q34 -14 60 -32q26 -15 41 -35
q18 -18 25 -40q9 -23 8 -50q0 -32 -12 -59q-11 -27 -37 -48q-24 -22 -60 -32q-34 -10 -82 -11q-42 1 -88 10q-45 11 -95 31v120q43 -27 81 -42t70 -15q18 0 29 3l21 7q10 6 14 12t4 14q0 11 -4 19t-14 16q-8 9 -29 19q-18 11 -50 25q-33 16 -58 33q-24 18 -39 36
q-14 18 -22 39q-8 22 -8 44zM236 730h168q-39 -42 -162 -168h-8h-79q21 42 81 168z" />
    <glyph glyph-name="Scircumflex" unicode="&#x15c;" horiz-adv-x="570" 
d="M286 708q60 0 112 -14q54 -14 99 -42v-149q-50 39 -98 58q-48 21 -96 20q-20 0 -35 -4q-16 -3 -26 -13q-10 -8 -16 -20q-6 -10 -6 -25q0 -12 6 -24q6 -10 16 -22q10 -9 32 -23q22 -12 52 -29q52 -25 90 -51t61 -49q25 -23 37 -56q12 -32 11 -71q1 -46 -17 -82
q-16 -36 -50 -65q-33 -27 -78 -42q-44 -14 -98 -14q-56 0 -113 14q-57 15 -115 44v158q54 -42 105 -63t100 -21q23 1 39 4q16 5 28 14q12 11 18 21q6 12 5 24q1 16 -5 28q-4 14 -17 24q-11 12 -38 26q-26 16 -66 35q-13 9 -27 14q-12 6 -21 12t-20 14q-10 8 -25 17
q-12 12 -24 21q-9 11 -18 20q-8 12 -14 24q-6 13 -13 28q-6 15 -9 32t-3 33q1 42 16 76q17 36 47 62q32 28 75 42q17 6 39 9v0q28 5 60 5zM90 755q26 42 100 168h187q26 -42 102 -168h-95q-24 23 -100 92q-24 -23 -101 -92h-93z" />
    <glyph glyph-name="scircumflex" unicode="&#x15d;" horiz-adv-x="465" 
d="M46 362q0 30 13 56q14 26 38 46q27 22 60 32q13 3 25 5q2 1 3 1q23 4 49 4q46 0 87 -10q42 -9 78 -30v-116q-39 27 -76 39q-35 12 -67 12q-14 1 -24 -2q-8 -1 -17 -7q-7 -3 -11 -11q-3 -5 -3 -13q1 -8 4 -16q3 -6 11 -14q9 -6 27 -16q20 -9 48 -24q34 -14 60 -32
q26 -15 41 -35q18 -18 25 -40q9 -23 8 -50q0 -32 -12 -59q-11 -27 -37 -48q-24 -22 -60 -32q-34 -10 -82 -11q-42 1 -88 10q-45 11 -95 31v120q43 -27 81 -42t70 -15q18 0 29 3l21 7q10 6 14 12t4 14q0 11 -4 19t-14 16q-8 9 -29 19q-18 11 -50 25q-33 16 -58 33
q-24 18 -39 36q-14 18 -22 39q-8 22 -8 44zM141 730h182q22 -42 91 -168h-95q-21 24 -88 91q-21 -21 -88 -91h-92q24 42 90 168z" />
    <glyph glyph-name="Scedilla" unicode="&#x15e;" horiz-adv-x="570" 
d="M286 708q60 0 112 -14q54 -14 99 -42v-149q-50 39 -98 58q-48 21 -96 20q-20 0 -35 -4q-16 -3 -26 -13q-10 -8 -16 -20q-6 -10 -6 -25q0 -12 6 -24q6 -10 16 -22q10 -9 32 -23q22 -12 52 -29q52 -25 90 -51t61 -49q25 -23 37 -56q12 -32 11 -71q1 -42 -13 -76t-43 -62
q-27 -27 -66 -43q-38 -15 -86 -20q-3 -8 -10 -23q49 -3 71 -24q24 -21 23 -60q1 -48 -43 -72q-42 -24 -131 -25q-25 1 -43 1q-18 2 -26 2v66q10 -2 20 -3h19q32 0 47 9q15 10 15 28t-9 24q-8 8 -28 8h-5h-7q-2 0 -7 -1q9 19 37 70q-48 6 -95 20q-45 15 -91 36v158
q54 -42 105 -63t100 -21q23 1 39 4q16 5 28 14q12 11 18 21q6 12 5 24q1 16 -5 28q-4 14 -17 24q-11 12 -38 26q-26 16 -66 35q-13 9 -27 14q-12 6 -21 12t-20 14q-10 8 -25 17q-12 12 -24 21q-9 11 -18 20q-8 12 -14 24q-6 13 -13 28q-6 15 -9 32t-3 33q1 42 16 76
q17 36 47 62q32 28 75 42t99 14z" />
    <glyph glyph-name="scedilla" unicode="&#x15f;" horiz-adv-x="465" 
d="M46 362q0 30 13 56q14 26 38 46q27 22 60 32q35 10 77 10q46 0 87 -10q42 -9 78 -30v-116q-39 27 -76 39q-35 12 -67 12q-14 1 -24 -2q-8 -1 -17 -7q-7 -3 -11 -11q-3 -5 -3 -13q1 -8 4 -16q3 -6 11 -14q9 -6 27 -16q20 -9 48 -24q34 -14 60 -32q26 -15 41 -35
q18 -18 25 -40q9 -23 8 -50q0 -29 -10 -55q-11 -26 -32 -47t-52 -32q-31 -12 -71 -15l-11 -22q47 -3 71 -24t24 -60q0 -48 -44 -72q-42 -24 -131 -25q-24 1 -42 1q-17 2 -27 2v66q12 -2 21 -3h18q33 0 47 9q16 10 16 28t-9 24q-9 8 -28 8q-2 0 -6 1q-3 1 -6 -1h-6
q-1 0 -3 -1q14 25 39 71q-31 4 -64 14q-33 9 -68 24v120q43 -27 81 -42t70 -15q18 0 29 3l21 7q10 6 14 12t4 14q0 10 -4 18q-4 9 -14 16q-8 9 -29 19q-18 12 -50 26q-33 16 -58 33q-24 18 -39 36q-14 18 -22 39q-8 22 -8 44z" />
    <glyph glyph-name="Scaron" unicode="&#x160;" horiz-adv-x="570" 
d="M286 708q60 0 112 -14q54 -14 99 -42v-149q-50 39 -98 58q-48 21 -96 20q-20 0 -35 -4q-16 -3 -26 -13q-10 -8 -16 -20q-6 -10 -6 -25q0 -12 6 -24q6 -10 16 -22q10 -9 32 -23q22 -12 52 -29q52 -25 90 -51t61 -49q25 -23 37 -56q12 -32 11 -71q1 -46 -17 -82
q-16 -36 -50 -65q-33 -27 -78 -42q-44 -14 -98 -14q-56 0 -113 14q-57 15 -115 44v158q54 -42 105 -63t100 -21q23 1 39 4q16 5 28 14q12 11 18 21q6 12 5 24q1 16 -5 28q-4 14 -17 24q-11 12 -38 26q-26 16 -66 35q-13 9 -27 14q-12 6 -21 12t-20 14q-10 8 -25 17
q-12 12 -24 21q-9 11 -18 20q-8 12 -14 24q-6 13 -13 28q-6 15 -9 32t-3 33q1 42 16 76q17 36 47 62q27 24 63 38l12 4q43 14 99 14zM189 755q-25 42 -101 168h94q27 -23 102 -95q24 24 99 95h94l-100 -168h-95h-93z" />
    <glyph glyph-name="scaron" unicode="&#x161;" horiz-adv-x="465" 
d="M46 362q0 30 13 56q14 26 38 46q21 16 45 26q9 3 15 6q35 10 77 10q46 0 87 -10q42 -9 78 -30v-116q-39 27 -76 39q-35 12 -67 12q-14 1 -24 -2q-8 -1 -17 -7q-7 -3 -11 -11q-3 -5 -3 -13q1 -8 4 -16q3 -6 11 -14q9 -6 27 -16q20 -9 48 -24q34 -14 60 -32q26 -15 41 -35
q18 -18 25 -40q9 -23 8 -50q0 -32 -12 -59q-11 -27 -37 -48q-24 -22 -60 -32q-34 -10 -82 -11q-42 1 -88 10q-45 11 -95 31v120q43 -27 81 -42t70 -15q18 0 29 3l21 7q10 6 14 12t4 14q0 11 -4 19t-14 16q-8 9 -29 19q-18 11 -50 25q-33 16 -58 33q-24 18 -39 36
q-14 18 -22 39q-8 22 -8 44zM47 730h93q24 -22 93 -91q24 23 93 91h94l-96 -168h-90h-92q-22 42 -95 168z" />
    <glyph glyph-name="Tcedilla" unicode="&#x162;" horiz-adv-x="713" 
d="M18 698h676v-145h-251v-553h-176v553h-249v145zM262 -283v18q32 12 46 30q16 20 17 47q-15 2 -27 6q-10 6 -20 13q-9 9 -13 20q-5 12 -5 24q0 19 6 31q6 15 19 24q11 10 25 15q2 1 3 1v0q15 6 33 6q21 0 36 -6q16 -6 29 -19q13 -11 19 -29q6 -16 6 -38q0 -28 -11 -53
q-12 -24 -36 -45q-22 -20 -55 -31q-32 -11 -72 -14z" />
    <glyph glyph-name="tcedilla" unicode="&#x163;" horiz-adv-x="442" 
d="M8 412q56 56 219 221h16v-147h164v-110h-164v-176q0 -21 3 -37q3 -15 11 -26q9 -9 22 -15q13 -4 33 -5q26 0 53 9q27 10 58 26v-124q-35 -18 -74 -28q-39 -9 -82 -9q-24 0 -45 3h-1q-54 10 -87 43q-45 46 -45 138v201h-81v36zM176 -283v18q32 12 46 30q16 20 17 47
q-15 2 -27 6q-10 6 -21 13q-8 9 -12 20q-5 12 -5 24q0 19 6 31q6 15 19 24q13 12 28 16q15 6 29 6h4q21 0 36 -6q16 -6 29 -19q13 -11 19 -29q6 -16 6 -38q0 -28 -11 -53q-12 -24 -36 -45q-22 -20 -55 -31q-32 -11 -72 -14z" />
    <glyph glyph-name="Tcaron" unicode="&#x164;" horiz-adv-x="713" 
d="M18 698h136h540v-145h-251v-553h-176v553h-249v145zM255 755q-25 42 -101 168h94q26 -23 101 -95q25 24 100 95h94q-25 -42 -101 -168h-187z" />
    <glyph glyph-name="tcaron" unicode="&#x165;" horiz-adv-x="599" 
d="M8 412q56 56 219 221h16v-147h164v-110h-164v-176q0 -21 3 -37q3 -15 11 -26q9 -9 22 -15q13 -4 33 -5q26 0 53 9q27 10 58 26v-124q-35 -18 -74 -28q-39 -9 -82 -9q-88 1 -133 46q-45 46 -45 138v201h-81v36zM419 432v20q35 10 51 34q18 24 18 62q-14 2 -26 6
q-10 6 -21 15q-9 12 -13 24q-4 14 -5 29q0 21 6 36q7 16 21 28t29 19q17 6 35 6q22 1 38 -7q18 -6 31 -22q14 -14 20 -34q7 -18 7 -44q0 -33 -12 -63q-12 -28 -40 -55q-26 -24 -61 -38q-34 -14 -78 -16z" />
    <glyph glyph-name="Tbar" unicode="&#x166;" horiz-adv-x="713" 
d="M18 698h676v-145h-251v-225h182v-96h-182v-232h-176v232h-180v96h180v225h-249v145z" />
    <glyph glyph-name="tbar" unicode="&#x167;" horiz-adv-x="442" 
d="M407 229h-164v-29q0 -21 3 -37q3 -15 11 -26q9 -9 22 -15q13 -4 33 -5q26 0 53 9q27 10 58 26v-124q-35 -18 -74 -28q-39 -9 -82 -9q-88 1 -133 46q-45 46 -45 138v54h-79v75h79v72h-81v36q56 56 219 221h16v-147h164v-110h-164v-72h164v-75z" />
    <glyph glyph-name="Utilde" unicode="&#x168;" horiz-adv-x="827" 
d="M68 698h176v-379q0 -43 10 -76q12 -33 33 -57q22 -22 54 -34q33 -12 74 -12q84 0 126 45q43 45 43 132v381h176v-385q0 -75 -22 -136q-22 -60 -68 -102t-109 -63t-146 -21q-82 0 -148 21q-63 21 -109 63q-44 44 -68 101q-22 60 -22 134v388zM337 901q15 1 35 -5
q22 -6 50 -16q30 -10 47 -17q17 -5 23 -5q18 0 27 11t10 32h72q1 -33 -8 -61q-7 -26 -23 -47q-14 -20 -34 -30q-20 -9 -46 -10h-7q-11 2 -26 5q-21 4 -48 15q-27 12 -45 16q-16 6 -25 6q-17 1 -27 -11q-10 -10 -13 -31h-72q0 35 8 62q9 29 25 47q18 21 36 30q20 9 41 9z" />
    <glyph glyph-name="utilde" unicode="&#x169;" horiz-adv-x="610" 
d="M54 497h154v-280q0 -51 20 -79q21 -26 60 -26q30 0 58 19q28 20 51 56v310h154v-497h-154v69q-35 -39 -77 -59q-40 -18 -91 -19q-87 1 -131 52q-44 52 -44 157v297zM227 715q15 1 35 -5q22 -4 50 -16q30 -10 47 -16q19 -4 23 -5q18 1 27 10q9 11 11 32h72q0 -33 -8 -61
q-8 -26 -23 -47q-15 -20 -36 -30q-18 -9 -44 -10q-13 1 -34 5q-20 6 -48 16q-27 12 -45 16q-16 6 -25 5q-17 0 -27 -10q-9 -9 -13 -32h-71q0 36 8 63q9 28 25 46q16 20 36 29q19 10 40 10z" />
    <glyph glyph-name="Umacron" unicode="&#x16a;" horiz-adv-x="827" 
d="M68 698h176v-379q0 -43 10 -76q12 -33 33 -57q22 -22 54 -34q33 -12 74 -12q84 0 126 45q43 45 43 132v381h176v-385q0 -75 -22 -136q-22 -60 -68 -102t-109 -63t-146 -21q-82 0 -148 21q-63 21 -109 63q-44 44 -68 101q-22 60 -22 134v388zM257 782v98h314v-98h-156
h-158z" />
    <glyph glyph-name="umacron" unicode="&#x16b;" horiz-adv-x="610" 
d="M54 497h93h61v-280q0 -51 20 -79q21 -26 60 -26q30 0 58 19q28 20 51 56v310h154v-497h-154v69q-35 -39 -77 -59q-40 -18 -91 -19q-87 1 -131 52q-44 52 -44 157v297zM147 682h315v-97h-233h-82v97z" />
    <glyph glyph-name="Ubreve" unicode="&#x16c;" horiz-adv-x="827" 
d="M68 698h162h14v-379q0 -43 10 -76q12 -33 33 -57q22 -22 54 -34q33 -12 74 -12q84 0 126 45q43 45 43 132v381h176v-385q0 -75 -22 -136q-22 -60 -68 -102t-109 -63t-146 -21q-82 0 -148 21q-63 21 -109 63q-44 44 -68 101q-22 60 -22 134v388zM230 915h97q8 -32 30 -48
q22 -17 60 -17q17 0 31 4q15 4 25 13q13 10 19 22q8 12 10 26h96q-4 -39 -19 -70t-39 -53q-24 -21 -56 -33q-30 -11 -69 -11t-72 11q-32 12 -56 33q-24 22 -39 53q-14 31 -18 70z" />
    <glyph glyph-name="ubreve" unicode="&#x16d;" horiz-adv-x="610" 
d="M54 497h76h78v-280q0 -51 20 -79q21 -26 60 -26q30 0 58 19q28 20 51 56v310h154v-497h-154v69q-35 -39 -77 -59q-40 -18 -91 -19q-87 1 -131 52q-44 52 -44 157v297zM130 715h91q9 -32 29 -48q22 -15 55 -16q18 1 30 4q13 3 22 11q10 8 18 20t12 29h92q-3 -33 -16 -61
t-37 -52q-22 -22 -54 -35q-30 -12 -67 -12q-11 1 -21 1h-1q-21 2 -42 10q-28 10 -52 31q-22 21 -37 51q-14 30 -22 67z" />
    <glyph glyph-name="Uring" unicode="&#x16e;" horiz-adv-x="827" 
d="M68 698h176v-379q0 -43 10 -76q12 -33 33 -57q22 -22 54 -34q33 -12 74 -12q84 0 126 45q43 45 43 132v381h176v-385q0 -75 -22 -136q-22 -60 -68 -102t-109 -63t-146 -21q-82 0 -148 21q-63 21 -109 63q-44 44 -68 101q-22 60 -22 134v388zM519 852q1 -22 -7 -40
q-6 -18 -24 -34q-14 -14 -34 -23q-18 -7 -40 -7t-40 7q-18 9 -33 23q-15 16 -23 34t-8 40t7 40q9 18 23 34q16 15 34 23q18 7 40 7t40 -7t33 -23q18 -16 24 -34q9 -18 8 -40zM376 891q-8 -8 -12 -18q-4 -9 -4 -21q0 -10 4 -21q4 -9 12 -17t17 -11q11 -3 21 -4q12 1 21 4
t17 11q9 8 12 17q4 11 4 21q0 12 -3 21t-12 17q-8 9 -18 12q-9 4 -21 4q-10 0 -21 -4q-9 -2 -17 -11z" />
    <glyph glyph-name="uring" unicode="&#x16f;" horiz-adv-x="610" 
d="M54 497h154v-280q0 -51 20 -79q21 -26 60 -26q30 0 58 19q28 20 51 56v310h154v-497h-154v69q-35 -39 -77 -59q-40 -18 -91 -19q-87 1 -131 52q-44 52 -44 157v297zM231 591q-15 15 -23 34q-6 19 -7 40q1 21 7 40q8 18 22 33q16 16 34 23q20 9 40 8q22 1 40 -8
q18 -7 34 -23q15 -15 23 -33q9 -19 8 -40q1 -21 -8 -40q-8 -18 -23 -33q-16 -14 -34 -23q-18 -8 -40 -8q-4 1 -13 1v0q-14 2 -26 7q-18 7 -34 22zM266 703q-6 -7 -12 -17q-4 -9 -4 -21q0 -11 4 -21q4 -9 11 -17q9 -8 19 -12q10 -3 20 -4q12 1 22 4q9 4 17 12q9 8 12 17
q4 10 4 21q0 12 -4 21q-3 10 -12 17q-8 9 -17 13q-10 4 -22 4q-10 0 -20 -4q-9 -4 -18 -13z" />
    <glyph glyph-name="Udblacute" unicode="&#x170;" horiz-adv-x="827" 
d="M68 698h176v-379q0 -43 10 -76q12 -33 33 -57q22 -22 54 -34q33 -12 74 -12q84 0 126 45q43 45 43 132v381h176v-385q0 -75 -22 -136q-22 -60 -68 -102t-109 -63t-146 -21q-82 0 -148 21q-63 21 -109 63q-44 44 -68 101q-22 60 -22 134v388zM259 755q19 42 73 168h170
q-39 -42 -157 -168h-86zM474 755q18 42 73 168h170q-39 -42 -157 -168h-86z" />
    <glyph glyph-name="udblacute" unicode="&#x171;" horiz-adv-x="610" 
d="M54 497h154v-280q0 -51 20 -79q21 -26 60 -26q30 0 58 19q28 20 51 56v310h154v-497h-154v69q-35 -39 -77 -59q-40 -18 -91 -19q-87 1 -131 52q-44 52 -44 157v297zM214 728h169q-41 -40 -164 -166h-84q21 42 79 166zM431 728h169q-40 -40 -164 -166h-85q21 42 80 166z
" />
    <glyph glyph-name="Uogonek" unicode="&#x172;" horiz-adv-x="827" 
d="M68 698h176v-379q0 -43 10 -76q12 -33 33 -57q22 -22 54 -34q33 -12 74 -12q84 0 126 45q43 45 43 132v381h176v-385q0 -74 -21 -132q-20 -58 -62 -100q-41 -42 -101 -64q-58 -21 -136 -25q-6 -10 -9 -22t-3 -24q0 -10 4 -20q4 -8 10 -16q9 -6 19 -10q12 -3 24 -3
q14 0 24 2q12 3 21 6v-81q-21 -8 -42 -14q-20 -6 -41 -6q-24 0 -44 7t-35 22q-14 15 -23 36q-7 21 -7 46q0 21 6 40q6 21 17 39q-69 8 -124 31q-54 25 -93 65q-38 42 -57 97t-19 123v388z" />
    <glyph glyph-name="uogonek" unicode="&#x173;" horiz-adv-x="610" 
d="M54 497h154v-280q0 -51 20 -79q21 -26 60 -26q30 0 58 19q28 20 51 56v310h154v-497h-76q-8 -14 -12 -27q-3 -12 -4 -27q0 -10 3 -20q4 -8 11 -16q9 -6 19 -10q10 -3 24 -3t25 2q11 3 20 6v-81q-21 -8 -42 -14t-41 -6q-24 0 -44 7q-18 7 -35 22q-13 15 -22 36
q-7 21 -7 46q0 23 7 44q6 23 20 41v69q-35 -39 -77 -59q-40 -18 -91 -19q-87 1 -131 52q-44 52 -44 157v297z" />
    <glyph glyph-name="Wcircumflex" unicode="&#x174;" horiz-adv-x="1160" 
d="M0 698h181q41 -104 159 -415q44 105 174 415h133q43 -104 171 -415q42 105 163 415h179q-74 -176 -295 -705h-90q-48 115 -195 459q-50 -114 -198 -459h-92q-72 177 -290 705zM386 755q26 42 100 168h187q26 -42 102 -168h-95q-24 23 -100 92q-26 -23 -101 -92h-93z" />
    <glyph glyph-name="wcircumflex" unicode="&#x175;" horiz-adv-x="822" 
d="M0 497h157q26 -65 101 -265q26 66 104 265h101q27 -65 105 -265q26 66 100 265h154l-200 -500h-88q-30 74 -121 293q-29 -72 -119 -293h-88q-52 125 -206 500zM321 730h181q24 -42 91 -168h-94q-21 24 -88 91q-21 -21 -88 -91h-93q24 42 91 168z" />
    <glyph glyph-name="Ycircumflex" unicode="&#x176;" horiz-adv-x="715" 
d="M0 698h188q42 -56 167 -226q43 58 169 226h191q-67 -90 -268 -363v-335h-176v332q-67 92 -271 366zM163 755l100 168h187q26 -42 102 -168h-95q-25 23 -101 92q-24 -23 -100 -92h-93z" />
    <glyph glyph-name="ycircumflex" unicode="&#x177;" horiz-adv-x="551" 
d="M3 497h167q28 -63 111 -256q30 64 117 256h153q-85 -183 -340 -731h-157q38 78 146 310q-48 106 -197 421zM181 730h181q24 -42 92 -168h-95q-21 24 -88 91q-21 -21 -88 -91h-92q24 42 90 168z" />
    <glyph glyph-name="Zacute" unicode="&#x179;" horiz-adv-x="719" 
d="M44 698h299h353q-96 -138 -384 -554h384v-144h-681q97 138 385 554h-356v144zM246 755q24 42 97 168h183q-45 -42 -186 -168h-94z" />
    <glyph glyph-name="zacute" unicode="&#x17a;" horiz-adv-x="523" 
d="M31 497h215h257v-13q-60 -90 -243 -365h240v-119h-486v12q62 93 242 366h-225v119zM246 730h169q-40 -42 -163 -168h-87q21 42 81 168z" />
    <glyph glyph-name="Zdot" unicode="&#x17b;" horiz-adv-x="719" 
d="M44 698h307h345q-96 -138 -384 -554h384v-144h-681q97 138 385 554h-356v144zM432 848q0 -16 -6 -32q-4 -14 -17 -26q-11 -12 -25 -18h-1h-1q-14 -6 -31 -6q-16 0 -31 6t-27 18t-18 26q-6 16 -6 32q0 18 6 30q6 14 18 26t27 19q15 6 31 6q17 0 32 -6q15 -4 26 -18
q13 -11 17 -26q6 -13 6 -31z" />
    <glyph glyph-name="zdot" unicode="&#x17c;" horiz-adv-x="523" 
d="M31 497h231h241v-13q-60 -90 -243 -365h240v-119h-486v12q62 93 242 366h-225v119zM262 732q18 0 32 -5q15 -6 25 -18q14 -12 18 -27q6 -14 6 -31q0 -16 -6 -31q-4 -14 -18 -26q-10 -12 -25 -19q-2 1 -4 -1q-12 -4 -28 -5q-16 0 -31 6t-27 18t-18 27t-6 31q0 17 6 31
t18 26t27 18t31 6z" />
    <glyph glyph-name="Zcaron" unicode="&#x17d;" horiz-adv-x="719" 
d="M44 698h113h539q-96 -138 -384 -554h384v-144h-681q97 138 385 554h-356v144zM258 755q-24 42 -101 168h94q26 -23 101 -95q26 24 100 95h94q-24 -42 -101 -168h-187z" />
    <glyph glyph-name="zcaron" unicode="&#x17e;" horiz-adv-x="523" 
d="M31 497h45h427v-13q-60 -90 -243 -365h240v-119h-486v12q62 93 242 366h-225v119zM76 730h93q24 -22 93 -91q24 23 92 91h95q-25 -42 -97 -168h-181q-23 42 -95 168z" />
    <glyph glyph-name="longs" unicode="&#x17f;" horiz-adv-x="322" 
d="M287 708q21 0 41 -3q21 -1 42 -7v-116q-16 4 -32 7q-15 3 -30 2q-34 1 -52 -23q-16 -22 -17 -67v-501h-154v368h-77v109h77v16q1 51 13 90q14 39 39 67q27 30 65 44t85 14z" />
    <glyph glyph-name="Schwa" unicode="&#x18f;" horiz-adv-x="810" 
d="M39 387h542q-6 45 -24 79q-17 34 -47 58q-28 26 -68 38q-39 12 -89 12q-72 0 -141 -18t-133 -56v139q37 20 71 32q36 15 69 21q36 9 75 12q40 4 85 4q87 0 156 -25q71 -24 123 -74q54 -48 81 -114q27 -63 27 -145q0 -80 -23 -144q-24 -64 -72 -115q-47 -49 -116 -75
q-68 -24 -156 -25q-87 0 -155 24q-66 25 -113 75q-45 52 -69 115q-22 65 -23 143v39zM580 274h-356q16 -78 60 -118q45 -39 115 -39q39 1 68 10q31 11 53 32q24 21 38 50q16 29 22 65z" />
    <glyph glyph-name="florin" unicode="&#x192;" horiz-adv-x="580" 
d="M538 692q-4 -26 -18 -110q-18 4 -35 6q-16 2 -30 2q-21 0 -37 -6q-15 -6 -24 -20q-8 -12 -16 -33q-6 -21 -11 -50q-1 -13 -7 -40h110q-3 -25 -17 -105h-109q-14 -87 -55 -353q-15 -109 -66 -163q-49 -54 -133 -54q-21 0 -49 3q-27 4 -64 10q8 39 20 113l30 -6t32 -3
q21 1 35 7q16 8 25 19q12 13 18 40q9 27 15 68q16 107 48 319h-112q4 27 17 105h111q3 10 6 40q10 62 27 104q18 43 42 69q24 28 60 40q36 14 81 14q20 0 46 -4q27 -3 60 -12z" />
    <glyph glyph-name="Ohorn" unicode="&#x1a0;" horiz-adv-x="927" 
d="M433 708q92 0 162 -28q72 -26 126 -82q27 4 45 15q20 11 30 29q12 18 17 50t5 76h129q0 -62 -9 -108t-30 -77q-20 -30 -51 -51q-29 -18 -73 -28q18 -36 27 -74q9 -39 8 -81q1 -75 -25 -139t-78 -116q-52 -50 -124 -77q-70 -26 -162 -26q-60 1 -113 13t-98 37
q-44 25 -77 58t-55 72q-21 40 -32 84q-11 45 -11 93q0 27 3 53q3 25 10 51q9 26 19 50q12 24 26 47q16 24 34 44q20 21 41 38q23 17 50 31q28 14 61 24q34 12 70 16q36 6 75 6zM431 554q-47 0 -85 -14q-36 -12 -65 -42q-27 -28 -42 -66t-15 -84q0 -44 15 -81q15 -35 43 -65
q30 -28 66 -43q38 -15 82 -15q48 0 84 14q38 15 67 42t43 65q15 39 15 85q1 44 -14 79q-14 36 -41 66t-66 44q-38 15 -87 15z" />
    <glyph glyph-name="ohorn" unicode="&#x1a1;" horiz-adv-x="710" 
d="M314 506q69 0 123 -21q53 -21 91 -62q18 5 30 13q12 9 20 23q8 15 11 36q4 22 4 52h129q0 -51 -8 -89t-26 -64q-16 -24 -44 -42q-28 -16 -64 -24q6 -18 9 -38t3 -41q0 -59 -19 -105t-58 -83q-38 -35 -89 -53q-50 -16 -113 -17q-65 0 -116 18t-87 54q-36 38 -56 83
q-18 48 -18 102q0 58 18 104q20 48 56 82q38 36 89 54t115 18zM312 387q-26 0 -47 -9q-21 -8 -37 -28q-14 -18 -23 -44q-8 -24 -8 -57q0 -31 8 -57q9 -24 23 -45q16 -18 38 -28q21 -9 48 -9q28 0 50 9q21 10 36 28q18 21 24 45q8 26 8 57q0 33 -8 58t-25 43q-15 20 -37 28
q-22 9 -50 9z" />
    <glyph glyph-name="Uhorn" unicode="&#x1af;" horiz-adv-x="948" 
d="M68 698h176v-379q0 -43 10 -76q12 -33 33 -57q22 -22 54 -34q33 -12 74 -12q84 0 126 45q43 45 43 132v381h176v-100q26 6 42 16q18 12 28 29q12 19 17 51t5 74h129q1 -72 -13 -123q-12 -49 -40 -81q-26 -30 -68 -47t-100 -20v-184q0 -75 -22 -136q-22 -60 -68 -102
t-109 -63t-146 -21q-82 0 -148 21q-63 21 -109 63q-44 44 -68 101q-22 60 -22 134v388z" />
    <glyph glyph-name="uhorn" unicode="&#x1b0;" horiz-adv-x="743" 
d="M54 497h154v-280q0 -51 20 -79q21 -26 60 -26q30 0 58 19q28 20 51 56v310h154v-77q25 2 41 9q18 7 26 21q12 14 16 38q6 24 5 59h129q0 -61 -13 -105q-11 -44 -38 -69q-26 -24 -68 -39q-41 -12 -98 -16v-318h-154v69q-35 -39 -77 -59q-40 -18 -91 -19q-87 1 -131 52
q-44 52 -44 157v297z" />
    <glyph glyph-name="Aringacute" unicode="&#x1fa;" horiz-adv-x="795" 
d="M500 748q0 -22 -9 -40q-7 -16 -25 -31h27q75 -169 302 -677h-181q-16 40 -67 161h-300q-16 -39 -67 -161h-180q75 170 299 677h25q-16 15 -25 31q-8 18 -8 40q1 21 7 39q8 19 23 34q15 17 33 23q20 8 42 8v0q2 0 1 0q21 0 37 -7q20 -8 34 -24q16 -15 24 -34q8 -18 8 -39z
M396 517q-26 -61 -103 -244h208q-25 61 -105 244zM323 864q19 30 75 120h180q-40 -30 -161 -120h-94zM394 693q14 1 22 4q9 4 17 12q9 9 13 18q4 11 4 21q0 12 -4 20q-4 10 -13 17q-8 9 -17 13q-10 4 -22 4q-10 0 -20 -4q-9 -3 -18 -12q-6 -6 -11 -17q-3 -9 -4 -21
q1 -10 4 -21q5 -9 11 -17q9 -8 18 -12q10 -4 20 -5z" />
    <glyph glyph-name="aringacute" unicode="&#x1fb;" horiz-adv-x="539" 
d="M262 506q50 0 88 -10q39 -10 65 -31q27 -21 40 -50q13 -28 13 -66v-205q0 -20 6 -31t16 -11t21 5q12 4 26 13v-94q-38 -16 -72 -26q-33 -9 -64 -9q-31 1 -52 13q-19 14 -27 39q-30 -25 -67 -39q-36 -12 -80 -13q-33 0 -59 8q-24 9 -44 26q-18 18 -28 40q-10 24 -10 51
q0 36 15 62q15 27 44 45q31 20 85 41q56 22 136 48v12q0 21 -4 35q-4 15 -16 23q-10 10 -25 13q-15 4 -36 4q-50 0 -96 -22q-45 -21 -88 -67v128q44 34 96 51t114 17h3v0zM185 135q1 -11 4 -23q4 -9 12 -18q8 -6 17 -11q10 -3 22 -4q18 0 35 9q19 9 39 27v126
q-24 -9 -41 -18q-17 -8 -29 -14q-10 -4 -21 -13q-9 -6 -19 -17q-8 -9 -14 -20q-4 -12 -5 -24zM185 563q-15 16 -23 34q-6 19 -7 40q1 21 7 40q8 19 22 34q16 15 34 23q20 8 40 7q22 1 40 -7t34 -23q15 -15 23 -34q7 -19 7 -40t-7 -39q-8 -18 -23 -34q-16 -14 -34 -23
q-18 -7 -40 -7q-21 0 -39 7q-18 9 -34 22zM220 676q-8 -8 -12 -18q-4 -9 -4 -21q0 -11 4 -21q3 -8 11 -17q9 -8 18 -11q11 -4 21 -4q12 0 21 4q10 3 18 11q9 9 12 17q4 10 4 21q0 12 -4 21q-3 10 -12 18q-8 9 -18 12q-9 4 -21 4q-10 0 -20 -4q-9 -3 -18 -12zM257 924h169
q-40 -42 -163 -168h-87q21 42 81 168z" />
    <glyph glyph-name="AEacute" unicode="&#x1fc;" horiz-adv-x="1063" 
d="M421 698h269h312v-125h-297v-152h282v-126h-282v-170h306v-125h-483v274h-196q-39 -68 -161 -274h-181q108 176 431 698zM528 609q-32 -55 -131 -223h131v223zM593 755q25 42 97 168h183q-45 -42 -186 -168h-94z" />
    <glyph glyph-name="aeacute" unicode="&#x1fd;" horiz-adv-x="799" 
d="M49 313v128q51 33 100 49q51 16 100 16q37 0 70 -9q7 -1 11 -4q38 -11 71 -38q31 27 65 38q36 13 75 13q51 0 92 -17q42 -15 72 -52q31 -33 46 -80q16 -45 16 -102v-31h-314q1 -30 11 -53q12 -23 32 -41q22 -16 46 -25q26 -9 53 -9q36 0 76 14q41 14 89 40v-108
q-51 -24 -102 -38q-51 -12 -102 -13q-60 1 -107 17q-47 18 -83 52q-50 -34 -98 -52q-48 -16 -96 -17q-30 0 -56 8q-24 9 -44 28q-18 19 -28 41q-10 24 -10 49q0 16 4 30q4 15 10 27q8 15 16 24q10 12 19 19q11 9 23 17q14 8 29 16q17 8 32 14t28 9q13 6 28 9q15 4 33 10
t32 11q14 4 21 7v9q0 40 -18 60q-18 21 -57 20q-46 0 -92 -21q-45 -21 -93 -65zM455 303h168q-3 51 -25 76q-20 25 -58 25q-18 0 -32 -5t-27 -20q-10 -12 -18 -32q-6 -18 -8 -44zM309 240q-35 -14 -59 -28q-24 -12 -38 -24q-12 -9 -20 -23q-6 -13 -7 -29q1 -12 4 -23
q3 -9 10 -19q8 -6 17 -12q10 -4 22 -4q24 0 47 10q24 10 45 29q-10 27 -16 54q-4 29 -5 59v10zM384 730h169q-40 -42 -163 -168h-87q21 42 81 168z" />
    <glyph glyph-name="Oslashacute" unicode="&#x1fe;" horiz-adv-x="863" 
d="M66 24q18 20 75 76q-47 50 -73 112q-24 62 -24 136q0 27 3 53q3 25 10 51q9 26 19 50q12 24 26 47q16 24 34 44q20 21 41 38q23 17 50 31q28 14 61 24q34 12 70 16q36 6 74 6q2 0 1 0q69 0 128 -17q60 -15 108 -50q25 26 73 74q15 -13 55 -55q-17 -16 -69 -70
q46 -48 69 -109q22 -60 22 -132q1 -75 -25 -139t-78 -116q-52 -50 -124 -77q-70 -26 -162 -26q-64 0 -122 15q-56 16 -106 44q-28 -26 -82 -82q-14 14 -54 56zM431 554q-47 0 -86 -14q-38 -14 -65 -44t-42 -66q-14 -36 -14 -82q0 -34 10 -67q10 -31 29 -58q97 101 287 299
q-24 16 -54 24t-65 8zM639 350q0 32 -9 62q-8 30 -27 54q-93 -98 -281 -295q24 -12 50 -20q28 -7 58 -7q51 0 89 15q39 15 66 45t41 67t13 79zM335 755q25 42 97 168h183q-45 -42 -186 -168h-94z" />
    <glyph glyph-name="oslashacute" unicode="&#x1ff;" horiz-adv-x="628" 
d="M49 -10q17 18 63 71q-38 37 -57 82q-19 47 -19 105t18 104q20 48 56 82q38 36 89 54t115 18q46 0 85 -9t73 -29q22 24 65 72q10 -10 40 -37q-15 -16 -61 -67q39 -36 57 -83q19 -47 19 -104q0 -59 -19 -105t-58 -83q-38 -35 -89 -53q-50 -16 -113 -17q-45 1 -85 10
q-39 9 -72 28q-22 -24 -67 -75q-9 9 -40 36zM432 249q0 21 -4 38q-4 20 -13 36q-57 -64 -169 -193q15 -9 31 -15q17 -5 37 -5q28 0 50 9q21 10 36 28q18 21 24 45q8 26 8 57zM312 387q-26 0 -47 -9q-21 -8 -37 -28q-14 -18 -23 -44q-8 -24 -8 -57q0 -19 3 -39q4 -18 12 -36
q58 64 170 193q-14 11 -32 15q-18 6 -38 5zM314 730h169q-39 -42 -162 -168h-88q21 42 81 168z" />
    <glyph glyph-name="Scommaaccent" unicode="&#x218;" horiz-adv-x="570" 
d="M286 708q60 0 112 -14q54 -14 99 -42v-149q-50 39 -98 58q-48 21 -96 20q-20 0 -35 -4q-16 -3 -26 -13q-10 -8 -16 -20q-6 -10 -6 -25q0 -12 6 -24q6 -10 16 -22q10 -9 32 -23q22 -12 52 -29q52 -25 90 -51t61 -49q25 -23 37 -56q12 -32 11 -71q1 -46 -17 -82
q-16 -36 -50 -65q-33 -27 -78 -42q-44 -14 -98 -14q-28 0 -56 3q-28 4 -57 11q-57 15 -115 44v158q54 -42 105 -63t100 -21q23 1 39 4q16 5 28 14q12 11 18 21q6 12 5 24q1 16 -5 28q-4 14 -17 24q-11 12 -38 26q-26 16 -66 35q-13 9 -27 14q-12 6 -21 12t-20 14
q-10 8 -25 17q-12 12 -24 21q-9 11 -18 20q-8 12 -14 24q-6 13 -13 28q-6 15 -9 32t-3 33q1 42 16 76q17 36 47 62q32 28 75 42t99 14zM190 -283v18q32 12 47 30q15 20 16 47q-15 2 -26 6q-12 6 -21 13q-9 9 -13 20q-5 12 -5 24q0 19 7 31q6 15 18 24q13 12 28 16q17 6 36 6
h1v0q18 0 33 -6q16 -6 28 -19q13 -11 19 -29q8 -16 7 -38q0 -28 -12 -53q-12 -24 -36 -45q-22 -20 -55 -31q-32 -11 -72 -14z" />
    <glyph glyph-name="scommaaccent" unicode="&#x219;" horiz-adv-x="465" 
d="M46 362q0 30 13 56q14 26 38 46q27 22 60 32q35 10 77 10q46 0 87 -10q42 -9 78 -30v-116q-39 27 -76 39q-35 12 -67 12q-14 1 -24 -2q-8 -1 -17 -7q-7 -3 -11 -11q-3 -5 -3 -13q1 -8 4 -16q3 -6 11 -14q9 -6 27 -16q20 -9 48 -24q34 -14 60 -32q26 -15 41 -35
q18 -18 25 -40q9 -23 8 -50q0 -32 -12 -59q-11 -27 -37 -48q-24 -22 -60 -32q-34 -10 -82 -11q-24 0 -51 3q-17 4 -37 7q-45 11 -95 31v120q43 -27 81 -42t70 -15q18 0 29 3l21 7q10 6 14 12t4 14q0 11 -4 19t-14 16q-8 9 -29 19q-18 11 -50 25q-33 16 -58 33q-24 18 -39 36
q-14 18 -22 39q-8 22 -8 44zM144 -283v18q32 12 47 30q15 20 16 47q-15 2 -26 6q-12 6 -21 13q-9 9 -13 20q-5 12 -5 24q0 19 6 31q8 15 19 24q13 12 28 16q17 6 33 6h2v0q20 0 34 -6q18 -6 29 -19q13 -11 19 -29q6 -16 6 -38q0 -28 -11 -53q-12 -24 -36 -45
q-22 -20 -55 -31q-32 -11 -72 -14z" />
    <glyph glyph-name="Tcommabelow" unicode="&#x21a;" horiz-adv-x="713" 
d="M18 698h676v-145h-251v-553h-176v553h-249v145zM262 -283v18q32 12 46 30q16 20 17 47q-15 2 -27 6q-10 6 -20 13q-9 9 -13 20q-5 12 -5 24q0 19 6 31q6 15 19 24q11 10 25 15q2 1 3 1v0q15 6 33 6q21 0 36 -6q16 -6 29 -19q13 -11 19 -29q6 -16 6 -38q0 -28 -11 -53
q-12 -24 -36 -45q-22 -20 -55 -31q-32 -11 -72 -14z" />
    <glyph glyph-name="tcommabelow" unicode="&#x21b;" horiz-adv-x="442" 
d="M8 412q56 56 219 221h16v-147h164v-110h-164v-176q0 -21 3 -37q3 -15 11 -26q9 -9 22 -15q13 -4 33 -5q26 0 53 9q27 10 58 26v-124q-35 -18 -74 -28q-39 -9 -82 -9q-24 0 -45 3h-1q-54 10 -87 43q-45 46 -45 138v201h-81v36zM176 -283v18q32 12 46 30q16 20 17 47
q-15 2 -27 6q-10 6 -21 13q-8 9 -12 20q-5 12 -5 24q0 19 6 31q6 15 19 24q13 12 28 16q15 6 29 6h4q21 0 36 -6q16 -6 29 -19q13 -11 19 -29q6 -16 6 -38q0 -28 -11 -53q-12 -24 -36 -45q-22 -20 -55 -31q-32 -11 -72 -14z" />
    <glyph glyph-name="dotlessj" unicode="&#x237;" horiz-adv-x="272" 
d="M59 497h154v-530q1 -45 -11 -81q-10 -36 -33 -62q-21 -26 -51 -42q-30 -15 -69 -23l-63 117q20 8 35 16q15 10 22 22q9 14 12 33q4 21 4 46v504z" />
    <glyph glyph-name="schwa" unicode="&#x259;" horiz-adv-x="574" 
d="M270 -9q-50 1 -93 17q-43 18 -77 51q-32 35 -50 83q-16 50 -17 111v29h348q-3 26 -16 47q-11 21 -32 38q-19 16 -45 24q-24 9 -52 8q-46 1 -94 -13q-48 -12 -97 -40v106q48 27 102 41q55 13 118 13t112 -17q50 -18 86 -54q38 -35 56 -83q19 -46 19 -106q0 -57 -18 -103
q-18 -45 -54 -82q-34 -35 -84 -53q-48 -16 -112 -17zM384 203h-206q2 -25 7 -46q8 -20 20 -35q15 -14 32 -22t41 -8t41 8q18 8 33 23q16 15 24 35q8 21 8 45z" />
    <glyph glyph-name="afii57929" unicode="&#x2bc;" horiz-adv-x="284" 
d="M130 708q26 0 46 -11q20 -9 35 -30q15 -19 22 -45q9 -24 8 -54q1 -36 -13 -68q-12 -32 -40 -62q-26 -27 -63 -47q-37 -17 -85 -26v29q34 16 51 49t17 82q-36 11 -53 32q-18 23 -18 56q0 21 6 37q8 16 20 30q15 15 31 21q18 7 36 7z" />
    <glyph glyph-name="circumflex" unicode="&#x2c6;" horiz-adv-x="341" 
d="M80 730h181q23 -42 91 -168h-94q-22 24 -88 91q-22 -21 -88 -91h-92q22 42 90 168z" />
    <glyph glyph-name="caron" unicode="&#x2c7;" horiz-adv-x="341" 
d="M-15 730h93q24 -22 93 -91q23 23 92 91h94l-96 -168h-181q-24 42 -95 168z" />
    <glyph glyph-name="firsttonechinese" unicode="&#x2c9;" horiz-adv-x="341" 
d="M13 682h315v-97h-315v97z" />
    <glyph glyph-name="breve" unicode="&#x2d8;" horiz-adv-x="341" 
d="M-4 715h91q9 -32 29 -48q22 -15 55 -16q18 1 30 4q13 3 22 11q10 8 18 20t12 29h92q-3 -33 -16 -61t-37 -52q-22 -22 -54 -35q-30 -12 -67 -12q-34 1 -64 11q-28 10 -52 31q-22 21 -37 51q-14 30 -22 67z" />
    <glyph glyph-name="dotaccent" unicode="&#x2d9;" horiz-adv-x="341" 
d="M252 651q0 -16 -6 -31q-4 -14 -18 -26q-10 -12 -26 -19q-14 -6 -31 -6q-16 0 -31 6t-27 18t-18 27t-6 31q0 17 6 31t18 26t27 18t31 6q17 0 31 -5q16 -6 26 -18q14 -12 18 -27q6 -14 6 -31z" />
    <glyph glyph-name="ring" unicode="&#x2da;" horiz-adv-x="341" 
d="M97 591q-15 15 -23 34q-6 19 -7 40q1 21 7 40q8 18 22 33q16 16 34 23q18 9 40 8q22 1 40 -8q18 -7 34 -23q15 -15 23 -33q7 -19 7 -40t-7 -40q-8 -18 -23 -33q-16 -14 -34 -23q-18 -8 -40 -8q-21 0 -39 8q-18 7 -34 22zM132 703q-8 -7 -12 -17q-4 -9 -4 -21q0 -11 4 -21
q3 -9 11 -17q9 -8 18 -12q11 -3 21 -4q12 1 21 4q10 4 18 12q9 8 12 17q4 10 4 21q0 12 -4 21q-3 10 -12 17q-8 9 -18 13q-9 4 -21 4q-10 0 -20 -4q-9 -4 -18 -13z" />
    <glyph glyph-name="ogonek" unicode="&#x2db;" horiz-adv-x="341" 
d="M126 8h77q-10 -16 -16 -32q-6 -15 -6 -30q1 -10 4 -20q3 -8 11 -16q8 -6 18 -10q12 -3 25 -3q14 0 24 2q12 3 21 6v-81q-21 -8 -42 -14q-20 -6 -41 -6q-24 0 -44 7t-35 22q-14 15 -22 36t-8 46t9 47q9 24 25 46z" />
    <glyph glyph-name="tilde" unicode="&#x2dc;" horiz-adv-x="341" 
d="M93 715q15 1 35 -5q22 -4 50 -16q30 -10 47 -16q17 -4 23 -5q18 1 27 10q9 11 11 32h71q1 -33 -7 -61q-8 -26 -23 -47q-15 -20 -36 -30q-20 -9 -44 -10q-13 1 -34 5q-20 6 -48 16q-27 12 -45 16q-16 6 -25 5q-17 0 -27 -10q-10 -9 -13 -32h-71q0 36 8 63q8 28 24 46
q18 20 36 29q20 10 41 10z" />
    <glyph glyph-name="hungarumlaut" unicode="&#x2dd;" horiz-adv-x="341" 
d="M68 728h169q-41 -40 -164 -166h-84q19 42 79 166zM285 728h169q-40 -40 -164 -166h-85q21 42 80 166z" />
    <glyph glyph-name="gravecmb" unicode="&#x300;" horiz-adv-x="0" 
d="M-460 730h170q21 -42 81 -168h-87q-40 42 -164 168z" />
    <glyph glyph-name="acutecmb" unicode="&#x301;" horiz-adv-x="0" 
d="M-310 730h170q-40 -42 -164 -168h-86z" />
    <glyph glyph-name="tildecmb" unicode="&#x303;" horiz-adv-x="0" 
d="M-378 715q14 1 35 -5q23 -4 50 -16q30 -10 46 -16q17 -4 23 -5q18 1 28 10q9 11 11 32h70q1 -33 -7 -61q-6 -26 -22 -47q-14 -20 -35 -30q-19 -9 -45 -10q-12 1 -34 5q-20 6 -48 16q-27 12 -45 16q-17 6 -26 5q-17 0 -27 -10q-9 -9 -12 -32h-71q0 36 8 63q8 28 24 46
q18 20 36 29q21 10 41 10z" />
    <glyph glyph-name="hookabovecomb" unicode="&#x309;" horiz-adv-x="0" 
d="M-351 540v88h14q9 0 15 2t12 6q6 6 8 10q3 6 3 11q0 15 -10 22q-9 7 -30 7q-12 0 -27 -1q-14 -2 -32 -5v61q18 5 40 7q24 3 49 3q32 0 54 -6q24 -5 39 -19q16 -12 24 -30t8 -41q0 -17 -7 -32q-5 -14 -20 -26q-13 -11 -31 -17t-40 -6v-34h-69z" />
    <glyph glyph-name="dotbelowcmb" unicode="&#x323;" horiz-adv-x="0" 
d="M-372 -85q14 12 27 18q15 7 31 7q18 0 31 -6q15 -6 26 -18q12 -12 18 -27q6 -13 6 -31q0 -16 -6 -31q-6 -13 -18 -27q-11 -10 -26 -17q-13 -6 -31 -6q-16 0 -31 6q-13 7 -27 17q-10 14 -17 27q-6 15 -6 31q0 18 6 31q7 15 17 26z" />
    <glyph glyph-name="numeralsigngreek" unicode="&#x374;" horiz-adv-x="269" 
d="M36 513q12 47 50 185h153q-23 -45 -97 -185h-106z" />
    <glyph glyph-name="numeralsignlowergreek" unicode="&#x375;" horiz-adv-x="269" 
d="M31 -91q24 46 96 186h106q-11 -45 -50 -186h-152z" />
    <glyph glyph-name="questiongreek" unicode="&#x37e;" horiz-adv-x="287" 
d="M134 184v0q2 0 1 0q25 0 45 -9t35 -32q15 -19 23 -45q8 -24 7 -53q1 -35 -13 -68q-12 -33 -39 -62q-27 -27 -64 -47q-37 -18 -85 -26v28q34 16 51 49t17 83q-36 12 -53 33q-18 23 -18 56q0 20 6 36q7 16 21 30t30 20q18 7 35 7h1zM137 322q-7 0 -18 1v0q-7 2 -16 5
q-15 6 -30 20q-13 15 -21 31q-6 17 -7 35q0 20 6 35q7 15 21 29q15 15 30 21q18 7 35 7q20 0 35 -7q16 -6 30 -21q14 -14 20 -30q8 -16 7 -34q0 -18 -6 -35q-5 -15 -20 -30q-12 -13 -30 -21q-15 -6 -36 -6z" />
    <glyph glyph-name="tonos" unicode="&#x384;" horiz-adv-x="341" 
d="M101 561q14 39 50 151h165q-30 -38 -119 -151h-96z" />
    <glyph glyph-name="dialytikatonos" unicode="&#x385;" horiz-adv-x="341" 
d="M103 574q9 40 34 157h128q-21 -39 -88 -157h-74zM-47 647q1 14 5 24q4 11 13 20q10 9 22 14q11 5 23 5q15 0 25 -5q11 -5 20 -14q11 -9 15 -20q6 -10 5 -24q0 -13 -4 -25q-5 -12 -15 -21q-8 -9 -20 -14q-12 -3 -26 -4q-12 1 -23 4q-11 5 -21 14q-8 9 -14 21q-4 12 -5 25z
M261 647q1 14 5 24q4 11 14 20t20 14q12 5 25 5q14 0 24 -4q12 -4 21 -14q10 -8 13 -20q5 -10 5 -25q0 -13 -5 -25q-3 -12 -13 -21q-9 -9 -21 -14q-10 -3 -24 -4q-13 1 -25 4q-10 5 -20 14t-14 21t-5 25z" />
    <glyph glyph-name="Alphatonos" unicode="&#x386;" horiz-adv-x="798" 
d="M307 700h183q78 -174 308 -699h-181q-15 41 -67 161h-300q-16 -39 -67 -161h-180q76 175 304 699zM399 528q-25 -62 -103 -254h208q-26 64 -105 254zM9 520q13 46 49 178h166q-30 -44 -120 -178h-95z" />
    <glyph glyph-name="anoteleia" unicode="&#x387;" horiz-adv-x="268" 
d="M226 369q0 -18 -6 -34q-6 -15 -20 -30q-14 -13 -30 -21t-36 -8q-18 0 -34 7q-16 6 -30 20q-14 15 -21 31t-7 35q0 20 6 35q8 16 21 29q14 15 30 20q17 7 35 7q20 0 35 -7q16 -5 30 -20q14 -14 20 -30q7 -15 7 -34z" />
    <glyph glyph-name="Epsilontonos" unicode="&#x388;" horiz-adv-x="791" 
d="M251 698h478v-125h-302v-153h289v-125h-289v-170h310v-125h-486v698zM0 520q12 46 49 178h166q-30 -44 -120 -178h-95z" />
    <glyph glyph-name="Etatonos" unicode="&#x389;" horiz-adv-x="1016" 
d="M252 698h176v-270h338v270h176v-698h-176v282h-338v-282h-176v698zM0 520q12 46 49 178h166q-30 -44 -120 -178h-95z" />
    <glyph glyph-name="Iotatonos" unicode="&#x38a;" horiz-adv-x="501" 
d="M250 698h176v-698h-176v698zM0 520q12 46 49 178h166q-30 -44 -120 -178h-95z" />
    <glyph glyph-name="Omicrontonos" unicode="&#x38c;" horiz-adv-x="964" 
d="M534 708q88 0 158 -25t122 -77q54 -50 79 -115q27 -63 27 -142q0 -75 -26 -139t-78 -116q-52 -50 -124 -77q-70 -26 -162 -26q-60 1 -113 13t-98 37q-44 25 -77 58t-55 72q-21 40 -32 84q-11 45 -11 93q0 27 4 53q4 25 10 51q8 26 18 50q12 24 27 47q15 24 34 44
q19 21 41 38q24 17 50 31q27 14 60 24q34 12 70 16q36 6 76 6zM531 554q-46 0 -84 -14q-38 -12 -66 -42q-27 -28 -42 -66q-14 -38 -14 -84q0 -44 14 -81q15 -35 43 -65q30 -28 66 -43q38 -15 82 -15q48 0 85 14q38 15 66 42q29 27 44 65q15 39 14 85q1 44 -13 79
q-14 36 -42 66q-27 30 -66 44q-36 15 -87 15zM0 520q12 46 49 178h166q-30 -44 -120 -178h-95z" />
    <glyph glyph-name="Upsilontonos" unicode="&#x38e;" horiz-adv-x="947" 
d="M232 698h189q43 -56 167 -226q42 58 169 226h190q-66 -90 -267 -363v-335h-176v332q-68 92 -272 366zM0 520q12 46 49 178h166q-30 -44 -120 -178h-95z" />
    <glyph glyph-name="Omegatonos" unicode="&#x38f;" horiz-adv-x="943" 
d="M168 0v134h136q-38 30 -66 60q-28 32 -44 63q-16 33 -26 69q-8 38 -8 77q0 67 24 121q26 56 74 98q50 44 117 64q69 22 155 22t154 -21q68 -20 116 -62q50 -41 74 -98q26 -55 25 -125q1 -40 -8 -77q-7 -35 -25 -68q-16 -31 -44 -61t-68 -62h137v-134h-308v128
q71 45 104 105q35 62 35 138q0 45 -12 79q-12 36 -38 60q-26 27 -61 39t-81 12q-44 0 -80 -12t-62 -39q-24 -24 -38 -60q-12 -33 -13 -77q0 -39 8 -75q9 -34 24 -65q16 -28 42 -55q27 -26 63 -50v-128h-306zM0 520q12 46 49 178h166q-30 -44 -120 -178h-95z" />
    <glyph glyph-name="iotadieresistonos" unicode="&#x390;" horiz-adv-x="291" 
d="M59 119v378h46h108v-352q0 -20 8 -30q8 -9 23 -10q10 1 21 4q13 4 25 10v-97q-30 -15 -63 -24q-31 -6 -67 -7q-26 1 -46 7q-18 9 -31 24q-12 15 -18 39q-6 25 -6 58zM72 574q9 40 33 157h128q-21 -39 -88 -157h-73zM-79 647q1 14 5 24q4 11 14 20t21 14q12 5 24 5
q14 0 24 -5q12 -5 21 -14q10 -9 14 -20q6 -10 5 -24q0 -13 -4 -25q-3 -12 -14 -21q-9 -9 -21 -14q-12 -3 -25 -4q-12 1 -24 4q-9 5 -20 14q-9 9 -15 21q-4 12 -5 25zM229 647q1 14 5 24q6 11 14 20q10 9 20 14q12 5 25 5q15 0 25 -4q12 -4 20 -14q10 -8 14 -20q4 -10 4 -25
q0 -13 -4 -25t-14 -21q-8 -9 -20 -14q-10 -3 -25 -4q-13 1 -25 4q-10 5 -20 14q-8 9 -14 21q-4 12 -5 25z" />
    <glyph glyph-name="Alpha" unicode="&#x391;" horiz-adv-x="795" 
d="M304 699h183q77 -174 308 -699h-181q-16 40 -67 161h-300q-16 -39 -67 -161h-180q76 176 304 699zM396 527q-26 -63 -103 -254h208q-25 65 -105 254z" />
    <glyph glyph-name="Beta" unicode="&#x392;" horiz-adv-x="699" 
d="M75 698h297q56 0 99 -11q43 -10 75 -34q33 -22 48 -54q15 -30 15 -70q0 -24 -6 -48q-6 -23 -20 -44q-13 -20 -33 -35q-18 -15 -41 -24q76 -22 114 -69q37 -45 37 -113q0 -54 -18 -92t-57 -60q-38 -21 -90 -33q-51 -11 -117 -11h-303v698zM251 590v-181h75q58 1 87 23
q28 24 28 69q0 24 -6 40q-4 18 -19 27q-12 12 -34 16q-21 6 -49 6h-82zM251 109h92q72 1 106 23q34 24 34 72q0 50 -34 73q-34 24 -106 24h-92v-192z" />
    <glyph glyph-name="Gamma" unicode="&#x393;" horiz-adv-x="594" 
d="M84 0v698h494v-144h-318v-554h-176z" />
    <glyph glyph-name="Deltagreek" unicode="&#x394;" horiz-adv-x="790" 
d="M0 0q78 177 307 703h178q77 -175 305 -703h-790zM232 133h321q-39 99 -160 396q-39 -99 -161 -396z" />
    <glyph glyph-name="Epsilon" unicode="&#x395;" horiz-adv-x="614" 
d="M75 698h478v-125h-302v-153h289v-125h-289v-170h310v-125h-486v698z" />
    <glyph glyph-name="Zeta" unicode="&#x396;" horiz-adv-x="719" 
d="M44 698h652q-96 -138 -384 -554h384v-144h-681q97 138 385 554h-356v144z" />
    <glyph glyph-name="Eta" unicode="&#x397;" horiz-adv-x="840" 
d="M75 698h176v-270h338v270h176v-698h-176v282h-338v-282h-176v698z" />
    <glyph glyph-name="Theta" unicode="&#x398;" horiz-adv-x="874" 
d="M438 708q90 0 162 -25t124 -77q54 -50 80 -115q26 -63 26 -142q0 -75 -26 -139t-79 -116q-51 -50 -125 -77q-72 -26 -165 -26q-45 1 -88 7q-41 8 -80 21q-36 17 -68 35q-30 20 -56 44q-22 27 -42 54q-17 28 -31 60q-12 33 -19 67q-7 35 -7 69t6 66q6 33 18 63
q12 33 29 60q17 29 39 55q24 27 54 48q32 21 70 36q40 16 85 24t93 8zM436 565q-50 0 -90 -15q-40 -14 -70 -46q-28 -30 -44 -70q-15 -38 -15 -86q0 -46 15 -86q16 -38 46 -68t70 -46q40 -15 87 -15q55 1 94 16q42 15 70 47q29 32 44 70q15 39 14 84q1 46 -14 84
q-15 39 -45 69q-28 32 -70 47q-40 15 -92 15zM285 415h304v-124h-304v124z" />
    <glyph glyph-name="Iota" unicode="&#x399;" horiz-adv-x="326" 
d="M75 698h176v-698h-176v698z" />
    <glyph glyph-name="Kappa" unicode="&#x39a;" horiz-adv-x="760" 
d="M75 698h176v-321q66 81 264 321h197q-68 -81 -273 -327q81 -93 324 -371h-219q-72 86 -293 339v-339h-176v698z" />
    <glyph glyph-name="Lambda" unicode="&#x39b;" horiz-adv-x="733" 
d="M733 0h-181q-45 112 -183 446q-46 -110 -187 -446h-182q78 176 311 706h116q78 -176 306 -706z" />
    <glyph glyph-name="Mu" unicode="&#x39c;" horiz-adv-x="908" 
d="M75 698h161q54 -66 219 -269q54 68 219 269h160v-698h-177v446q-49 -60 -196 -244h-17q-48 62 -197 244v-446h-172v698z" />
    <glyph glyph-name="Nu" unicode="&#x39d;" horiz-adv-x="870" 
d="M75 698h154q99 -108 393 -435v435h174v-698h-157q-97 110 -391 434v-434h-173v698z" />
    <glyph glyph-name="Xi" unicode="&#x39e;" horiz-adv-x="694" 
d="M42 0v136h5h605v-136h-610zM109 286v135h477v-135h-477zM47 562v136h599v-135q-150 1 -599 -1z" />
    <glyph glyph-name="Omicron" unicode="&#x39f;" horiz-adv-x="863" 
d="M432 708q88 0 158 -25t123 -77q53 -50 79 -115q26 -63 26 -142q0 -75 -25 -139q-26 -64 -78 -116q-51 -50 -124 -77q-70 -26 -162 -26q-61 1 -113 13t-98 37q-44 25 -77 58t-55 72q-20 40 -32 84q-10 45 -11 93q0 27 3 53q4 25 10 51q9 26 19 50q11 24 26 47q16 24 34 44
q20 21 41 38q24 17 50 31q28 14 61 24q34 12 70 16q36 6 75 6zM430 554q-48 0 -85 -14q-37 -12 -65 -42q-27 -28 -42 -66t-15 -84q0 -44 15 -81q15 -35 43 -65q30 -28 66 -43q37 -15 82 -15q48 0 84 14q37 15 67 42t43 65q15 39 15 85q0 44 -14 79q-14 36 -41 66t-66 44
q-37 15 -87 15z" />
    <glyph glyph-name="Pi" unicode="&#x3a0;" horiz-adv-x="836" 
d="M75 0v698h686v-698h-176v552h-334v-552h-176z" />
    <glyph glyph-name="Rho" unicode="&#x3a1;" horiz-adv-x="655" 
d="M75 698h295q60 0 107 -13q48 -14 81 -42q36 -27 52 -67q18 -40 17 -91q0 -45 -16 -83q-15 -38 -48 -68q-31 -28 -77 -44t-108 -16h-127v-274h-176v698zM251 579v-185h88q54 0 81 23q26 23 26 68q0 25 -6 43t-20 28q-14 12 -36 17q-22 6 -52 6h-81z" />
    <glyph glyph-name="Sigma" unicode="&#x3a3;" horiz-adv-x="699" 
d="M13 0q75 88 296 350l-296 348h640v-138h-320q44 -52 174 -212q-44 -51 -174 -210h338v-138h-658z" />
    <glyph glyph-name="Tau" unicode="&#x3a4;" horiz-adv-x="713" 
d="M18 698h676v-145h-251v-553h-176v553h-249v145z" />
    <glyph glyph-name="Upsilon" unicode="&#x3a5;" horiz-adv-x="715" 
d="M0 698h188q42 -56 167 -226q43 58 169 226h191q-67 -90 -268 -363v-335h-176v332q-67 92 -271 366z" />
    <glyph glyph-name="Phi" unicode="&#x3a6;" horiz-adv-x="906" 
d="M369 -9v102q-75 6 -136 27q-59 22 -103 56q-42 36 -64 82t-22 102t22 99q22 45 64 79q44 34 103 53q61 21 136 23v94h169v-94q75 -3 133 -21q59 -18 103 -54q45 -34 66 -79q22 -44 22 -100t-21 -102t-64 -82q-42 -34 -102 -56q-59 -21 -137 -27v-102h-169zM369 220v267
q-36 -1 -64 -11q-27 -9 -46 -27q-18 -19 -28 -41q-9 -22 -10 -51q0 -27 9 -50q8 -22 26 -42q18 -17 46 -29q28 -10 67 -16zM538 487v-267q36 3 62 13q28 11 46 29q21 20 30 43q9 24 9 51q0 30 -9 53q-9 24 -30 40q-20 17 -47 26q-27 10 -61 12z" />
    <glyph glyph-name="Chi" unicode="&#x3a7;" horiz-adv-x="829" 
d="M20 698h224q57 -69 99 -123q42 -51 68 -87q27 38 67 90q42 52 97 120h220l-272 -336q77 -90 302 -362h-224q-48 58 -190 231q-21 -29 -68 -86q-46 -57 -118 -145h-221q74 92 296 362z" />
    <glyph glyph-name="Psi" unicode="&#x3a8;" horiz-adv-x="893" 
d="M361 -9v115q-86 10 -146 42q-59 33 -95 85q-34 55 -52 136q-18 83 -18 189v29h176q0 -89 8 -152t22 -100q15 -36 42 -57t63 -27v457h169v-457q40 5 66 26t41 60t22 101q9 63 8 149h176v-29q0 -106 -18 -187q-17 -81 -53 -135q-34 -54 -96 -86q-60 -32 -146 -44v-115h-169
z" />
    <glyph glyph-name="Omega" unicode="&#x3a9;" horiz-adv-x="827" 
d="M52 0v134h136q-38 30 -66 60q-26 32 -44 63q-16 33 -26 69q-8 38 -8 77q0 67 25 121q25 56 73 98q50 44 118 64q68 22 155 22t153 -21q68 -20 116 -62q51 -41 75 -98q24 -55 24 -125q1 -40 -8 -77q-8 -35 -24 -68q-17 -31 -45 -61t-68 -62h137v-134h-308v128
q71 45 105 105q34 62 34 138q0 45 -12 79q-12 36 -38 60q-24 27 -61 39q-35 12 -80 12t-81 -12t-62 -39q-24 -24 -38 -60q-12 -33 -13 -77q0 -39 8 -75q9 -34 24 -65q16 -28 42 -55q27 -26 63 -50v-128h-306z" />
    <glyph glyph-name="Iotadieresis" unicode="&#x3aa;" horiz-adv-x="326" 
d="M75 698h176v-698h-176v698zM6 790q-10 10 -16 23q-4 13 -5 27q1 14 5 26t15 23q12 12 24 16q12 5 26 5q15 0 27 -5q12 -3 22 -15q12 -10 16 -23q6 -12 5 -27q1 -14 -5 -26q-4 -12 -16 -23q-10 -11 -22 -17q-4 0 -11 -3v0q-7 -2 -16 -2q-14 1 -26 5q-11 6 -23 16zM223 790
q-10 10 -16 23q-5 13 -5 27t5 26t15 23q12 12 24 16q14 5 26 5q15 0 27 -5q14 -3 23 -15q10 -10 15 -23q5 -12 5 -27q0 -14 -5 -26t-15 -23q-9 -11 -23 -17q-12 -4 -27 -5q-12 1 -26 5q-12 6 -23 16z" />
    <glyph glyph-name="Upsilondieresis" unicode="&#x3ab;" horiz-adv-x="715" 
d="M0 698h188q42 -56 167 -226q43 58 169 226h191q-67 -90 -268 -363v-335h-176v332q-67 92 -271 366zM198 790q-10 10 -16 23t-6 27t5 26q6 12 16 23q11 12 23 16q14 5 27 5q15 0 27 -5q12 -3 22 -15q12 -10 16 -23q4 -12 4 -27q0 -14 -4 -26t-16 -23q-10 -11 -22 -17
q-4 0 -8 -2q-2 0 -3 -1q-7 -2 -16 -2q-14 1 -26 5q-13 6 -23 16zM415 790q-10 10 -16 23t-6 27q1 14 5 26q6 12 16 23q10 12 23 16q13 5 27 5q15 0 27 -5q13 -3 22 -15q12 -10 16 -23q5 -12 5 -27q0 -14 -5 -26q-4 -12 -16 -23q-9 -11 -22 -17q-12 -4 -27 -5q-14 1 -26 5
q-12 6 -23 16z" />
    <glyph glyph-name="alphatonos" unicode="&#x3ac;" horiz-adv-x="636" 
d="M404 146v213q-18 15 -39 22t-47 7q-28 0 -50 -9q-21 -9 -39 -29q-15 -18 -24 -44q-8 -26 -8 -58q1 -32 7 -59q8 -24 22 -44q16 -18 36 -27q21 -9 47 -9q27 0 49 9q24 10 46 28zM626 120v-97q-28 -15 -56 -24q-28 -8 -55 -8q-36 0 -60 15q-22 15 -34 45q-34 -30 -73 -45
q-38 -15 -81 -15q-50 0 -92 18q-42 19 -75 53q-32 38 -48 83q-16 46 -16 102q0 57 16 102q18 47 50 83q34 38 79 55q45 19 102 19h1v0q32 0 62 -8q32 -8 58 -25v24h154v-345q0 -12 1 -22q3 -8 4 -14q3 -4 8 -8q6 -3 12 -3q8 1 18 4q11 5 25 11zM236 561q12 39 49 151h166
q-30 -38 -120 -151h-95z" />
    <glyph glyph-name="epsilontonos" unicode="&#x3ad;" horiz-adv-x="497" 
d="M461 132v-110q-42 -15 -90 -24q-48 -6 -102 -7q-55 1 -99 10q-42 9 -72 29q-28 20 -43 47t-15 60q0 48 27 78q29 31 81 43v4q-20 6 -38 16t-30 24q-12 16 -19 31q-6 17 -6 35q0 33 14 57q13 25 40 43q27 20 66 29q38 9 84 9h6q53 0 98 -8t84 -24v-105q-35 15 -71 22
t-68 7q-46 0 -71 -11q-24 -11 -24 -35q0 -14 6 -24t18 -16t30 -9q19 -3 43 -3h54v-100h-61q-51 0 -76 -12q-26 -12 -26 -35q0 -15 6 -26q7 -9 19 -16q14 -7 34 -10q21 -3 48 -3q36 0 74 9q39 9 79 25zM208 561q12 39 49 151h166q-30 -38 -120 -151h-34h-61z" />
    <glyph glyph-name="etatonos" unicode="&#x3ae;" horiz-adv-x="610" 
d="M78 0v338q0 22 -7 33t-22 11q-5 0 -14 -2q-7 -2 -17 -8v107q27 15 53 20q26 7 50 7q41 0 67 -21t33 -62q37 41 76 62q24 13 48 17q21 4 40 4q41 0 73 -13t53 -40q24 -27 34 -63q11 -36 11 -85v-539h-154v517q0 51 -18 77t-57 25q-27 0 -52 -16q-23 -17 -44 -51v-318h-153
zM254 561q12 39 49 151h166q-30 -38 -120 -151h-95z" />
    <glyph glyph-name="iotatonos" unicode="&#x3af;" horiz-adv-x="291" 
d="M59 119v378h58h96v-352q0 -20 8 -30q8 -9 23 -10q10 1 21 4q13 4 25 10v-97q-30 -15 -63 -24q-31 -6 -67 -7q-26 1 -46 7q-18 9 -31 24q-12 15 -18 39q-6 25 -6 58zM68 561q12 39 49 151h166q-30 -38 -123 -151v0h-92z" />
    <glyph glyph-name="upsilondieresistonos" unicode="&#x3b0;" horiz-adv-x="591" 
d="M54 218v279h154v-282q0 -51 21 -76q23 -25 65 -25q45 0 67 26t22 76v281h154v-273q0 -116 -60 -175q-60 -57 -180 -58q-65 0 -110 14t-75 41q-28 28 -43 72t-15 100zM228 574q10 40 34 157h128q-22 -39 -93 -157v0h-69zM78 647q0 14 4 24q6 11 14 20q10 9 22 14t23 5
q15 0 25 -5q12 -5 20 -14q10 -9 15 -20q5 -10 5 -24q0 -13 -4 -25t-15 -21q-9 -9 -20 -14q-11 -3 -26 -4q-11 1 -23 4q-10 5 -21 14q-9 9 -14 21t-5 25zM386 647q0 14 5 24q4 11 13 20q10 9 21 14t25 5t24 -4q12 -4 21 -14q9 -8 13 -20q6 -10 5 -25q1 -13 -5 -25
q-4 -12 -13 -21t-21 -14q-10 -3 -24 -4q-14 1 -25 4q-11 5 -21 14q-9 9 -13 21q-5 12 -5 25z" />
    <glyph glyph-name="alpha" unicode="&#x3b1;" horiz-adv-x="636" 
d="M404 146v213q-18 15 -39 22t-47 7q-28 0 -50 -9q-21 -9 -39 -29q-15 -18 -24 -44q-8 -26 -8 -58q1 -32 7 -59q8 -24 22 -44q16 -18 36 -27q21 -9 47 -9q27 0 49 9q24 10 46 28zM626 120v-97q-28 -15 -56 -24q-28 -8 -55 -8q-36 0 -60 15q-22 15 -34 45q-34 -30 -73 -45
q-38 -15 -81 -15q-50 0 -92 18q-42 19 -75 53q-32 38 -48 83q-16 46 -16 102q0 57 16 102q18 47 50 83q34 38 79 55q45 19 100 19q33 0 65 -8t58 -25v24h154v-345q0 -12 1 -22q3 -8 4 -14q3 -4 8 -8q6 -3 12 -3q8 1 18 4q11 5 25 11z" />
    <glyph glyph-name="beta" unicode="&#x3b2;" horiz-adv-x="608" 
d="M572 203q0 -48 -15 -87q-15 -38 -48 -68q-31 -28 -75 -43q-42 -14 -97 -14q-34 1 -67 7q-30 8 -57 22v-257h-154v704q0 121 62 181t182 60q57 0 100 -13q43 -12 73 -39q32 -26 46 -59q15 -33 15 -75q0 -20 -6 -40t-18 -40q-11 -18 -29 -33q-16 -15 -40 -24q66 -19 97 -65
q31 -45 31 -117zM213 467v-258q0 -25 6 -43q8 -18 20 -31q13 -11 31 -19q18 -6 41 -6q24 0 42 7t32 21q15 16 21 35q8 19 7 43q1 26 -8 46q-7 20 -23 33q-14 15 -38 21q-22 8 -52 8v106h5q21 0 37 5q16 7 26 16q12 10 17 25q6 15 6 35q0 17 -6 31q-5 15 -17 24
q-10 12 -25 17q-14 6 -32 6q-22 1 -40 -7q-17 -6 -29 -22q-10 -14 -16 -38q-4 -22 -5 -55z" />
    <glyph glyph-name="gamma" unicode="&#x3b3;" horiz-adv-x="585" 
d="M16 373q-6 26 -23 102q25 17 51 25q27 8 54 8q40 0 70 -14q30 -12 51 -42q23 -28 44 -84q23 -54 45 -138q20 63 47 129q28 68 64 138h166q-31 -54 -63 -117q-30 -62 -60 -132q-28 -69 -52 -132q-22 -63 -40 -120q10 -28 13 -55q4 -27 4 -50q0 -28 -6 -52q-5 -23 -17 -41
q-12 -16 -28 -25q-15 -9 -36 -9q-18 0 -32 8t-25 23q-11 17 -17 38q-6 22 -6 49q0 28 5 56q7 30 16 58q-21 78 -41 138q-18 60 -35 103q-15 44 -31 72q-14 29 -28 44q-12 16 -26 24q-12 9 -29 8q-7 0 -16 -3t-19 -9z" />
    <glyph glyph-name="delta" unicode="&#x3b4;" horiz-adv-x="628" 
d="M523 667q-9 -25 -40 -105q-43 20 -85 28q-40 9 -80 9q-36 0 -54 -6t-18 -20q0 -6 6 -15q8 -8 19 -15q13 -7 45 -21q32 -12 81 -32q99 -34 146 -96q49 -62 49 -150q0 -56 -19 -101q-18 -45 -57 -82q-38 -35 -88 -53q-50 -16 -116 -17q-63 0 -114 18q-50 19 -87 53
q-36 38 -56 80q-19 44 -19 94q0 40 11 74q13 34 35 63q24 31 55 49q33 20 74 27q-55 24 -83 56q-28 31 -28 69q0 32 14 56t41 42t68 27q43 9 95 9q54 0 105 -11q51 -9 100 -30zM313 110q27 0 47 9q22 9 38 27q18 20 26 43q8 25 8 55t-7 54t-25 40q-16 18 -38 26q-22 9 -50 9
q-24 0 -45 -9t-38 -27q-15 -18 -24 -42q-8 -22 -8 -52q0 -28 8 -54q9 -23 23 -43q16 -18 38 -27q21 -9 47 -9z" />
    <glyph glyph-name="epsilon" unicode="&#x3b5;" horiz-adv-x="497" 
d="M461 132v-110q-42 -15 -90 -24q-48 -6 -102 -7q-55 1 -99 10q-42 9 -72 29q-28 20 -43 47t-15 60q0 48 27 78q29 31 81 43v4q-20 6 -38 16t-30 24q-12 16 -19 31q-6 17 -6 35q0 33 14 57q13 25 40 43q27 20 66 29t90 9q53 0 98 -8t84 -24v-105q-35 15 -71 22t-68 7
q-46 0 -71 -11q-24 -11 -24 -35q0 -14 6 -24t18 -16t30 -9q19 -3 43 -3h54v-100h-61q-51 0 -76 -12q-26 -12 -26 -35q0 -15 6 -26q7 -9 19 -16q14 -7 34 -10q21 -3 48 -3q36 0 74 9q39 9 79 25z" />
    <glyph glyph-name="zeta" unicode="&#x3b6;" horiz-adv-x="522" 
d="M152 -225q8 29 34 119q15 -3 31 -5q17 -2 37 -2q20 1 35 4q15 4 25 12q12 9 17 19q6 12 6 24q1 14 -5 23q-4 9 -16 16q-9 7 -27 10q-17 4 -41 4q-48 3 -87 15q-38 15 -66 39q-27 27 -41 66t-14 91q0 75 41 161q41 87 122 182q-45 13 -83 34q-36 21 -64 52q28 28 80 85
q44 -34 85 -55q44 -19 84 -22q45 29 85 43q42 14 76 13q20 0 35 -3t24 -12q12 -8 16 -18q5 -9 5 -24q0 -22 -15 -43q-15 -19 -45 -37q-28 -16 -67 -25t-86 -9q-32 -36 -56 -74q-23 -38 -41 -80q-16 -40 -26 -77q-9 -36 -9 -69q1 -26 4 -44q6 -18 15 -30q12 -10 30 -18
q21 -6 49 -8q45 -2 79 -14q36 -12 60 -33q27 -21 39 -53t12 -75q1 -41 -14 -75t-46 -62q-29 -27 -73 -42q-42 -15 -100 -15q-30 0 -58 3q-26 3 -46 9z" />
    <glyph glyph-name="eta" unicode="&#x3b7;" horiz-adv-x="610" 
d="M78 0v338q0 22 -7 33t-22 11q-5 0 -14 -2q-7 -2 -17 -8v107q27 15 53 20q26 7 50 7q41 0 67 -21t33 -62q37 41 76 62q42 21 88 21q41 0 73 -13t53 -40q24 -27 34 -63q11 -36 11 -85v-539h-154v517q0 51 -18 77t-57 25q-27 0 -52 -16q-23 -17 -44 -51v-318h-153z" />
    <glyph glyph-name="theta" unicode="&#x3b8;" horiz-adv-x="606" 
d="M302 -8q-60 0 -109 23q-48 24 -84 69q-37 48 -55 112q-18 66 -18 150q0 86 18 151q18 68 54 114q36 49 85 73q50 24 110 24q61 0 109 -23q48 -21 85 -69q37 -45 55 -111q18 -65 18 -152q0 -86 -17 -152q-18 -66 -54 -114q-35 -47 -85 -71q-48 -24 -112 -24zM413 298h-219
q2 -48 10 -83q8 -34 20 -58q14 -22 34 -34q20 -11 45 -11q27 0 47 11q21 12 33 34q15 24 21 58q8 35 9 83zM194 406h219q-1 48 -10 82q-6 34 -21 56q-12 22 -33 33q-20 11 -47 11q-24 0 -44 -11q-18 -9 -33 -32q-12 -21 -21 -57q-6 -34 -10 -82z" />
    <glyph glyph-name="iota" unicode="&#x3b9;" horiz-adv-x="291" 
d="M59 119v378h154v-352q0 -20 8 -30q8 -9 23 -10q10 1 21 4q13 4 25 10v-97q-30 -15 -63 -24q-31 -6 -67 -7q-26 1 -46 7q-18 9 -31 24q-12 15 -18 39q-6 25 -6 58z" />
    <glyph glyph-name="kappa" unicode="&#x3ba;" horiz-adv-x="618" 
d="M59 0v497h154v-236q33 39 129 152q22 27 42 44q21 19 39 28q20 12 41 16q21 5 45 5q21 0 41 -3q22 -3 44 -11v-122q-12 6 -26 9t-27 3q-22 0 -43 -11q-20 -10 -40 -34q-22 -26 -67 -77q57 -64 227 -260h-189q-54 63 -216 251v-251h-154z" />
    <glyph glyph-name="lambda" unicode="&#x3bb;" horiz-adv-x="561" 
d="M0 0q51 116 199 459q-8 21 -14 33q-4 14 -10 21q-3 9 -9 16q-4 9 -12 20q-6 12 -14 18q-6 9 -15 12q-7 4 -16 7q-9 2 -20 4q21 40 58 121q31 -3 53 -13q24 -9 42 -24t35 -39q17 -23 31 -56q54 -121 159 -361q15 -30 24 -50q11 -20 20 -32q9 -10 22 -18q13 -6 28 -12
q-18 -38 -57 -115q-28 2 -52 12q-24 12 -43 30q-19 21 -37 50q-18 31 -37 71q-19 46 -61 138q-30 -72 -121 -292h-153z" />
    <glyph glyph-name="mugreek" unicode="&#x3bc;" horiz-adv-x="615" 
d="M59 -237v732h153v-317q15 -32 35 -49q21 -15 49 -16q22 1 38 5q16 6 28 17q14 12 19 30q6 19 6 41v289h153v-350q0 -21 7 -32q9 -11 22 -11q9 0 16 3q9 3 17 8v-100q-18 -9 -42 -16q-22 -6 -51 -6q-37 1 -64 16q-25 17 -37 49q-18 -32 -43 -49q-25 -15 -58 -16
q-27 1 -52 16q-23 17 -43 47v-291h-153z" />
    <glyph glyph-name="nu" unicode="&#x3bd;" horiz-adv-x="566" 
d="M216 -3l-216 500h164q33 -79 127 -316q21 27 38 53q17 28 29 55q14 27 20 52q6 24 6 44q0 32 -13 54q-13 23 -40 38q53 11 155 29q14 -6 23 -18q11 -10 17 -26q9 -15 12 -31q4 -15 4 -35q0 -36 -16 -81q-14 -45 -47 -99q-29 -54 -73 -108q-42 -54 -97 -111h-93z" />
    <glyph glyph-name="xi" unicode="&#x3be;" horiz-adv-x="511" 
d="M154 -223q9 30 35 118q21 -3 38 -6q17 -2 32 -2q20 1 32 4q15 4 24 12q12 8 16 18q5 11 5 23q0 24 -22 37q-21 15 -66 16q-105 9 -157 55q-53 48 -53 136q0 36 9 67q9 33 28 59q20 28 47 49q28 22 64 36q-30 15 -46 37t-16 52q0 27 11 48q11 22 32 42q-39 12 -70 30
q-30 18 -52 41q27 29 79 85q15 -14 33 -25t38 -21q21 -9 39 -15t35 -9q40 22 79 33q40 11 78 11q18 0 33 -4q15 -3 27 -12q14 -6 20 -19q6 -11 6 -29q0 -16 -10 -32q-9 -14 -30 -28q-20 -12 -47 -21q-27 -7 -60 -10q-15 -2 -33 -2q-18 1 -41 1q-13 -8 -21 -22q-8 -12 -8 -28
q0 -14 6 -24q6 -9 19 -15t34 -9t52 -3h69v-113h-61q-91 0 -137 -31q-46 -30 -46 -93q0 -18 6 -34q6 -15 17 -25q12 -9 32 -17q20 -6 47 -8q46 -2 81 -16q35 -12 59 -35q26 -21 37 -52q12 -31 12 -70q1 -40 -14 -76q-14 -35 -44 -62q-28 -27 -73 -42q-42 -14 -101 -14
q-30 1 -57 4q-26 4 -46 10z" />
    <glyph glyph-name="omicron" unicode="&#x3bf;" horiz-adv-x="628" 
d="M312 387q-26 0 -47 -9q-21 -8 -37 -28q-14 -18 -23 -44q-8 -24 -8 -57q0 -31 8 -57q9 -24 23 -45q16 -18 38 -28q21 -9 48 -9q28 0 50 9q21 10 36 28q18 21 24 45q8 26 8 57q0 33 -8 58t-25 43q-15 20 -37 28q-22 9 -50 9zM314 506q66 0 116 -17q51 -18 87 -54
q39 -34 56 -82q19 -47 19 -104q0 -59 -19 -105t-58 -83q-38 -35 -89 -53q-50 -16 -113 -17q-65 0 -116 18t-87 54q-36 38 -56 83q-18 48 -18 102q0 58 18 104q20 48 56 82q38 36 89 54t115 18z" />
    <glyph glyph-name="pi" unicode="&#x3c0;" horiz-adv-x="706" 
d="M114 0v372q-24 0 -49 -7q-25 -6 -52 -18v121q22 14 55 20q34 8 78 7h546v-123h-98v-372h-153v372h-175v-372h-152z" />
    <glyph glyph-name="rho" unicode="&#x3c1;" horiz-adv-x="640" 
d="M54 -233v469q0 63 17 111q19 50 53 86q36 37 87 55q52 20 121 19q60 0 108 -18q50 -17 87 -53q39 -34 58 -81q19 -45 19 -103q0 -57 -18 -105q-18 -46 -56 -84q-36 -35 -83 -53q-45 -18 -101 -18q-40 0 -74 13q-34 14 -64 38v-276h-154zM325 111q29 0 50 8q21 9 37 26
q16 19 24 45q8 27 7 60q1 33 -7 57q-8 25 -24 43q-16 20 -38 28q-22 9 -50 9q-26 0 -47 -9t-37 -30q-15 -18 -24 -44q-8 -26 -8 -57q0 -30 7 -56q9 -24 23 -44q16 -18 37 -27t50 -9z" />
    <glyph glyph-name="sigma1" unicode="&#x3c2;" horiz-adv-x="524" 
d="M152 -226q8 30 34 120q16 -3 33 -5q18 -2 34 -2q21 1 36 5t25 13q12 9 16 21q6 12 6 25q0 21 -17 33t-53 15q-114 15 -173 71q-57 58 -57 159q0 24 4 46q4 24 10 46q9 23 19 44q12 23 27 44q16 23 39 39q22 18 52 31q32 15 66 21q37 8 76 7q43 0 85 -9t84 -27
q-12 -41 -38 -122q-30 17 -63 23q-32 8 -66 8q-31 0 -55 -10q-24 -9 -43 -30q-18 -20 -27 -48q-9 -27 -9 -63q0 -21 6 -38q6 -15 20 -29q15 -12 38 -22q25 -8 58 -14q41 -4 71 -17q32 -11 53 -32q24 -19 34 -51q11 -30 11 -73q0 -41 -15 -74t-50 -61q-33 -26 -76 -41
q-43 -14 -97 -14q-26 0 -51 3q-23 4 -47 8z" />
    <glyph glyph-name="sigma" unicode="&#x3c3;" horiz-adv-x="672" 
d="M317 497h341v-119h-121q27 -28 41 -66q14 -36 14 -80q0 -50 -19 -93q-17 -42 -56 -78q-36 -35 -87 -53q-50 -16 -116 -17q-64 1 -115 17q-51 18 -88 53q-36 37 -56 82q-19 46 -19 102q0 57 19 101q19 46 57 80q38 36 89 53q53 18 116 18zM313 378q-27 0 -48 -8
q-21 -9 -37 -27q-14 -18 -23 -42q-8 -24 -8 -56q1 -30 7 -56q8 -23 23 -43q17 -18 38 -27q22 -9 49 -9t48 8q22 10 37 26q17 20 25 44q8 26 8 58q0 30 -7 54q-6 24 -24 42q-15 18 -37 27q-21 9 -51 9z" />
    <glyph glyph-name="tau" unicode="&#x3c4;" horiz-adv-x="508" 
d="M177 0v374q-31 0 -57 -1q-24 -1 -42 -4q-16 -3 -33 -9q-15 -4 -32 -14v123q27 15 61 21q36 8 79 7h342v-123h-164v-374h-154z" />
    <glyph glyph-name="upsilon" unicode="&#x3c5;" horiz-adv-x="591" 
d="M54 218v279h154v-282q0 -51 21 -76q23 -25 65 -25q45 0 67 26t22 76v281h154v-273q0 -116 -60 -175q-60 -57 -180 -58q-65 0 -110 14t-75 41q-28 28 -43 72t-15 100z" />
    <glyph glyph-name="phi" unicode="&#x3c6;" horiz-adv-x="787" 
d="M316 -234v234q-64 2 -116 20q-51 18 -89 51q-36 33 -56 77q-19 46 -19 100t19 96q19 44 57 77q38 34 89 52q51 19 115 22v203h154v-203q66 -3 116 -21q51 -16 89 -51q39 -33 57 -78q20 -44 19 -98q1 -54 -19 -99q-18 -42 -56 -76q-38 -33 -89 -51t-117 -21v-234h-154z
M316 112v270q-26 -2 -47 -12t-39 -28q-16 -18 -25 -41q-8 -23 -8 -51t8 -53q9 -23 25 -43q18 -18 39 -29q21 -10 47 -13zM470 382v-270q28 3 49 12q21 10 38 28t25 42q9 24 9 54q1 30 -8 53q-8 24 -26 42q-17 19 -39 28q-21 11 -48 11z" />
    <glyph glyph-name="chi" unicode="&#x3c7;" horiz-adv-x="545" 
d="M-3 -233q50 96 198 384q-18 31 -70 121q-20 36 -35 58t-24 31q-9 11 -24 17q-14 6 -34 9l45 120q33 -3 60 -12t46 -25q21 -15 41 -42q20 -26 40 -64q15 -24 42 -75q27 52 105 208h153q-45 -86 -183 -341q27 -46 106 -187q12 -22 24 -40q12 -15 22 -26q12 -9 24 -16
q15 -6 29 -9q-18 -40 -56 -121q-16 0 -32 3q-14 2 -29 8q-13 6 -25 14t-23 20q-9 14 -19 24q-8 12 -16 22q-6 12 -15 27q-9 17 -19 35q-18 36 -58 104q-30 -62 -122 -247h-151z" />
    <glyph glyph-name="psi" unicode="&#x3c8;" horiz-adv-x="744" 
d="M296 -234v231q-63 6 -109 24q-45 21 -75 54q-28 34 -43 90t-15 132v200h154v-206q0 -81 22 -126q22 -43 66 -49v582h154v-582q24 4 39 16q17 12 27 31q12 20 16 48q6 31 6 70v216h152v-202q0 -65 -13 -116t-41 -91q-28 -38 -74 -61q-46 -22 -112 -30v-231h-154z" />
    <glyph glyph-name="omega" unicode="&#x3c9;" horiz-adv-x="860" 
d="M353 242v81h154v-81q0 -66 20 -99q21 -32 61 -32q18 0 32 9q14 10 23 28q11 20 15 44q6 26 5 55q0 57 -18 119q-17 62 -53 131h160q15 -24 27 -54q13 -27 22 -62q11 -33 14 -66q5 -30 5 -62q0 -60 -14 -108q-14 -47 -43 -83q-29 -34 -71 -53q-40 -17 -95 -17
q-60 0 -102 26q-41 27 -65 78q-28 -51 -70 -78q-42 -26 -99 -26q-54 0 -94 17q-40 18 -70 51q-27 36 -43 83q-14 48 -14 110q0 59 17 119q19 62 52 125h159q-34 -71 -53 -134q-17 -63 -17 -118q0 -29 4 -53q6 -24 14 -44q9 -18 23 -28q14 -9 30 -9q43 0 63 32q21 33 21 99z
" />
    <glyph glyph-name="iotadieresis" unicode="&#x3ca;" horiz-adv-x="291" 
d="M59 119v378h154v-352q0 -20 8 -30q8 -9 23 -10q10 1 21 4q13 4 25 10v-97q-30 -15 -63 -24q-31 -6 -67 -7q-26 1 -46 7q-18 9 -31 24q-12 15 -18 39q-6 25 -6 58zM96 646q0 -14 -5 -27q-3 -11 -15 -23q-10 -9 -22 -15q-6 -3 -13 -4q-1 1 -3 -1q-6 0 -11 -1q-14 1 -26 5
q-12 6 -24 16q-9 12 -16 24q-5 12 -5 26q0 15 5 27q6 13 15 22q12 12 24 16q14 5 27 5q15 0 27 -5q12 -4 22 -16q12 -9 15 -22q5 -12 5 -27zM173 646q1 14 5 26q6 12 16 22q10 12 23 16q13 6 27 6q15 0 27 -5q13 -4 22 -16q12 -9 15 -23q6 -12 5 -26q1 -14 -5 -27
q-3 -11 -15 -23q-9 -9 -22 -15q-12 -6 -27 -6q-14 0 -26 6t-23 15q-11 12 -17 23q-4 13 -5 27z" />
    <glyph glyph-name="upsilondieresis" unicode="&#x3cb;" horiz-adv-x="591" 
d="M54 218v279h135h19v-282q0 -51 21 -76q23 -25 65 -25q45 0 67 26t22 76v281h154v-273q0 -116 -60 -175q-60 -57 -180 -58q-65 0 -110 14t-75 41q-28 28 -43 72t-15 100zM259 655q1 -13 -5 -27q-4 -12 -15 -23q-9 -9 -23 -15q-6 -2 -15 -4v0q-4 0 -12 -1q-12 1 -26 5
q-11 4 -23 15q-10 12 -16 24q-4 14 -5 26q1 15 5 27q6 14 15 23q12 11 24 15q14 6 26 5q15 1 27 -5q14 -4 23 -15q11 -9 15 -23q6 -12 5 -27zM336 655q0 15 5 26q6 13 15 22q12 11 24 17q14 6 27 5q15 1 26 -5q14 -4 23 -15q10 -10 15 -24q5 -11 5 -26q0 -13 -5 -27
q-5 -12 -15 -23q-9 -9 -23 -15q-11 -4 -26 -5q-15 1 -27 5t-24 15q-9 12 -15 24q-5 14 -5 26z" />
    <glyph glyph-name="omicrontonos" unicode="&#x3cc;" horiz-adv-x="628" 
d="M312 387q-26 0 -47 -9q-21 -8 -37 -28q-14 -18 -23 -44q-8 -24 -8 -57q0 -31 8 -57q9 -24 23 -45q16 -18 38 -28q21 -9 48 -9q28 0 50 9q21 10 36 28q18 21 24 45q8 26 8 57q0 33 -8 58t-25 43q-15 20 -37 28q-22 9 -50 9zM314 506q66 0 116 -17q51 -18 87 -54
q39 -34 56 -82q19 -47 19 -104q0 -59 -19 -105t-58 -83q-38 -35 -89 -53q-50 -16 -113 -17q-65 0 -116 18t-87 54q-36 38 -56 83q-18 48 -18 102q0 58 18 104q20 48 56 82q38 36 89 54q46 16 103 18h12zM248 561q12 39 49 151h166q-30 -38 -120 -151h-30h-65z" />
    <glyph glyph-name="upsilontonos" unicode="&#x3cd;" horiz-adv-x="591" 
d="M54 218v279h154v-282q0 -51 21 -76q23 -25 65 -25q45 0 67 26t22 76v281h154v-273q0 -116 -60 -175q-60 -57 -180 -58q-65 0 -110 14t-75 41q-28 28 -43 72t-15 100zM231 561q14 39 50 151h165q-28 -38 -119 -151h-30h-66z" />
    <glyph glyph-name="omegatonos" unicode="&#x3ce;" horiz-adv-x="860" 
d="M353 242v81h154v-81q0 -66 20 -99q21 -32 61 -32q18 0 32 9q14 10 23 28q11 20 15 44q6 26 5 55q0 57 -18 119q-17 62 -53 131h160q15 -24 27 -54q13 -27 22 -62q11 -33 14 -66q5 -30 5 -62q0 -60 -14 -108q-14 -47 -43 -83q-29 -34 -71 -53q-40 -17 -95 -17
q-60 0 -102 26q-41 27 -65 78q-28 -51 -70 -78q-42 -26 -99 -26q-54 0 -94 17q-40 18 -70 51q-27 36 -43 83q-14 48 -14 110q0 59 17 119q19 62 52 125h159q-34 -71 -53 -134q-17 -63 -17 -118q0 -29 4 -53q6 -24 14 -44q9 -18 23 -28q14 -9 30 -9q43 0 63 32q21 33 21 99z
M366 561q12 39 49 151h166q-30 -38 -120 -151h-95z" />
    <glyph glyph-name="uni0400" unicode="&#x400;" horiz-adv-x="614" 
d="M75 698h57h421v-125h-302v-153h289v-125h-289v-170h310v-125h-486v698zM132 923h183q26 -42 98 -168h-95q-45 42 -186 168z" />
    <glyph glyph-name="afii10023" unicode="&#x401;" horiz-adv-x="614" 
d="M75 698h132h346v-125h-302v-153h289v-125h-289v-170h310v-125h-486v698zM158 790q-10 10 -16 23t-6 27t5 26q6 12 16 23q11 12 23 16q14 5 27 5q15 0 27 -5q12 -3 22 -15q12 -10 16 -23q4 -12 4 -27q0 -14 -4 -26t-16 -23q-9 -11 -21 -17h-1h-1q-11 -4 -26 -5
q-14 1 -26 5q-13 6 -23 16zM375 790q-10 10 -16 23t-6 27q1 14 5 26q6 12 16 23q12 12 23 16q13 5 27 5q15 0 27 -5q13 -3 22 -15q12 -10 16 -23q5 -12 5 -27q0 -14 -5 -26q-4 -12 -16 -23q-9 -11 -22 -17q-12 -4 -27 -5q-14 1 -26 5q-12 6 -23 16z" />
    <glyph glyph-name="afii10051" unicode="&#x402;" horiz-adv-x="872" 
d="M256 0v553h-238v145h652v-145h-238v-130q32 15 68 23t79 8q63 0 109 -14q48 -14 81 -44q35 -28 51 -70q18 -42 17 -98q1 -54 -17 -98q-16 -42 -49 -76q-31 -30 -81 -47q-48 -15 -116 -16q-20 0 -40 2l-40 6v129q15 -2 30 -5q16 -2 34 -2q24 0 41 6q20 8 32 20
q15 15 20 34q6 21 6 46q1 49 -29 73q-28 24 -89 24q-33 0 -61 -7q-26 -5 -46 -20v-297h-176z" />
    <glyph glyph-name="afii10052" unicode="&#x403;" horiz-adv-x="588" 
d="M84 0v698h248h239v-143h-311v-555h-176zM234 755q26 42 98 168h183q-46 -42 -186 -168h-95z" />
    <glyph glyph-name="afii10053" unicode="&#x404;" horiz-adv-x="750" 
d="M232 418h346v-135h-346q10 -36 31 -63t50 -48q33 -20 70 -30q39 -10 83 -10q51 0 108 18q58 18 124 52v-151q-62 -30 -127 -45t-134 -15q-45 1 -88 7q-42 8 -81 21q-38 17 -69 35q-30 20 -56 44q-22 27 -42 54q-17 28 -31 60q-12 33 -19 66q-7 34 -7 68q0 76 27 140
t81 116q54 54 128 79q74 27 165 27q63 0 123 -13q62 -11 119 -37v-154q-57 32 -115 47q-56 15 -111 15q-42 0 -80 -9q-35 -9 -67 -30q-30 -19 -51 -46q-19 -27 -31 -63z" />
    <glyph glyph-name="afii10054" unicode="&#x405;" horiz-adv-x="570" 
d="M286 708q60 0 112 -14q54 -14 99 -42v-149q-50 39 -98 58q-48 21 -96 20q-20 0 -35 -4q-16 -3 -26 -13q-10 -8 -16 -20q-6 -10 -6 -25q0 -12 6 -24q6 -10 16 -22q10 -9 32 -23q22 -12 52 -29q52 -25 90 -51t61 -49q25 -23 37 -56q12 -32 11 -71q1 -46 -17 -82
q-16 -36 -50 -65q-33 -27 -78 -42q-44 -14 -98 -14q-56 0 -113 14q-57 15 -115 44v158q54 -42 105 -63t100 -21q23 1 39 4q16 5 28 14q12 11 18 21q6 12 5 24q1 16 -5 28q-4 14 -17 24q-11 12 -38 26q-26 16 -66 35q-13 9 -27 14q-12 6 -21 12t-20 14q-10 8 -25 17
q-12 12 -24 21q-9 11 -18 20q-8 12 -14 24q-6 13 -13 28q-6 15 -9 32t-3 33q1 42 16 76q17 36 47 62q32 28 75 42t99 14z" />
    <glyph glyph-name="afii10055" unicode="&#x406;" horiz-adv-x="326" 
d="M75 698h176v-698h-176v698z" />
    <glyph glyph-name="afii10056" unicode="&#x407;" horiz-adv-x="326" 
d="M75 698h176v-698h-176v698zM6 790q-10 10 -16 23q-4 13 -5 27q1 14 5 26t15 23q12 12 24 16q12 5 26 5q15 0 27 -5q12 -3 22 -15q12 -10 16 -23q6 -12 5 -27q1 -14 -5 -26q-4 -12 -16 -23q-10 -11 -22 -17q-4 0 -11 -3v0q-7 -2 -16 -2q-14 1 -26 5q-11 6 -23 16zM223 790
q-10 10 -16 23q-5 13 -5 27t5 26t15 23q12 12 24 16q14 5 26 5q15 0 27 -5q14 -3 23 -15q10 -10 15 -23q5 -12 5 -27q0 -14 -5 -26t-15 -23q-9 -11 -23 -17q-12 -4 -27 -5q-12 1 -26 5q-12 6 -23 16z" />
    <glyph glyph-name="afii10057" unicode="&#x408;" horiz-adv-x="336" 
d="M85 698h176v-642q1 -33 -2 -61q0 -28 -6 -52q-4 -22 -12 -46q-8 -21 -20 -42q-10 -20 -28 -36q-16 -15 -40 -26q-23 -10 -51 -16q-28 -5 -62 -5q-14 0 -29 1q-15 3 -34 5q-9 50 -27 146q46 0 73 7q30 7 39 19q12 14 17 44q6 32 6 80v624z" />
    <glyph glyph-name="afii10058" unicode="&#x409;" horiz-adv-x="995" 
d="M526 0q-44 126 -179 500v0q-43 -124 -177 -500h-170q72 177 283 703h149q27 -63 103 -258h148q66 1 117 -14t90 -45q39 -28 57 -71q21 -41 20 -95q1 -46 -17 -85q-18 -37 -53 -70q-34 -33 -84 -49q-49 -16 -115 -16h-172zM662 131h19q25 0 45 6q20 7 33 19q15 12 21 29
q8 17 7 38q1 24 -7 39q-6 18 -21 29q-13 12 -34 18q-18 6 -44 6h-93q18 -45 74 -184z" />
    <glyph glyph-name="afii10059" unicode="&#x40a;" horiz-adv-x="1105" 
d="M75 698h176v-261h264v261h176v-261h102q66 1 117 -14q51 -14 89 -44q39 -28 58 -70q19 -41 19 -93q0 -44 -17 -82q-16 -38 -52 -71q-34 -31 -85 -47q-50 -16 -115 -16h-292v306h-264v-306h-176v698zM691 131h100q26 0 44 6q21 5 33 17q15 12 21 28q7 16 7 36q0 22 -7 37
q-7 16 -22 28q-12 12 -33 18q-18 5 -43 5h-100v-175z" />
    <glyph glyph-name="afii10060" unicode="&#x40b;" horiz-adv-x="885" 
d="M18 698h649v-145h-237v-119q33 12 69 16q38 6 80 5q71 1 122 -17q51 -16 81 -52q32 -34 47 -88q16 -52 16 -125v-173h-176v174q1 40 -7 67q-6 29 -20 44q-14 17 -39 25t-63 7q-32 0 -59 -4q-27 -3 -51 -12v-301h-176v553h-236v145z" />
    <glyph glyph-name="afii10061" unicode="&#x40c;" horiz-adv-x="721" 
d="M75 0v698h176v-271h10q28 0 48 6q21 5 34 17q15 12 30 37q17 24 35 63q3 4 6 12q18 38 36 63q20 27 39 44q22 17 52 25t68 8h27t36 -4q0 -44 -3 -132h-7q-24 0 -41 -4q-16 -4 -28 -13q-11 -9 -21 -25q-10 -15 -21 -39q-2 -3 -5 -12q-16 -40 -41 -70q-22 -27 -52 -44
q27 -9 49 -26q22 -15 41 -38q18 -21 39 -55t43 -80q27 -54 81 -160h-195q-18 39 -75 156q-20 44 -40 72q-18 30 -39 42q-17 15 -43 21q-24 7 -54 7h-9v-298h-176zM280 755q24 42 97 168h183q-45 -42 -186 -168h-94z" />
    <glyph glyph-name="uni040D" unicode="&#x40d;" horiz-adv-x="848" 
d="M75 -3v701h155h21v-430q105 108 415 430h107v-698h-176v419q-103 -105 -417 -422h-105zM230 923h184q24 -42 97 -168h-94q-46 42 -187 168z" />
    <glyph glyph-name="afii10062" unicode="&#x40e;" horiz-adv-x="761" 
d="M116 -170v134q18 -15 43 -24q27 -9 60 -9q39 1 62 19q26 20 36 56q-101 232 -307 692h185q51 -123 206 -492l172 492h180l-264 -664q-22 -60 -49 -104q-27 -45 -57 -72q-28 -27 -64 -42q-35 -14 -75 -14q-34 0 -67 7q-31 7 -61 21zM202 915h96q9 -32 30 -48
q22 -17 60 -17q18 0 32 4q15 4 24 13q12 10 19 22t10 26h96q-3 -39 -19 -70q-14 -31 -39 -53q-23 -21 -55 -33q-32 -11 -70 -11q-14 0 -29 1q-22 3 -42 10q-31 12 -57 33q-24 22 -38 53t-18 70z" />
    <glyph glyph-name="afii10145" unicode="&#x40f;" horiz-adv-x="835" 
d="M75 0v698h176v-553h333v553h176v-698h-258v-143h-169v143h-258z" />
    <glyph glyph-name="Acyrillic" unicode="&#x410;" horiz-adv-x="795" 
d="M304 699h183q77 -174 308 -699h-181q-16 40 -67 161h-300q-16 -39 -67 -161h-180q76 176 304 699zM396 527q-26 -63 -103 -254h208q-25 65 -105 254z" />
    <glyph glyph-name="afii10018" unicode="&#x411;" horiz-adv-x="710" 
d="M84 0v698h529v-125h-353v-134h135q66 1 117 -14q52 -13 88 -45q38 -30 56 -70q20 -40 19 -91q1 -47 -17 -86q-16 -39 -53 -71q-34 -30 -84 -46q-47 -16 -110 -16h-327zM260 125h114q28 0 50 6q24 6 39 20q17 13 25 31t8 39q0 24 -8 40q-8 18 -25 30t-39 18t-50 6h-114
v-190z" />
    <glyph glyph-name="afii10019" unicode="&#x412;" horiz-adv-x="699" 
d="M75 698h297q56 0 99 -11q43 -10 75 -34q33 -22 48 -54q15 -30 15 -70q0 -24 -6 -48q-6 -23 -20 -44q-13 -20 -33 -35q-18 -15 -41 -24q76 -22 114 -69q37 -45 37 -113q0 -54 -18 -92t-57 -60q-38 -21 -90 -33q-51 -11 -117 -11h-303v698zM251 590v-181h75q58 1 87 23
q28 24 28 69q0 24 -6 40q-4 18 -19 27q-12 12 -34 16q-21 6 -49 6h-82zM251 109h92q72 1 106 23q34 24 34 72q0 50 -34 73q-34 24 -106 24h-92v-192z" />
    <glyph glyph-name="afii10020" unicode="&#x413;" horiz-adv-x="588" 
d="M84 0v698h487v-143h-311v-555h-176z" />
    <glyph glyph-name="afii10021" unicode="&#x414;" horiz-adv-x="851" 
d="M13 -143v277h90q57 142 227 565h179q61 -141 239 -565h89v-277h-169v143h-485v-143h-170zM272 130h305q-39 102 -157 404q-36 -100 -148 -404z" />
    <glyph glyph-name="afii10022" unicode="&#x415;" horiz-adv-x="614" 
d="M75 698h478v-125h-302v-153h289v-125h-289v-170h310v-125h-486v698z" />
    <glyph glyph-name="afii10024" unicode="&#x416;" horiz-adv-x="1080" 
d="M14 0q22 42 85 166q24 45 44 78q21 34 39 55q20 22 40 37q21 15 45 23q-25 15 -49 43q-22 28 -43 71q-3 9 -11 26q-9 20 -18 32t-21 20q-11 9 -29 11q-18 4 -43 4q-1 45 -4 132q16 4 31 4h31q39 0 68 -7t49 -23q21 -15 39 -41q19 -25 34 -59q7 -12 16 -35q17 -33 31 -54
q16 -21 28 -33q15 -10 30 -17q16 -6 35 -6h12v271h176v-271h11q22 0 38 6q18 7 30 21q14 14 28 39q16 27 34 64q6 11 15 32q15 29 32 50q18 21 39 35q22 15 50 21q28 7 64 7h32q15 0 29 -4q0 -44 -3 -132q-20 0 -38 -2q-16 -3 -28 -9q-10 -5 -20 -15q-9 -8 -15 -22
q-5 -12 -19 -36q-14 -28 -26 -50q-12 -20 -23 -34q-9 -12 -21 -22q-12 -9 -25 -17q25 -8 45 -23q21 -14 39 -36q18 -20 38 -52q19 -30 40 -72q31 -58 91 -176h-196q-18 38 -71 150q-19 42 -39 70q-18 30 -39 45q-19 17 -41 25t-47 8h-4v-298h-176q0 74 -3 298v0
q-27 0 -48 -8t-42 -25q-18 -15 -37 -44q-18 -27 -38 -67q-24 -52 -75 -154h-196z" />
    <glyph glyph-name="afii10025" unicode="&#x417;" horiz-adv-x="634" 
d="M51 38v137q51 -27 102 -40q52 -14 106 -14q71 1 107 22q36 23 35 65q1 21 -8 36q-7 16 -25 25q-16 12 -46 16q-28 6 -69 6h-72v124h83q33 1 57 5q25 6 41 17q20 13 28 28q8 16 8 36q0 39 -34 57q-34 20 -104 20q-20 0 -47 -3q-25 -3 -55 -11q-28 -6 -55 -16
q-26 -9 -48 -21v137q57 22 118 33t125 11t114 -12q50 -10 85 -36q35 -22 53 -56q18 -33 17 -75q1 -56 -29 -95t-89 -61q66 -25 98 -70q33 -43 33 -106q0 -46 -19 -84q-19 -36 -58 -66q-39 -27 -95 -42q-54 -14 -128 -14q-60 0 -117 12q-57 13 -112 35z" />
    <glyph glyph-name="afii10026" unicode="&#x418;" horiz-adv-x="848" 
d="M75 -3v701h176v-430q105 108 415 430h107v-698h-176v419q-103 -105 -417 -422h-105z" />
    <glyph glyph-name="afii10027" unicode="&#x419;" horiz-adv-x="848" 
d="M75 -3v701h169h7v-430q105 108 415 430h107v-698h-176v419q-103 -105 -417 -422h-105zM244 915h96q9 -32 30 -48q22 -17 60 -17q18 0 32 4q15 4 24 13q12 10 19 22t10 26h96q-3 -39 -19 -70q-14 -31 -39 -53q-23 -21 -55 -33q-32 -11 -70 -11t-71 11h-1q0 1 -1 1
q-31 12 -55 32q-24 22 -38 53t-18 70z" />
    <glyph glyph-name="afii10028" unicode="&#x41a;" horiz-adv-x="721" 
d="M75 0v698h176v-271h10q28 0 48 6q21 5 34 17q15 12 30 37q17 24 35 63q3 4 6 12q18 38 36 63q20 27 39 44q22 17 52 25t68 8h27t36 -4q0 -44 -3 -132h-7q-24 0 -41 -4q-16 -4 -28 -13q-11 -9 -21 -25q-10 -15 -21 -39q-2 -3 -5 -12q-16 -40 -41 -70q-22 -27 -52 -44
q27 -9 49 -26q22 -15 41 -38q18 -21 39 -55t43 -80q27 -54 81 -160h-195q-18 39 -75 156q-20 44 -40 72q-18 30 -39 42q-17 15 -43 21q-24 7 -54 7h-9v-298h-176z" />
    <glyph glyph-name="afii10029" unicode="&#x41b;" horiz-adv-x="761" 
d="M0 0q76 177 303 703h150q77 -175 308 -703h-188q-51 126 -204 503h-1q-50 -125 -198 -503h-170z" />
    <glyph glyph-name="afii10030" unicode="&#x41c;" horiz-adv-x="908" 
d="M75 698h161q54 -66 219 -269q54 68 219 269h160v-698h-177v446q-49 -60 -196 -244h-17q-48 62 -197 244v-446h-172v698z" />
    <glyph glyph-name="afii10031" unicode="&#x41d;" horiz-adv-x="840" 
d="M75 698h176v-270h338v270h176v-698h-176v282h-338v-282h-176v698z" />
    <glyph glyph-name="afii10032" unicode="&#x41e;" horiz-adv-x="863" 
d="M432 708q88 0 158 -25t123 -77q53 -50 79 -115q26 -63 26 -142q0 -75 -25 -139q-26 -64 -78 -116q-51 -50 -124 -77q-70 -26 -162 -26q-61 1 -113 13t-98 37q-44 25 -77 58t-55 72q-20 40 -32 84q-10 45 -11 93q0 27 3 53q4 25 10 51q9 26 19 50q11 24 26 47q16 24 34 44
q20 21 41 38q24 17 50 31q28 14 61 24q34 12 70 16q36 6 75 6zM430 554q-48 0 -85 -14q-37 -12 -65 -42q-27 -28 -42 -66t-15 -84q0 -44 15 -81q15 -35 43 -65q30 -28 66 -43q37 -15 82 -15q48 0 84 14q37 15 67 42t43 65q15 39 15 85q0 44 -14 79q-14 36 -41 66t-66 44
q-37 15 -87 15z" />
    <glyph glyph-name="afii10033" unicode="&#x41f;" horiz-adv-x="836" 
d="M75 0v698h686v-698h-176v553h-334v-553h-176z" />
    <glyph glyph-name="afii10034" unicode="&#x420;" horiz-adv-x="655" 
d="M75 698h295q60 0 107 -13q48 -14 81 -42q36 -27 52 -67q18 -40 17 -91q0 -45 -16 -83q-15 -38 -48 -68q-31 -28 -77 -44t-108 -16h-127v-274h-176v698zM251 579v-185h88q54 0 81 23q26 23 26 68q0 25 -6 43t-20 28q-14 12 -36 17q-22 6 -52 6h-81z" />
    <glyph glyph-name="afii10035" unicode="&#x421;" horiz-adv-x="750" 
d="M434 708q66 0 130 -14q66 -12 130 -41v-161q-58 38 -116 56q-57 18 -114 18q-56 0 -100 -15t-76 -48q-32 -32 -48 -72q-16 -39 -16 -85q0 -44 16 -82t48 -69q33 -31 75 -47q43 -16 97 -16q62 0 121 19q60 19 117 58v-157q-56 -30 -123 -46q-66 -15 -144 -15
q-88 1 -160 25q-69 26 -123 76q-51 52 -78 115q-26 66 -26 142q0 83 28 146q28 66 82 114q56 50 125 74q71 25 155 25z" />
    <glyph glyph-name="afii10036" unicode="&#x422;" horiz-adv-x="713" 
d="M18 698h676v-145h-251v-553h-176v553h-249v145z" />
    <glyph glyph-name="afii10037" unicode="&#x423;" horiz-adv-x="761" 
d="M116 -170v134q18 -15 43 -24q27 -9 60 -9q39 1 62 19q26 20 36 56q-101 232 -307 692h185q51 -123 206 -492l172 492h180l-264 -664q-22 -60 -49 -104q-27 -45 -57 -72q-28 -27 -64 -42q-35 -14 -75 -14q-34 0 -67 7q-31 7 -61 21z" />
    <glyph glyph-name="afii10038" unicode="&#x424;" horiz-adv-x="932" 
d="M381 -9v83q-76 4 -138 22q-62 21 -108 57q-45 37 -68 87t-23 113t22 110q24 49 67 85q45 38 107 56q63 20 141 23v81h169v-81q80 -3 142 -22q62 -18 107 -56q45 -35 67 -85q22 -48 22 -110t-22 -113q-21 -49 -66 -87q-44 -36 -107 -57q-62 -20 -143 -23v-83h-169z
M381 202v297q-80 -3 -120 -40q-39 -37 -40 -109q1 -68 40 -106q40 -36 120 -42zM550 499v-297q40 0 70 10t50 30q21 20 31 47t10 60q0 75 -40 111q-39 38 -121 39z" />
    <glyph glyph-name="afii10039" unicode="&#x425;" horiz-adv-x="829" 
d="M20 698h224q57 -69 99 -123q42 -51 68 -87q27 38 67 90q42 52 97 120h220l-272 -336q77 -90 302 -362h-224q-48 58 -190 231q-21 -29 -68 -86q-46 -57 -118 -145h-221q74 92 296 362z" />
    <glyph glyph-name="afii10040" unicode="&#x426;" horiz-adv-x="879" 
d="M75 0v698h176v-553h324v553h177v-553h113v-288h-169v143h-621z" />
    <glyph glyph-name="afii10041" unicode="&#x427;" horiz-adv-x="717" 
d="M466 0v257q-33 -9 -72 -14q-38 -5 -80 -5q-72 0 -126 17q-52 19 -85 53q-31 36 -47 92q-16 57 -16 132v166h176v-180q0 -39 7 -66q9 -28 22 -44q15 -16 41 -25q27 -8 65 -8q33 1 62 4t53 11v308h176v-698h-176z" />
    <glyph glyph-name="afii10042" unicode="&#x428;" horiz-adv-x="1120" 
d="M75 0v698h176v-553h221v553h176v-553h221v553h177v-698h-971z" />
    <glyph glyph-name="afii10043" unicode="&#x429;" horiz-adv-x="1172" 
d="M75 0v698h176v-553h221v553h176v-553h221v553h177v-553h113v-288h-169v143h-915z" />
    <glyph glyph-name="afii10044" unicode="&#x42a;" horiz-adv-x="792" 
d="M196 0v566h-178v132h354v-253h107q69 0 121 -15t89 -48q37 -32 55 -72q20 -40 19 -91q1 -45 -17 -85q-16 -38 -52 -71q-33 -31 -84 -47q-50 -16 -114 -16h-300zM372 131h104q27 0 45 6q19 7 33 19q16 12 22 29q8 17 7 38q1 24 -7 39q-6 18 -22 29q-14 12 -34 18
q-18 6 -44 6h-104v-184z" />
    <glyph glyph-name="afii10045" unicode="&#x42b;" horiz-adv-x="984" 
d="M733 0v698h176v-698h-176zM75 0v698h176v-253h97q66 1 117 -14q52 -15 90 -45q39 -28 58 -71q19 -41 19 -95q0 -46 -17 -85q-17 -37 -53 -70q-33 -33 -84 -49q-50 -16 -114 -16h-289zM251 131h95q26 0 45 6q19 7 33 19q16 12 22 29q8 17 7 38q1 24 -7 39q-6 18 -22 29
q-14 12 -34 18q-18 6 -44 6h-95v-184z" />
    <glyph glyph-name="afii10046" unicode="&#x42c;" horiz-adv-x="675" 
d="M75 0v698h176v-253h111q68 1 118 -14q51 -15 89 -45q39 -28 58 -71q19 -41 19 -95q0 -46 -17 -85q-16 -37 -52 -70q-34 -33 -85 -49q-50 -16 -115 -16h-302zM251 131h109q27 0 45 6q19 7 33 19q15 12 21 29q7 17 7 38q0 24 -7 39q-7 18 -22 29q-13 12 -33 18q-18 6 -44 6
h-109v-184z" />
    <glyph glyph-name="afii10047" unicode="&#x42d;" horiz-adv-x="750" 
d="M172 418h345q-9 36 -29 62t-51 46q-29 21 -67 30q-36 10 -81 10q-54 0 -111 -15q-56 -15 -116 -47v154q60 26 120 37q62 13 122 13q94 0 166 -26q74 -26 127 -79q55 -51 82 -116t27 -141q0 -34 -7 -68q-5 -33 -19 -66q-12 -32 -31 -59q-17 -27 -43 -54q-24 -23 -54 -44
q-30 -19 -70 -35q-38 -14 -80 -22q-42 -6 -90 -7q-66 0 -133 15q-65 15 -128 45v151q69 -34 126 -52q59 -18 107 -18q45 0 83 10t68 30q33 21 52 48q21 27 30 63h-345v135z" />
    <glyph glyph-name="afii10048" unicode="&#x42e;" horiz-adv-x="1148" 
d="M727 708q87 0 155 -25q69 -25 119 -77q53 -50 77 -115q26 -63 26 -142q0 -77 -25 -140q-26 -63 -77 -116q-50 -51 -120 -76q-68 -26 -158 -26q-78 0 -141 21q-63 20 -111 62t-77 94q-29 54 -39 118h-105v-286h-176v698h176v-274h107q12 62 41 112q29 52 75 91
q48 40 111 60q63 21 142 21zM726 554q-46 0 -82 -14t-63 -44t-40 -66q-14 -36 -14 -82q0 -44 14 -81q15 -35 42 -65q27 -28 63 -43t79 -15q49 0 85 16q36 15 62 45q28 31 40 67q14 36 13 78q1 44 -14 79q-13 36 -40 66q-26 30 -62 44q-37 15 -83 15z" />
    <glyph glyph-name="afii10049" unicode="&#x42f;" horiz-adv-x="712" 
d="M340 698h297v-698h-176v262h-33q-24 0 -45 -5q-20 -5 -36 -15q-15 -10 -33 -34q-16 -22 -36 -58q-26 -50 -80 -150h-192q22 42 89 167q29 51 59 86q32 36 65 54q-66 23 -102 65q-33 45 -34 109q1 50 16 89q16 40 48 69q33 30 81 45q48 14 112 14zM461 383v196h-83
q-28 1 -50 -7q-21 -6 -36 -20q-14 -12 -21 -31q-8 -18 -8 -42q0 -23 8 -41q9 -18 24 -30q18 -12 39 -19q22 -6 49 -6h78z" />
    <glyph glyph-name="acyrillic" unicode="&#x430;" horiz-adv-x="539" 
d="M262 506q50 0 88 -10q39 -10 65 -31q27 -21 40 -50q13 -28 13 -66v-205q0 -20 6 -31t16 -11t21 5q12 4 26 13v-94q-38 -16 -72 -26q-33 -9 -64 -9q-31 1 -52 13q-19 14 -27 39q-30 -25 -67 -39q-36 -12 -80 -13q-33 0 -59 8q-24 9 -44 26q-18 18 -28 40q-10 24 -10 51
q0 36 15 62q15 27 44 45q31 20 85 41q56 22 136 48v12q0 21 -4 35q-4 15 -16 23q-10 10 -25 13q-15 4 -36 4q-50 0 -96 -22q-45 -21 -88 -67v128q44 34 96 51q54 17 117 17zM185 135q1 -11 4 -23q4 -9 12 -18q8 -6 17 -11q10 -3 22 -4q18 0 35 9q19 9 39 27v126
q-24 -9 -41 -18q-17 -8 -29 -14q-10 -4 -21 -13q-9 -6 -19 -17q-8 -9 -14 -20q-4 -12 -5 -24z" />
    <glyph glyph-name="afii10066" unicode="&#x431;" horiz-adv-x="628" 
d="M531 604q-35 -4 -62 -7t-48 -7q-20 -3 -41 -7q-22 -3 -44 -11q-21 -6 -39 -13q-15 -7 -29 -16q-12 -9 -22 -20q-10 -9 -22 -24q-9 -13 -17 -31q-7 -15 -13 -36q32 24 67 35q36 11 78 11q57 0 102 -16t80 -49q37 -33 53 -76q18 -43 18 -97q0 -56 -18 -101t-57 -80
q-37 -33 -88 -51q-51 -16 -116 -17q-69 1 -120 19q-51 21 -88 60q-33 40 -52 93q-17 53 -17 119q0 106 25 185q27 79 76 127q51 51 130 81q80 33 185 45q27 4 79 8v-124zM197 236q1 -27 7 -51q8 -23 21 -41q15 -16 37 -25t51 -9q28 0 49 8q22 9 37 24q17 18 25 40q8 24 8 54
t-8 52q-8 24 -25 39q-15 18 -37 24q-22 9 -50 8q-27 1 -48 -8q-21 -6 -37 -24q-15 -16 -23 -40q-6 -21 -7 -51z" />
    <glyph glyph-name="afii10067" unicode="&#x432;" horiz-adv-x="560" 
d="M59 497h239q100 1 150 -32q50 -32 50 -95q0 -33 -17 -60q-15 -26 -49 -44q46 -14 69 -44q22 -28 22 -76q1 -34 -13 -62q-12 -26 -39 -46q-25 -18 -63 -28q-36 -10 -84 -10h-265v497zM213 294h63q34 0 51 13q17 15 17 40q0 29 -16 41q-14 14 -47 13h-68v-107zM213 96h77
q20 0 34 3q15 5 23 11q9 8 13 18q6 12 5 26q1 12 -5 22q-4 10 -14 18q-8 8 -22 11q-12 4 -31 4h-80v-113z" />
    <glyph glyph-name="afii10068" unicode="&#x433;" horiz-adv-x="449" 
d="M59 0v495h376v-124h-222v-371h-154z" />
    <glyph glyph-name="afii10069" unicode="&#x434;" horiz-adv-x="660" 
d="M13 -143v262h67q45 96 177 382h151q44 -96 173 -382h66v-262h-146v143h-341v-143h-147zM227 119h194q-23 55 -95 219q-24 -54 -99 -219z" />
    <glyph glyph-name="afii10070" unicode="&#x435;" horiz-adv-x="574" 
d="M304 506q52 0 94 -17q42 -15 76 -51q34 -34 51 -82t17 -111v-29h-348q4 -26 16 -47t32 -38q21 -15 45 -24q25 -9 52 -9q46 0 94 13t96 40v-106q-45 -27 -101 -41q-54 -12 -119 -13q-60 1 -111 17q-50 18 -87 53q-36 38 -56 84q-19 49 -19 106t18 103t54 81q36 37 86 53
q50 18 110 18zM190 294h206q0 26 -6 46t-20 35q-12 15 -32 22q-18 7 -41 7q-22 0 -42 -7q-18 -8 -34 -23q-13 -15 -22 -36q-7 -20 -9 -44z" />
    </font>
</defs>
</svg>
