<?xml version="1.0" standalone="no"?>
<!DOCTYPE svg PUBLIC "-//W3C//DTD SVG 1.1//EN" "http://www.w3.org/Graphics/SVG/1.1/DTD/svg11.dtd" >
<svg xmlns="http://www.w3.org/2000/svg" xmlns:xlink="http://www.w3.org/1999/xlink" version="1.1">
<metadata>
Created by FontForge 20170731 at Fri Jan  1 02:30:17 1904
 By Aleksey,,,
Copyright 2016 (c) The Monotype Corporation. All rights reserved.
</metadata>
<defs>
<font id="GillSansNova-SemiBold" horiz-adv-x="725" >
  <font-face 
    font-family="Gill Sans Nova for JL"
    font-weight="400"
    font-stretch="normal"
    units-per-em="1024"
    panose-1="0 0 0 0 0 0 0 0 0 0"
    ascent="819"
    descent="-205"
    x-height="477"
    cap-height="698"
    bbox="-453 -268 1180 978"
    underline-thickness="67"
    underline-position="-101"
    unicode-range="U+0020-FEFF"
  />
<missing-glyph horiz-adv-x="0" 
 />
    <glyph glyph-name=".notdef" horiz-adv-x="0" 
 />
    <glyph glyph-name="glyph1" horiz-adv-x="0" 
 />
    <glyph glyph-name="nonmarkingreturn" horiz-adv-x="341" 
 />
    <glyph glyph-name="space" unicode=" " horiz-adv-x="291" 
 />
    <glyph glyph-name="exclam" unicode="!" horiz-adv-x="288" 
d="M217 561q1 -71 -11 -147q-10 -76 -33 -158q-5 -22 -13 -34q-6 -10 -15 -11q-6 1 -15 11q-6 12 -14 33q-6 29 -15 67q-6 38 -15 84q-8 46 -12 84q-3 38 -3 68q1 38 5 65q6 29 15 47q12 20 24 28q14 10 29 10q38 0 55 -37q18 -35 18 -110zM144 -9q-14 1 -28 5q-14 6 -26 16
q-10 12 -17 26q-6 14 -6 30q1 16 5 30q6 15 17 25q13 11 25 17q14 6 29 5q17 1 31 -5q14 -4 24 -17q12 -11 17 -25t5 -30q0 -15 -5 -29q-6 -14 -16 -26q-10 -9 -24 -16q-13 -6 -31 -6z" />
    <glyph glyph-name="quotedbl" unicode="&#x22;" horiz-adv-x="411" 
d="M40 698h134v-121q-6 -36 -27 -142h-80q-6 37 -27 142v121zM236 698h135v-121q-6 -36 -27 -142h-82q-6 37 -26 142v121z" />
    <glyph glyph-name="numbersign" unicode="#" horiz-adv-x="683" 
d="M236 709h88l-40 -196h185q11 49 41 196h87q-9 -49 -41 -196h86v-85h-103q-9 -39 -33 -161h136v-86h-155q-9 -47 -41 -193h-87q10 48 40 193h-185q-9 -47 -41 -193h-88q11 48 41 193h-85v86h102q9 41 34 161h-136v85h154q11 49 41 196zM265 428q-7 -39 -34 -161h187
q9 41 33 161h-186z" />
    <glyph glyph-name="dollar" unicode="$" horiz-adv-x="543" 
d="M318 -9v-112h-85v112q-47 5 -97 23q-48 20 -100 49v132q50 -42 98 -68q51 -26 99 -35v204q-99 28 -149 76q-50 50 -50 118q0 34 13 64q15 30 40 57q27 29 64 44t82 20v50h85v-50q52 -8 93 -24q43 -15 73 -41v-126q-36 36 -77 58q-41 24 -89 33v-184q50 -13 86 -34
q36 -19 61 -46q26 -25 38 -57q12 -30 12 -67q0 -36 -12 -69q-12 -32 -39 -60q-26 -26 -62 -44q-36 -16 -84 -23zM318 265v-173q42 9 61 30q21 21 20 53q1 9 -1 18t-5 15q-3 9 -7 13q-4 7 -12 11q-6 8 -13 11q-6 4 -12 7q-4 4 -13 7q-8 5 -18 8zM233 417v160q-19 -2 -34 -8
t-27 -18q-10 -10 -18 -24q-6 -12 -6 -27q0 -26 22 -47q21 -21 63 -36z" />
    <glyph glyph-name="percent" unicode="%" horiz-adv-x="727" 
d="M355 549q1 -33 -11 -62q-12 -27 -36 -52q-22 -23 -51 -35t-62 -12h-8q-28 2 -54 12q-27 12 -52 34q-23 24 -35 53t-12 62q0 35 12 62q12 28 35 52q25 24 52 34q29 12 62 12t62 -12q29 -10 51 -34q24 -24 36 -52q12 -27 11 -62zM559 709h85q-118 -180 -472 -718h-85
q118 180 472 718zM141 493q11 -11 25 -17t29 -6q17 0 29 6q14 6 24 17q12 11 17 25q5 15 5 30q0 18 -5 30q-4 15 -16 25q-10 12 -25 18q-12 6 -29 6q-15 1 -29 -5t-25 -18q-9 -10 -16 -25q-5 -13 -5 -31q0 -15 5 -30q7 -14 16 -25zM692 152q0 -32 -11 -62q-12 -28 -36 -52
q-23 -22 -51 -35q-28 -12 -63 -12q-33 1 -61 11q-28 12 -52 36q-22 24 -35 53q-12 28 -12 61q0 34 12 61q13 29 35 51q24 24 52 36t61 11q35 1 63 -11t51 -35q24 -23 36 -51q11 -28 11 -62zM531 73q18 0 30 6q14 6 24 16q11 12 17 26t5 30q1 16 -5 30q-6 13 -17 25
q-10 12 -25 18q-12 6 -30 5q-14 1 -28 -5q-12 -4 -24 -17q-10 -11 -16 -26q-4 -14 -5 -30q1 -15 5 -29q4 -12 15 -26q11 -10 25 -17q14 -6 29 -6z" />
    <glyph glyph-name="ampersand" unicode="&#x26;" horiz-adv-x="706" 
d="M304 424q45 26 66 51q21 27 21 54q1 15 -5 27t-16 22t-25 14q-13 6 -31 5q-15 1 -29 -5q-12 -4 -24 -13q-9 -9 -15 -21q-4 -9 -5 -23q1 -24 16 -52q17 -27 47 -59zM35 157q1 30 10 57q9 28 28 50q20 24 50 49q31 25 73 52q-38 39 -59 79q-19 40 -19 78q0 32 12 62t37 55
q25 27 61 40t83 13q45 0 79 -12q36 -12 60 -37q26 -25 37 -52q13 -27 13 -57q0 -50 -33 -95q-32 -45 -98 -88q33 -36 97 -108q21 21 39 47q20 28 36 61h122q-21 -51 -53 -99q-32 -46 -72 -90l144 -162h-163q-17 20 -69 80q-57 -45 -113 -67q-53 -21 -107 -22q-40 0 -76 12
q-33 12 -63 36q-27 24 -42 54q-14 30 -14 64zM159 168q0 -14 6 -26t18 -24q14 -10 29 -17q16 -6 35 -6q27 1 60 16q33 16 72 48q-39 43 -116 130q-27 -18 -47 -33t-33 -30q-12 -14 -18 -28q-6 -15 -6 -30z" />
    <glyph glyph-name="quoteright" unicode="'" horiz-adv-x="252" 
d="M114 708q21 0 36 -9q16 -7 28 -25q12 -16 19 -37q6 -21 6 -45q0 -30 -10 -59q-9 -27 -30 -53q-19 -24 -49 -41t-68 -26v23q28 20 40 49q14 29 13 68q-30 9 -46 27q-15 21 -15 49q0 18 5 30q7 15 16 25q12 12 26 18t29 6z" />
    <glyph glyph-name="quoteright" unicode="&#x2019;" horiz-adv-x="252" 
d="M114 708q21 0 36 -9q16 -7 28 -25q12 -16 19 -37q6 -21 6 -45q0 -30 -10 -59q-9 -27 -30 -53q-19 -24 -49 -41t-68 -26v23q28 20 40 49q14 29 13 68q-30 9 -46 27q-15 21 -15 49q0 18 5 30q7 15 16 25q12 12 26 18t29 6z" />
    <glyph glyph-name="parenleft" unicode="(" horiz-adv-x="351" 
d="M273 708h81q-42 -54 -74 -109q-30 -54 -51 -111q-20 -54 -30 -119q-9 -63 -10 -136q0 -135 42 -254q42 -117 123 -217h-81q-108 108 -162 226q-55 118 -55 245q0 69 14 130q14 63 41 117q27 56 68 113q42 57 94 115z" />
    <glyph glyph-name="parenright" unicode=")" horiz-adv-x="351" 
d="M78 -238h-81q44 57 74 111q31 55 51 111q21 56 30 118q10 64 10 135q0 137 -41 254q-40 118 -124 217h81q58 -60 98 -116q42 -54 67 -108q27 -50 39 -113q14 -63 13 -135q1 -66 -13 -129q-14 -61 -41 -118t-69 -113q-40 -57 -94 -114z" />
    <glyph glyph-name="asterisk" unicode="*" horiz-adv-x="479" 
d="M286 694q0 -8 -2 -20q0 -10 -4 -25q-9 -38 -30 -113q9 0 13 -4q7 -3 10 -9q29 31 86 89q15 16 27 22q12 8 21 7q7 0 13 -4q9 -3 15 -14q9 -9 13 -19t4 -20q0 -8 -3 -14q-2 -6 -8 -11q-3 -5 -13 -9q-9 -4 -24 -8q-40 -12 -122 -38q2 -2 1 -5q1 -3 1 -7t-1 -8q1 -3 -1 -6
q36 -10 109 -31q31 -8 46 -20q15 -13 15 -29q0 -8 -4 -17q-3 -9 -12 -20q-6 -9 -15 -14q-6 -5 -14 -5q-9 0 -24 8q-13 10 -29 25q-26 28 -82 85q-4 -4 -10 -8q-6 -3 -12 -3q9 -33 25 -98q5 -20 7 -35q3 -15 3 -27q0 -20 -12 -30q-10 -9 -34 -10q-22 1 -34 10q-11 11 -11 31
v8q2 6 2 9q2 7 2 11q2 6 3 12t3 11t1 8q9 33 25 100q-6 1 -11 4q-4 3 -10 7l-84 -84q-15 -16 -29 -25q-12 -8 -23 -8q-7 1 -15 5q-6 4 -15 13q-8 11 -12 20q-3 9 -3 17q0 16 14 27q15 13 42 19q39 12 115 34q0 3 -2 6v6v9q2 3 2 5q-40 12 -121 38q-24 8 -37 18
q-12 10 -12 23q1 10 4 19q4 10 12 20q9 10 16 15q9 5 14 5q8 0 20 -8q13 -8 29 -24q28 -28 85 -87q6 5 10 8q5 3 11 5q-9 38 -27 113q-3 19 -6 29q-2 10 -2 13q1 21 11 31q12 10 35 10q24 0 34 -9q11 -9 11 -29z" />
    <glyph glyph-name="plus" unicode="+" horiz-adv-x="578" 
d="M46 299v108h190v192h106v-192h189v-108h-189v-193h-106v193h-190z" />
    <glyph glyph-name="comma" unicode="," horiz-adv-x="252" 
d="M114 156q21 0 36 -8q16 -8 28 -26q12 -16 19 -38q6 -20 6 -43q0 -32 -10 -60q-9 -27 -31 -54q-20 -23 -50 -41q-28 -16 -66 -24v22q28 21 40 49q14 30 13 68q-30 9 -46 28q-15 21 -15 49q0 16 6 29q6 15 16 25q12 12 25 18q14 6 29 6z" />
    <glyph glyph-name="hyphen" unicode="-" horiz-adv-x="386" 
d="M55 297h275v-120h-275v120z" />
    <glyph glyph-name="period" unicode="." horiz-adv-x="245" 
d="M122 -12q-15 0 -29 5q-12 6 -24 16q-11 13 -17 25q-6 14 -6 29q0 17 6 31t17 24q12 12 24 16q14 6 29 5q15 1 29 -5q14 -4 24 -16q13 -10 17 -25q6 -13 6 -28t-5 -29q-5 -12 -17 -25q-10 -11 -24 -17t-30 -6z" />
    <glyph glyph-name="slash" unicode="/" horiz-adv-x="303" 
d="M205 708h89q-48 -180 -195 -717h-89q50 180 195 717z" />
    <glyph glyph-name="zero" unicode="0" horiz-adv-x="543" 
d="M163 349q1 -60 7 -106q8 -45 20 -78q14 -32 34 -48q20 -15 46 -16q26 1 46 16t34 46q16 32 23 77q7 46 7 107q0 62 -7 107q-7 46 -22 78q-13 34 -34 50t-47 16q-22 0 -43 -16q-19 -14 -34 -47q-15 -32 -23 -78q-6 -45 -7 -108zM274 708q54 0 95 -25q42 -24 75 -74
q34 -48 51 -114q16 -63 16 -145q1 -82 -17 -149q-16 -66 -52 -114q-32 -48 -76 -72q-42 -24 -95 -24q-52 0 -96 24q-43 25 -77 73q-33 50 -49 114q-17 66 -17 147q0 85 17 151q19 68 53 113q36 49 80 71q44 24 92 24z" />
    <glyph glyph-name="one" unicode="1" horiz-adv-x="315" 
d="M198 708h73v-708h-129v515q-24 -18 -96 -78v132q38 35 152 139z" />
    <glyph glyph-name="two" unicode="2" horiz-adv-x="543" 
d="M241 708q46 0 85 -15q38 -15 68 -46q32 -29 46 -68q16 -39 16 -86q0 -12 -1 -26q-2 -13 -5 -29q-4 -14 -7 -28q-3 -12 -9 -25l-10 -25q-6 -12 -15 -29q-9 -15 -16 -28q-7 -12 -13 -21q-4 -10 -14 -22q-9 -12 -21 -29q-10 -15 -19 -25q-8 -9 -13 -17q-3 -5 -12 -15
q-8 -10 -20 -26q-13 -14 -19 -23q-6 -7 -8 -9h253v-116h-470v9q63 67 109 119q46 54 75 93q54 75 81 136q27 63 27 110q0 33 -9 55q-9 24 -27 38q-17 15 -37 23q-18 7 -41 7q-44 0 -84 -23q-39 -23 -77 -69v139q46 35 93 53q48 18 94 18z" />
    <glyph glyph-name="three" unicode="3" horiz-adv-x="543" 
d="M453 520q1 -51 -23 -90q-21 -38 -69 -62q27 -10 45 -26q18 -15 31 -39q15 -21 20 -48q7 -25 7 -55q0 -48 -17 -86q-15 -38 -50 -67q-33 -27 -73 -42q-40 -14 -86 -14q-46 1 -88 11t-81 32v124q39 -27 77 -42q40 -14 76 -14q26 0 45 7q19 8 34 20q15 15 23 32q8 20 7 42
q0 54 -36 80q-34 27 -108 27v100q69 0 103 24q34 26 34 74q0 22 -8 38q-6 18 -22 31q-14 14 -35 20q-19 7 -46 7q-29 0 -62 -9q-31 -9 -65 -30v109q36 18 74 25q39 9 78 9q50 0 88 -12q40 -12 68 -38q30 -24 44 -59q15 -33 15 -79z" />
    <glyph glyph-name="four" unicode="4" horiz-adv-x="543" 
d="M356 705h76v-404h79v-97h-79v-204h-126v204h-291v72q87 108 341 429zM306 301v210q-40 -52 -165 -210h165z" />
    <glyph glyph-name="five" unicode="5" horiz-adv-x="543" 
d="M103 698h339v-107h-228v-159q8 2 14 1h14q52 0 94 -15q42 -14 75 -46q33 -30 48 -70q16 -38 16 -86t-16 -89q-15 -39 -48 -73q-33 -30 -76 -47q-42 -15 -96 -16q-48 1 -96 13q-45 12 -91 37v119q44 -27 84 -42q42 -15 79 -15q30 0 52 9q25 9 41 24q20 18 27 37q9 21 9 43
q0 30 -11 52q-10 22 -36 36q-23 15 -50 23q-26 7 -54 7q-29 0 -53 -3q-22 -3 -37 -10v377z" />
    <glyph glyph-name="six" unicode="6" horiz-adv-x="543" 
d="M167 227q0 -28 9 -52q10 -23 26 -39q18 -14 37 -23t40 -9q25 0 43 8t32 22q15 16 21 35q7 21 7 44q0 25 -8 45q-6 20 -23 33q-15 15 -35 21q-20 8 -45 7q-19 1 -37 -5q-16 -6 -34 -17q-16 -10 -25 -28q-8 -18 -8 -42zM321 708q23 -18 95 -70q-76 -51 -127 -111
q-51 -57 -77 -124q22 12 44 16q24 5 47 5q43 0 79 -14q36 -12 65 -42q31 -28 46 -67q15 -38 15 -86q0 -47 -16 -86q-15 -39 -48 -73q-32 -32 -73 -49q-40 -15 -91 -16q-54 0 -99 18q-43 17 -76 53q-32 38 -48 84q-15 48 -16 105q1 131 70 245q70 114 210 212z" />
    <glyph glyph-name="seven" unicode="7" horiz-adv-x="543" 
d="M49 698h474v-9q-77 -173 -309 -698q-28 11 -112 43q62 138 242 550h-295v114z" />
    <glyph glyph-name="eight" unicode="8" horiz-adv-x="543" 
d="M175 505q0 -21 8 -40q7 -18 22 -33q15 -14 32 -21q17 -8 37 -8q21 0 37 8q16 7 31 21q15 15 23 33q7 18 7 39t-7 39q-5 18 -20 32q-14 17 -32 23q-16 8 -40 7q-21 0 -39 -6q-16 -7 -31 -22q-13 -15 -21 -33q-6 -18 -7 -39zM159 200q0 -22 8 -43q9 -19 23 -34
q18 -15 37 -23q21 -8 46 -8t45 8t35 23q17 15 23 35q8 21 8 43q0 23 -8 41q-8 20 -24 34q-15 16 -36 24q-20 8 -46 7q-24 1 -44 -7q-18 -8 -36 -24q-14 -14 -23 -34q-8 -18 -8 -42zM274 708q52 0 91 -15q40 -15 70 -44q31 -28 46 -64q15 -33 15 -74q0 -46 -22 -85
q-21 -39 -66 -69q52 -27 76 -69q26 -40 26 -98q0 -39 -16 -75q-14 -35 -47 -65q-29 -28 -74 -44q-44 -15 -101 -15q-56 0 -100 15q-42 15 -76 45q-30 32 -47 66q-15 34 -16 73q0 28 6 50q7 24 19 46q14 24 34 41q20 18 44 30q-40 33 -63 71q-21 38 -21 82q0 42 16 75
q16 36 46 64q32 29 71 44q41 15 89 15z" />
    <glyph glyph-name="nine" unicode="9" horiz-adv-x="543" 
d="M162 484q0 -22 7 -40q8 -18 20 -34q15 -15 33 -23q20 -8 40 -8q26 1 46 5q21 6 37 16q17 12 25 30q9 18 9 42q1 27 -7 48t-24 39q-15 19 -36 27q-20 9 -47 9q-23 1 -41 -8q-18 -7 -34 -23q-12 -14 -21 -35q-7 -19 -7 -45zM263 708q54 0 96 -18q44 -16 77 -53
q36 -35 52 -83q18 -46 17 -107q1 -60 -19 -123q-18 -62 -57 -125q-38 -63 -89 -115q-51 -51 -115 -93q-32 22 -96 67q78 54 128 114q51 60 73 125q-27 -11 -57 -17q-29 -3 -62 1q-37 3 -70 19q-30 16 -56 45q-25 30 -37 64q-12 35 -12 74q0 49 16 88q18 40 49 72
q33 33 74 48q42 17 88 17z" />
    <glyph glyph-name="colon" unicode=":" horiz-adv-x="252" 
d="M125 139q16 1 30 -5q14 -4 24 -16q13 -10 17 -25q6 -13 6 -28t-6 -29q-4 -12 -17 -25q-10 -11 -24 -17t-30 -6q-15 0 -28 6q-12 6 -24 16q-11 12 -17 25t-6 28q0 17 6 31t16 24q12 12 24 16q14 6 29 5zM125 485q16 1 30 -5q14 -4 24 -16q13 -10 17 -24q6 -14 6 -29
t-6 -29q-4 -12 -17 -25q-10 -11 -24 -17t-30 -6q-15 0 -28 6q-12 6 -24 16q-11 12 -17 25q-6 14 -6 29q0 16 6 30t16 24q12 12 24 16q14 6 29 5z" />
    <glyph glyph-name="semicolon" unicode=";" horiz-adv-x="258" 
d="M122 156h1q20 0 35 -8q16 -8 28 -26q14 -16 19 -38q6 -20 6 -43q0 -32 -10 -60q-9 -27 -31 -54q-20 -23 -50 -41q-28 -16 -66 -24v22q28 21 40 49q14 30 14 68q-30 9 -47 28q-15 21 -15 49q0 18 6 31q6 14 17 24q12 13 24 17q14 6 29 6zM53 410q0 16 6 30q7 14 17 24
q12 12 24 16q14 6 29 5q15 1 29 -5q15 -4 24 -16q12 -10 17 -24q6 -14 6 -29t-6 -29q-5 -12 -17 -25q-9 -11 -24 -17q-14 -6 -29 -6q-3 0 -11 1v0q-9 1 -18 4q-12 7 -24 16q-10 12 -17 26q-6 14 -6 29z" />
    <glyph glyph-name="less" unicode="&#x3c;" horiz-adv-x="578" 
d="M46 305v79q122 56 485 219v-117q-82 -34 -334 -142q22 -10 64 -28q41 -18 104 -44q63 -24 104 -43q42 -18 62 -28v-117q-121 56 -485 221z" />
    <glyph glyph-name="equal" unicode="=" horiz-adv-x="578" 
d="M46 171v108h485v-108h-485zM46 426v108h485v-108h-485z" />
    <glyph glyph-name="greater" unicode="&#x3e;" horiz-adv-x="578" 
d="M46 84v117q84 36 334 144q-20 11 -62 29t-108 44q-64 27 -106 43q-40 19 -58 25v117q122 -54 485 -219v-79q-121 -55 -485 -221z" />
    <glyph glyph-name="question" unicode="?" horiz-adv-x="358" 
d="M52 581q10 30 40 118q16 5 33 7q18 2 36 2q33 0 60 -10q28 -8 49 -28q24 -18 33 -46q11 -27 11 -65q0 -39 -21 -85q-21 -44 -65 -94q-34 -42 -53 -82q-18 -38 -18 -74q1 -6 1 -13q2 -6 4 -10q-36 7 -54 28t-18 55q0 28 12 62q12 33 34 72q24 38 34 68q12 30 11 51
q0 15 -4 25q-3 12 -13 20q-8 10 -22 13q-12 4 -28 4q-14 1 -30 -5q-14 -4 -32 -13zM228 68q0 -15 -5 -29t-17 -26q-10 -9 -25 -16q-13 -6 -29 -6q-15 1 -29 5q-13 6 -25 16q-10 12 -16 26t-6 29q0 17 6 29q6 15 16 25q12 11 25 17q14 6 29 5h2v0q14 1 26 -5q14 -6 25 -17
q12 -10 18 -24q5 -14 5 -29z" />
    <glyph glyph-name="at" unicode="@" horiz-adv-x="950" 
d="M754 14q10 -14 42 -62q-64 -52 -154 -79t-204 -27q-90 0 -162 28t-129 83q-55 56 -83 132q-28 77 -28 173q0 62 14 118q15 56 42 106q30 52 70 92q42 40 96 71q56 31 118 46q63 16 133 16q91 1 163 -23q74 -22 130 -70q58 -45 85 -107q28 -61 28 -139q0 -69 -18 -126
q-17 -56 -56 -99q-38 -41 -89 -62q-50 -21 -114 -22q-44 1 -70 22q-24 21 -30 62q-39 -41 -79 -62t-82 -22q-31 1 -57 13q-24 12 -44 36q-18 24 -27 56q-9 33 -9 72q0 62 19 112q20 51 56 90q39 40 93 60q56 20 127 20q40 0 79 -5q40 -5 76 -17q-16 -93 -51 -281
q-1 -14 -3 -24q0 -9 -1 -16q1 -15 7 -23q8 -8 23 -8q36 0 64 16q29 16 50 48q24 33 33 72q12 42 11 90q1 60 -20 106q-19 48 -63 82q-40 36 -99 53q-57 18 -132 18q-89 1 -159 -25q-69 -24 -121 -78q-49 -50 -76 -118q-26 -66 -26 -150q0 -78 21 -140q20 -63 62 -109
q42 -45 101 -68q58 -23 132 -23q97 0 175 23q78 24 136 69zM539 230q9 51 35 198q-10 4 -26 6q-14 2 -32 1q-38 0 -69 -12q-30 -13 -54 -40q-22 -26 -34 -60q-12 -33 -12 -73q1 -50 19 -76q20 -26 56 -26q28 0 57 21q30 21 60 61z" />
    <glyph glyph-name="A" unicode="A" horiz-adv-x="734" 
d="M302 701h122q78 -175 310 -701h-138q-20 46 -81 185h-299q-18 -45 -78 -185h-138q76 176 302 701zM362 539q-24 -63 -103 -253h212q-27 64 -109 253z" />
    <glyph glyph-name="B" unicode="B" horiz-adv-x="633" 
d="M76 698h246q54 0 95 -11q42 -11 70 -37q30 -24 45 -56t15 -72q1 -51 -26 -89q-24 -38 -78 -59q39 -8 68 -26q29 -15 50 -41q23 -23 32 -53q10 -28 10 -61q0 -51 -18 -88q-18 -35 -57 -59q-36 -22 -86 -34q-48 -12 -106 -12h-260v698zM210 601v-199h73q33 0 58 7
q25 6 40 20q17 15 25 33q8 20 8 43q0 25 -7 43q-6 18 -21 30q-14 12 -37 17q-22 6 -54 6h-85zM210 97h100q80 0 117 26q39 27 39 79t-40 78q-38 26 -119 26h-97v-209z" />
    <glyph glyph-name="C" unicode="C" horiz-adv-x="735" 
d="M428 708q62 0 125 -14t128 -42v-132q-59 36 -119 54q-58 18 -119 18q-58 0 -106 -18q-46 -16 -82 -54q-35 -36 -53 -79t-18 -94q0 -50 18 -92t52 -78q36 -35 82 -53q48 -18 105 -18q66 0 126 20q62 20 119 57v-131q-56 -30 -122 -46q-63 -15 -138 -15q-45 1 -87 7
q-40 8 -78 22q-36 16 -66 36q-30 21 -54 45q-23 27 -41 55q-18 30 -30 60q-12 32 -19 65q-6 33 -6 67q1 80 28 143q27 65 82 115q55 52 123 76q69 26 150 26z" />
    <glyph glyph-name="D" unicode="D" horiz-adv-x="785" 
d="M76 698h279q92 0 162 -23q70 -22 121 -72q51 -47 77 -110q25 -61 25 -139q0 -80 -25 -146q-25 -64 -76 -113q-51 -47 -121 -71q-69 -24 -159 -24h-283v698zM211 108h138q63 0 108 16q47 16 80 47q33 33 49 77q16 46 16 103t-16 101t-50 76q-33 34 -83 49q-50 16 -114 16
h-128v-485z" />
    <glyph glyph-name="E" unicode="E" horiz-adv-x="570" 
d="M76 698h434v-105h-299v-185h288v-106h-288v-196h308v-106h-443v698z" />
    <glyph glyph-name="F" unicode="F" horiz-adv-x="525" 
d="M76 698h412v-106h-277v-174h277v-107h-277v-311h-135v698z" />
    <glyph glyph-name="G" unicode="G" horiz-adv-x="774" 
d="M688 651v-123q-56 36 -118 52q-60 18 -124 17q-58 0 -106 -18q-48 -17 -84 -55q-34 -36 -54 -80q-18 -44 -18 -96q0 -51 18 -96q18 -44 53 -79q37 -35 83 -53q48 -18 103 -18q29 0 62 6t72 18v126h-120v104h247v-308q-66 -28 -133 -43q-67 -14 -139 -14q-90 1 -161 25
q-69 26 -122 77q-49 52 -76 115q-26 63 -26 137q0 77 26 141q27 64 79 116q52 54 123 79q71 27 158 27q63 0 126 -14q65 -14 131 -43z" />
    <glyph glyph-name="H" unicode="H" horiz-adv-x="790" 
d="M76 698h135v-287h368v287h135v-698h-135v294h-368v-294h-135v698z" />
    <glyph glyph-name="I" unicode="I" horiz-adv-x="287" 
d="M76 698h135v-698h-135v698z" />
    <glyph glyph-name="J" unicode="J" horiz-adv-x="292" 
d="M81 698h135v-669q0 -66 -11 -116q-10 -49 -34 -82q-21 -31 -62 -47q-39 -16 -98 -16q-12 0 -24 1q-10 1 -22 3q-8 39 -23 117q46 1 74 7t40 19q14 15 19 45q6 32 6 80v658z" />
    <glyph glyph-name="K" unicode="K" horiz-adv-x="712" 
d="M76 698h136v-320l280 320h157q-71 -81 -289 -329q90 -93 354 -369h-175q-81 87 -327 342v-342h-136v698z" />
    <glyph glyph-name="L" unicode="L" horiz-adv-x="545" 
d="M76 698h136v-582h315v-116h-451v698z" />
    <glyph glyph-name="M" unicode="M" horiz-adv-x="853" 
d="M76 698h125q57 -68 226 -278q57 70 225 278h124v-698h-135v499q-51 -64 -206 -258h-18q-51 64 -208 258v-499h-133v698z" />
    <glyph glyph-name="N" unicode="N" horiz-adv-x="833" 
d="M76 698h115q110 -123 434 -492v492h132v-698h-119q-108 123 -430 489v-489h-132v698z" />
    <glyph glyph-name="O" unicode="O" horiz-adv-x="852" 
d="M426 708q86 0 154 -26q70 -24 121 -77q53 -51 80 -114t26 -141q1 -74 -26 -138q-24 -62 -78 -116q-51 -52 -122 -79q-69 -26 -159 -26q-84 0 -153 26q-67 27 -121 78q-50 53 -77 116q-26 63 -26 137q0 34 6 67t18 64q13 33 29 61q18 28 40 54q24 26 53 47q31 21 67 36
q38 15 80 23t88 8zM423 113q54 1 98 16t78 46q35 33 53 75q18 44 17 100q0 48 -16 89q-15 42 -49 76q-32 35 -77 53q-43 18 -100 18q-54 0 -99 -17q-44 -15 -78 -50q-32 -33 -50 -76q-16 -43 -17 -95q1 -51 17 -93q18 -42 52 -76q36 -33 78 -50q42 -15 93 -16z" />
    <glyph glyph-name="P" unicode="P" horiz-adv-x="596" 
d="M76 698h251q57 0 100 -13q45 -13 76 -41q33 -26 48 -64q16 -38 16 -86t-15 -85t-48 -65q-32 -26 -78 -41q-44 -13 -104 -13h-111v-290h-135v698zM211 596v-203h90q36 0 60 6q27 8 39 20q16 15 22 32q8 20 7 44q1 27 -7 44q-6 19 -23 31q-15 14 -40 20t-61 6h-87z" />
    <glyph glyph-name="Q" unicode="Q" horiz-adv-x="866" 
d="M47 349q0 73 26 136q27 63 80 116q54 54 123 80q70 27 157 27q59 0 110 -13q52 -13 97 -40q46 -25 79 -58t55 -74q24 -39 34 -83q12 -44 11 -91q0 -58 -18 -112q-17 -53 -56 -103q-36 -48 -87 -80q-51 -33 -114 -49q58 -30 123 -45t137 -15q-34 -32 -105 -96
q-91 9 -181 46t-179 105q-66 15 -120 45q-53 33 -93 81q-38 50 -59 106q-20 57 -20 117zM254 524q-34 -33 -53 -77q-18 -44 -18 -98q1 -52 17 -96q18 -42 53 -78q35 -33 80 -51q46 -18 100 -18q55 0 100 17q45 18 79 51q36 36 53 78q18 45 18 97q1 55 -17 97q-16 44 -53 77
q-35 36 -80 52q-45 17 -100 17q-54 0 -99 -17q-44 -17 -80 -51z" />
    <glyph glyph-name="R" unicode="R" horiz-adv-x="659" 
d="M76 698h237q57 0 97 -13q42 -13 72 -43q32 -27 46 -65q15 -35 15 -80q1 -61 -29 -105q-28 -44 -87 -68q17 -10 31 -22q16 -12 26 -26q14 -12 29 -37q16 -24 36 -58q37 -59 107 -181h-152q-24 42 -96 166q-21 38 -42 64q-20 26 -37 38q-16 14 -37 20q-20 6 -42 6h-39v-294
h-135v698zM211 596v-203h69q30 0 52 6q24 7 40 17q18 12 25 31q9 21 9 49q0 24 -8 42q-6 18 -21 31q-14 15 -35 21t-49 6h-82z" />
    <glyph glyph-name="S" unicode="S" horiz-adv-x="526" 
d="M269 708q51 0 97 -13t87 -40v-130q-42 39 -87 57q-44 18 -91 18q-21 0 -38 -5q-18 -3 -30 -14q-11 -9 -19 -23q-6 -12 -6 -30q0 -14 6 -28t16 -27q12 -12 33 -28q23 -15 56 -34q53 -28 89 -55q38 -24 57 -50q23 -24 32 -54q10 -30 10 -70t-15 -75q-14 -33 -46 -62
q-30 -27 -71 -41q-39 -12 -89 -13q-54 0 -106 15q-51 16 -101 46v142q47 -46 95 -71q50 -24 101 -24q22 0 40 6q18 7 30 17q15 12 21 25q6 15 6 31q0 18 -6 33q-6 16 -19 30q-12 13 -42 33q-28 20 -73 42q-38 24 -68 45q-28 22 -49 46q-20 23 -30 53q-9 30 -10 64
q0 40 15 73q16 33 46 58q30 27 70 40t89 13z" />
    <glyph glyph-name="T" unicode="T" horiz-adv-x="662" 
d="M17 698h627v-114h-247v-584h-135v584h-245v114z" />
    <glyph glyph-name="U" unicode="U" horiz-adv-x="777" 
d="M68 698h135v-392q1 -50 11 -88q12 -36 35 -61q25 -25 59 -37q36 -12 82 -12t81 11q35 12 57 36q24 24 35 62q11 37 11 88v393h136v-395q0 -75 -21 -133q-19 -58 -61 -98q-40 -40 -100 -61q-60 -20 -138 -20t-138 20q-60 21 -101 60q-42 40 -63 97q-20 58 -20 133v397z
" />
    <glyph glyph-name="V" unicode="V" horiz-adv-x="663" 
d="M0 698h138q50 -114 195 -462q48 116 192 462h138q-75 -176 -301 -704h-59q-75 176 -303 704z" />
    <glyph glyph-name="W" unicode="W" horiz-adv-x="1109" 
d="M0 698h137q45 -111 177 -450q46 112 185 450h112q47 -111 185 -450q45 112 177 450h136l-288 -704h-53q-52 130 -213 519q-54 -129 -216 -519h-53q-72 176 -286 704z" />
    <glyph glyph-name="X" unicode="X" horiz-adv-x="773" 
d="M22 698h168q81 -96 129 -157q49 -59 67 -83q30 39 78 99q50 60 116 141h165q-68 -84 -275 -336q75 -90 300 -362h-168q-106 130 -161 195q-52 67 -55 67q-52 -64 -107 -131q-52 -65 -108 -131h-168q75 92 299 362z" />
    <glyph glyph-name="Y" unicode="Y" horiz-adv-x="663" 
d="M0 698h152q44 -57 178 -234q45 58 180 234h153q-65 -86 -263 -345v-353h-136v352q-66 88 -264 346z" />
    <glyph glyph-name="Z" unicode="Z" horiz-adv-x="688" 
d="M43 698h625q-104 -146 -418 -584h418v-114h-655q105 147 419 585h-389v113z" />
    <glyph glyph-name="bracketleft" unicode="[" horiz-adv-x="379" 
d="M86 698h275v-94h-153v-739h153v-93h-275v926z" />
    <glyph glyph-name="backslash" unicode="\" horiz-adv-x="303" 
d="M10 708h89q49 -180 195 -717h-89q-48 180 -195 717z" />
    <glyph glyph-name="bracketright" unicode="]" horiz-adv-x="379" 
d="M18 698h275v-926h-275v93h153v739h-153v94z" />
    <glyph glyph-name="asciicircum" unicode="^" horiz-adv-x="578" 
d="M43 348q52 88 208 350h74q53 -86 209 -350h-115q-33 57 -131 227q-33 -56 -129 -227h-116z" />
    <glyph glyph-name="underscore" unicode="_" horiz-adv-x="512" 
d="M-6 -69h524v-79h-524v79z" />
    <glyph glyph-name="quoteleft" unicode="`" horiz-adv-x="252" 
d="M137 413q-19 0 -34 8q-15 9 -28 25q-13 18 -19 39t-6 44q0 33 11 60q10 27 30 52q21 26 50 42q30 17 66 25v-23q-27 -18 -41 -48q-12 -29 -13 -69q31 -6 46 -27q15 -19 15 -49q0 -15 -5 -30q-6 -12 -18 -26q-9 -10 -24 -17q-14 -6 -30 -6z" />
    <glyph glyph-name="quoteleft" unicode="&#x2018;" horiz-adv-x="252" 
d="M137 413q-19 0 -34 8q-15 9 -28 25q-13 18 -19 39t-6 44q0 33 11 60q10 27 30 52q21 26 50 42q30 17 66 25v-23q-27 -18 -41 -48q-12 -29 -13 -69q31 -6 46 -27q15 -19 15 -49q0 -15 -5 -30q-6 -12 -18 -26q-9 -10 -24 -17q-14 -6 -30 -6z" />
    <glyph glyph-name="a" unicode="a" horiz-adv-x="481" 
d="M224 486q45 0 78 -9q34 -9 58 -32q26 -20 37 -48q13 -27 13 -63v-219q0 -15 5 -24q5 -8 14 -8q9 1 20 5q12 6 27 16v-77q-30 -18 -59 -27q-27 -9 -55 -9t-46 12q-16 13 -24 37q-30 -24 -64 -37q-32 -12 -70 -12q-28 0 -50 8q-22 9 -40 26q-16 17 -26 38q-9 21 -9 46
q0 24 9 45q10 21 29 39t37 30q20 14 36 20q20 8 51 18q32 11 77 26q8 3 11 4q4 2 7 2v19q0 22 -5 36q-4 15 -16 24q-9 10 -25 14q-15 4 -36 4q-45 0 -87 -20q-41 -20 -77 -61v112q36 33 80 49q46 16 100 16zM152 127q0 -13 4 -23q3 -10 12 -20q10 -8 20 -13q12 -3 24 -4
q20 0 38 9q20 9 40 27v130q-36 -12 -64 -24q-27 -11 -43 -25q-15 -10 -23 -26q-8 -14 -8 -31z" />
    <glyph glyph-name="b" unicode="b" horiz-adv-x="562" 
d="M525 241q1 -60 -17 -106q-18 -47 -54 -80q-36 -31 -82 -49q-46 -16 -105 -16q-49 0 -100 10t-104 30v668h120v-254q28 22 60 32q33 10 70 10q49 0 88 -17t67 -53q30 -36 43 -79q15 -44 14 -96zM183 348v-248q19 -6 40 -9t45 -4q30 1 53 10t43 28q20 20 29 48t9 66
q0 35 -8 62t-25 47q-17 22 -39 31q-21 10 -48 10q-26 0 -50 -10q-24 -9 -49 -31z" />
    <glyph glyph-name="c" unicode="c" horiz-adv-x="471" 
d="M282 486q36 0 71 -7q37 -8 73 -24v-112q-32 20 -65 29q-32 9 -66 9q-31 0 -55 -10q-24 -9 -42 -31q-18 -20 -28 -45q-9 -25 -9 -55t8 -55q9 -25 28 -47q19 -20 46 -32q27 -10 63 -11q30 0 61 8q33 9 68 23v-107q-36 -12 -74 -21q-36 -6 -72 -7q-33 0 -64 6q-29 7 -56 17
q-25 14 -46 28q-18 16 -33 34q-14 21 -23 39q-9 21 -17 40q-6 21 -10 40q-3 21 -3 39q1 54 16 98q17 45 47 81q33 37 78 55q46 18 104 18z" />
    <glyph glyph-name="d" unicode="d" horiz-adv-x="563" 
d="M160 240q0 -70 39 -106t116 -36h65v267q-20 12 -43 18t-47 6q-28 0 -52 -10q-22 -9 -41 -30q-19 -20 -28 -47q-9 -26 -9 -62zM380 698h120v-698h-202q-68 0 -117 17q-49 18 -82 51q-30 34 -46 77q-15 44 -16 96q1 54 17 99t48 78q33 34 75 51t92 17q32 0 59 -6
q28 -6 52 -19v237z" />
    <glyph glyph-name="e" unicode="e" horiz-adv-x="529" 
d="M275 486q48 0 87 -15q40 -15 70 -50q32 -33 46 -79q16 -46 16 -104v-19h-335q3 -29 14 -53q12 -24 32 -42q21 -18 45 -28q26 -9 56 -9q45 0 90 14q45 13 87 40v-96q-42 -27 -92 -41q-49 -12 -105 -13q-54 1 -99 17q-43 18 -79 51q-36 35 -53 80q-18 46 -18 103
q1 54 16 98q16 45 48 78q33 34 77 51q45 17 97 17zM159 285h219q0 27 -8 46q-8 21 -22 36t-32 22t-44 7q-22 0 -42 -8q-20 -6 -36 -23q-16 -15 -25 -36q-9 -20 -10 -44z" />
    <glyph glyph-name="f" unicode="f" horiz-adv-x="302" 
d="M259 707q21 0 39 -3q20 -2 36 -7v-99q-14 6 -28 7q-14 3 -30 2q-18 0 -32 -6q-15 -4 -25 -18q-9 -13 -14 -34t-5 -51v-21h85v-95h-85v-382h-121v382h-71v95h71v18q0 51 12 89q12 39 36 66q25 30 58 43q33 15 74 14z" />
    <glyph glyph-name="g" unicode="g" horiz-adv-x="482" 
d="M475 477v-84h-92q26 -17 36 -43q12 -26 12 -57t-10 -57q-11 -26 -33 -47q-21 -20 -51 -32q-28 -13 -66 -19q-9 0 -17 -2q-8 0 -13 -3q-5 0 -11 -2q-4 -1 -13 -4q-6 -2 -12 -5q-5 -2 -8 -6q-3 -2 -5 -8q-2 -4 -2 -10q0 -16 29 -28q28 -12 85 -20q82 -10 123 -45t41 -93
q0 -36 -15 -64q-15 -27 -46 -48q-30 -18 -74 -29q-42 -9 -96 -10q-55 1 -99 10q-42 10 -71 28q-29 20 -44 44q-15 26 -15 56q0 49 30 79t88 42q-22 14 -35 28q-11 15 -11 33q0 28 19 46q20 19 56 28q-57 21 -86 59q-27 38 -28 91q0 40 14 72q15 32 43 54q30 23 71 35
q42 12 93 11h213zM146 302q0 -18 7 -33q7 -14 19 -26q14 -12 29 -18q17 -6 33 -6q21 0 37 6t28 18q13 12 19 27q8 16 7 35q1 18 -7 32q-6 15 -19 27q-12 12 -28 18q-15 6 -35 6t-35 -6t-29 -20q-12 -12 -19 -27t-7 -33zM116 -95q0 -31 31 -49q31 -16 93 -17q62 1 92 16
q30 16 30 49q0 18 -8 29t-28 20q-18 9 -44 13q-24 4 -58 4q-24 0 -44 -4q-18 -3 -35 -12q-13 -8 -22 -20q-7 -12 -7 -29z" />
    <glyph glyph-name="h" unicode="h" horiz-adv-x="559" 
d="M337 486q42 0 72 -12q31 -12 51 -38q22 -24 31 -60q10 -36 10 -80v-296h-120v286q0 52 -21 78t-63 25q-30 1 -58 -17q-29 -16 -56 -51v-321h-120v698h120v-285q33 37 71 55t83 18z" />
    <glyph glyph-name="i" unicode="i" horiz-adv-x="246" 
d="M184 610q0 -12 -4 -23q-4 -9 -13 -20q-9 -9 -20 -14q-8 -3 -17 -4h-7q-11 1 -23 4q-10 5 -20 14q-9 11 -13 20q-5 11 -5 23q0 14 5 23q4 10 13 19q10 10 20 14q12 6 23 5q14 0 23 -4q12 -3 20 -14q10 -9 14 -20q4 -9 4 -23zM63 477h60h60v-477h-120v477z" />
    <glyph glyph-name="j" unicode="j" horiz-adv-x="246" 
d="M63 477h59h61v-511q1 -44 -7 -78q-6 -32 -22 -56q-16 -22 -40 -40q-24 -16 -57 -30q-21 30 -65 90q20 8 32 17q14 10 22 22q10 15 13 34q4 21 4 49v503zM122 671q14 1 24 -5q10 -4 19 -14q9 -9 13 -19q4 -9 4 -23q0 -12 -3 -24q-3 -10 -13 -20q-9 -8 -19 -13
q-10 -3 -25 -4h-5q-9 1 -18 4q-11 5 -20 14q-9 11 -14 20q-5 11 -5 23q0 14 5 23q5 10 14 19q9 10 20 14q11 6 23 5z" />
    <glyph glyph-name="k" unicode="k" horiz-adv-x="548" 
d="M63 698h121v-698h-121v698zM386 477h143q-49 -57 -196 -229q59 -62 231 -248h-156q-54 62 -221 245q51 58 199 232z" />
    <glyph glyph-name="l" unicode="l" horiz-adv-x="246" 
d="M63 698h120v-698h-120v698z" />
    <glyph glyph-name="m" unicode="m" horiz-adv-x="866" 
d="M333 486q52 0 88 -22t57 -67q24 26 44 42q22 18 40 27q20 12 40 16q22 4 43 4q40 0 70 -12q30 -10 51 -37q22 -24 32 -60q10 -35 10 -80v-297h-119v280q1 26 -5 46q-4 21 -17 33q-11 15 -29 22q-16 7 -38 7q-27 0 -54 -16q-27 -15 -51 -48v-324h-119v275q0 57 -21 86
q-21 28 -64 28q-29 0 -56 -16q-27 -15 -53 -49v-324h-119v477h119v-64q38 37 75 55t76 18z" />
    <glyph glyph-name="n" unicode="n" horiz-adv-x="559" 
d="M336 486q42 0 71 -13q31 -12 52 -39q21 -26 31 -62q12 -36 11 -82v-290h-120v278q0 56 -22 83q-21 28 -66 28q-32 1 -59 -17q-27 -16 -51 -53v-319h-120v477h120v-63q33 38 72 54q39 18 81 18z" />
    <glyph glyph-name="o" unicode="o" horiz-adv-x="594" 
d="M294 387q-28 0 -53 -10q-22 -9 -42 -30q-19 -20 -29 -47q-9 -28 -9 -61t9 -62q10 -27 29 -47q20 -20 44 -30q25 -10 55 -10q32 0 55 11q25 10 43 30q20 21 28 48q9 27 9 60q0 36 -9 63q-9 28 -30 46q-20 21 -45 30q-23 9 -55 9zM298 486q58 0 106 -17t82 -51
q36 -34 54 -79t18 -100q0 -59 -19 -104t-58 -79q-38 -32 -84 -49q-47 -15 -101 -16q-60 0 -108 18t-83 54q-33 38 -51 80q-16 45 -17 94q0 55 18 99q17 44 53 80t82 53q48 17 108 17z" />
    <glyph glyph-name="p" unicode="p" horiz-adv-x="564" 
d="M527 237q0 -51 -15 -95q-15 -42 -48 -80q-32 -34 -74 -53q-42 -18 -96 -18q-28 1 -55 7t-56 19v-251h-120v711h195q63 1 111 -14q51 -13 86 -43q38 -28 54 -75q18 -45 18 -108zM183 379v-265q20 -12 42 -19t48 -7q31 0 52 11q24 10 42 30q18 21 27 47q9 27 9 57
q0 36 -9 63q-8 27 -28 45q-18 20 -46 29t-64 9h-73z" />
    <glyph glyph-name="q" unicode="q" horiz-adv-x="562" 
d="M500 477v-711h-120v249q-24 -12 -53 -18q-27 -6 -59 -6q-50 1 -92 17q-42 18 -75 51q-32 36 -48 78q-15 43 -16 93q1 58 17 103q18 45 50 78q36 33 83 50q50 16 110 16h203zM160 232q0 -32 8 -58q10 -26 28 -46t43 -30q26 -10 56 -10q23 0 44 6q23 6 41 17v268h-69
q-33 1 -62 -8q-27 -9 -48 -27q-19 -18 -31 -45q-10 -27 -10 -67z" />
    <glyph glyph-name="r" unicode="r" horiz-adv-x="379" 
d="M375 359q-19 3 -37 5t-34 2q-26 0 -47 -8t-40 -25q-18 -16 -27 -42q-9 -25 -9 -58v-233h-120v465h120v-79q30 45 66 66q39 22 86 22q9 0 19 -1t23 -4v-110z" />
    <glyph glyph-name="s" unicode="s" horiz-adv-x="427" 
d="M46 355q0 28 11 52q12 24 34 42q23 19 53 28t67 9q42 0 78 -10q39 -9 73 -30v-101q-39 25 -75 37q-33 12 -63 12q-14 0 -24 -2q-9 -2 -18 -7q-6 -5 -10 -11t-4 -14t4 -16t11 -15q9 -7 27 -19q20 -10 48 -26q32 -16 54 -32q24 -14 40 -34q18 -18 26 -39t8 -48t-11 -52
t-33 -46q-21 -21 -54 -32q-32 -9 -74 -10q-38 1 -80 10q-42 11 -88 31v108q42 -28 79 -43t70 -15q17 0 29 2q14 3 22 9q10 6 14 14q4 7 4 15q0 12 -4 19q-4 9 -13 17q-9 9 -31 21q-21 15 -55 32q-29 15 -51 31q-20 16 -35 32q-13 18 -21 38q-8 21 -8 43z" />
    <glyph glyph-name="t" unicode="t" horiz-adv-x="390" 
d="M205 374v-220q1 -34 16 -52q16 -16 48 -17q28 1 55 7q27 8 51 22v-92q-31 -15 -63 -24q-30 -6 -59 -7q-37 1 -69 10q-30 11 -53 31q-22 20 -34 50t-12 68v224h-75v91h75v134h120v-134h156v-91h-156z" />
    <glyph glyph-name="u" unicode="u" horiz-adv-x="559" 
d="M58 477h120v-277q0 -56 22 -85q22 -27 65 -28q33 0 60 18q29 18 51 52v320h120v-477h-120v63q-33 -36 -72 -54q-38 -18 -82 -18q-80 1 -122 52q-42 52 -42 156v278z" />
    <glyph glyph-name="v" unicode="v" horiz-adv-x="489" 
d="M0 477h130q30 -69 118 -278q30 69 119 278h122q-52 -120 -211 -483h-64q-52 122 -214 483z" />
    <glyph glyph-name="w" unicode="w" horiz-adv-x="776" 
d="M0 477h125l112 -272q27 69 111 272h82l112 -272q28 69 110 272h124q-50 -120 -203 -483h-55q-32 78 -129 308q-31 -76 -127 -308h-57q-51 122 -205 483z" />
    <glyph glyph-name="x" unicode="x" horiz-adv-x="550" 
d="M2 477h149q30 -38 122 -152q30 39 120 152h143q-48 -57 -191 -232q51 -61 203 -245h-151q-31 40 -129 159q-30 -39 -124 -159h-141q49 60 195 240q-48 60 -196 237z" />
    <glyph glyph-name="y" unicode="y" horiz-adv-x="496" 
d="M2 477h132q30 -63 120 -258q30 66 119 258h123q-84 -177 -333 -711h-124q39 80 151 322q-46 98 -188 389z" />
    <glyph glyph-name="z" unicode="z" horiz-adv-x="471" 
d="M26 477h428v-7q-60 -92 -242 -370h242v-100h-441v7q62 93 242 369h-229v101z" />
    <glyph glyph-name="braceleft" unicode="{" horiz-adv-x="358" 
d="M342 709v-96q-34 0 -55 -4t-29 -16q-8 -9 -12 -33q-4 -22 -4 -60v-82q0 -36 -5 -66q-4 -28 -16 -49q-9 -20 -30 -36q-19 -15 -49 -26q26 -9 46 -24q20 -14 30 -35q12 -20 18 -48q6 -27 6 -63v-94q0 -33 4 -54q6 -21 14 -33q9 -10 30 -16q22 -4 52 -5v-95q-60 0 -103 9
q-42 11 -64 29q-21 20 -33 56q-10 38 -11 92v93q1 39 -5 64q-4 27 -17 42q-11 16 -32 24q-19 9 -49 10v98q30 1 49 10q21 9 32 25q11 18 17 43q6 27 5 62v78q0 33 2 57q1 24 4 41q4 18 12 33t18 27q12 13 27 21q15 9 35 12q21 6 49 7q30 3 64 2z" />
    <glyph glyph-name="bar" unicode="|" horiz-adv-x="276" 
d="M92 701h93v-941h-93v941z" />
    <glyph glyph-name="braceright" unicode="}" horiz-adv-x="358" 
d="M16 613v96q36 1 64 -2q28 -1 48 -7q22 -3 37 -12q17 -8 26 -21q13 -12 19 -27q8 -15 10 -33q3 -17 5 -41q1 -24 1 -57v-78q0 -35 6 -62q6 -24 17 -42q12 -15 32 -26q21 -9 50 -10v-98q-28 0 -49 -9q-20 -8 -32 -24q-12 -15 -18 -42q-6 -26 -6 -65v-93q0 -54 -10 -92
q-9 -36 -33 -56q-21 -18 -63 -29q-42 -9 -104 -9v95q32 1 52 5q20 6 29 15q11 12 15 33q6 22 5 55v94q0 37 6 64q7 27 17 47q14 20 31 35q19 15 45 24q-28 11 -49 26q-18 15 -30 35q-9 22 -15 50q-4 30 -5 66v82q0 38 -4 60q-3 24 -13 33q-6 12 -29 16q-21 4 -55 4z" />
    <glyph glyph-name="asciitilde" unicode="~" horiz-adv-x="578" 
d="M45 270v116q36 34 69 51q36 17 69 17q21 0 49 -10q28 -8 65 -29q37 -19 64 -29t42 -10q30 0 62 20q33 20 67 58v-116q-34 -33 -69 -51q-33 -17 -66 -17q-21 0 -50 10q-30 10 -66 29q-36 21 -63 30q-24 9 -41 9q-30 0 -63 -19t-69 -59z" />
    <glyph glyph-name="nonbreakingspace" unicode="&#xa0;" horiz-adv-x="291" 
 />
    <glyph glyph-name="exclamdown" unicode="&#xa1;" horiz-adv-x="288" 
d="M70 -87q0 36 3 75t10 84q9 44 15 82q8 38 16 68q6 24 13 35q8 11 14 11q9 0 16 -11q9 -9 14 -33q9 -26 15 -63q8 -36 15 -86q8 -49 11 -88q4 -39 4 -71q0 -74 -18 -113q-18 -37 -56 -37q-36 0 -54 36q-18 38 -18 111zM142 486q16 0 30 -5q14 -4 25 -16q12 -10 18 -25
q5 -14 5 -30t-5 -30t-17 -26q-10 -10 -25 -16q-14 -6 -30 -6q-15 0 -29 6q-12 6 -25 16q-11 12 -17 26q-4 14 -5 29q1 17 5 29q6 14 16 25q12 12 25 18q14 5 29 5z" />
    <glyph glyph-name="cent" unicode="&#xa2;" horiz-adv-x="543" 
d="M306 486h23q15 0 30 -4q19 56 57 165h52l-60 -176q3 0 12 -4q12 -4 30 -12v-112q-20 13 -39 19q-17 9 -35 13q-32 -90 -94 -272q12 -3 23 -6q14 -2 26 -2q27 0 60 8q33 9 69 23v-107q-38 -12 -75 -21q-36 -6 -72 -7q-16 0 -34 2q-15 3 -31 6q-21 -63 -66 -193h-52
q18 52 71 207q-25 10 -46 25q-19 15 -37 35q-16 21 -28 41q-10 20 -17 40q-6 20 -10 40q-3 22 -3 40q0 54 16 98q16 45 48 81q33 37 78 55q46 18 104 18zM184 240q0 -38 14 -67q14 -28 40 -49q30 87 88 258h-9q-29 0 -53 -10t-43 -31q-18 -21 -27 -46q-10 -25 -10 -55z" />
    <glyph glyph-name="sterling" unicode="&#xa3;" horiz-adv-x="545" 
d="M482 546q-39 24 -79 37q-39 12 -81 12q-52 0 -79 -21q-26 -21 -26 -63q1 -21 4 -51q6 -30 12 -68h221v-102h-201q3 -20 4 -39t1 -37q0 -24 -6 -47q-4 -23 -18 -44q20 1 42 -2q24 -2 51 -8q29 -6 51 -9q24 -3 40 -3q30 0 55 6q25 7 46 17v-111q-21 -9 -47 -16
q-24 -6 -54 -6q-14 0 -39 3t-63 9q-36 7 -63 10q-26 3 -44 3q-38 0 -77 -6t-79 -19v88q42 21 62 55q21 34 21 80q0 12 -1 31q-2 19 -5 45h-75v102h54q-9 40 -14 73t-5 60q0 44 15 77q16 34 46 57q31 25 70 37t87 12q50 0 93 -11t81 -32v-119z" />
    <glyph glyph-name="currency" unicode="&#xa4;" horiz-adv-x="565" 
d="M27 163q18 17 69 68q-16 29 -26 57q-9 30 -9 60q0 32 9 62q10 30 26 56q-22 24 -69 69q17 18 68 70q19 -16 70 -70q24 17 54 26q31 9 64 8q33 1 62 -8t55 -26l70 70q18 -16 69 -70q-18 -18 -70 -69q18 -26 26 -56q9 -30 9 -62t-9 -61q-8 -29 -26 -56q24 -21 70 -68
q-18 -18 -69 -72q-16 19 -70 71q-27 -16 -57 -26q-28 -9 -60 -9q-33 0 -62 9q-29 10 -56 26l-70 -70q-17 18 -68 71zM282 225q26 0 47 9t40 27q18 20 27 41q10 22 10 46q0 27 -9 48q-9 24 -27 40q-18 20 -41 27q-21 9 -47 9q-24 0 -46 -9q-22 -7 -40 -27q-18 -18 -27 -40
q-9 -21 -9 -48q0 -26 9 -47t27 -40q18 -18 40 -27t46 -9z" />
    <glyph glyph-name="yen" unicode="&#xa5;" horiz-adv-x="543" 
d="M208 226v78h-179v78h160q-45 80 -186 316h139q33 -57 127 -233q33 59 130 233h141q-46 -78 -188 -316h162v-78h-178v-78h178v-79h-178v-147h-128v147h-179v79h179z" />
    <glyph glyph-name="brokenbar" unicode="&#xa6;" horiz-adv-x="276" 
d="M92 701h93v-391h-93v391zM92 152h93v-392h-93v392z" />
    <glyph glyph-name="section" unicode="&#xa7;" horiz-adv-x="489" 
d="M399 674v-107q-30 24 -64 34q-33 11 -69 11q-33 0 -51 -12q-17 -12 -17 -39q0 -13 5 -27q6 -12 15 -27q12 -14 29 -32q18 -17 44 -39q42 -30 74 -59q31 -27 52 -54t32 -58q10 -31 10 -67q1 -46 -23 -86q-22 -40 -69 -74q21 -28 32 -61q11 -32 11 -68q0 -33 -13 -60
q-12 -27 -39 -47q-24 -20 -58 -30q-32 -10 -74 -10t-79 11q-35 11 -65 32v108q38 -27 71 -42q35 -13 65 -13q36 0 54 12t18 36q0 16 -4 31t-15 28q-9 15 -29 35q-18 20 -48 44q-39 34 -71 64q-30 30 -51 58q-20 28 -31 60q-9 33 -10 69q1 39 22 76q23 39 65 75
q-18 22 -29 51q-9 30 -10 64q1 32 11 56q12 27 34 48q24 21 58 32t80 11q40 0 74 -9q34 -7 63 -25zM175 385q-16 -15 -25 -34q-9 -16 -9 -36q0 -21 8 -42q9 -19 23 -40q16 -18 51 -51q36 -33 88 -81q19 17 27 35q9 18 9 38q1 22 -7 42q-6 21 -24 41q-14 21 -50 52
q-36 33 -91 76z" />
    <glyph glyph-name="dieresis" unicode="&#xa8;" horiz-adv-x="341" 
d="M72 562q-12 0 -23 4q-9 4 -19 14t-14 20t-5 23q1 13 4 22q5 11 14 20t20 13q11 6 23 5q12 0 23 -4q11 -3 20 -13t14 -20q4 -10 4 -23t-4 -23q-3 -10 -13 -19t-20 -14t-24 -5zM270 683q14 0 23 -4q11 -3 19 -13q10 -10 14 -20t4 -23t-4 -23t-14 -19q-8 -9 -19 -14
q-9 -5 -23 -5q-12 0 -23 4q-9 4 -20 14q-9 10 -13 20t-5 23q1 13 4 22q4 11 13 20q10 9 21 13q11 6 23 5z" />
    <glyph glyph-name="copyright" unicode="&#xa9;" horiz-adv-x="815" 
d="M43 356q0 76 26 139q27 65 79 117q54 56 119 82q66 27 141 27q76 1 139 -26q64 -27 118 -81q53 -52 80 -117t27 -141q0 -72 -26 -137q-26 -63 -79 -119q-53 -52 -117 -81q-64 -27 -141 -27q-75 0 -139 26q-64 27 -118 79q-54 55 -82 119q-27 64 -27 140zM88 356
q0 -66 24 -122t70 -104q48 -46 104 -70q57 -22 123 -23q66 0 123 24t102 70q48 48 70 104q24 57 23 122q1 66 -23 123q-22 57 -70 103q-46 47 -103 71q-56 24 -122 23q-66 1 -123 -23q-56 -24 -104 -71q-46 -47 -70 -104t-24 -123zM561 251v-83q-37 -14 -70 -21t-62 -7
q-52 0 -94 15q-40 15 -72 44q-30 30 -45 68q-15 39 -15 85t14 83q15 39 44 69q30 32 72 47q41 15 95 15q32 0 65 -6t67 -18v-84q-27 15 -57 21q-27 7 -57 7q-32 0 -57 -9t-45 -27q-18 -18 -28 -43q-10 -23 -10 -53q0 -28 10 -53q10 -22 29 -42q21 -18 46 -28q25 -9 58 -9
q27 0 54 8q28 8 58 21z" />
    <glyph glyph-name="ordfeminine" unicode="&#xaa;" horiz-adv-x="325" 
d="M155 708q59 0 89 -27t31 -79v-122q0 -6 3 -12q3 -4 6 -4t12 4q9 6 23 13v-53q-21 -10 -40 -18q-19 -6 -34 -6t-28 7t-22 19q-19 -12 -43 -19q-22 -7 -48 -7q-16 0 -32 6q-15 6 -27 16q-11 12 -17 25q-6 15 -6 29q0 24 12 42q12 20 36 31q15 9 45 17q31 10 76 20
q0 15 -3 24q-3 10 -9 16t-15 9t-24 3q-28 0 -57 -14q-27 -14 -54 -42v81q30 21 60 30q33 11 66 11zM110 490q0 -6 2 -12q3 -4 7 -10q4 -4 10 -7q7 -2 13 -2q14 1 26 4q12 5 22 14v69q-4 -2 -23 -6q-28 -9 -43 -23q-14 -12 -14 -27z" />
    <glyph glyph-name="guillemotleft" unicode="&#xab;" horiz-adv-x="550" 
d="M178 473h115q-39 -59 -154 -236q39 -60 154 -237h-115q-38 60 -153 237q39 59 153 236zM412 473h114l-152 -236q38 -60 152 -237h-114q-38 60 -153 237q39 59 153 236z" />
    <glyph glyph-name="logicalnot" unicode="&#xac;" horiz-adv-x="578" 
d="M45 407v107h484v-321h-108v214h-376z" />
    <glyph glyph-name="sfthyphen" unicode="&#xad;" horiz-adv-x="386" 
d="M55 297h275v-120h-275v120z" />
    <glyph glyph-name="registered" unicode="&#xae;" horiz-adv-x="815" 
d="M43 356q0 76 26 139q27 65 79 117q54 56 119 82q66 27 141 27q76 1 139 -26q64 -27 118 -81q53 -52 80 -117t27 -141q0 -72 -26 -137q-26 -63 -79 -119q-53 -52 -117 -81q-64 -27 -141 -27q-75 0 -139 26q-64 27 -118 79q-54 55 -82 119q-27 64 -27 140zM88 356
q0 -66 24 -122t70 -104q48 -46 104 -70q57 -22 123 -23q66 0 123 24t102 70q48 48 70 104q24 57 23 122q1 66 -23 123q-22 57 -70 103q-46 47 -103 71q-56 24 -122 23q-66 1 -123 -23q-56 -24 -104 -71q-46 -47 -70 -104t-24 -123zM244 156v405h184q34 1 59 -7q27 -6 44 -23
q19 -14 28 -35q9 -20 9 -46q0 -22 -7 -40q-8 -18 -23 -33t-36 -25q-20 -9 -45 -13q13 -3 22 -10q10 -5 18 -14q9 -6 17 -18q9 -11 18 -26q26 -37 74 -115h-107q-14 24 -56 97q-9 19 -19 31q-8 14 -16 18q-8 6 -19 9t-27 2h-26v-157h-92zM336 377h52q20 1 33 4q15 5 25 11
q12 10 17 20q6 12 6 27q1 30 -19 45t-59 15h-55v-122z" />
    <glyph glyph-name="macron" unicode="&#xaf;" horiz-adv-x="341" 
d="M24 662h293v-87h-293v87z" />
    <glyph glyph-name="degree" unicode="&#xb0;" horiz-adv-x="407" 
d="M203 708q30 0 54 -10q25 -9 45 -30q22 -20 31 -46q10 -24 10 -55q0 -27 -10 -52q-9 -25 -31 -46q-20 -21 -45 -31q-24 -10 -54 -11q-29 1 -53 11t-46 30q-20 21 -31 45q-11 26 -11 54q0 30 11 54q10 24 30 45q23 22 47 31q24 11 53 11zM203 494q15 0 28 5q13 6 23 16
q12 12 17 24q5 13 5 28q0 17 -5 29q-4 14 -16 24q-10 10 -24 16q-13 6 -28 5q-15 1 -27 -5t-24 -16q-10 -10 -17 -24q-6 -12 -6 -29q1 -15 5 -28q6 -12 17 -24q11 -10 23 -16q14 -5 29 -5z" />
    <glyph glyph-name="plusminus" unicode="&#xb1;" horiz-adv-x="578" 
d="M46 357v108h190v178h106v-178h189v-108h-189v-179h-106v179h-190zM46 0v108h190h295v-108h-485z" />
    <glyph glyph-name="twosuperior" unicode="&#xb2;" horiz-adv-x="341" 
d="M26 507v10q10 11 32 32q22 24 55 57q25 26 41 47t25 35q9 16 14 31t5 29t-4 24t-13 18q-8 8 -20 11q-10 4 -25 4q-26 1 -51 -14q-24 -14 -48 -42v86q29 21 57 29q28 9 58 9q30 1 52 -7q24 -6 43 -23q21 -15 29 -36q10 -21 10 -47q0 -18 -6 -38q-6 -18 -18 -40
q-12 -20 -35 -47q-21 -27 -55 -62h143v-66h-289z" />
    <glyph glyph-name="threesuperior" unicode="&#xb3;" horiz-adv-x="341" 
d="M150 873q30 0 53 -6q25 -5 43 -20q18 -14 27 -32q10 -17 10 -41t-12 -44q-11 -18 -37 -33q28 -12 42 -33t14 -53q0 -22 -10 -43q-8 -20 -29 -36q-19 -14 -45 -23q-24 -7 -53 -7q-27 0 -54 6t-55 17v75q26 -15 50 -24t47 -9q15 0 24 3q12 3 18 9q9 6 13 14q4 9 4 19
q0 14 -5 23t-15 15q-8 6 -26 10q-15 4 -39 4v58h8q37 0 55 11q18 13 18 35q0 9 -4 17q-4 9 -13 14q-6 7 -18 10q-10 3 -25 3q-18 0 -39 -6q-20 -4 -42 -18v66q27 10 50 15q24 4 45 4z" />
    <glyph glyph-name="acute" unicode="&#xb4;" horiz-adv-x="341" 
d="M171 699h138q-33 -39 -137 -160h-75q20 40 74 160z" />
    <glyph glyph-name="mu" unicode="&#xb5;" horiz-adv-x="571" 
d="M63 -236v711h119v-319q20 -33 42 -51q24 -17 52 -17q24 0 41 7q19 8 31 20q14 15 20 31q8 18 7 40v289h119v-351q0 -20 6 -30q8 -10 20 -10q10 0 19 4q10 4 19 10v-82q-20 -12 -42 -19q-21 -6 -47 -6q-35 1 -57 16q-20 16 -28 46q-20 -30 -45 -46q-25 -15 -57 -16
q-30 1 -55 16q-24 17 -45 47v-290h-119z" />
    <glyph glyph-name="paragraph" unicode="&#xb6;" horiz-adv-x="608" 
d="M227 -239v523q-50 3 -89 17q-38 15 -68 42q-30 28 -44 64q-15 37 -15 82q1 51 16 88q15 39 46 66q31 29 73 43q44 14 99 14h351v-105h-69v-834h-99v834h-101v-834h-100z" />
    <glyph glyph-name="periodcentered" unicode="&#xb7;" horiz-adv-x="245" 
d="M122 279q-15 1 -29 5q-12 6 -24 16q-11 12 -17 25q-6 15 -6 29q0 18 6 31q6 14 17 24q12 10 24 16q14 5 29 5t29 -5q14 -4 24 -16q13 -10 17 -25q6 -12 6 -29q0 -15 -5 -28t-17 -25q-10 -10 -24 -17q-14 -6 -30 -6z" />
    <glyph glyph-name="cedilla" unicode="&#xb8;" horiz-adv-x="341" 
d="M137 9h69q-3 -9 -17 -40q47 -3 68 -22q23 -19 23 -57q0 -20 -11 -38q-9 -16 -30 -30q-19 -12 -49 -19q-28 -7 -67 -7q-20 0 -36 2q-15 2 -28 2v61q17 -1 27 -3h19q30 0 44 9q15 9 15 25q0 18 -10 25q-9 9 -30 8h-15q-5 1 -11 -2q14 29 39 86z" />
    <glyph glyph-name="onesuperior" unicode="&#xb9;" horiz-adv-x="341" 
d="M180 867h49v-360h-88v234q-11 -9 -49 -39q-9 15 -42 57q34 27 130 108z" />
    <glyph glyph-name="ordmasculine" unicode="&#xba;" horiz-adv-x="380" 
d="M355 556q1 -33 -11 -60q-10 -27 -35 -49q-23 -19 -53 -31q-30 -10 -68 -10q-34 0 -65 10q-28 10 -52 31q-23 22 -35 49q-10 28 -11 60q1 33 11 60q12 28 35 49q24 21 52 32q31 11 65 11q38 0 67 -11q31 -11 53 -32q24 -21 36 -49q12 -27 11 -60zM189 639q-15 1 -28 -5
q-12 -4 -24 -16q-9 -10 -15 -26q-4 -14 -5 -35q1 -20 5 -35q6 -15 14 -25q10 -10 23 -16q15 -6 30 -6q17 1 31 5q15 6 24 16q10 10 15 26q5 15 5 35q0 21 -5 35q-5 16 -15 25q-9 11 -24 17q-14 6 -31 5z" />
    <glyph glyph-name="guillemotright" unicode="&#xbb;" horiz-adv-x="550" 
d="M24 473h113q39 -59 154 -236q-39 -60 -154 -237h-113q38 60 152 237zM257 473h115q39 -59 153 -236q-37 -60 -153 -237h-115q39 60 154 237q-39 59 -154 236z" />
    <glyph glyph-name="onequarter" unicode="&#xbc;" horiz-adv-x="812" 
d="M180 698h49v-360h-88v234q-11 -8 -49 -38q-9 14 -42 56q34 27 130 108zM604 708h80q-117 -183 -468 -735h-80q117 185 468 735zM689 365h53v-204h48v-58h-48v-103h-83v103h-175v42q52 55 205 220zM659 161v90q-19 -22 -82 -90h82z" />
    <glyph glyph-name="onehalf" unicode="&#xbd;" horiz-adv-x="812" 
d="M180 698h49v-360h-88v234q-11 -8 -49 -38q-9 14 -42 56q34 27 130 108zM580 708h79q-117 -183 -468 -735h-79q117 185 468 735zM498 0v10q14 14 34 35q22 22 53 55q25 26 41 47t25 35q9 16 14 31t5 29t-4 23q-3 10 -13 18q-8 8 -20 11q-10 4 -25 4q-26 0 -51 -14
q-24 -14 -48 -42v86q29 20 56 29q29 10 59 10q30 1 52 -8q24 -7 43 -23q21 -15 29 -36q10 -20 10 -47q0 -18 -6 -38q-6 -19 -19 -40q-12 -20 -34 -47t-55 -60h143v-68h-289z" />
    <glyph glyph-name="threequarters" unicode="&#xbe;" horiz-adv-x="812" 
d="M602 708h80q-117 -183 -468 -735h-80q117 185 468 735zM689 365h53v-204h48v-58h-48v-103h-83v103h-175v42q52 55 205 220zM659 161v90q-19 -22 -82 -90h82zM150 705q30 1 53 -7q25 -6 43 -20t27 -32q10 -18 10 -41t-12 -44q-11 -18 -37 -33q28 -12 42 -33t14 -53
q0 -22 -10 -43q-8 -20 -29 -35q-19 -15 -45 -24q-24 -6 -53 -7q-27 0 -54 6q-27 7 -55 17v75q26 -15 50 -24t47 -9q15 0 24 3q12 3 18 9q9 6 13 14q4 10 4 19q0 14 -5 23t-15 15q-8 7 -26 10q-15 4 -39 4v58h8q37 1 55 11q18 12 18 35q0 9 -4 17t-13 14q-6 8 -18 10
q-10 3 -25 3q-18 0 -39 -6q-20 -5 -42 -17v65q27 11 50 15q24 6 45 5z" />
    <glyph glyph-name="questiondown" unicode="&#xbf;" horiz-adv-x="358" 
d="M302 -96q-10 -30 -40 -119q-14 -3 -32 -6q-16 -2 -35 -2q-33 0 -60 9q-27 10 -50 29q-21 20 -34 47q-11 28 -11 64q0 40 21 85q23 45 65 93q38 44 55 83q18 39 18 73q1 9 -2 15q-1 6 -4 9q37 -8 53 -29q18 -21 18 -54q0 -27 -11 -61q-10 -34 -34 -73q-21 -38 -34 -68
q-11 -30 -11 -51q0 -14 5 -25q4 -11 12 -20q10 -9 22 -13q13 -4 28 -5q15 1 30 5q16 6 31 14zM127 410q0 16 6 29q7 15 17 25q12 12 25 17q14 5 29 5q16 0 29 -5q14 -4 24 -16q13 -10 17 -25q6 -12 6 -29q0 -16 -6 -30q-4 -14 -17 -26q-10 -9 -25 -16q-14 -6 -29 -6h-1h-1
q-13 1 -27 5q-12 6 -24 17q-10 14 -17 26q-6 14 -6 29z" />
    <glyph glyph-name="Agrave" unicode="&#xc0;" horiz-adv-x="734" 
d="M302 701h122q78 -175 310 -701h-138q-20 46 -81 185h-299q-18 -45 -78 -185h-138q76 176 302 701zM362 539q-24 -63 -103 -253h212q-27 64 -109 253zM216 910h153q21 -39 85 -159h-77q-39 41 -161 159z" />
    <glyph glyph-name="Aacute" unicode="&#xc1;" horiz-adv-x="734" 
d="M302 701h66h56q78 -175 310 -701h-138q-20 46 -81 185h-299q-18 -45 -78 -185h-138q76 176 302 701zM362 539q-24 -63 -103 -253h212q-27 64 -109 253zM283 751q21 41 85 159h152q-40 -39 -160 -159h-77z" />
    <glyph glyph-name="Acircumflex" unicode="&#xc2;" horiz-adv-x="734" 
d="M302 701h122q78 -175 310 -701h-138q-20 46 -81 185h-299q-18 -45 -78 -185h-138q76 176 302 701zM362 539q-24 -63 -103 -253h212q-27 64 -109 253zM186 751q26 41 99 159h164q25 -39 100 -159h-78q-26 22 -104 91q-26 -22 -104 -91h-77z" />
    <glyph glyph-name="Atilde" unicode="&#xc3;" horiz-adv-x="734" 
d="M302 701h122q78 -175 310 -701h-138q-20 46 -81 185h-299q-18 -45 -78 -185h-138q76 176 302 701zM362 539q-24 -63 -103 -253h212q-27 64 -109 253zM296 886q15 0 35 -5q21 -4 46 -16q27 -9 43 -15q16 -4 22 -5q18 1 27 10q9 11 11 31h60q0 -30 -7 -55q-7 -23 -22 -41
q-14 -16 -32 -26q-3 -2 -6 -3q-1 -1 -4 -1q-14 -4 -30 -5q-11 1 -31 5q-18 6 -46 15q-26 12 -43 16q-17 5 -26 5q-15 0 -25 -10q-9 -10 -12 -31h-61q1 31 7 55q8 24 22 41q16 18 33 26q18 9 39 9z" />
    <glyph glyph-name="Adieresis" unicode="&#xc4;" horiz-adv-x="734" 
d="M302 701h122q78 -175 310 -701h-138q-20 46 -81 185h-299q-18 -45 -78 -185h-138q76 176 302 701zM362 539q-24 -63 -103 -253h212q-27 64 -109 253zM206 833q0 13 4 23q6 10 14 20q9 10 21 13q11 5 23 5q14 0 23 -5q11 -3 20 -13q11 -10 14 -20q5 -10 5 -23
q0 -12 -5 -24q-3 -11 -14 -21q-6 -6 -14 -11q-3 0 -6 -2q-9 -5 -23 -5q-12 0 -23 5q-12 4 -21 13q-8 10 -14 21q-4 12 -4 24zM467 894q14 0 23 -5q12 -3 20 -13q10 -10 14 -20t4 -23q0 -12 -4 -24q-4 -11 -13 -21q-9 -9 -20 -13q-10 -5 -24 -5q-11 0 -23 5q-10 4 -20 13
q-8 10 -14 21q-4 12 -4 24q0 14 4 23q6 10 14 20q10 10 20 13q12 5 23 5z" />
    <glyph glyph-name="Aring" unicode="&#xc5;" horiz-adv-x="734" 
d="M302 701h66h56q78 -175 310 -701h-138q-20 46 -81 185h-299q-18 -45 -78 -185h-138q76 176 302 701zM362 539q-24 -63 -103 -253h212q-27 64 -109 253zM469 848q1 -20 -7 -38q-6 -16 -23 -33q-14 -13 -30 -22h-1h-1q-18 -7 -39 -7q-20 0 -38 7t-33 21q-15 16 -22 33
q-8 18 -8 39q1 21 7 39q8 17 22 32q15 15 33 22t39 7t39 -7t32 -22q17 -15 23 -33q8 -16 7 -38zM330 887q-8 -8 -12 -18q-4 -9 -4 -21q0 -10 4 -21q4 -9 12 -17t17 -12q11 -3 21 -3q12 0 20 3q10 4 18 12q9 8 12 17q4 11 4 21q0 12 -4 21q-2 9 -11 17q-8 9 -18 12
q-9 4 -21 4q-10 0 -21 -4q-9 -3 -17 -11z" />
    <glyph glyph-name="AE" unicode="&#xc6;" horiz-adv-x="987" 
d="M412 698h513v-105h-292v-184h280v-107h-280v-196h302v-106h-437v293h-194q-42 -73 -172 -293h-142q106 176 422 698zM498 621q-34 -57 -134 -228h134v228z" />
    <glyph glyph-name="Ccedilla" unicode="&#xc7;" horiz-adv-x="735" 
d="M428 708q60 0 123 -14t130 -42v-133q-60 36 -120 54q-58 18 -118 18q-58 0 -106 -18q-46 -18 -82 -54q-35 -34 -53 -78q-18 -43 -18 -94q0 -50 18 -92t52 -78q36 -35 82 -53q48 -18 105 -18q66 0 126 20q62 20 119 57v-131q-54 -28 -115 -44q-62 -15 -131 -17
q-2 -7 -8 -22q46 -3 68 -22t22 -57q0 -20 -10 -38q-10 -16 -31 -30q-19 -12 -49 -19q-28 -7 -66 -7q-20 0 -36 2t-28 2v61q15 -1 27 -3h19q30 0 44 9q15 9 15 25q0 18 -10 25q-9 9 -30 8h-15q-6 1 -11 -2q10 25 31 71q-76 8 -137 38q-58 30 -103 81q-42 51 -65 110
q-21 59 -22 125q1 80 28 143q27 65 82 115q55 52 123 76q69 26 150 26z" />
    <glyph glyph-name="Egrave" unicode="&#xc8;" horiz-adv-x="570" 
d="M76 698h64h370v-105h-299v-185h288v-106h-288v-196h308v-106h-443v698zM140 910h153q21 -39 85 -159h-77q-39 41 -161 159z" />
    <glyph glyph-name="Eacute" unicode="&#xc9;" horiz-adv-x="570" 
d="M76 698h233h201v-105h-299v-185h288v-106h-288v-196h308v-106h-443v698zM224 751q22 41 85 159h153q-40 -39 -160 -159h-78z" />
    <glyph glyph-name="Ecircumflex" unicode="&#xca;" horiz-adv-x="570" 
d="M76 698h133h301v-105h-299v-185h288v-106h-288v-196h308v-106h-443v698zM111 751q24 41 98 159h164q25 -39 100 -159h-78q-26 22 -104 91q-26 -22 -104 -91h-76z" />
    <glyph glyph-name="Edieresis" unicode="&#xcb;" horiz-adv-x="570" 
d="M76 698h117h317v-105h-299v-185h288v-106h-288v-196h308v-106h-443v698zM130 833q0 13 5 23q4 10 13 20q10 10 21 13q12 5 24 5q13 0 23 -5q10 -3 20 -13t13 -20q5 -10 5 -23q0 -12 -5 -24q-3 -11 -13 -21q-10 -9 -20 -13q0 1 -1 -1q1 0 -1 0q-9 -4 -21 -4t-24 5
q-11 4 -21 13q-9 10 -13 21q-5 12 -5 24zM391 894q14 0 24 -5q10 -3 19 -13q10 -10 14 -20q6 -10 5 -23q0 -12 -4 -24q-5 -11 -14 -21q-9 -9 -20 -13q-10 -5 -24 -5q-11 0 -23 5q-10 4 -20 13q-8 10 -14 21q-4 12 -4 24q0 14 4 23q6 10 14 20q10 10 20 13q12 5 23 5z" />
    <glyph glyph-name="Igrave" unicode="&#xcc;" horiz-adv-x="287" 
d="M76 698h135v-698h-135v698zM-7 910h152q22 -39 85 -159h-19h-57q-40 41 -161 159z" />
    <glyph glyph-name="Iacute" unicode="&#xcd;" horiz-adv-x="287" 
d="M76 698h68h67v-698h-135v698zM59 751q22 41 85 159h153q-39 -39 -160 -159h-78z" />
    <glyph glyph-name="Icircumflex" unicode="&#xce;" horiz-adv-x="287" 
d="M76 698h135v-698h-135v698zM-37 751q26 41 98 159h164q26 -39 101 -159h-78q-26 22 -105 91q-25 -22 -103 -91h-77z" />
    <glyph glyph-name="Idieresis" unicode="&#xcf;" horiz-adv-x="287" 
d="M76 698h135v-698h-135v698zM-17 833q1 13 4 23q5 10 14 20t21 13q12 5 23 5q13 0 23 -5q12 -3 20 -13q10 -10 14 -20t4 -23q0 -12 -4 -24q-4 -11 -14 -21q-8 -9 -20 -13q-4 -3 -11 -4v0q-6 -1 -12 -1q-11 0 -23 5q-12 4 -21 13q-9 10 -14 21q-3 12 -4 24zM244 894
q14 0 23 -5q11 -3 20 -13t14 -20q4 -10 4 -23q0 -12 -4 -24q-3 -11 -13 -21q-8 -9 -20 -13q-10 -5 -24 -5q-12 0 -23 5q-11 4 -20 13q-9 10 -14 21q-5 12 -5 24q0 14 5 23q5 10 14 20t20 13q11 5 23 5z" />
    <glyph glyph-name="Eth" unicode="&#xd0;" horiz-adv-x="785" 
d="M76 698h279q92 0 162 -23q70 -22 121 -72q51 -47 77 -110q25 -61 25 -139q0 -80 -25 -146q-25 -64 -76 -113q-51 -47 -121 -71q-69 -24 -159 -24h-283v309h-76v80h76v309zM211 108h138q63 0 108 16q47 16 80 47q33 33 49 77q16 46 16 103t-16 101t-50 76q-33 34 -83 49
q-50 16 -114 16h-128v-204h180v-80h-180v-201z" />
    <glyph glyph-name="Ntilde" unicode="&#xd1;" horiz-adv-x="833" 
d="M76 698h115q110 -123 434 -492v492h132v-698h-119q-108 123 -430 489v-489h-132v698zM343 886q15 0 35 -5q20 -4 46 -16q28 -9 43 -15q16 -4 22 -5q18 1 27 10q9 11 11 31h60q1 -30 -7 -55q-6 -23 -22 -41q-14 -16 -32 -26q-6 -2 -11 -5q-14 -3 -29 -4q-12 1 -31 5
l-45 15q-26 12 -44 16q-16 5 -26 5q-16 0 -25 -10t-12 -31h-61q0 31 8 55t21 41q16 18 34 26q17 9 38 9z" />
    <glyph glyph-name="Ograve" unicode="&#xd2;" horiz-adv-x="852" 
d="M426 708q86 0 154 -26q70 -24 121 -77q53 -51 80 -114t26 -141q1 -74 -26 -138q-24 -62 -78 -116q-51 -52 -122 -79q-69 -26 -159 -26q-84 0 -153 26q-67 27 -121 78q-50 53 -77 116q-26 63 -26 137q0 34 6 67t18 64q13 33 29 61q18 28 40 54q24 26 53 47q31 21 67 36
q34 13 68 21q6 2 12 2q42 8 88 8zM423 113q54 1 98 16t78 46q35 33 53 75q18 44 17 100q0 48 -16 89q-15 42 -49 76q-32 35 -77 53q-43 18 -100 18q-54 0 -99 -17q-44 -15 -78 -50q-32 -33 -50 -76q-16 -43 -17 -95q1 -51 17 -93q18 -42 52 -76q36 -33 78 -50q42 -15 93 -16
zM282 910h152q22 -39 85 -159h-77q-40 41 -160 159z" />
    <glyph glyph-name="Oacute" unicode="&#xd3;" horiz-adv-x="852" 
d="M426 708q86 0 154 -26q70 -24 121 -77q53 -51 80 -114t26 -141q1 -74 -26 -138q-24 -62 -78 -116q-51 -52 -122 -79q-69 -26 -159 -26q-84 0 -153 26q-67 27 -121 78q-50 53 -77 116q-26 63 -26 137q0 34 6 67t18 64q13 33 29 61q18 28 40 54q24 26 53 47q31 21 67 36
q38 15 80 23t88 8zM423 113q54 1 98 16t78 46q35 33 53 75q18 44 17 100q0 48 -16 89q-15 42 -49 76q-32 35 -77 53q-43 18 -100 18q-54 0 -99 -17q-44 -15 -78 -50q-32 -33 -50 -76q-16 -43 -17 -95q1 -51 17 -93q18 -42 52 -76q36 -33 78 -50q42 -15 93 -16zM341 751
q21 41 85 159h153q-39 -39 -160 -159h-78z" />
    <glyph glyph-name="Ocircumflex" unicode="&#xd4;" horiz-adv-x="852" 
d="M426 708q86 0 154 -26q70 -24 121 -77q53 -51 80 -114t26 -141q1 -74 -26 -138q-24 -62 -78 -116q-51 -52 -122 -79q-69 -26 -159 -26q-84 0 -153 26q-67 27 -121 78q-50 53 -77 116q-26 63 -26 137q0 34 6 67t18 64q13 33 29 61q18 28 40 54q24 26 53 47q31 21 67 36
q38 15 80 23q14 2 29 4h3q28 4 56 4zM423 113q54 1 98 16t78 46q35 33 53 75q18 44 17 100q0 48 -16 89q-15 42 -49 76q-32 35 -77 53q-43 18 -100 18q-54 0 -99 -17q-44 -15 -78 -50q-32 -33 -50 -76q-16 -43 -17 -95q1 -51 17 -93q18 -42 52 -76q36 -33 78 -50
q42 -15 93 -16zM245 751q24 41 98 159h164q25 -39 100 -159h-78q-26 22 -104 91q-25 -22 -103 -91h-77z" />
    <glyph glyph-name="Otilde" unicode="&#xd5;" horiz-adv-x="852" 
d="M426 708q86 0 154 -26q70 -24 121 -77q53 -51 80 -114t26 -141q1 -74 -26 -138q-24 -62 -78 -116q-51 -52 -122 -79q-69 -26 -159 -26q-84 0 -153 26q-67 27 -121 78q-50 53 -77 116q-26 63 -26 137q0 34 6 67t18 64q13 33 29 61q18 28 40 54q24 26 53 47q31 21 67 36
q38 15 80 23q18 3 36 5v0q26 3 52 3zM423 113q54 1 98 16t78 46q35 33 53 75q18 44 17 100q0 48 -16 89q-15 42 -49 76q-32 35 -77 53q-43 18 -100 18q-54 0 -99 -17q-44 -15 -78 -50q-32 -33 -50 -76q-16 -43 -17 -95q1 -51 17 -93q18 -42 52 -76q36 -33 78 -50
q42 -15 93 -16zM354 886q15 0 35 -5q21 -4 46 -16q27 -9 43 -15q18 -4 23 -5q17 1 26 10q9 11 12 31h59q0 -30 -7 -55q-7 -23 -22 -41q-12 -16 -32 -26q-18 -9 -39 -9h-6q-10 2 -26 5l-45 15q-25 12 -43 16q-18 5 -27 5q-15 0 -25 -10q-9 -10 -12 -31h-61q2 31 8 55
q7 24 22 41q15 18 33 26q18 9 38 9z" />
    <glyph glyph-name="Odieresis" unicode="&#xd6;" horiz-adv-x="852" 
d="M426 708q86 0 154 -26q70 -24 121 -77q53 -51 80 -114t26 -141q1 -74 -26 -138q-24 -62 -78 -116q-51 -52 -122 -79q-69 -26 -159 -26q-84 0 -153 26q-67 27 -121 78q-50 53 -77 116q-26 63 -26 137q0 34 6 67t18 64q13 33 29 61q18 28 40 54q24 26 53 47q31 21 67 36
q38 15 80 23q8 2 17 3q35 5 71 5zM423 113q54 1 98 16t78 46q35 33 53 75q18 44 17 100q0 48 -16 89q-15 42 -49 76q-32 35 -77 53q-43 18 -100 18q-54 0 -99 -17q-44 -15 -78 -50q-32 -33 -50 -76q-16 -43 -17 -95q1 -51 17 -93q18 -42 52 -76q36 -33 78 -50q42 -15 93 -16
zM264 833q0 13 5 23t14 20t20 13q12 5 24 5q13 0 23 -5q10 -3 20 -13t13 -20q5 -10 5 -23q0 -12 -5 -24q-3 -11 -13 -21q-10 -9 -20 -13q-8 -3 -17 -5h-6q-12 0 -24 5q-11 4 -20 13q-9 10 -14 21q-5 12 -5 24zM525 894q14 0 24 -5q10 -3 19 -13q10 -10 14 -20q6 -10 5 -23
q0 -12 -4 -24q-3 -11 -14 -21q-9 -9 -20 -13q-10 -5 -24 -5q-11 0 -23 5q-10 4 -20 13q-8 10 -14 21q-4 12 -4 24q0 14 4 23q6 10 14 20q10 10 20 13q12 5 23 5z" />
    <glyph glyph-name="multiply" unicode="&#xd7;" horiz-adv-x="602" 
d="M57 184q43 44 167 170q-40 42 -165 165q19 19 75 76q42 -41 166 -165q42 42 169 167q19 -18 76 -75q-41 -42 -169 -168q42 -42 167 -168q-19 -18 -76 -75q-41 43 -167 169q-42 -42 -168 -171z" />
    <glyph glyph-name="Oslash" unicode="&#xd8;" horiz-adv-x="852" 
d="M87 27q17 16 63 66q-52 51 -79 115q-26 64 -26 140q0 34 6 67t18 64q13 33 29 61q18 28 40 54q24 26 53 47q31 21 67 36q38 15 80 23t88 8q64 0 120 -16q56 -14 104 -47q21 22 63 67q12 -12 50 -47q-15 -15 -58 -64q51 -51 76 -113q27 -63 26 -138q1 -74 -26 -138
q-24 -62 -78 -116q-51 -52 -122 -79q-69 -26 -159 -26q-62 0 -118 15q-54 16 -100 44q-21 -22 -66 -70q-12 12 -51 47zM427 586q-57 0 -102 -18q-45 -16 -77 -53q-32 -35 -49 -77q-15 -42 -16 -90q0 -44 15 -84q14 -39 44 -73q106 121 319 359q-27 18 -62 27q-33 9 -72 9z
M669 350q1 44 -14 82q-14 39 -44 71q-105 -119 -317 -357q30 -16 62 -25q33 -8 67 -8q33 1 60 5q29 6 53 16q26 12 44 26q21 15 33 33q15 19 24 37q11 20 17 39q8 21 11 41q4 20 4 40z" />
    <glyph glyph-name="Ugrave" unicode="&#xd9;" horiz-adv-x="777" 
d="M68 698h135v-392q1 -50 11 -88q12 -36 35 -61q25 -25 59 -37q36 -12 82 -12t81 11q35 12 57 36q24 24 35 62q11 37 11 88v393h136v-395q0 -75 -21 -133q-19 -58 -61 -98q-40 -40 -100 -61q-60 -20 -138 -20t-138 20q-60 21 -101 60q-42 40 -63 97q-20 58 -20 133v397z
M239 910h152q21 -39 85 -159h-77q-39 41 -160 159z" />
    <glyph glyph-name="Uacute" unicode="&#xda;" horiz-adv-x="777" 
d="M68 698h135v-392q1 -50 11 -88q12 -36 35 -61q25 -25 59 -37q36 -12 82 -12t81 11q35 12 57 36q24 24 35 62q11 37 11 88v393h136v-395q0 -75 -21 -133q-19 -58 -61 -98q-40 -40 -100 -61q-60 -20 -138 -20t-138 20q-60 21 -101 60q-42 40 -63 97q-20 58 -20 133v397z
M305 751q21 41 85 159h153q-39 -39 -160 -159h-78z" />
    <glyph glyph-name="Ucircumflex" unicode="&#xdb;" horiz-adv-x="777" 
d="M68 698h135v-392q1 -50 11 -88q12 -36 35 -61q25 -25 59 -37q36 -12 82 -12t81 11q35 12 57 36q24 24 35 62q11 37 11 88v393h136v-395q0 -75 -21 -133q-19 -58 -61 -98q-40 -40 -100 -61q-60 -20 -138 -20t-138 20q-60 21 -101 60q-42 40 -63 97q-20 58 -20 133v397z
M209 751q24 41 98 159h164q25 -39 100 -159h-77q-27 22 -105 91q-25 -22 -103 -91h-77z" />
    <glyph glyph-name="Udieresis" unicode="&#xdc;" horiz-adv-x="777" 
d="M68 698h135v-392q1 -50 11 -88q12 -36 35 -61q25 -25 59 -37q36 -12 82 -12t81 11q35 12 57 36q24 24 35 62q11 37 11 88v393h136v-395q0 -75 -21 -133q-19 -58 -61 -98q-40 -40 -100 -61q-60 -20 -138 -20t-138 20q-60 21 -101 60q-42 40 -63 97q-20 58 -20 133v397z
M228 833q0 13 5 23t14 20t20 13q12 5 24 5q13 0 23 -5q12 -3 20 -13q10 -10 14 -20t4 -23q0 -12 -4 -24q-4 -11 -14 -21q-8 -9 -20 -13q-6 -3 -16 -4q-2 -1 -3 -1h-4q-12 0 -24 5q-11 4 -20 13q-9 10 -14 21q-5 12 -5 24zM489 894q15 0 24 -5q10 -3 19 -13q10 -10 14 -20
q6 -10 5 -23q0 -12 -4 -24q-3 -11 -13 -21q-9 -9 -21 -13q-9 -5 -24 -5q-11 0 -23 5q-10 4 -20 13q-9 10 -13 21q-5 12 -5 24q0 14 5 23q4 10 13 20q10 10 20 13q12 5 23 5z" />
    <glyph glyph-name="Yacute" unicode="&#xdd;" horiz-adv-x="663" 
d="M0 698h152q44 -57 178 -234q45 58 180 234h153q-65 -86 -263 -345v-353h-136v352q-66 88 -264 346zM268 751q22 41 85 159h153q-40 -39 -160 -159h-78z" />
    <glyph glyph-name="Thorn" unicode="&#xde;" horiz-adv-x="596" 
d="M76 698h135v-144h116q57 0 100 -13q45 -14 76 -41q33 -26 48 -65q16 -36 16 -86q0 -46 -15 -85q-15 -36 -48 -64q-32 -26 -78 -41q-44 -14 -104 -14h-111v-145h-135v698zM211 452v-203h90q36 0 60 6q27 7 39 19q16 15 22 33q8 19 7 43q1 27 -7 45q-6 19 -23 31
q-15 14 -40 19q-25 7 -61 7h-87z" />
    <glyph glyph-name="germandbls" unicode="&#xdf;" horiz-adv-x="563" 
d="M526 202q0 -42 -12 -80q-12 -36 -39 -69q-26 -30 -60 -46q-33 -15 -76 -16q-17 0 -38 3q-19 3 -41 7v96q12 -3 22 -5q12 -2 22 -2q24 0 41 8q19 9 31 24q14 18 20 38q6 22 6 49q0 61 -33 93t-100 31v93q53 0 80 24q27 26 26 73q0 21 -6 35q-6 15 -20 27q-12 12 -30 18
q-17 5 -38 5q-25 0 -43 -7t-31 -23q-12 -15 -18 -41q-6 -25 -6 -61v-476h-120v468q1 120 55 180q56 60 164 60q52 0 91 -13q39 -12 66 -39q28 -24 42 -57q15 -32 14 -72q0 -50 -24 -86q-24 -35 -72 -57q32 -8 54 -24q24 -15 40 -41q16 -23 25 -53q8 -28 8 -64z" />
    <glyph glyph-name="agrave" unicode="&#xe0;" horiz-adv-x="481" 
d="M224 486q45 0 78 -9q34 -9 58 -32q26 -20 37 -48q13 -27 13 -63v-219q0 -15 5 -24q5 -8 14 -8q9 1 20 5q12 6 27 16v-77q-30 -18 -59 -27q-27 -9 -55 -9t-46 12q-16 13 -24 37q-30 -24 -64 -37q-32 -12 -70 -12q-28 0 -50 8q-22 9 -40 26q-16 17 -26 38q-9 21 -9 46
q0 24 9 45q10 21 29 39t37 30q20 14 36 20q20 8 51 18q32 11 77 26q8 3 11 4q4 2 7 2v19q0 22 -5 36q-4 15 -16 24q-9 10 -25 14q-15 4 -36 4q-45 0 -87 -20q-41 -20 -77 -61v112q36 33 80 49q12 6 24 8h1q36 8 75 8zM152 127q0 -13 4 -23q3 -10 12 -20q10 -8 20 -13
q12 -3 24 -4q20 0 38 9q20 9 40 27v130q-36 -12 -64 -24q-27 -11 -43 -25q-15 -10 -23 -26q-8 -14 -8 -31zM95 699h139q20 -39 74 -160h-74q-34 40 -139 160z" />
    <glyph glyph-name="aacute" unicode="&#xe1;" horiz-adv-x="481" 
d="M224 486h6v0q42 0 72 -9q34 -9 58 -32q26 -20 37 -48q13 -27 13 -63v-219q0 -15 5 -24q5 -8 14 -8q9 1 20 5q12 6 27 16v-77q-30 -18 -59 -27q-27 -9 -55 -9t-46 12q-16 13 -24 37q-30 -24 -64 -37q-32 -12 -70 -12q-28 0 -50 8q-22 9 -40 26q-16 17 -26 38q-9 21 -9 46
q0 24 9 45q10 21 29 39t37 30q20 14 36 20q20 8 51 18q32 11 77 26q8 3 11 4q4 2 7 2v19q0 22 -5 36q-4 15 -16 24q-9 10 -25 14q-15 4 -36 4q-45 0 -87 -20q-41 -20 -77 -61v112q36 33 80 49q46 16 100 16zM152 127q0 -13 4 -23q3 -10 12 -20q10 -8 20 -13q12 -3 24 -4
q20 0 38 9q20 9 40 27v130q-36 -12 -64 -24q-27 -11 -43 -25q-15 -10 -23 -26q-8 -14 -8 -31zM231 699h139q-34 -39 -138 -160h-74q18 40 73 160z" />
    <glyph glyph-name="acircumflex" unicode="&#xe2;" horiz-adv-x="481" 
d="M224 486q45 0 78 -9q34 -9 58 -32q26 -20 37 -48q13 -27 13 -63v-219q0 -15 5 -24q5 -8 14 -8q9 1 20 5q12 6 27 16v-77q-30 -18 -59 -27q-27 -9 -55 -9t-46 12q-16 13 -24 37q-30 -24 -64 -37q-32 -12 -70 -12q-28 0 -50 8q-22 9 -40 26q-16 17 -26 38q-9 21 -9 46
q0 24 9 45q10 21 29 39t37 30q20 14 36 20q20 8 51 18q32 11 77 26q8 3 11 4q4 2 7 2v19q0 22 -5 36q-4 15 -16 24q-9 10 -25 14q-15 4 -36 4q-45 0 -87 -20q-41 -20 -77 -61v112q36 33 80 49q28 10 59 14q21 2 41 2zM152 127q0 -13 4 -23q3 -10 12 -20q10 -8 20 -13
q12 -3 24 -4q20 0 38 9q20 9 40 27v130q-36 -12 -64 -24q-27 -11 -43 -25q-15 -10 -23 -26q-8 -14 -8 -31zM157 699h140q23 -39 91 -160h-25h-1h-50q-20 23 -86 89q-21 -22 -84 -89h-74q22 40 89 160z" />
    <glyph glyph-name="atilde" unicode="&#xe3;" horiz-adv-x="481" 
d="M224 486q45 0 78 -9q34 -9 58 -32q26 -20 37 -48q13 -27 13 -63v-219q0 -15 5 -24q5 -8 14 -8q9 1 20 5q12 6 27 16v-77q-30 -18 -59 -27q-27 -9 -55 -9t-46 12q-16 13 -24 37q-30 -24 -64 -37q-32 -12 -70 -12q-28 0 -50 8q-22 9 -40 26q-16 17 -26 38q-9 21 -9 46
q0 24 9 45q10 21 29 39t37 30q20 14 36 20q20 8 51 18q32 11 77 26q8 3 11 4q4 2 7 2v19q0 22 -5 36q-4 15 -16 24q-9 10 -25 14q-15 4 -36 4q-45 0 -87 -20q-41 -20 -77 -61v112q36 33 80 49q28 10 59 14q21 2 41 2zM152 127q0 -13 4 -23q3 -10 12 -20q10 -8 20 -13
q12 -3 24 -4q20 0 38 9q20 9 40 27v130q-36 -12 -64 -24q-27 -11 -43 -25q-15 -10 -23 -26q-8 -14 -8 -31zM160 682q14 0 34 -5q21 -5 47 -15q27 -10 43 -16q16 -4 22 -5q18 1 26 11q10 10 12 30h59q1 -30 -7 -55q-6 -23 -21 -41q-14 -16 -32 -26q-15 -6 -31 -9h-9
q-11 1 -31 5q-20 6 -46 15q-26 12 -43 16q-17 5 -26 5q-15 0 -26 -10q-9 -10 -11 -31h-62q2 31 8 55q8 24 22 41q15 18 33 26q18 9 39 9z" />
    <glyph glyph-name="adieresis" unicode="&#xe4;" horiz-adv-x="481" 
d="M224 486q45 0 78 -9q34 -9 58 -32q26 -20 37 -48q13 -27 13 -63v-219q0 -15 5 -24q5 -8 14 -8q9 1 20 5q12 6 27 16v-77q-30 -18 -59 -27q-27 -9 -55 -9t-46 12q-16 13 -24 37q-30 -24 -64 -37q-32 -12 -70 -12q-28 0 -50 8q-22 9 -40 26q-16 17 -26 38q-9 21 -9 46
q0 24 9 45q10 21 29 39t37 30q20 14 36 20q20 8 51 18q32 11 77 26q8 3 11 4q4 2 7 2v19q0 22 -5 36q-4 15 -16 24q-9 10 -25 14q-15 4 -36 4q-45 0 -87 -20q-41 -20 -77 -61v112q36 33 80 49q22 9 43 12h1q28 4 56 4zM152 127q0 -13 4 -23q3 -10 12 -20q10 -8 20 -13
q12 -3 24 -4q20 0 38 9q20 9 40 27v130q-36 -12 -64 -24q-27 -11 -43 -25q-15 -10 -23 -26q-8 -14 -8 -31zM132 562q-12 0 -22 4t-20 14q-8 10 -14 20q-4 10 -4 23t4 22q4 11 13 20t20 13q11 6 23 5q12 0 23 -4q11 -3 20 -13t14 -20t5 -23t-5 -23q-3 -10 -13 -19
q-8 -9 -20 -14q0 1 -3 -1v0q-9 -4 -21 -4zM331 683q13 0 23 -4q10 -3 19 -13t13 -20t4 -23t-4 -23t-13 -19t-19 -14t-23 -5t-23 4t-20 14q-8 10 -14 20q-4 10 -5 23q1 13 4 22q5 11 14 20t20 13q12 6 24 5z" />
    <glyph glyph-name="aring" unicode="&#xe5;" horiz-adv-x="481" 
d="M224 486h4t1 0q41 0 73 -9q34 -9 58 -32q26 -20 37 -48q13 -27 13 -63v-219q0 -15 5 -24q5 -8 14 -8q9 1 20 5q12 6 27 16v-77q-30 -18 -59 -27q-27 -9 -55 -9t-46 12q-16 13 -24 37q-30 -24 -64 -37q-32 -12 -70 -12q-28 0 -50 8q-22 9 -40 26q-16 17 -26 38
q-9 21 -9 46q0 24 9 45q10 21 29 39t37 30q20 14 36 20q20 8 51 18q32 11 77 26q8 3 11 4q4 2 7 2v19q0 22 -5 36q-4 15 -16 24q-9 10 -25 14q-15 4 -36 4q-45 0 -87 -20q-41 -20 -77 -61v112q36 33 80 49q46 16 100 16zM152 127q0 -13 4 -23q3 -10 12 -20q10 -8 20 -13
q12 -3 24 -4q20 0 38 9q20 9 40 27v130q-36 -12 -64 -24q-27 -11 -43 -25q-15 -10 -23 -26q-8 -14 -8 -31zM332 638q0 -20 -7 -38q-8 -16 -23 -33q-14 -13 -32 -22q-6 -3 -14 -4q-2 -1 -5 -1q-9 -2 -21 -2q-20 0 -38 7q-16 7 -32 21q-14 16 -22 33q-8 18 -8 39t7 39t22 33
q15 16 33 22q18 8 38 7q22 1 40 -7q18 -6 32 -22q15 -15 23 -33q7 -18 7 -39zM286 638q0 12 -4 22t-13 18q-7 9 -17 12q-10 4 -22 4q-10 0 -20 -4q-8 -3 -17 -12q-7 -8 -13 -18q-4 -10 -4 -22t4 -21t11 -18q9 -8 18 -11q11 -4 21 -4q14 0 22 4q10 3 17 11q9 9 13 18
q4 11 4 21z" />
    <glyph glyph-name="ae" unicode="&#xe6;" horiz-adv-x="730" 
d="M45 310v119q42 29 84 43q45 14 90 14t79 -14q36 -14 62 -44q32 30 66 44t73 14q45 0 81 -15t63 -48q29 -31 41 -73q14 -42 13 -94v-18h-298q2 -36 11 -64q10 -28 30 -49q20 -19 46 -31q27 -10 57 -10q34 0 72 14q39 14 79 40v-97q-42 -25 -87 -37t-91 -13q-56 1 -100 17
q-44 18 -75 53q-45 -35 -91 -53q-44 -16 -87 -17q-29 0 -53 8q-22 9 -41 26q-18 18 -27 39q-9 24 -9 49q0 15 3 27q4 14 10 26q9 14 15 23q9 10 16 18q9 9 20 15q13 8 29 16q18 8 30 14q14 6 22 8q9 4 23 8q15 4 35 11t32 10t17 5v13q1 42 -20 63q-18 21 -57 21
q-42 1 -82 -20q-40 -19 -81 -61zM407 303h175q-4 48 -26 70q-21 23 -59 23q-17 0 -32 -5q-15 -6 -28 -18q-11 -12 -20 -30q-7 -16 -10 -40zM285 234q-36 -14 -63 -27q-24 -12 -41 -24q-15 -9 -23 -25q-6 -14 -7 -31q0 -13 3 -25q4 -10 12 -20q9 -9 19 -13q11 -3 25 -4
q24 1 49 11q26 12 50 33q-12 27 -18 56t-6 61v8z" />
    <glyph glyph-name="ccedilla" unicode="&#xe7;" horiz-adv-x="471" 
d="M282 486q36 0 71 -7q37 -8 73 -24v-112q-33 21 -66 29q-32 10 -65 10q-31 0 -55 -10t-43 -31t-28 -46t-9 -55t9 -55t28 -47q19 -20 46 -32q27 -10 63 -11q30 0 61 8q33 9 68 23v-107q-33 -12 -68 -20q-33 -6 -71 -8q-2 -7 -8 -22q46 -3 67 -22q23 -19 23 -57
q0 -20 -10 -38q-10 -16 -31 -30q-19 -12 -49 -19q-28 -7 -67 -7q-20 0 -36 2q-15 2 -27 2v61q15 -1 27 -3h19q30 0 44 9t14 25q0 18 -10 25q-9 9 -30 8h-15q-6 1 -10 -2q11 25 32 73q-26 6 -48 14q-22 10 -43 22q-20 14 -35 29q-13 15 -25 32l-18 36q-8 17 -13 35
q-4 18 -7 36t-3 34q1 54 16 98q17 45 47 81q33 37 78 55q46 18 104 18z" />
    <glyph glyph-name="egrave" unicode="&#xe8;" horiz-adv-x="529" 
d="M275 486q48 0 87 -15q40 -15 70 -50q32 -33 46 -79q16 -46 16 -104v-19h-335q3 -29 14 -53q12 -24 32 -42q21 -18 45 -28q26 -9 56 -9q45 0 90 14q45 13 87 40v-96q-42 -27 -92 -41q-49 -12 -105 -13q-54 1 -99 17q-43 18 -79 51q-36 35 -53 80q-18 46 -18 103
q1 54 16 98q16 45 48 78q33 34 77 51q12 5 22 8q36 9 75 9zM159 285h219q0 27 -8 46q-8 21 -22 36t-32 22t-44 7q-22 0 -42 -8q-20 -6 -36 -23q-16 -15 -25 -36q-9 -20 -10 -44zM136 699h139q20 -39 74 -160h-63h-11q-33 40 -139 160z" />
    <glyph glyph-name="eacute" unicode="&#xe9;" horiz-adv-x="529" 
d="M275 486q48 0 87 -15q40 -15 70 -50q32 -33 46 -79q16 -46 16 -104v-19h-335q3 -29 14 -53q12 -24 32 -42q21 -18 45 -28q26 -9 56 -9q45 0 90 14q45 13 87 40v-96q-42 -27 -92 -41q-49 -12 -105 -13q-54 1 -99 17q-43 18 -79 51q-36 35 -53 80q-18 46 -18 103
q1 54 16 98q16 45 48 78q33 34 77 51t94 17h3v0zM159 285h219q0 27 -8 46q-8 21 -22 36t-32 22t-44 7q-22 0 -42 -8q-20 -6 -36 -23q-16 -15 -25 -36q-9 -20 -10 -44zM272 699h139q-34 -39 -138 -160h-74q19 40 73 160z" />
    <glyph glyph-name="ecircumflex" unicode="&#xea;" horiz-adv-x="529" 
d="M275 486q48 0 87 -15q40 -15 70 -50q32 -33 46 -79q16 -46 16 -104v-19h-335q3 -29 14 -53q12 -24 32 -42q21 -18 45 -28q26 -9 56 -9q45 0 90 14q45 13 87 40v-96q-42 -27 -92 -41q-49 -12 -105 -13q-54 1 -99 17q-43 18 -79 51q-36 35 -53 80q-18 46 -18 103
q1 54 16 98q16 45 48 78q33 34 77 51q26 11 52 14q22 3 45 3zM159 285h219q0 27 -8 46q-8 21 -22 36t-32 22t-44 7q-22 0 -42 -8q-20 -6 -36 -23q-16 -15 -25 -36q-9 -20 -10 -44zM198 699h140q24 -39 91 -160h-76q-21 23 -86 89q-21 -22 -84 -89h-74q23 40 89 160z" />
    <glyph glyph-name="edieresis" unicode="&#xeb;" horiz-adv-x="529" 
d="M275 486q48 0 87 -15q40 -15 70 -50q32 -33 46 -79q16 -46 16 -104v-19h-335q3 -29 14 -53q12 -24 32 -42q21 -18 45 -28q26 -9 56 -9q45 0 90 14q45 13 87 40v-96q-42 -27 -92 -41q-49 -12 -105 -13q-54 1 -99 17q-43 18 -79 51q-36 35 -53 80q-18 46 -18 103
q1 54 16 98q16 45 48 78q33 34 77 51q18 8 35 11h1q30 6 61 6zM159 285h219q0 27 -8 46q-8 21 -22 36t-32 22t-44 7q-22 0 -42 -8q-20 -6 -36 -23q-16 -15 -25 -36q-9 -20 -10 -44zM170 562q-12 0 -23 4q-9 4 -19 14q-8 10 -14 20q-4 10 -4 23t4 22q4 11 13 20t20 13
q11 6 23 5q12 0 23 -4q11 -3 20 -13t14 -20q4 -10 4 -23t-4 -23q-3 -10 -13 -19q-8 -9 -20 -14q-6 -3 -11 -4q1 0 -1 0q-6 -1 -12 -1zM369 683q13 0 23 -4q10 -3 19 -13t13 -20t4 -23t-4 -23t-13 -19t-19 -14t-23 -5t-23 4t-20 14t-14 20t-5 23q1 13 4 22q5 11 14 20t20 13
q12 6 24 5z" />
    <glyph glyph-name="igrave" unicode="&#xec;" horiz-adv-x="246" 
d="M63 477h120v-477h-120v477zM-12 699h139q18 -39 74 -160h-18h-56q-34 40 -139 160z" />
    <glyph glyph-name="iacute" unicode="&#xed;" horiz-adv-x="246" 
d="M63 477h58h62v-477h-120v477zM121 699h138q-33 -39 -137 -160h-75q20 40 74 160z" />
    <glyph glyph-name="icircumflex" unicode="&#xee;" horiz-adv-x="246" 
d="M63 477h120v-477h-120v477zM52 699h141q22 -39 91 -160h-76q-22 23 -86 89q-21 -22 -84 -89h-75q23 40 89 160z" />
    <glyph glyph-name="idieresis" unicode="&#xef;" horiz-adv-x="246" 
d="M63 477h120v-477h-120v477zM25 562q-13 0 -23 4t-19 14t-14 20t-5 23t4 22q4 11 14 20t20 13q10 6 23 5q13 0 23 -4q10 -3 20 -13t13 -20q5 -10 5 -23t-4 -23t-13 -19t-20 -14q-3 -1 -8 -3q-7 -2 -16 -2zM223 683q14 0 23 -4q12 -3 19 -13q9 -10 14 -20q4 -10 4 -23
t-4 -23q-5 -10 -14 -19q-7 -9 -19 -14q-9 -5 -23 -5q-11 0 -23 4q-10 4 -20 14q-8 10 -14 20q-4 10 -4 23t4 22q4 11 13 20t21 13q12 6 23 5z" />
    <glyph glyph-name="eth" unicode="&#xf0;" horiz-adv-x="602" 
d="M145 651q16 15 64 56q35 -9 62 -23q30 -12 52 -26q39 16 114 49q6 -13 21 -55q-18 -8 -77 -35q42 -33 75 -75q33 -40 55 -86q23 -45 35 -95q12 -48 11 -100q1 -66 -19 -117q-18 -50 -56 -85q-36 -33 -83 -51q-46 -16 -102 -17q-61 0 -109 18q-48 20 -83 56q-33 37 -51 79
q-16 44 -17 90q1 54 17 98q18 44 51 80q35 36 80 54q46 18 103 17q27 0 51 -6q26 -6 48 -18q-17 35 -43 65q-24 30 -57 54q-51 -22 -152 -64q-5 15 -20 55q29 12 115 48q-14 9 -36 17q-21 9 -49 17zM298 90q32 0 55 10q25 10 43 30q20 21 28 48q9 28 9 62t-9 61t-29 46
q-17 21 -43 30q-24 10 -56 10q-30 0 -55 -10q-25 -9 -43 -30q-18 -20 -28 -47q-9 -27 -9 -63q0 -33 8 -59q9 -26 28 -47q19 -20 43 -30q26 -11 58 -11z" />
    <glyph glyph-name="ntilde" unicode="&#xf1;" horiz-adv-x="559" 
d="M336 486q42 0 71 -13q31 -12 52 -39q21 -26 31 -62q12 -36 11 -82v-290h-120v278q0 56 -22 83q-21 28 -66 28q-32 1 -59 -17q-27 -16 -51 -53v-319h-120v477h120v-63q33 38 72 54q39 18 81 18zM210 682q15 0 35 -5q21 -5 46 -15q27 -10 43 -16q16 -4 22 -5q18 1 27 11
t11 30h60q0 -30 -7 -55q-7 -23 -22 -41q-14 -16 -32 -26q-9 -4 -19 -7q-9 -2 -21 -2q-11 1 -31 5q-18 6 -46 15q-26 12 -43 16q-17 5 -26 5q-15 0 -25 -10q-9 -10 -12 -31h-61q1 31 7 55q8 24 22 41q16 18 33 26q18 9 39 9z" />
    <glyph glyph-name="ograve" unicode="&#xf2;" horiz-adv-x="594" 
d="M294 387q-28 0 -53 -10q-22 -9 -42 -30q-19 -20 -29 -47q-9 -28 -9 -61t9 -62q10 -27 29 -47q20 -20 44 -30q25 -10 55 -10q32 0 55 11q25 10 43 30q20 21 28 48q9 27 9 60q0 36 -9 63q-9 28 -30 46q-20 21 -45 30q-23 9 -55 9zM298 486q58 0 106 -17t82 -51
q36 -34 54 -79t18 -100q0 -59 -19 -104t-58 -79q-38 -32 -84 -49q-47 -15 -101 -16q-60 0 -108 18t-83 54q-33 38 -51 80q-16 45 -17 94q0 55 18 99q17 44 53 80t82 53q16 6 31 9q37 8 77 8zM169 699h139q20 -39 74 -160h-74q-34 40 -139 160z" />
    <glyph glyph-name="oacute" unicode="&#xf3;" horiz-adv-x="594" 
d="M294 387q-28 0 -53 -10q-22 -9 -42 -30q-19 -20 -29 -47q-9 -28 -9 -61t9 -62q10 -27 29 -47q20 -20 44 -30q25 -10 55 -10q32 0 55 11q25 10 43 30q20 21 28 48q9 27 9 60q0 36 -9 63q-9 28 -30 46q-20 21 -45 30q-23 9 -55 9zM298 486q58 0 106 -17t82 -51
q36 -34 54 -79t18 -100q0 -59 -19 -104t-58 -79q-38 -32 -84 -49q-47 -15 -101 -16q-60 0 -108 18t-83 54q-33 38 -51 80q-16 45 -17 94q0 55 18 99q17 44 53 80t82 53q48 17 108 17zM298 699h138q-33 -39 -140 -160v0h-72q20 40 74 160z" />
    <glyph glyph-name="ocircumflex" unicode="&#xf4;" horiz-adv-x="594" 
d="M294 387q-28 0 -53 -10q-22 -9 -42 -30q-19 -20 -29 -47q-9 -28 -9 -61t9 -62q10 -27 29 -47q20 -20 44 -30q25 -10 55 -10q32 0 55 11q25 10 43 30q20 21 28 48q9 27 9 60q0 36 -9 63q-9 28 -30 46q-20 21 -45 30q-23 9 -55 9zM298 486q58 0 106 -17t82 -51
q36 -34 54 -79t18 -100q0 -59 -19 -104t-58 -79q-38 -32 -84 -49q-47 -15 -101 -16q-60 0 -108 18t-83 54q-33 38 -51 80q-16 45 -17 94q0 55 18 99q17 44 53 80t82 53q32 12 67 15h1q20 2 40 2zM233 699h141q24 -39 91 -160h-76q-21 23 -86 89q-21 -22 -84 -89h-75
q24 40 89 160z" />
    <glyph glyph-name="otilde" unicode="&#xf5;" horiz-adv-x="594" 
d="M294 387q-28 0 -53 -10q-22 -9 -42 -30q-19 -20 -29 -47q-9 -28 -9 -61t9 -62q10 -27 29 -47q20 -20 44 -30q25 -10 55 -10q32 0 55 11q25 10 43 30q20 21 28 48q9 27 9 60q0 36 -9 63q-9 28 -30 46q-20 21 -45 30q-23 9 -55 9zM298 486q58 0 106 -17t82 -51
q36 -34 54 -79t18 -100q0 -59 -19 -104t-58 -79q-38 -32 -84 -49q-47 -15 -101 -16q-60 0 -108 18t-83 54q-33 38 -51 80q-16 45 -17 94q0 55 18 99q17 44 53 80t82 53q32 12 66 15h1q21 2 41 2zM233 682q15 0 35 -5t46 -15q28 -10 44 -16q16 -4 22 -5q18 1 26 11
q9 10 12 30h59q1 -30 -7 -55q-6 -23 -21 -41q-14 -16 -32 -26q-19 -9 -40 -9h-7q0 1 -3 1q-9 2 -22 4l-45 15q-26 12 -43 16q-17 5 -27 5q-16 0 -25 -10t-11 -31h-62q2 31 8 55q8 24 22 41q15 18 33 26q18 9 38 9z" />
    <glyph glyph-name="odieresis" unicode="&#xf6;" horiz-adv-x="594" 
d="M294 387q-28 0 -53 -10q-22 -9 -42 -30q-19 -20 -29 -47q-9 -28 -9 -61t9 -62q10 -27 29 -47q20 -20 44 -30q25 -10 55 -10q32 0 55 11q25 10 43 30q20 21 28 48q9 27 9 60q0 36 -9 63q-9 28 -30 46q-20 21 -45 30q-23 9 -55 9zM298 486q58 0 106 -17t82 -51
q36 -34 54 -79t18 -100q0 -59 -19 -104t-58 -79q-38 -32 -84 -49q-47 -15 -101 -16q-60 0 -108 18t-83 54q-33 38 -51 80q-16 45 -17 94q0 55 18 99q17 44 53 80t82 53q24 9 50 13q28 4 58 4zM206 562q-12 0 -23 4q-9 4 -19 14q-8 10 -14 20q-4 10 -5 23q1 13 5 22
q4 11 13 20t20 13q11 6 23 5q12 0 23 -4q11 -3 20 -13t14 -20q4 -10 4 -23t-4 -23q-3 -10 -13 -19q-8 -9 -20 -14q-6 -3 -16 -4v0q-4 -1 -8 -1zM404 683q14 0 23 -4q11 -3 19 -13q10 -10 14 -20t4 -23t-4 -23t-14 -19q-8 -9 -19 -14q-9 -5 -23 -5q-12 0 -23 4q-9 4 -20 14
q-9 10 -13 20t-5 23q1 13 4 22q4 11 13 20q10 9 21 13q11 6 23 5z" />
    <glyph glyph-name="divide" unicode="&#xf7;" horiz-adv-x="578" 
d="M261 579q7 4 13 6q8 3 16 2q14 1 23 -5q11 -4 17 -16q4 -6 6 -13q2 -6 2 -14q0 -13 -5 -23q-5 -9 -17 -17q-4 -3 -12 -6q-6 -3 -15 -3q-13 0 -23 6q-8 6 -17 15q-3 8 -6 14q-2 7 -2 13q1 14 5 23q6 10 15 18zM42 296v107h494v-107h-494zM261 200q6 4 14 7q7 3 15 2
q14 1 23 -5q11 -4 17 -16q4 -6 6 -13q2 -6 2 -14q0 -14 -5 -24q-5 -9 -17 -17q-4 -3 -12 -6q-6 -2 -14 -2q-12 0 -23 5q-9 6 -18 16q-3 7 -6 13q-2 6 -2 13q1 15 5 24q6 11 15 17z" />
    <glyph glyph-name="oslash" unicode="&#xf8;" horiz-adv-x="594" 
d="M49 -8q15 18 60 67q-36 36 -54 80q-18 45 -18 98q0 55 18 99q17 44 53 80t82 53q48 17 108 17q44 0 80 -10q38 -9 68 -30q20 22 55 64q9 -8 37 -34q-12 -14 -53 -59q37 -34 55 -79t18 -99q0 -59 -19 -104t-58 -79q-38 -32 -84 -49q-47 -15 -101 -16q-42 1 -79 10t-70 29
q-19 -24 -61 -72q-9 8 -37 34zM433 239q0 27 -6 50q-5 23 -19 39l-189 -216q16 -10 36 -17q21 -5 43 -5q32 0 55 11q25 10 43 30q20 21 28 48q9 27 9 60zM294 387q-28 0 -53 -10q-22 -9 -42 -30q-19 -20 -29 -47q-9 -28 -9 -61q0 -27 6 -50q7 -23 19 -41q64 74 188 217
q-18 11 -38 17t-42 5z" />
    <glyph glyph-name="ugrave" unicode="&#xf9;" horiz-adv-x="559" 
d="M58 477h85h35v-277q0 -56 22 -85q22 -27 65 -28q33 0 60 18q29 18 51 52v320h120v-477h-120v63q-33 -36 -72 -54q-38 -18 -82 -18q-80 1 -122 52q-42 52 -42 156v278zM143 699h140q19 -39 73 -160h-73z" />
    <glyph glyph-name="uacute" unicode="&#xfa;" horiz-adv-x="559" 
d="M58 477h120v-277q0 -56 22 -85q22 -27 65 -28q33 0 60 18q29 18 51 52v320h120v-477h-120v63q-33 -36 -72 -54q-38 -18 -82 -18q-80 1 -122 52q-42 52 -42 156v278zM283 699h138q-33 -39 -137 -160h-62h-13q18 40 74 160z" />
    <glyph glyph-name="ucircumflex" unicode="&#xfb;" horiz-adv-x="559" 
d="M58 477h120v-277q0 -56 22 -85q22 -27 65 -28q33 0 60 18q29 18 51 52v320h120v-477h-120v63q-33 -36 -72 -54q-38 -18 -82 -18q-80 1 -122 52q-42 52 -42 156v278zM208 699h140q24 -39 91 -160h-75q-22 23 -86 89q-21 -22 -84 -89h-75q23 40 89 160z" />
    <glyph glyph-name="udieresis" unicode="&#xfc;" horiz-adv-x="559" 
d="M58 477h120v-277q0 -56 22 -85q22 -27 65 -28q33 0 60 18q29 18 51 52v320h120v-477h-120v63q-33 -36 -72 -54q-38 -18 -82 -18q-80 1 -122 52q-42 52 -42 156v278zM180 562q-12 0 -22 4t-20 14q-8 10 -14 20q-4 10 -4 23t4 22q4 11 13 20t20 13q11 6 23 5q14 0 23 -4
q11 -3 20 -13t14 -20t5 -23t-4 -23t-14 -19q-8 -9 -20 -14q-9 -3 -19 -5h-5zM379 683q13 0 23 -4q10 -3 19 -13t13 -20t4 -23t-4 -23t-13 -19t-19 -14t-23 -5q-11 0 -23 4q-10 4 -20 14q-8 10 -14 20q-4 10 -5 23q1 13 5 22q4 11 13 20t20 13q12 6 24 5z" />
    <glyph glyph-name="yacute" unicode="&#xfd;" horiz-adv-x="496" 
d="M2 477h132q30 -63 120 -258q30 66 119 258h123q-84 -177 -333 -711h-124q39 80 151 322q-46 98 -188 389zM246 699h138q-33 -39 -137 -160h-75q18 40 74 160z" />
    <glyph glyph-name="thorn" unicode="&#xfe;" horiz-adv-x="564" 
d="M527 237q0 -51 -15 -95q-15 -42 -48 -80q-32 -34 -74 -53q-42 -18 -96 -18q-27 1 -55 7q-27 6 -55 19v-251h-121v932h121v-221h66q140 0 208 -60q69 -60 69 -180zM184 376v-263q22 -13 44 -19t45 -6q31 0 52 10q24 10 42 30q18 21 27 47q9 27 9 58q0 36 -9 63
q-8 26 -28 44q-18 18 -46 27t-64 9h-72z" />
    <glyph glyph-name="Ydieresis" unicode="&#xff;" horiz-adv-x="663" 
d="M0 698h152q44 -57 178 -234q45 58 180 234h153q-65 -86 -263 -345v-353h-136v352q-66 88 -264 346zM170 833q0 13 5 23q4 10 13 20q10 10 21 13q11 5 23 5q14 0 23 -5q11 -3 20 -13q11 -10 14 -20q5 -10 5 -23q0 -12 -5 -24q-3 -11 -14 -21q-9 -9 -20 -13q-4 -3 -10 -4
q1 0 -1 0q-4 -1 -12 -1q-12 0 -23 5q-11 4 -21 13q-9 10 -13 21q-5 12 -5 24zM431 894q14 0 24 -5q10 -3 19 -13q10 -10 14 -20q6 -10 5 -23q1 -12 -5 -24q-4 -11 -13 -21q-9 -9 -20 -13q-10 -5 -24 -5q-11 0 -23 5q-10 4 -20 13q-8 10 -14 21q-4 12 -4 24q0 14 4 23
q6 10 14 20q10 10 20 13q12 5 23 5z" />
    <glyph glyph-name="Ydieresis" unicode="&#x178;" horiz-adv-x="663" 
d="M0 698h152q44 -57 178 -234q45 58 180 234h153q-65 -86 -263 -345v-353h-136v352q-66 88 -264 346zM170 833q0 13 5 23q4 10 13 20q10 10 21 13q11 5 23 5q14 0 23 -5q11 -3 20 -13q11 -10 14 -20q5 -10 5 -23q0 -12 -5 -24q-3 -11 -14 -21q-9 -9 -20 -13q-4 -3 -10 -4
q1 0 -1 0q-4 -1 -12 -1q-12 0 -23 5q-11 4 -21 13q-9 10 -13 21q-5 12 -5 24zM431 894q14 0 24 -5q10 -3 19 -13q10 -10 14 -20q6 -10 5 -23q1 -12 -5 -24q-4 -11 -13 -21q-9 -9 -20 -13q-10 -5 -24 -5q-11 0 -23 5q-10 4 -20 13q-8 10 -14 21q-4 12 -4 24q0 14 4 23
q6 10 14 20q10 10 20 13q12 5 23 5z" />
    <glyph glyph-name="Amacron" unicode="&#x100;" horiz-adv-x="734" 
d="M302 701h122q78 -175 310 -701h-138q-20 46 -81 185h-299q-18 -45 -78 -185h-138q76 176 302 701zM362 539q-24 -63 -103 -253h212q-27 64 -109 253zM220 785v85h294v-85h-294z" />
    <glyph glyph-name="amacron" unicode="&#x101;" horiz-adv-x="481" 
d="M224 486q45 0 78 -9q34 -9 58 -32q26 -20 37 -48q13 -27 13 -63v-219q0 -15 5 -24q5 -8 14 -8q9 1 20 5q12 6 27 16v-77q-30 -18 -59 -27q-27 -9 -55 -9t-46 12q-16 13 -24 37q-30 -24 -64 -37q-32 -12 -70 -12q-28 0 -50 8q-22 9 -40 26q-16 17 -26 38q-9 21 -9 46
q0 24 9 45q10 21 29 39t37 30q20 14 36 20q20 8 51 18q32 11 77 26q8 3 11 4q4 2 7 2v19q0 22 -5 36q-4 15 -16 24q-9 10 -25 14q-15 4 -36 4q-45 0 -87 -20q-41 -20 -77 -61v112q36 33 80 49l12 4q2 2 3 1q39 11 85 11zM152 127q0 -13 4 -23q3 -10 12 -20q10 -8 20 -13
q12 -3 24 -4q20 0 38 9q20 9 40 27v130q-36 -12 -64 -24q-27 -11 -43 -25q-15 -10 -23 -26q-8 -14 -8 -31zM84 662h294v-87h-16h-278v87z" />
    <glyph glyph-name="Abreve" unicode="&#x102;" horiz-adv-x="734" 
d="M302 701h122q78 -175 310 -701h-138q-20 46 -81 185h-299q-18 -45 -78 -185h-138q76 176 302 701zM362 539q-24 -63 -103 -253h212q-27 64 -109 253zM190 903h85q11 -33 33 -50q24 -15 62 -16q36 1 57 16q23 17 32 50h85q-6 -37 -20 -65q-15 -28 -39 -50q-21 -18 -47 -29
q-2 0 -5 -2q-29 -11 -65 -11t-67 11q-30 10 -54 30q-23 23 -38 51q-13 28 -19 65z" />
    <glyph glyph-name="abreve" unicode="&#x103;" horiz-adv-x="481" 
d="M224 486q45 0 78 -9q34 -9 58 -32q26 -20 37 -48q13 -27 13 -63v-219q0 -15 5 -24q5 -8 14 -8q9 1 20 5q12 6 27 16v-77q-30 -18 -59 -27q-27 -9 -55 -9t-46 12q-16 13 -24 37q-30 -24 -64 -37q-32 -12 -70 -12q-28 0 -50 8q-22 9 -40 26q-16 17 -26 38q-9 21 -9 46
q0 24 9 45q10 21 29 39t37 30q20 14 36 20q20 8 51 18q32 11 77 26q8 3 11 4q4 2 7 2v19q0 22 -5 36q-4 15 -16 24q-9 10 -25 14q-15 4 -36 4q-45 0 -87 -20q-41 -20 -77 -61v112q36 33 80 49l12 4q40 12 88 12zM152 127q0 -13 4 -23q3 -10 12 -20q10 -8 20 -13q12 -3 24 -4
q20 0 38 9q20 9 40 27v130q-36 -12 -64 -24q-27 -11 -43 -25q-15 -10 -23 -26q-8 -14 -8 -31zM73 680h79q9 -30 29 -46q21 -16 51 -16q18 0 29 4q12 4 21 10q10 8 16 19q8 13 11 29h80q-3 -30 -15 -56q-12 -24 -34 -46q-22 -20 -49 -32q-13 -4 -28 -8q-15 -2 -32 -2
q-30 0 -57 9q-27 10 -48 28q-20 21 -34 46q-12 27 -19 61z" />
    <glyph glyph-name="Aogonek" unicode="&#x104;" horiz-adv-x="734" 
d="M302 701h122q78 -175 310 -701h-65q-13 -18 -19 -33t-7 -29q0 -26 15 -39t43 -13q14 0 26 3q14 3 26 8v-75q-18 -8 -39 -12q-18 -4 -40 -5q-27 1 -48 7q-21 8 -36 21q-14 15 -22 33q-8 20 -8 43q0 25 9 47q9 24 26 45q-27 61 -80 184h-299q-18 -45 -78 -185h-138
q76 176 302 701zM362 539q-24 -63 -103 -253h212q-27 64 -109 253z" />
    <glyph glyph-name="aogonek" unicode="&#x105;" horiz-adv-x="481" 
d="M224 486q45 0 78 -9q34 -9 58 -32q26 -20 37 -48q13 -27 13 -63v-219q0 -15 5 -24q5 -8 14 -8q9 1 20 5q12 6 27 16v-77q-20 -11 -40 -20q-18 -8 -39 -12q-9 -15 -16 -30q-5 -13 -5 -27q0 -26 14 -39q16 -13 44 -13q12 0 25 3q14 3 26 8v-75q-17 -8 -38 -12
q-19 -4 -40 -5q-27 1 -49 7q-20 8 -35 21q-15 15 -23 33q-6 20 -7 43q0 25 8 46q9 22 25 43q-12 6 -22 16q-8 12 -12 26q-30 -24 -64 -37q-32 -12 -70 -12q-28 0 -50 8q-22 9 -40 26q-16 17 -26 38q-9 21 -9 46q0 24 9 45q10 21 29 39t37 30q20 14 36 20q20 8 51 18
q32 11 77 26q8 3 11 4q4 2 7 2v19q0 22 -5 36q-4 15 -16 24q-9 10 -25 14q-15 4 -36 4q-45 0 -87 -20q-41 -20 -77 -61v112q36 33 80 49q46 16 100 16zM152 127q0 -13 4 -23q3 -10 12 -20q10 -8 20 -13q12 -3 24 -4q20 0 38 9q20 9 40 27v130q-36 -12 -64 -24
q-27 -11 -43 -25q-15 -10 -23 -26q-8 -14 -8 -31z" />
    <glyph glyph-name="Cacute" unicode="&#x106;" horiz-adv-x="735" 
d="M428 708q62 0 125 -14t128 -42v-132q-59 36 -119 54q-58 18 -119 18q-58 0 -106 -18q-46 -16 -82 -54q-35 -36 -53 -79t-18 -94q0 -50 18 -92t52 -78q36 -35 82 -53q48 -18 105 -18q66 0 126 20q62 20 119 57v-131q-56 -30 -122 -46q-63 -15 -138 -15q-45 1 -87 7
q-40 8 -78 22q-36 16 -66 36q-30 21 -54 45q-23 27 -41 55q-18 30 -30 60q-12 32 -19 65q-6 33 -6 67q1 80 28 143q27 65 82 115q55 52 123 76q64 24 138 25q4 1 8 1h4zM326 751q22 41 85 159h152q-39 -39 -160 -159h-77z" />
    <glyph glyph-name="cacute" unicode="&#x107;" horiz-adv-x="471" 
d="M282 486q36 0 71 -7q37 -8 73 -24v-112q-32 20 -65 29q-32 9 -66 9q-31 0 -55 -10q-24 -9 -42 -31q-18 -20 -28 -45q-9 -25 -9 -55t8 -55q9 -25 28 -47q19 -20 46 -32q27 -10 63 -11q30 0 61 8q33 9 68 23v-107q-36 -12 -74 -21q-36 -6 -72 -7q-33 0 -64 6q-29 7 -56 17
q-25 14 -46 28q-18 16 -33 34q-14 21 -23 39q-9 21 -17 40q-6 21 -10 40q-3 21 -3 39q1 54 16 98q17 45 47 81q33 37 78 55q42 18 92 18h1h11zM265 699h138q-33 -39 -137 -160h-75q20 40 74 160z" />
    <glyph glyph-name="Ccircumflex" unicode="&#x108;" horiz-adv-x="735" 
d="M428 708q62 0 125 -14t128 -42v-132q-59 36 -119 54q-58 18 -119 18q-58 0 -106 -18q-46 -16 -82 -54q-35 -36 -53 -79t-18 -94q0 -50 18 -92t52 -78q36 -35 82 -53q48 -18 105 -18q66 0 126 20q62 20 119 57v-131q-56 -30 -122 -46q-63 -15 -138 -15q-45 1 -87 7
q-40 8 -78 22q-36 16 -66 36q-30 21 -54 45q-23 27 -41 55q-18 30 -30 60q-12 32 -19 65q-6 33 -6 67q1 80 28 143q27 65 82 115q55 52 123 76q45 18 95 23q27 3 55 3zM252 751q24 41 98 159h164q26 -39 100 -159h-77q-27 22 -105 91q-26 -22 -103 -91h-77z" />
    <glyph glyph-name="ccircumflex" unicode="&#x109;" horiz-adv-x="471" 
d="M282 486q36 0 71 -7q37 -8 73 -24v-112q-32 20 -65 29q-32 9 -66 9q-31 0 -55 -10q-24 -9 -42 -31q-18 -20 -28 -45q-9 -25 -9 -55t8 -55q9 -25 28 -47q19 -20 46 -32q27 -10 63 -11q30 0 61 8q33 9 68 23v-107q-36 -12 -74 -21q-36 -6 -72 -7q-33 0 -64 6q-29 7 -56 17
q-25 14 -46 28q-18 16 -33 34q-14 21 -23 39q-9 21 -17 40q-6 21 -10 40q-3 21 -3 39q1 54 16 98q17 45 47 81q33 37 78 55q24 10 48 14q26 4 56 4zM187 699h141q22 -39 91 -160h-76q-21 23 -86 89q-21 -22 -84 -89h-75q24 40 89 160z" />
    <glyph glyph-name="Cdot" unicode="&#x10a;" horiz-adv-x="735" 
d="M428 708q62 0 125 -14t128 -42v-132q-59 36 -119 54q-58 18 -119 18q-58 0 -106 -18q-46 -16 -82 -54q-35 -36 -53 -79t-18 -94q0 -50 18 -92t52 -78q36 -35 82 -53q48 -18 105 -18q66 0 126 20q62 20 119 57v-131q-56 -30 -122 -46q-63 -15 -138 -15q-45 1 -87 7
q-40 8 -78 22q-36 16 -66 36q-30 21 -54 45q-23 27 -41 55q-18 30 -30 60q-12 32 -19 65q-6 33 -6 67q1 80 28 143q27 65 82 115q55 52 123 76q66 26 145 26h5zM490 839q0 -14 -4 -26q-4 -13 -16 -23q-10 -10 -22 -16q-12 -4 -27 -5q-14 1 -26 5q-13 6 -23 16t-16 23
q-4 12 -5 26q1 14 5 26q6 13 16 22q10 12 23 15q12 6 26 5q15 1 27 -5q12 -3 22 -15q12 -9 16 -22q4 -12 4 -26z" />
    <glyph glyph-name="cdot" unicode="&#x10b;" horiz-adv-x="471" 
d="M282 486q36 0 71 -7q37 -8 73 -24v-112q-32 20 -65 29q-32 9 -66 9q-31 0 -55 -10q-24 -9 -42 -31q-18 -20 -28 -45q-9 -25 -9 -55t8 -55q9 -25 28 -47q19 -20 46 -32q27 -10 63 -11q30 0 61 8q33 9 68 23v-107q-36 -12 -74 -21q-36 -6 -72 -7q-33 0 -64 6q-29 7 -56 17
q-25 14 -46 28q-18 16 -33 34q-14 21 -23 39q-9 21 -17 40q-6 21 -10 40q-3 21 -3 39q1 54 16 98q17 45 47 81q33 37 78 55q39 16 89 18h15zM329 626q1 -14 -5 -26q-4 -12 -16 -23q-10 -9 -22 -16q-10 -3 -27 -5v0q-14 0 -26 5q-11 7 -23 16q-9 11 -15 23t-6 26t6 26t15 22
q12 12 23 15q12 5 26 5q15 0 27 -5q12 -3 22 -15q12 -10 16 -22q6 -12 5 -26z" />
    <glyph glyph-name="Ccaron" unicode="&#x10c;" horiz-adv-x="735" 
d="M428 708q62 0 125 -14t128 -42v-132q-59 36 -119 54q-58 18 -119 18q-58 0 -106 -18q-46 -16 -82 -54q-35 -36 -53 -79t-18 -94q0 -50 18 -92t52 -78q36 -35 82 -53q48 -18 105 -18q66 0 126 20q62 20 119 57v-131q-56 -30 -122 -46q-63 -15 -138 -15q-45 1 -87 7
q-40 8 -78 22q-36 16 -66 36q-30 21 -54 45q-23 27 -41 55q-18 30 -30 60q-12 32 -19 65q-6 33 -6 67q1 80 28 143q27 65 82 115q55 52 123 76q14 6 29 10h1q57 16 120 16zM346 751q-24 41 -99 159h78q25 -22 103 -92q26 24 104 92h77q-23 -39 -98 -159h-85h-80z" />
    <glyph glyph-name="ccaron" unicode="&#x10d;" horiz-adv-x="471" 
d="M282 486q36 0 71 -7q37 -8 73 -24v-112q-32 20 -65 29q-32 9 -66 9q-31 0 -55 -10q-24 -9 -42 -31q-18 -20 -28 -45q-9 -25 -9 -55t8 -55q9 -25 28 -47q19 -20 46 -32q27 -10 63 -11q30 0 61 8q33 9 68 23v-107q-36 -12 -74 -21q-36 -6 -72 -7q-33 0 -64 6q-29 7 -56 17
q-25 14 -46 28q-18 16 -33 34q-14 21 -23 39q-9 21 -17 40q-6 21 -10 40q-3 21 -3 39q1 54 16 98q17 45 47 81q33 37 78 55q2 0 3 1v0q45 17 101 17zM93 699h77q24 -21 96 -89q24 24 94 89h78q-26 -39 -103 -160h-46h-93q-26 40 -103 160z" />
    <glyph glyph-name="Dcaron" unicode="&#x10e;" horiz-adv-x="785" 
d="M76 698h110h169q92 0 162 -23q70 -22 121 -72q51 -47 77 -110q25 -61 25 -139q0 -80 -25 -146q-25 -64 -76 -113q-51 -47 -121 -71q-69 -24 -159 -24h-283v698zM211 108h138q63 0 108 16q47 16 80 47q33 33 49 77q16 46 16 103t-16 101t-50 76q-33 34 -83 49
q-50 16 -114 16h-128v-485zM286 751q-24 41 -100 159h78q26 -22 104 -92q26 24 104 92h77q-24 -39 -98 -159h-92h-73z" />
    <glyph glyph-name="dcaron" unicode="&#x10f;" horiz-adv-x="696" 
d="M160 240q0 -70 39 -106t116 -36h65v267q-20 12 -43 18t-47 6q-28 0 -52 -10q-22 -9 -41 -30q-19 -20 -28 -47q-9 -26 -9 -62zM380 698h120v-698h-202q-68 0 -117 17q-49 18 -82 51q-30 34 -46 77q-15 44 -16 96q1 54 17 99t48 78q33 34 75 51t92 17q32 0 59 -6
q28 -6 52 -19v237zM557 459v19q29 10 44 34q16 24 16 60q-12 3 -22 6q-9 4 -17 13t-12 20q-4 12 -4 24q0 18 6 30q6 14 16 23q10 12 23 16q15 6 29 5q18 1 31 -7q14 -6 24 -18q12 -12 16 -29q6 -15 6 -38q1 -31 -11 -58q-10 -27 -32 -50q-22 -21 -50 -35q-27 -12 -63 -15z
" />
    <glyph glyph-name="Dcroat" unicode="&#x110;" horiz-adv-x="785" 
d="M76 698h279q92 0 162 -23q70 -22 121 -72q51 -47 77 -110q25 -61 25 -139q0 -80 -25 -146q-25 -64 -76 -113q-51 -47 -121 -71q-69 -24 -159 -24h-283v309h-76v80h76v309zM211 108h138q63 0 108 16q47 16 80 47q33 33 49 77q16 46 16 103t-16 101t-50 76q-33 34 -83 49
q-50 16 -114 16h-128v-204h180v-80h-180v-201z" />
    <glyph glyph-name="dcroat" unicode="&#x111;" horiz-adv-x="563" 
d="M380 698h120v-77h77v-64h-77v-557h-213q-63 0 -111 16q-46 15 -78 47q-30 33 -46 77q-15 45 -15 101q1 54 17 99t48 78q33 34 75 51t92 17q31 0 58 -6q29 -6 53 -19v96h-111v64h111v77zM160 240q0 -36 8 -64q9 -27 27 -45q19 -17 47 -26q30 -9 70 -9h68v271
q-20 12 -43 18q-22 5 -49 5t-51 -9q-23 -9 -41 -31q-18 -20 -27 -47t-9 -63z" />
    <glyph glyph-name="Emacron" unicode="&#x112;" horiz-adv-x="570" 
d="M76 698h67h367v-105h-299v-185h288v-106h-288v-196h308v-106h-443v698zM143 785v85h294v-85h-294z" />
    <glyph glyph-name="emacron" unicode="&#x113;" horiz-adv-x="529" 
d="M275 486q48 0 87 -15q40 -15 70 -50q32 -33 46 -79q16 -46 16 -104v-19h-335q3 -29 14 -53q12 -24 32 -42q21 -18 45 -28q26 -9 56 -9q45 0 90 14q45 13 87 40v-96q-42 -27 -92 -41q-49 -12 -105 -13q-54 1 -99 17q-43 18 -79 51q-36 35 -53 80q-18 46 -18 103
q1 54 16 98q16 45 48 78q33 34 77 51q4 3 7 3q3 2 4 1q39 13 86 13zM159 285h219q0 27 -8 46q-8 21 -22 36t-32 22t-44 7q-22 0 -42 -8q-20 -6 -36 -23q-16 -15 -25 -36q-9 -20 -10 -44zM127 662h294v-87h-135h-159v87z" />
    <glyph glyph-name="Ebreve" unicode="&#x114;" horiz-adv-x="570" 
d="M76 698h41h393v-105h-299v-185h288v-106h-288v-196h308v-106h-443v698zM117 903h85q10 -33 32 -50q24 -15 62 -16q36 1 58 16q22 17 31 50h85q-4 -37 -20 -65q-14 -28 -38 -50q-22 -20 -53 -31q-9 -3 -18 -5q-1 0 -4 -1q-19 -5 -43 -5q-36 0 -67 11q-30 10 -54 30
q-22 23 -37 51t-19 65z" />
    <glyph glyph-name="ebreve" unicode="&#x115;" horiz-adv-x="529" 
d="M275 486q48 0 87 -15q40 -15 70 -50q32 -33 46 -79q16 -46 16 -104v-19h-335q3 -29 14 -53q12 -24 32 -42q21 -18 45 -28q26 -9 56 -9q45 0 90 14q45 13 87 40v-96q-42 -27 -92 -41q-49 -12 -105 -13q-54 1 -99 17q-43 18 -79 51q-36 35 -53 80q-18 46 -18 103
q1 54 16 98q16 45 48 78q33 34 77 51q2 2 4 2q42 15 93 15zM159 285h219q0 27 -8 46q-8 21 -22 36t-32 22t-44 7q-22 0 -42 -8q-20 -6 -36 -23q-16 -15 -25 -36q-9 -20 -10 -44zM104 680h79q10 -30 30 -46q21 -16 51 -16q16 0 29 4q12 4 20 10q10 8 16 19q8 13 12 29h80
q-3 -30 -15 -56q-12 -24 -34 -46q-22 -20 -49 -32q-23 -8 -50 -10h-4h-6q-31 0 -58 9q-26 10 -47 28q-20 21 -34 46q-12 27 -20 61z" />
    <glyph glyph-name="Edot" unicode="&#x116;" horiz-adv-x="570" 
d="M76 698h211h223v-105h-299v-185h288v-106h-288v-196h308v-106h-443v698zM356 839q0 -14 -5 -26q-3 -13 -15 -23q-10 -10 -22 -16q-4 0 -8 -2q-9 -3 -19 -3q-14 1 -26 5q-13 6 -23 16t-16 23q-4 12 -5 26q1 14 5 26q6 13 16 22q10 12 23 15q12 6 26 5q15 1 27 -5
q12 -3 22 -15q12 -9 15 -22q5 -12 5 -26z" />
    <glyph glyph-name="edot" unicode="&#x117;" horiz-adv-x="529" 
d="M275 486q48 0 87 -15q40 -15 70 -50q32 -33 46 -79q16 -46 16 -104v-19h-335q3 -29 14 -53q12 -24 32 -42q21 -18 45 -28q26 -9 56 -9q45 0 90 14q45 13 87 40v-96q-42 -27 -92 -41q-49 -12 -105 -13q-54 1 -99 17q-43 18 -79 51q-36 35 -53 80q-18 46 -18 103
q1 54 16 98q16 45 48 78q33 34 77 51q42 17 93 17h4v0zM159 285h219q0 27 -8 46q-8 21 -22 36t-32 22t-44 7q-22 0 -42 -8q-20 -6 -36 -23q-16 -15 -25 -36q-9 -20 -10 -44zM340 626q0 -14 -5 -26q-4 -12 -16 -23q-9 -9 -22 -16q-11 -5 -24 -5v0h-3q-12 0 -26 5
q-12 7 -23 16q-9 11 -15 23q-4 12 -5 26q1 14 5 26q6 12 15 22q11 12 23 15q14 5 26 5q15 0 27 -5q13 -3 22 -15q12 -10 16 -22q5 -12 5 -26z" />
    <glyph glyph-name="Eogonek" unicode="&#x118;" horiz-adv-x="570" 
d="M76 698h434v-105h-299v-185h288v-106h-288v-196h308v-106h-85q-12 -18 -19 -33q-6 -15 -6 -29q0 -26 14 -39q15 -13 44 -13q13 0 25 3q14 3 26 8v-75q-18 -8 -38 -12t-41 -5q-27 1 -48 7q-20 8 -36 21q-13 15 -22 33q-7 20 -7 43q0 25 9 47t25 44h-284v698z" />
    <glyph glyph-name="eogonek" unicode="&#x119;" horiz-adv-x="529" 
d="M275 486q48 0 87 -15q40 -15 70 -50q32 -33 46 -79q16 -46 16 -104v-19h-335q3 -29 14 -53q12 -24 32 -42q21 -18 45 -28q26 -9 56 -9q45 0 90 14q45 13 87 40v-96q-33 -21 -70 -34q-35 -13 -74 -17q-9 -15 -15 -30q-6 -14 -6 -26q0 -26 15 -39t44 -13q13 0 25 3
q14 3 26 8v-75q-18 -8 -38 -12t-41 -5q-27 1 -48 7q-20 8 -36 21q-13 15 -22 33q-7 20 -7 43q0 22 6 43q8 22 21 40q-50 4 -90 22q-39 20 -73 53q-30 33 -47 77q-15 44 -16 98q1 54 16 98q16 45 48 78q33 34 77 51q45 17 97 17zM159 285h219q0 27 -8 46q-8 21 -22 36t-32 22
t-44 7q-22 0 -42 -8q-20 -6 -36 -23q-16 -15 -25 -36q-9 -20 -10 -44z" />
    <glyph glyph-name="Ecaron" unicode="&#x11a;" horiz-adv-x="570" 
d="M76 698h33h401v-105h-299v-185h288v-106h-288v-196h308v-106h-443v698zM208 751q-24 41 -99 159h77q26 -22 104 -92q26 24 104 92h77q-24 -39 -98 -159h-165z" />
    <glyph glyph-name="ecaron" unicode="&#x11b;" horiz-adv-x="529" 
d="M275 486q48 0 87 -15q40 -15 70 -50q32 -33 46 -79q16 -46 16 -104v-19h-335q3 -29 14 -53q12 -24 32 -42q21 -18 45 -28q26 -9 56 -9q45 0 90 14q45 13 87 40v-96q-42 -27 -92 -41q-49 -12 -105 -13q-54 1 -99 17q-43 18 -79 51q-36 35 -53 80q-18 46 -18 103
q1 54 16 98q16 45 48 78q33 34 77 51h1q3 2 5 2q42 15 91 15zM159 285h219q0 27 -8 46q-8 21 -22 36t-32 22t-44 7q-22 0 -42 -8q-20 -6 -36 -23q-16 -15 -25 -36q-9 -20 -10 -44zM102 699h77q24 -21 96 -89q25 24 95 89h77q-25 -39 -103 -160h-58h-81q-25 40 -103 160z" />
    <glyph glyph-name="Gcircumflex" unicode="&#x11c;" horiz-adv-x="774" 
d="M688 651v-123q-56 36 -118 52q-60 18 -124 17q-58 0 -106 -18q-48 -17 -84 -55q-34 -36 -54 -80q-18 -44 -18 -96q0 -51 18 -96q18 -44 53 -79q37 -35 83 -53q48 -18 103 -18q29 0 62 6t72 18v126h-120v104h247v-308q-66 -28 -133 -43q-67 -14 -139 -14q-90 1 -161 25
q-69 26 -122 77q-49 52 -76 115q-26 63 -26 137q0 77 26 141q27 64 79 116q52 54 123 79q39 15 84 21q3 0 4 1q33 5 70 5q63 0 126 -14q65 -14 131 -43zM228 751q26 41 99 159h163q26 -39 101 -159h-78q-26 22 -104 91q-26 -22 -104 -91h-77z" />
    <glyph glyph-name="gcircumflex" unicode="&#x11d;" horiz-adv-x="482" 
d="M475 477v-84h-92q26 -17 36 -43q12 -26 12 -57t-10 -57q-11 -26 -33 -47q-21 -20 -51 -32q-28 -13 -66 -19q-9 0 -17 -2q-8 0 -13 -3q-5 0 -11 -2q-4 -1 -13 -4q-6 -2 -12 -5q-5 -2 -8 -6q-3 -2 -5 -8q-2 -4 -2 -10q0 -16 29 -28q28 -12 85 -20q82 -10 123 -45t41 -93
q0 -36 -15 -64q-15 -27 -46 -48q-30 -18 -74 -29q-42 -9 -96 -10q-55 1 -99 10q-42 10 -71 28q-29 20 -44 44q-15 26 -15 56q0 49 30 79t88 42q-22 14 -35 28q-11 15 -11 33q0 28 19 46q20 19 56 28q-57 21 -86 59q-27 38 -28 91q0 40 14 72q15 32 43 54q30 23 71 35
q15 4 32 7q28 4 61 4h213zM146 302q0 -18 7 -33q7 -14 19 -26q14 -12 29 -18q17 -6 33 -6q21 0 37 6t28 18q13 12 19 27q8 16 7 35q1 18 -7 32q-6 15 -19 27q-12 12 -28 18q-15 6 -35 6t-35 -6t-29 -20q-12 -12 -19 -27t-7 -33zM116 -95q0 -31 31 -49q31 -16 93 -17
q62 1 92 16q30 16 30 49q0 18 -8 29t-28 20q-18 9 -44 13q-24 4 -58 4q-24 0 -44 -4q-18 -3 -35 -12q-13 -8 -22 -20q-7 -12 -7 -29zM165 699h140q23 -39 91 -160h-75q-21 23 -87 89q-20 -22 -83 -89h-75q22 40 89 160z" />
    <glyph glyph-name="Gbreve" unicode="&#x11e;" horiz-adv-x="774" 
d="M688 651v-123q-56 36 -118 52q-60 18 -124 17q-58 0 -106 -18q-48 -17 -84 -55q-34 -36 -54 -80q-18 -44 -18 -96q0 -51 18 -96q18 -44 53 -79q37 -35 83 -53q48 -18 103 -18q29 0 62 6t72 18v126h-120v104h247v-308q-66 -28 -133 -43q-67 -14 -139 -14q-90 1 -161 25
q-69 26 -122 77q-49 52 -76 115q-26 63 -26 137q0 77 26 141q27 64 79 116q52 54 123 79q15 6 28 9q2 0 2 1q59 17 128 17q63 0 126 -14q65 -14 131 -43zM240 903h85q9 -33 32 -50q23 -15 62 -16q36 1 57 16q24 17 32 50h85q-5 -37 -20 -65t-38 -50q-23 -20 -53 -31
q-28 -9 -62 -10q-2 -1 -3 -1q-37 0 -67 11q-30 10 -54 30q-22 23 -37 51t-19 65z" />
    <glyph glyph-name="gbreve" unicode="&#x11f;" horiz-adv-x="482" 
d="M475 477v-84h-92q26 -17 36 -43q12 -26 12 -57t-10 -57q-11 -26 -33 -47q-21 -20 -51 -32q-28 -13 -66 -19q-9 0 -17 -2q-8 0 -13 -3q-5 0 -11 -2q-4 -1 -13 -4q-6 -2 -12 -5q-5 -2 -8 -6q-3 -2 -5 -8q-2 -4 -2 -10q0 -16 29 -28q28 -12 85 -20q82 -10 123 -45t41 -93
q0 -36 -15 -64q-15 -27 -46 -48q-30 -18 -74 -29q-42 -9 -96 -10q-55 1 -99 10q-42 10 -71 28q-29 20 -44 44q-15 26 -15 56q0 49 30 79t88 42q-22 14 -35 28q-11 15 -11 33q0 28 19 46q20 19 56 28q-57 21 -86 59q-27 38 -28 91q0 40 14 72q15 32 43 54q27 21 63 32
q3 2 5 2q2 1 3 1q42 12 93 11h213zM146 302q0 -18 7 -33q7 -14 19 -26q14 -12 29 -18q17 -6 33 -6q21 0 37 6t28 18q13 12 19 27q8 16 7 35q1 18 -7 32q-6 15 -19 27q-12 12 -28 18q-15 6 -35 6t-35 -6t-29 -20q-12 -12 -19 -27t-7 -33zM116 -95q0 -31 31 -49q31 -16 93 -17
q62 1 92 16q30 16 30 49q0 18 -8 29t-28 20q-18 9 -44 13q-24 4 -58 4q-24 0 -44 -4q-18 -3 -35 -12q-13 -8 -22 -20q-7 -12 -7 -29zM94 680h79q9 -30 29 -46t52 -16q16 0 28 4q14 4 21 10q9 8 16 19q8 13 12 29h80q-3 -30 -15 -56q-12 -24 -35 -46q-21 -20 -48 -32
q-27 -10 -60 -10h-5v0q-28 0 -53 9q-26 10 -48 28q-19 21 -33 46q-14 27 -20 61z" />
    <glyph glyph-name="Gdot" unicode="&#x120;" horiz-adv-x="774" 
d="M688 651v-123q-56 36 -118 52q-60 18 -124 17q-58 0 -106 -18q-48 -17 -84 -55q-34 -36 -54 -80q-18 -44 -18 -96q0 -51 18 -96q18 -44 53 -79q37 -35 83 -53q48 -18 103 -18q29 0 62 6t72 18v126h-120v104h247v-308q-66 -28 -133 -43q-67 -14 -139 -14q-90 1 -161 25
q-69 26 -122 77q-49 52 -76 115q-26 63 -26 137q0 77 26 141q27 64 79 116q52 54 123 79q69 27 151 27h7q63 0 126 -14q65 -14 131 -43zM492 839q0 -14 -5 -26q-4 -13 -16 -23q-9 -10 -22 -16q-11 -4 -26 -5v0h-1q-14 1 -26 5q-12 6 -23 16q-9 10 -15 23q-6 12 -6 26t6 26
q6 13 15 22q11 12 23 15q12 6 26 5q15 1 27 -5q13 -3 22 -15q12 -9 16 -22q5 -12 5 -26z" />
    <glyph glyph-name="gdot" unicode="&#x121;" horiz-adv-x="482" 
d="M475 477v-84h-92q26 -17 36 -43q12 -26 12 -57t-10 -57q-11 -26 -33 -47q-21 -20 -51 -32q-28 -13 -66 -19q-9 0 -17 -2q-8 0 -13 -3q-5 0 -11 -2q-4 -1 -13 -4q-6 -2 -12 -5q-5 -2 -8 -6q-3 -2 -5 -8q-2 -4 -2 -10q0 -16 29 -28q28 -12 85 -20q82 -10 123 -45t41 -93
q0 -36 -15 -64q-15 -27 -46 -48q-30 -18 -74 -29q-42 -9 -96 -10q-55 1 -99 10q-42 10 -71 28q-29 20 -44 44q-15 26 -15 56q0 49 30 79t88 42q-22 14 -35 28q-11 15 -11 33q0 28 19 46q20 19 56 28q-57 21 -86 59q-27 38 -28 91q0 40 14 72q15 32 43 54q30 23 71 35
q34 9 76 11h17h213zM146 302q0 -18 7 -33q7 -14 19 -26q14 -12 29 -18q17 -6 33 -6q21 0 37 6t28 18q13 12 19 27q8 16 7 35q1 18 -7 32q-6 15 -19 27q-12 12 -28 18q-15 6 -35 6t-35 -6t-29 -20q-12 -12 -19 -27t-7 -33zM116 -95q0 -31 31 -49q31 -16 93 -17q62 1 92 16
q30 16 30 49q0 18 -8 29t-28 20q-18 9 -44 13q-24 4 -58 4q-24 0 -44 -4q-18 -3 -35 -12q-13 -8 -22 -20q-7 -12 -7 -29zM306 626q0 -14 -5 -26t-15 -23q-9 -9 -23 -16q-11 -5 -26 -5q-13 0 -27 5q-12 7 -23 16q-9 11 -15 23q-4 12 -5 26q1 14 5 26q6 12 15 22q11 12 23 15
q14 5 27 5q15 0 26 -5q14 -3 23 -15q10 -10 15 -22t5 -26z" />
    <glyph glyph-name="Gcedilla" unicode="&#x122;" horiz-adv-x="774" 
d="M688 651v-123q-56 36 -118 52q-60 18 -124 17q-58 0 -106 -18q-48 -17 -84 -55q-34 -36 -54 -80q-18 -44 -18 -96q0 -51 18 -96q18 -44 53 -79q37 -35 83 -53q48 -18 103 -18q29 0 62 6t72 18v126h-120v104h247v-308q-66 -28 -133 -43q-67 -14 -139 -14q-38 1 -74 4
q-46 7 -87 21q-69 26 -122 77q-49 52 -76 115q-26 63 -26 137q0 77 26 141q27 64 79 116q52 54 123 79q71 27 158 27q63 0 126 -14q65 -14 131 -43zM321 -268v18q27 10 42 28t15 43q-12 2 -22 5q-9 4 -18 11q-6 9 -11 19q-3 10 -3 22q0 16 5 28q6 12 15 21q12 11 23 15
q13 6 27 5h5q15 -1 25 -5q15 -4 25 -18q10 -10 16 -27q5 -15 5 -35q0 -26 -10 -49q-9 -21 -30 -40q-20 -18 -47 -28q-27 -9 -62 -13z" />
    <glyph glyph-name="gcedilla" unicode="&#x123;" horiz-adv-x="482" 
d="M475 477v-84h-92q26 -17 36 -43q12 -26 12 -57t-10 -57q-11 -26 -33 -47q-21 -20 -51 -32q-28 -13 -66 -19q-9 0 -17 -2q-8 0 -13 -3q-5 0 -11 -2q-4 -1 -13 -4q-6 -2 -12 -5q-5 -2 -8 -6q-3 -2 -5 -8q-2 -4 -2 -10q0 -16 29 -28q28 -12 85 -20q82 -10 123 -45t41 -93
q0 -36 -15 -64q-15 -27 -46 -48q-30 -18 -74 -29q-42 -9 -96 -10q-55 1 -99 10q-42 10 -71 28q-29 20 -44 44q-15 26 -15 56q0 49 30 79t88 42q-22 14 -35 28q-11 15 -11 33q0 28 19 46q20 19 56 28q-57 21 -86 59q-27 38 -28 91q0 40 14 72q15 32 43 54q30 23 71 35
q42 12 93 11h43h170zM146 302q0 -18 7 -33q7 -14 19 -26q14 -12 29 -18q17 -6 33 -6q21 0 37 6t28 18q13 12 19 27q8 16 7 35q1 18 -7 32q-6 15 -19 27q-12 12 -28 18q-15 6 -35 6t-35 -6t-29 -20q-12 -12 -19 -27t-7 -33zM116 -95q0 -31 31 -49q31 -16 93 -17q62 1 92 16
q30 16 30 49q0 18 -8 29t-28 20q-18 9 -44 13q-24 4 -58 4q-24 0 -44 -4q-18 -3 -35 -12q-13 -8 -22 -20q-7 -12 -7 -29zM305 752q3 -3 6 -12q-14 -9 -23 -19q-8 -9 -16 -19q-4 -8 -8 -20q-2 -12 -5 -27q13 0 22 -6q9 -3 16 -12q9 -8 11 -17q3 -9 3 -21q0 -13 -4 -23
q-3 -10 -14 -20q-9 -8 -21 -13q-10 -3 -25 -4h-1h-1q-14 0 -26 6q-13 6 -23 16q-10 12 -16 26q-4 15 -5 30q0 23 9 43q8 20 26 40q18 21 42 33q24 13 53 19z" />
    <glyph glyph-name="Hcircumflex" unicode="&#x124;" horiz-adv-x="790" 
d="M76 698h135v-287h368v287h135v-698h-135v294h-368v-294h-135v698zM214 751q26 41 98 159h164q26 -39 101 -159h-78q-25 22 -105 91q-26 -22 -103 -91h-77z" />
    <glyph glyph-name="hcircumflex" unicode="&#x125;" horiz-adv-x="559" 
d="M337 486q42 0 72 -12q31 -12 51 -38q22 -24 31 -60q10 -36 10 -80v-296h-120v286q0 52 -21 78t-63 25q-30 1 -58 -17q-29 -16 -56 -51v-321h-120v698h120v-285q33 37 71 55t83 18zM210 900h140q24 -39 91 -161h-75q-22 23 -86 89q-21 -21 -84 -89h-75q23 41 89 161z" />
    <glyph glyph-name="Hbar" unicode="&#x126;" horiz-adv-x="790" 
d="M76 698h135v-103h368v103h135v-103h76v-81h-76v-514h-135v294h-368v-294h-135v514h-76v81h76v103zM211 411h368v103h-368v-103z" />
    <glyph glyph-name="hbar" unicode="&#x127;" horiz-adv-x="559" 
d="M337 481q42 0 72 -12q31 -11 51 -38q22 -24 31 -60q10 -34 10 -79v-292h-120v281q0 52 -21 78q-21 27 -63 26q-28 1 -58 -17q-27 -16 -56 -53v-315h-120v557h-73v64h73v77h120v-77h176v-64h-176v-149q33 36 71 55q38 18 83 18z" />
    <glyph glyph-name="Itilde" unicode="&#x128;" horiz-adv-x="287" 
d="M76 698h135v-698h-135v698zM73 886q15 0 34 -5q21 -4 47 -16q27 -9 43 -15q16 -4 22 -5q17 1 26 10q10 11 12 31h59q0 -30 -7 -55q-6 -23 -21 -41q-14 -16 -32 -26q-18 -9 -40 -9q-12 1 -31 5q-19 6 -46 15q-25 12 -43 16q-16 5 -26 5q-16 0 -26 -10q-8 -10 -11 -31h-62
q2 31 8 55q7 24 22 41q15 18 33 26q18 9 39 9z" />
    <glyph glyph-name="itilde" unicode="&#x129;" horiz-adv-x="246" 
d="M63 477h120v-477h-120v477zM52 682q15 0 35 -5q21 -5 46 -15q27 -10 43 -16q18 -4 23 -5q17 1 26 11t12 30h59q0 -30 -7 -55q-7 -23 -22 -41q-14 -16 -32 -26q-18 -9 -39 -9h-1q1 0 -1 0q-12 1 -30 5l-45 15q-25 12 -43 16q-18 5 -27 5q-15 0 -25 -10q-9 -10 -12 -31h-61
q2 31 8 55q7 24 22 41q15 18 33 26q18 9 38 9z" />
    <glyph glyph-name="Imacron" unicode="&#x12a;" horiz-adv-x="287" 
d="M76 698h135v-698h-135v698zM-3 785v85h294v-85h-80h-214z" />
    <glyph glyph-name="imacron" unicode="&#x12b;" horiz-adv-x="246" 
d="M63 477h120v-477h-120v477zM-24 662h294v-87h-87h-207v87z" />
    <glyph glyph-name="Ibreve" unicode="&#x12c;" horiz-adv-x="287" 
d="M76 698h135v-698h-135v698zM-33 903h85q9 -33 33 -50q23 -15 61 -16q36 1 58 16q22 17 32 50h85q-5 -37 -20 -65t-39 -50q-22 -20 -53 -31q-22 -7 -49 -10q-3 1 -6 -1h-10q-36 0 -67 11q-29 10 -53 30q-22 23 -38 51q-14 28 -19 65z" />
    <glyph glyph-name="ibreve" unicode="&#x12d;" horiz-adv-x="246" 
d="M63 477h120v-477h-120v477zM-35 680h79q9 -30 29 -46q21 -16 52 -16q16 0 28 4q13 4 21 10q10 8 16 19q8 13 12 29h80q-3 -30 -15 -56q-11 -24 -35 -46q-21 -20 -48 -32q-21 -8 -45 -10h-15q-32 0 -58 9q-26 10 -48 28q-20 21 -33 46q-14 27 -20 61z" />
    <glyph glyph-name="Iogonek" unicode="&#x12e;" horiz-adv-x="287" 
d="M76 698h135v-698h-63q-12 -18 -18 -33t-7 -29q0 -26 14 -39q15 -13 44 -13q13 0 25 3q14 3 26 8v-75q-18 -8 -38 -12t-40 -5q-28 1 -49 7q-20 8 -35 21q-14 15 -23 33q-7 20 -7 43q0 26 9 48q9 23 27 44v697z" />
    <glyph glyph-name="iogonek" unicode="&#x12f;" horiz-adv-x="246" 
d="M63 477h60h60v-477h-47q-12 -18 -19 -33q-6 -15 -6 -29q0 -26 14 -39q15 -13 44 -13q13 0 25 3q14 3 26 8v-75q-18 -8 -38 -12t-41 -5q-27 1 -48 7q-20 8 -36 21q-13 15 -22 33q-7 20 -7 43q0 26 9 48q9 23 26 44v476zM184 610q0 -12 -4 -23q-4 -9 -13 -20q-9 -9 -20 -14
q-9 -3 -22 -4q1 0 -1 0h-1q-11 1 -23 4q-10 5 -20 14q-9 11 -13 20q-5 11 -5 23q0 14 5 23q4 10 13 19q10 10 20 14q12 6 23 5q14 0 23 -4q12 -3 20 -14q10 -9 14 -20q4 -9 4 -23z" />
    <glyph glyph-name="Idotaccent" unicode="&#x130;" horiz-adv-x="287" 
d="M76 698h62h73v-698h-135v698zM208 839q0 -14 -5 -26q-4 -13 -16 -23q-9 -10 -22 -16q-9 -3 -20 -5h-7q-14 1 -26 5q-12 6 -23 16q-9 10 -15 23q-4 12 -5 26q1 14 5 26q6 13 15 22q11 12 23 15q12 6 26 5q15 1 27 -5q13 -3 22 -15q12 -9 16 -22q5 -12 5 -26z" />
    <glyph glyph-name="dotlessi" unicode="&#x131;" horiz-adv-x="246" 
d="M63 477h120v-477h-120v477z" />
    <glyph glyph-name="IJ" unicode="&#x132;" horiz-adv-x="591" 
d="M76 698h135v-698h-135v698zM380 698h135v-669q1 -66 -11 -116q-10 -49 -34 -82q-22 -31 -62 -47t-98 -16q-12 0 -24 1q-10 1 -22 3q-8 39 -23 117q47 1 74 7q28 6 40 19q13 15 19 45q6 32 6 80v658z" />
    <glyph glyph-name="ij" unicode="&#x133;" horiz-adv-x="505" 
d="M187 610q0 -12 -4 -23q-3 -9 -13 -20q-8 -9 -20 -14q-4 -1 -9 -3h-1q-6 0 -14 -1q-12 1 -23 4q-11 5 -20 14q-9 11 -13 20q-4 11 -4 23q0 14 4 23q4 10 13 19q9 10 20 14q11 6 23 5q14 0 23 -4q11 -3 20 -14q9 -9 14 -20q4 -9 4 -23zM67 477h119v-477h-119v477zM317 477
h120v-511q1 -44 -7 -78q-6 -32 -22 -56q-16 -22 -40 -40q-24 -16 -57 -30q-21 30 -65 90q20 8 32 17q14 10 22 22q10 15 13 34q4 21 4 49v503zM376 671q14 1 24 -5q10 -4 19 -14q9 -9 13 -19q4 -9 4 -23q0 -12 -3 -24q-3 -10 -13 -20q-9 -8 -19 -13q-10 -3 -25 -4
q-12 1 -23 4q-11 5 -20 14q-9 11 -14 20q-5 11 -5 23q0 14 5 23q5 10 14 19q9 10 20 14q11 6 23 5z" />
    <glyph glyph-name="Jcircumflex" unicode="&#x134;" horiz-adv-x="292" 
d="M81 698h135v-669q0 -66 -11 -116q-10 -49 -34 -82q-21 -31 -62 -47q-39 -16 -98 -16q-12 0 -24 1q-10 1 -22 3q-8 39 -23 117q46 1 74 7t40 19q14 15 19 45q6 32 6 80v658zM-36 751q26 41 98 159h164q26 -39 101 -159h-78q-25 22 -105 91q-24 -22 -103 -91h-30h-47z" />
    <glyph glyph-name="jcircumflex" unicode="&#x135;" horiz-adv-x="246" 
d="M63 477h120v-511q1 -44 -7 -78q-6 -32 -22 -56q-16 -22 -40 -40q-22 -16 -56 -30q-20 30 -65 90q19 8 33 17q14 10 21 22q9 15 13 34q3 21 3 49v503zM52 699h141q22 -39 91 -160h-76q-22 23 -86 89q-21 -22 -84 -89h-75q23 40 89 160z" />
    <glyph glyph-name="Kcedilla" unicode="&#x136;" horiz-adv-x="712" 
d="M76 698h136v-320l280 320h157q-71 -81 -289 -329q90 -93 354 -369h-175q-81 87 -327 342v-342h-136v698zM273 -268v18q28 10 43 28t15 43q-13 2 -23 5q-9 4 -17 11q-7 9 -11 19t-4 22q0 16 6 28t15 21q11 11 23 15q2 2 2 1q2 0 1 0q12 4 24 4q18 1 30 -5q15 -4 24 -18
q11 -10 17 -27q6 -15 5 -35q0 -26 -10 -49q-9 -21 -30 -40q-20 -18 -48 -28q-27 -9 -62 -13z" />
    <glyph glyph-name="kcedilla" unicode="&#x137;" horiz-adv-x="548" 
d="M63 698h121v-698h-121v698zM386 477h143q-49 -57 -196 -229q59 -62 231 -248h-156q-54 62 -221 245q51 58 199 232zM208 -268v18q28 10 42 28q15 18 15 43q-12 2 -22 5q-9 4 -18 11q-7 9 -10 19t-4 22q1 16 5 28q6 12 15 21q12 11 24 15q3 2 6 2q2 0 2 1q9 3 19 2
q16 1 30 -5q14 -4 24 -18q12 -10 16 -27q6 -15 5 -35q0 -26 -9 -49q-10 -21 -31 -40q-20 -18 -47 -28q-28 -9 -62 -13z" />
    <glyph glyph-name="kgreenlandic" unicode="&#x138;" horiz-adv-x="548" 
d="M63 477h120v-225q49 57 195 225h143q-48 -57 -198 -230q58 -61 232 -247h-156q-54 60 -216 239v-239h-120v477z" />
    <glyph glyph-name="Lacute" unicode="&#x139;" horiz-adv-x="545" 
d="M76 698h102h34v-582h315v-116h-451v698zM93 751q21 41 85 159h153q-39 -39 -160 -159h-78z" />
    <glyph glyph-name="lacute" unicode="&#x13a;" horiz-adv-x="246" 
d="M63 698h60h60v-698h-120v698zM123 900h138q-33 -39 -137 -161h-75q20 41 74 161z" />
    <glyph glyph-name="Lcedilla" unicode="&#x13b;" horiz-adv-x="545" 
d="M76 698h136v-582h315v-116h-314h-137v698zM213 -268v18q28 10 42 28q15 18 15 43q-12 2 -22 5q-9 4 -18 11q-6 9 -10 19t-4 22q0 16 5 28q7 12 16 21q11 11 23 15q4 2 8 2q2 2 4 1q8 3 15 2q18 1 30 -5q14 -4 24 -18q12 -10 16 -27q5 -15 5 -35q0 -26 -9 -49
q-9 -21 -30 -40q-20 -18 -48 -28q-27 -9 -62 -13z" />
    <glyph glyph-name="lcedilla" unicode="&#x13c;" horiz-adv-x="246" 
d="M63 698h120v-698h-120v698zM45 -268v18q28 10 42 28q15 18 15 43q-12 2 -22 5q-9 4 -18 11q-6 9 -10 19t-4 22q0 16 5 28q7 12 16 21q11 11 23 15q10 4 21 5h6q18 1 30 -5q14 -4 24 -18q12 -10 16 -27q6 -15 6 -35q0 -26 -10 -49q-9 -21 -30 -40q-20 -18 -48 -28
q-27 -9 -62 -13z" />
    <glyph glyph-name="Lcaron" unicode="&#x13d;" horiz-adv-x="545" 
d="M76 698h136v-582h315v-116h-451v698zM323 459v19q29 10 44 34t16 60q-12 3 -22 6q-9 4 -18 13q-8 9 -11 20q-4 12 -4 24q0 18 5 30q6 14 16 23q12 12 24 16q13 6 28 5q17 1 31 -7q15 -6 25 -18t16 -29q5 -15 5 -38q0 -31 -10 -58t-33 -50q-21 -21 -50 -35q-4 -2 -10 -4
q-1 0 -4 -1q-22 -7 -48 -10z" />
    <glyph glyph-name="lcaron" unicode="&#x13e;" horiz-adv-x="382" 
d="M63 698h120v-698h-120v698zM242 459v19q30 10 44 34q16 24 16 60q-12 3 -22 6q-9 4 -18 13q-8 9 -11 20q-3 12 -4 24q1 18 5 30q6 14 16 23q12 12 24 16q14 6 29 5q16 1 30 -7q15 -6 25 -18q12 -12 16 -29q6 -15 5 -38q0 -31 -10 -58q-9 -27 -33 -50q-21 -21 -49 -35
q-29 -12 -63 -15z" />
    <glyph glyph-name="Ldot" unicode="&#x13f;" horiz-adv-x="545" 
d="M76 698h136v-582h315v-116h-451v698zM480 368q0 -14 -5 -26q-3 -12 -15 -24q-10 -9 -22 -15q-12 -5 -27 -5q-14 0 -26 5q-12 6 -24 15q-9 12 -15 24q-4 12 -5 26q1 14 5 26q6 12 15 22q12 10 24 15t26 5q15 0 27 -5t22 -15q12 -10 15 -22q5 -12 5 -26z" />
    <glyph glyph-name="ldot" unicode="&#x140;" horiz-adv-x="357" 
d="M63 698h120v-698h-120v698zM373 369q1 -14 -5 -26q-4 -12 -16 -24q-10 -9 -22 -15q-12 -4 -27 -5q-14 1 -26 5q-11 6 -23 15q-9 12 -15 24t-6 26t6 26q6 13 15 22q12 12 23 15q12 6 26 5q15 1 27 -5q12 -3 22 -15q12 -9 16 -22q6 -12 5 -26z" />
    <glyph glyph-name="Lslash" unicode="&#x141;" horiz-adv-x="550" 
d="M80 698h135v-253q36 29 138 111v-103q-33 -28 -138 -115v-222h316v-116h-451v236q-22 -18 -91 -73v107q23 20 91 74v354z" />
    <glyph glyph-name="lslash" unicode="&#x142;" horiz-adv-x="246" 
d="M63 698h120v-258q19 16 76 62v-90q-19 -15 -76 -63v-349h-120v258q-19 -15 -76 -61v90q19 15 76 62v349z" />
    <glyph glyph-name="Nacute" unicode="&#x143;" horiz-adv-x="833" 
d="M76 698h115q110 -123 434 -492v492h132v-698h-119q-108 123 -430 489v-489h-132v698zM353 751q22 41 85 159h153q-39 -39 -160 -159h-78z" />
    <glyph glyph-name="nacute" unicode="&#x144;" horiz-adv-x="559" 
d="M336 486q42 0 71 -13q31 -12 52 -39q21 -26 31 -62q12 -36 11 -82v-290h-120v278q0 56 -22 83q-21 28 -66 28q-32 1 -59 -17q-27 -16 -51 -53v-319h-120v477h120v-63q33 38 72 54q27 14 55 17q14 1 26 1zM282 699h138q-33 -39 -137 -160h-75q18 40 74 160z" />
    <glyph glyph-name="Ncedilla" unicode="&#x145;" horiz-adv-x="833" 
d="M76 698h115q110 -123 434 -492v492h132v-698h-119q-108 123 -430 489v-489h-132v698zM335 -268v18q27 10 42 28t15 43q-12 2 -22 5q-9 4 -18 11q-6 9 -10 19t-4 22q0 16 5 28q6 12 15 21q12 11 22 15q2 0 1 0h1q12 6 27 5q16 1 30 -5q14 -4 24 -18q12 -10 16 -27
q5 -15 5 -35q0 -26 -9 -49q-9 -21 -31 -40q-20 -18 -47 -28q-27 -9 -62 -13z" />
    <glyph glyph-name="ncedilla" unicode="&#x146;" horiz-adv-x="559" 
d="M336 486q42 0 71 -13q31 -12 52 -39q21 -26 31 -62q12 -36 11 -82v-290h-120v278q0 56 -22 83q-21 28 -66 28q-32 1 -59 -17q-27 -16 -51 -53v-319h-120v477h120v-63q33 38 72 54q39 18 81 18zM204 -268v18q27 10 42 28t15 43q-12 2 -22 5q-9 4 -18 11q-7 9 -10 19t-4 22
q1 16 5 28q6 12 15 21q11 11 23 15q14 6 28 5h4q2 -1 5 -1q12 0 21 -4q14 -4 24 -18q12 -10 16 -27q6 -15 5 -35q0 -26 -9 -49q-10 -21 -31 -40q-20 -18 -47 -28q-28 -9 -62 -13z" />
    <glyph glyph-name="Ncaron" unicode="&#x147;" horiz-adv-x="833" 
d="M76 698h115q110 -123 434 -492v492h132v-698h-119q-108 123 -430 489v-489h-132v698zM332 751q-24 41 -100 159h78q26 -22 104 -92q26 24 104 92h77q-24 -39 -98 -159h-165z" />
    <glyph glyph-name="ncaron" unicode="&#x148;" horiz-adv-x="559" 
d="M336 486q42 0 71 -13q31 -12 52 -39q21 -26 31 -62q12 -36 11 -82v-290h-120v278q0 56 -22 83q-21 28 -66 28q-32 1 -59 -17q-27 -16 -51 -53v-319h-120v477h47h73v-63q33 38 72 54q39 18 81 18zM110 699h76q24 -21 97 -89q24 24 94 89h78q-26 -39 -104 -160h-139
q-26 40 -102 160z" />
    <glyph glyph-name="napostrophe" unicode="&#x149;" horiz-adv-x="690" 
d="M467 486q41 0 71 -13q32 -12 52 -39q22 -26 32 -62t10 -82v-290h-120v278q0 56 -22 83q-21 28 -66 28q-32 1 -59 -17q-27 -16 -51 -53v-319h-119v477h119v-63q33 38 72 54q39 18 81 18zM76 708q21 0 36 -9q16 -7 28 -25q14 -16 19 -37q6 -21 6 -45q0 -30 -10 -59
q-9 -27 -32 -56v0q-2 -1 -5 -4q-18 -19 -42 -34q-28 -17 -68 -26v23q28 20 40 49q14 29 13 68q-30 9 -46 27q-15 21 -15 49q0 18 5 30q7 15 17 25q12 12 25 18q14 6 29 6z" />
    <glyph glyph-name="Eng" unicode="&#x14a;" horiz-adv-x="791" 
d="M479 105q28 0 48 8q21 7 32 21q13 16 19 38q8 24 7 53v176q1 47 -11 80q-10 36 -31 60q-21 25 -53 37q-32 14 -74 13q-28 1 -57 -7q-27 -6 -56 -23q-27 -15 -49 -37q-21 -22 -39 -52v-472h-135v698h135v-93q49 53 106 77q59 26 125 26q64 0 114 -19q50 -18 86 -57
q38 -38 55 -92q19 -52 19 -122v-188q0 -54 -13 -99q-13 -43 -40 -76q-25 -32 -67 -48q-40 -15 -95 -16q-15 1 -28 1q-13 2 -25 3q-6 39 -19 115q12 -2 24 -3q12 -2 22 -2z" />
    <glyph glyph-name="eng" unicode="&#x14b;" horiz-adv-x="559" 
d="M336 486q39 0 69 -12q31 -12 52 -38q23 -24 33 -63q12 -38 11 -89v-306q1 -45 -8 -81q-8 -35 -23 -61q-15 -24 -39 -43q-23 -17 -56 -31q-21 30 -66 90q22 10 36 23q15 12 21 27q8 16 11 40q3 26 3 60v276q0 32 -6 53q-4 21 -18 34q-10 12 -27 18q-15 6 -36 6
q-31 1 -58 -17q-27 -16 -51 -53v-319h-121v477h121v-63q34 38 72 54q38 18 80 18z" />
    <glyph glyph-name="Omacron" unicode="&#x14c;" horiz-adv-x="852" 
d="M426 708q86 0 154 -26q70 -24 121 -77q53 -51 80 -114t26 -141q1 -74 -26 -138q-24 -62 -78 -116q-51 -52 -122 -79q-69 -26 -159 -26q-84 0 -153 26q-67 27 -121 78q-50 53 -77 116q-26 63 -26 137q0 34 6 67t18 64q13 33 29 61q18 28 40 54q24 26 53 47q31 21 67 36
q30 13 60 19l20 4q42 8 88 8zM423 113q54 1 98 16t78 46q35 33 53 75q18 44 17 100q0 48 -16 89q-15 42 -49 76q-32 35 -77 53q-43 18 -100 18q-54 0 -99 -17q-44 -15 -78 -50q-32 -33 -50 -76q-16 -43 -17 -95q1 -51 17 -93q18 -42 52 -76q36 -33 78 -50q42 -15 93 -16z
M279 785v85h293v-85h-150h-143z" />
    <glyph glyph-name="omacron" unicode="&#x14d;" horiz-adv-x="594" 
d="M294 387q-28 0 -53 -10q-22 -9 -42 -30q-19 -20 -29 -47q-9 -28 -9 -61t9 -62q10 -27 29 -47q20 -20 44 -30q25 -10 55 -10q32 0 55 11q25 10 43 30q20 21 28 48q9 27 9 60q0 36 -9 63q-9 28 -30 46q-20 21 -45 30q-23 9 -55 9zM298 486q58 0 106 -17t82 -51
q36 -34 54 -79t18 -100q0 -59 -19 -104t-58 -79q-38 -32 -84 -49q-47 -15 -101 -16q-60 0 -108 18t-83 54q-33 38 -51 80q-16 45 -17 94q0 55 18 99q17 44 53 80t82 53q8 3 16 5v0q42 12 92 12zM151 662h293v-87h-148h-145v87z" />
    <glyph glyph-name="Obreve" unicode="&#x14e;" horiz-adv-x="852" 
d="M426 708q86 0 154 -26q70 -24 121 -77q53 -51 80 -114t26 -141q1 -74 -26 -138q-24 -62 -78 -116q-51 -52 -122 -79q-69 -26 -159 -26q-84 0 -153 26q-67 27 -121 78q-50 53 -77 116q-26 63 -26 137q0 34 6 67t18 64q13 33 29 61q18 28 40 54q24 26 53 47q31 21 67 36
q24 9 47 16q17 4 33 7q42 8 88 8zM423 113q54 1 98 16t78 46q35 33 53 75q18 44 17 100q0 48 -16 89q-15 42 -49 76q-32 35 -77 53q-43 18 -100 18q-54 0 -99 -17q-44 -15 -78 -50q-32 -33 -50 -76q-16 -43 -17 -95q1 -51 17 -93q18 -42 52 -76q36 -33 78 -50q42 -15 93 -16
zM249 903h85q10 -33 32 -50q24 -15 62 -16q36 1 58 16q22 17 31 50h85q-4 -37 -20 -65q-14 -28 -38 -50q-22 -20 -53 -31q-29 -11 -65 -11h-1q-36 2 -66 11q-30 10 -54 30q-22 23 -37 51t-19 65z" />
    <glyph glyph-name="obreve" unicode="&#x14f;" horiz-adv-x="594" 
d="M294 387q-28 0 -53 -10q-22 -9 -42 -30q-19 -20 -29 -47q-9 -28 -9 -61t9 -62q10 -27 29 -47q20 -20 44 -30q25 -10 55 -10q32 0 55 11q25 10 43 30q20 21 28 48q9 27 9 60q0 36 -9 63q-9 28 -30 46q-20 21 -45 30q-23 9 -55 9zM298 486q58 0 106 -17t82 -51
q36 -34 54 -79t18 -100q0 -59 -19 -104t-58 -79q-38 -32 -84 -49q-47 -15 -101 -16q-60 0 -108 18t-83 54q-33 38 -51 80q-16 45 -17 94q0 55 18 99q17 44 53 80t82 53q8 3 13 4q44 13 95 13zM139 680h79q9 -30 29 -46q21 -16 52 -16q16 0 28 4q13 4 21 10q10 8 16 19
q8 13 12 29h80q-3 -30 -15 -56q-12 -24 -34 -46q-21 -20 -49 -32q-27 -10 -60 -10h-1q-30 0 -57 9q-26 10 -47 28q-21 21 -34 46q-14 27 -20 61z" />
    <glyph glyph-name="Odblacute" unicode="&#x150;" horiz-adv-x="852" 
d="M426 708q86 0 154 -26q70 -24 121 -77q53 -51 80 -114t26 -141q1 -74 -26 -138q-24 -62 -78 -116q-51 -52 -122 -79q-69 -26 -159 -26q-84 0 -153 26q-67 27 -121 78q-50 53 -77 116q-26 63 -26 137q0 34 6 67t18 64q13 33 29 61q18 28 40 54q24 26 53 47q31 21 67 36
q38 15 80 23q16 3 34 5q27 3 54 3zM423 113q54 1 98 16t78 46q35 33 53 75q18 44 17 100q0 48 -16 89q-15 42 -49 76q-32 35 -77 53q-43 18 -100 18q-54 0 -99 -17q-44 -15 -78 -50q-32 -33 -50 -76q-16 -43 -17 -95q1 -51 17 -93q18 -42 52 -76q36 -33 78 -50
q42 -15 93 -16zM292 751q15 41 57 159h143q-33 -39 -132 -159h-68zM481 751q15 41 59 159h141q-33 -39 -131 -159h-69z" />
    <glyph glyph-name="odblacute" unicode="&#x151;" horiz-adv-x="594" 
d="M294 387q-28 0 -53 -10q-22 -9 -42 -30q-19 -20 -29 -47q-9 -28 -9 -61t9 -62q10 -27 29 -47q20 -20 44 -30q25 -10 55 -10q32 0 55 11q25 10 43 30q20 21 28 48q9 27 9 60q0 36 -9 63q-9 28 -30 46q-20 21 -45 30q-23 9 -55 9zM298 486q58 0 106 -17t82 -51
q36 -34 54 -79t18 -100q0 -59 -19 -104t-58 -79q-38 -32 -84 -49q-47 -15 -101 -16q-60 0 -108 18t-83 54q-33 38 -51 80q-16 45 -17 94q0 55 18 99q17 44 53 80t82 53q36 13 75 16q17 1 33 1zM246 695h136l-136 -156h-72zM432 695h135q-33 -39 -136 -156h-73q20 39 74 156z
" />
    <glyph glyph-name="OE" unicode="&#x152;" horiz-adv-x="995" 
d="M447 698h487v-104h-291v-185h279v-107h-279v-198h300v-104h-502q-91 0 -163 24t-126 71q-52 49 -80 112q-27 64 -27 142q1 84 28 147q27 64 82 110q56 46 128 69q74 23 164 23zM185 349q0 -57 18 -101q19 -45 55 -78q38 -32 89 -49q52 -17 120 -17h41v490h-36
q-68 0 -120 -15t-91 -47q-37 -30 -57 -76q-18 -45 -19 -107z" />
    <glyph glyph-name="oe" unicode="&#x153;" horiz-adv-x="896" 
d="M475 408q35 39 75 59q42 19 91 19q50 0 89 -16q40 -16 70 -50q30 -33 45 -79q15 -45 15 -104v-18h-326q3 -30 13 -54q12 -24 32 -42q21 -18 46 -27t55 -9q42 0 85 14q44 13 86 40v-97q-47 -26 -95 -40q-48 -12 -99 -13q-55 0 -100 20q-45 21 -78 61q-32 -40 -78 -61
q-46 -20 -108 -20q-59 1 -105 17q-46 18 -82 50q-34 36 -52 79q-16 45 -17 97q1 57 17 101q18 45 52 81q36 36 82 53t104 17t103 -19q47 -20 80 -59zM534 285h215q-3 27 -11 47q-6 20 -21 35q-13 15 -33 22q-18 7 -42 7q-22 0 -42 -7q-18 -7 -34 -23q-14 -15 -23 -36
q-7 -21 -9 -45zM292 90q30 0 54 10t41 31q19 22 27 48q9 27 9 60q0 39 -10 66q-9 30 -31 46q-20 19 -44 27q-22 9 -48 9q-28 0 -52 -10q-22 -9 -41 -30q-18 -20 -27 -47t-9 -61q0 -33 8 -62q9 -27 28 -47q18 -20 42 -30q25 -10 53 -10z" />
    <glyph glyph-name="Racute" unicode="&#x154;" horiz-adv-x="659" 
d="M76 698h219h18q57 0 97 -13q42 -13 72 -43q32 -27 46 -65q15 -35 15 -80q1 -61 -29 -105q-28 -44 -87 -68q17 -10 31 -22q16 -12 26 -26q14 -12 29 -37q16 -24 36 -58q37 -59 107 -181h-152q-24 42 -96 166q-21 38 -42 64q-20 26 -37 38q-16 14 -37 20q-20 6 -42 6h-39
v-294h-135v698zM211 596v-203h69q30 0 52 6q24 7 40 17q18 12 25 31q9 21 9 49q0 24 -8 42q-6 18 -21 31q-14 15 -35 21t-49 6h-82zM210 751q22 41 85 159h152l-159 -159h-78z" />
    <glyph glyph-name="racute" unicode="&#x155;" horiz-adv-x="430" 
d="M324 486q26 0 53 -11t54 -37q-18 -36 -54 -112q-21 22 -43 32q-22 12 -43 11q-19 0 -37 -9q-18 -8 -35 -26q-15 -18 -26 -42q-9 -24 -14 -54v-238h-120v477h120v-111q34 60 70 90q24 21 48 27q13 3 27 3zM237 699h138q-35 -39 -137 -160h-59h-16q18 40 74 160z" />
    <glyph glyph-name="Rcedilla" unicode="&#x156;" horiz-adv-x="659" 
d="M76 698h237q57 0 97 -13q42 -13 72 -43q32 -27 46 -65q15 -35 15 -80q1 -61 -29 -105q-28 -44 -87 -68q17 -10 31 -22q16 -12 26 -26q14 -12 29 -37q16 -24 36 -58q37 -59 107 -181h-152q-24 42 -96 166q-21 38 -42 64q-20 26 -37 38q-16 14 -37 20q-20 6 -42 6h-39v-294
h-135v698zM211 596v-203h69q30 0 52 6q24 7 40 17q18 12 25 31q9 21 9 49q0 24 -8 42q-6 18 -21 31q-14 15 -35 21t-49 6h-82zM268 -268v18q28 10 42 28q16 18 16 43q-12 2 -23 5q-9 4 -17 11q-6 9 -11 19q-3 10 -4 22q0 16 6 28t15 21q12 11 24 15v0q2 2 3 1q11 4 23 4
q18 1 30 -5q15 -4 24 -18q12 -10 16 -27q6 -15 6 -35q0 -26 -10 -49q-9 -21 -30 -40q-20 -18 -48 -28q-26 -9 -62 -13z" />
    <glyph glyph-name="rcedilla" unicode="&#x157;" horiz-adv-x="430" 
d="M324 486q26 0 53 -11t54 -37q-18 -36 -54 -112q-21 22 -43 32q-22 12 -43 11q-19 0 -37 -9q-18 -8 -35 -26q-15 -18 -26 -42q-9 -24 -14 -54v-238h-120v477h120v-111q34 60 70 90t75 30zM41 -268v18q28 10 42 28q15 18 15 43q-12 2 -22 5q-9 4 -18 11q-6 9 -10 19t-4 22
q0 16 5 28q7 12 16 21q11 11 23 15q12 6 27 5q15 0 30 -5v0q14 -4 24 -18q12 -10 16 -27q5 -15 5 -35q0 -26 -9 -49q-9 -21 -30 -40q-20 -18 -48 -28q-27 -9 -62 -13z" />
    <glyph glyph-name="Rcaron" unicode="&#x158;" horiz-adv-x="659" 
d="M76 698h23h214q57 0 97 -13q42 -13 72 -43q32 -27 46 -65q15 -35 15 -80q1 -61 -29 -105q-28 -44 -87 -68q17 -10 31 -22q16 -12 26 -26q14 -12 29 -37q16 -24 36 -58q37 -59 107 -181h-152q-24 42 -96 166q-21 38 -42 64q-20 26 -37 38q-16 14 -37 20q-20 6 -42 6h-39
v-294h-135v698zM211 596v-203h69q30 0 52 6q24 7 40 17q18 12 25 31q9 21 9 49q0 24 -8 42q-6 18 -21 31q-14 15 -35 21t-49 6h-82zM199 751q-25 41 -100 159h78q27 -22 104 -92q27 24 104 92h77q-24 -39 -98 -159h-165z" />
    <glyph glyph-name="rcaron" unicode="&#x159;" horiz-adv-x="430" 
d="M324 486q26 0 53 -11t54 -37q-18 -36 -54 -112q-21 22 -43 32q-22 12 -43 11q-19 0 -37 -9q-18 -8 -35 -26q-15 -18 -26 -42q-9 -24 -14 -54v-238h-120q0 120 2 477v0h118v-111q34 60 70 90t75 30zM61 699h77q24 -21 96 -89q24 24 95 89h78q-26 -39 -104 -160h-124h-15
q-26 40 -103 160z" />
    <glyph glyph-name="Sacute" unicode="&#x15a;" horiz-adv-x="526" 
d="M269 708q51 0 97 -13t87 -40v-130q-42 39 -87 57q-44 18 -91 18q-21 0 -38 -5q-18 -3 -30 -14q-11 -9 -19 -23q-6 -12 -6 -30q0 -14 6 -28t16 -27q12 -12 33 -28q23 -15 56 -34q53 -28 89 -55q38 -24 57 -50q23 -24 32 -54q10 -30 10 -70t-15 -75q-14 -33 -46 -62
q-30 -27 -71 -41q-39 -12 -89 -13q-54 0 -106 15q-51 16 -101 46v142q47 -46 95 -71q50 -24 101 -24q22 0 40 6q18 7 30 17q15 12 21 25q6 15 6 31q0 18 -6 33q-6 16 -19 30q-12 13 -42 33q-28 20 -73 42q-38 24 -68 45q-28 22 -49 46q-20 23 -30 53q-9 30 -10 64
q0 40 15 73q16 33 46 58q30 27 70 40q39 13 89 13v0zM180 751q22 41 85 159h153q-40 -39 -160 -159h-78z" />
    <glyph glyph-name="sacute" unicode="&#x15b;" horiz-adv-x="427" 
d="M46 355q0 28 11 52q12 24 34 42q23 19 53 28t67 9h8q37 0 70 -10q39 -9 73 -30v-101q-39 25 -75 37q-33 12 -63 12q-14 0 -24 -2q-9 -2 -18 -7q-6 -5 -10 -11t-4 -14t4 -16t11 -15q9 -7 27 -19q20 -10 48 -26q32 -16 54 -32q24 -14 40 -34q18 -18 26 -39t8 -48t-11 -52
t-33 -46q-21 -21 -54 -32q-32 -9 -74 -10q-38 1 -80 10q-42 11 -88 31v108q42 -28 79 -43t70 -15q17 0 29 2q14 3 22 9q10 6 14 14q4 7 4 15q0 12 -4 19q-4 9 -13 17q-9 9 -31 21q-21 15 -55 32q-29 15 -51 31q-20 16 -35 32q-13 18 -21 38q-8 21 -8 43zM224 699h138
q-33 -39 -137 -160h-11h-63q19 40 73 160z" />
    <glyph glyph-name="Scircumflex" unicode="&#x15c;" horiz-adv-x="526" 
d="M269 708q51 0 97 -13t87 -40v-130q-42 39 -87 57q-44 18 -91 18q-21 0 -38 -5q-18 -3 -30 -14q-11 -9 -19 -23q-6 -12 -6 -30q0 -14 6 -28t16 -27q12 -12 33 -28q23 -15 56 -34q53 -28 89 -55q38 -24 57 -50q23 -24 32 -54q10 -30 10 -70t-15 -75q-14 -33 -46 -62
q-30 -27 -71 -41q-39 -12 -89 -13q-54 0 -106 15q-51 16 -101 46v142q47 -46 95 -71q50 -24 101 -24q22 0 40 6q18 7 30 17q15 12 21 25q6 15 6 31q0 18 -6 33q-6 16 -19 30q-12 13 -42 33q-28 20 -73 42q-38 24 -68 45q-28 22 -49 46q-20 23 -30 53q-9 30 -10 64
q0 40 15 73q16 33 46 58q30 27 70 40q18 5 35 8q1 1 3 1q24 4 51 4zM81 751q24 41 98 159h164q25 -39 100 -159h-77q-27 22 -105 91q-25 -22 -103 -91h-77z" />
    <glyph glyph-name="scircumflex" unicode="&#x15d;" horiz-adv-x="427" 
d="M46 355q0 28 11 52q12 24 34 42q23 19 53 28q14 5 30 7v0q18 2 37 2q42 0 78 -10q39 -9 73 -30v-101q-39 25 -75 37q-33 12 -63 12q-14 0 -24 -2q-9 -2 -18 -7q-6 -5 -10 -11t-4 -14t4 -16t11 -15q9 -7 27 -19q20 -10 48 -26q32 -16 54 -32q24 -14 40 -34q18 -18 26 -39
t8 -48t-11 -52t-33 -46q-21 -21 -54 -32q-32 -9 -74 -10q-38 1 -80 10q-42 11 -88 31v108q42 -28 79 -43t70 -15q17 0 29 2q14 3 22 9q10 6 14 14q4 7 4 15q0 12 -4 19q-4 9 -13 17q-9 9 -31 21q-21 15 -55 32q-29 15 -51 31q-20 16 -35 32q-13 18 -21 38q-8 21 -8 43z
M142 699h141q22 -39 91 -160h-76q-22 23 -86 89q-21 -22 -84 -89h-75q23 40 89 160z" />
    <glyph glyph-name="Scedilla" unicode="&#x15e;" horiz-adv-x="526" 
d="M269 708q51 0 97 -13t87 -40v-130q-42 39 -87 57q-44 18 -91 18q-21 0 -38 -5q-18 -3 -30 -14q-11 -9 -19 -23q-6 -12 -6 -30q0 -14 6 -28t16 -27q12 -12 33 -28q23 -15 56 -34q53 -28 89 -55q38 -24 57 -50q23 -24 32 -54q10 -30 10 -70q1 -39 -13 -72q-12 -32 -41 -59
q-27 -26 -62 -41q-35 -14 -80 -17q-3 -8 -10 -24q47 -3 68 -22q23 -19 23 -57q0 -20 -11 -38q-9 -16 -30 -30q-19 -12 -49 -19q-28 -7 -67 -7q-20 0 -36 2q-15 2 -27 2v61q14 -1 26 -3h19q30 0 44 9q15 9 15 25q0 18 -10 25q-9 9 -30 8h-15q-5 1 -11 -2q12 25 32 71
q-40 4 -81 19q-40 15 -82 39v142q47 -46 95 -71q50 -24 101 -24q22 0 40 6q18 7 30 17q15 12 21 25q6 15 6 31q0 18 -6 33q-6 16 -19 30q-12 13 -42 33q-28 20 -73 42q-38 24 -68 45q-28 22 -49 46q-20 23 -30 53q-9 30 -10 64q0 40 15 73q16 33 46 58q30 27 70 40t89 13z
" />
    <glyph glyph-name="scedilla" unicode="&#x15f;" horiz-adv-x="427" 
d="M46 355q0 28 11 52q12 24 34 42q23 19 53 28t67 9q42 0 78 -10q39 -9 73 -30v-101q-39 25 -75 37q-33 12 -63 12q-14 0 -24 -2q-9 -2 -18 -7q-6 -5 -10 -11t-4 -14t4 -16t11 -15q9 -7 27 -19q20 -10 48 -26q32 -16 54 -32q24 -14 40 -34q18 -18 26 -39t8 -48
q0 -26 -9 -50q-9 -23 -30 -44q-18 -20 -48 -32q-29 -11 -68 -14q-3 -7 -9 -22q46 -3 68 -22t22 -57q0 -20 -10 -38q-10 -16 -31 -30q-19 -12 -49 -19q-28 -7 -66 -7q-20 0 -36 2q-15 2 -27 2v61q17 -1 27 -3h18q30 0 45 9t15 25q0 18 -10 25q-10 9 -31 8h-14q-6 1 -12 -2
q11 24 32 72q-25 3 -55 12t-62 25v108q42 -28 79 -43t70 -15q17 0 29 2q14 3 22 9q10 6 14 14q4 7 4 15q0 12 -4 19q-4 9 -13 16t-30 21q-21 15 -56 33q-29 15 -51 31q-20 16 -35 32q-13 18 -21 38q-8 21 -8 43z" />
    <glyph glyph-name="Scaron" unicode="&#x160;" horiz-adv-x="526" 
d="M269 708q51 0 97 -13t87 -40v-130q-42 39 -87 57q-44 18 -91 18q-21 0 -38 -5q-18 -3 -30 -14q-11 -9 -19 -23q-6 -12 -6 -30q0 -14 6 -28t16 -27q12 -12 33 -28q23 -15 56 -34q53 -28 89 -55q38 -24 57 -50q23 -24 32 -54q10 -30 10 -70t-15 -75q-14 -33 -46 -62
q-30 -27 -71 -41q-39 -12 -89 -13q-54 0 -106 15q-51 16 -101 46v142q47 -46 95 -71q50 -24 101 -24q22 0 40 6q18 7 30 17q15 12 21 25q6 15 6 31q0 18 -6 33q-6 16 -19 30q-12 13 -42 33q-28 20 -73 42q-38 24 -68 45q-28 22 -49 46q-20 23 -30 53q-9 30 -10 64
q0 40 15 73q16 33 46 58q28 24 61 36q6 3 9 4q40 13 89 13zM187 751q-24 41 -99 159h78q27 -22 103 -92q27 24 105 92h77q-24 -39 -99 -159h-92h-73z" />
    <glyph glyph-name="scaron" unicode="&#x161;" horiz-adv-x="427" 
d="M46 355q0 28 11 52q12 24 34 42q19 15 40 24h1q6 3 12 4q30 9 67 9q42 0 78 -10q39 -9 73 -30v-101q-39 25 -75 37q-33 12 -63 12q-14 0 -24 -2q-9 -2 -18 -7q-6 -5 -10 -11t-4 -14t4 -16t11 -15q9 -7 27 -19q20 -10 48 -26q32 -16 54 -32q24 -14 40 -34q18 -18 26 -39
t8 -48t-11 -52t-33 -46q-21 -21 -54 -32q-32 -9 -74 -10q-38 1 -80 10q-42 11 -88 31v108q42 -28 79 -43t70 -15q17 0 29 2q14 3 22 9q10 6 14 14q4 7 4 15q0 12 -4 19q-4 9 -13 17q-9 9 -31 21q-21 15 -55 32q-29 15 -51 31q-20 16 -35 32q-13 18 -21 38q-8 21 -8 43z
M42 699h77q24 -21 96 -89q25 24 94 89h78q-25 -39 -103 -160h-70h-70q-24 40 -102 160z" />
    <glyph glyph-name="Tcedilla" unicode="&#x162;" horiz-adv-x="662" 
d="M17 698h627v-114h-247v-584h-135v584h-245v114zM250 -268v18q28 10 42 28q15 18 15 43q-12 2 -22 5q-9 4 -18 11q-7 9 -10 19t-4 22q1 16 5 28q6 12 15 21q11 11 23 15q2 0 1 0h1q12 6 26 5q16 1 30 -5q14 -4 24 -18q12 -10 16 -27q6 -15 5 -35q0 -26 -9 -49
q-10 -21 -31 -40q-20 -18 -47 -28q-28 -9 -62 -13z" />
    <glyph glyph-name="tcedilla" unicode="&#x163;" horiz-adv-x="395" 
d="M4 398q48 48 192 193h8v-114h153v-95h-153v-202q0 -21 3 -37q3 -15 10 -27q9 -10 21 -17q14 -6 33 -6q27 0 52 9q27 9 55 25v-102q-28 -17 -63 -26q-33 -8 -72 -8q-20 0 -38 2q-17 3 -32 9q-28 10 -49 32q-20 22 -30 55q-10 35 -10 80v213h-80v16zM164 -268v18
q27 10 42 28t15 43q-12 2 -22 5q-9 4 -18 11q-7 9 -10 19t-4 22q1 16 5 28q6 12 15 21q12 11 24 15q10 4 22 5h5q16 1 30 -5q14 -4 24 -18q12 -10 16 -27q6 -15 5 -35q0 -26 -9 -49q-10 -21 -31 -40q-20 -18 -47 -28q-28 -9 -62 -13z" />
    <glyph glyph-name="Tcaron" unicode="&#x164;" horiz-adv-x="662" 
d="M17 698h126h501v-114h-247v-584h-135v584h-245v114zM243 751q-25 41 -100 159h78q27 -22 104 -92q27 24 104 92h77q-24 -39 -98 -159h-11h-154z" />
    <glyph glyph-name="tcaron" unicode="&#x165;" horiz-adv-x="486" 
d="M4 398q48 48 192 193h8v-114h153v-95h-153v-202q0 -21 3 -37q3 -15 10 -27q9 -10 21 -17q14 -6 33 -6q27 0 52 9q27 9 55 25v-102q-28 -17 -63 -26q-33 -8 -72 -8q-39 1 -70 11q-28 10 -49 32q-20 22 -30 55q-10 35 -10 80v213h-80v16zM346 459v19q30 10 45 34t16 60
q-13 3 -23 6q-9 4 -17 13t-12 20q-3 12 -4 24q0 18 6 30q6 14 16 23q10 12 24 16q13 6 28 5q17 1 31 -7q15 -6 24 -18q12 -12 16 -29q6 -15 6 -38q0 -31 -11 -58q-9 -27 -32 -50q-21 -21 -50 -35q-27 -12 -63 -15z" />
    <glyph glyph-name="Tbar" unicode="&#x166;" horiz-adv-x="662" 
d="M17 698h627v-114h-247v-236h188v-80h-188v-268h-135v268h-187v80h187v236h-245v114z" />
    <glyph glyph-name="tbar" unicode="&#x167;" horiz-adv-x="395" 
d="M357 232h-153v-52q0 -21 3 -37q3 -15 10 -27q9 -10 21 -17q14 -6 33 -6q27 0 52 9q27 9 55 25v-102q-28 -17 -63 -26q-33 -8 -72 -8q-39 1 -70 11q-28 10 -49 32q-20 22 -30 55q-10 35 -10 80v63h-76v64h76v86h-80v16q48 48 192 193h8v-114h153v-95h-153v-86h153v-64z
" />
    <glyph glyph-name="Utilde" unicode="&#x168;" horiz-adv-x="777" 
d="M68 698h135v-392q1 -50 11 -88q12 -36 35 -61q25 -25 59 -37q36 -12 82 -12t81 11q35 12 57 36q24 24 35 62q11 37 11 88v393h136v-395q0 -75 -21 -133q-19 -58 -61 -98q-40 -40 -100 -61q-60 -20 -138 -20t-138 20q-60 21 -101 60q-42 40 -63 97q-20 58 -20 133v397z
M318 886q15 0 35 -5q21 -4 46 -16q27 -9 43 -15q18 -4 23 -5q17 1 26 10q9 11 12 31h59q0 -30 -7 -55q-6 -23 -21 -41q-14 -16 -32 -26q-18 -9 -40 -9h-6q-10 2 -26 5l-45 15q-25 12 -43 16q-16 5 -27 5q-15 0 -25 -10q-8 -10 -11 -31h-62q2 31 8 55q7 24 22 41q15 18 33 26
q18 9 38 9z" />
    <glyph glyph-name="utilde" unicode="&#x169;" horiz-adv-x="559" 
d="M58 477h120v-277q0 -56 22 -85q22 -27 65 -28q33 0 60 18q29 18 51 52v320h120v-477h-120v63q-33 -36 -72 -54q-38 -18 -82 -18q-80 1 -122 52q-42 52 -42 156v278zM208 682q14 0 35 -5t46 -15q27 -10 43 -16q16 -4 22 -5q18 1 27 11t11 30h60q0 -30 -7 -55
q-7 -23 -22 -41q-14 -16 -32 -26q-18 -9 -40 -9q-11 1 -31 5q-18 6 -46 15q-26 12 -43 16q-17 5 -26 5q-15 0 -26 -10q-9 -10 -11 -31h-62q2 31 8 55q8 24 22 41q16 18 33 26q18 9 39 9z" />
    <glyph glyph-name="Umacron" unicode="&#x16a;" horiz-adv-x="777" 
d="M68 698h135v-392q1 -50 11 -88q12 -36 35 -61q25 -25 59 -37q36 -12 82 -12t81 11q35 12 57 36q24 24 35 62q11 37 11 88v393h136v-395q0 -75 -21 -133q-19 -58 -61 -98q-40 -40 -100 -61q-60 -20 -138 -20t-138 20q-60 21 -101 60q-42 40 -63 97q-20 58 -20 133v397z
M243 785v85h294v-85h-147h-147z" />
    <glyph glyph-name="umacron" unicode="&#x16b;" horiz-adv-x="559" 
d="M58 477h74h46v-277q0 -56 22 -85q22 -27 65 -28q33 0 60 18q29 18 51 52v320h120v-477h-120v63q-33 -36 -72 -54q-38 -18 -82 -18q-80 1 -122 52q-42 52 -42 156v278zM132 662h294v-87h-204h-90v87z" />
    <glyph glyph-name="Ubreve" unicode="&#x16c;" horiz-adv-x="777" 
d="M68 698h135v-392q1 -50 11 -88q12 -36 35 -61q25 -25 59 -37q36 -12 82 -12t81 11q35 12 57 36q24 24 35 62q11 37 11 88v393h136v-395q0 -75 -21 -133q-19 -58 -61 -98q-40 -40 -100 -61q-60 -20 -138 -20t-138 20q-60 21 -101 60q-42 40 -63 97q-20 58 -20 133v397z
M213 903h85q10 -33 32 -50q24 -15 62 -16q36 1 58 16q22 17 31 50h85q-4 -37 -20 -65q-14 -28 -38 -50q-22 -20 -53 -31q-29 -11 -65 -11t-67 11q-30 10 -54 30q-22 23 -37 51q-14 28 -19 65z" />
    <glyph glyph-name="ubreve" unicode="&#x16d;" horiz-adv-x="559" 
d="M58 477h63h57v-277q0 -56 22 -85q22 -27 65 -28q33 0 60 18q29 18 51 52v320h120v-477h-120v63q-33 -36 -72 -54q-38 -18 -82 -18q-80 1 -122 52q-42 52 -42 156v278zM121 680h79q9 -30 29 -46q21 -16 52 -16q16 0 28 4t21 10q10 8 16 19q8 13 11 29h80q-3 -30 -15 -56
q-12 -24 -34 -46q-21 -20 -49 -32q-27 -10 -59 -10h-16q-21 3 -42 9q-26 10 -48 28q-20 21 -34 46q-12 27 -19 61z" />
    <glyph glyph-name="Uring" unicode="&#x16e;" horiz-adv-x="777" 
d="M68 698h135v-392q1 -50 11 -88q12 -36 35 -61q25 -25 59 -37q36 -12 82 -12t81 11q35 12 57 36q24 24 35 62q11 37 11 88v393h136v-395q0 -75 -21 -133q-19 -58 -61 -98q-40 -40 -100 -61q-60 -20 -138 -20t-138 20q-60 21 -101 60q-42 40 -63 97q-20 58 -20 133v397z
M492 848q0 -20 -8 -38q-6 -16 -22 -33q-15 -13 -33 -22q-17 -7 -39 -7q-20 0 -38 7q-16 7 -33 21q-13 16 -22 33q-7 18 -7 39t7 39q7 17 21 32q16 15 34 22t38 7q22 0 39 -7q18 -7 33 -22q16 -15 22 -33q8 -16 8 -38zM352 887q-6 -8 -11 -18q-3 -9 -4 -21q1 -10 4 -21
q5 -9 11 -17q9 -8 18 -12q10 -3 20 -3q12 0 21 3q9 4 17 12q9 8 12 17q4 11 4 21q0 12 -3 21t-12 17q-8 9 -17 12q-10 4 -22 4q-10 0 -20 -4q-9 -3 -18 -11z" />
    <glyph glyph-name="uring" unicode="&#x16f;" horiz-adv-x="559" 
d="M58 477h120v-277q0 -56 22 -85q22 -27 65 -28q33 0 60 18q29 18 51 52v320h120v-477h-120v63q-33 -36 -72 -54q-38 -18 -82 -18q-80 1 -122 52q-42 52 -42 156v278zM279 739q21 1 38 -7q17 -6 32 -22q17 -15 23 -33q8 -18 8 -39q0 -20 -7 -38q-7 -16 -23 -33
q-14 -13 -32 -22q-18 -7 -39 -7h-10h-1q-14 2 -27 7q-18 7 -33 21q-14 16 -22 33q-8 18 -8 39t7 39t22 33q15 16 33 22q18 8 39 7zM279 584q12 0 21 4q10 3 17 11q9 9 13 18q4 11 4 21q0 12 -4 22t-13 18q-7 9 -17 12q-9 4 -21 4q-11 0 -21 -4q-8 -3 -17 -12q-8 -8 -12 -18
q-5 -10 -5 -22t4 -21t12 -18q9 -8 18 -11q10 -4 21 -4z" />
    <glyph glyph-name="Udblacute" unicode="&#x170;" horiz-adv-x="777" 
d="M68 698h135v-392q1 -50 11 -88q12 -36 35 -61q25 -25 59 -37q36 -12 82 -12t81 11q35 12 57 36q24 24 35 62q11 37 11 88v393h136v-395q0 -75 -21 -133q-19 -58 -61 -98q-40 -40 -100 -61q-60 -20 -138 -20t-138 20q-60 21 -101 60q-42 40 -63 97q-20 58 -20 133v397z
M257 751q15 41 57 159h143q-33 -39 -131 -159h-69zM446 751q15 41 59 159h141q-32 -39 -131 -159h-69z" />
    <glyph glyph-name="udblacute" unicode="&#x171;" horiz-adv-x="559" 
d="M58 477h120v-277q0 -56 22 -85q22 -27 65 -28q33 0 60 18q29 18 51 52v320h120v-477h-120v63q-33 -36 -72 -54q-38 -18 -82 -18q-80 1 -122 52q-42 52 -42 156v278zM217 695h136q-33 -39 -136 -156h-72zM403 695h136q-33 -39 -137 -156h-72q18 39 73 156z" />
    <glyph glyph-name="Uogonek" unicode="&#x172;" horiz-adv-x="777" 
d="M68 698h135v-392q1 -50 11 -88q12 -36 35 -61q25 -25 59 -37q36 -12 82 -12t81 11q35 12 57 36q24 24 35 62q11 37 11 88v393h136v-395q0 -70 -18 -126q-18 -55 -56 -97q-36 -40 -91 -62t-125 -26q-8 -14 -14 -28q-6 -12 -6 -26q0 -26 15 -39t44 -13q13 0 25 3q14 3 26 8
v-75q-18 -8 -38 -12t-41 -5q-27 1 -48 7q-21 8 -36 21q-13 15 -22 33q-8 20 -8 43q0 22 8 43q7 21 21 41q-66 7 -119 28q-51 22 -88 61q-35 40 -53 95t-18 124v397z" />
    <glyph glyph-name="uogonek" unicode="&#x173;" horiz-adv-x="559" 
d="M58 477h120v-277q0 -56 22 -85q22 -27 65 -28q33 0 60 18q29 18 51 52v320h120v-477h-49q-12 -18 -18 -33q-7 -15 -7 -29q0 -26 14 -39q16 -13 44 -13q14 0 25 3q14 3 26 8v-75q-17 -8 -38 -12q-19 -4 -40 -5q-27 1 -49 7q-20 8 -35 21q-15 15 -23 33q-6 20 -7 43
q0 27 9 50q10 23 28 43v61q-33 -36 -72 -54q-38 -18 -82 -18q-80 1 -122 52q-42 52 -42 156v278z" />
    <glyph glyph-name="Wcircumflex" unicode="&#x174;" horiz-adv-x="1109" 
d="M0 698h137q45 -111 177 -450q46 112 185 450h112q47 -111 185 -450q45 112 177 450h136l-288 -704h-53q-52 130 -213 519q-54 -129 -216 -519h-53q-72 176 -286 704zM375 751q24 41 98 159h164q25 -39 100 -159h-78q-26 22 -104 91q-25 -22 -103 -91h-77z" />
    <glyph glyph-name="wcircumflex" unicode="&#x175;" horiz-adv-x="776" 
d="M0 477h125l112 -272q27 69 111 272h82l112 -272q28 69 110 272h124q-50 -120 -203 -483h-55q-32 78 -129 308q-31 -76 -127 -308h-57q-51 122 -205 483zM316 699h141q22 -39 91 -160h-76q-20 23 -86 89q-21 -22 -84 -89h-75q23 40 89 160z" />
    <glyph glyph-name="Ycircumflex" unicode="&#x176;" horiz-adv-x="663" 
d="M0 698h152q44 -57 178 -234q45 58 180 234h153q-65 -86 -263 -345v-353h-136v352q-66 88 -264 346zM148 751q26 41 99 159h164q25 -39 100 -159h-78q-26 22 -104 91q-26 -22 -104 -91h-77z" />
    <glyph glyph-name="ycircumflex" unicode="&#x177;" horiz-adv-x="496" 
d="M2 477h132q30 -63 120 -258q30 66 119 258h123q-84 -177 -333 -711h-124q39 80 151 322q-46 98 -188 389zM177 699h140q23 -39 92 -160h-76q-21 23 -86 89q-21 -22 -84 -89h-75q22 40 89 160z" />
    <glyph glyph-name="Zacute" unicode="&#x179;" horiz-adv-x="688" 
d="M43 698h294h331q-104 -146 -418 -584h418v-114h-655q105 147 419 585h-389v113zM252 751q22 41 85 159h152l-159 -159h-78z" />
    <glyph glyph-name="zacute" unicode="&#x17a;" horiz-adv-x="471" 
d="M26 477h203h225v-7q-60 -92 -242 -370h242v-100h-441v7q62 93 242 369h-229v101zM229 699h139q-34 -39 -138 -160h-74q18 40 73 160z" />
    <glyph glyph-name="Zdot" unicode="&#x17b;" horiz-adv-x="688" 
d="M43 698h298h327q-104 -146 -418 -584h418v-114h-655q105 147 419 585h-389v113zM411 839q1 -14 -5 -26q-4 -13 -16 -23q-10 -10 -24 -17v0q-12 -3 -25 -4q-14 1 -26 5q-11 6 -23 16q-9 10 -15 23q-6 12 -6 26t6 26q6 13 15 22q12 12 23 15q12 6 26 5q15 1 27 -5
q12 -3 22 -15q12 -9 16 -22q6 -12 5 -26z" />
    <glyph glyph-name="zdot" unicode="&#x17c;" horiz-adv-x="471" 
d="M26 477h210h218v-7q-60 -92 -242 -370h242v-100h-441v7q62 93 242 369h-229v101zM305 626q1 -14 -5 -26q-4 -12 -15 -23q-9 -9 -23 -16q0 1 -3 -1v0q-11 -4 -23 -4q-14 0 -27 5q-11 7 -23 16q-9 11 -15 23q-5 12 -5 26t5 26q6 12 15 22q12 12 23 15q13 5 27 5t26 -5
q14 -3 23 -15q11 -10 15 -22q6 -12 5 -26z" />
    <glyph glyph-name="Zcaron" unicode="&#x17d;" horiz-adv-x="688" 
d="M43 698h117h508q-104 -146 -418 -584h418v-114h-655q105 147 419 585h-389v113zM259 751q-24 41 -99 159h78q26 -22 103 -92q27 24 104 92h77q-24 -39 -98 -159h-165z" />
    <glyph glyph-name="zcaron" unicode="&#x17e;" horiz-adv-x="471" 
d="M26 477h39h389v-7q-60 -92 -242 -370h242v-100h-441v7q62 93 242 369h-229v101zM65 699h76q25 -21 97 -89q24 24 94 89h78q-26 -39 -104 -160h-139q-26 40 -102 160z" />
    <glyph glyph-name="longs" unicode="&#x17f;" horiz-adv-x="276" 
d="M259 707q21 0 39 -3q20 -2 36 -7v-99q-14 6 -28 7q-14 3 -30 2q-18 0 -32 -6q-15 -4 -25 -18q-9 -13 -14 -34t-5 -51v-498h-121v373h-71v95h71v27q0 51 12 89q12 39 36 66q25 30 58 43q33 15 74 14z" />
    <glyph glyph-name="Schwa" unicode="&#x18f;" horiz-adv-x="791" 
d="M41 367h563q-2 53 -22 95q-18 42 -54 73q-34 32 -79 47t-102 15q-66 1 -130 -19q-65 -18 -128 -58v123q63 33 131 48q70 17 145 17q83 0 151 -25q68 -24 122 -75q54 -50 81 -113t26 -140q1 -81 -23 -148q-24 -65 -73 -116q-47 -49 -113 -75q-66 -24 -149 -25
q-81 0 -145 24t-110 72q-44 50 -68 114q-22 64 -23 144v22zM598 267h-412q10 -39 27 -71q18 -30 42 -54q27 -20 59 -32q34 -12 73 -12q43 0 76 11q34 12 61 33q28 24 46 54q20 32 28 71z" />
    <glyph glyph-name="florin" unicode="&#x192;" horiz-adv-x="543" 
d="M507 690q-3 -22 -18 -92q-19 8 -37 10q-16 3 -31 3q-18 0 -33 -6q-14 -6 -23 -21q-9 -14 -16 -38t-13 -59q-3 -17 -9 -55h105q-2 -20 -14 -86h-106q-15 -90 -60 -363q-9 -57 -24 -100q-14 -40 -38 -67q-21 -26 -49 -39q-29 -13 -63 -13q-22 0 -50 4q-26 4 -58 10
q6 32 19 93q19 -4 34 -7q16 -3 30 -3q20 0 32 8q15 9 24 23q10 18 19 48q10 33 16 78q18 110 53 328h-106q5 22 14 86h106q3 15 10 55q11 59 26 101t35 67q20 27 52 40t73 13q19 0 45 -5q26 -3 55 -13z" />
    <glyph glyph-name="Ohorn" unicode="&#x1a0;" horiz-adv-x="893" 
d="M426 708q86 0 154 -27q70 -25 123 -79q29 3 47 12q21 10 31 26q14 18 18 47q6 31 6 73h103q0 -54 -8 -97q-8 -41 -28 -69q-18 -27 -46 -45q-26 -17 -64 -26q24 -39 34 -83q12 -44 11 -90q1 -74 -26 -138q-24 -62 -78 -116q-51 -52 -122 -79q-69 -26 -159 -26
q-84 0 -153 26q-67 27 -121 78q-50 53 -77 116q-26 63 -26 137q0 34 6 67t18 64q13 33 29 61q18 28 40 54q24 26 53 47q31 21 67 36q38 15 80 23t88 8zM423 113q54 1 98 16t78 46q35 33 53 75q18 44 17 100q0 48 -16 89q-15 42 -49 76q-32 35 -77 53q-43 18 -100 18
q-54 0 -99 -17q-44 -15 -78 -50q-32 -33 -50 -76q-16 -43 -17 -95q1 -51 17 -93q18 -42 52 -76q36 -33 78 -50q42 -15 93 -16z" />
    <glyph glyph-name="ohorn" unicode="&#x1a1;" horiz-adv-x="651" 
d="M490 412q20 3 31 12q12 8 20 20q8 14 11 34q4 22 4 49h103q0 -43 -6 -76q-7 -33 -22 -57q-15 -22 -38 -38q-23 -15 -53 -23q10 -23 13 -47q5 -24 5 -47q0 -59 -19 -104t-58 -79q-38 -32 -84 -49q-47 -15 -101 -16q-60 0 -108 18t-83 54q-33 38 -51 80q-16 45 -17 94
q0 55 18 99q17 44 53 80t82 53q48 17 108 17t108 -18t84 -56zM294 387q-28 0 -53 -10q-22 -9 -42 -30q-19 -20 -29 -47q-9 -28 -9 -61t9 -62q10 -27 29 -47q20 -20 44 -30q25 -10 55 -10q32 0 55 11q25 10 43 30q20 21 28 48q9 27 9 60q0 36 -9 63q-9 28 -30 46
q-20 21 -45 30q-23 9 -55 9z" />
    <glyph glyph-name="Uhorn" unicode="&#x1af;" horiz-adv-x="878" 
d="M68 698h135v-392q1 -50 11 -88q12 -36 35 -61q25 -25 59 -37q36 -12 82 -12t81 11q35 12 57 36q24 24 35 62q11 37 11 88v393h136v-96q24 4 42 13q18 11 28 27q12 18 17 47q6 29 6 71h104q0 -64 -12 -110q-10 -45 -36 -72q-23 -27 -62 -43q-36 -15 -87 -18v-214
q0 -75 -21 -133q-19 -58 -61 -98q-40 -40 -100 -61q-60 -20 -138 -20t-138 20q-60 21 -101 60q-42 40 -63 97q-20 58 -20 133v397z" />
    <glyph glyph-name="uhorn" unicode="&#x1b0;" horiz-adv-x="665" 
d="M58 477h120v-277q0 -56 22 -85q22 -27 65 -28q33 0 60 18q29 18 51 52v320h120v-67q24 2 41 8t26 18q11 14 15 36q6 24 5 55h103q0 -54 -11 -93q-10 -38 -34 -61q-23 -23 -59 -35t-86 -13v-325h-120v63q-33 -36 -72 -54q-38 -18 -82 -18q-80 1 -122 52q-42 52 -42 156
v278z" />
    <glyph glyph-name="Aringacute" unicode="&#x1fa;" horiz-adv-x="734" 
d="M261 752q0 21 8 39q7 18 22 32q15 17 33 23q18 8 37 7h6q19 -1 34 -7q18 -6 32 -23q17 -14 23 -32q8 -18 7 -39q0 -12 -3 -25q-2 -12 -10 -24q-6 -9 -17 -19q-9 -8 -21 -14h24q76 -168 298 -670h-138q-20 46 -81 185h-299q-18 -45 -78 -185h-138q74 168 291 670h21
q-10 6 -20 14q-8 9 -17 18q-6 12 -10 24q-3 14 -4 26zM362 535q-24 -63 -103 -249h212q-27 63 -109 249zM301 864q18 30 72 114h143q-33 -27 -137 -114h-78zM307 752q1 -10 4 -20q4 -9 12 -18q9 -8 18 -12q11 -4 20 -5q14 1 23 4q10 4 17 12q9 9 13 18q4 11 4 21q0 12 -4 21
t-13 18q-7 9 -17 13q-9 4 -23 4q-9 0 -20 -4q-9 -3 -17 -12q-8 -8 -12 -18t-5 -22z" />
    <glyph glyph-name="aringacute" unicode="&#x1fb;" horiz-adv-x="481" 
d="M224 486q45 0 78 -9q34 -9 58 -32q26 -20 37 -48q13 -27 13 -63v-219q0 -15 5 -24q5 -8 14 -8q9 1 20 5q12 6 27 16v-77q-30 -18 -59 -27q-27 -9 -55 -9t-46 12q-16 13 -24 37q-30 -24 -64 -37q-32 -12 -70 -12q-28 0 -50 8q-22 9 -40 26q-16 17 -26 38q-9 21 -9 46
q0 24 9 45q10 21 29 39t37 30q20 14 36 20q20 8 51 18q32 11 77 26q8 3 11 4q4 2 7 2v19q0 22 -5 36q-4 15 -16 24q-9 10 -25 14q-15 4 -36 4q-45 0 -87 -20q-41 -20 -77 -61v112q36 33 80 49q46 16 100 16zM152 127q0 -13 4 -23q3 -10 12 -20q10 -8 20 -13q12 -3 24 -4
q20 0 38 9q20 9 40 27v130q-36 -12 -64 -24q-27 -11 -43 -25q-15 -10 -23 -26q-8 -14 -8 -31zM156 543q-14 15 -22 33t-8 38q0 22 7 40t22 32q15 15 33 23q18 7 38 7q22 0 40 -7q18 -8 32 -23q15 -15 23 -33q7 -18 7 -39q0 -20 -7 -37q-8 -18 -23 -33q-14 -14 -32 -22
t-40 -8q-20 0 -38 7q-18 9 -32 22zM172 614q0 -10 4 -20q4 -8 11 -17q9 -7 18 -13q11 -4 21 -4q14 0 22 4q10 4 17 11q9 9 13 19t4 20q0 14 -4 23q-4 11 -13 17q-7 10 -17 13q-10 4 -22 4q-10 0 -20 -4q-9 -3 -18 -13q-6 -6 -12 -17q-4 -9 -4 -23zM223 888h138
q-33 -39 -137 -161h-74q18 41 73 161z" />
    <glyph glyph-name="AEacute" unicode="&#x1fc;" horiz-adv-x="987" 
d="M412 698h258h255v-105h-292v-184h280v-107h-280v-196h302v-106h-437v293h-194q-42 -73 -172 -293h-142q106 176 422 698zM498 621q-34 -57 -134 -228h134v228zM585 751q21 41 85 159h152l-159 -159h-78z" />
    <glyph glyph-name="aeacute" unicode="&#x1fd;" horiz-adv-x="730" 
d="M45 310v119q42 29 84 43q45 14 90 14q36 0 66 -9q7 -3 13 -5q36 -14 62 -44q32 30 66 44t73 14q45 0 81 -15t63 -48q29 -31 41 -73q14 -42 13 -94v-18h-298q2 -36 11 -64q10 -28 30 -49q20 -19 46 -31q27 -10 57 -10q34 0 72 14q39 14 79 40v-97q-42 -25 -87 -37t-91 -13
q-56 1 -100 17q-44 18 -75 53q-45 -35 -91 -53q-44 -16 -87 -17q-29 0 -53 8q-22 9 -41 26q-18 18 -27 39q-9 24 -9 49q0 15 3 27q4 14 10 26q9 14 15 23q9 10 16 18q9 9 20 15q13 8 29 16q18 8 30 14q14 6 22 8q9 4 23 8q15 4 35 11t32 10t17 5v13q1 42 -20 63
q-18 21 -57 21q-42 1 -82 -20q-40 -19 -81 -61zM407 303h175q-4 48 -26 70q-21 23 -59 23q-17 0 -32 -5q-15 -6 -28 -18q-11 -12 -20 -30q-7 -16 -10 -40zM285 234q-36 -14 -63 -27q-24 -12 -41 -24q-15 -9 -23 -25q-6 -14 -7 -31q0 -13 3 -25q4 -10 12 -20q9 -9 19 -13
q11 -3 25 -4q24 1 49 11q26 12 50 33q-12 27 -18 56t-6 61v8zM358 699h139q-34 -39 -138 -160h-74q19 40 73 160z" />
    <glyph glyph-name="Oslashacute" unicode="&#x1fe;" horiz-adv-x="852" 
d="M87 27q17 16 63 66q-52 51 -79 115q-26 64 -26 140q0 34 6 67t18 64q13 33 29 61q18 28 40 54q24 26 53 47q31 21 67 36q38 15 80 23t88 8q64 0 120 -16q56 -14 104 -47q21 22 63 67q12 -12 50 -47q-15 -15 -58 -64q51 -51 76 -113q27 -63 26 -138q1 -74 -26 -138
q-24 -62 -78 -116q-51 -52 -122 -79q-69 -26 -159 -26q-62 0 -118 15q-54 16 -100 44q-21 -22 -66 -70q-12 12 -51 47zM427 586q-57 0 -102 -18q-45 -16 -77 -53q-32 -35 -49 -77q-15 -42 -16 -90q0 -44 15 -84q14 -39 44 -73q106 121 319 359q-27 18 -62 27q-33 9 -72 9z
M669 350q1 44 -14 82q-14 39 -44 71q-105 -119 -317 -357q30 -16 62 -25q33 -8 67 -8q33 1 60 5q29 6 53 16q26 12 44 26q21 15 33 33q15 19 24 37q11 20 17 39q8 21 11 41q4 20 4 40zM341 751q21 41 85 159h153q-39 -39 -160 -159h-78z" />
    <glyph glyph-name="oslashacute" unicode="&#x1ff;" horiz-adv-x="594" 
d="M49 -8q15 18 60 67q-36 36 -54 80q-18 45 -18 98q0 55 18 99q17 44 53 80t82 53q48 17 108 17q44 0 80 -10q38 -9 68 -30q20 22 55 64q9 -8 37 -34q-12 -14 -53 -59q37 -34 55 -79t18 -99q0 -59 -19 -104t-58 -79q-38 -32 -84 -49q-47 -15 -101 -16q-42 1 -79 10t-70 29
q-19 -24 -61 -72q-9 8 -37 34zM433 239q0 27 -6 50q-5 23 -19 39l-189 -216q16 -10 36 -17q21 -5 43 -5q32 0 55 11q25 10 43 30q20 21 28 48q9 27 9 60zM294 387q-28 0 -53 -10q-22 -9 -42 -30q-19 -20 -29 -47q-9 -28 -9 -61q0 -27 6 -50q7 -23 19 -41q64 74 188 217
q-18 11 -38 17t-42 5zM298 699h138q-33 -39 -137 -160h-75q20 40 74 160z" />
    <glyph glyph-name="Scommaaccent" unicode="&#x218;" horiz-adv-x="526" 
d="M269 708q51 0 97 -13t87 -40v-130q-42 39 -87 57q-44 18 -91 18q-21 0 -38 -5q-18 -3 -30 -14q-11 -9 -19 -23q-6 -12 -6 -30q0 -14 6 -28t16 -27q12 -12 33 -28q23 -15 56 -34q53 -28 89 -55q38 -24 57 -50q23 -24 32 -54q10 -30 10 -70t-15 -75q-14 -33 -46 -62
q-30 -27 -71 -41q-39 -12 -89 -13q-24 0 -47 3q-29 4 -59 12q-51 16 -101 46v142q47 -46 95 -71q50 -24 101 -24q22 0 40 6q18 7 30 17q15 12 21 25q6 15 6 31q0 18 -6 33q-6 16 -19 30q-12 13 -42 33q-28 20 -73 42q-38 24 -68 45q-28 22 -49 46q-20 23 -30 53
q-9 30 -10 64q0 40 15 73q16 33 46 58q30 27 70 40t89 13zM179 -268v18q28 10 42 28q15 18 16 43q-13 2 -23 5q-9 4 -17 11q-7 9 -11 19t-4 22q0 16 6 28t15 21q11 11 23 15q12 6 29 5v0q16 -1 28 -5q14 -4 24 -18q12 -10 16 -27q6 -15 6 -35q0 -26 -10 -49q-9 -21 -30 -40
q-20 -18 -48 -28q-27 -9 -62 -13z" />
    <glyph glyph-name="scommaaccent" unicode="&#x219;" horiz-adv-x="427" 
d="M46 355q0 28 11 52q12 24 34 42q23 19 53 28t67 9q42 0 78 -10q39 -9 73 -30v-101q-39 25 -75 37q-33 12 -63 12q-14 0 -24 -2q-9 -2 -18 -7q-6 -5 -10 -11t-4 -14t4 -16t11 -15q9 -7 27 -19q20 -10 48 -26q32 -16 54 -32q24 -14 40 -34q18 -18 26 -39t8 -48t-11 -52
t-33 -46q-21 -21 -54 -32q-32 -9 -74 -10q-21 0 -42 3q-2 0 -5 1q-17 3 -33 6q-42 11 -88 31v108q42 -28 79 -43t70 -15q17 0 29 2q14 3 22 9q10 6 14 14q4 7 4 15q0 12 -4 19q-4 9 -13 17q-9 9 -31 21q-21 15 -55 32q-29 15 -51 31q-20 16 -35 32q-13 18 -21 38
q-8 21 -8 43zM134 -268v18q28 10 42 28q15 18 15 43q-12 2 -22 5q-9 4 -17 11q-6 9 -11 19q-3 10 -4 22q1 16 5 28q6 12 16 21q10 11 23 15q12 6 27 5q18 1 30 -5q14 -4 24 -18q12 -10 16 -27q6 -15 6 -35q0 -26 -10 -49q-9 -21 -30 -40q-20 -18 -48 -28q-26 -9 -62 -13z
" />
    <glyph glyph-name="Tcommabelow" unicode="&#x21a;" horiz-adv-x="662" 
d="M17 698h627v-114h-247v-584h-135v584h-245v114zM250 -268v18q28 10 42 28q15 18 15 43q-12 2 -22 5q-9 4 -18 11q-7 9 -10 19t-4 22q1 16 5 28q6 12 15 21q11 11 23 15q2 0 1 0h1q12 6 26 5q16 1 30 -5q14 -4 24 -18q12 -10 16 -27q6 -15 5 -35q0 -26 -9 -49
q-10 -21 -31 -40q-20 -18 -47 -28q-28 -9 -62 -13z" />
    <glyph glyph-name="tcommabelow" unicode="&#x21b;" horiz-adv-x="395" 
d="M4 398q48 48 192 193h8v-114h153v-95h-153v-202q0 -21 3 -37q3 -15 10 -27q9 -10 21 -17q14 -6 33 -6q27 0 52 9q27 9 55 25v-102q-28 -17 -63 -26q-33 -8 -72 -8q-20 0 -38 2q-17 3 -32 9q-28 10 -49 32q-20 22 -30 55q-10 35 -10 80v213h-80v16zM164 -268v18
q27 10 42 28t15 43q-12 2 -22 5q-9 4 -18 11q-7 9 -10 19t-4 22q1 16 5 28q6 12 15 21q12 11 24 15q10 4 22 5h5q16 1 30 -5q14 -4 24 -18q12 -10 16 -27q6 -15 5 -35q0 -26 -9 -49q-10 -21 -31 -40q-20 -18 -47 -28q-28 -9 -62 -13z" />
    <glyph glyph-name="dotlessj" unicode="&#x237;" horiz-adv-x="247" 
d="M63 477h120v-511q1 -44 -7 -78q-6 -32 -22 -56q-16 -22 -40 -40q-22 -16 -56 -30q-20 30 -65 90q19 8 33 17q14 10 21 22q9 15 13 34q3 21 3 49v503z" />
    <glyph glyph-name="schwa" unicode="&#x259;" horiz-adv-x="529" 
d="M253 -9q-47 1 -86 16q-39 17 -70 49q-30 34 -46 79q-15 47 -15 105v18h335q-3 30 -15 53q-12 24 -32 42q-20 19 -45 28q-24 9 -56 9q-44 0 -89 -14q-44 -14 -89 -41v97q45 28 94 41t105 13q54 0 98 -17q46 -17 80 -51q36 -34 53 -80q18 -45 18 -102q0 -54 -16 -98
q-15 -44 -49 -79q-32 -33 -76 -51q-44 -16 -99 -17zM371 193h-220q2 -27 8 -47q7 -21 21 -36q15 -14 33 -23q20 -7 44 -7q25 0 43 8q21 8 36 24q18 18 25 37q9 21 10 44z" />
    <glyph glyph-name="afii57929" unicode="&#x2bc;" horiz-adv-x="252" 
d="M114 708q21 0 36 -9q16 -7 28 -25q12 -16 19 -37q6 -21 6 -45q0 -30 -10 -59q-9 -27 -30 -53q-19 -24 -49 -41t-68 -26v23q28 20 40 49q14 29 13 68q-30 9 -46 27q-15 21 -15 49q0 18 5 30q7 15 16 25q12 12 26 18t29 6z" />
    <glyph glyph-name="circumflex" unicode="&#x2c6;" horiz-adv-x="341" 
d="M99 699h141q22 -39 91 -160h-76q-21 23 -86 89q-21 -22 -84 -89h-75q24 40 89 160z" />
    <glyph glyph-name="caron" unicode="&#x2c7;" horiz-adv-x="341" 
d="M-1 699h77q24 -21 96 -89q24 24 94 89h78q-26 -39 -103 -160h-140q-24 40 -102 160z" />
    <glyph glyph-name="firsttonechinese" unicode="&#x2c9;" horiz-adv-x="341" 
d="M24 662h293v-87h-293v87z" />
    <glyph glyph-name="breve" unicode="&#x2d8;" horiz-adv-x="341" 
d="M12 680h79q9 -30 29 -46q22 -16 52 -16q16 0 28 4q14 4 21 10q9 8 16 19q8 13 12 29h80q-3 -30 -15 -56q-12 -24 -34 -46q-22 -20 -49 -32q-27 -10 -60 -10q-31 0 -58 9q-26 10 -47 28q-20 21 -34 46q-14 27 -20 61z" />
    <glyph glyph-name="dotaccent" unicode="&#x2d9;" horiz-adv-x="341" 
d="M241 626q1 -14 -5 -26q-4 -12 -16 -23q-10 -9 -22 -16q-12 -5 -27 -5q-14 0 -26 5q-11 7 -23 16q-9 11 -15 23t-6 26t6 26t15 22q12 12 23 15q12 5 26 5q15 0 27 -5q12 -3 22 -15q12 -10 16 -22q6 -12 5 -26z" />
    <glyph glyph-name="ring" unicode="&#x2da;" horiz-adv-x="341" 
d="M170 739q22 1 38 -7q18 -6 33 -22q15 -15 23 -33t7 -39q1 -20 -7 -38q-6 -16 -22 -33q-15 -13 -33 -22q-18 -7 -39 -7q-20 0 -38 7q-16 7 -33 21q-13 16 -22 33q-7 18 -7 39t7 39t21 33q16 16 33 22q18 8 39 7zM170 584q12 0 22 4q9 3 17 11q9 9 12 18q4 11 4 21
q0 12 -4 22q-3 10 -12 18q-8 9 -18 12q-9 4 -21 4q-10 0 -20 -4q-9 -3 -18 -12q-8 -8 -12 -18t-4 -22t4 -21q3 -9 11 -18q9 -8 18 -11q11 -4 21 -4z" />
    <glyph glyph-name="ogonek" unicode="&#x2db;" horiz-adv-x="341" 
d="M133 9h73q-16 -20 -25 -38q-8 -17 -8 -33q0 -26 15 -39t43 -13q14 0 26 3q14 3 26 8v-75q-18 -8 -39 -12q-18 -4 -40 -5q-27 1 -48 7q-21 8 -36 21q-14 15 -22 33q-8 20 -8 43q0 28 11 52q11 26 32 48z" />
    <glyph glyph-name="tilde" unicode="&#x2dc;" horiz-adv-x="341" 
d="M99 682q15 0 35 -5t46 -15q28 -10 43 -16q17 -4 23 -5q18 1 26 11q9 10 12 30h59q1 -30 -7 -55q-6 -23 -22 -41q-12 -16 -32 -26q-18 -9 -39 -9q-12 1 -32 5l-45 15q-26 12 -43 16q-18 5 -27 5q-16 0 -25 -10t-12 -31h-61q2 31 8 55q8 24 22 41q15 18 33 26q18 9 38 9z
" />
    <glyph glyph-name="hungarumlaut" unicode="&#x2dd;" horiz-adv-x="341" 
d="M92 695h136l-136 -156h-72zM279 695h135l-136 -156h-73q18 39 74 156z" />
    <glyph glyph-name="gravecmb" unicode="&#x300;" horiz-adv-x="0" 
d="M-429 699h138q19 -39 75 -160h-74q-34 40 -139 160z" />
    <glyph glyph-name="acutecmb" unicode="&#x301;" horiz-adv-x="0" 
d="M-296 699h138q-33 -39 -137 -160h-75q20 40 74 160z" />
    <glyph glyph-name="tildecmb" unicode="&#x303;" horiz-adv-x="0" 
d="M-351 682q15 0 35 -5q21 -5 47 -15q27 -10 43 -16q16 -4 22 -5q16 1 26 11q9 10 11 30h59q0 -30 -7 -55q-6 -23 -21 -41q-14 -16 -32 -26q-18 -9 -40 -9q-12 1 -31 5q-19 6 -46 15q-24 12 -42 16q-17 5 -26 5q-17 0 -27 -10q-8 -10 -11 -31h-62q2 31 8 55q7 24 22 41
q15 18 33 26q18 9 39 9z" />
    <glyph glyph-name="hookabovecomb" unicode="&#x309;" horiz-adv-x="0" 
d="M-331 523v85h22q9 0 17 2q8 3 13 6q7 6 10 10q3 6 3 12q0 18 -12 25q-10 9 -34 8q-16 1 -32 -2q-14 -1 -27 -4v61q21 4 40 6q21 2 42 1q30 0 51 -6q22 -6 37 -18q16 -12 24 -30q9 -17 8 -41q0 -18 -6 -33q-6 -13 -21 -25q-12 -10 -30 -17q-16 -5 -38 -8v-32h-67z" />
    <glyph glyph-name="dotbelowcmb" unicode="&#x323;" horiz-adv-x="0" 
d="M-367 -138q0 15 6 27q6 13 15 22q12 12 23 16q12 4 26 4q15 0 27 -4t22 -16q12 -9 16 -22q6 -12 5 -27q1 -14 -5 -26q-4 -12 -16 -22q-10 -10 -22 -16q-12 -4 -27 -5q-14 1 -26 5q-11 6 -23 16q-9 10 -15 22t-6 26z" />
    <glyph glyph-name="numeralsigngreek" unicode="&#x374;" horiz-adv-x="245" 
d="M36 517q12 45 50 181h125q-24 -45 -96 -181h-79z" />
    <glyph glyph-name="numeralsignlowergreek" unicode="&#x375;" horiz-adv-x="245" 
d="M34 -87q24 45 96 181h79q-12 -45 -50 -181h-125z" />
    <glyph glyph-name="questiongreek" unicode="&#x37e;" horiz-adv-x="258" 
d="M122 156h1q20 0 35 -8q16 -8 28 -26q14 -16 19 -38q6 -20 6 -43q0 -32 -10 -60q-9 -27 -31 -54q-20 -23 -50 -41q-28 -16 -66 -24v22q28 21 40 49q14 30 14 68q-30 9 -47 28q-15 21 -15 49q0 18 6 31q6 14 17 24q12 13 24 17q14 6 29 6zM53 410q0 16 6 30q7 14 17 24
q12 12 24 16q14 6 29 5q15 1 29 -5q15 -4 24 -16q12 -10 17 -24q6 -14 6 -29t-6 -29q-5 -12 -17 -25q-9 -11 -24 -17q-14 -6 -29 -6q-3 0 -11 1v0q-9 1 -18 4q-12 7 -24 16q-10 12 -17 26q-6 14 -6 29z" />
    <glyph glyph-name="tonos" unicode="&#x384;" horiz-adv-x="341" 
d="M109 539q13 38 49 150h131q-26 -36 -104 -150h-76z" />
    <glyph glyph-name="dialytikatonos" unicode="&#x385;" horiz-adv-x="341" 
d="M113 566q9 40 34 154h109q-20 -38 -82 -154h-61zM92 633q0 -12 -4 -21q-3 -10 -12 -19q-8 -9 -18 -13t-22 -5q-12 1 -22 4q-9 4 -18 13q-8 10 -12 19q-4 10 -4 22q0 13 4 22q4 10 12 18q9 9 18 12q10 4 22 4t22 -3q10 -4 18 -13q9 -9 12 -19q4 -9 4 -21zM250 633
q0 12 4 21l12 18q10 10 19 13q11 4 21 4q12 0 22 -3q10 -4 18 -13q10 -9 13 -19q3 -9 3 -21t-3 -21q-3 -10 -13 -19q-8 -9 -18 -13t-22 -5q-10 1 -21 4q-9 4 -19 13q-6 10 -12 19q-4 10 -4 22z" />
    <glyph glyph-name="Alphatonos" unicode="&#x386;" horiz-adv-x="736" 
d="M304 705h122q78 -176 310 -702h-138q-20 47 -81 185h-299q-18 -45 -78 -185h-138q76 176 302 702zM365 542q-26 -64 -104 -253h212q-27 63 -108 253zM20 524q14 45 50 174h131q-26 -42 -104 -174h-77z" />
    <glyph glyph-name="anoteleia" unicode="&#x387;" horiz-adv-x="245" 
d="M122 308q-15 0 -29 6q-12 6 -24 16q-11 12 -17 25q-6 15 -6 29q0 18 6 30q6 15 17 24q12 12 24 16q14 6 29 6t29 -5t24 -17q13 -9 17 -24q6 -14 6 -29t-5 -28t-17 -25q-10 -12 -24 -18t-30 -6z" />
    <glyph glyph-name="Epsilontonos" unicode="&#x388;" horiz-adv-x="710" 
d="M215 698h434v-105h-299v-185h288v-106h-288v-196h308v-106h-443v698zM0 524q12 45 49 174h131q-26 -42 -103 -174h-77z" />
    <glyph glyph-name="Etatonos" unicode="&#x389;" horiz-adv-x="931" 
d="M217 698h135v-287h368v287h135v-698h-135v294h-368v-294h-135v698zM0 524q12 45 49 174h131q-26 -42 -103 -174h-77z" />
    <glyph glyph-name="Iotatonos" unicode="&#x38a;" horiz-adv-x="424" 
d="M213 698h135v-698h-135v698zM0 524q12 45 49 174h131q-26 -42 -103 -174h-77z" />
    <glyph glyph-name="Omicrontonos" unicode="&#x38c;" horiz-adv-x="921" 
d="M495 708q85 0 154 -26q69 -24 121 -77q54 -51 79 -114q27 -63 27 -141q0 -74 -26 -138q-26 -62 -78 -116q-52 -52 -122 -79q-70 -26 -160 -26q-84 0 -153 26q-68 27 -120 78q-51 53 -77 116t-26 137q0 34 5 67q6 33 18 64q14 33 30 61q18 28 40 54q23 26 53 47t67 36
t79 23q44 8 89 8zM492 113q54 1 97 16q45 15 79 46q36 33 52 75q18 44 17 100q0 48 -15 89q-16 42 -49 76q-32 35 -77 53q-44 18 -100 18t-100 -17q-44 -15 -78 -50q-33 -33 -49 -76q-17 -43 -17 -95q0 -51 17 -93q18 -42 52 -76q35 -33 77 -50q44 -15 94 -16zM0 524
q12 45 49 174h131q-26 -42 -103 -174h-77z" />
    <glyph glyph-name="Upsilontonos" unicode="&#x38e;" horiz-adv-x="859" 
d="M197 698h151q46 -57 178 -234q46 58 181 234h152q-64 -86 -262 -345v-353h-136v352q-66 88 -264 346zM0 524q12 45 49 174h131q-26 -42 -103 -174h-77z" />
    <glyph glyph-name="Omegatonos" unicode="&#x38f;" horiz-adv-x="883" 
d="M133 0v111h153q-44 33 -76 65q-32 34 -50 67q-18 35 -28 74q-9 40 -9 85q0 68 24 122q25 56 73 98q50 44 114 64q66 22 146 22q82 0 147 -22q65 -20 113 -64q50 -42 74 -98t24 -122q0 -46 -10 -86q-9 -40 -27 -73t-50 -67q-32 -32 -77 -65h153v-111h-287v109q45 30 75 60
q31 31 49 64q18 34 27 72q9 39 9 79q0 46 -14 83q-14 39 -43 65q-28 30 -70 43q-41 15 -95 14q-50 1 -90 -14q-40 -14 -70 -44q-28 -27 -43 -64q-15 -36 -15 -81q0 -40 9 -79q10 -37 28 -73q19 -32 49 -65q32 -30 73 -60v-109h-286zM0 524q12 45 49 174h131
q-26 -42 -103 -174h-77z" />
    <glyph glyph-name="iotadieresistonos" unicode="&#x390;" horiz-adv-x="262" 
d="M63 104v373h45h75v-354q0 -9 2 -16q1 -5 4 -11q5 -3 9 -6q6 -2 13 -2q11 0 23 4q12 6 26 12v-78q-26 -18 -54 -27q-26 -9 -56 -9q-24 0 -42 7q-16 7 -26 19q-8 15 -14 36q-4 22 -5 52zM73 566q9 40 35 154h108q-20 -38 -82 -154h-61zM-4 689q12 0 21 -3q9 -4 18 -13
t13 -19q4 -9 4 -21t-4 -21q-3 -10 -12 -19q-8 -9 -18 -13t-22 -5q-12 1 -22 4q-9 4 -18 13q-8 10 -12 19q-4 10 -4 22q0 13 4 22q4 10 12 18q9 9 18 12q10 4 22 4zM210 633q0 12 4 21t12 18q10 10 20 13q10 4 20 4q12 0 21 -3q10 -4 18 -13q9 -9 13 -19q6 -9 5 -21
q0 -12 -4 -21q-3 -10 -13 -19q-8 -9 -17 -13t-23 -5q-10 1 -21 4q-9 4 -19 13q-6 10 -12 19q-4 10 -4 22z" />
    <glyph glyph-name="Alpha" unicode="&#x391;" horiz-adv-x="734" 
d="M302 701h122q78 -175 310 -701h-138q-20 46 -81 185h-299q-18 -45 -78 -185h-138q76 176 302 701zM362 539q-24 -63 -103 -253h212q-27 64 -109 253z" />
    <glyph glyph-name="Beta" unicode="&#x392;" horiz-adv-x="633" 
d="M76 698h246q54 0 95 -11q42 -11 70 -37q30 -24 45 -56t15 -72q1 -51 -26 -89q-24 -38 -78 -59q39 -8 68 -26q29 -15 50 -41q23 -23 32 -53q10 -28 10 -61q0 -51 -18 -88q-18 -35 -57 -59q-36 -22 -86 -34q-48 -12 -106 -12h-260v698zM210 601v-199h73q33 0 58 7
q25 6 40 20q17 15 25 33q8 20 8 43q0 25 -7 43q-6 18 -21 30q-14 12 -37 17q-22 6 -54 6h-85zM210 97h100q80 0 117 26q39 27 39 79t-40 78q-38 26 -119 26h-97v-209z" />
    <glyph glyph-name="Gamma" unicode="&#x393;" horiz-adv-x="546" 
d="M80 0v698h452v-115h-317v-583h-135z" />
    <glyph glyph-name="Deltagreek" unicode="&#x394;" horiz-adv-x="730" 
d="M0 0q78 177 307 702h117q76 -174 306 -702h-730zM183 110h362q-45 108 -180 428q-45 -106 -182 -428z" />
    <glyph glyph-name="Epsilon" unicode="&#x395;" horiz-adv-x="570" 
d="M76 698h434v-105h-299v-185h288v-106h-288v-196h308v-106h-443v698z" />
    <glyph glyph-name="Zeta" unicode="&#x396;" horiz-adv-x="688" 
d="M43 698h625q-104 -146 -418 -584h418v-114h-655q105 147 419 585h-389v113z" />
    <glyph glyph-name="Eta" unicode="&#x397;" horiz-adv-x="790" 
d="M76 698h135v-287h368v287h135v-698h-135v294h-368v-294h-135v698z" />
    <glyph glyph-name="Theta" unicode="&#x398;" horiz-adv-x="857" 
d="M428 708q86 0 155 -26q71 -24 123 -77q54 -51 80 -114t26 -141q0 -74 -26 -138q-24 -62 -78 -116q-52 -52 -124 -79q-70 -26 -160 -26q-84 0 -154 26q-68 27 -120 78q-52 53 -79 116q-26 63 -26 137q0 34 6 67t18 64q12 33 30 61t40 54q24 26 54 47q31 21 67 36
q38 15 80 23t88 8zM429 591q-57 0 -104 -18q-45 -16 -79 -54q-32 -35 -49 -79q-17 -42 -17 -92q0 -51 18 -96q18 -42 53 -77q35 -33 79 -51q44 -16 95 -16q33 0 62 5q28 7 54 17q27 12 45 26q20 15 34 33q15 19 25 39q12 20 18 39q8 21 11 42t3 41q1 48 -17 90
q-16 42 -50 78q-33 38 -78 55q-45 18 -103 18zM248 406h361v-105h-361v105z" />
    <glyph glyph-name="Iota" unicode="&#x399;" horiz-adv-x="287" 
d="M76 698h135v-698h-135v698z" />
    <glyph glyph-name="Kappa" unicode="&#x39a;" horiz-adv-x="712" 
d="M76 698h136v-320l280 320h157q-71 -81 -289 -329q90 -93 354 -369h-175q-81 87 -327 342v-342h-136v698z" />
    <glyph glyph-name="Lambda" unicode="&#x39b;" horiz-adv-x="703" 
d="M703 0h-136q-52 126 -214 500q-53 -124 -215 -500h-138q78 177 309 705h88q78 -177 306 -705z" />
    <glyph glyph-name="Mu" unicode="&#x39c;" horiz-adv-x="853" 
d="M76 698h125q57 -68 226 -278q57 70 225 278h124v-698h-135v499q-51 -64 -206 -258h-18q-51 64 -208 258v-499h-133v698z" />
    <glyph glyph-name="Nu" unicode="&#x39d;" horiz-adv-x="833" 
d="M76 698h115q110 -123 434 -492v492h132v-698h-119q-108 123 -430 489v-489h-132v698z" />
    <glyph glyph-name="Xi" unicode="&#x39e;" horiz-adv-x="658" 
d="M42 0v113h8h565v-113h-573zM109 297v112h440v-112h-440zM50 586v112h557v-111q-139 -1 -557 -1z" />
    <glyph glyph-name="Omicron" unicode="&#x39f;" horiz-adv-x="852" 
d="M426 708q86 0 154 -26q70 -24 121 -77q53 -51 80 -114t26 -141q1 -74 -26 -138q-24 -62 -78 -116q-51 -52 -122 -79q-69 -26 -159 -26q-84 0 -153 26q-67 27 -121 78q-50 53 -77 116q-26 63 -26 137q0 34 6 67t18 64q13 33 29 61q18 28 40 54q24 26 53 47q31 21 67 36
q38 15 80 23t88 8zM423 113q54 1 98 16t78 46q35 33 53 75q18 44 17 100q0 48 -16 89q-15 42 -49 76q-32 35 -77 53q-43 18 -100 18q-54 0 -99 -17q-44 -15 -78 -50q-32 -33 -50 -76q-16 -43 -17 -95q1 -51 17 -93q18 -42 52 -76q36 -33 78 -50q42 -15 93 -16z" />
    <glyph glyph-name="Pi" unicode="&#x3a0;" horiz-adv-x="787" 
d="M76 0v698h636v-698h-135v582h-366v-582h-135z" />
    <glyph glyph-name="Rho" unicode="&#x3a1;" horiz-adv-x="596" 
d="M76 698h251q57 0 100 -13q45 -13 76 -41q33 -26 48 -64q16 -38 16 -86t-15 -85t-48 -65q-32 -26 -78 -41q-44 -13 -104 -13h-111v-290h-135v698zM211 596v-203h90q36 0 60 6q27 8 39 20q16 15 22 32q8 20 7 44q1 27 -7 44q-6 19 -23 31q-15 14 -40 20t-61 6h-87z" />
    <glyph glyph-name="Sigma" unicode="&#x3a3;" horiz-adv-x="653" 
d="M14 0q72 88 288 353q-72 87 -288 345h591v-113h-337q48 -57 191 -233q-47 -58 -191 -238h361v-114h-615z" />
    <glyph glyph-name="Tau" unicode="&#x3a4;" horiz-adv-x="662" 
d="M17 698h627v-114h-247v-584h-135v584h-245v114z" />
    <glyph glyph-name="Upsilon" unicode="&#x3a5;" horiz-adv-x="663" 
d="M0 698h152q44 -57 178 -234q45 58 180 234h153q-65 -86 -263 -345v-353h-136v352q-66 88 -264 346z" />
    <glyph glyph-name="Phi" unicode="&#x3a6;" horiz-adv-x="848" 
d="M358 -9v112q-72 5 -128 23q-56 21 -100 54q-42 36 -64 80q-21 46 -21 98q0 54 21 97q22 43 62 76q42 35 100 53q58 20 130 22v102h131v-102q71 -2 128 -21q57 -18 100 -54q43 -33 64 -78q22 -42 22 -96q0 -52 -21 -97q-21 -44 -63 -80q-42 -33 -99 -54q-57 -18 -131 -23
v-112h-131zM358 210v289q-40 0 -73 -10t-56 -31q-22 -20 -34 -46q-12 -24 -12 -56q1 -30 11 -55q12 -25 32 -46q24 -19 56 -31q34 -12 76 -14zM489 499v-289q43 2 75 12q32 12 54 31q24 21 35 47q12 27 12 57q0 33 -12 58q-11 26 -38 44q-23 20 -56 29q-31 10 -70 11z" />
    <glyph glyph-name="Chi" unicode="&#x3a7;" horiz-adv-x="773" 
d="M22 698h168q81 -96 129 -157q49 -59 67 -83q30 39 78 99q50 60 116 141h165q-68 -84 -275 -336q75 -90 300 -362h-168q-106 130 -161 195q-52 67 -55 67q-52 -64 -107 -131q-52 -65 -108 -131h-168q75 92 299 362z" />
    <glyph glyph-name="Psi" unicode="&#x3a8;" horiz-adv-x="839" 
d="M353 -9v120q-79 9 -136 40q-57 32 -94 83q-35 54 -55 132q-18 78 -18 179v36h135q1 -87 10 -152q10 -63 28 -105q19 -42 52 -66t78 -32v482h132v-482q47 8 80 32t50 67q21 43 29 106q9 64 9 150h135v-36q0 -100 -18 -178q-18 -76 -55 -130q-37 -52 -95 -85
q-57 -30 -135 -41v-120h-132z" />
    <glyph glyph-name="Omega" unicode="&#x3a9;" horiz-adv-x="805" 
d="M55 0v111h153q-44 33 -76 65q-32 34 -50 67q-18 35 -28 74q-9 40 -9 85q1 68 25 122q24 56 72 98q50 44 114 64q66 22 146 22q84 0 147 -22q66 -20 114 -64q49 -42 73 -98t24 -122q0 -46 -9 -86t-28 -73q-17 -33 -50 -67q-32 -32 -77 -65h154v-111h-288v109q45 30 75 60
q31 31 49 64q18 34 27 72q10 39 10 79q1 46 -14 83q-15 39 -44 65q-28 30 -70 43q-41 15 -95 14q-50 1 -90 -14q-39 -14 -69 -44q-29 -27 -44 -64q-15 -36 -15 -81q0 -40 9 -79q10 -37 28 -73q19 -32 49 -65q32 -30 73 -60v-109h-286z" />
    <glyph glyph-name="Iotadieresis" unicode="&#x3aa;" horiz-adv-x="287" 
d="M76 698h135v-698h-135v698zM-17 833q1 13 4 23q5 10 14 20t21 13q12 5 23 5q13 0 23 -5q12 -3 20 -13q10 -10 14 -20t4 -23q0 -12 -4 -24q-4 -11 -14 -21q-8 -9 -20 -13q-4 -3 -11 -4v0q-6 -1 -12 -1q-11 0 -23 5q-12 4 -21 13q-9 10 -14 21q-3 12 -4 24zM244 894
q14 0 23 -5q11 -3 20 -13t14 -20q4 -10 4 -23q0 -12 -4 -24q-3 -11 -13 -21q-8 -9 -20 -13q-10 -5 -24 -5q-12 0 -23 5q-11 4 -20 13q-9 10 -14 21q-5 12 -5 24q0 14 5 23q5 10 14 20t20 13q11 5 23 5z" />
    <glyph glyph-name="Upsilondieresis" unicode="&#x3ab;" horiz-adv-x="663" 
d="M0 698h152q44 -57 178 -234q45 58 180 234h153q-65 -86 -263 -345v-353h-136v352q-66 88 -264 346zM169 833q1 13 5 23t13 20q11 10 21 13q12 5 23 5q14 0 23 -5q12 -3 20 -13q10 -10 14 -20q6 -10 5 -23q1 -12 -5 -24q-4 -11 -14 -21q-8 -9 -20 -13q-4 -3 -11 -4v0
q-4 -1 -12 -1q-11 0 -23 5q-10 4 -21 13q-9 10 -13 21q-4 12 -5 24zM430 894q14 0 24 -5q10 -3 19 -13t14 -20t5 -23q0 -12 -5 -24q-3 -11 -13 -21q-8 -9 -20 -13q-10 -5 -24 -5q-12 0 -23 5q-11 4 -20 13q-9 10 -14 21q-3 12 -4 24q1 14 4 23q5 10 14 20t20 13q11 5 23 5z
" />
    <glyph glyph-name="alphatonos" unicode="&#x3ac;" horiz-adv-x="580" 
d="M381 135v226q-19 15 -41 20q-22 8 -46 8q-32 0 -56 -9q-24 -10 -42 -31q-16 -20 -26 -47q-9 -27 -9 -63q1 -37 7 -64q8 -27 23 -48q17 -20 38 -30q21 -9 47 -10q30 0 57 12t48 36zM567 104v-80q-29 -16 -55 -25q-26 -8 -47 -8q-31 0 -51 14q-18 15 -26 44
q-30 -29 -67 -44q-35 -15 -75 -15q-45 0 -83 17q-37 18 -67 51q-28 36 -44 80q-15 46 -15 102t15 99q16 45 48 79q33 34 75 51t92 17h5v0q27 0 53 -7q29 -7 56 -22v20h120v-343q1 -12 1 -21q2 -8 4 -14q4 -3 8 -7q6 -3 11 -3q8 1 18 4q10 5 24 11zM225 539q13 38 49 150h132
q-26 -36 -104 -150h-56h-21z" />
    <glyph glyph-name="epsilontonos" unicode="&#x3ad;" horiz-adv-x="465" 
d="M431 121v-99q-33 -15 -79 -24q-44 -8 -100 -8q-48 0 -88 8q-38 10 -68 28q-27 18 -42 44q-14 27 -14 60q0 22 7 39q9 19 22 34q15 17 34 27t43 16v3q-20 5 -37 14q-15 9 -29 24q-12 15 -19 31q-7 18 -7 35q0 30 12 54q12 25 36 43q26 18 62 27t86 9v0q2 0 1 0q45 0 85 -8
q42 -8 80 -25v-93q-36 18 -73 24q-34 8 -70 8q-46 0 -72 -12q-24 -12 -24 -39q0 -15 6 -26q8 -10 20 -19q15 -6 34 -11q21 -3 49 -3h44v-85h-57q-54 1 -82 -14q-27 -13 -27 -40q0 -29 29 -44q30 -15 88 -15q41 0 77 9q39 9 73 28zM202 539q12 38 49 150h131
q-26 -36 -103 -150h-27h-50z" />
    <glyph glyph-name="etatonos" unicode="&#x3ae;" horiz-adv-x="566" 
d="M79 0v347q0 18 -6 26q-4 9 -18 9q-7 0 -19 -4q-10 -4 -24 -13v86q30 17 55 26t45 8q34 0 55 -18q21 -17 27 -55q36 38 73 56q27 14 56 17q12 1 22 1q39 0 69 -13q30 -12 51 -39q21 -26 32 -61t11 -80v-527h-120v514q0 56 -21 82q-21 27 -64 27q-29 0 -56 -16
q-26 -15 -48 -49v-324h-120zM249 539q13 38 49 150h131q-25 -36 -103 -150h-77z" />
    <glyph glyph-name="iotatonos" unicode="&#x3af;" horiz-adv-x="262" 
d="M63 104v373h53h67v-354q0 -9 2 -16q1 -5 4 -11q5 -3 9 -6q6 -2 13 -2q11 0 23 4q12 6 26 12v-78q-26 -18 -54 -27q-26 -9 -56 -9q-24 0 -42 7q-16 7 -26 19q-8 15 -14 36q-4 22 -5 52zM67 539q13 38 49 150h131q-26 -36 -104 -150h-76z" />
    <glyph glyph-name="upsilondieresistonos" unicode="&#x3b0;" horiz-adv-x="545" 
d="M58 205v272h120v-274q0 -55 24 -85q24 -28 70 -28q48 0 71 29q24 29 24 86v272h119v-268q0 -51 -13 -91q-12 -39 -39 -69q-26 -29 -66 -44q-39 -14 -95 -14q-54 1 -96 13q-39 14 -66 40q-27 28 -40 67q-13 40 -13 94zM215 566q9 40 35 154h108q-20 -38 -85 -154v0h-58z
M195 633q0 -12 -4 -21q-3 -10 -13 -19q-8 -9 -17 -13t-23 -5q-10 1 -21 4q-9 4 -19 13q-6 10 -12 19q-4 10 -4 22q0 13 4 22q6 10 12 18q10 9 19 12q11 4 21 4q14 0 23 -3q9 -4 17 -13q10 -9 13 -19q4 -9 4 -21zM352 633q0 12 5 21q4 9 12 18q9 10 18 13q10 4 22 4
q13 0 22 -3q10 -4 18 -13q9 -9 12 -19q4 -9 4 -21t-4 -21q-3 -10 -12 -19q-8 -9 -18 -13q-9 -4 -22 -5q-12 1 -22 4q-9 4 -18 13q-8 10 -12 19q-5 10 -5 22z" />
    <glyph glyph-name="alpha" unicode="&#x3b1;" horiz-adv-x="580" 
d="M381 135v226q-19 15 -41 20q-22 8 -46 8q-32 0 -56 -9q-24 -10 -42 -31q-16 -20 -26 -47q-9 -27 -9 -63q1 -37 7 -64q8 -27 23 -48q17 -20 38 -30q21 -9 47 -10q30 0 57 12t48 36zM567 104v-80q-29 -16 -55 -25q-26 -8 -47 -8q-31 0 -51 14q-18 15 -26 44
q-30 -29 -67 -44q-35 -15 -75 -15q-45 0 -83 17q-37 18 -67 51q-28 36 -44 80q-15 46 -15 102t15 99q16 45 48 79q33 34 75 51t92 17q30 0 58 -7q29 -7 56 -22v20h120v-343q1 -12 1 -21q2 -8 4 -14q4 -3 8 -7q6 -3 11 -3q8 1 18 4q10 5 24 11z" />
    <glyph glyph-name="beta" unicode="&#x3b2;" horiz-adv-x="562" 
d="M525 202q1 -48 -14 -86q-13 -38 -43 -68q-28 -28 -67 -44q-39 -14 -89 -14q-38 0 -70 10q-32 12 -59 31v-268h-120v708q0 119 56 177q56 60 164 60q51 0 88 -13q39 -11 66 -38q28 -24 42 -57q15 -32 14 -74q0 -21 -6 -42q-5 -21 -20 -42q-12 -20 -32 -34q-17 -14 -43 -23
q33 -8 57 -24q26 -15 41 -39q18 -24 27 -53t8 -67zM183 474v-274q0 -26 8 -46q7 -20 22 -35t36 -22q21 -8 46 -8t45 8q20 9 33 24q15 17 21 38q8 21 7 49q0 62 -34 93q-33 31 -103 33v92h7q51 0 76 24q27 24 26 71q0 21 -6 35q-5 16 -19 28q-12 12 -29 18q-16 6 -37 6
q-27 0 -45 -7q-18 -8 -30 -24t-18 -42q-6 -25 -6 -61z" />
    <glyph glyph-name="gamma" unicode="&#x3b3;" horiz-adv-x="538" 
d="M12 373q-4 21 -20 80q20 17 42 26q24 9 51 8q38 0 65 -15q28 -14 48 -46q20 -30 41 -92q22 -60 46 -153q26 77 56 151q33 75 69 144h128q-28 -52 -58 -112q-28 -58 -59 -127q-28 -67 -52 -129q-23 -60 -39 -113q10 -30 14 -57t4 -51q0 -27 -4 -50q-4 -21 -14 -39
q-8 -15 -22 -24q-12 -8 -29 -8q-15 0 -27 7q-12 9 -23 23q-9 16 -14 37t-5 48q0 29 5 56q5 30 14 58q-21 81 -39 143q-18 64 -34 106q-15 44 -29 73q-12 30 -26 42q-10 15 -24 22q-12 7 -27 7q-10 0 -19 -4q-9 -3 -19 -11z" />
    <glyph glyph-name="delta" unicode="&#x3b4;" horiz-adv-x="594" 
d="M488 665q-8 -22 -33 -90q-42 21 -84 30q-41 10 -81 10q-38 1 -58 -7q-20 -6 -20 -21q0 -9 7 -18q8 -9 20 -18q13 -9 46 -25t85 -40q94 -40 141 -103q47 -60 47 -144q0 -55 -18 -100t-55 -80q-36 -33 -84 -51q-48 -16 -108 -17q-58 0 -106 18q-46 17 -82 53q-33 38 -51 80
q-16 42 -17 90q1 44 13 80q14 36 38 66q27 32 61 48q35 18 79 25q-64 31 -98 64q-33 34 -33 73q0 28 12 49q12 23 36 38q26 17 62 25q38 8 86 8q50 0 98 -11q49 -11 97 -32zM295 90q31 0 57 11q26 10 43 30q20 21 29 48t9 61q0 32 -9 56q-8 26 -28 45q-18 21 -44 30
q-24 10 -58 10q-28 0 -53 -10q-22 -9 -42 -31q-19 -20 -29 -46q-9 -26 -9 -58q0 -33 9 -60q10 -26 28 -46t43 -30q24 -10 54 -10z" />
    <glyph glyph-name="epsilon" unicode="&#x3b5;" horiz-adv-x="465" 
d="M431 121v-99q-33 -15 -79 -24q-44 -8 -100 -8q-48 0 -88 8q-38 10 -68 28q-27 18 -42 44q-14 27 -14 60q0 22 7 39q9 19 22 34q15 17 34 27t43 16v3q-20 5 -37 14q-15 9 -29 24q-12 15 -19 31q-7 18 -7 35q0 30 12 54q12 25 36 43q26 18 62 27t84 9q46 0 88 -8t80 -25
v-93q-36 18 -73 24q-34 8 -70 8q-46 0 -72 -12q-24 -12 -24 -39q0 -15 6 -26q8 -10 20 -19q15 -6 34 -11q21 -3 49 -3h44v-85h-57q-54 1 -82 -14q-27 -13 -27 -40q0 -29 29 -44q30 -15 88 -15q41 0 77 9q39 9 73 28z" />
    <glyph glyph-name="zeta" unicode="&#x3b6;" horiz-adv-x="486" 
d="M159 -224q6 24 26 96q19 -2 34 -4q15 0 27 -1q24 1 40 4q18 5 29 14q14 10 20 22t6 27q0 18 -6 29q-5 11 -19 19q-12 8 -32 12t-50 4q-96 2 -144 51q-48 51 -48 148q0 75 42 165q42 92 125 197q-48 11 -87 31q-38 22 -66 50q22 26 65 74q41 -33 83 -53q42 -19 86 -22
q44 31 81 46q39 15 72 14q33 0 48 -10q16 -10 16 -34q0 -22 -15 -43q-14 -18 -43 -34q-30 -14 -63 -23q-34 -9 -73 -10q-72 -86 -110 -170q-37 -85 -37 -166q0 -28 5 -48q7 -20 16 -32q13 -10 35 -18q24 -5 57 -7q45 0 78 -11q35 -11 57 -32q24 -19 35 -49q12 -30 12 -68
q1 -38 -14 -71q-14 -31 -44 -57q-29 -24 -68 -38q-39 -12 -88 -12q-23 0 -45 2q-22 4 -43 8z" />
    <glyph glyph-name="eta" unicode="&#x3b7;" horiz-adv-x="566" 
d="M79 0v347q0 18 -6 26q-4 9 -18 9q-7 0 -19 -4q-10 -4 -24 -13v86q30 17 55 26t45 8q34 0 55 -18q21 -17 27 -55q36 38 73 56q38 18 78 18q39 0 69 -13q30 -12 51 -39q21 -26 32 -61t11 -80v-527h-120v514q0 56 -21 82q-21 27 -64 27q-29 0 -56 -16q-26 -15 -48 -49v-324
h-120z" />
    <glyph glyph-name="theta" unicode="&#x3b8;" horiz-adv-x="546" 
d="M272 -8q-52 0 -95 22q-43 24 -76 68q-32 46 -48 112q-15 66 -16 151q1 85 16 151q17 68 47 115q34 50 76 74q44 24 97 24q54 1 94 -23q42 -21 75 -69q34 -45 51 -112q16 -65 16 -152q0 -84 -15 -152q-15 -66 -48 -114q-30 -47 -75 -71q-42 -24 -99 -24zM386 301h-226
q2 -53 10 -92q9 -39 21 -65q15 -24 35 -37t46 -13q57 0 84 52q30 52 30 155zM160 396h226q0 106 -30 158q-28 52 -85 52q-53 0 -80 -52t-31 -158z" />
    <glyph glyph-name="iota" unicode="&#x3b9;" horiz-adv-x="262" 
d="M63 104v373h120v-354q0 -9 2 -16q1 -5 4 -11q5 -3 9 -6q6 -2 13 -2q11 0 23 4q12 6 26 12v-78q-26 -18 -54 -27q-26 -9 -56 -9q-24 0 -42 7q-16 7 -26 19q-8 15 -14 36q-4 22 -5 52z" />
    <glyph glyph-name="kappa" unicode="&#x3ba;" horiz-adv-x="563" 
d="M63 0v477h120v-227q36 40 144 162q33 38 66 56q35 18 71 18q18 0 35 -4q19 -3 35 -12v-99q-14 6 -26 9t-26 3q-18 0 -37 -10q-19 -11 -37 -32q-28 -30 -82 -90q60 -63 237 -251h-151q-57 62 -229 243v-243h-120z" />
    <glyph glyph-name="lambda" unicode="&#x3bb;" horiz-adv-x="508" 
d="M0 0q48 116 190 460q0 6 -5 14q-3 8 -8 20q-3 12 -7 20q-3 9 -6 13q-2 8 -6 14q-4 7 -8 15q-4 10 -9 16q-3 6 -8 11q-3 5 -9 8q-3 5 -11 9q-7 6 -13 8q-6 4 -15 4q15 33 46 97q24 -3 42 -11q21 -8 35 -23q16 -14 30 -36q15 -23 27 -53q51 -123 149 -372q14 -36 26 -60
t20 -36q9 -12 21 -21t27 -15q-15 -30 -48 -91q-26 3 -46 14t-38 32q-15 21 -33 52q-15 32 -33 71q-20 52 -61 157q-32 -79 -128 -317h-121z" />
    <glyph glyph-name="mugreek" unicode="&#x3bc;" horiz-adv-x="571" 
d="M63 -236v711h119v-319q20 -33 42 -51q24 -17 52 -17q24 0 41 7q19 8 31 20q14 15 20 31q8 18 7 40v289h119v-351q0 -20 6 -30q8 -10 20 -10q10 0 19 4q10 4 19 10v-82q-20 -12 -42 -19q-21 -6 -47 -6q-35 1 -57 16q-20 16 -28 46q-20 -30 -45 -46q-25 -15 -57 -16
q-30 1 -55 16q-24 17 -45 47v-290h-119z" />
    <glyph glyph-name="nu" unicode="&#x3bd;" horiz-adv-x="512" 
d="M204 -6q-51 122 -204 483h129q33 -81 130 -325q25 30 43 60q20 32 34 63q16 33 22 60q8 27 8 49q0 26 -11 43q-10 20 -34 32q39 9 116 26q13 -6 21 -15q10 -8 16 -23q8 -11 11 -26q3 -13 3 -29q0 -34 -15 -80q-15 -44 -47 -99q-30 -53 -71 -109q-40 -54 -91 -110h-60z
" />
    <glyph glyph-name="xi" unicode="&#x3be;" horiz-adv-x="477" 
d="M157 -222q8 24 30 98q22 -4 40 -7q18 -2 32 -2q20 1 35 4q15 5 27 14q13 10 17 22q6 13 6 25q0 16 -6 27q-4 13 -17 19q-13 10 -34 13q-21 5 -54 5q-45 2 -81 15q-36 15 -62 39q-24 27 -38 60q-12 34 -13 76q1 39 10 72q10 33 31 63t51 52q29 24 68 39q-32 16 -48 38
q-15 24 -16 54q0 22 9 41q9 20 25 36q-39 10 -70 30q-31 21 -53 47q24 24 72 68q30 -27 62 -45q34 -17 71 -25q41 24 77 36q38 12 70 11q38 1 56 -11t18 -36q0 -12 -8 -26q-8 -12 -25 -25q-15 -12 -37 -21q-22 -8 -50 -13q-15 -3 -36 -5q-20 -2 -46 -2q-10 -9 -16 -21
q-6 -13 -6 -28q0 -29 27 -44q29 -15 81 -15h55v-94h-40q-48 0 -87 -9q-38 -9 -66 -30q-26 -19 -40 -51q-14 -30 -14 -71q0 -22 6 -42q6 -18 18 -30q14 -11 34 -19q22 -6 49 -8q51 0 86 -11q38 -10 60 -34q25 -21 35 -50q12 -30 12 -66t-14 -69q-14 -30 -42 -56
q-28 -24 -68 -38q-39 -12 -90 -12q-26 0 -50 3q-22 3 -43 9z" />
    <glyph glyph-name="omicron" unicode="&#x3bf;" horiz-adv-x="594" 
d="M294 387q-28 0 -53 -10q-22 -9 -42 -30q-19 -20 -29 -47q-9 -28 -9 -61t9 -62q10 -27 29 -47q20 -20 44 -30q25 -10 55 -10q32 0 55 11q25 10 43 30q20 21 28 48q9 27 9 60q0 36 -9 63q-9 28 -30 46q-20 21 -45 30q-23 9 -55 9zM298 486q58 0 106 -17t82 -51
q36 -34 54 -79t18 -100q0 -59 -19 -104t-58 -79q-38 -32 -84 -49q-47 -15 -101 -16q-60 0 -108 18t-83 54q-33 38 -51 80q-16 45 -17 94q0 55 18 99q17 44 53 80t82 53q48 17 108 17z" />
    <glyph glyph-name="pi" unicode="&#x3c0;" horiz-adv-x="656" 
d="M114 0v376q-24 -2 -50 -8q-24 -6 -50 -18v99q27 14 57 20q31 7 67 7h504v-101h-97v-375h-120v375h-192v-375h-119z" />
    <glyph glyph-name="rho" unicode="&#x3c1;" horiz-adv-x="611" 
d="M58 -233v458q0 61 17 107q18 48 51 83q36 36 82 54q48 17 107 17q57 0 104 -16t83 -51q38 -33 55 -79q18 -44 18 -99q1 -55 -17 -100q-16 -45 -53 -81q-35 -34 -81 -52q-44 -16 -98 -17q-44 0 -81 14q-37 15 -67 44v-282h-120zM452 240q0 33 -9 59q-9 27 -28 47
q-18 22 -45 32q-24 10 -58 10q-30 0 -55 -10t-43 -32q-18 -21 -27 -49q-9 -27 -9 -60t9 -60t27 -47t44 -30t56 -10q33 0 57 10q26 9 44 29q18 21 27 48q10 27 10 63z" />
    <glyph glyph-name="sigma1" unicode="&#x3c2;" horiz-adv-x="496" 
d="M156 -224q8 24 29 98q21 -2 36 -5q17 -2 29 -2q22 1 38 5q18 6 29 15q14 12 20 24q6 14 6 29q0 28 -21 43t-65 15q-109 8 -165 61q-54 55 -55 157q1 26 4 48q5 24 11 46q10 24 20 46q12 21 27 41q17 21 38 36q21 17 48 29q29 12 59 18t64 6q46 0 85 -10q40 -10 76 -31
q-14 -31 -41 -97q-28 18 -58 26t-62 8q-34 0 -61 -11q-27 -10 -47 -34q-20 -23 -29 -53t-10 -67q1 -27 7 -48q8 -21 20 -35q15 -14 39 -21q25 -8 58 -11q89 -4 133 -44q45 -40 45 -115q0 -39 -16 -70q-15 -31 -46 -57q-30 -24 -69 -38q-39 -12 -87 -12q-23 0 -45 2z" />
    <glyph glyph-name="sigma" unicode="&#x3c3;" horiz-adv-x="635" 
d="M299 477h322v-99h-132q36 -26 52 -64q17 -36 17 -85t-18 -93q-18 -42 -55 -77q-35 -33 -83 -51q-46 -16 -105 -17q-57 1 -105 17q-46 18 -83 52q-36 36 -54 79t-18 94q0 54 18 98q18 45 54 78q37 35 83 51q48 18 107 17zM297 378q-32 0 -56 -10q-25 -9 -43 -30
q-18 -20 -28 -46q-9 -24 -9 -58q0 -30 8 -56q9 -26 27 -47q18 -20 43 -30q27 -11 58 -11q32 0 56 10q25 10 43 30q20 20 29 47t9 60q0 29 -9 55q-7 26 -28 45q-17 21 -43 31t-57 10z" />
    <glyph glyph-name="tau" unicode="&#x3c4;" horiz-adv-x="474" 
d="M177 0v376q-31 0 -57 -1q-24 -1 -41 -4q-15 -3 -32 -9t-33 -15v100q26 17 58 23q32 8 66 7h322v-101h-163v-376h-120z" />
    <glyph glyph-name="upsilon" unicode="&#x3c5;" horiz-adv-x="545" 
d="M58 205v272h120v-274q0 -55 24 -85q24 -28 70 -28q48 0 71 29q24 29 24 86v272h119v-268q0 -51 -13 -91q-12 -39 -39 -69q-26 -29 -66 -44q-39 -14 -95 -14q-54 1 -96 13q-39 14 -66 40q-27 28 -40 67q-13 40 -13 94z" />
    <glyph glyph-name="phi" unicode="&#x3c6;" horiz-adv-x="696" 
d="M288 -234v234q-57 3 -103 21q-45 17 -80 50q-33 33 -51 74q-16 42 -17 93q1 50 17 90q18 40 51 73q35 35 80 53q46 18 103 21v223h120v-223q58 -3 103 -20q47 -18 80 -52q35 -33 51 -74q18 -41 17 -91q0 -50 -16 -92q-15 -40 -50 -73q-33 -32 -80 -50q-45 -17 -105 -23
v-234h-120zM288 95v285q-28 -2 -53 -12q-22 -10 -40 -31q-17 -18 -26 -44q-9 -23 -9 -53t8 -56q10 -24 28 -45q18 -19 41 -31q24 -10 51 -13zM408 380v-285q30 5 52 15q24 12 41 28q17 20 26 43q9 25 9 55t-9 56q-8 26 -26 45q-17 21 -41 31q-22 10 -52 12z" />
    <glyph glyph-name="chi" unicode="&#x3c7;" horiz-adv-x="507" 
d="M2 -227q48 91 191 364q-20 36 -78 141q-19 36 -34 58q-14 22 -23 31q-6 9 -21 15q-13 8 -33 11q12 33 36 94q30 -1 51 -10q23 -8 39 -23q18 -16 37 -44q21 -28 43 -72q18 -30 51 -93q31 58 119 232h123q-45 -83 -179 -338q26 -47 107 -189q13 -22 25 -39l20 -25
q10 -8 22 -13t24 -7q-15 -34 -48 -104q-22 0 -42 8q-18 9 -35 25q-15 18 -34 45q-19 30 -41 68q-22 42 -68 123l-129 -258h-123z" />
    <glyph glyph-name="psi" unicode="&#x3c8;" horiz-adv-x="670" 
d="M275 -234v233q-55 4 -97 22q-40 17 -67 50t-40 81q-13 50 -13 113v212h120v-221q0 -34 6 -63q6 -27 19 -50q12 -20 30 -32q20 -11 42 -14v601h120v-601q49 9 73 46q26 39 25 104v230h118v-213q0 -120 -54 -188q-52 -66 -162 -77v-233h-120z" />
    <glyph glyph-name="omega" unicode="&#x3c9;" horiz-adv-x="822" 
d="M352 237v66h120v-67q0 -34 7 -62q7 -26 19 -46q14 -18 30 -28q18 -10 40 -10q24 0 39 11q17 10 29 30q12 21 18 48t6 61q0 54 -19 113q-19 60 -58 124h128q17 -21 29 -50q14 -27 23 -59q12 -32 15 -64q6 -30 5 -61q1 -56 -13 -101q-12 -45 -41 -81q-27 -35 -65 -53
q-38 -16 -87 -17q-60 0 -102 27q-40 27 -64 79q-13 -27 -31 -46q-15 -19 -36 -34q-18 -13 -44 -19t-56 -7q-48 1 -86 17q-36 18 -65 50q-27 34 -41 80t-14 103t18 115q20 60 56 121h128q-39 -66 -59 -126t-20 -114q0 -33 6 -59q7 -26 17 -47q14 -20 29 -30q17 -11 38 -11
q24 0 42 9t32 27t20 46q7 28 7 65z" />
    <glyph glyph-name="iotadieresis" unicode="&#x3ca;" horiz-adv-x="262" 
d="M63 104v373h120v-354q0 -9 2 -16q1 -5 4 -11q5 -3 9 -6q6 -2 13 -2q11 0 23 4q12 6 26 12v-78q-26 -18 -54 -27q-26 -9 -56 -9q-24 0 -42 7q-16 7 -26 19q-8 15 -14 36q-4 22 -5 52zM24 564q-12 0 -23 4q-9 4 -19 14t-14 20t-5 23q1 13 4 22q5 11 14 20t20 13q11 6 23 5
q12 0 23 -4q11 -3 20 -13t13 -20q6 -10 5 -23q0 -13 -4 -23q-3 -10 -13 -19q-9 -9 -21 -14q-4 -1 -10 -4q-7 -1 -13 -1zM222 685q12 0 23 -4q11 -3 19 -13q10 -10 14 -20t4 -23t-4 -23t-14 -19q-8 -9 -19 -14t-23 -5t-23 4t-20 14t-14 20q-3 10 -4 23q1 13 4 22q4 11 13 20
t21 13q11 6 23 5z" />
    <glyph glyph-name="upsilondieresis" unicode="&#x3cb;" horiz-adv-x="545" 
d="M58 205v272h120v0v-274q0 -55 24 -85q24 -28 70 -28q48 0 71 29q24 29 24 86v272h119v-268q0 -51 -13 -91q-12 -39 -39 -69q-26 -29 -66 -44q-39 -14 -95 -14q-54 1 -96 13q-39 14 -66 40q-27 28 -40 67q-13 40 -13 94zM176 589q-12 1 -22 4q-10 4 -20 13q-8 10 -14 20
q-4 12 -4 23q0 14 4 23q4 10 13 19t20 14t23 5t23 -4t20 -14q9 -8 14 -20q5 -9 5 -23q0 -12 -5 -22q-3 -11 -13 -20q-8 -9 -20 -14q-6 -1 -16 -3v0q-4 0 -8 -1zM375 710q13 0 23 -4t19 -14q9 -8 13 -20q4 -9 4 -23q0 -12 -4 -22q-4 -11 -13 -20t-19 -14q-10 -3 -23 -4
q-13 1 -23 4q-10 4 -20 13q-8 10 -14 20q-4 12 -5 23q1 14 4 23q5 10 14 19t20 14q12 5 24 5z" />
    <glyph glyph-name="omicrontonos" unicode="&#x3cc;" horiz-adv-x="594" 
d="M294 387q-28 0 -53 -10q-22 -9 -42 -30q-19 -20 -29 -47q-9 -28 -9 -61t9 -62q10 -27 29 -47q20 -20 44 -30q25 -10 55 -10q32 0 55 11q25 10 43 30q20 21 28 48q9 27 9 60q0 36 -9 63q-9 28 -30 46q-20 21 -45 30q-23 9 -55 9zM298 486q58 0 106 -17t82 -51
q36 -34 54 -79t18 -100q0 -59 -19 -104t-58 -79q-38 -32 -84 -49q-47 -15 -101 -16q-60 0 -108 18t-83 54q-33 38 -51 80q-16 45 -17 94q0 55 18 99q17 44 53 80t82 53q48 17 105 17h3v0zM246 539q12 38 49 150h131q-26 -36 -103 -150h-27h-50z" />
    <glyph glyph-name="upsilontonos" unicode="&#x3cd;" horiz-adv-x="545" 
d="M58 205v272h120v-274q0 -55 24 -85q24 -28 70 -28q48 0 71 29q24 29 24 86v272h119v-268q0 -51 -13 -91q-12 -39 -39 -69q-26 -29 -66 -44q-39 -14 -95 -14q-54 1 -96 13q-39 14 -66 40q-27 28 -40 67q-13 40 -13 94zM223 539q13 38 49 150h131q-25 -36 -103 -150h-27
h-50z" />
    <glyph glyph-name="omegatonos" unicode="&#x3ce;" horiz-adv-x="822" 
d="M352 237v66h120v-67q0 -34 7 -62q7 -26 19 -46q14 -18 30 -28q18 -10 40 -10q24 0 39 11q17 10 29 30q12 21 18 48t6 61q0 54 -19 113q-19 60 -58 124h128q17 -21 29 -50q14 -27 23 -59q12 -32 15 -64q6 -30 5 -61q1 -56 -13 -101q-12 -45 -41 -81q-27 -35 -65 -53
q-38 -16 -87 -17q-60 0 -102 27q-40 27 -64 79q-13 -27 -31 -46q-15 -19 -36 -34q-18 -13 -44 -19t-56 -7q-48 1 -86 17q-36 18 -65 50q-27 34 -41 80t-14 103t18 115q20 60 56 121h128q-39 -66 -59 -126t-20 -114q0 -33 6 -59q7 -26 17 -47q14 -20 29 -30q17 -11 38 -11
q24 0 42 9t32 27t20 46q7 28 7 65zM361 539q14 38 50 150h131q-26 -36 -104 -150h-77z" />
    <glyph glyph-name="uni0400" unicode="&#x400;" horiz-adv-x="570" 
d="M76 698h64h370v-105h-299v-185h288v-106h-288v-196h308v-106h-443v698zM140 910h153q21 -39 85 -159h-77q-39 41 -161 159z" />
    <glyph glyph-name="afii10023" unicode="&#x401;" horiz-adv-x="570" 
d="M76 698h117h317v-105h-299v-185h288v-106h-288v-196h308v-106h-443v698zM130 833q0 13 5 23q4 10 13 20q10 10 21 13q12 5 24 5q13 0 23 -5q10 -3 20 -13t13 -20q5 -10 5 -23q0 -12 -5 -24q-3 -11 -13 -21q-10 -9 -20 -13q0 1 -1 -1q1 0 -1 0q-9 -4 -21 -4t-24 5
q-11 4 -21 13q-9 10 -13 21q-5 12 -5 24zM391 894q14 0 24 -5q10 -3 19 -13q10 -10 14 -20q6 -10 5 -23q0 -12 -4 -24q-5 -11 -14 -21q-9 -9 -20 -13q-10 -5 -24 -5q-11 0 -23 5q-10 4 -20 13q-8 10 -14 21q-4 12 -4 24q0 14 4 23q6 10 14 20q10 10 20 13q12 5 23 5z" />
    <glyph glyph-name="afii10051" unicode="&#x402;" horiz-adv-x="818" 
d="M257 0v585h-240v114h616v-114h-241v-167q32 21 69 30q39 10 86 10q54 0 96 -15q43 -15 75 -45q33 -28 48 -71q15 -42 15 -96q0 -49 -15 -93q-14 -42 -47 -78q-32 -34 -78 -52q-46 -16 -109 -17q-21 0 -41 2q-19 3 -35 7v106q15 -3 31 -6q18 -3 38 -3q29 0 50 9t37 27
q18 19 25 43q9 24 8 54q1 30 -8 53q-7 23 -25 38q-16 17 -40 23q-24 8 -55 8q-16 0 -34 -2q-16 -2 -36 -8q-16 -4 -31 -12q-14 -6 -24 -16v-314h-135z" />
    <glyph glyph-name="afii10052" unicode="&#x403;" horiz-adv-x="532" 
d="M80 0v698h230h208v-114h-303v-584h-135zM225 751q22 41 85 159h153q-39 -39 -160 -159h-78z" />
    <glyph glyph-name="afii10053" unicode="&#x404;" horiz-adv-x="735" 
d="M190 407h353v-111h-354q9 -45 30 -79q21 -33 56 -60q37 -25 79 -39q44 -12 93 -13q57 1 117 19q60 20 122 56v-128q-58 -30 -122 -46q-64 -15 -134 -15q-46 1 -88 7q-40 9 -80 24q-36 16 -68 36q-30 22 -54 46q-22 27 -40 54q-18 28 -30 59q-12 32 -19 62q-6 33 -6 64
q0 80 27 144q28 66 82 117q56 52 126 78t156 26q62 0 122 -14q60 -12 119 -40v-129q-60 35 -118 51q-59 18 -116 17q-47 1 -89 -13q-40 -12 -75 -37q-33 -25 -56 -59q-23 -33 -33 -77z" />
    <glyph glyph-name="afii10054" unicode="&#x405;" horiz-adv-x="526" 
d="M269 708q51 0 97 -13t87 -40v-130q-42 39 -87 57q-44 18 -91 18q-21 0 -38 -5q-18 -3 -30 -14q-11 -9 -19 -23q-6 -12 -6 -30q0 -14 6 -28t16 -27q12 -12 33 -28q23 -15 56 -34q53 -28 89 -55q38 -24 57 -50q23 -24 32 -54q10 -30 10 -70t-15 -75q-14 -33 -46 -62
q-30 -27 -71 -41q-39 -12 -89 -13q-54 0 -106 15q-51 16 -101 46v142q47 -46 95 -71q50 -24 101 -24q22 0 40 6q18 7 30 17q15 12 21 25q6 15 6 31q0 18 -6 33q-6 16 -19 30q-12 13 -42 33q-28 20 -73 42q-38 24 -68 45q-28 22 -49 46q-20 23 -30 53q-9 30 -10 64
q0 40 15 73q16 33 46 58q30 27 70 40t89 13z" />
    <glyph glyph-name="afii10055" unicode="&#x406;" horiz-adv-x="287" 
d="M76 698h135v-698h-135v698z" />
    <glyph glyph-name="afii10056" unicode="&#x407;" horiz-adv-x="287" 
d="M76 698h135v-698h-135v698zM-17 833q1 13 4 23q5 10 14 20t21 13q12 5 23 5q13 0 23 -5q12 -3 20 -13q10 -10 14 -20t4 -23q0 -12 -4 -24q-4 -11 -14 -21q-8 -9 -20 -13q-4 -3 -11 -4v0q-6 -1 -12 -1q-11 0 -23 5q-12 4 -21 13q-9 10 -14 21q-3 12 -4 24zM244 894
q14 0 23 -5q11 -3 20 -13t14 -20q4 -10 4 -23q0 -12 -4 -24q-3 -11 -13 -21q-8 -9 -20 -13q-10 -5 -24 -5q-12 0 -23 5q-11 4 -20 13q-9 10 -14 21q-5 12 -5 24q0 14 5 23q5 10 14 20t20 13q11 5 23 5z" />
    <glyph glyph-name="afii10057" unicode="&#x408;" horiz-adv-x="292" 
d="M81 698h135v-669q0 -66 -11 -116q-10 -49 -34 -82q-21 -31 -62 -47q-39 -16 -98 -16q-12 0 -24 1q-10 1 -22 3q-8 39 -23 117q46 1 74 7t40 19q14 15 19 45q6 32 6 80v658z" />
    <glyph glyph-name="afii10058" unicode="&#x409;" horiz-adv-x="931" 
d="M522 0q-48 134 -194 530v0q-48 -132 -195 -530h-133q70 177 282 702h106q28 -68 109 -278h146q61 0 107 -14q48 -14 83 -43q36 -30 52 -69q17 -38 17 -88q0 -44 -16 -82q-16 -36 -50 -68q-33 -30 -81 -45q-45 -15 -106 -15h-127zM621 109h31q26 0 46 6q20 8 35 20
q17 15 23 32q8 20 8 42q0 24 -8 44q-6 19 -23 33q-15 15 -36 21q-21 7 -47 7h-110q21 -51 81 -205z" />
    <glyph glyph-name="afii10059" unicode="&#x40a;" horiz-adv-x="1041" 
d="M76 698h135v-281h305v281h135v-281h103q60 1 107 -14q49 -13 82 -43q35 -27 53 -66q18 -38 17 -87q1 -45 -17 -82q-16 -37 -50 -67q-33 -28 -79 -43q-45 -15 -106 -15h-245v308h-305v-308h-135v698zM651 109h112q27 0 47 6q20 7 35 19q15 14 22 31q7 19 7 41q0 24 -7 43
q-7 18 -22 32t-36 20q-21 7 -47 7h-111v-199z" />
    <glyph glyph-name="afii10060" unicode="&#x40b;" horiz-adv-x="850" 
d="M17 698h614v-114h-241v-151q36 15 76 22t85 7q69 0 117 -16q50 -16 78 -50q32 -32 46 -83q15 -51 15 -122v-191h-135v191q0 45 -7 76q-8 32 -23 48q-14 18 -44 27q-28 8 -72 8q-36 0 -71 -6q-33 -6 -65 -18v-326h-135v584h-238v114z" />
    <glyph glyph-name="afii10061" unicode="&#x40c;" horiz-adv-x="659" 
d="M76 0v698h135v-278h8q29 0 50 6q21 8 36 19q16 13 31 37q16 24 31 60q2 4 5 13q16 39 34 66q20 29 39 45q22 18 52 26t69 8q6 0 8 1q4 1 7 -1h9t15 -2q1 -36 -1 -109h-8q-24 1 -43 -5q-17 -4 -31 -16q-12 -9 -23 -27q-11 -17 -21 -43q0 -4 -5 -14q-16 -42 -40 -72
q-22 -30 -54 -45q27 -11 48 -26q22 -15 37 -34q16 -18 37 -52q21 -33 46 -81q33 -57 95 -174h-150q-21 42 -89 164q-24 48 -45 78q-20 32 -40 46q-16 16 -42 22q-26 8 -58 7h-7v-317h-135zM255 751q21 41 85 159h153q-39 -39 -160 -159h-78z" />
    <glyph glyph-name="uni040D" unicode="&#x40d;" horiz-adv-x="794" 
d="M76 -6v704h135v-479q108 121 430 479h77v-698h-135v464q-108 -118 -432 -470h-75zM234 910h153q21 -39 85 -159h-77q-39 41 -161 159z" />
    <glyph glyph-name="afii10062" unicode="&#x40e;" horiz-adv-x="714" 
d="M130 -151v111q18 -15 42 -24q26 -9 55 -9q16 0 30 6q15 6 27 16q14 11 21 25q9 14 11 29q-102 233 -306 695h138q58 -135 231 -541q48 135 190 541h136q-65 -168 -260 -678q-20 -52 -42 -90t-48 -61q-24 -23 -54 -35q-28 -10 -64 -11q-27 1 -55 7q-26 6 -52 19zM184 903
h85q11 -33 33 -50q24 -15 62 -16q36 1 57 16q23 17 32 50h85q-6 -37 -20 -65q-15 -28 -39 -50q-23 -20 -53 -31q-28 -11 -65 -11q-9 0 -18 1q-3 1 -8 1q-21 3 -41 9q-30 10 -54 30q-22 23 -38 51q-14 28 -18 65z" />
    <glyph glyph-name="afii10145" unicode="&#x40f;" horiz-adv-x="786" 
d="M76 0v698h135v-582h364v582h136v-698h-252v-143h-132v143h-251z" />
    <glyph glyph-name="Acyrillic" unicode="&#x410;" horiz-adv-x="734" 
d="M302 701h122q78 -175 310 -701h-138q-20 46 -81 185h-299q-18 -45 -78 -185h-138q76 176 302 701zM362 539q-24 -63 -103 -253h212q-27 64 -109 253z" />
    <glyph glyph-name="afii10018" unicode="&#x411;" horiz-adv-x="651" 
d="M80 0v698h484v-105h-349v-165h138q63 0 110 -14t83 -43t54 -69q18 -38 17 -88q0 -48 -16 -86q-16 -39 -52 -69q-34 -29 -82 -44q-47 -15 -107 -15h-280zM215 105h137q28 0 51 8q24 9 40 23q19 16 28 35q9 21 8 43q0 26 -9 46q-8 20 -28 34q-18 14 -44 22q-24 8 -58 7
h-125v-218z" />
    <glyph glyph-name="afii10019" unicode="&#x412;" horiz-adv-x="633" 
d="M76 698h246q54 0 95 -11q42 -11 70 -37q30 -24 45 -56t15 -72q1 -51 -26 -89q-24 -38 -78 -59q39 -8 68 -26q29 -15 50 -41q23 -23 32 -53q10 -28 10 -61q0 -51 -18 -88q-18 -35 -57 -59q-36 -22 -86 -34q-48 -12 -106 -12h-260v698zM210 601v-199h73q33 0 58 7
q25 6 40 20q17 15 25 33q8 20 8 43q0 25 -7 43q-6 18 -21 30q-14 12 -37 17q-22 6 -54 6h-85zM210 97h100q80 0 117 26q39 27 39 79t-40 78q-38 26 -119 26h-97v-209z" />
    <glyph glyph-name="afii10020" unicode="&#x413;" horiz-adv-x="532" 
d="M80 0v698h438v-114h-303v-584h-135z" />
    <glyph glyph-name="afii10021" unicode="&#x414;" horiz-adv-x="762" 
d="M12 -143v254h74q57 147 228 590h121q61 -147 241 -590h74v-254h-133v143h-474v-143h-131zM218 109h325q-42 110 -168 437q-39 -110 -157 -437z" />
    <glyph glyph-name="afii10022" unicode="&#x415;" horiz-adv-x="570" 
d="M76 698h434v-105h-299v-185h288v-106h-288v-196h308v-106h-443v698z" />
    <glyph glyph-name="afii10024" unicode="&#x416;" horiz-adv-x="992" 
d="M17 0q23 40 89 157q32 53 56 89q24 38 42 58q18 22 39 37t44 25q-30 16 -56 45q-24 30 -44 72q-3 13 -13 34q-8 21 -18 35q-10 15 -22 21q-10 9 -31 12q-19 4 -46 4q1 37 -2 109q15 2 23 2h15q39 0 67 -6q30 -6 49 -21q21 -13 38 -37q17 -22 31 -55q6 -15 18 -44
q14 -33 28 -55q14 -21 27 -36q15 -12 32 -19q18 -7 39 -7h7v278h135v-278h6q24 0 40 7q18 8 31 20q15 15 28 40q15 25 30 59q7 15 19 42q14 30 30 50q18 21 38 35q22 15 50 21q30 6 63 6h16t22 -2q1 -36 -1 -109q-24 0 -42 -3q-16 -2 -30 -11q-10 -5 -21 -19q-9 -12 -19 -30
q-4 -12 -17 -38q-22 -46 -48 -78q-26 -30 -53 -44q15 -4 27 -11q13 -5 23 -14q10 -8 21 -18q12 -9 22 -25q10 -14 19 -26t15 -23q7 -10 16 -28q11 -16 23 -42q36 -59 103 -179h-153l-84 156q-24 46 -46 78q-21 33 -41 49q-18 17 -39 26t-48 8v0v-317h-135q0 80 -3 317v0
q-24 1 -45 -8q-21 -7 -39 -25q-18 -16 -39 -49q-21 -31 -47 -77q-28 -52 -86 -158h-153z" />
    <glyph glyph-name="afii10025" unicode="&#x417;" horiz-adv-x="570" 
d="M48 33v121q44 -26 92 -40q48 -12 101 -13q72 0 108 26q36 25 36 75t-39 74q-38 26 -117 25h-79v105h96q33 0 57 6q24 8 42 21q19 15 27 33q9 20 9 41q0 47 -34 68q-33 23 -101 23q-22 0 -46 -3q-24 -1 -53 -9q-27 -6 -50 -15t-43 -20v114q51 21 105 32q53 11 110 11
q59 0 104 -12q45 -10 77 -36q32 -22 47 -56q16 -32 16 -76q1 -27 -8 -53q-8 -24 -24 -46q-15 -21 -38 -38q-22 -15 -52 -26q33 -10 56 -28q25 -15 40 -39q17 -21 26 -48q9 -26 8 -56q1 -46 -17 -83q-16 -37 -53 -65q-35 -27 -86 -41q-50 -14 -114 -14q-53 1 -104 10
q-49 11 -99 32z" />
    <glyph glyph-name="afii10026" unicode="&#x418;" horiz-adv-x="794" 
d="M76 -6v704h135v-479q108 121 430 479h77v-698h-135v464q-108 -118 -432 -470h-75z" />
    <glyph glyph-name="afii10027" unicode="&#x419;" horiz-adv-x="794" 
d="M76 -6v704h135v-479q108 121 430 479h77v-698h-135v464q-108 -118 -432 -470h-75zM223 903h85q9 -33 33 -50q23 -15 61 -16q36 1 58 16q22 17 32 50h85q-5 -37 -20 -65t-39 -50q-22 -20 -53 -31q-29 -11 -65 -11q-34 0 -65 10q0 2 -2 1q-29 10 -53 30q-22 23 -38 51
q-14 28 -19 65z" />
    <glyph glyph-name="afii10028" unicode="&#x41a;" horiz-adv-x="659" 
d="M76 0v698h135v-278h8q29 0 50 6q21 8 36 19q16 13 31 37q16 24 31 60q2 4 5 13q16 39 34 66q20 29 39 45q22 18 52 26t69 8q6 0 10 1v0q3 1 5 -1h9t15 -2q1 -36 -1 -109h-8q-24 1 -43 -5q-17 -4 -31 -16q-12 -9 -23 -27q-11 -17 -21 -43q0 -4 -5 -14q-16 -42 -40 -72
q-22 -30 -54 -45q27 -11 48 -26q22 -15 37 -34q16 -18 37 -52q21 -33 46 -81q33 -57 95 -174h-150q-21 42 -89 164q-24 48 -45 78q-20 32 -40 46q-16 16 -42 22q-26 8 -58 7h-7v-317h-135z" />
    <glyph glyph-name="afii10029" unicode="&#x41b;" horiz-adv-x="719" 
d="M0 0q76 177 302 702h107q78 -174 310 -702h-141q-57 135 -230 537v0q-54 -135 -215 -537h-133z" />
    <glyph glyph-name="afii10030" unicode="&#x41c;" horiz-adv-x="853" 
d="M76 698h125q57 -68 226 -278q57 70 225 278h124v-698h-135v499q-51 -64 -206 -258h-18q-51 64 -208 258v-499h-133v698z" />
    <glyph glyph-name="afii10031" unicode="&#x41d;" horiz-adv-x="790" 
d="M76 698h135v-287h368v287h135v-698h-135v294h-368v-294h-135v698z" />
    <glyph glyph-name="afii10032" unicode="&#x41e;" horiz-adv-x="852" 
d="M426 708q86 0 154 -26q70 -24 121 -77q53 -51 80 -114t26 -141q1 -74 -26 -138q-24 -62 -78 -116q-51 -52 -122 -79q-69 -26 -159 -26q-84 0 -153 26q-67 27 -121 78q-50 53 -77 116q-26 63 -26 137q0 34 6 67t18 64q13 33 29 61q18 28 40 54q24 26 53 47q31 21 67 36
q38 15 80 23t88 8zM423 113q54 1 98 16t78 46q35 33 53 75q18 44 17 100q0 48 -16 89q-15 42 -49 76q-32 35 -77 53q-43 18 -100 18q-54 0 -99 -17q-44 -15 -78 -50q-32 -33 -50 -76q-16 -43 -17 -95q1 -51 17 -93q18 -42 52 -76q36 -33 78 -50q42 -15 93 -16z" />
    <glyph glyph-name="afii10033" unicode="&#x41f;" horiz-adv-x="786" 
d="M76 0v698h635v-698h-136v583h-364v-583h-135z" />
    <glyph glyph-name="afii10034" unicode="&#x420;" horiz-adv-x="596" 
d="M76 698h251q57 0 100 -13q45 -13 76 -41q33 -26 48 -64q16 -38 16 -86t-15 -85t-48 -65q-32 -26 -78 -41q-44 -13 -104 -13h-111v-290h-135v698zM211 596v-203h90q36 0 60 6q27 8 39 20q16 15 22 32q8 20 7 44q1 27 -7 44q-6 19 -23 31q-15 14 -40 20t-61 6h-87z" />
    <glyph glyph-name="afii10035" unicode="&#x421;" horiz-adv-x="735" 
d="M428 708q62 0 125 -14t128 -42v-132q-59 36 -119 54q-58 18 -119 18q-58 0 -106 -18q-46 -16 -82 -54q-35 -36 -53 -79t-18 -94q0 -50 18 -92t52 -78q36 -35 82 -53q48 -18 105 -18q66 0 126 20q62 20 119 57v-131q-56 -30 -122 -46q-63 -15 -138 -15q-45 1 -87 7
q-40 8 -78 22q-36 16 -66 36q-30 21 -54 45q-23 27 -41 55q-18 30 -30 60q-12 32 -19 65q-6 33 -6 67q1 80 28 143q27 65 82 115q55 52 123 76q69 26 150 26z" />
    <glyph glyph-name="afii10036" unicode="&#x422;" horiz-adv-x="662" 
d="M17 698h627v-114h-247v-584h-135v584h-245v114z" />
    <glyph glyph-name="afii10037" unicode="&#x423;" horiz-adv-x="714" 
d="M130 -151v111q18 -15 42 -24q26 -9 55 -9q16 0 30 6q15 6 27 16q14 11 21 25q9 14 11 29q-102 233 -306 695h138q58 -135 231 -541q48 135 190 541h136q-65 -168 -260 -678q-20 -52 -42 -90t-48 -61q-24 -23 -54 -35q-28 -10 -64 -11q-27 1 -55 7q-26 6 -52 19z" />
    <glyph glyph-name="afii10038" unicode="&#x424;" horiz-adv-x="884" 
d="M376 -9v79q-74 2 -134 21t-106 57q-44 40 -68 90q-22 51 -23 113q1 63 22 112q22 51 66 88q45 39 105 59q62 20 138 22v76h132v-76q78 -2 137 -22q60 -20 105 -58t66 -89q24 -49 23 -112q0 -61 -22 -112q-21 -50 -67 -89q-44 -38 -106 -59q-60 -19 -136 -21v-79h-132z
M376 178v345q-44 0 -80 -12q-34 -10 -62 -34q-26 -21 -39 -54q-13 -31 -13 -73q0 -39 13 -72q13 -30 37 -53q28 -21 62 -33q36 -12 82 -14zM508 523v-345q46 2 81 12q37 12 61 34q27 24 39 55t12 70q0 41 -12 73q-11 32 -38 54q-24 24 -60 35q-35 12 -83 12z" />
    <glyph glyph-name="afii10039" unicode="&#x425;" horiz-adv-x="773" 
d="M22 698h168q81 -96 129 -157q49 -59 67 -83q30 39 78 99q50 60 116 141h165q-68 -84 -275 -336q75 -90 300 -362h-168q-106 130 -161 195q-52 67 -55 67q-52 -64 -107 -131q-52 -65 -108 -131h-168q75 92 299 362z" />
    <glyph glyph-name="afii10040" unicode="&#x426;" horiz-adv-x="820" 
d="M76 0v698h135v-582h360v582h136v-582h102v-259h-132v143h-601z" />
    <glyph glyph-name="afii10041" unicode="&#x427;" horiz-adv-x="676" 
d="M465 0v276q-33 -12 -74 -21q-41 -7 -89 -7q-68 0 -118 17q-50 16 -81 49q-30 34 -45 87t-15 123v174h135v-180q0 -44 8 -75t23 -49q15 -16 45 -26q30 -9 73 -9q38 0 72 6t66 18v315h135v-698h-135z" />
    <glyph glyph-name="afii10042" unicode="&#x428;" horiz-adv-x="1023" 
d="M76 0v698h135v-582h232v582h136v-582h233v582h135v-698h-871z" />
    <glyph glyph-name="afii10043" unicode="&#x429;" horiz-adv-x="1061" 
d="M76 0v698h135v-582h232v582h136v-582h233v582h135v-582h102v-259h-131v143h-842z" />
    <glyph glyph-name="afii10044" unicode="&#x42a;" horiz-adv-x="719" 
d="M184 0v590h-167v108h302v-274h111q62 0 110 -14q48 -15 82 -45t51 -69t17 -87q0 -45 -16 -83q-16 -36 -49 -67q-33 -29 -80 -44q-45 -15 -106 -15h-255zM319 109h120q27 0 47 6q21 8 35 20q17 15 23 32q8 20 7 42q1 24 -8 44q-7 19 -23 33q-15 15 -36 21q-20 7 -47 7
h-118v-205z" />
    <glyph glyph-name="afii10045" unicode="&#x42b;" horiz-adv-x="887" 
d="M676 0v698h135v-698h-135zM76 0v698h135v-274h100q61 0 107 -14q48 -14 83 -43q35 -30 53 -69q18 -38 17 -88q0 -44 -16 -82q-15 -36 -50 -68q-33 -30 -80 -45t-107 -15h-242zM211 109h111q26 0 46 6q20 8 34 20q16 15 23 32q7 20 7 42q0 24 -8 44q-6 19 -23 33
q-15 15 -35 21q-20 7 -47 7h-108v-205z" />
    <glyph glyph-name="afii10046" unicode="&#x42c;" horiz-adv-x="611" 
d="M76 0v698h135v-274h113q60 0 107 -14q48 -14 82 -43q35 -30 53 -69q18 -38 17 -88q1 -44 -17 -83q-16 -38 -50 -68q-33 -29 -79 -44q-45 -15 -106 -15h-255zM211 109h122q27 0 47 6q20 8 35 20q15 15 22 32q7 20 7 42q0 24 -7 44q-8 19 -23 33q-15 15 -36 21q-20 7 -46 7
h-121v-205z" />
    <glyph glyph-name="afii10047" unicode="&#x42d;" horiz-adv-x="735" 
d="M193 407h352q-9 44 -32 77q-21 34 -56 59q-33 25 -75 37q-42 14 -90 13q-57 1 -115 -17q-58 -16 -120 -51v129q61 28 121 40q60 14 120 14q88 0 157 -26q71 -26 125 -78q56 -51 82 -117q27 -64 27 -144q0 -31 -6 -64q-6 -30 -18 -62q-12 -31 -30 -59q-17 -27 -41 -54
q-22 -24 -53 -45q-29 -20 -68 -36q-38 -15 -80 -24q-41 -8 -89 -8q-68 0 -132 15q-64 16 -124 46v128q64 -36 124 -56q60 -18 115 -19q51 1 93 13t78 38q36 27 57 61q22 34 31 79h-353v111z" />
    <glyph glyph-name="afii10048" unicode="&#x42e;" horiz-adv-x="1100" 
d="M682 708q84 0 151 -26q67 -24 118 -77q54 -51 78 -114q27 -63 26 -141q1 -75 -25 -139q-24 -63 -77 -116q-50 -51 -119 -78q-69 -26 -156 -26q-74 0 -137 21q-60 22 -110 65q-47 45 -77 98q-28 55 -38 121h-105v-296h-135v698h135v-288h107q10 64 38 116q28 54 75 96
q48 44 110 64q63 22 141 22zM683 586q-54 0 -99 -18q-42 -16 -74 -53q-30 -35 -46 -77q-15 -42 -15 -90q1 -50 16 -94q17 -42 50 -76q35 -33 75 -49q42 -15 90 -16q32 1 58 5q28 6 50 16q26 12 44 26q18 15 31 33q15 19 24 37q10 20 16 39q7 21 10 41t3 40q0 48 -15 89
q-15 42 -47 76q-30 35 -74 53q-42 18 -97 18z" />
    <glyph glyph-name="afii10049" unicode="&#x42f;" horiz-adv-x="659" 
d="M333 698h251v-698h-135v275h-39q-24 0 -45 -4q-19 -4 -37 -16q-16 -10 -37 -34q-19 -22 -41 -60q-32 -53 -94 -161h-153q27 44 106 176q15 26 29 46l28 35q14 15 29 29q16 14 34 25q-33 12 -60 28q-26 18 -44 40q-18 24 -27 51t-9 59q1 47 16 83q15 39 47 67q32 30 77 45
q45 14 104 14zM449 379v217h-94q-31 0 -55 -7t-41 -22q-15 -13 -24 -33t-9 -47q0 -53 36 -81q36 -27 109 -27h78z" />
    <glyph glyph-name="acyrillic" unicode="&#x430;" horiz-adv-x="481" 
d="M224 486q45 0 78 -9q34 -9 58 -32q26 -20 37 -48q13 -27 13 -63v-219q0 -15 5 -24q5 -8 14 -8q9 1 20 5q12 6 27 16v-77q-30 -18 -59 -27q-27 -9 -55 -9t-46 12q-16 13 -24 37q-30 -24 -64 -37q-32 -12 -70 -12q-28 0 -50 8q-22 9 -40 26q-16 17 -26 38q-9 21 -9 46
q0 24 9 45q10 21 29 39t37 30q20 14 36 20q20 8 51 18q32 11 77 26q8 3 11 4q4 2 7 2v19q0 22 -5 36q-4 15 -16 24q-9 10 -25 14q-15 4 -36 4q-45 0 -87 -20q-41 -20 -77 -61v112q36 33 80 49q46 16 100 16zM152 127q0 -13 4 -23q3 -10 12 -20q10 -8 20 -13q12 -3 24 -4
q20 0 38 9q20 9 40 27v130q-36 -12 -64 -24q-27 -11 -43 -25q-15 -10 -23 -26q-8 -14 -8 -31z" />
    <glyph glyph-name="afii10066" unicode="&#x431;" horiz-adv-x="594" 
d="M503 621q-33 -3 -61 -7q-28 -3 -50 -7q-21 -3 -43 -8q-21 -4 -43 -12q-21 -7 -37 -16q-16 -7 -30 -19q-12 -10 -24 -24q-11 -12 -21 -29q-9 -15 -17 -36q-7 -19 -13 -43q30 28 67 40q39 14 83 13q54 0 95 -16q44 -15 78 -48q37 -33 53 -76q18 -42 18 -96q0 -55 -18 -100
t-56 -79q-36 -32 -84 -50q-46 -16 -105 -17q-61 1 -109 19q-48 20 -82 56q-32 38 -50 88q-16 50 -17 113q1 105 22 184q22 80 67 132q45 53 117 86t171 43q32 3 94 9q0 -25 -5 -100zM295 374q-30 0 -54 -10q-25 -8 -43 -28q-18 -18 -28 -44q-9 -24 -9 -56t8 -58
q9 -26 26 -47q16 -20 42 -30q25 -11 57 -11q33 0 57 9q27 10 44 28q20 19 29 46t9 61t-9 58q-8 26 -28 44q-18 20 -43 28q-25 10 -58 10z" />
    <glyph glyph-name="afii10067" unicode="&#x432;" horiz-adv-x="502" 
d="M63 477h199q93 1 138 -31q45 -30 45 -94q0 -34 -16 -61q-15 -24 -50 -42q42 -12 63 -42q21 -27 21 -71q1 -32 -11 -57t-36 -43t-58 -27t-79 -9h-216v477zM183 278h68q37 0 55 14q20 15 19 43q0 29 -18 43t-54 14h-70v-114zM183 85h79q39 0 59 14q19 15 19 43q0 15 -5 24
q-5 12 -14 18q-9 10 -24 13q-13 4 -33 4h-81v-116z" />
    <glyph glyph-name="afii10068" unicode="&#x433;" horiz-adv-x="409" 
d="M63 0v475h331v-100h-211v-375h-120z" />
    <glyph glyph-name="afii10069" unicode="&#x434;" horiz-adv-x="578" 
d="M12 -143v242h50q46 96 183 384h97q44 -96 173 -384h50v-242h-115v143h-322v-143h-116zM181 99h209q-26 59 -103 231q-27 -57 -106 -231z" />
    <glyph glyph-name="afii10070" unicode="&#x435;" horiz-adv-x="529" 
d="M275 486q48 0 87 -15q40 -15 70 -50q32 -33 46 -79q16 -46 16 -104v-19h-335q3 -29 14 -53q12 -24 32 -42q21 -18 45 -28q26 -9 56 -9q45 0 90 14q45 13 87 40v-96q-42 -27 -92 -41q-49 -12 -105 -13q-54 1 -99 17q-43 18 -79 51q-36 35 -53 80q-18 46 -18 103
q1 54 16 98q16 45 48 78q33 34 77 51q45 17 97 17zM159 285h219q0 27 -8 46q-8 21 -22 36t-32 22t-44 7q-22 0 -42 -8q-20 -6 -36 -23q-16 -15 -25 -36q-9 -20 -10 -44z" />
    <glyph glyph-name="afii10072" unicode="&#x436;" horiz-adv-x="752" 
d="M316 0v202q-18 0 -34 -4q-14 -3 -26 -12q-10 -6 -21 -21q-9 -13 -21 -34q-22 -44 -69 -131h-134q20 33 74 132q17 30 29 48q15 20 25 31q13 12 27 21q15 9 33 15q-24 9 -44 25q-17 18 -32 40q-8 14 -24 41q-3 10 -9 16q-4 7 -11 9q-6 4 -12 4q-7 2 -16 1h-17q0 25 -1 94
q15 3 23 2q10 1 15 1q26 0 44 -4q18 -3 30 -12q14 -8 26 -24q13 -16 27 -42q10 -16 28 -52q10 -16 20 -28q9 -10 18 -17q10 -6 22 -9q15 -3 30 -3v188h119v-188q18 0 32 3q15 4 23 11q12 9 20 19q10 12 16 25q10 18 28 51q12 24 25 40q12 15 26 24q15 10 33 14q20 4 43 4
q6 0 15 -1q9 1 23 -2q1 -31 -1 -94h-17q-9 1 -16 -1q-7 0 -13 -5q-6 -3 -11 -10t-11 -17q-6 -12 -20 -38q-14 -22 -33 -40q-18 -16 -44 -25q16 -4 31 -13q14 -9 26 -21q14 -11 27 -32q15 -19 28 -46l75 -135h-134q-16 33 -68 131q-9 21 -21 33q-9 15 -21 21q-10 9 -26 13
q-15 4 -35 4v-202h-119z" />
    </font>
</defs>
</svg>
